<svg width="109" height="35" viewBox="0 0 109 35" fill="none" xmlns="http://www.w3.org/2000/svg">
<rect width="108.702" height="34.3946" rx="17.1973" fill="white"/>
<path d="M22.386 14.8941C22.3464 14.5235 22.1795 14.2348 21.8852 14.0283C21.5937 13.8217 21.2145 13.7184 20.7476 13.7184C20.4194 13.7184 20.1378 13.7679 19.903 13.867C19.6681 13.966 19.4884 14.1004 19.3639 14.2702C19.2394 14.44 19.1758 14.6338 19.1729 14.8517C19.1729 15.0328 19.214 15.1898 19.296 15.3228C19.3809 15.4558 19.4955 15.569 19.6398 15.6624C19.7841 15.753 19.944 15.8294 20.1195 15.8916C20.2949 15.9539 20.4717 16.0062 20.65 16.0487L21.465 16.2524C21.7932 16.3288 22.1087 16.4321 22.4115 16.5622C22.7171 16.6924 22.9902 16.8565 23.2307 17.0546C23.474 17.2527 23.6665 17.4918 23.8079 17.7719C23.9494 18.0521 24.0202 18.3803 24.0202 18.7567C24.0202 19.266 23.89 19.7145 23.6297 20.1022C23.3693 20.487 22.993 20.7884 22.5006 21.0063C22.0111 21.2213 21.4183 21.3288 20.7222 21.3288C20.0459 21.3288 19.4587 21.2241 18.9607 21.0148C18.4655 20.8054 18.0778 20.4997 17.7977 20.0979C17.5204 19.6961 17.3704 19.2066 17.3478 18.6293H18.897C18.9197 18.9321 19.013 19.1839 19.1772 19.3849C19.3413 19.5858 19.5549 19.7357 19.8181 19.8348C20.0841 19.9338 20.3812 19.9833 20.7094 19.9833C21.0518 19.9833 21.3518 19.9324 21.6093 19.8305C21.8696 19.7258 22.0733 19.5815 22.2205 19.3976C22.3676 19.2108 22.4426 18.9929 22.4455 18.7439C22.4426 18.5176 22.3761 18.3308 22.246 18.1837C22.1158 18.0337 21.9333 17.9092 21.6984 17.8101C21.4664 17.7083 21.1947 17.6177 20.8835 17.5385L19.8945 17.2838C19.1786 17.0999 18.6126 16.8212 18.1967 16.4476C17.7835 16.0713 17.577 15.5719 17.577 14.9493C17.577 14.4371 17.7156 13.9886 17.9929 13.6038C18.2731 13.219 18.6537 12.9204 19.1347 12.7082C19.6158 12.4932 20.1605 12.3856 20.7689 12.3856C21.3857 12.3856 21.9262 12.4932 22.3903 12.7082C22.8572 12.9204 23.2236 13.2161 23.4896 13.5953C23.7556 13.9717 23.8928 14.4046 23.9013 14.8941H22.386ZM29.5115 18.4553V14.6777H31.0481V21.1973H29.5582V20.0385H29.4903C29.3432 20.4035 29.1012 20.7021 28.7645 20.9341C28.4306 21.1661 28.0189 21.2822 27.5293 21.2822C27.1021 21.2822 26.7243 21.1874 26.396 20.9978C26.0706 20.8054 25.816 20.5266 25.632 20.1616C25.4481 19.7937 25.3561 19.3495 25.3561 18.8288V14.6777H26.8927V18.5911C26.8927 19.0043 27.0058 19.3325 27.2322 19.5759C27.4586 19.8192 27.7557 19.9409 28.1236 19.9409C28.3499 19.9409 28.5692 19.8857 28.7815 19.7753C28.9937 19.665 29.1677 19.5009 29.3035 19.283C29.4422 19.0623 29.5115 18.7864 29.5115 18.4553ZM32.696 21.1973V12.5045H34.2325V15.7558H34.2962C34.3754 15.5973 34.4872 15.429 34.6315 15.2507C34.7758 15.0696 34.9711 14.9154 35.2172 14.788C35.4634 14.6579 35.7775 14.5928 36.1595 14.5928C36.6632 14.5928 37.1174 14.7215 37.522 14.979C37.9295 15.2337 38.2521 15.6115 38.4898 16.1123C38.7303 16.6103 38.8506 17.2216 38.8506 17.946C38.8506 18.6619 38.7331 19.2702 38.4983 19.7711C38.2634 20.272 37.9436 20.654 37.539 20.9171C37.1344 21.1803 36.6759 21.3119 36.1638 21.3119C35.7903 21.3119 35.4804 21.2496 35.2342 21.1251C34.988 21.0006 34.79 20.8506 34.64 20.6752C34.4928 20.4969 34.3782 20.3286 34.2962 20.1701H34.207V21.1973H32.696ZM34.2028 17.9375C34.2028 18.3591 34.2622 18.7284 34.3811 19.0453C34.5027 19.3622 34.6768 19.6098 34.9031 19.7881C35.1323 19.9635 35.4097 20.0512 35.7351 20.0512C36.0746 20.0512 36.359 19.9607 36.5882 19.7796C36.8174 19.5957 36.99 19.3452 37.1061 19.0283C37.2249 18.7086 37.2843 18.3449 37.2843 17.9375C37.2843 17.5328 37.2263 17.1735 37.1103 16.8594C36.9943 16.5453 36.8217 16.2991 36.5925 16.1208C36.3633 15.9425 36.0775 15.8534 35.7351 15.8534C35.4068 15.8534 35.1281 15.9397 34.8989 16.1123C34.6697 16.2849 34.4957 16.5269 34.3768 16.8381C34.2608 17.1494 34.2028 17.5158 34.2028 17.9375ZM45.3097 16.4009L43.909 16.5538C43.8694 16.4123 43.8 16.2793 43.701 16.1548C43.6048 16.0303 43.4746 15.9298 43.3105 15.8534C43.1464 15.777 42.9455 15.7388 42.7078 15.7388C42.388 15.7388 42.1192 15.8081 41.9013 15.9468C41.6863 16.0854 41.5801 16.2651 41.583 16.4858C41.5801 16.6754 41.6495 16.8296 41.791 16.9485C41.9353 17.0673 42.173 17.165 42.504 17.2414L43.6161 17.4791C44.233 17.6121 44.6914 17.8229 44.9913 18.1115C45.2941 18.4001 45.4469 18.7779 45.4497 19.2448C45.4469 19.6551 45.3266 20.0173 45.089 20.3314C44.8541 20.6426 44.5273 20.886 44.1085 21.0614C43.6897 21.2369 43.2086 21.3246 42.6653 21.3246C41.8674 21.3246 41.225 21.1577 40.7383 20.8237C40.2516 20.487 39.9616 20.0187 39.8682 19.4188L41.3665 19.2745C41.4344 19.5688 41.5787 19.7909 41.7994 19.9409C42.0202 20.0909 42.3074 20.1658 42.6611 20.1658C43.0261 20.1658 43.319 20.0909 43.5397 19.9409C43.7632 19.7909 43.875 19.6056 43.875 19.3849C43.875 19.1981 43.8029 19.0439 43.6585 18.9222C43.5171 18.8005 43.2963 18.7071 42.9964 18.6421L41.8843 18.4086C41.259 18.2784 40.7963 18.0591 40.4964 17.7507C40.1964 17.4394 40.0479 17.0461 40.0507 16.5707C40.0479 16.1689 40.1568 15.8209 40.3775 15.5266C40.6011 15.2295 40.9109 15.0003 41.3071 14.839C41.7061 14.6748 42.1659 14.5928 42.6865 14.5928C43.4506 14.5928 44.0519 14.7555 44.4905 15.0809C44.9319 15.4063 45.205 15.8463 45.3097 16.4009ZM49.5606 21.3246C48.9097 21.3246 48.3509 21.1817 47.884 20.8959C47.4199 20.6101 47.0619 20.2154 46.8101 19.7117C46.5611 19.2052 46.4366 18.6223 46.4366 17.9629C46.4366 17.3008 46.5639 16.7165 46.8186 16.2099C47.0733 15.7006 47.4326 15.3044 47.8967 15.0215C48.3636 14.7357 48.9154 14.5928 49.5521 14.5928C50.0812 14.5928 50.5495 14.6904 50.957 14.8857C51.3673 15.0781 51.6941 15.3511 51.9375 15.7048C52.1808 16.0557 52.3195 16.466 52.3535 16.9358H50.8849C50.8254 16.6217 50.6839 16.3599 50.4604 16.1505C50.2397 15.9383 49.944 15.8322 49.5733 15.8322C49.2592 15.8322 48.9833 15.9171 48.7456 16.0869C48.5079 16.2538 48.3226 16.4943 48.1896 16.8084C48.0594 17.1225 47.9943 17.4989 47.9943 17.9375C47.9943 18.3817 48.0594 18.7637 48.1896 19.0835C48.3197 19.4004 48.5023 19.6452 48.7371 19.8178C48.9748 19.9876 49.2535 20.0725 49.5733 20.0725C49.7997 20.0725 50.002 20.03 50.1803 19.9451C50.3614 19.8574 50.5127 19.7315 50.6344 19.5674C50.7561 19.4032 50.8396 19.2038 50.8849 18.9689H52.3535C52.3167 19.4301 52.1808 19.839 51.946 20.1956C51.7111 20.5493 51.3914 20.8266 50.9867 21.0275C50.5821 21.2256 50.1067 21.3246 49.5606 21.3246ZM53.6151 21.1973V14.6777H55.105V15.7643H55.1729C55.2917 15.3879 55.4955 15.0979 55.7841 14.8941C56.0756 14.6876 56.408 14.5843 56.7816 14.5843C56.8665 14.5843 56.9612 14.5885 57.0659 14.597C57.1735 14.6027 57.2626 14.6126 57.3333 14.6267V16.0402C57.2683 16.0175 57.165 15.9977 57.0235 15.9807C56.8848 15.9609 56.7504 15.951 56.6203 15.951C56.3401 15.951 56.0883 16.0119 55.8647 16.1335C55.644 16.2524 55.47 16.4179 55.3427 16.6302C55.2153 16.8424 55.1517 17.0871 55.1517 17.3645V21.1973H53.6151ZM58.3542 21.1973V14.6777H59.8907V21.1973H58.3542ZM59.1267 13.7524C58.8833 13.7524 58.6739 13.6717 58.4985 13.5104C58.323 13.3463 58.2353 13.1496 58.2353 12.9204C58.2353 12.6884 58.323 12.4917 58.4985 12.3304C58.6739 12.1663 58.8833 12.0843 59.1267 12.0843C59.3729 12.0843 59.5822 12.1663 59.7549 12.3304C59.9303 12.4917 60.018 12.6884 60.018 12.9204C60.018 13.1496 59.9303 13.3463 59.7549 13.5104C59.5822 13.6717 59.3729 13.7524 59.1267 13.7524ZM61.5386 21.1973V12.5045H63.0751V15.7558H63.1388C63.218 15.5973 63.3298 15.429 63.4741 15.2507C63.6184 15.0696 63.8137 14.9154 64.0599 14.788C64.306 14.6579 64.6201 14.5928 65.0022 14.5928C65.5058 14.5928 65.96 14.7215 66.3646 14.979C66.7721 15.2337 67.0947 15.6115 67.3324 16.1123C67.5729 16.6103 67.6932 17.2216 67.6932 17.946C67.6932 18.6619 67.5757 19.2702 67.3409 19.7711C67.106 20.272 66.7863 20.654 66.3816 20.9171C65.977 21.1803 65.5186 21.3119 65.0064 21.3119C64.6329 21.3119 64.323 21.2496 64.0768 21.1251C63.8307 21.0006 63.6326 20.8506 63.4826 20.6752C63.3355 20.4969 63.2209 20.3286 63.1388 20.1701H63.0497V21.1973H61.5386ZM63.0454 17.9375C63.0454 18.3591 63.1048 18.7284 63.2237 19.0453C63.3454 19.3622 63.5194 19.6098 63.7458 19.7881C63.975 19.9635 64.2523 20.0512 64.5777 20.0512C64.9173 20.0512 65.2016 19.9607 65.4308 19.7796C65.6601 19.5957 65.8327 19.3452 65.9487 19.0283C66.0675 18.7086 66.127 18.3449 66.127 17.9375C66.127 17.5328 66.0689 17.1735 65.9529 16.8594C65.8369 16.5453 65.6643 16.2991 65.4351 16.1208C65.2059 15.9425 64.9201 15.8534 64.5777 15.8534C64.2495 15.8534 63.9707 15.9397 63.7415 16.1123C63.5123 16.2849 63.3383 16.5269 63.2194 16.8381C63.1034 17.1494 63.0454 17.5158 63.0454 17.9375ZM71.8857 21.3246C71.2321 21.3246 70.6675 21.1888 70.1921 20.9171C69.7196 20.6426 69.356 20.255 69.1013 19.7541C68.8466 19.2504 68.7193 18.6576 68.7193 17.9757C68.7193 17.305 68.8466 16.7165 69.1013 16.2099C69.3588 15.7006 69.7182 15.3044 70.1794 15.0215C70.6407 14.7357 71.1825 14.5928 71.8051 14.5928C72.2069 14.5928 72.5861 14.6579 72.9426 14.788C73.302 14.9154 73.6189 15.1134 73.8934 15.3823C74.1707 15.6511 74.3886 15.9935 74.547 16.4094C74.7055 16.8226 74.7847 17.3149 74.7847 17.8865V18.3577H69.4409V17.322H73.3119C73.309 17.0277 73.2454 16.766 73.1209 16.5368C72.9964 16.3047 72.8223 16.1222 72.5988 15.9892C72.3781 15.8562 72.1206 15.7897 71.8263 15.7897C71.5122 15.7897 71.2363 15.8661 70.9986 16.0189C70.7609 16.1689 70.5756 16.367 70.4426 16.6132C70.3124 16.8565 70.2459 17.1239 70.2431 17.4154V18.3195C70.2431 18.6987 70.3124 19.0241 70.4511 19.2957C70.5897 19.5645 70.7836 19.7711 71.0326 19.9154C71.2816 20.0569 71.573 20.1276 71.9069 20.1276C72.1305 20.1276 72.3328 20.0965 72.5139 20.0343C72.695 19.9692 72.8521 19.8744 72.985 19.7499C73.118 19.6254 73.2185 19.4712 73.2864 19.2872L74.7211 19.4485C74.6305 19.8277 74.4579 20.1588 74.2032 20.4417C73.9514 20.7219 73.6288 20.9398 73.2355 21.0954C72.8421 21.2482 72.3922 21.3246 71.8857 21.3246Z" fill="black"/>
<path d="M88.7373 13.4552C88.43 13.1477 87.9323 13.1477 87.625 13.4552C87.3177 13.7622 87.3177 14.2612 87.625 14.5681L89.4663 16.4105H83.0553C82.6211 16.4105 82.2686 16.7627 82.2686 17.1976C82.2686 17.6325 82.6211 17.9847 83.0553 17.9847H89.4663L87.625 19.827C87.3177 20.1345 87.3177 20.633 87.625 20.9399C87.7787 21.0936 87.9801 21.1702 88.1814 21.1702C88.3829 21.1702 88.5842 21.0936 88.7379 20.9399L91.9218 17.7538C92.2291 17.4463 92.2291 16.9479 91.9218 16.6408L88.7373 13.4552Z" fill="black"/>
</svg>
