<svg width="35" height="35" viewBox="0 0 35 35" fill="none" xmlns="http://www.w3.org/2000/svg">
<path d="M0.736806 26.6296L20.4452 6.92113C20.8202 6.54616 21.4282 6.54616 21.8031 6.92113L27.6544 12.7724C28.0264 13.1444 28.0298 13.7463 27.6622 14.1225L7.96403 34.2787C7.78337 34.4636 7.53581 34.5678 7.27733 34.5678H1.02205C0.468208 34.5678 0.029206 34.1005 0.063754 33.5477L0.457449 27.2486C0.472042 27.0151 0.57138 26.795 0.736806 26.6296Z" fill="#DB0000"/>
<path d="M30.0058 10.3221L24.283 4.59932C23.8783 4.19466 23.9152 3.52811 24.3621 3.17061L27.6289 0.557195C28.0216 0.243047 28.5901 0.285105 28.9323 0.653613L33.973 6.08208C34.3096 6.44461 34.3157 7.00358 33.987 7.37333L31.4024 10.2811C31.0353 10.694 30.3964 10.7128 30.0058 10.3221Z" fill="#DB0000"/>
</svg>
