<svg width="530" height="465" viewBox="0 0 530 465" fill="none" xmlns="http://www.w3.org/2000/svg">
<rect width="530" height="465" rx="20" fill="white"/>
<path d="M38.5049 31.9683H42.6768L47.083 42.7183H47.2705L51.6768 31.9683H55.8486V47.9683H52.5674V37.5542H52.4346L48.2939 47.8901H46.0596L41.9189 37.5151H41.7861V47.9683H38.5049V31.9683ZM60.6279 52.4683C60.2061 52.4683 59.8102 52.4344 59.4404 52.3667C59.0758 52.3042 58.7738 52.2235 58.5342 52.1245L59.2842 49.6401C59.6748 49.7599 60.0264 49.825 60.3389 49.8354C60.6566 49.8459 60.93 49.7729 61.1592 49.6167C61.3936 49.4604 61.5837 49.1948 61.7295 48.8198L61.9248 48.312L57.6201 35.9683H61.1201L63.6045 44.7808H63.7295L66.2373 35.9683H69.7607L65.0967 49.2651C64.8727 49.911 64.568 50.4735 64.1826 50.9526C63.8024 51.437 63.3206 51.8094 62.7373 52.0698C62.154 52.3354 61.4508 52.4683 60.6279 52.4683ZM79.9775 48.1948C79.2119 48.1948 78.5296 48.062 77.9307 47.7964C77.3317 47.5256 76.8577 47.1271 76.5088 46.6011C76.165 46.0698 75.9932 45.4084 75.9932 44.6167C75.9932 43.95 76.1156 43.3901 76.3604 42.937C76.6051 42.4839 76.9385 42.1193 77.3604 41.8433C77.7822 41.5672 78.2614 41.3589 78.7979 41.2183C79.3395 41.0776 79.9072 40.9787 80.501 40.9214C81.1989 40.8485 81.7614 40.7808 82.1885 40.7183C82.6156 40.6506 82.9255 40.5516 83.1182 40.4214C83.3109 40.2912 83.4072 40.0985 83.4072 39.8433V39.7964C83.4072 39.3016 83.251 38.9188 82.9385 38.6479C82.6312 38.3771 82.1937 38.2417 81.626 38.2417C81.027 38.2417 80.5505 38.3745 80.1963 38.6401C79.8421 38.9006 79.6077 39.2287 79.4932 39.6245L76.415 39.3745C76.5713 38.6453 76.8786 38.0151 77.3369 37.4839C77.7952 36.9474 78.3864 36.536 79.1104 36.2495C79.8395 35.9578 80.6833 35.812 81.6416 35.812C82.3083 35.812 82.9463 35.8901 83.5557 36.0464C84.1702 36.2026 84.7145 36.4448 85.1885 36.7729C85.6676 37.1011 86.0452 37.5229 86.3213 38.0386C86.5973 38.549 86.7354 39.161 86.7354 39.8745V47.9683H83.5791V46.3042H83.4854C83.2926 46.6792 83.0348 47.0099 82.7119 47.2964C82.389 47.5776 82.001 47.799 81.5479 47.9604C81.0947 48.1167 80.5713 48.1948 79.9775 48.1948ZM80.9307 45.8979C81.4202 45.8979 81.8525 45.8016 82.2275 45.6089C82.6025 45.411 82.8968 45.1453 83.1104 44.812C83.3239 44.4787 83.4307 44.1011 83.4307 43.6792V42.4058C83.3265 42.4735 83.1833 42.536 83.001 42.5933C82.8239 42.6453 82.6234 42.6948 82.3994 42.7417C82.1755 42.7834 81.9515 42.8224 81.7275 42.8589C81.5036 42.8901 81.3005 42.9188 81.1182 42.9448C80.7275 43.0021 80.3864 43.0933 80.0947 43.2183C79.8031 43.3433 79.5765 43.5125 79.415 43.7261C79.2536 43.9344 79.1729 44.1948 79.1729 44.5073C79.1729 44.9604 79.3369 45.3068 79.665 45.5464C79.9984 45.7808 80.4202 45.8979 80.9307 45.8979ZM94.7393 48.2026C93.5101 48.2026 92.4528 47.9422 91.5674 47.4214C90.6872 46.8953 90.0101 46.1662 89.5361 45.2339C89.0674 44.3016 88.833 43.2287 88.833 42.0151C88.833 40.786 89.07 39.7078 89.5439 38.7808C90.0231 37.8485 90.7028 37.1219 91.583 36.6011C92.4632 36.075 93.5101 35.812 94.7236 35.812C95.7705 35.812 96.6872 36.0021 97.4736 36.3823C98.2601 36.7625 98.8825 37.2964 99.3408 37.9839C99.7992 38.6714 100.052 39.4787 100.099 40.4058H96.958C96.8695 39.8068 96.6351 39.325 96.2549 38.9604C95.8799 38.5907 95.3877 38.4058 94.7783 38.4058C94.2627 38.4058 93.8122 38.5464 93.4268 38.8276C93.0465 39.1037 92.7497 39.5073 92.5361 40.0386C92.3226 40.5698 92.2158 41.2131 92.2158 41.9683C92.2158 42.7339 92.32 43.3849 92.5283 43.9214C92.7419 44.4578 93.0413 44.8667 93.4268 45.1479C93.8122 45.4292 94.2627 45.5698 94.7783 45.5698C95.1585 45.5698 95.4997 45.4917 95.8018 45.3354C96.109 45.1792 96.3617 44.9526 96.5596 44.6558C96.7627 44.3537 96.8955 43.9917 96.958 43.5698H100.099C100.047 44.4865 99.7965 45.2938 99.3486 45.9917C98.9059 46.6844 98.2939 47.2261 97.5127 47.6167C96.7314 48.0073 95.807 48.2026 94.7393 48.2026ZM107.651 48.2026C106.422 48.2026 105.365 47.9422 104.479 47.4214C103.599 46.8953 102.922 46.1662 102.448 45.2339C101.979 44.3016 101.745 43.2287 101.745 42.0151C101.745 40.786 101.982 39.7078 102.456 38.7808C102.935 37.8485 103.615 37.1219 104.495 36.6011C105.375 36.075 106.422 35.812 107.636 35.812C108.683 35.812 109.599 36.0021 110.386 36.3823C111.172 36.7625 111.795 37.2964 112.253 37.9839C112.711 38.6714 112.964 39.4787 113.011 40.4058H109.87C109.782 39.8068 109.547 39.325 109.167 38.9604C108.792 38.5907 108.3 38.4058 107.69 38.4058C107.175 38.4058 106.724 38.5464 106.339 38.8276C105.959 39.1037 105.662 39.5073 105.448 40.0386C105.235 40.5698 105.128 41.2131 105.128 41.9683C105.128 42.7339 105.232 43.3849 105.44 43.9214C105.654 44.4578 105.953 44.8667 106.339 45.1479C106.724 45.4292 107.175 45.5698 107.69 45.5698C108.071 45.5698 108.412 45.4917 108.714 45.3354C109.021 45.1792 109.274 44.9526 109.472 44.6558C109.675 44.3537 109.808 43.9917 109.87 43.5698H113.011C112.959 44.4865 112.709 45.2938 112.261 45.9917C111.818 46.6844 111.206 47.2261 110.425 47.6167C109.644 48.0073 108.719 48.2026 107.651 48.2026ZM120.563 48.2026C119.35 48.2026 118.3 47.9448 117.415 47.4292C116.535 46.9084 115.855 46.1844 115.376 45.2573C114.897 44.325 114.657 43.2443 114.657 42.0151C114.657 40.7756 114.897 39.6922 115.376 38.7651C115.855 37.8328 116.535 37.1089 117.415 36.5933C118.3 36.0724 119.35 35.812 120.563 35.812C121.777 35.812 122.824 36.0724 123.704 36.5933C124.59 37.1089 125.272 37.8328 125.751 38.7651C126.23 39.6922 126.47 40.7756 126.47 42.0151C126.47 43.2443 126.23 44.325 125.751 45.2573C125.272 46.1844 124.59 46.9084 123.704 47.4292C122.824 47.9448 121.777 48.2026 120.563 48.2026ZM120.579 45.6245C121.131 45.6245 121.592 45.4683 121.962 45.1558C122.332 44.8381 122.61 44.4058 122.798 43.8589C122.991 43.312 123.087 42.6896 123.087 41.9917C123.087 41.2938 122.991 40.6714 122.798 40.1245C122.61 39.5776 122.332 39.1453 121.962 38.8276C121.592 38.5099 121.131 38.3511 120.579 38.3511C120.022 38.3511 119.553 38.5099 119.173 38.8276C118.798 39.1453 118.514 39.5776 118.321 40.1245C118.134 40.6714 118.04 41.2938 118.04 41.9917C118.04 42.6896 118.134 43.312 118.321 43.8589C118.514 44.4058 118.798 44.8381 119.173 45.1558C119.553 45.4683 120.022 45.6245 120.579 45.6245ZM136.329 42.8589V35.9683H139.657V47.9683H136.462V45.7886H136.337C136.066 46.4917 135.616 47.0568 134.985 47.4839C134.36 47.911 133.597 48.1245 132.696 48.1245C131.894 48.1245 131.188 47.9422 130.579 47.5776C129.97 47.2131 129.493 46.6948 129.149 46.0229C128.811 45.3511 128.639 44.5464 128.634 43.6089V35.9683H131.962V43.0151C131.967 43.7235 132.157 44.2834 132.532 44.6948C132.907 45.1063 133.41 45.312 134.04 45.312C134.441 45.312 134.816 45.2209 135.165 45.0386C135.514 44.8511 135.795 44.575 136.009 44.2104C136.228 43.8459 136.334 43.3953 136.329 42.8589ZM145.647 41.0308V47.9683H142.319V35.9683H145.491V38.0854H145.632C145.897 37.3875 146.343 36.8354 146.968 36.4292C147.593 36.0177 148.351 35.812 149.241 35.812C150.075 35.812 150.801 35.9943 151.421 36.3589C152.041 36.7235 152.522 37.2443 152.866 37.9214C153.21 38.5933 153.382 39.3953 153.382 40.3276V47.9683H150.054V40.9214C150.059 40.187 149.871 39.6141 149.491 39.2026C149.111 38.786 148.588 38.5776 147.921 38.5776C147.473 38.5776 147.077 38.674 146.733 38.8667C146.395 39.0594 146.129 39.3407 145.937 39.7104C145.749 40.075 145.653 40.5151 145.647 41.0308ZM162.388 35.9683V38.4683H155.161V35.9683H162.388ZM156.802 33.0933H160.13V44.2808C160.13 44.5881 160.177 44.8276 160.271 44.9995C160.364 45.1662 160.494 45.2834 160.661 45.3511C160.833 45.4188 161.031 45.4526 161.255 45.4526C161.411 45.4526 161.567 45.4396 161.724 45.4136C161.88 45.3823 162 45.3589 162.083 45.3433L162.606 47.8198C162.44 47.8719 162.205 47.9318 161.903 47.9995C161.601 48.0724 161.234 48.1167 160.802 48.1323C160 48.1636 159.297 48.0568 158.692 47.812C158.093 47.5672 157.627 47.187 157.294 46.6714C156.961 46.1558 156.797 45.5047 156.802 44.7183V33.0933Z" fill="black"/>
<circle cx="93" cy="129" r="56" fill="#F6F6F6"/>
<circle cx="93.0001" cy="119.328" r="15.3282" fill="#D9D9D9"/>
<path d="M109.978 132.838C112.788 132.838 115.116 135.02 115.296 137.824L115.97 148.329C116.167 151.405 113.722 154.006 110.641 153.999L75.3164 153.919C72.2585 153.912 69.8335 151.338 70.0088 148.285L70.6074 137.861C70.7693 135.042 73.1029 132.839 75.9268 132.839L77.8975 132.838C81.9363 136.356 87.2152 138.487 92.9922 138.487C98.7692 138.487 104.048 136.356 108.087 132.838H109.978Z" fill="#D9D9D9"/>
<path d="M199.672 110V126H197.453L189.32 114.266H189.172V126H186.758V110H188.992L197.133 121.75H197.281V110H199.672ZM206.498 126.266C205.738 126.266 205.05 126.125 204.436 125.844C203.821 125.557 203.334 125.143 202.975 124.602C202.62 124.06 202.443 123.396 202.443 122.609C202.443 121.932 202.574 121.375 202.834 120.937C203.094 120.5 203.446 120.154 203.889 119.898C204.331 119.643 204.826 119.451 205.373 119.32C205.92 119.19 206.477 119.091 207.045 119.023C207.764 118.94 208.347 118.872 208.795 118.82C209.243 118.763 209.568 118.672 209.771 118.547C209.975 118.422 210.076 118.219 210.076 117.937V117.883C210.076 117.201 209.883 116.672 209.498 116.297C209.118 115.922 208.55 115.734 207.795 115.734C207.008 115.734 206.389 115.909 205.936 116.258C205.488 116.602 205.178 116.984 205.006 117.406L202.811 116.906C203.071 116.177 203.451 115.589 203.951 115.141C204.456 114.687 205.037 114.359 205.693 114.156C206.35 113.948 207.04 113.844 207.764 113.844C208.243 113.844 208.751 113.901 209.287 114.016C209.829 114.125 210.334 114.328 210.803 114.625C211.277 114.922 211.665 115.346 211.967 115.898C212.269 116.445 212.42 117.156 212.42 118.031V126H210.139V124.359H210.045C209.894 124.661 209.667 124.958 209.365 125.25C209.063 125.542 208.675 125.784 208.201 125.977C207.727 126.169 207.16 126.266 206.498 126.266ZM207.006 124.391C207.652 124.391 208.204 124.263 208.662 124.008C209.126 123.753 209.477 123.419 209.717 123.008C209.962 122.591 210.084 122.146 210.084 121.672V120.125C210.001 120.208 209.839 120.286 209.6 120.359C209.365 120.427 209.097 120.487 208.795 120.539C208.493 120.586 208.199 120.63 207.912 120.672C207.626 120.708 207.386 120.74 207.193 120.766C206.74 120.823 206.326 120.919 205.951 121.055C205.581 121.19 205.285 121.385 205.061 121.641C204.842 121.891 204.732 122.224 204.732 122.641C204.732 123.219 204.946 123.656 205.373 123.953C205.8 124.245 206.344 124.391 207.006 124.391ZM215.531 126V114H217.773V115.953H217.922C218.172 115.292 218.581 114.776 219.148 114.406C219.716 114.031 220.396 113.844 221.188 113.844C221.99 113.844 222.661 114.031 223.203 114.406C223.75 114.781 224.154 115.297 224.414 115.953H224.539C224.826 115.312 225.281 114.802 225.906 114.422C226.531 114.036 227.276 113.844 228.141 113.844C229.229 113.844 230.117 114.185 230.805 114.867C231.497 115.549 231.844 116.578 231.844 117.953V126H229.508V118.172C229.508 117.359 229.286 116.771 228.844 116.406C228.401 116.042 227.872 115.859 227.258 115.859C226.497 115.859 225.906 116.094 225.484 116.562C225.063 117.026 224.852 117.622 224.852 118.352V126H222.523V118.023C222.523 117.372 222.32 116.849 221.914 116.453C221.508 116.057 220.979 115.859 220.328 115.859C219.885 115.859 219.477 115.977 219.102 116.211C218.732 116.44 218.432 116.76 218.203 117.172C217.979 117.583 217.867 118.06 217.867 118.602V126H215.531ZM240.146 126.242C238.964 126.242 237.946 125.99 237.092 125.484C236.243 124.974 235.587 124.258 235.123 123.336C234.665 122.409 234.436 121.323 234.436 120.078C234.436 118.849 234.665 117.766 235.123 116.828C235.587 115.891 236.232 115.159 237.061 114.633C237.894 114.107 238.868 113.844 239.982 113.844C240.66 113.844 241.316 113.956 241.951 114.18C242.587 114.404 243.157 114.755 243.662 115.234C244.167 115.714 244.566 116.336 244.857 117.102C245.149 117.862 245.295 118.786 245.295 119.875V120.703H235.756V118.953H243.006C243.006 118.339 242.881 117.794 242.631 117.32C242.381 116.841 242.029 116.464 241.576 116.187C241.128 115.911 240.602 115.773 239.998 115.773C239.342 115.773 238.769 115.935 238.279 116.258C237.795 116.576 237.42 116.992 237.154 117.508C236.894 118.018 236.764 118.573 236.764 119.172V120.539C236.764 121.341 236.904 122.023 237.186 122.586C237.472 123.148 237.87 123.578 238.381 123.875C238.891 124.167 239.488 124.312 240.17 124.312C240.613 124.312 241.016 124.25 241.381 124.125C241.745 123.995 242.061 123.802 242.326 123.547C242.592 123.292 242.795 122.977 242.936 122.602L245.146 123C244.969 123.651 244.652 124.221 244.193 124.711C243.74 125.195 243.17 125.573 242.482 125.844C241.8 126.109 241.021 126.242 240.146 126.242Z" fill="black"/>
<path d="M186.071 148V139.818H187.663V148H186.071ZM186.875 138.556C186.598 138.556 186.36 138.463 186.161 138.279C185.966 138.091 185.868 137.867 185.868 137.608C185.868 137.345 185.966 137.121 186.161 136.936C186.36 136.748 186.598 136.654 186.875 136.654C187.152 136.654 187.388 136.748 187.583 136.936C187.782 137.121 187.882 137.345 187.882 137.608C187.882 137.867 187.782 138.091 187.583 138.279C187.388 138.463 187.152 138.556 186.875 138.556ZM191.399 137.091V148H189.806V137.091H191.399ZM196.988 148.165C196.221 148.165 195.551 147.989 194.98 147.638C194.408 147.286 193.964 146.794 193.648 146.162C193.332 145.53 193.174 144.792 193.174 143.946C193.174 143.098 193.332 142.355 193.648 141.72C193.964 141.084 194.408 140.591 194.98 140.239C195.551 139.887 196.221 139.712 196.988 139.712C197.755 139.712 198.424 139.887 198.996 140.239C199.568 140.591 200.012 141.084 200.328 141.72C200.644 142.355 200.802 143.098 200.802 143.946C200.802 144.792 200.644 145.53 200.328 146.162C200.012 146.794 199.568 147.286 198.996 147.638C198.424 147.989 197.755 148.165 196.988 148.165ZM196.993 146.828C197.49 146.828 197.902 146.697 198.229 146.434C198.556 146.171 198.797 145.821 198.953 145.385C199.113 144.948 199.193 144.467 199.193 143.941C199.193 143.419 199.113 142.94 198.953 142.503C198.797 142.062 198.556 141.709 198.229 141.443C197.902 141.176 197.49 141.043 196.993 141.043C196.492 141.043 196.077 141.176 195.747 141.443C195.42 141.709 195.177 142.062 195.017 142.503C194.861 142.94 194.782 143.419 194.782 143.941C194.782 144.467 194.861 144.948 195.017 145.385C195.177 145.821 195.42 146.171 195.747 146.434C196.077 146.697 196.492 146.828 196.993 146.828ZM209.3 139.818L206.333 148H204.629L201.657 139.818H203.366L205.439 146.114H205.524L207.591 139.818H209.3ZM214.045 148.165C213.239 148.165 212.545 147.993 211.962 147.648C211.384 147.3 210.936 146.812 210.62 146.184C210.308 145.551 210.151 144.811 210.151 143.962C210.151 143.124 210.308 142.386 210.62 141.746C210.936 141.107 211.377 140.608 211.941 140.25C212.509 139.891 213.173 139.712 213.933 139.712C214.395 139.712 214.842 139.788 215.276 139.941C215.709 140.093 216.098 140.333 216.442 140.66C216.787 140.987 217.058 141.411 217.257 141.933C217.456 142.451 217.555 143.082 217.555 143.824V144.388H211.052V143.195H215.995C215.995 142.776 215.91 142.405 215.739 142.082C215.569 141.755 215.329 141.498 215.02 141.31C214.715 141.121 214.356 141.027 213.944 141.027C213.497 141.027 213.106 141.137 212.772 141.358C212.442 141.574 212.186 141.858 212.005 142.21C211.828 142.558 211.739 142.936 211.739 143.344V144.277C211.739 144.824 211.835 145.289 212.026 145.672C212.222 146.056 212.493 146.349 212.841 146.551C213.189 146.75 213.596 146.849 214.061 146.849C214.363 146.849 214.638 146.807 214.887 146.722C215.135 146.633 215.35 146.501 215.531 146.327C215.712 146.153 215.851 145.939 215.947 145.683L217.454 145.955C217.334 146.398 217.117 146.787 216.804 147.121C216.495 147.451 216.107 147.709 215.638 147.893C215.173 148.075 214.642 148.165 214.045 148.165ZM219.45 148V137.091H223.339C224.184 137.091 224.885 137.237 225.443 137.528C226.004 137.819 226.423 138.222 226.7 138.737C226.977 139.248 227.116 139.839 227.116 140.511C227.116 141.178 226.975 141.766 226.695 142.274C226.418 142.778 225.999 143.17 225.438 143.451C224.88 143.732 224.179 143.872 223.334 143.872H220.388V142.455H223.184C223.717 142.455 224.15 142.379 224.484 142.226C224.822 142.073 225.068 141.851 225.225 141.56C225.381 141.269 225.459 140.919 225.459 140.511C225.459 140.099 225.379 139.742 225.219 139.44C225.063 139.138 224.816 138.907 224.479 138.748C224.145 138.584 223.706 138.502 223.163 138.502H221.096V148H219.45ZM224.836 143.078L227.531 148H225.656L223.014 143.078H224.836ZM234.173 144.607V139.818H235.771V148H234.205V146.583H234.12C233.932 147.02 233.63 147.384 233.215 147.675C232.803 147.963 232.29 148.107 231.675 148.107C231.15 148.107 230.684 147.991 230.28 147.76C229.878 147.526 229.562 147.18 229.331 146.722C229.104 146.263 228.991 145.697 228.991 145.022V139.818H230.583V144.831C230.583 145.388 230.738 145.832 231.047 146.162C231.356 146.493 231.757 146.658 232.251 146.658C232.549 146.658 232.845 146.583 233.14 146.434C233.438 146.285 233.685 146.059 233.881 145.757C234.079 145.456 234.177 145.072 234.173 144.607ZM244.043 141.816L242.599 142.071C242.539 141.887 242.443 141.711 242.311 141.544C242.184 141.377 242.009 141.24 241.789 141.134C241.569 141.027 241.294 140.974 240.964 140.974C240.513 140.974 240.136 141.075 239.834 141.278C239.533 141.477 239.382 141.734 239.382 142.05C239.382 142.324 239.483 142.544 239.685 142.711C239.888 142.877 240.214 143.014 240.665 143.121L241.965 143.419C242.718 143.593 243.279 143.861 243.648 144.223C244.018 144.586 244.202 145.056 244.202 145.635C244.202 146.125 244.06 146.562 243.776 146.945C243.496 147.325 243.103 147.624 242.599 147.84C242.098 148.057 241.518 148.165 240.857 148.165C239.941 148.165 239.193 147.97 238.615 147.579C238.036 147.185 237.681 146.626 237.549 145.901L239.089 145.667C239.185 146.068 239.382 146.372 239.68 146.578C239.978 146.78 240.367 146.881 240.847 146.881C241.369 146.881 241.786 146.773 242.098 146.556C242.411 146.336 242.567 146.068 242.567 145.752C242.567 145.496 242.471 145.282 242.279 145.108C242.091 144.934 241.802 144.802 241.411 144.713L240.026 144.41C239.263 144.236 238.698 143.959 238.332 143.579C237.97 143.199 237.789 142.718 237.789 142.135C237.789 141.652 237.924 141.23 238.194 140.868C238.464 140.505 238.837 140.223 239.312 140.021C239.788 139.815 240.333 139.712 240.948 139.712C241.832 139.712 242.528 139.903 243.036 140.287C243.544 140.667 243.879 141.176 244.043 141.816ZM252.085 141.816L250.641 142.071C250.581 141.887 250.485 141.711 250.353 141.544C250.225 141.377 250.051 141.24 249.831 141.134C249.611 141.027 249.336 140.974 249.006 140.974C248.555 140.974 248.178 141.075 247.876 141.278C247.575 141.477 247.424 141.734 247.424 142.05C247.424 142.324 247.525 142.544 247.727 142.711C247.93 142.877 248.256 143.014 248.707 143.121L250.007 143.419C250.76 143.593 251.321 143.861 251.69 144.223C252.06 144.586 252.244 145.056 252.244 145.635C252.244 146.125 252.102 146.562 251.818 146.945C251.538 147.325 251.145 147.624 250.641 147.84C250.14 148.057 249.56 148.165 248.899 148.165C247.983 148.165 247.235 147.97 246.657 147.579C246.078 147.185 245.723 146.626 245.591 145.901L247.131 145.667C247.227 146.068 247.424 146.372 247.722 146.578C248.02 146.78 248.409 146.881 248.888 146.881C249.411 146.881 249.828 146.773 250.14 146.556C250.453 146.336 250.609 146.068 250.609 145.752C250.609 145.496 250.513 145.282 250.321 145.108C250.133 144.934 249.844 144.802 249.453 144.713L248.068 144.41C247.305 144.236 246.74 143.959 246.374 143.579C246.012 143.199 245.831 142.718 245.831 142.135C245.831 141.652 245.966 141.23 246.236 140.868C246.506 140.505 246.879 140.223 247.354 140.021C247.83 139.815 248.375 139.712 248.99 139.712C249.874 139.712 250.57 139.903 251.078 140.287C251.586 140.667 251.921 141.176 252.085 141.816ZM253.995 148V139.818H255.588V148H253.995ZM254.8 138.556C254.523 138.556 254.285 138.463 254.086 138.279C253.891 138.091 253.793 137.867 253.793 137.608C253.793 137.345 253.891 137.121 254.086 136.936C254.285 136.748 254.523 136.654 254.8 136.654C255.077 136.654 255.313 136.748 255.508 136.936C255.707 137.121 255.807 137.345 255.807 137.608C255.807 137.867 255.707 138.091 255.508 138.279C255.313 138.463 255.077 138.556 254.8 138.556ZM260.112 148.181C259.593 148.181 259.125 148.085 258.706 147.893C258.287 147.698 257.955 147.416 257.71 147.047C257.468 146.677 257.347 146.224 257.347 145.688C257.347 145.227 257.436 144.847 257.614 144.548C257.791 144.25 258.031 144.014 258.333 143.84C258.635 143.666 258.972 143.534 259.345 143.446C259.718 143.357 260.098 143.289 260.485 143.243C260.975 143.186 261.373 143.14 261.678 143.105C261.983 143.066 262.205 143.004 262.344 142.918C262.482 142.833 262.551 142.695 262.551 142.503V142.466C262.551 142 262.42 141.64 262.157 141.384C261.898 141.129 261.511 141.001 260.996 141.001C260.46 141.001 260.037 141.12 259.728 141.358C259.423 141.592 259.212 141.853 259.094 142.141L257.598 141.8C257.775 141.303 258.034 140.901 258.375 140.596C258.72 140.287 259.116 140.063 259.563 139.925C260.011 139.783 260.481 139.712 260.975 139.712C261.301 139.712 261.648 139.751 262.013 139.829C262.383 139.903 262.727 140.042 263.047 140.244C263.37 140.447 263.635 140.736 263.841 141.113C264.047 141.485 264.15 141.97 264.15 142.567V148H262.594V146.881H262.53C262.427 147.087 262.273 147.29 262.067 147.489C261.861 147.687 261.596 147.853 261.273 147.984C260.95 148.115 260.563 148.181 260.112 148.181ZM260.458 146.903C260.898 146.903 261.275 146.816 261.587 146.642C261.903 146.468 262.143 146.24 262.306 145.96C262.473 145.676 262.557 145.372 262.557 145.049V143.994C262.5 144.051 262.39 144.104 262.227 144.154C262.067 144.2 261.884 144.241 261.678 144.277C261.472 144.309 261.271 144.339 261.076 144.367C260.881 144.392 260.717 144.413 260.586 144.431C260.277 144.47 259.995 144.536 259.739 144.628C259.487 144.721 259.284 144.854 259.132 145.028C258.983 145.198 258.908 145.425 258.908 145.71C258.908 146.104 259.054 146.402 259.345 146.604C259.636 146.803 260.007 146.903 260.458 146.903ZM267.864 143.142V148H266.271V139.818H267.8V141.15H267.901C268.089 140.717 268.384 140.369 268.785 140.106C269.19 139.843 269.699 139.712 270.314 139.712C270.871 139.712 271.36 139.829 271.779 140.063C272.198 140.294 272.523 140.638 272.753 141.097C272.984 141.555 273.1 142.121 273.1 142.796V148H271.507V142.988C271.507 142.395 271.353 141.931 271.044 141.597C270.735 141.26 270.31 141.091 269.771 141.091C269.401 141.091 269.073 141.171 268.785 141.331C268.501 141.491 268.275 141.725 268.109 142.034C267.945 142.339 267.864 142.709 267.864 143.142ZM281.804 150.967C280.703 150.967 279.726 150.816 278.874 150.514C278.025 150.216 277.31 149.776 276.727 149.193C276.145 148.614 275.703 147.904 275.401 147.062C275.099 146.221 274.948 145.26 274.948 144.181C274.948 143.13 275.101 142.185 275.406 141.347C275.712 140.509 276.155 139.795 276.738 139.206C277.324 138.613 278.036 138.16 278.874 137.847C279.712 137.535 280.664 137.379 281.729 137.379C282.748 137.379 283.647 137.538 284.424 137.858C285.202 138.178 285.855 138.616 286.384 139.174C286.917 139.731 287.318 140.37 287.588 141.091C287.858 141.812 287.993 142.574 287.993 143.376C287.993 143.937 287.958 144.486 287.887 145.022C287.816 145.555 287.684 146.038 287.492 146.471C287.304 146.901 287.031 147.245 286.672 147.505C286.317 147.76 285.855 147.893 285.287 147.904C284.985 147.915 284.692 147.879 284.408 147.798C284.124 147.716 283.883 147.585 283.684 147.403C283.485 147.219 283.364 146.984 283.322 146.7H283.258C283.172 146.91 283.03 147.105 282.832 147.286C282.633 147.464 282.379 147.606 282.07 147.712C281.764 147.815 281.409 147.858 281.005 147.84C280.557 147.822 280.154 147.721 279.795 147.537C279.437 147.352 279.13 147.096 278.874 146.77C278.622 146.443 278.428 146.056 278.293 145.608C278.158 145.161 278.091 144.664 278.091 144.117C278.091 143.591 278.167 143.121 278.32 142.705C278.473 142.286 278.68 141.926 278.943 141.624C279.209 141.319 279.515 141.077 279.859 140.9C280.204 140.722 280.568 140.61 280.951 140.564C281.324 140.521 281.667 140.532 281.979 140.596C282.292 140.66 282.551 140.757 282.757 140.889C282.967 141.02 283.098 141.164 283.151 141.32H283.22V140.724H284.531V145.667C284.531 145.947 284.604 146.185 284.749 146.381C284.898 146.576 285.11 146.674 285.383 146.674C285.706 146.674 285.958 146.555 286.139 146.317C286.324 146.079 286.454 145.713 286.528 145.219C286.606 144.726 286.646 144.094 286.646 143.323C286.646 142.783 286.573 142.276 286.427 141.8C286.285 141.32 286.074 140.887 285.793 140.5C285.516 140.109 285.175 139.774 284.771 139.493C284.366 139.213 283.904 138.996 283.386 138.843C282.871 138.691 282.301 138.614 281.676 138.614C280.827 138.614 280.072 138.746 279.412 139.009C278.751 139.268 278.194 139.642 277.739 140.132C277.288 140.623 276.946 141.21 276.711 141.896C276.48 142.577 276.365 143.343 276.365 144.191C276.365 145.076 276.484 145.86 276.722 146.546C276.96 147.228 277.311 147.803 277.777 148.272C278.242 148.74 278.817 149.096 279.502 149.337C280.188 149.582 280.978 149.705 281.873 149.705C282.271 149.705 282.661 149.669 283.045 149.598C283.428 149.531 283.769 149.452 284.067 149.364C284.369 149.278 284.595 149.209 284.744 149.156L285.117 150.322C284.897 150.425 284.604 150.527 284.238 150.626C283.876 150.725 283.481 150.807 283.055 150.871C282.633 150.935 282.215 150.967 281.804 150.967ZM281.313 146.535C281.775 146.535 282.146 146.443 282.427 146.258C282.711 146.074 282.915 145.798 283.039 145.433C283.167 145.063 283.231 144.602 283.231 144.048C283.228 143.508 283.158 143.078 283.023 142.759C282.892 142.435 282.686 142.205 282.405 142.066C282.128 141.924 281.772 141.853 281.335 141.853C280.934 141.853 280.591 141.951 280.307 142.146C280.026 142.341 279.811 142.606 279.662 142.94C279.517 143.273 279.442 143.645 279.438 144.053C279.442 144.483 279.502 144.887 279.62 145.267C279.74 145.644 279.936 145.949 280.206 146.184C280.479 146.418 280.848 146.535 281.313 146.535ZM293.279 148.165C292.472 148.165 291.778 147.993 291.196 147.648C290.617 147.3 290.17 146.812 289.854 146.184C289.541 145.551 289.385 144.811 289.385 143.962C289.385 143.124 289.541 142.386 289.854 141.746C290.17 141.107 290.61 140.608 291.175 140.25C291.743 139.891 292.407 139.712 293.167 139.712C293.628 139.712 294.076 139.788 294.509 139.941C294.942 140.093 295.331 140.333 295.676 140.66C296.02 140.987 296.292 141.411 296.491 141.933C296.689 142.451 296.789 143.082 296.789 143.824V144.388H290.285V143.195H295.228C295.228 142.776 295.143 142.405 294.972 142.082C294.802 141.755 294.562 141.498 294.253 141.31C293.948 141.121 293.589 141.027 293.177 141.027C292.73 141.027 292.339 141.137 292.006 141.358C291.675 141.574 291.42 141.858 291.238 142.21C291.061 142.558 290.972 142.936 290.972 143.344V144.277C290.972 144.824 291.068 145.289 291.26 145.672C291.455 146.056 291.727 146.349 292.075 146.551C292.423 146.75 292.829 146.849 293.295 146.849C293.596 146.849 293.872 146.807 294.12 146.722C294.369 146.633 294.584 146.501 294.765 146.327C294.946 146.153 295.084 145.939 295.18 145.683L296.688 145.955C296.567 146.398 296.35 146.787 296.038 147.121C295.729 147.451 295.34 147.709 294.871 147.893C294.406 148.075 293.875 148.165 293.279 148.165ZM299.623 139.818L301.428 143.004L303.25 139.818H304.992L302.441 143.909L305.013 148H303.271L301.428 144.942L299.591 148H297.844L300.39 143.909L297.876 139.818H299.623ZM308.994 148.181C308.475 148.181 308.006 148.085 307.587 147.893C307.168 147.698 306.836 147.416 306.591 147.047C306.35 146.677 306.229 146.224 306.229 145.688C306.229 145.227 306.318 144.847 306.495 144.548C306.673 144.25 306.913 144.014 307.215 143.84C307.516 143.666 307.854 143.534 308.227 143.446C308.6 143.357 308.979 143.289 309.367 143.243C309.857 143.186 310.254 143.14 310.56 143.105C310.865 143.066 311.087 143.004 311.226 142.918C311.364 142.833 311.433 142.695 311.433 142.503V142.466C311.433 142 311.302 141.64 311.039 141.384C310.78 141.129 310.393 141.001 309.878 141.001C309.342 141.001 308.919 141.12 308.61 141.358C308.305 141.592 308.093 141.853 307.976 142.141L306.479 141.8C306.657 141.303 306.916 140.901 307.257 140.596C307.602 140.287 307.998 140.063 308.445 139.925C308.892 139.783 309.363 139.712 309.857 139.712C310.183 139.712 310.53 139.751 310.895 139.829C311.265 139.903 311.609 140.042 311.929 140.244C312.252 140.447 312.516 140.736 312.722 141.113C312.928 141.485 313.031 141.97 313.031 142.567V148H311.476V146.881H311.412C311.309 147.087 311.155 147.29 310.949 147.489C310.743 147.687 310.478 147.853 310.155 147.984C309.832 148.115 309.445 148.181 308.994 148.181ZM309.34 146.903C309.78 146.903 310.157 146.816 310.469 146.642C310.785 146.468 311.025 146.24 311.188 145.96C311.355 145.676 311.439 145.372 311.439 145.049V143.994C311.382 144.051 311.272 144.104 311.108 144.154C310.949 144.2 310.766 144.241 310.56 144.277C310.354 144.309 310.153 144.339 309.958 144.367C309.763 144.392 309.599 144.413 309.468 144.431C309.159 144.47 308.877 144.536 308.621 144.628C308.369 144.721 308.166 144.854 308.014 145.028C307.864 145.198 307.79 145.425 307.79 145.71C307.79 146.104 307.935 146.402 308.227 146.604C308.518 146.803 308.889 146.903 309.34 146.903ZM315.153 148V139.818H316.681V141.15H316.783C316.953 140.699 317.232 140.347 317.619 140.095C318.006 139.839 318.469 139.712 319.009 139.712C319.556 139.712 320.014 139.839 320.384 140.095C320.756 140.351 321.032 140.702 321.209 141.15H321.294C321.49 140.713 321.8 140.365 322.227 140.106C322.653 139.843 323.161 139.712 323.75 139.712C324.492 139.712 325.098 139.944 325.566 140.409C326.039 140.875 326.275 141.576 326.275 142.513V148H324.682V142.663C324.682 142.109 324.531 141.707 324.229 141.459C323.928 141.21 323.567 141.086 323.148 141.086C322.63 141.086 322.227 141.246 321.939 141.565C321.651 141.881 321.507 142.288 321.507 142.785V148H319.92V142.561C319.92 142.118 319.782 141.761 319.505 141.491C319.228 141.221 318.867 141.086 318.423 141.086C318.121 141.086 317.843 141.166 317.587 141.326C317.335 141.482 317.131 141.7 316.974 141.981C316.822 142.261 316.745 142.586 316.745 142.956V148H315.153ZM328.41 151.068V139.818H329.965V141.145H330.098C330.19 140.974 330.324 140.777 330.498 140.553C330.672 140.33 330.913 140.134 331.222 139.967C331.531 139.797 331.939 139.712 332.447 139.712C333.108 139.712 333.697 139.879 334.216 140.212C334.734 140.546 335.141 141.027 335.435 141.656C335.734 142.284 335.883 143.041 335.883 143.925C335.883 144.809 335.736 145.567 335.441 146.2C335.146 146.828 334.741 147.313 334.226 147.654C333.711 147.991 333.124 148.16 332.463 148.16C331.966 148.16 331.559 148.076 331.243 147.909C330.931 147.743 330.686 147.547 330.508 147.324C330.331 147.1 330.194 146.901 330.098 146.727H330.002V151.068H328.41ZM329.97 143.909C329.97 144.484 330.054 144.989 330.221 145.422C330.388 145.855 330.629 146.194 330.945 146.439C331.261 146.681 331.648 146.801 332.106 146.801C332.582 146.801 332.98 146.675 333.299 146.423C333.619 146.168 333.861 145.821 334.024 145.385C334.191 144.948 334.274 144.456 334.274 143.909C334.274 143.369 334.193 142.885 334.029 142.455C333.869 142.025 333.628 141.686 333.305 141.438C332.985 141.189 332.586 141.065 332.106 141.065C331.645 141.065 331.254 141.184 330.934 141.422C330.618 141.659 330.379 141.991 330.215 142.418C330.052 142.844 329.97 143.341 329.97 143.909ZM339.26 137.091V148H337.667V137.091H339.26ZM344.929 148.165C344.123 148.165 343.429 147.993 342.846 147.648C342.267 147.3 341.82 146.812 341.504 146.184C341.191 145.551 341.035 144.811 341.035 143.962C341.035 143.124 341.191 142.386 341.504 141.746C341.82 141.107 342.26 140.608 342.825 140.25C343.393 139.891 344.057 139.712 344.817 139.712C345.279 139.712 345.726 139.788 346.159 139.941C346.593 140.093 346.982 140.333 347.326 140.66C347.67 140.987 347.942 141.411 348.141 141.933C348.34 142.451 348.439 143.082 348.439 143.824V144.388H341.935V143.195H346.879C346.879 142.776 346.793 142.405 346.623 142.082C346.452 141.755 346.213 141.498 345.904 141.31C345.598 141.121 345.24 141.027 344.828 141.027C344.38 141.027 343.99 141.137 343.656 141.358C343.326 141.574 343.07 141.858 342.889 142.21C342.711 142.558 342.623 142.936 342.623 143.344V144.277C342.623 144.824 342.718 145.289 342.91 145.672C343.105 146.056 343.377 146.349 343.725 146.551C344.073 146.75 344.48 146.849 344.945 146.849C345.247 146.849 345.522 146.807 345.771 146.722C346.019 146.633 346.234 146.501 346.415 146.327C346.596 146.153 346.735 145.939 346.831 145.683L348.338 145.955C348.217 146.398 348.001 146.787 347.688 147.121C347.379 147.451 346.99 147.709 346.522 147.893C346.056 148.075 345.526 148.165 344.929 148.165ZM351.256 148.101C350.965 148.101 350.714 147.998 350.505 147.792C350.295 147.583 350.19 147.331 350.19 147.036C350.19 146.745 350.295 146.496 350.505 146.29C350.714 146.081 350.965 145.976 351.256 145.976C351.547 145.976 351.797 146.081 352.007 146.29C352.216 146.496 352.321 146.745 352.321 147.036C352.321 147.231 352.271 147.411 352.172 147.574C352.076 147.734 351.948 147.862 351.788 147.957C351.629 148.053 351.451 148.101 351.256 148.101ZM357.901 148.165C357.109 148.165 356.427 147.986 355.855 147.627C355.287 147.265 354.85 146.766 354.545 146.13C354.24 145.495 354.087 144.767 354.087 143.946C354.087 143.115 354.243 142.382 354.556 141.746C354.868 141.107 355.309 140.608 355.877 140.25C356.445 139.891 357.114 139.712 357.885 139.712C358.506 139.712 359.06 139.827 359.547 140.058C360.033 140.285 360.426 140.605 360.724 141.017C361.026 141.429 361.205 141.91 361.262 142.46H359.712C359.627 142.077 359.431 141.746 359.126 141.469C358.824 141.192 358.419 141.054 357.911 141.054C357.468 141.054 357.079 141.171 356.745 141.406C356.415 141.636 356.157 141.967 355.973 142.396C355.788 142.822 355.696 143.327 355.696 143.909C355.696 144.506 355.786 145.021 355.967 145.454C356.148 145.887 356.404 146.223 356.734 146.461C357.068 146.699 357.46 146.817 357.911 146.817C358.213 146.817 358.487 146.762 358.732 146.652C358.98 146.539 359.188 146.377 359.355 146.168C359.525 145.958 359.644 145.706 359.712 145.411H361.262C361.205 145.94 361.033 146.413 360.745 146.828C360.458 147.244 360.072 147.57 359.589 147.808C359.11 148.046 358.547 148.165 357.901 148.165ZM366.412 148.165C365.645 148.165 364.975 147.989 364.403 147.638C363.832 147.286 363.388 146.794 363.072 146.162C362.756 145.53 362.598 144.792 362.598 143.946C362.598 143.098 362.756 142.355 363.072 141.72C363.388 141.084 363.832 140.591 364.403 140.239C364.975 139.887 365.645 139.712 366.412 139.712C367.179 139.712 367.848 139.887 368.42 140.239C368.991 140.591 369.435 141.084 369.751 141.72C370.067 142.355 370.225 143.098 370.225 143.946C370.225 144.792 370.067 145.53 369.751 146.162C369.435 146.794 368.991 147.286 368.42 147.638C367.848 147.989 367.179 148.165 366.412 148.165ZM366.417 146.828C366.914 146.828 367.326 146.697 367.653 146.434C367.979 146.171 368.221 145.821 368.377 145.385C368.537 144.948 368.617 144.467 368.617 143.941C368.617 143.419 368.537 142.94 368.377 142.503C368.221 142.062 367.979 141.709 367.653 141.443C367.326 141.176 366.914 141.043 366.417 141.043C365.916 141.043 365.501 141.176 365.17 141.443C364.844 141.709 364.6 142.062 364.441 142.503C364.284 142.94 364.206 143.419 364.206 143.941C364.206 144.467 364.284 144.948 364.441 145.385C364.6 145.821 364.844 146.171 365.17 146.434C365.501 146.697 365.916 146.828 366.417 146.828ZM372.003 148V139.818H373.532V141.15H373.633C373.804 140.699 374.082 140.347 374.47 140.095C374.857 139.839 375.32 139.712 375.86 139.712C376.407 139.712 376.865 139.839 377.234 140.095C377.607 140.351 377.882 140.702 378.06 141.15H378.145C378.34 140.713 378.651 140.365 379.077 140.106C379.503 139.843 380.011 139.712 380.601 139.712C381.343 139.712 381.948 139.944 382.417 140.409C382.889 140.875 383.125 141.576 383.125 142.513V148H381.533V142.663C381.533 142.109 381.382 141.707 381.08 141.459C380.778 141.21 380.418 141.086 379.999 141.086C379.48 141.086 379.077 141.246 378.79 141.565C378.502 141.881 378.358 142.288 378.358 142.785V148H376.771V142.561C376.771 142.118 376.632 141.761 376.355 141.491C376.078 141.221 375.718 141.086 375.274 141.086C374.972 141.086 374.693 141.166 374.438 141.326C374.185 141.482 373.981 141.7 373.825 141.981C373.672 142.261 373.596 142.586 373.596 142.956V148H372.003Z" fill="#C2C2C2"/>
<path d="M462.737 55.6296L482.445 35.9211C482.82 35.5462 483.428 35.5462 483.803 35.9211L489.654 41.7724C490.026 42.1444 490.03 42.7463 489.662 43.1225L469.964 63.2787C469.783 63.4636 469.536 63.5678 469.277 63.5678H463.022C462.468 63.5678 462.029 63.1005 462.064 62.5477L462.457 56.2486C462.472 56.0151 462.571 55.795 462.737 55.6296Z" fill="#DB0000"/>
<path d="M492.006 39.3221L486.283 33.5993C485.878 33.1947 485.915 32.5281 486.362 32.1706L489.629 29.5572C490.022 29.243 490.59 29.2851 490.932 29.6536L495.973 35.0821C496.31 35.4446 496.316 36.0036 495.987 36.3733L493.402 39.2811C493.035 39.694 492.396 39.7128 492.006 39.3221Z" fill="#DB0000"/>
<rect x="37" y="207" width="188.286" height="34.8286" rx="17.4143" fill="#FDF0F0"/>
<path d="M61.2521 229.414V219.315H64.9503C65.6669 219.315 66.2603 219.434 66.7304 219.67C67.2005 219.904 67.5522 220.221 67.7856 220.622C68.019 221.02 68.1357 221.469 68.1357 221.968C68.1357 222.389 68.0585 222.744 67.904 223.033C67.7495 223.319 67.5424 223.549 67.2827 223.724C67.0263 223.895 66.7436 224.02 66.4345 224.098V224.197C66.7699 224.213 67.0969 224.322 67.4158 224.523C67.738 224.72 68.0042 225.001 68.2146 225.366C68.425 225.731 68.5302 226.174 68.5302 226.697C68.5302 227.213 68.4086 227.677 68.1653 228.088C67.9254 228.495 67.5539 228.819 67.0509 229.059C66.548 229.296 65.9053 229.414 65.1229 229.414H61.2521ZM62.7757 228.107H64.975C65.7048 228.107 66.2274 227.966 66.543 227.683C66.8586 227.401 67.0164 227.047 67.0164 226.623C67.0164 226.304 66.9359 226.012 66.7748 225.745C66.6137 225.479 66.3836 225.267 66.0844 225.109C65.7886 224.952 65.4368 224.873 65.0292 224.873H62.7757V228.107ZM62.7757 223.684H64.8172C65.1591 223.684 65.4664 223.618 65.7393 223.487C66.0154 223.355 66.234 223.171 66.3951 222.935C66.5595 222.695 66.6416 222.412 66.6416 222.087C66.6416 221.669 66.4954 221.319 66.2028 221.036C65.9102 220.754 65.4615 220.612 64.8566 220.612H62.7757V223.684ZM70.2191 229.414V221.84H71.6935V229.414H70.2191ZM70.9637 220.671C70.7073 220.671 70.487 220.586 70.3029 220.415C70.1221 220.241 70.0317 220.034 70.0317 219.794C70.0317 219.55 70.1221 219.343 70.3029 219.172C70.487 218.998 70.7073 218.911 70.9637 218.911C71.2201 218.911 71.4387 218.998 71.6195 219.172C71.8036 219.343 71.8956 219.55 71.8956 219.794C71.8956 220.034 71.8036 220.241 71.6195 220.415C71.4387 220.586 71.2201 220.671 70.9637 220.671ZM73.677 229.414V221.84H75.102V223.043H75.1809C75.319 222.636 75.5622 222.315 75.9107 222.082C76.2624 221.845 76.6602 221.727 77.104 221.727C77.1961 221.727 77.3045 221.73 77.4295 221.736C77.5577 221.743 77.6579 221.751 77.7302 221.761V223.171C77.6711 223.155 77.5659 223.137 77.4147 223.117C77.2634 223.094 77.1122 223.083 76.961 223.083C76.6126 223.083 76.3019 223.157 76.029 223.305C75.7595 223.449 75.5458 223.651 75.388 223.911C75.2302 224.167 75.1513 224.46 75.1513 224.789V229.414H73.677ZM82.9892 221.84V223.023H78.852V221.84H82.9892ZM79.9615 220.025H81.4359V227.19C81.4359 227.476 81.4786 227.691 81.5641 227.836C81.6496 227.977 81.7597 228.074 81.8945 228.127C82.0325 228.176 82.1821 228.201 82.3432 228.201C82.4615 228.201 82.5651 228.193 82.6539 228.176C82.7426 228.16 82.8116 228.147 82.861 228.137L83.1272 229.355C83.0418 229.388 82.9201 229.421 82.7623 229.454C82.6045 229.49 82.4073 229.509 82.1706 229.513C81.7827 229.519 81.4211 229.45 81.0858 229.306C80.7505 229.161 80.4793 228.937 80.2722 228.635C80.0651 228.333 79.9615 227.953 79.9615 227.496V220.025ZM86.2572 224.917V229.414H84.7828V219.315H86.2375V223.073H86.3312C86.5087 222.665 86.7799 222.341 87.1448 222.101C87.5097 221.861 87.9863 221.741 88.5748 221.741C89.0942 221.741 89.5478 221.848 89.9357 222.062C90.3269 222.276 90.6293 222.594 90.843 223.019C91.06 223.439 91.1685 223.965 91.1685 224.596V229.414H89.6941V224.774C89.6941 224.218 89.5511 223.788 89.2651 223.482C88.9791 223.173 88.5813 223.019 88.0718 223.019C87.7233 223.019 87.411 223.093 87.1349 223.24C86.8621 223.388 86.6467 223.605 86.4889 223.891C86.3344 224.174 86.2572 224.516 86.2572 224.917ZM95.9713 229.562C95.3598 229.562 94.8141 229.406 94.3342 229.094C93.8575 228.778 93.4828 228.329 93.2099 227.747C92.9403 227.162 92.8056 226.46 92.8056 225.642C92.8056 224.823 92.942 224.123 93.2148 223.541C93.491 222.959 93.869 222.514 94.349 222.205C94.8289 221.896 95.373 221.741 95.9811 221.741C96.4512 221.741 96.8293 221.82 97.1153 221.978C97.4046 222.133 97.6281 222.313 97.7859 222.521C97.947 222.728 98.0719 222.91 98.1606 223.068H98.2494V219.315H99.7238V229.414H98.2839V228.236H98.1606C98.0719 228.397 97.9437 228.581 97.776 228.788C97.6117 228.995 97.3848 229.176 97.0955 229.33C96.8063 229.485 96.4315 229.562 95.9713 229.562ZM96.2967 228.305C96.7208 228.305 97.0791 228.193 97.3717 227.969C97.6675 227.742 97.8911 227.429 98.0423 227.027C98.1968 226.626 98.2741 226.16 98.2741 225.627C98.2741 225.101 98.1984 224.641 98.0472 224.246C97.896 223.852 97.6741 223.545 97.3815 223.324C97.089 223.104 96.7274 222.994 96.2967 222.994C95.8529 222.994 95.4831 223.109 95.1872 223.339C94.8914 223.569 94.6678 223.883 94.5166 224.281C94.3687 224.679 94.2947 225.127 94.2947 225.627C94.2947 226.133 94.3703 226.589 94.5216 226.993C94.6728 227.397 94.8963 227.718 95.1922 227.954C95.4913 228.188 95.8595 228.305 96.2967 228.305ZM104.032 229.582C103.552 229.582 103.118 229.493 102.73 229.315C102.343 229.135 102.035 228.873 101.808 228.531C101.585 228.19 101.473 227.77 101.473 227.274C101.473 226.847 101.555 226.495 101.72 226.219C101.884 225.943 102.106 225.724 102.385 225.563C102.665 225.402 102.977 225.28 103.322 225.198C103.667 225.116 104.019 225.053 104.377 225.011C104.831 224.958 105.199 224.915 105.482 224.882C105.765 224.846 105.97 224.789 106.098 224.71C106.227 224.631 106.291 224.503 106.291 224.325V224.291C106.291 223.86 106.169 223.526 105.926 223.29C105.686 223.053 105.327 222.935 104.851 222.935C104.354 222.935 103.963 223.045 103.677 223.265C103.394 223.482 103.199 223.724 103.09 223.99L101.705 223.674C101.869 223.214 102.109 222.843 102.425 222.56C102.744 222.274 103.11 222.067 103.524 221.939C103.939 221.807 104.374 221.741 104.831 221.741C105.133 221.741 105.454 221.778 105.793 221.85C106.134 221.919 106.453 222.047 106.749 222.235C107.048 222.422 107.293 222.69 107.484 223.038C107.675 223.383 107.77 223.832 107.77 224.384V229.414H106.33V228.379H106.271C106.176 228.569 106.033 228.757 105.842 228.941C105.651 229.125 105.406 229.278 105.107 229.399C104.808 229.521 104.45 229.582 104.032 229.582ZM104.353 228.398C104.76 228.398 105.109 228.318 105.398 228.157C105.691 227.996 105.913 227.785 106.064 227.525C106.218 227.262 106.296 226.981 106.296 226.682V225.706C106.243 225.759 106.141 225.808 105.99 225.854C105.842 225.897 105.673 225.934 105.482 225.967C105.291 225.997 105.106 226.025 104.925 226.051C104.744 226.074 104.593 226.094 104.471 226.11C104.185 226.146 103.924 226.207 103.687 226.293C103.454 226.378 103.266 226.501 103.125 226.663C102.987 226.82 102.918 227.031 102.918 227.294C102.918 227.659 103.053 227.935 103.322 228.122C103.592 228.306 103.935 228.398 104.353 228.398ZM110.394 232.254C110.174 232.254 109.974 232.236 109.793 232.2C109.612 232.167 109.477 232.131 109.389 232.092L109.744 230.884C110.013 230.956 110.253 230.987 110.464 230.977C110.674 230.967 110.86 230.888 111.021 230.741C111.185 230.593 111.33 230.351 111.455 230.016L111.637 229.513L108.866 221.84H110.444L112.362 227.718H112.441L114.359 221.84H115.942L112.821 230.425C112.676 230.819 112.492 231.153 112.268 231.426C112.045 231.702 111.778 231.909 111.469 232.047C111.16 232.185 110.802 232.254 110.394 232.254ZM118.299 229.508C118.029 229.508 117.798 229.412 117.604 229.222C117.41 229.028 117.313 228.794 117.313 228.522C117.313 228.252 117.41 228.022 117.604 227.831C117.798 227.637 118.029 227.54 118.299 227.54C118.568 227.54 118.8 227.637 118.994 227.831C119.188 228.022 119.285 228.252 119.285 228.522C119.285 228.702 119.239 228.868 119.147 229.02C119.058 229.168 118.94 229.286 118.792 229.375C118.644 229.463 118.48 229.508 118.299 229.508ZM118.299 223.995C118.029 223.995 117.798 223.898 117.604 223.704C117.41 223.51 117.313 223.278 117.313 223.009C117.313 222.739 117.41 222.509 117.604 222.318C117.798 222.124 118.029 222.027 118.299 222.027C118.568 222.027 118.8 222.124 118.994 222.318C119.188 222.509 119.285 222.739 119.285 223.009C119.285 223.189 119.239 223.355 119.147 223.507C119.058 223.655 118.94 223.773 118.792 223.862C118.644 223.951 118.48 223.995 118.299 223.995ZM128.746 219.315V229.414H127.218V220.844H127.159L124.742 222.422V220.962L127.262 219.315H128.746ZM131.478 229.414V228.31L134.895 224.769C135.26 224.384 135.561 224.047 135.798 223.758C136.038 223.466 136.217 223.188 136.335 222.925C136.454 222.662 136.513 222.382 136.513 222.087C136.513 221.751 136.434 221.462 136.276 221.219C136.118 220.972 135.903 220.783 135.63 220.652C135.357 220.517 135.05 220.449 134.708 220.449C134.346 220.449 134.031 220.523 133.761 220.671C133.492 220.819 133.285 221.028 133.14 221.298C132.995 221.567 132.923 221.883 132.923 222.244H131.468C131.468 221.63 131.61 221.092 131.892 220.632C132.175 220.172 132.563 219.815 133.056 219.562C133.549 219.305 134.11 219.177 134.738 219.177C135.372 219.177 135.931 219.304 136.414 219.557C136.901 219.807 137.28 220.149 137.553 220.583C137.826 221.013 137.962 221.5 137.962 222.042C137.962 222.417 137.892 222.784 137.75 223.142C137.612 223.5 137.371 223.9 137.026 224.34C136.68 224.777 136.2 225.308 135.586 225.933L133.579 228.033V228.107H138.125V229.414H131.478ZM143.86 218.842L140.606 230.933H139.289L142.543 218.842H143.86ZM148.609 229.582C147.829 229.578 147.164 229.373 146.611 228.965C146.059 228.558 145.637 227.964 145.344 227.185C145.052 226.406 144.905 225.468 144.905 224.37C144.905 223.275 145.052 222.34 145.344 221.564C145.64 220.788 146.064 220.196 146.616 219.789C147.172 219.381 147.836 219.177 148.609 219.177C149.381 219.177 150.043 219.383 150.596 219.794C151.148 220.201 151.57 220.793 151.863 221.569C152.159 222.341 152.307 223.275 152.307 224.37C152.307 225.471 152.161 226.411 151.868 227.19C151.575 227.966 151.153 228.559 150.601 228.97C150.048 229.378 149.384 229.582 148.609 229.582ZM148.609 228.265C149.292 228.265 149.826 227.931 150.211 227.264C150.599 226.597 150.793 225.632 150.793 224.37C150.793 223.531 150.704 222.823 150.527 222.244C150.352 221.663 150.101 221.222 149.772 220.923C149.447 220.62 149.059 220.469 148.609 220.469C147.928 220.469 147.394 220.805 147.006 221.475C146.618 222.146 146.422 223.111 146.419 224.37C146.419 225.211 146.506 225.923 146.681 226.505C146.858 227.083 147.11 227.522 147.435 227.821C147.76 228.117 148.152 228.265 148.609 228.265ZM157.468 229.552C156.762 229.552 156.137 229.43 155.595 229.187C155.055 228.944 154.633 228.609 154.327 228.181C154.022 227.754 153.87 227.267 153.874 226.722C153.87 226.294 153.957 225.902 154.135 225.543C154.316 225.182 154.561 224.881 154.87 224.641C155.179 224.398 155.524 224.243 155.905 224.177V224.118C155.402 223.997 155 223.727 154.697 223.309C154.395 222.892 154.245 222.412 154.248 221.87C154.245 221.354 154.382 220.893 154.658 220.489C154.937 220.081 155.32 219.761 155.807 219.527C156.293 219.294 156.847 219.177 157.468 219.177C158.083 219.177 158.632 219.296 159.115 219.532C159.602 219.766 159.985 220.086 160.264 220.494C160.544 220.898 160.685 221.357 160.688 221.87C160.685 222.412 160.53 222.892 160.225 223.309C159.919 223.727 159.521 223.997 159.031 224.118V224.177C159.409 224.243 159.75 224.398 160.052 224.641C160.358 224.881 160.601 225.182 160.782 225.543C160.966 225.902 161.06 226.294 161.063 226.722C161.06 227.267 160.905 227.754 160.6 228.181C160.294 228.609 159.87 228.944 159.327 229.187C158.788 229.43 158.169 229.552 157.468 229.552ZM157.468 228.305C157.886 228.305 158.247 228.236 158.553 228.097C158.859 227.956 159.096 227.761 159.263 227.511C159.431 227.258 159.516 226.962 159.52 226.623C159.516 226.271 159.424 225.961 159.243 225.691C159.066 225.422 158.824 225.21 158.519 225.055C158.213 224.901 157.863 224.823 157.468 224.823C157.071 224.823 156.717 224.901 156.408 225.055C156.099 225.21 155.856 225.422 155.678 225.691C155.501 225.961 155.414 226.271 155.417 226.623C155.414 226.962 155.494 227.258 155.659 227.511C155.826 227.761 156.065 227.956 156.374 228.097C156.683 228.236 157.048 228.305 157.468 228.305ZM157.468 223.605C157.804 223.605 158.101 223.538 158.361 223.403C158.621 223.268 158.824 223.081 158.972 222.841C159.123 222.601 159.201 222.32 159.204 221.998C159.201 221.682 159.125 221.406 158.977 221.169C158.833 220.933 158.63 220.75 158.371 220.622C158.111 220.491 157.81 220.425 157.468 220.425C157.12 220.425 156.814 220.491 156.551 220.622C156.291 220.75 156.089 220.933 155.945 221.169C155.8 221.406 155.729 221.682 155.733 221.998C155.729 222.32 155.802 222.601 155.95 222.841C156.098 223.081 156.301 223.268 156.561 223.403C156.824 223.538 157.126 223.605 157.468 223.605ZM166.695 218.842L163.441 230.933H162.124L165.379 218.842H166.695ZM167.928 229.414V228.31L171.345 224.769C171.71 224.384 172.011 224.047 172.248 223.758C172.488 223.466 172.667 223.188 172.785 222.925C172.904 222.662 172.963 222.382 172.963 222.087C172.963 221.751 172.884 221.462 172.726 221.219C172.568 220.972 172.353 220.783 172.08 220.652C171.807 220.517 171.5 220.449 171.158 220.449C170.796 220.449 170.481 220.523 170.211 220.671C169.942 220.819 169.735 221.028 169.59 221.298C169.445 221.567 169.373 221.883 169.373 222.244H167.918C167.918 221.63 168.06 221.092 168.342 220.632C168.625 220.172 169.013 219.815 169.506 219.562C169.999 219.305 170.56 219.177 171.188 219.177C171.822 219.177 172.381 219.304 172.864 219.557C173.351 219.807 173.73 220.149 174.003 220.583C174.276 221.013 174.412 221.5 174.412 222.042C174.412 222.417 174.342 222.784 174.2 223.142C174.062 223.5 173.821 223.9 173.476 224.34C173.13 224.777 172.65 225.308 172.036 225.933L170.029 228.033V228.107H174.575V229.414H167.928ZM179.96 229.582C179.181 229.578 178.515 229.373 177.963 228.965C177.411 228.558 176.988 227.964 176.696 227.185C176.403 226.406 176.257 225.468 176.257 224.37C176.257 223.275 176.403 222.34 176.696 221.564C176.991 220.788 177.415 220.196 177.968 219.789C178.523 219.381 179.187 219.177 179.96 219.177C180.732 219.177 181.395 219.383 181.947 219.794C182.499 220.201 182.922 220.793 183.214 221.569C183.51 222.341 183.658 223.275 183.658 224.37C183.658 225.471 183.512 226.411 183.219 227.19C182.927 227.966 182.504 228.559 181.952 228.97C181.4 229.378 180.736 229.582 179.96 229.582ZM179.96 228.265C180.644 228.265 181.178 227.931 181.562 227.264C181.95 226.597 182.144 225.632 182.144 224.37C182.144 223.531 182.056 222.823 181.878 222.244C181.704 221.663 181.452 221.222 181.124 220.923C180.798 220.62 180.41 220.469 179.96 220.469C179.279 220.469 178.745 220.805 178.357 221.475C177.969 222.146 177.774 223.111 177.771 224.37C177.771 225.211 177.858 225.923 178.032 226.505C178.209 227.083 178.461 227.522 178.786 227.821C179.112 228.117 179.503 228.265 179.96 228.265ZM188.923 229.582C188.144 229.578 187.478 229.373 186.926 228.965C186.374 228.558 185.951 227.964 185.659 227.185C185.366 226.406 185.22 225.468 185.22 224.37C185.22 223.275 185.366 222.34 185.659 221.564C185.955 220.788 186.379 220.196 186.931 219.789C187.487 219.381 188.151 219.177 188.923 219.177C189.696 219.177 190.358 219.383 190.91 219.794C191.463 220.201 191.885 220.793 192.178 221.569C192.474 222.341 192.621 223.275 192.621 224.37C192.621 225.471 192.475 226.411 192.183 227.19C191.89 227.966 191.468 228.559 190.915 228.97C190.363 229.378 189.699 229.582 188.923 229.582ZM188.923 228.265C189.607 228.265 190.141 227.931 190.526 227.264C190.914 226.597 191.108 225.632 191.108 224.37C191.108 223.531 191.019 222.823 190.841 222.244C190.667 221.663 190.416 221.222 190.087 220.923C189.761 220.62 189.374 220.469 188.923 220.469C188.243 220.469 187.709 220.805 187.321 221.475C186.933 222.146 186.737 223.111 186.734 224.37C186.734 225.211 186.821 225.923 186.995 226.505C187.173 227.083 187.424 227.522 187.75 227.821C188.075 228.117 188.466 228.265 188.923 228.265ZM194.371 229.414V228.31L197.788 224.769C198.153 224.384 198.454 224.047 198.69 223.758C198.93 223.466 199.109 223.188 199.228 222.925C199.346 222.662 199.405 222.382 199.405 222.087C199.405 221.751 199.326 221.462 199.169 221.219C199.011 220.972 198.796 220.783 198.523 220.652C198.25 220.517 197.942 220.449 197.601 220.449C197.239 220.449 196.923 220.523 196.654 220.671C196.384 220.819 196.177 221.028 196.032 221.298C195.888 221.567 195.816 221.883 195.816 222.244H194.361C194.361 221.63 194.502 221.092 194.785 220.632C195.068 220.172 195.456 219.815 195.949 219.562C196.442 219.305 197.002 219.177 197.63 219.177C198.265 219.177 198.823 219.304 199.307 219.557C199.793 219.807 200.173 220.149 200.446 220.583C200.719 221.013 200.855 221.5 200.855 222.042C200.855 222.417 200.784 222.784 200.643 223.142C200.505 223.5 200.263 223.9 199.918 224.34C199.573 224.777 199.093 225.308 198.478 225.933L196.471 228.033V228.107H201.018V229.414H194.371Z" fill="#F08484"/>
<rect x="230.286" y="207" width="145.286" height="34.8286" rx="17.4143" fill="#FDF0F0"/>
<path d="M254.538 229.414V219.315H260.87V220.627H256.062V223.704H260.539V225.011H256.062V228.102H260.929V229.414H254.538ZM264.261 224.917V229.414H262.787V221.84H264.202V223.073H264.295C264.47 222.672 264.742 222.35 265.114 222.106C265.489 221.863 265.96 221.741 266.529 221.741C267.045 221.741 267.497 221.85 267.885 222.067C268.273 222.281 268.574 222.599 268.788 223.023C269.001 223.448 269.108 223.972 269.108 224.596V229.414H267.634V224.774C267.634 224.225 267.491 223.796 267.205 223.487C266.919 223.175 266.526 223.019 266.026 223.019C265.684 223.019 265.38 223.093 265.114 223.24C264.851 223.388 264.642 223.605 264.488 223.891C264.337 224.174 264.261 224.516 264.261 224.917ZM274.261 232.412C273.659 232.412 273.142 232.333 272.708 232.175C272.277 232.018 271.925 231.809 271.652 231.549C271.38 231.289 271.176 231.005 271.041 230.696L272.308 230.173C272.397 230.318 272.515 230.471 272.663 230.632C272.815 230.796 273.018 230.936 273.275 231.051C273.534 231.166 273.868 231.224 274.276 231.224C274.835 231.224 275.296 231.087 275.661 230.814C276.026 230.545 276.209 230.114 276.209 229.523V228.033H276.115C276.026 228.194 275.898 228.374 275.73 228.571C275.566 228.768 275.339 228.939 275.05 229.084C274.761 229.228 274.384 229.301 273.921 229.301C273.322 229.301 272.783 229.161 272.303 228.882C271.827 228.599 271.449 228.183 271.169 227.634C270.893 227.082 270.755 226.403 270.755 225.597C270.755 224.792 270.891 224.102 271.164 223.526C271.44 222.951 271.818 222.511 272.298 222.205C272.778 221.896 273.322 221.741 273.931 221.741C274.401 221.741 274.78 221.82 275.07 221.978C275.359 222.133 275.584 222.313 275.745 222.521C275.91 222.728 276.036 222.91 276.125 223.068H276.233V221.84H277.678V229.582C277.678 230.233 277.527 230.767 277.225 231.184C276.922 231.602 276.513 231.911 275.997 232.111C275.484 232.312 274.905 232.412 274.261 232.412ZM274.246 228.078C274.67 228.078 275.029 227.979 275.321 227.782C275.617 227.581 275.841 227.295 275.992 226.924C276.146 226.549 276.224 226.1 276.224 225.578C276.224 225.068 276.148 224.619 275.997 224.232C275.845 223.844 275.624 223.541 275.331 223.324C275.038 223.104 274.677 222.994 274.246 222.994C273.802 222.994 273.433 223.109 273.137 223.339C272.841 223.566 272.617 223.875 272.466 224.266C272.318 224.657 272.244 225.095 272.244 225.578C272.244 226.074 272.32 226.51 272.471 226.884C272.622 227.259 272.846 227.552 273.142 227.762C273.441 227.973 273.809 228.078 274.246 228.078ZM281.13 219.315V229.414H279.656V219.315H281.13ZM283.113 229.414V221.84H284.588V229.414H283.113ZM283.858 220.671C283.602 220.671 283.381 220.586 283.197 220.415C283.016 220.241 282.926 220.034 282.926 219.794C282.926 219.55 283.016 219.343 283.197 219.172C283.381 218.998 283.602 218.911 283.858 218.911C284.114 218.911 284.333 218.998 284.514 219.172C284.698 219.343 284.79 219.55 284.79 219.794C284.79 220.034 284.698 220.241 284.514 220.415C284.333 220.586 284.114 220.671 283.858 220.671ZM292.247 223.689L290.911 223.926C290.855 223.755 290.766 223.592 290.644 223.438C290.526 223.283 290.365 223.157 290.161 223.058C289.957 222.959 289.702 222.91 289.397 222.91C288.979 222.91 288.631 223.004 288.351 223.191C288.072 223.375 287.932 223.614 287.932 223.906C287.932 224.159 288.026 224.363 288.213 224.518C288.401 224.672 288.703 224.799 289.121 224.897L290.324 225.173C291.021 225.334 291.54 225.583 291.882 225.918C292.224 226.253 292.395 226.689 292.395 227.225C292.395 227.678 292.263 228.083 292 228.438C291.741 228.789 291.377 229.066 290.911 229.266C290.447 229.467 289.91 229.567 289.298 229.567C288.45 229.567 287.758 229.386 287.222 229.025C286.686 228.66 286.358 228.142 286.236 227.471L287.661 227.254C287.75 227.626 287.932 227.907 288.208 228.097C288.484 228.285 288.844 228.379 289.288 228.379C289.771 228.379 290.158 228.278 290.447 228.078C290.736 227.874 290.881 227.626 290.881 227.333C290.881 227.096 290.792 226.898 290.615 226.737C290.44 226.575 290.173 226.454 289.811 226.372L288.529 226.091C287.822 225.929 287.299 225.673 286.961 225.321C286.625 224.97 286.458 224.524 286.458 223.985C286.458 223.538 286.583 223.147 286.833 222.811C287.082 222.476 287.428 222.215 287.868 222.027C288.309 221.837 288.813 221.741 289.382 221.741C290.2 221.741 290.845 221.919 291.315 222.274C291.785 222.626 292.096 223.097 292.247 223.689ZM295.49 224.917V229.414H294.016V219.315H295.47V223.073H295.564C295.742 222.665 296.013 222.341 296.378 222.101C296.743 221.861 297.219 221.741 297.808 221.741C298.327 221.741 298.781 221.848 299.169 222.062C299.56 222.276 299.862 222.594 300.076 223.019C300.293 223.439 300.401 223.965 300.401 224.596V229.414H298.927V224.774C298.927 224.218 298.784 223.788 298.498 223.482C298.212 223.173 297.814 223.019 297.305 223.019C296.956 223.019 296.644 223.093 296.368 223.24C296.095 223.388 295.88 223.605 295.722 223.891C295.567 224.174 295.49 224.516 295.49 224.917ZM303.34 229.508C303.071 229.508 302.839 229.412 302.645 229.222C302.451 229.028 302.354 228.794 302.354 228.522C302.354 228.252 302.451 228.022 302.645 227.831C302.839 227.637 303.071 227.54 303.34 227.54C303.61 227.54 303.842 227.637 304.036 227.831C304.23 228.022 304.327 228.252 304.327 228.522C304.327 228.702 304.281 228.868 304.188 229.02C304.1 229.168 303.981 229.286 303.833 229.375C303.686 229.463 303.521 229.508 303.34 229.508ZM303.34 223.995C303.071 223.995 302.839 223.898 302.645 223.704C302.451 223.51 302.354 223.278 302.354 223.009C302.354 222.739 302.451 222.509 302.645 222.318C302.839 222.124 303.071 222.027 303.34 222.027C303.61 222.027 303.842 222.124 304.036 222.318C304.23 222.509 304.327 222.739 304.327 223.009C304.327 223.189 304.281 223.355 304.188 223.507C304.1 223.655 303.981 223.773 303.833 223.862C303.686 223.951 303.521 223.995 303.34 223.995ZM318.246 219.315V229.414H316.845L311.712 222.008H311.618V229.414H310.095V219.315H311.505L316.643 226.732H316.737V219.315H318.246ZM322.554 229.582C322.074 229.582 321.64 229.493 321.252 229.315C320.864 229.135 320.557 228.873 320.33 228.531C320.107 228.19 319.995 227.77 319.995 227.274C319.995 226.847 320.077 226.495 320.241 226.219C320.406 225.943 320.628 225.724 320.907 225.563C321.186 225.402 321.499 225.28 321.844 225.198C322.189 225.116 322.541 225.053 322.899 225.011C323.353 224.958 323.721 224.915 324.004 224.882C324.286 224.846 324.492 224.789 324.62 224.71C324.748 224.631 324.812 224.503 324.812 224.325V224.291C324.812 223.86 324.691 223.526 324.448 223.29C324.208 223.053 323.849 222.935 323.373 222.935C322.876 222.935 322.485 223.045 322.199 223.265C321.916 223.482 321.721 223.724 321.612 223.99L320.227 223.674C320.391 223.214 320.631 222.843 320.947 222.56C321.265 222.274 321.632 222.067 322.046 221.939C322.46 221.807 322.896 221.741 323.353 221.741C323.655 221.741 323.976 221.778 324.314 221.85C324.656 221.919 324.975 222.047 325.271 222.235C325.57 222.422 325.815 222.69 326.006 223.038C326.196 223.383 326.292 223.832 326.292 224.384V229.414H324.852V228.379H324.793C324.697 228.569 324.554 228.757 324.364 228.941C324.173 229.125 323.928 229.278 323.629 229.399C323.33 229.521 322.972 229.582 322.554 229.582ZM322.875 228.398C323.282 228.398 323.631 228.318 323.92 228.157C324.212 227.996 324.434 227.785 324.586 227.525C324.74 227.262 324.817 226.981 324.817 226.682V225.706C324.765 225.759 324.663 225.808 324.512 225.854C324.364 225.897 324.194 225.934 324.004 225.967C323.813 225.997 323.627 226.025 323.447 226.051C323.266 226.074 323.115 226.094 322.993 226.11C322.707 226.146 322.446 226.207 322.209 226.293C321.975 226.378 321.788 226.501 321.647 226.663C321.509 226.82 321.44 227.031 321.44 227.294C321.44 227.659 321.574 227.935 321.844 228.122C322.114 228.306 322.457 228.398 322.875 228.398ZM331.791 221.84V223.023H327.654V221.84H331.791ZM328.763 220.025H330.238V227.19C330.238 227.476 330.281 227.691 330.366 227.836C330.451 227.977 330.562 228.074 330.696 228.127C330.834 228.176 330.984 228.201 331.145 228.201C331.263 228.201 331.367 228.193 331.456 228.176C331.544 228.16 331.614 228.147 331.663 228.137L331.929 229.355C331.844 229.388 331.722 229.421 331.564 229.454C331.406 229.49 331.209 229.509 330.972 229.513C330.585 229.519 330.223 229.45 329.888 229.306C329.552 229.161 329.281 228.937 329.074 228.635C328.867 228.333 328.763 227.953 328.763 227.496V220.025ZM333.422 229.414V221.84H334.896V229.414H333.422ZM334.167 220.671C333.91 220.671 333.69 220.586 333.506 220.415C333.325 220.241 333.235 220.034 333.235 219.794C333.235 219.55 333.325 219.343 333.506 219.172C333.69 218.998 333.91 218.911 334.167 218.911C334.423 218.911 334.642 218.998 334.822 219.172C335.006 219.343 335.099 219.55 335.099 219.794C335.099 220.034 335.006 220.241 334.822 220.415C334.642 220.586 334.423 220.671 334.167 220.671ZM343.359 221.84L340.613 229.414H339.035L336.283 221.84H337.866L339.784 227.668H339.863L341.776 221.84H343.359ZM347.751 229.567C347.005 229.567 346.363 229.407 345.823 229.089C345.288 228.766 344.873 228.314 344.581 227.733C344.292 227.147 344.147 226.462 344.147 225.676C344.147 224.901 344.292 224.217 344.581 223.625C344.873 223.033 345.281 222.571 345.804 222.239C346.33 221.907 346.944 221.741 347.648 221.741C348.075 221.741 348.489 221.812 348.891 221.953C349.292 222.095 349.652 222.317 349.97 222.619C350.289 222.922 350.541 223.314 350.725 223.798C350.909 224.278 351.001 224.861 351.001 225.548V226.071H344.98V224.966H349.556C349.556 224.578 349.477 224.235 349.32 223.936C349.162 223.633 348.94 223.395 348.654 223.221C348.371 223.046 348.039 222.959 347.658 222.959C347.244 222.959 346.882 223.061 346.573 223.265C346.267 223.466 346.031 223.729 345.863 224.054C345.699 224.376 345.616 224.726 345.616 225.104V225.967C345.616 226.474 345.705 226.904 345.883 227.259C346.063 227.614 346.315 227.885 346.637 228.073C346.959 228.257 347.336 228.349 347.766 228.349C348.046 228.349 348.3 228.31 348.531 228.231C348.761 228.148 348.96 228.027 349.127 227.866C349.295 227.705 349.423 227.506 349.512 227.269L350.907 227.521C350.796 227.931 350.595 228.291 350.306 228.6C350.02 228.906 349.66 229.145 349.226 229.315C348.795 229.483 348.304 229.567 347.751 229.567Z" fill="#F08484"/>
<rect x="37" y="246.828" width="119.286" height="34.8286" rx="17.4143" fill="#FDF0F0"/>
<path d="M61.2521 269.242V259.143H67.5835V260.455H62.7757V263.532H67.2531V264.839H62.7757V267.931H67.6426V269.242H61.2521ZM70.9748 264.745V269.242H69.5004V261.668H70.9156V262.901H71.0093C71.1835 262.5 71.4564 262.178 71.8278 261.934C72.2026 261.691 72.6743 261.57 73.243 261.57C73.7591 261.57 74.2112 261.678 74.5991 261.895C74.987 262.109 75.2878 262.428 75.5014 262.852C75.7151 263.276 75.8219 263.8 75.8219 264.425V269.242H74.3476V264.602C74.3476 264.053 74.2046 263.624 73.9186 263.315C73.6326 263.003 73.2397 262.847 72.7401 262.847C72.3982 262.847 72.0941 262.921 71.8278 263.069C71.5648 263.216 71.3561 263.433 71.2016 263.719C71.0504 264.002 70.9748 264.344 70.9748 264.745ZM80.9748 272.24C80.3733 272.24 79.8555 272.161 79.4216 272.004C78.9909 271.846 78.6392 271.637 78.3663 271.377C78.0935 271.118 77.8897 270.833 77.7549 270.524L79.0222 270.002C79.1109 270.146 79.2293 270.299 79.3772 270.46C79.5284 270.625 79.7322 270.764 79.9886 270.879C80.2483 270.994 80.582 271.052 80.9896 271.052C81.5485 271.052 82.0104 270.915 82.3753 270.643C82.7401 270.373 82.9226 269.942 82.9226 269.351V267.862H82.8289C82.7401 268.023 82.6119 268.202 82.4443 268.399C82.2799 268.596 82.0531 268.767 81.7638 268.912C81.4745 269.056 81.0981 269.129 80.6346 269.129C80.0363 269.129 79.4972 268.989 79.0172 268.71C78.5406 268.427 78.1625 268.011 77.8831 267.462C77.607 266.91 77.4689 266.231 77.4689 265.426C77.4689 264.62 77.6053 263.93 77.8782 263.355C78.1543 262.779 78.5324 262.339 79.0123 262.033C79.4923 261.724 80.0363 261.57 80.6445 261.57C81.1146 261.57 81.4942 261.648 81.7835 261.806C82.0728 261.961 82.298 262.142 82.4591 262.349C82.6234 262.556 82.75 262.738 82.8388 262.896H82.9473V261.668H84.392V269.41C84.392 270.061 84.2408 270.595 83.9384 271.012C83.6359 271.43 83.2267 271.739 82.7106 271.939C82.1977 272.14 81.6192 272.24 80.9748 272.24ZM80.9601 267.906C81.3841 267.906 81.7424 267.807 82.035 267.61C82.3309 267.409 82.5544 267.123 82.7056 266.752C82.8601 266.377 82.9374 265.929 82.9374 265.406C82.9374 264.896 82.8618 264.448 82.7106 264.06C82.5593 263.672 82.3374 263.369 82.0449 263.152C81.7523 262.932 81.3907 262.822 80.9601 262.822C80.5163 262.822 80.1464 262.937 79.8506 263.167C79.5547 263.394 79.3312 263.703 79.18 264.094C79.032 264.485 78.9581 264.923 78.9581 265.406C78.9581 265.902 79.0337 266.338 79.1849 266.713C79.3361 267.087 79.5596 267.38 79.8555 267.59C80.1547 267.801 80.5228 267.906 80.9601 267.906ZM87.8437 259.143V269.242H86.3694V259.143H87.8437ZM89.8272 269.242V261.668H91.3016V269.242H89.8272ZM90.5718 260.5C90.3154 260.5 90.0952 260.414 89.9111 260.243C89.7303 260.069 89.6399 259.862 89.6399 259.622C89.6399 259.379 89.7303 259.171 89.9111 259C90.0952 258.826 90.3154 258.739 90.5718 258.739C90.8282 258.739 91.0468 258.826 91.2276 259C91.4117 259.171 91.5038 259.379 91.5038 259.622C91.5038 259.862 91.4117 260.069 91.2276 260.243C91.0468 260.414 90.8282 260.5 90.5718 260.5ZM98.9607 263.517L97.6244 263.754C97.5685 263.583 97.4798 263.42 97.3581 263.266C97.2398 263.111 97.0787 262.985 96.8749 262.886C96.6711 262.787 96.4163 262.738 96.1106 262.738C95.6931 262.738 95.3446 262.832 95.0652 263.019C94.7858 263.203 94.6461 263.442 94.6461 263.734C94.6461 263.987 94.7398 264.191 94.9271 264.346C95.1145 264.5 95.4169 264.627 95.8344 264.725L97.0376 265.002C97.7345 265.163 98.2539 265.411 98.5958 265.746C98.9377 266.081 99.1086 266.517 99.1086 267.053C99.1086 267.506 98.9771 267.911 98.7141 268.266C98.4544 268.618 98.0912 268.894 97.6244 269.094C97.1609 269.295 96.6234 269.395 96.012 269.395C95.1638 269.395 94.4718 269.214 93.936 268.853C93.4002 268.488 93.0714 267.97 92.9498 267.299L94.3749 267.082C94.4636 267.454 94.6461 267.735 94.9222 267.926C95.1983 268.113 95.5583 268.207 96.0021 268.207C96.4853 268.207 96.8716 268.106 97.1609 267.906C97.4502 267.702 97.5948 267.454 97.5948 267.161C97.5948 266.925 97.506 266.726 97.3285 266.565C97.1543 266.404 96.8864 266.282 96.5248 266.2L95.2427 265.919C94.5359 265.758 94.0133 265.501 93.6747 265.149C93.3393 264.798 93.1717 264.352 93.1717 263.813C93.1717 263.366 93.2966 262.975 93.5465 262.64C93.7963 262.304 94.1415 262.043 94.582 261.856C95.0225 261.665 95.5271 261.57 96.0958 261.57C96.9143 261.57 97.5586 261.747 98.0287 262.102C98.4988 262.454 98.8095 262.926 98.9607 263.517ZM102.204 264.745V269.242H100.73V259.143H102.184V262.901H102.278C102.456 262.493 102.727 262.169 103.092 261.93C103.457 261.69 103.933 261.57 104.522 261.57C105.041 261.57 105.495 261.676 105.883 261.89C106.274 262.104 106.576 262.423 106.79 262.847C107.007 263.267 107.115 263.793 107.115 264.425V269.242H105.641V264.602C105.641 264.047 105.498 263.616 105.212 263.31C104.926 263.001 104.528 262.847 104.019 262.847C103.67 262.847 103.358 262.921 103.082 263.069C102.809 263.216 102.594 263.433 102.436 263.719C102.281 264.002 102.204 264.344 102.204 264.745ZM110.054 269.336C109.785 269.336 109.553 269.241 109.359 269.05C109.165 268.856 109.068 268.623 109.068 268.35C109.068 268.08 109.165 267.85 109.359 267.659C109.553 267.465 109.785 267.368 110.054 267.368C110.324 267.368 110.556 267.465 110.749 267.659C110.943 267.85 111.04 268.08 111.04 268.35C111.04 268.53 110.994 268.696 110.902 268.848C110.814 268.996 110.695 269.114 110.547 269.203C110.399 269.291 110.235 269.336 110.054 269.336ZM110.054 263.823C109.785 263.823 109.553 263.726 109.359 263.532C109.165 263.338 109.068 263.106 109.068 262.837C109.068 262.567 109.165 262.337 109.359 262.146C109.553 261.953 109.785 261.856 110.054 261.856C110.324 261.856 110.556 261.953 110.749 262.146C110.943 262.337 111.04 262.567 111.04 262.837C111.04 263.018 110.994 263.184 110.902 263.335C110.814 263.483 110.695 263.601 110.547 263.69C110.399 263.779 110.235 263.823 110.054 263.823ZM125.196 262.428H123.658C123.598 262.099 123.488 261.81 123.327 261.56C123.166 261.31 122.969 261.098 122.736 260.924C122.502 260.749 122.241 260.618 121.952 260.529C121.666 260.44 121.361 260.396 121.039 260.396C120.457 260.396 119.936 260.542 119.476 260.835C119.019 261.127 118.658 261.556 118.391 262.122C118.128 262.687 117.997 263.378 117.997 264.193C117.997 265.015 118.128 265.708 118.391 266.274C118.658 266.839 119.021 267.266 119.481 267.556C119.941 267.845 120.459 267.99 121.034 267.99C121.353 267.99 121.656 267.947 121.942 267.862C122.231 267.773 122.492 267.643 122.726 267.472C122.959 267.301 123.156 267.092 123.317 266.846C123.482 266.596 123.595 266.31 123.658 265.988L125.196 265.993C125.114 266.489 124.954 266.946 124.718 267.363C124.484 267.778 124.184 268.136 123.815 268.438C123.451 268.738 123.033 268.969 122.563 269.134C122.093 269.298 121.58 269.38 121.024 269.38C120.15 269.38 119.371 269.173 118.687 268.759C118.003 268.341 117.464 267.745 117.07 266.969C116.679 266.193 116.483 265.268 116.483 264.193C116.483 263.115 116.68 262.189 117.075 261.417C117.469 260.641 118.008 260.046 118.692 259.632C119.376 259.214 120.153 259.005 121.024 259.005C121.56 259.005 122.06 259.083 122.524 259.237C122.99 259.388 123.409 259.612 123.781 259.908C124.152 260.2 124.46 260.559 124.703 260.983C124.946 261.404 125.111 261.885 125.196 262.428ZM130.713 259.143V269.242H129.184V260.672H129.125L126.709 262.25V260.79L129.228 259.143H130.713Z" fill="#F08484"/>
<rect x="161.286" y="246.828" width="133.286" height="34.8286" rx="17.4143" fill="#FDF0F0"/>
<path d="M185.538 269.242V259.143H191.87V260.455H187.062V263.532H191.539V264.839H187.062V267.931H191.929V269.242H185.538ZM195.991 269.41C195.511 269.41 195.077 269.321 194.689 269.144C194.301 268.963 193.994 268.701 193.767 268.36C193.543 268.018 193.431 267.599 193.431 267.102C193.431 266.675 193.514 266.323 193.678 266.047C193.842 265.771 194.064 265.552 194.344 265.391C194.623 265.23 194.935 265.108 195.281 265.026C195.626 264.944 195.978 264.882 196.336 264.839C196.79 264.786 197.158 264.743 197.44 264.711C197.723 264.674 197.929 264.617 198.057 264.538C198.185 264.459 198.249 264.331 198.249 264.153V264.119C198.249 263.688 198.127 263.355 197.884 263.118C197.644 262.881 197.286 262.763 196.809 262.763C196.313 262.763 195.922 262.873 195.636 263.093C195.353 263.31 195.157 263.552 195.049 263.818L193.663 263.502C193.828 263.042 194.068 262.671 194.383 262.388C194.702 262.102 195.069 261.895 195.483 261.767C195.897 261.635 196.333 261.57 196.79 261.57C197.092 261.57 197.412 261.606 197.751 261.678C198.093 261.747 198.412 261.875 198.708 262.063C199.007 262.25 199.252 262.518 199.442 262.866C199.633 263.212 199.728 263.66 199.728 264.213V269.242H198.289V268.207H198.229C198.134 268.397 197.991 268.585 197.8 268.769C197.61 268.953 197.365 269.106 197.066 269.227C196.767 269.349 196.408 269.41 195.991 269.41ZM196.311 268.226C196.719 268.226 197.067 268.146 197.357 267.985C197.649 267.824 197.871 267.613 198.022 267.354C198.177 267.091 198.254 266.81 198.254 266.51V265.534C198.201 265.587 198.1 265.636 197.948 265.682C197.8 265.725 197.631 265.763 197.44 265.795C197.25 265.825 197.064 265.853 196.883 265.879C196.702 265.902 196.551 265.922 196.43 265.938C196.144 265.975 195.882 266.035 195.646 266.121C195.412 266.206 195.225 266.33 195.083 266.491C194.945 266.648 194.876 266.859 194.876 267.122C194.876 267.487 195.011 267.763 195.281 267.95C195.55 268.134 195.894 268.226 196.311 268.226ZM201.692 269.242V261.668H203.117V262.871H203.196C203.334 262.464 203.577 262.143 203.926 261.91C204.278 261.673 204.675 261.555 205.119 261.555C205.211 261.555 205.32 261.558 205.445 261.565C205.573 261.571 205.673 261.579 205.745 261.589V263C205.686 262.983 205.581 262.965 205.43 262.945C205.279 262.922 205.127 262.911 204.976 262.911C204.628 262.911 204.317 262.985 204.044 263.133C203.775 263.277 203.561 263.479 203.403 263.739C203.245 263.996 203.167 264.288 203.167 264.617V269.242H201.692ZM214.301 261.668V262.852H210.021V261.668H214.301ZM211.194 269.242V260.79C211.194 260.317 211.298 259.924 211.505 259.612C211.712 259.296 211.986 259.061 212.328 258.907C212.67 258.749 213.042 258.67 213.443 258.67C213.739 258.67 213.992 258.695 214.202 258.744C214.413 258.79 214.569 258.833 214.671 258.872L214.325 260.066C214.256 260.046 214.168 260.023 214.059 259.997C213.951 259.967 213.819 259.952 213.665 259.952C213.306 259.952 213.05 260.041 212.895 260.218C212.744 260.396 212.669 260.652 212.669 260.988V269.242H211.194ZM218.714 269.395C218.004 269.395 217.384 269.232 216.855 268.907C216.326 268.581 215.915 268.126 215.622 267.541C215.33 266.956 215.183 266.272 215.183 265.49C215.183 264.704 215.33 264.017 215.622 263.429C215.915 262.84 216.326 262.383 216.855 262.058C217.384 261.732 218.004 261.57 218.714 261.57C219.424 261.57 220.044 261.732 220.573 262.058C221.102 262.383 221.513 262.84 221.806 263.429C222.098 264.017 222.245 264.704 222.245 265.49C222.245 266.272 222.098 266.956 221.806 267.541C221.513 268.126 221.102 268.581 220.573 268.907C220.044 269.232 219.424 269.395 218.714 269.395ZM218.719 268.157C219.179 268.157 219.56 268.036 219.863 267.792C220.165 267.549 220.389 267.225 220.534 266.821C220.681 266.417 220.755 265.971 220.755 265.485C220.755 265.002 220.681 264.558 220.534 264.153C220.389 263.746 220.165 263.419 219.863 263.172C219.56 262.926 219.179 262.802 218.719 262.802C218.255 262.802 217.871 262.926 217.565 263.172C217.263 263.419 217.037 263.746 216.89 264.153C216.745 264.558 216.673 265.002 216.673 265.485C216.673 265.971 216.745 266.417 216.89 266.821C217.037 267.225 217.263 267.549 217.565 267.792C217.871 268.036 218.255 268.157 218.719 268.157ZM223.89 269.242V261.668H225.315V262.871H225.394C225.532 262.464 225.776 262.143 226.124 261.91C226.476 261.673 226.874 261.555 227.317 261.555C227.409 261.555 227.518 261.558 227.643 261.565C227.771 261.571 227.871 261.579 227.944 261.589V263C227.884 262.983 227.779 262.965 227.628 262.945C227.477 262.922 227.326 262.911 227.174 262.911C226.826 262.911 226.515 262.985 226.242 263.133C225.973 263.277 225.759 263.479 225.601 263.739C225.444 263.996 225.365 264.288 225.365 264.617V269.242H223.89ZM232.894 269.242V261.668H234.31V262.901H234.403C234.561 262.483 234.819 262.158 235.177 261.925C235.536 261.688 235.965 261.57 236.464 261.57C236.971 261.57 237.395 261.688 237.737 261.925C238.082 262.161 238.337 262.487 238.501 262.901H238.58C238.761 262.497 239.048 262.174 239.443 261.934C239.837 261.691 240.307 261.57 240.853 261.57C241.54 261.57 242.101 261.785 242.534 262.216C242.972 262.646 243.19 263.295 243.19 264.163V269.242H241.716V264.301C241.716 263.788 241.576 263.417 241.297 263.187C241.017 262.957 240.684 262.842 240.296 262.842C239.816 262.842 239.443 262.99 239.176 263.286C238.91 263.578 238.777 263.955 238.777 264.415V269.242H237.308V264.208C237.308 263.797 237.179 263.466 236.923 263.216C236.667 262.967 236.333 262.842 235.922 262.842C235.643 262.842 235.385 262.916 235.148 263.064C234.914 263.208 234.725 263.41 234.581 263.67C234.439 263.93 234.369 264.231 234.369 264.573V269.242H232.894ZM249.964 266.101V261.668H251.444V269.242H249.994V267.931H249.915C249.741 268.335 249.461 268.672 249.077 268.941C248.695 269.208 248.22 269.341 247.652 269.341C247.165 269.341 246.734 269.234 246.36 269.02C245.988 268.803 245.696 268.483 245.482 268.059C245.272 267.635 245.166 267.11 245.166 266.486V261.668H246.641V266.308C246.641 266.824 246.784 267.235 247.07 267.541C247.356 267.847 247.727 268 248.184 268C248.46 268 248.735 267.931 249.008 267.792C249.284 267.654 249.512 267.446 249.693 267.166C249.877 266.887 249.968 266.532 249.964 266.101ZM259.1 263.517L257.764 263.754C257.708 263.583 257.619 263.42 257.498 263.266C257.379 263.111 257.218 262.985 257.014 262.886C256.811 262.787 256.556 262.738 256.25 262.738C255.833 262.738 255.484 262.832 255.205 263.019C254.925 263.203 254.786 263.442 254.786 263.734C254.786 263.987 254.879 264.191 255.067 264.346C255.254 264.5 255.556 264.627 255.974 264.725L257.177 265.002C257.874 265.163 258.393 265.411 258.735 265.746C259.077 266.081 259.248 266.517 259.248 267.053C259.248 267.506 259.117 267.911 258.854 268.266C258.594 268.618 258.231 268.894 257.764 269.094C257.3 269.295 256.763 269.395 256.151 269.395C255.303 269.395 254.611 269.214 254.075 268.853C253.54 268.488 253.211 267.97 253.089 267.299L254.514 267.082C254.603 267.454 254.786 267.735 255.062 267.926C255.338 268.113 255.698 268.207 256.142 268.207C256.625 268.207 257.011 268.106 257.3 267.906C257.59 267.702 257.734 267.454 257.734 267.161C257.734 266.925 257.646 266.726 257.468 266.565C257.294 266.404 257.026 266.282 256.664 266.2L255.382 265.919C254.675 265.758 254.153 265.501 253.814 265.149C253.479 264.798 253.311 264.352 253.311 263.813C253.311 263.366 253.436 262.975 253.686 262.64C253.936 262.304 254.281 262.043 254.721 261.856C255.162 261.665 255.667 261.57 256.235 261.57C257.054 261.57 257.698 261.747 258.168 262.102C258.638 262.454 258.949 262.926 259.1 263.517ZM260.869 269.242V261.668H262.344V269.242H260.869ZM261.614 260.5C261.357 260.5 261.137 260.414 260.953 260.243C260.772 260.069 260.682 259.862 260.682 259.622C260.682 259.379 260.772 259.171 260.953 259C261.137 258.826 261.357 258.739 261.614 258.739C261.87 258.739 262.089 258.826 262.27 259C262.454 259.171 262.546 259.379 262.546 259.622C262.546 259.862 262.454 260.069 262.27 260.243C262.089 260.414 261.87 260.5 261.614 260.5ZM267.517 269.395C266.784 269.395 266.153 269.229 265.624 268.897C265.098 268.562 264.694 268.1 264.411 267.511C264.128 266.923 263.987 266.249 263.987 265.49C263.987 264.72 264.131 264.042 264.421 263.453C264.71 262.861 265.118 262.4 265.644 262.068C266.17 261.736 266.789 261.57 267.503 261.57C268.078 261.57 268.591 261.676 269.041 261.89C269.491 262.1 269.855 262.396 270.131 262.778C270.41 263.159 270.576 263.604 270.629 264.114H269.194C269.115 263.759 268.934 263.453 268.652 263.197C268.372 262.94 267.997 262.812 267.527 262.812C267.116 262.812 266.756 262.921 266.447 263.138C266.142 263.351 265.903 263.657 265.732 264.055C265.561 264.449 265.476 264.916 265.476 265.455C265.476 266.007 265.56 266.484 265.727 266.885C265.895 267.286 266.132 267.597 266.438 267.817C266.747 268.037 267.11 268.148 267.527 268.148C267.807 268.148 268.06 268.097 268.287 267.995C268.517 267.889 268.709 267.74 268.864 267.546C269.021 267.352 269.131 267.119 269.194 266.846H270.629C270.576 267.336 270.417 267.773 270.151 268.157C269.884 268.542 269.528 268.844 269.081 269.065C268.637 269.285 268.116 269.395 267.517 269.395Z" fill="#F08484"/>
<rect opacity="0.42" x="36" y="317" width="454" height="2" rx="1" fill="#D9D9D9"/>
<rect x="37" y="354" width="453" height="43" rx="10" fill="#FDF0F0"/>
<path d="M228.489 382.5V367.955H231.124V380.291H237.531V382.5H228.489ZM244.462 382.713C243.397 382.713 242.474 382.479 241.692 382.01C240.911 381.541 240.305 380.885 239.874 380.043C239.448 379.2 239.235 378.215 239.235 377.088C239.235 375.961 239.448 374.974 239.874 374.126C240.305 373.279 240.911 372.621 241.692 372.152C242.474 371.683 243.397 371.449 244.462 371.449C245.528 371.449 246.451 371.683 247.232 372.152C248.013 372.621 248.617 373.279 249.043 374.126C249.474 374.974 249.69 375.961 249.69 377.088C249.69 378.215 249.474 379.2 249.043 380.043C248.617 380.885 248.013 381.541 247.232 382.01C246.451 382.479 245.528 382.713 244.462 382.713ZM244.477 380.653C245.054 380.653 245.537 380.495 245.925 380.178C246.314 379.856 246.603 379.425 246.792 378.885C246.986 378.345 247.083 377.744 247.083 377.081C247.083 376.413 246.986 375.81 246.792 375.27C246.603 374.725 246.314 374.292 245.925 373.97C245.537 373.648 245.054 373.487 244.477 373.487C243.885 373.487 243.392 373.648 242.999 373.97C242.611 374.292 242.32 374.725 242.126 375.27C241.936 375.81 241.842 376.413 241.842 377.081C241.842 377.744 241.936 378.345 242.126 378.885C242.32 379.425 242.611 379.856 242.999 380.178C243.392 380.495 243.885 380.653 244.477 380.653ZM256.616 386.818C255.693 386.818 254.9 386.693 254.237 386.442C253.574 386.196 253.041 385.864 252.639 385.447C252.236 385.031 251.957 384.569 251.801 384.062L254.116 383.501C254.22 383.714 254.372 383.925 254.571 384.134C254.77 384.347 255.037 384.522 255.373 384.659C255.714 384.801 256.143 384.872 256.659 384.872C257.388 384.872 257.992 384.695 258.47 384.339C258.948 383.989 259.187 383.411 259.187 382.607V380.54H259.059C258.927 380.805 258.733 381.077 258.477 381.357C258.226 381.636 257.892 381.87 257.475 382.06C257.064 382.249 256.545 382.344 255.92 382.344C255.082 382.344 254.322 382.147 253.64 381.754C252.963 381.357 252.423 380.765 252.021 379.979C251.623 379.188 251.424 378.198 251.424 377.01C251.424 375.812 251.623 374.801 252.021 373.977C252.423 373.149 252.966 372.521 253.647 372.095C254.329 371.664 255.089 371.449 255.927 371.449C256.566 371.449 257.092 371.558 257.504 371.776C257.921 371.989 258.252 372.247 258.498 372.55C258.744 372.848 258.931 373.13 259.059 373.395H259.201V371.591H261.737V382.678C261.737 383.61 261.514 384.382 261.069 384.993C260.624 385.604 260.016 386.061 259.244 386.364C258.472 386.667 257.596 386.818 256.616 386.818ZM256.637 380.327C257.182 380.327 257.646 380.194 258.029 379.929C258.413 379.664 258.704 379.283 258.903 378.786C259.102 378.288 259.201 377.692 259.201 376.996C259.201 376.309 259.102 375.708 258.903 375.192C258.709 374.676 258.42 374.276 258.037 373.991C257.658 373.703 257.191 373.558 256.637 373.558C256.065 373.558 255.586 373.707 255.203 374.006C254.819 374.304 254.53 374.714 254.336 375.234C254.142 375.75 254.045 376.338 254.045 376.996C254.045 377.663 254.142 378.248 254.336 378.75C254.535 379.247 254.826 379.635 255.21 379.915C255.598 380.189 256.074 380.327 256.637 380.327ZM274.091 382.713C273.026 382.713 272.103 382.479 271.321 382.01C270.54 381.541 269.934 380.885 269.503 380.043C269.077 379.2 268.864 378.215 268.864 377.088C268.864 375.961 269.077 374.974 269.503 374.126C269.934 373.279 270.54 372.621 271.321 372.152C272.103 371.683 273.026 371.449 274.091 371.449C275.157 371.449 276.08 371.683 276.861 372.152C277.642 372.621 278.246 373.279 278.672 374.126C279.103 374.974 279.319 375.961 279.319 377.088C279.319 378.215 279.103 379.2 278.672 380.043C278.246 380.885 277.642 381.541 276.861 382.01C276.08 382.479 275.157 382.713 274.091 382.713ZM274.105 380.653C274.683 380.653 275.166 380.495 275.554 380.178C275.943 379.856 276.231 379.425 276.421 378.885C276.615 378.345 276.712 377.744 276.712 377.081C276.712 376.413 276.615 375.81 276.421 375.27C276.231 374.725 275.943 374.292 275.554 373.97C275.166 373.648 274.683 373.487 274.105 373.487C273.514 373.487 273.021 373.648 272.628 373.97C272.24 374.292 271.949 374.725 271.755 375.27C271.565 375.81 271.471 376.413 271.471 377.081C271.471 377.744 271.565 378.345 271.755 378.885C271.949 379.425 272.24 379.856 272.628 380.178C273.021 380.495 273.514 380.653 274.105 380.653ZM288.454 377.912V371.591H291.025V382.5H288.532V380.561H288.418C288.172 381.172 287.767 381.671 287.204 382.06C286.645 382.448 285.956 382.642 285.137 382.642C284.422 382.642 283.79 382.483 283.241 382.166C282.696 381.844 282.27 381.378 281.962 380.767C281.655 380.152 281.501 379.408 281.501 378.537V371.591H284.072V378.139C284.072 378.83 284.261 379.38 284.64 379.787C285.019 380.194 285.516 380.398 286.131 380.398C286.51 380.398 286.877 380.305 287.232 380.121C287.587 379.936 287.879 379.661 288.106 379.297C288.338 378.928 288.454 378.466 288.454 377.912ZM299.116 371.591V373.58H292.845V371.591H299.116ZM294.393 368.977H296.964V379.219C296.964 379.564 297.016 379.83 297.12 380.014C297.229 380.194 297.371 380.317 297.547 380.384C297.722 380.45 297.916 380.483 298.129 380.483C298.29 380.483 298.437 380.471 298.569 380.447C298.707 380.424 298.811 380.402 298.882 380.384L299.315 382.393C299.178 382.441 298.981 382.493 298.725 382.55C298.475 382.607 298.167 382.64 297.802 382.649C297.158 382.668 296.578 382.571 296.062 382.358C295.546 382.14 295.136 381.804 294.833 381.349C294.535 380.895 294.388 380.327 294.393 379.645V368.977Z" fill="#DB0000"/>
<path d="M42.0455 432H38.2784V420.364H42.1648C43.3049 420.364 44.2841 420.597 45.1023 421.062C45.9205 421.525 46.5473 422.189 46.983 423.057C47.4223 423.92 47.642 424.956 47.642 426.165C47.642 427.377 47.4205 428.419 46.9773 429.29C46.5379 430.161 45.9015 430.831 45.0682 431.301C44.2348 431.767 43.2273 432 42.0455 432ZM40.0341 430.466H41.9489C42.8352 430.466 43.572 430.299 44.1591 429.966C44.7462 429.629 45.1856 429.142 45.4773 428.506C45.7689 427.866 45.9148 427.085 45.9148 426.165C45.9148 425.252 45.7689 424.477 45.4773 423.841C45.1894 423.205 44.7595 422.722 44.1875 422.392C43.6155 422.062 42.9053 421.898 42.0568 421.898H40.0341V430.466ZM53.4503 432.176C52.5904 432.176 51.8499 431.992 51.2287 431.625C50.6113 431.254 50.134 430.733 49.7969 430.062C49.4635 429.388 49.2969 428.598 49.2969 427.693C49.2969 426.799 49.4635 426.011 49.7969 425.33C50.134 424.648 50.6037 424.116 51.206 423.733C51.812 423.35 52.5204 423.159 53.331 423.159C53.8234 423.159 54.3007 423.241 54.7628 423.403C55.2249 423.566 55.6397 423.822 56.0071 424.17C56.3745 424.519 56.6643 424.972 56.8764 425.528C57.0885 426.081 57.1946 426.754 57.1946 427.545V428.148H50.2571V426.875H55.5298C55.5298 426.428 55.4389 426.032 55.2571 425.688C55.0753 425.339 54.8196 425.064 54.4901 424.864C54.1643 424.663 53.7817 424.562 53.3423 424.562C52.8651 424.562 52.4484 424.68 52.0923 424.915C51.7401 425.146 51.4673 425.449 51.2741 425.824C51.0848 426.195 50.9901 426.598 50.9901 427.034V428.028C50.9901 428.612 51.0923 429.108 51.2969 429.517C51.5052 429.926 51.795 430.239 52.1662 430.455C52.5374 430.667 52.9711 430.773 53.4673 430.773C53.7893 430.773 54.0829 430.727 54.348 430.636C54.6132 430.542 54.8423 430.402 55.0355 430.216C55.2287 430.03 55.3764 429.801 55.4787 429.528L57.0866 429.818C56.9579 430.292 56.7268 430.706 56.3935 431.062C56.0639 431.415 55.6491 431.689 55.1491 431.886C54.6529 432.08 54.0866 432.176 53.4503 432.176ZM60.7784 420.364V432H59.0795V420.364H60.7784ZM66.8253 432.176C65.9654 432.176 65.2249 431.992 64.6037 431.625C63.9863 431.254 63.509 430.733 63.1719 430.062C62.8385 429.388 62.6719 428.598 62.6719 427.693C62.6719 426.799 62.8385 426.011 63.1719 425.33C63.509 424.648 63.9787 424.116 64.581 423.733C65.187 423.35 65.8954 423.159 66.706 423.159C67.1984 423.159 67.6757 423.241 68.1378 423.403C68.5999 423.566 69.0147 423.822 69.3821 424.17C69.7495 424.519 70.0393 424.972 70.2514 425.528C70.4635 426.081 70.5696 426.754 70.5696 427.545V428.148H63.6321V426.875H68.9048C68.9048 426.428 68.8139 426.032 68.6321 425.688C68.4503 425.339 68.1946 425.064 67.8651 424.864C67.5393 424.663 67.1567 424.562 66.7173 424.562C66.2401 424.562 65.8234 424.68 65.4673 424.915C65.1151 425.146 64.8423 425.449 64.6491 425.824C64.4598 426.195 64.3651 426.598 64.3651 427.034V428.028C64.3651 428.612 64.4673 429.108 64.6719 429.517C64.8802 429.926 65.17 430.239 65.5412 430.455C65.9124 430.667 66.3461 430.773 66.8423 430.773C67.1643 430.773 67.4579 430.727 67.723 430.636C67.9882 430.542 68.2173 430.402 68.4105 430.216C68.6037 430.03 68.7514 429.801 68.8537 429.528L70.4616 429.818C70.3329 430.292 70.1018 430.706 69.7685 431.062C69.4389 431.415 69.0241 431.689 68.5241 431.886C68.0279 432.08 67.4616 432.176 66.8253 432.176ZM76.5284 423.273V424.636H71.7614V423.273H76.5284ZM73.0398 421.182H74.7386V429.438C74.7386 429.767 74.7879 430.015 74.8864 430.182C74.9848 430.345 75.1117 430.456 75.267 430.517C75.4261 430.574 75.5985 430.602 75.7841 430.602C75.9205 430.602 76.0398 430.593 76.142 430.574C76.2443 430.555 76.3239 430.54 76.3807 430.528L76.6875 431.932C76.589 431.97 76.4489 432.008 76.267 432.045C76.0852 432.087 75.858 432.11 75.5852 432.114C75.1383 432.121 74.7216 432.042 74.3352 431.875C73.9489 431.708 73.6364 431.451 73.3977 431.102C73.1591 430.754 73.0398 430.316 73.0398 429.79V421.182ZM82.0753 432.176C81.2154 432.176 80.4749 431.992 79.8537 431.625C79.2363 431.254 78.759 430.733 78.4219 430.062C78.0885 429.388 77.9219 428.598 77.9219 427.693C77.9219 426.799 78.0885 426.011 78.4219 425.33C78.759 424.648 79.2287 424.116 79.831 423.733C80.437 423.35 81.1454 423.159 81.956 423.159C82.4484 423.159 82.9257 423.241 83.3878 423.403C83.8499 423.566 84.2647 423.822 84.6321 424.17C84.9995 424.519 85.2893 424.972 85.5014 425.528C85.7135 426.081 85.8196 426.754 85.8196 427.545V428.148H78.8821V426.875H84.1548C84.1548 426.428 84.0639 426.032 83.8821 425.688C83.7003 425.339 83.4446 425.064 83.1151 424.864C82.7893 424.663 82.4067 424.562 81.9673 424.562C81.4901 424.562 81.0734 424.68 80.7173 424.915C80.3651 425.146 80.0923 425.449 79.8991 425.824C79.7098 426.195 79.6151 426.598 79.6151 427.034V428.028C79.6151 428.612 79.7173 429.108 79.9219 429.517C80.1302 429.926 80.42 430.239 80.7912 430.455C81.1624 430.667 81.5961 430.773 82.0923 430.773C82.4143 430.773 82.7079 430.727 82.973 430.636C83.2382 430.542 83.4673 430.402 83.6605 430.216C83.8537 430.03 84.0014 429.801 84.1037 429.528L85.7116 429.818C85.5829 430.292 85.3518 430.706 85.0185 431.062C84.6889 431.415 84.2741 431.689 83.7741 431.886C83.2779 432.08 82.7116 432.176 82.0753 432.176ZM91.9389 435.273V423.273H93.598V424.688H93.7401C93.8385 424.506 93.9806 424.295 94.1662 424.057C94.3518 423.818 94.6094 423.61 94.9389 423.432C95.2685 423.25 95.7041 423.159 96.2457 423.159C96.9503 423.159 97.5791 423.337 98.1321 423.693C98.6851 424.049 99.1188 424.562 99.4332 425.233C99.7514 425.903 99.9105 426.71 99.9105 427.653C99.9105 428.597 99.7533 429.405 99.4389 430.08C99.1245 430.75 98.6927 431.267 98.1435 431.631C97.5942 431.991 96.9673 432.17 96.2628 432.17C95.7325 432.17 95.2988 432.081 94.9616 431.903C94.6283 431.725 94.367 431.517 94.1776 431.278C93.9882 431.04 93.8423 430.828 93.7401 430.642H93.6378V435.273H91.9389ZM93.6037 427.636C93.6037 428.25 93.6927 428.788 93.8707 429.25C94.0488 429.712 94.3063 430.074 94.6435 430.335C94.9806 430.593 95.3935 430.722 95.8821 430.722C96.3897 430.722 96.8139 430.587 97.1548 430.318C97.4957 430.045 97.7533 429.676 97.9276 429.21C98.1056 428.744 98.1946 428.22 98.1946 427.636C98.1946 427.061 98.1075 426.544 97.9332 426.085C97.7628 425.627 97.5052 425.265 97.1605 425C96.8196 424.735 96.3935 424.602 95.8821 424.602C95.3897 424.602 94.973 424.729 94.6321 424.983C94.295 425.237 94.0393 425.591 93.8651 426.045C93.6908 426.5 93.6037 427.03 93.6037 427.636ZM101.814 432V423.273H103.456V424.659H103.547C103.706 424.189 103.986 423.82 104.388 423.551C104.793 423.278 105.251 423.142 105.763 423.142C105.869 423.142 105.994 423.146 106.138 423.153C106.286 423.161 106.401 423.17 106.484 423.182V424.807C106.416 424.788 106.295 424.767 106.121 424.744C105.946 424.718 105.772 424.705 105.598 424.705C105.196 424.705 104.839 424.79 104.524 424.96C104.214 425.127 103.967 425.36 103.786 425.659C103.604 425.955 103.513 426.292 103.513 426.67V432H101.814ZM111.318 432.176C110.5 432.176 109.786 431.989 109.176 431.614C108.566 431.239 108.093 430.714 107.756 430.04C107.419 429.366 107.25 428.578 107.25 427.676C107.25 426.771 107.419 425.979 107.756 425.301C108.093 424.623 108.566 424.097 109.176 423.722C109.786 423.347 110.5 423.159 111.318 423.159C112.136 423.159 112.85 423.347 113.46 423.722C114.07 424.097 114.544 424.623 114.881 425.301C115.218 425.979 115.386 426.771 115.386 427.676C115.386 428.578 115.218 429.366 114.881 430.04C114.544 430.714 114.07 431.239 113.46 431.614C112.85 431.989 112.136 432.176 111.318 432.176ZM111.324 430.75C111.854 430.75 112.294 430.61 112.642 430.33C112.991 430.049 113.248 429.676 113.415 429.21C113.585 428.744 113.67 428.231 113.67 427.67C113.67 427.114 113.585 426.602 113.415 426.136C113.248 425.667 112.991 425.29 112.642 425.006C112.294 424.722 111.854 424.58 111.324 424.58C110.79 424.58 110.347 424.722 109.994 425.006C109.646 425.29 109.386 425.667 109.216 426.136C109.049 426.602 108.966 427.114 108.966 427.67C108.966 428.231 109.049 428.744 109.216 429.21C109.386 429.676 109.646 430.049 109.994 430.33C110.347 430.61 110.79 430.75 111.324 430.75ZM121.436 423.273V424.636H116.504V423.273H121.436ZM117.857 432V422.261C117.857 421.716 117.976 421.263 118.214 420.903C118.453 420.54 118.769 420.269 119.163 420.091C119.557 419.909 119.985 419.818 120.447 419.818C120.788 419.818 121.08 419.847 121.322 419.903C121.565 419.956 121.745 420.006 121.862 420.051L121.464 421.426C121.385 421.403 121.283 421.377 121.158 421.347C121.033 421.312 120.881 421.295 120.703 421.295C120.29 421.295 119.995 421.398 119.817 421.602C119.643 421.807 119.555 422.102 119.555 422.489V432H117.857ZM123.189 432V423.273H124.888V432H123.189ZM124.047 421.926C123.751 421.926 123.498 421.828 123.286 421.631C123.077 421.43 122.973 421.191 122.973 420.915C122.973 420.634 123.077 420.396 123.286 420.199C123.498 419.998 123.751 419.898 124.047 419.898C124.342 419.898 124.594 419.998 124.803 420.199C125.015 420.396 125.121 420.634 125.121 420.915C125.121 421.191 125.015 421.43 124.803 421.631C124.594 421.828 124.342 421.926 124.047 421.926ZM128.872 420.364V432H127.173V420.364H128.872ZM134.919 432.176C134.059 432.176 133.319 431.992 132.697 431.625C132.08 431.254 131.603 430.733 131.266 430.062C130.932 429.388 130.766 428.598 130.766 427.693C130.766 426.799 130.932 426.011 131.266 425.33C131.603 424.648 132.072 424.116 132.675 423.733C133.281 423.35 133.989 423.159 134.8 423.159C135.292 423.159 135.769 423.241 136.232 423.403C136.694 423.566 137.108 423.822 137.476 424.17C137.843 424.519 138.133 424.972 138.345 425.528C138.557 426.081 138.663 426.754 138.663 427.545V428.148H131.726V426.875H136.999C136.999 426.428 136.908 426.032 136.726 425.688C136.544 425.339 136.288 425.064 135.959 424.864C135.633 424.663 135.25 424.562 134.811 424.562C134.334 424.562 133.917 424.68 133.561 424.915C133.209 425.146 132.936 425.449 132.743 425.824C132.554 426.195 132.459 426.598 132.459 427.034V428.028C132.459 428.612 132.561 429.108 132.766 429.517C132.974 429.926 133.264 430.239 133.635 430.455C134.006 430.667 134.44 430.773 134.936 430.773C135.258 430.773 135.552 430.727 135.817 430.636C136.082 430.542 136.311 430.402 136.504 430.216C136.697 430.03 136.845 429.801 136.947 429.528L138.555 429.818C138.427 430.292 138.196 430.706 137.862 431.062C137.533 431.415 137.118 431.689 136.618 431.886C136.122 432.08 135.555 432.176 134.919 432.176Z" fill="#C2C2C2"/>
<path d="M37 435.182H90.8466V436.273H37V435.182ZM94.7315 435.182H139.413V436.273H94.7315V435.182Z" fill="#C2C2C2"/>
<mask id="mask0_469_33819" style="mask-type:luminance" maskUnits="userSpaceOnUse" x="146" y="419" width="14" height="16">
<path d="M159.396 419H146V434.43H159.396V419Z" fill="white"/>
</mask>
<g mask="url(#mask0_469_33819)">
<path d="M159.391 422.405C159.391 422.818 159.057 423.151 158.645 423.151H158.247V431.971C158.247 433.33 157.147 434.43 155.794 434.43H149.616C148.263 434.43 147.164 433.33 147.164 431.971V423.151H146.766C146.353 423.151 146.02 422.818 146.02 422.405C146.02 421.991 146.353 421.658 146.766 421.658H149.377V420.886C149.377 419.846 150.223 419 151.263 419H154.148C155.187 419 156.033 419.846 156.033 420.886V421.658H158.645C159.057 421.658 159.391 421.991 159.391 422.405ZM150.104 425.272V430.817C150.104 431.23 150.437 431.563 150.85 431.563C151.263 431.563 151.596 431.23 151.596 430.817V425.272C151.596 424.858 151.263 424.525 150.85 424.525C150.437 424.525 150.104 424.858 150.104 425.272ZM154.541 420.886C154.541 420.667 154.367 420.493 154.148 420.493H151.263C151.044 420.493 150.87 420.667 150.87 420.886V421.658H154.541V420.886ZM155.307 425.272C155.307 424.858 154.974 424.525 154.561 424.525C154.148 424.525 153.815 424.858 153.815 425.272V430.817C153.815 431.23 154.148 431.563 154.561 431.563C154.974 431.563 155.307 431.23 155.307 430.817V425.272Z" fill="#C2C2C2"/>
</g>
</svg>
