<svg width="215" height="203" viewBox="0 0 215 203" fill="none" xmlns="http://www.w3.org/2000/svg">
<rect width="215" height="203" rx="17.5064" fill="white"/>
<path d="M33.8779 43.3574V27.3574H40.1904C41.404 27.3574 42.4378 27.5892 43.292 28.0527C44.1462 28.5111 44.7972 29.1491 45.2451 29.9668C45.6982 30.7793 45.9248 31.7168 45.9248 32.7793C45.9248 33.8418 45.6956 34.7793 45.2373 35.5918C44.779 36.4043 44.1149 37.0371 43.2451 37.4902C42.3805 37.9434 41.3337 38.1699 40.1045 38.1699H36.0811V35.459H39.5576C40.2087 35.459 40.7451 35.347 41.167 35.123C41.5941 34.8939 41.9118 34.5788 42.1201 34.1777C42.3337 33.7715 42.4404 33.3053 42.4404 32.7793C42.4404 32.248 42.3337 31.7845 42.1201 31.3887C41.9118 30.9876 41.5941 30.6777 41.167 30.459C40.7399 30.235 40.1982 30.123 39.542 30.123H37.2607V43.3574H33.8779ZM48.0596 43.3574V31.3574H51.2861V33.4512H51.4111C51.6299 32.7064 51.9971 32.1439 52.5127 31.7637C53.0283 31.3783 53.6221 31.1855 54.2939 31.1855C54.4606 31.1855 54.6403 31.196 54.833 31.2168C55.0257 31.2376 55.195 31.2663 55.3408 31.3027V34.2559C55.1846 34.209 54.9684 34.1673 54.6924 34.1309C54.4163 34.0944 54.1637 34.0762 53.9346 34.0762C53.445 34.0762 53.0075 34.1829 52.6221 34.3965C52.2419 34.6048 51.9398 34.8965 51.7158 35.2715C51.4971 35.6465 51.3877 36.0788 51.3877 36.5684V43.3574H48.0596ZM61.9248 43.5918C60.7113 43.5918 59.6618 43.334 58.7764 42.8184C57.8962 42.2975 57.2165 41.5736 56.7373 40.6465C56.2581 39.7142 56.0186 38.6335 56.0186 37.4043C56.0186 36.1647 56.2581 35.0814 56.7373 34.1543C57.2165 33.222 57.8962 32.498 58.7764 31.9824C59.6618 31.4616 60.7113 31.2012 61.9248 31.2012C63.1383 31.2012 64.1852 31.4616 65.0654 31.9824C65.9508 32.498 66.6331 33.222 67.1123 34.1543C67.5915 35.0814 67.8311 36.1647 67.8311 37.4043C67.8311 38.6335 67.5915 39.7142 67.1123 40.6465C66.6331 41.5736 65.9508 42.2975 65.0654 42.8184C64.1852 43.334 63.1383 43.5918 61.9248 43.5918ZM61.9404 41.0137C62.4925 41.0137 62.9535 40.8574 63.3232 40.5449C63.693 40.2272 63.9717 39.7949 64.1592 39.248C64.3519 38.7012 64.4482 38.0788 64.4482 37.3809C64.4482 36.6829 64.3519 36.0605 64.1592 35.5137C63.9717 34.9668 63.693 34.5345 63.3232 34.2168C62.9535 33.8991 62.4925 33.7402 61.9404 33.7402C61.3831 33.7402 60.9144 33.8991 60.5342 34.2168C60.1592 34.5345 59.8753 34.9668 59.6826 35.5137C59.4951 36.0605 59.4014 36.6829 59.4014 37.3809C59.4014 38.0788 59.4951 38.7012 59.6826 39.248C59.8753 39.7949 60.1592 40.2272 60.5342 40.5449C60.9144 40.8574 61.3831 41.0137 61.9404 41.0137ZM75.4014 48.1074C74.3232 48.1074 73.3988 47.959 72.6279 47.6621C71.8623 47.3704 71.2529 46.972 70.7998 46.4668C70.3467 45.9616 70.0524 45.3939 69.917 44.7637L72.9951 44.3496C73.0889 44.5892 73.2373 44.8132 73.4404 45.0215C73.6436 45.2298 73.9118 45.3965 74.2451 45.5215C74.5837 45.6517 74.9951 45.7168 75.4795 45.7168C76.2035 45.7168 76.7998 45.5397 77.2686 45.1855C77.7425 44.8366 77.9795 44.2507 77.9795 43.4277V41.2324H77.8389C77.693 41.5658 77.4743 41.8809 77.1826 42.1777C76.891 42.4746 76.516 42.7168 76.0576 42.9043C75.5993 43.0918 75.0524 43.1855 74.417 43.1855C73.516 43.1855 72.6956 42.9772 71.9561 42.5605C71.2217 42.1387 70.6357 41.4954 70.1982 40.6309C69.766 39.7611 69.5498 38.6621 69.5498 37.334C69.5498 35.9746 69.7712 34.8392 70.2139 33.9277C70.6566 33.0163 71.2451 32.334 71.9795 31.8809C72.7191 31.4277 73.529 31.2012 74.4092 31.2012C75.0811 31.2012 75.6436 31.3158 76.0967 31.5449C76.5498 31.7689 76.9144 32.0501 77.1904 32.3887C77.4717 32.722 77.6878 33.0501 77.8389 33.373H77.9639V31.3574H81.2686V43.4746C81.2686 44.4954 81.0186 45.3496 80.5186 46.0371C80.0186 46.7246 79.3258 47.2402 78.4404 47.584C77.5602 47.9329 76.5472 48.1074 75.4014 48.1074ZM75.4717 40.6855C76.0081 40.6855 76.4613 40.5527 76.8311 40.2871C77.2061 40.0163 77.4925 39.6309 77.6904 39.1309C77.8936 38.6257 77.9951 38.0215 77.9951 37.3184C77.9951 36.6152 77.8962 36.0059 77.6982 35.4902C77.5003 34.9694 77.2139 34.5658 76.8389 34.2793C76.4639 33.9928 76.0081 33.8496 75.4717 33.8496C74.9248 33.8496 74.4639 33.998 74.0889 34.2949C73.7139 34.5866 73.43 34.9928 73.2373 35.5137C73.0446 36.0345 72.9482 36.6361 72.9482 37.3184C72.9482 38.0111 73.0446 38.61 73.2373 39.1152C73.4352 39.6152 73.7191 40.0033 74.0889 40.2793C74.4639 40.5501 74.9248 40.6855 75.4717 40.6855ZM83.917 43.3574V31.3574H87.1436V33.4512H87.2686C87.4873 32.7064 87.8545 32.1439 88.3701 31.7637C88.8857 31.3783 89.4795 31.1855 90.1514 31.1855C90.318 31.1855 90.4977 31.196 90.6904 31.2168C90.8831 31.2376 91.0524 31.2663 91.1982 31.3027V34.2559C91.042 34.209 90.8258 34.1673 90.5498 34.1309C90.2738 34.0944 90.0212 34.0762 89.792 34.0762C89.3024 34.0762 88.8649 34.1829 88.4795 34.3965C88.0993 34.6048 87.7972 34.8965 87.5732 35.2715C87.3545 35.6465 87.2451 36.0788 87.2451 36.5684V43.3574H83.917ZM97.8291 43.5918C96.5947 43.5918 95.5322 43.3418 94.6416 42.8418C93.7562 42.3366 93.0739 41.623 92.5947 40.7012C92.1156 39.7741 91.876 38.6777 91.876 37.4121C91.876 36.1777 92.1156 35.0944 92.5947 34.1621C93.0739 33.2298 93.7484 32.5033 94.6182 31.9824C95.4932 31.4616 96.5192 31.2012 97.6963 31.2012C98.488 31.2012 99.2249 31.3288 99.9072 31.584C100.595 31.834 101.194 32.2116 101.704 32.7168C102.22 33.222 102.621 33.8574 102.907 34.623C103.194 35.3835 103.337 36.2741 103.337 37.2949V38.209H93.2041V36.1465H100.204C100.204 35.6673 100.1 35.2428 99.8916 34.873C99.6833 34.5033 99.3942 34.2142 99.0244 34.0059C98.6598 33.7923 98.2354 33.6855 97.751 33.6855C97.2458 33.6855 96.7979 33.8027 96.4072 34.0371C96.0218 34.2663 95.7197 34.5762 95.501 34.9668C95.2822 35.3522 95.1702 35.7819 95.165 36.2559V38.2168C95.165 38.8105 95.2744 39.3236 95.4932 39.7559C95.7171 40.1882 96.0322 40.5215 96.4385 40.7559C96.8447 40.9902 97.3265 41.1074 97.8838 41.1074C98.2536 41.1074 98.5921 41.0553 98.8994 40.9512C99.2067 40.847 99.4697 40.6908 99.6885 40.4824C99.9072 40.2741 100.074 40.0189 100.188 39.7168L103.267 39.9199C103.11 40.6595 102.79 41.3053 102.306 41.8574C101.826 42.4043 101.207 42.8314 100.446 43.1387C99.6911 43.4408 98.8187 43.5918 97.8291 43.5918ZM115.493 34.7793L112.446 34.9668C112.394 34.7064 112.282 34.472 112.11 34.2637C111.938 34.0501 111.712 33.8809 111.431 33.7559C111.155 33.6257 110.824 33.5605 110.438 33.5605C109.923 33.5605 109.488 33.6699 109.134 33.8887C108.78 34.1022 108.603 34.3887 108.603 34.748C108.603 35.0345 108.717 35.2767 108.946 35.4746C109.175 35.6725 109.569 35.8314 110.126 35.9512L112.298 36.3887C113.465 36.6283 114.334 37.0137 114.907 37.5449C115.48 38.0762 115.767 38.7741 115.767 39.6387C115.767 40.4251 115.535 41.1152 115.071 41.709C114.613 42.3027 113.983 42.7663 113.181 43.0996C112.384 43.4277 111.465 43.5918 110.423 43.5918C108.834 43.5918 107.569 43.2611 106.626 42.5996C105.688 41.9329 105.139 41.0267 104.978 39.8809L108.251 39.709C108.35 40.1934 108.59 40.5632 108.97 40.8184C109.35 41.0684 109.837 41.1934 110.431 41.1934C111.014 41.1934 111.483 41.0814 111.837 40.8574C112.196 40.6283 112.379 40.334 112.384 39.9746C112.379 39.6725 112.251 39.4251 112.001 39.2324C111.751 39.0345 111.366 38.8835 110.845 38.7793L108.767 38.3652C107.595 38.1309 106.722 37.7246 106.149 37.1465C105.582 36.5684 105.298 35.8314 105.298 34.9355C105.298 34.1647 105.506 33.5007 105.923 32.9434C106.345 32.3861 106.936 31.9564 107.696 31.6543C108.462 31.3522 109.358 31.2012 110.384 31.2012C111.899 31.2012 113.092 31.5215 113.962 32.1621C114.837 32.8027 115.347 33.6751 115.493 34.7793ZM127.847 34.7793L124.8 34.9668C124.748 34.7064 124.636 34.472 124.464 34.2637C124.292 34.0501 124.065 33.8809 123.784 33.7559C123.508 33.6257 123.177 33.5605 122.792 33.5605C122.276 33.5605 121.841 33.6699 121.487 33.8887C121.133 34.1022 120.956 34.3887 120.956 34.748C120.956 35.0345 121.071 35.2767 121.3 35.4746C121.529 35.6725 121.922 35.8314 122.479 35.9512L124.651 36.3887C125.818 36.6283 126.688 37.0137 127.261 37.5449C127.834 38.0762 128.12 38.7741 128.12 39.6387C128.12 40.4251 127.888 41.1152 127.425 41.709C126.966 42.3027 126.336 42.7663 125.534 43.0996C124.737 43.4277 123.818 43.5918 122.776 43.5918C121.188 43.5918 119.922 43.2611 118.979 42.5996C118.042 41.9329 117.493 41.0267 117.331 39.8809L120.604 39.709C120.703 40.1934 120.943 40.5632 121.323 40.8184C121.703 41.0684 122.19 41.1934 122.784 41.1934C123.368 41.1934 123.836 41.0814 124.19 40.8574C124.55 40.6283 124.732 40.334 124.737 39.9746C124.732 39.6725 124.604 39.4251 124.354 39.2324C124.104 39.0345 123.719 38.8835 123.198 38.7793L121.12 38.3652C119.948 38.1309 119.076 37.7246 118.503 37.1465C117.935 36.5684 117.651 35.8314 117.651 34.9355C117.651 34.1647 117.86 33.5007 118.276 32.9434C118.698 32.3861 119.289 31.9564 120.05 31.6543C120.815 31.3522 121.711 31.2012 122.737 31.2012C124.253 31.2012 125.446 31.5215 126.315 32.1621C127.19 32.8027 127.701 33.6751 127.847 34.7793ZM40.2842 49.3574H43.6279V60.5137C43.6279 61.5449 43.3962 62.4408 42.9326 63.2012C42.4743 63.9616 41.8363 64.5475 41.0186 64.959C40.2008 65.3704 39.2503 65.5762 38.167 65.5762C37.2035 65.5762 36.3285 65.4069 35.542 65.0684C34.7607 64.7246 34.141 64.2038 33.6826 63.5059C33.2243 62.8027 32.9977 61.9199 33.0029 60.8574H36.3701C36.3805 61.2793 36.4665 61.6413 36.6279 61.9434C36.7946 62.2402 37.0212 62.4694 37.3076 62.6309C37.5993 62.7871 37.943 62.8652 38.3389 62.8652C38.7555 62.8652 39.1071 62.7767 39.3936 62.5996C39.6852 62.4173 39.9066 62.1517 40.0576 61.8027C40.2087 61.4538 40.2842 61.0241 40.2842 60.5137V49.3574ZM51.7842 65.5918C50.5706 65.5918 49.5212 65.334 48.6357 64.8184C47.7555 64.2975 47.0758 63.5736 46.5967 62.6465C46.1175 61.7142 45.8779 60.6335 45.8779 59.4043C45.8779 58.1647 46.1175 57.0814 46.5967 56.1543C47.0758 55.222 47.7555 54.498 48.6357 53.9824C49.5212 53.4616 50.5706 53.2012 51.7842 53.2012C52.9977 53.2012 54.0446 53.4616 54.9248 53.9824C55.8102 54.498 56.4925 55.222 56.9717 56.1543C57.4508 57.0814 57.6904 58.1647 57.6904 59.4043C57.6904 60.6335 57.4508 61.7142 56.9717 62.6465C56.4925 63.5736 55.8102 64.2975 54.9248 64.8184C54.0446 65.334 52.9977 65.5918 51.7842 65.5918ZM51.7998 63.0137C52.3519 63.0137 52.8128 62.8574 53.1826 62.5449C53.5524 62.2272 53.8311 61.7949 54.0186 61.248C54.2113 60.7012 54.3076 60.0788 54.3076 59.3809C54.3076 58.6829 54.2113 58.0605 54.0186 57.5137C53.8311 56.9668 53.5524 56.5345 53.1826 56.2168C52.8128 55.8991 52.3519 55.7402 51.7998 55.7402C51.2425 55.7402 50.7738 55.8991 50.3936 56.2168C50.0186 56.5345 49.7347 56.9668 49.542 57.5137C49.3545 58.0605 49.2607 58.6829 49.2607 59.3809C49.2607 60.0788 49.3545 60.7012 49.542 61.248C49.7347 61.7949 50.0186 62.2272 50.3936 62.5449C50.7738 62.8574 51.2425 63.0137 51.7998 63.0137ZM67.5498 60.248V53.3574H70.8779V65.3574H67.6826V63.1777H67.5576C67.2868 63.8809 66.8363 64.446 66.2061 64.873C65.5811 65.3001 64.818 65.5137 63.917 65.5137C63.1149 65.5137 62.4092 65.3314 61.7998 64.9668C61.1904 64.6022 60.7139 64.084 60.3701 63.4121C60.0316 62.7402 59.8597 61.9355 59.8545 60.998V53.3574H63.1826V60.4043C63.1878 61.1126 63.3779 61.6725 63.7529 62.084C64.1279 62.4954 64.6305 62.7012 65.2607 62.7012C65.6618 62.7012 66.0368 62.61 66.3857 62.4277C66.7347 62.2402 67.016 61.9642 67.2295 61.5996C67.4482 61.235 67.555 60.7845 67.5498 60.248ZM73.54 65.3574V53.3574H76.7666V55.4512H76.8916C77.1104 54.7064 77.4775 54.1439 77.9932 53.7637C78.5088 53.3783 79.1025 53.1855 79.7744 53.1855C79.9411 53.1855 80.1208 53.196 80.3135 53.2168C80.5062 53.2376 80.6755 53.2663 80.8213 53.3027V56.2559C80.665 56.209 80.4489 56.1673 80.1729 56.1309C79.8968 56.0944 79.6442 56.0762 79.415 56.0762C78.9255 56.0762 78.488 56.1829 78.1025 56.3965C77.7223 56.6048 77.4202 56.8965 77.1963 57.2715C76.9775 57.6465 76.8682 58.0788 76.8682 58.5684V65.3574H73.54ZM85.8701 58.4199V65.3574H82.542V53.3574H85.7139V55.4746H85.8545C86.1201 54.7767 86.5654 54.2246 87.1904 53.8184C87.8154 53.4069 88.5732 53.2012 89.4639 53.2012C90.2972 53.2012 91.0238 53.3835 91.6436 53.748C92.2633 54.1126 92.7451 54.6335 93.0889 55.3105C93.4326 55.9824 93.6045 56.7845 93.6045 57.7168V65.3574H90.2764V58.3105C90.2816 57.5762 90.0941 57.0033 89.7139 56.5918C89.3337 56.1751 88.8102 55.9668 88.1436 55.9668C87.6956 55.9668 87.2998 56.0632 86.9561 56.2559C86.6175 56.4486 86.3519 56.7298 86.1592 57.0996C85.9717 57.4642 85.8753 57.9043 85.8701 58.4199ZM99.6494 65.584C98.8838 65.584 98.2015 65.4512 97.6025 65.1855C97.0036 64.9147 96.5296 64.5163 96.1807 63.9902C95.8369 63.459 95.665 62.7975 95.665 62.0059C95.665 61.3392 95.7874 60.7793 96.0322 60.3262C96.277 59.873 96.6104 59.5085 97.0322 59.2324C97.4541 58.9564 97.9333 58.748 98.4697 58.6074C99.0114 58.4668 99.5791 58.3678 100.173 58.3105C100.871 58.2376 101.433 58.1699 101.86 58.1074C102.287 58.0397 102.597 57.9408 102.79 57.8105C102.983 57.6803 103.079 57.4876 103.079 57.2324V57.1855C103.079 56.6908 102.923 56.3079 102.61 56.0371C102.303 55.7663 101.866 55.6309 101.298 55.6309C100.699 55.6309 100.222 55.7637 99.8682 56.0293C99.514 56.2897 99.2796 56.6178 99.165 57.0137L96.0869 56.7637C96.2432 56.0345 96.5505 55.4043 97.0088 54.873C97.4671 54.3366 98.0583 53.9251 98.7822 53.6387C99.5114 53.347 100.355 53.2012 101.313 53.2012C101.98 53.2012 102.618 53.2793 103.228 53.4355C103.842 53.5918 104.386 53.834 104.86 54.1621C105.34 54.4902 105.717 54.9121 105.993 55.4277C106.269 55.9382 106.407 56.5501 106.407 57.2637V65.3574H103.251V63.6934H103.157C102.965 64.0684 102.707 64.3991 102.384 64.6855C102.061 64.9668 101.673 65.1882 101.22 65.3496C100.767 65.5059 100.243 65.584 99.6494 65.584ZM100.603 63.2871C101.092 63.2871 101.524 63.1908 101.899 62.998C102.274 62.8001 102.569 62.5345 102.782 62.2012C102.996 61.8678 103.103 61.4902 103.103 61.0684V59.7949C102.998 59.8626 102.855 59.9251 102.673 59.9824C102.496 60.0345 102.295 60.084 102.071 60.1309C101.847 60.1725 101.623 60.2116 101.399 60.248C101.175 60.2793 100.972 60.3079 100.79 60.334C100.399 60.3913 100.058 60.4824 99.7666 60.6074C99.4749 60.7324 99.2484 60.9017 99.0869 61.1152C98.9255 61.3236 98.8447 61.584 98.8447 61.8965C98.8447 62.3496 99.0088 62.696 99.3369 62.9355C99.6702 63.1699 100.092 63.2871 100.603 63.2871ZM112.317 49.3574V65.3574H108.989V49.3574H112.317Z" fill="black"/>
<rect x="32" y="151" width="120.79" height="28" rx="14" fill="#FDF0F0"/>
<path fill-rule="evenodd" clip-rule="evenodd" d="M45.729 170.397H50.5226C50.8533 170.397 51.1217 170.129 51.1217 169.798C51.1217 169.467 50.8533 169.198 50.5226 169.198H45.729C45.3983 169.198 45.1299 169.467 45.1299 169.798C45.1299 170.129 45.3983 170.397 45.729 170.397ZM52.2685 166.397L51.7323 169.081C51.6934 169.277 51.7545 169.481 51.8964 169.622C52.0379 169.764 52.241 169.825 52.4376 169.786L55.1189 169.25L52.2685 166.397ZM59.8099 164.948L56.1632 168.598L52.9192 165.352L56.5659 161.702L59.8099 164.948ZM57.4132 160.854L60.6572 164.101L61.7316 163.025C61.9658 162.791 61.9658 162.411 61.7316 162.177L59.3347 159.778C59.101 159.544 58.7211 159.544 58.4874 159.778L57.4132 160.854Z" fill="#DB0000"/>
<path d="M78.2444 163.065C78.1674 162.815 78.0612 162.592 77.9258 162.395C77.7935 162.195 77.6334 162.024 77.4457 161.883C77.2611 161.741 77.0487 161.635 76.8086 161.564C76.5686 161.49 76.307 161.453 76.0238 161.453C75.516 161.453 75.0636 161.581 74.6666 161.837C74.2696 162.092 73.9572 162.468 73.7294 162.963C73.5048 163.455 73.3924 164.056 73.3924 164.763C73.3924 165.478 73.5048 166.082 73.7294 166.578C73.9541 167.073 74.2665 167.45 74.6666 167.709C75.0667 167.964 75.5314 168.092 76.0608 168.092C76.5409 168.092 76.9564 168 77.3072 167.815C77.6611 167.63 77.9335 167.369 78.1243 167.03C78.3151 166.689 78.4106 166.288 78.4106 165.83L78.7983 165.89H76.2316V164.551H80.0679V165.687C80.0679 166.496 79.8955 167.196 79.5508 167.787C79.2061 168.378 78.7322 168.834 78.129 169.154C77.5257 169.471 76.8333 169.629 76.0515 169.629C75.1806 169.629 74.4158 169.434 73.7571 169.043C73.1016 168.649 72.5892 168.09 72.2199 167.367C71.8536 166.641 71.6705 165.779 71.6705 164.782C71.6705 164.019 71.7782 163.337 71.9937 162.737C72.2122 162.137 72.5169 161.627 72.9077 161.209C73.2986 160.787 73.7571 160.467 74.2834 160.249C74.8097 160.027 75.3821 159.916 76.0008 159.916C76.524 159.916 77.0118 159.993 77.4642 160.147C77.9166 160.298 78.3182 160.513 78.6691 160.793C79.023 161.073 79.3138 161.406 79.5416 161.79C79.7693 162.175 79.9186 162.6 79.9894 163.065H78.2444ZM84.7432 169.638C84.0507 169.638 83.4506 169.486 82.9428 169.181C82.435 168.877 82.041 168.451 81.761 167.903C81.484 167.355 81.3455 166.715 81.3455 165.982C81.3455 165.25 81.484 164.608 81.761 164.057C82.041 163.506 82.435 163.078 82.9428 162.774C83.4506 162.469 84.0507 162.317 84.7432 162.317C85.4357 162.317 86.0358 162.469 86.5436 162.774C87.0514 163.078 87.4438 163.506 87.7208 164.057C88.0009 164.608 88.1409 165.25 88.1409 165.982C88.1409 166.715 88.0009 167.355 87.7208 167.903C87.4438 168.451 87.0514 168.877 86.5436 169.181C86.0358 169.486 85.4357 169.638 84.7432 169.638ZM84.7524 168.3C85.1279 168.3 85.4418 168.197 85.6942 167.99C85.9466 167.781 86.1343 167.501 86.2574 167.15C86.3836 166.799 86.4467 166.408 86.4467 165.978C86.4467 165.544 86.3836 165.151 86.2574 164.8C86.1343 164.446 85.9466 164.165 85.6942 163.956C85.4418 163.746 85.1279 163.642 84.7524 163.642C84.3677 163.642 84.0477 163.746 83.7922 163.956C83.5398 164.165 83.3506 164.446 83.2244 164.8C83.1013 165.151 83.0397 165.544 83.0397 165.978C83.0397 166.408 83.1013 166.799 83.2244 167.15C83.3506 167.501 83.5398 167.781 83.7922 167.99C84.0477 168.197 84.3677 168.3 84.7524 168.3ZM96.3248 162.409V163.702H92.2484V162.409H96.3248ZM93.2548 160.71H94.926V167.367C94.926 167.592 94.9599 167.764 95.0276 167.884C95.0984 168.001 95.1907 168.081 95.3046 168.124C95.4184 168.167 95.5446 168.189 95.6831 168.189C95.7877 168.189 95.8832 168.181 95.9693 168.166C96.0586 168.15 96.1263 168.137 96.1725 168.124L96.4541 169.431C96.3648 169.462 96.2371 169.495 96.0709 169.532C95.9078 169.569 95.7077 169.591 95.4707 169.597C95.0522 169.609 94.6752 169.546 94.3397 169.408C94.0042 169.266 93.738 169.048 93.5411 168.752C93.3472 168.457 93.2518 168.087 93.2548 167.644V160.71ZM100.739 169.638C100.047 169.638 99.4467 169.486 98.9389 169.181C98.4311 168.877 98.0371 168.451 97.7571 167.903C97.4801 167.355 97.3416 166.715 97.3416 165.982C97.3416 165.25 97.4801 164.608 97.7571 164.057C98.0371 163.506 98.4311 163.078 98.9389 162.774C99.4467 162.469 100.047 162.317 100.739 162.317C101.432 162.317 102.032 162.469 102.54 162.774C103.048 163.078 103.44 163.506 103.717 164.057C103.997 164.608 104.137 165.25 104.137 165.982C104.137 166.715 103.997 167.355 103.717 167.903C103.44 168.451 103.048 168.877 102.54 169.181C102.032 169.486 101.432 169.638 100.739 169.638ZM100.749 168.3C101.124 168.3 101.438 168.197 101.69 167.99C101.943 167.781 102.13 167.501 102.254 167.15C102.38 166.799 102.443 166.408 102.443 165.978C102.443 165.544 102.38 165.151 102.254 164.8C102.13 164.446 101.943 164.165 101.69 163.956C101.438 163.746 101.124 163.642 100.749 163.642C100.364 163.642 100.044 163.746 99.7883 163.956C99.5359 164.165 99.3467 164.446 99.2205 164.8C99.0974 165.151 99.0358 165.544 99.0358 165.978C99.0358 166.408 99.0974 166.799 99.2205 167.15C99.3467 167.501 99.5359 167.781 99.7883 167.99C100.044 168.197 100.364 168.3 100.749 168.3ZM108.78 172.159V162.409H110.424V163.582H110.52C110.607 163.409 110.728 163.226 110.885 163.032C111.042 162.835 111.254 162.668 111.522 162.529C111.79 162.388 112.132 162.317 112.547 162.317C113.095 162.317 113.589 162.457 114.029 162.737C114.472 163.014 114.823 163.425 115.082 163.969C115.343 164.511 115.474 165.176 115.474 165.964C115.474 166.742 115.346 167.404 115.091 167.949C114.835 168.494 114.488 168.909 114.047 169.195C113.607 169.482 113.109 169.625 112.552 169.625C112.145 169.625 111.808 169.557 111.541 169.422C111.273 169.286 111.058 169.123 110.894 168.932C110.734 168.738 110.61 168.555 110.52 168.383H110.451V172.159H108.78ZM110.419 165.955C110.419 166.413 110.484 166.815 110.613 167.159C110.745 167.504 110.934 167.773 111.181 167.967C111.43 168.158 111.732 168.254 112.085 168.254C112.455 168.254 112.764 168.155 113.013 167.958C113.263 167.758 113.45 167.486 113.577 167.141C113.706 166.793 113.77 166.398 113.77 165.955C113.77 165.514 113.707 165.124 113.581 164.782C113.455 164.44 113.267 164.173 113.018 163.979C112.769 163.785 112.458 163.688 112.085 163.688C111.728 163.688 111.425 163.782 111.176 163.969C110.927 164.157 110.737 164.42 110.608 164.759C110.482 165.097 110.419 165.496 110.419 165.955ZM118.946 169.643C118.496 169.643 118.091 169.563 117.731 169.403C117.374 169.24 117.091 169 116.882 168.683C116.676 168.366 116.573 167.975 116.573 167.51C116.573 167.11 116.647 166.779 116.794 166.518C116.942 166.256 117.144 166.047 117.399 165.89C117.654 165.733 117.942 165.614 118.262 165.534C118.585 165.451 118.919 165.391 119.264 165.354C119.68 165.311 120.017 165.273 120.275 165.239C120.534 165.202 120.721 165.147 120.838 165.073C120.958 164.996 121.018 164.877 121.018 164.717V164.69C121.018 164.342 120.915 164.073 120.709 163.882C120.503 163.691 120.206 163.596 119.818 163.596C119.409 163.596 119.084 163.685 118.844 163.863C118.607 164.042 118.447 164.253 118.364 164.496L116.803 164.274C116.927 163.843 117.13 163.483 117.413 163.194C117.696 162.902 118.042 162.683 118.452 162.538C118.861 162.391 119.313 162.317 119.809 162.317C120.15 162.317 120.491 162.357 120.829 162.437C121.168 162.517 121.477 162.649 121.757 162.834C122.037 163.015 122.262 163.263 122.431 163.577C122.603 163.891 122.689 164.283 122.689 164.754V169.5H121.083V168.526H121.028C120.926 168.723 120.783 168.908 120.598 169.08C120.417 169.249 120.187 169.386 119.91 169.491C119.636 169.592 119.315 169.643 118.946 169.643ZM119.379 168.415C119.715 168.415 120.006 168.349 120.252 168.217C120.498 168.081 120.687 167.903 120.82 167.681C120.955 167.46 121.023 167.218 121.023 166.956V166.121C120.971 166.164 120.881 166.204 120.755 166.241C120.632 166.278 120.494 166.31 120.34 166.338C120.186 166.365 120.033 166.39 119.883 166.412C119.732 166.433 119.601 166.452 119.49 166.467C119.241 166.501 119.018 166.556 118.821 166.633C118.624 166.71 118.468 166.818 118.355 166.956C118.241 167.092 118.184 167.267 118.184 167.483C118.184 167.79 118.296 168.023 118.521 168.18C118.745 168.337 119.032 168.415 119.379 168.415ZM127.454 172.307C126.854 172.307 126.338 172.225 125.907 172.062C125.476 171.902 125.13 171.687 124.868 171.416C124.607 171.145 124.425 170.845 124.324 170.516L125.829 170.151C125.896 170.289 125.995 170.426 126.124 170.562C126.253 170.7 126.427 170.814 126.646 170.903C126.867 170.996 127.146 171.042 127.481 171.042C127.955 171.042 128.348 170.926 128.659 170.696C128.969 170.468 129.125 170.092 129.125 169.569V168.226H129.042C128.956 168.398 128.829 168.575 128.663 168.757C128.5 168.938 128.283 169.091 128.012 169.214C127.745 169.337 127.408 169.398 127.001 169.398C126.457 169.398 125.963 169.271 125.519 169.015C125.079 168.757 124.728 168.372 124.467 167.861C124.208 167.347 124.079 166.704 124.079 165.931C124.079 165.153 124.208 164.496 124.467 163.96C124.728 163.422 125.081 163.014 125.524 162.737C125.967 162.457 126.461 162.317 127.006 162.317C127.421 162.317 127.763 162.388 128.031 162.529C128.302 162.668 128.517 162.835 128.677 163.032C128.837 163.226 128.959 163.409 129.042 163.582H129.134V162.409H130.782V169.615C130.782 170.222 130.638 170.723 130.348 171.12C130.059 171.517 129.663 171.814 129.162 172.011C128.66 172.208 128.091 172.307 127.454 172.307ZM127.468 168.087C127.821 168.087 128.123 168.001 128.372 167.829C128.622 167.656 128.811 167.409 128.94 167.086C129.069 166.762 129.134 166.375 129.134 165.922C129.134 165.476 129.069 165.085 128.94 164.75C128.814 164.414 128.626 164.154 128.377 163.969C128.131 163.782 127.828 163.688 127.468 163.688C127.095 163.688 126.784 163.785 126.535 163.979C126.286 164.173 126.098 164.439 125.972 164.777C125.846 165.113 125.783 165.494 125.783 165.922C125.783 166.356 125.846 166.736 125.972 167.062C126.101 167.386 126.29 167.638 126.54 167.82C126.792 167.998 127.101 168.087 127.468 168.087ZM135.634 169.638C134.923 169.638 134.309 169.491 133.792 169.195C133.278 168.897 132.883 168.475 132.606 167.93C132.329 167.383 132.19 166.738 132.19 165.996C132.19 165.267 132.329 164.627 132.606 164.076C132.886 163.522 133.277 163.091 133.778 162.783C134.28 162.472 134.869 162.317 135.546 162.317C135.983 162.317 136.396 162.388 136.784 162.529C137.174 162.668 137.519 162.883 137.818 163.175C138.119 163.468 138.356 163.84 138.529 164.293C138.701 164.742 138.787 165.277 138.787 165.899V166.412H132.975V165.285H137.185C137.182 164.965 137.113 164.68 136.977 164.431C136.842 164.179 136.653 163.98 136.41 163.836C136.17 163.691 135.89 163.619 135.569 163.619C135.228 163.619 134.928 163.702 134.669 163.868C134.411 164.031 134.209 164.246 134.064 164.514C133.923 164.779 133.851 165.07 133.848 165.387V166.37C133.848 166.782 133.923 167.136 134.074 167.432C134.225 167.724 134.435 167.949 134.706 168.106C134.977 168.26 135.294 168.337 135.657 168.337C135.9 168.337 136.12 168.303 136.317 168.235C136.514 168.164 136.685 168.061 136.83 167.926C136.974 167.79 137.084 167.623 137.158 167.423L138.718 167.598C138.619 168.01 138.432 168.371 138.155 168.678C137.881 168.983 137.53 169.22 137.102 169.389C136.674 169.555 136.185 169.638 135.634 169.638Z" fill="#DB0000"/>
<path d="M33.5316 97.7441V88.2896H36.7262C37.4648 88.2896 38.0711 88.4158 38.5451 88.6681C39.0191 88.9174 39.3699 89.2606 39.5977 89.6976C39.8254 90.1346 39.9393 90.6317 39.9393 91.1887C39.9393 91.7458 39.8254 92.2398 39.5977 92.6706C39.3699 93.1015 39.0206 93.44 38.5497 93.6863C38.0788 93.9294 37.4772 94.051 36.7447 94.051H34.1594V93.0169H36.7077C37.2125 93.0169 37.6187 92.943 37.9265 92.7953C38.2373 92.6475 38.462 92.4383 38.6005 92.1674C38.7421 91.8935 38.8129 91.5673 38.8129 91.1887C38.8129 90.8102 38.7421 90.4793 38.6005 90.1962C38.4589 89.9131 38.2327 89.6945 37.9219 89.5407C37.611 89.3837 37.2002 89.3052 36.6893 89.3052H34.6765V97.7441H33.5316ZM37.9819 93.497L40.3086 97.7441H38.979L36.6893 93.497H37.9819ZM44.5961 97.8919C43.9129 97.8919 43.3235 97.7411 42.828 97.4395C42.3356 97.1348 41.9555 96.71 41.6878 96.1653C41.4231 95.6175 41.2907 94.9804 41.2907 94.2541C41.2907 93.5278 41.4231 92.8876 41.6878 92.3336C41.9555 91.7766 42.3279 91.3426 42.805 91.0318C43.2851 90.7179 43.8452 90.5609 44.4854 90.5609C44.8547 90.5609 45.2194 90.6225 45.5795 90.7456C45.9395 90.8687 46.2673 91.0687 46.5628 91.3457C46.8582 91.6196 47.0937 91.9828 47.2691 92.4352C47.4445 92.8876 47.5322 93.4447 47.5322 94.1064V94.568H42.0663V93.6262H46.4243C46.4243 93.2261 46.3443 92.8691 46.1842 92.5552C46.0273 92.2413 45.8026 91.9935 45.5102 91.812C45.2209 91.6304 44.8793 91.5396 44.4854 91.5396C44.0514 91.5396 43.6759 91.6473 43.3589 91.8627C43.045 92.0751 42.8034 92.3521 42.6341 92.6937C42.4649 93.0353 42.3802 93.4016 42.3802 93.7924V94.4203C42.3802 94.9558 42.4726 95.4097 42.6572 95.7821C42.845 96.1515 43.105 96.4331 43.4374 96.627C43.7698 96.8178 44.156 96.9132 44.5961 96.9132C44.8824 96.9132 45.1409 96.8732 45.3717 96.7931C45.6056 96.71 45.8072 96.5869 45.9765 96.4238C46.1457 96.2576 46.2765 96.0514 46.3689 95.8052L47.4214 96.1007C47.3106 96.4577 47.1244 96.7716 46.8628 97.0424C46.6012 97.3102 46.2781 97.5195 45.8934 97.6703C45.5087 97.818 45.0763 97.8919 44.5961 97.8919ZM52.0702 97.8919C51.4055 97.8919 50.833 97.7349 50.3529 97.421C49.8728 97.1071 49.5035 96.6747 49.2449 96.1238C48.9864 95.5729 48.8572 94.9435 48.8572 94.2356C48.8572 93.5154 48.9895 92.8799 49.2542 92.329C49.5219 91.775 49.8943 91.3426 50.3714 91.0318C50.8515 90.7179 51.4116 90.5609 52.0518 90.5609C52.5503 90.5609 52.9997 90.6532 53.3998 90.8379C53.7999 91.0225 54.1276 91.2811 54.3831 91.6135C54.6385 91.9458 54.797 92.3336 54.8586 92.7768H53.7691C53.686 92.4537 53.5013 92.1674 53.2151 91.9181C52.932 91.6658 52.5503 91.5396 52.0702 91.5396C51.6455 91.5396 51.2731 91.6504 50.953 91.872C50.636 92.0905 50.3883 92.3998 50.2098 92.7999C50.0344 93.1969 49.9466 93.6632 49.9466 94.1987C49.9466 94.7465 50.0328 95.2235 50.2052 95.6298C50.3806 96.036 50.6268 96.3515 50.9438 96.5762C51.2639 96.8008 51.6394 96.9132 52.0702 96.9132C52.3534 96.9132 52.6104 96.8639 52.8412 96.7654C53.072 96.667 53.2674 96.5254 53.4275 96.3407C53.5875 96.1561 53.7014 95.9345 53.7691 95.676H54.8586C54.797 96.0945 54.6447 96.4715 54.4015 96.807C54.1615 97.1394 53.843 97.4041 53.4459 97.601C53.052 97.7949 52.5934 97.8919 52.0702 97.8919ZM59.3319 97.8919C58.6918 97.8919 58.1301 97.7395 57.6469 97.4348C57.1668 97.1301 56.7913 96.7039 56.5205 96.1561C56.2528 95.6083 56.1189 94.9681 56.1189 94.2356C56.1189 93.497 56.2528 92.8522 56.5205 92.3013C56.7913 91.7504 57.1668 91.3226 57.6469 91.0179C58.1301 90.7132 58.6918 90.5609 59.3319 90.5609C59.9721 90.5609 60.5322 90.7132 61.0123 91.0179C61.4955 91.3226 61.871 91.7504 62.1388 92.3013C62.4096 92.8522 62.545 93.497 62.545 94.2356C62.545 94.9681 62.4096 95.6083 62.1388 96.1561C61.871 96.7039 61.4955 97.1301 61.0123 97.4348C60.5322 97.7395 59.9721 97.8919 59.3319 97.8919ZM59.3319 96.9132C59.8182 96.9132 60.2183 96.7885 60.5322 96.5392C60.8461 96.29 61.0785 95.9622 61.2293 95.5559C61.3801 95.1497 61.4555 94.7096 61.4555 94.2356C61.4555 93.7617 61.3801 93.32 61.2293 92.9107C61.0785 92.5014 60.8461 92.1705 60.5322 91.9181C60.2183 91.6658 59.8182 91.5396 59.3319 91.5396C58.8457 91.5396 58.4456 91.6658 58.1317 91.9181C57.8177 92.1705 57.5854 92.5014 57.4346 92.9107C57.2838 93.32 57.2084 93.7617 57.2084 94.2356C57.2084 94.7096 57.2838 95.1497 57.4346 95.5559C57.5854 95.9622 57.8177 96.29 58.1317 96.5392C58.4456 96.7885 58.8457 96.9132 59.3319 96.9132ZM64.2081 97.7441V90.6532H65.2607V91.7243H65.3345C65.4638 91.3734 65.6977 91.0887 66.0362 90.8702C66.3748 90.6517 66.7564 90.5424 67.1811 90.5424C67.2611 90.5424 67.3612 90.544 67.4812 90.5471C67.6012 90.5501 67.692 90.5547 67.7536 90.5609V91.6689C67.7166 91.6596 67.632 91.6458 67.4996 91.6273C67.3704 91.6058 67.2334 91.595 67.0888 91.595C66.7441 91.595 66.4363 91.6673 66.1655 91.812C65.8977 91.9535 65.6854 92.1505 65.5284 92.4029C65.3745 92.6522 65.2976 92.9368 65.2976 93.2569V97.7441H64.2081ZM71.5067 97.8919C70.9158 97.8919 70.3942 97.7426 69.9418 97.4441C69.4893 97.1425 69.1354 96.7177 68.88 96.1699C68.6245 95.619 68.4968 94.9681 68.4968 94.2172C68.4968 93.4724 68.6245 92.8261 68.88 92.2782C69.1354 91.7304 69.4909 91.3072 69.9464 91.0087C70.4019 90.7102 70.9281 90.5609 71.5252 90.5609C71.9869 90.5609 72.3516 90.6378 72.6193 90.7917C72.8902 90.9425 73.0964 91.1149 73.2379 91.3088C73.3826 91.4996 73.4949 91.6565 73.5749 91.7797H73.6673V88.2896H74.7567V97.7441H73.7042V96.6547H73.5749C73.4949 96.7839 73.381 96.947 73.2333 97.144C73.0856 97.3379 72.8748 97.5118 72.6009 97.6657C72.3269 97.8165 71.9622 97.8919 71.5067 97.8919ZM71.6545 96.9132C72.0915 96.9132 72.4608 96.7993 72.7624 96.5716C73.064 96.3407 73.2933 96.0222 73.4503 95.6159C73.6072 95.2066 73.6857 94.7342 73.6857 94.1987C73.6857 93.6693 73.6088 93.2061 73.4549 92.8091C73.301 92.409 73.0733 92.0982 72.7717 91.8766C72.4701 91.6519 72.0977 91.5396 71.6545 91.5396C71.1928 91.5396 70.8081 91.6581 70.5004 91.8951C70.1957 92.129 69.9664 92.4475 69.8125 92.8507C69.6617 93.2508 69.5863 93.7001 69.5863 94.1987C69.5863 94.7034 69.6632 95.162 69.8171 95.5744C69.9741 95.9837 70.2049 96.31 70.5096 96.5531C70.8174 96.7931 71.199 96.9132 71.6545 96.9132ZM80.5597 97.7441V90.6532H81.6491V97.7441H80.5597ZM81.1136 89.4714C80.9013 89.4714 80.7182 89.3991 80.5643 89.2544C80.4135 89.1098 80.3381 88.9359 80.3381 88.7328C80.3381 88.5297 80.4135 88.3558 80.5643 88.2111C80.7182 88.0665 80.9013 87.9941 81.1136 87.9941C81.326 87.9941 81.5076 88.0665 81.6584 88.2111C81.8123 88.3558 81.8892 88.5297 81.8892 88.7328C81.8892 88.9359 81.8123 89.1098 81.6584 89.2544C81.5076 89.3991 81.326 89.4714 81.1136 89.4714ZM83.6446 97.7441V90.6532H84.6972V91.7612H84.7895C84.9372 91.3826 85.1758 91.0887 85.5051 90.8794C85.8344 90.6671 86.2298 90.5609 86.6915 90.5609C87.1593 90.5609 87.5486 90.6671 87.8595 90.8794C88.1734 91.0887 88.4181 91.3826 88.5935 91.7612H88.6673C88.8489 91.3949 89.1213 91.1041 89.4845 90.8887C89.8476 90.6702 90.2831 90.5609 90.7909 90.5609C91.4249 90.5609 91.9435 90.7594 92.3467 91.1564C92.7499 91.5504 92.9514 92.1644 92.9514 92.9984V97.7441H91.8619V92.9984C91.8619 92.4752 91.7188 92.1013 91.4326 91.8766C91.1464 91.6519 90.8094 91.5396 90.4216 91.5396C89.923 91.5396 89.5368 91.6904 89.2629 91.992C88.989 92.2905 88.852 92.6691 88.852 93.1277V97.7441H87.7441V92.8876C87.7441 92.4844 87.6133 92.1597 87.3517 91.9135C87.0901 91.6642 86.753 91.5396 86.3406 91.5396C86.0575 91.5396 85.7928 91.615 85.5466 91.7658C85.3035 91.9166 85.1065 92.1259 84.9557 92.3936C84.808 92.6583 84.7341 92.9645 84.7341 93.3123V97.7441H83.6446ZM94.9434 100.403V90.6532H95.996V91.7797H96.1253C96.2053 91.6565 96.3161 91.4996 96.4577 91.3088C96.6023 91.1149 96.8085 90.9425 97.0763 90.7917C97.3471 90.6378 97.7133 90.5609 98.175 90.5609C98.772 90.5609 99.2983 90.7102 99.7538 91.0087C100.209 91.3072 100.565 91.7304 100.82 92.2782C101.076 92.8261 101.203 93.4724 101.203 94.2172C101.203 94.9681 101.076 95.619 100.82 96.1699C100.565 96.7177 100.211 97.1425 99.7584 97.4441C99.306 97.7426 98.7844 97.8919 98.1934 97.8919C97.738 97.8919 97.3733 97.8165 97.0993 97.6657C96.8254 97.5118 96.6146 97.3379 96.4669 97.144C96.3192 96.947 96.2053 96.7839 96.1253 96.6547H96.0329V100.403H94.9434ZM96.0145 94.1987C96.0145 94.7342 96.093 95.2066 96.2499 95.6159C96.4069 96.0222 96.6362 96.3407 96.9378 96.5716C97.2394 96.7993 97.6087 96.9132 98.0457 96.9132C98.5012 96.9132 98.8813 96.7931 99.186 96.5531C99.4938 96.31 99.7246 95.9837 99.8785 95.5744C100.035 95.162 100.114 94.7034 100.114 94.1987C100.114 93.7001 100.037 93.2508 99.8831 92.8507C99.7323 92.4475 99.503 92.129 99.1952 91.8951C98.8905 91.6581 98.5074 91.5396 98.0457 91.5396C97.6025 91.5396 97.2301 91.6519 96.9285 91.8766C96.6269 92.0982 96.3992 92.409 96.2453 92.8091C96.0914 93.2061 96.0145 93.6693 96.0145 94.1987ZM105.746 97.8919C105.106 97.8919 104.544 97.7395 104.061 97.4348C103.581 97.1301 103.205 96.7039 102.935 96.1561C102.667 95.6083 102.533 94.9681 102.533 94.2356C102.533 93.497 102.667 92.8522 102.935 92.3013C103.205 91.7504 103.581 91.3226 104.061 91.0179C104.544 90.7132 105.106 90.5609 105.746 90.5609C106.386 90.5609 106.946 90.7132 107.426 91.0179C107.91 91.3226 108.285 91.7504 108.553 92.3013C108.824 92.8522 108.959 93.497 108.959 94.2356C108.959 94.9681 108.824 95.6083 108.553 96.1561C108.285 96.7039 107.91 97.1301 107.426 97.4348C106.946 97.7395 106.386 97.8919 105.746 97.8919ZM105.746 96.9132C106.232 96.9132 106.632 96.7885 106.946 96.5392C107.26 96.29 107.493 95.9622 107.643 95.5559C107.794 95.1497 107.87 94.7096 107.87 94.2356C107.87 93.7617 107.794 93.32 107.643 92.9107C107.493 92.5014 107.26 92.1705 106.946 91.9181C106.632 91.6658 106.232 91.5396 105.746 91.5396C105.26 91.5396 104.86 91.6658 104.546 91.9181C104.232 92.1705 103.999 92.5014 103.849 92.9107C103.698 93.32 103.622 93.7617 103.622 94.2356C103.622 94.7096 103.698 95.1497 103.849 95.5559C103.999 95.9622 104.232 96.29 104.546 96.5392C104.86 96.7885 105.26 96.9132 105.746 96.9132ZM110.622 97.7441V90.6532H111.675V91.7243H111.749C111.878 91.3734 112.112 91.0887 112.45 90.8702C112.789 90.6517 113.17 90.5424 113.595 90.5424C113.675 90.5424 113.775 90.544 113.895 90.5471C114.015 90.5501 114.106 90.5547 114.168 90.5609V91.6689C114.131 91.6596 114.046 91.6458 113.914 91.6273C113.784 91.6058 113.647 91.595 113.503 91.595C113.158 91.595 112.85 91.6673 112.58 91.812C112.312 91.9535 112.099 92.1505 111.942 92.4029C111.789 92.6522 111.712 92.9368 111.712 93.2569V97.7441H110.622ZM118.987 90.6532V91.5765H115.312V90.6532H118.987ZM116.384 88.9544H117.473V95.7129C117.473 96.0207 117.518 96.2515 117.607 96.4054C117.699 96.5562 117.816 96.6577 117.958 96.71C118.102 96.7593 118.255 96.7839 118.415 96.7839C118.535 96.7839 118.633 96.7778 118.71 96.7654C118.787 96.7501 118.849 96.7377 118.895 96.7285L119.116 97.7072C119.043 97.7349 118.94 97.7626 118.807 97.7903C118.675 97.8211 118.507 97.8365 118.304 97.8365C117.996 97.8365 117.695 97.7703 117.399 97.638C117.107 97.5056 116.864 97.304 116.67 97.0332C116.479 96.7624 116.384 96.4208 116.384 96.0083V88.9544ZM122.713 97.9103C122.263 97.9103 121.856 97.8257 121.489 97.6564C121.123 97.4841 120.832 97.2363 120.617 96.9132C120.401 96.5869 120.294 96.193 120.294 95.7314C120.294 95.3251 120.374 94.9958 120.534 94.7434C120.694 94.488 120.908 94.2879 121.175 94.1433C121.443 93.9986 121.739 93.8909 122.062 93.8201C122.388 93.7463 122.716 93.6878 123.045 93.6447C123.476 93.5893 123.825 93.5478 124.093 93.5201C124.364 93.4893 124.561 93.4385 124.684 93.3677C124.81 93.2969 124.873 93.1738 124.873 92.9984V92.9615C124.873 92.506 124.749 92.152 124.499 91.8997C124.253 91.6473 123.879 91.5211 123.377 91.5211C122.857 91.5211 122.45 91.635 122.154 91.8627C121.859 92.0905 121.651 92.3336 121.531 92.5922L120.497 92.2228C120.681 91.792 120.928 91.4565 121.235 91.2164C121.546 90.9733 121.885 90.804 122.251 90.7086C122.62 90.6101 122.984 90.5609 123.341 90.5609C123.568 90.5609 123.83 90.5886 124.125 90.644C124.424 90.6963 124.712 90.8056 124.989 90.9718C125.269 91.138 125.501 91.3888 125.686 91.7243C125.87 92.0597 125.963 92.5091 125.963 93.0723V97.7441H124.873V96.7839H124.818C124.744 96.9378 124.621 97.1025 124.449 97.2779C124.276 97.4533 124.047 97.6026 123.761 97.7257C123.474 97.8488 123.125 97.9103 122.713 97.9103ZM122.879 96.9316C123.31 96.9316 123.673 96.847 123.968 96.6777C124.267 96.5085 124.492 96.29 124.642 96.0222C124.796 95.7544 124.873 95.4728 124.873 95.1774V94.1802C124.827 94.2356 124.725 94.2864 124.569 94.3326C124.415 94.3757 124.236 94.4141 124.033 94.448C123.833 94.4788 123.638 94.5065 123.447 94.5311C123.259 94.5526 123.107 94.5711 122.99 94.5865C122.707 94.6234 122.442 94.6834 122.196 94.7665C121.953 94.8465 121.756 94.9681 121.605 95.1312C121.457 95.2913 121.383 95.5098 121.383 95.7868C121.383 96.1653 121.523 96.4515 121.803 96.6454C122.086 96.8362 122.445 96.9316 122.879 96.9316ZM129.041 93.4785V97.7441H127.951V90.6532H129.004V91.7612H129.096C129.262 91.4011 129.515 91.1118 129.853 90.8933C130.192 90.6717 130.629 90.5609 131.164 90.5609C131.644 90.5609 132.065 90.6594 132.425 90.8564C132.785 91.0502 133.065 91.3457 133.265 91.7427C133.465 92.1367 133.565 92.6352 133.565 93.2385V97.7441H132.475V93.3123C132.475 92.7553 132.331 92.3213 132.041 92.0105C131.752 91.6966 131.355 91.5396 130.85 91.5396C130.503 91.5396 130.192 91.615 129.918 91.7658C129.647 91.9166 129.433 92.1367 129.276 92.426C129.119 92.7153 129.041 93.0661 129.041 93.4785ZM138.64 90.6532V91.5765H134.965V90.6532H138.64ZM136.036 88.9544H137.125V95.7129C137.125 96.0207 137.17 96.2515 137.259 96.4054C137.352 96.5562 137.469 96.6577 137.61 96.71C137.755 96.7593 137.907 96.7839 138.067 96.7839C138.187 96.7839 138.286 96.7778 138.363 96.7654C138.44 96.7501 138.501 96.7377 138.547 96.7285L138.769 97.7072C138.695 97.7349 138.592 97.7626 138.46 97.7903C138.327 97.8211 138.159 97.8365 137.956 97.8365C137.649 97.8365 137.347 97.7703 137.051 97.638C136.759 97.5056 136.516 97.304 136.322 97.0332C136.131 96.7624 136.036 96.4208 136.036 96.0083V88.9544ZM33.3839 113.744V106.653H34.4364V107.761H34.5288C34.6765 107.383 34.915 107.089 35.2443 106.879C35.5736 106.667 35.9691 106.561 36.4308 106.561C36.8986 106.561 37.2879 106.667 37.5987 106.879C37.9126 107.089 38.1573 107.383 38.3327 107.761H38.4066C38.5882 107.395 38.8606 107.104 39.2237 106.889C39.5869 106.67 40.0224 106.561 40.5302 106.561C41.1642 106.561 41.6828 106.759 42.0859 107.156C42.4891 107.55 42.6907 108.164 42.6907 108.998V113.744H41.6012V108.998C41.6012 108.475 41.4581 108.101 41.1719 107.877C40.8857 107.652 40.5487 107.54 40.1609 107.54C39.6623 107.54 39.276 107.69 39.0021 107.992C38.7282 108.291 38.5913 108.669 38.5913 109.128V113.744H37.4833V108.888C37.4833 108.484 37.3525 108.16 37.0909 107.914C36.8293 107.664 36.4923 107.54 36.0799 107.54C35.7968 107.54 35.5321 107.615 35.2859 107.766C35.0427 107.917 34.8458 108.126 34.695 108.394C34.5472 108.658 34.4734 108.965 34.4734 109.312V113.744H33.3839ZM47.5634 113.892C46.9232 113.892 46.3616 113.74 45.8784 113.435C45.3983 113.13 45.0228 112.704 44.752 112.156C44.4842 111.608 44.3503 110.968 44.3503 110.236C44.3503 109.497 44.4842 108.852 44.752 108.301C45.0228 107.75 45.3983 107.323 45.8784 107.018C46.3616 106.713 46.9232 106.561 47.5634 106.561C48.2035 106.561 48.7637 106.713 49.2438 107.018C49.727 107.323 50.1025 107.75 50.3702 108.301C50.641 108.852 50.7765 109.497 50.7765 110.236C50.7765 110.968 50.641 111.608 50.3702 112.156C50.1025 112.704 49.727 113.13 49.2438 113.435C48.7637 113.74 48.2035 113.892 47.5634 113.892ZM47.5634 112.913C48.0497 112.913 48.4498 112.789 48.7637 112.539C49.0776 112.29 49.31 111.962 49.4608 111.556C49.6116 111.15 49.687 110.71 49.687 110.236C49.687 109.762 49.6116 109.32 49.4608 108.911C49.31 108.501 49.0776 108.171 48.7637 107.918C48.4498 107.666 48.0497 107.54 47.5634 107.54C47.0771 107.54 46.677 107.666 46.3631 107.918C46.0492 108.171 45.8168 108.501 45.666 108.911C45.5152 109.32 45.4398 109.762 45.4398 110.236C45.4398 110.71 45.5152 111.15 45.666 111.556C45.8168 111.962 46.0492 112.29 46.3631 112.539C46.677 112.789 47.0771 112.913 47.5634 112.913ZM52.4395 113.744V106.653H53.4921V107.761H53.5844C53.7322 107.383 53.9707 107.089 54.3 106.879C54.6293 106.667 55.0248 106.561 55.4864 106.561C55.9542 106.561 56.3435 106.667 56.6544 106.879C56.9683 107.089 57.213 107.383 57.3884 107.761H57.4623C57.6439 107.395 57.9162 107.104 58.2794 106.889C58.6425 106.67 59.078 106.561 59.5858 106.561C60.2198 106.561 60.7384 106.759 61.1416 107.156C61.5448 107.55 61.7464 108.164 61.7464 108.998V113.744H60.6569V108.998C60.6569 108.475 60.5138 108.101 60.2275 107.877C59.9413 107.652 59.6043 107.54 59.2165 107.54C58.718 107.54 58.3317 107.69 58.0578 107.992C57.7839 108.291 57.6469 108.669 57.6469 109.128V113.744H56.539V108.888C56.539 108.484 56.4082 108.16 56.1466 107.914C55.885 107.664 55.548 107.54 55.1356 107.54C54.8524 107.54 54.5877 107.615 54.3415 107.766C54.0984 107.917 53.9014 108.126 53.7506 108.394C53.6029 108.658 53.529 108.965 53.529 109.312V113.744H52.4395ZM66.7114 113.892C66.0281 113.892 65.4388 113.741 64.9433 113.439C64.4508 113.135 64.0708 112.71 63.803 112.165C63.5383 111.617 63.406 110.98 63.406 110.254C63.406 109.528 63.5383 108.888 63.803 108.334C64.0708 107.777 64.4432 107.343 64.9202 107.032C65.4003 106.718 65.9604 106.561 66.6006 106.561C66.9699 106.561 67.3346 106.622 67.6947 106.746C68.0548 106.869 68.3825 107.069 68.678 107.346C68.9735 107.62 69.2089 107.983 69.3843 108.435C69.5597 108.888 69.6475 109.445 69.6475 110.106V110.568H64.1816V109.626H68.5395C68.5395 109.226 68.4595 108.869 68.2994 108.555C68.1425 108.241 67.9178 107.994 67.6254 107.812C67.3361 107.63 66.9945 107.54 66.6006 107.54C66.1666 107.54 65.7912 107.647 65.4742 107.863C65.1602 108.075 64.9186 108.352 64.7494 108.694C64.5801 109.035 64.4955 109.402 64.4955 109.792V110.42C64.4955 110.956 64.5878 111.41 64.7725 111.782C64.9602 112.151 65.2203 112.433 65.5526 112.627C65.885 112.818 66.2713 112.913 66.7114 112.913C66.9976 112.913 67.2561 112.873 67.4869 112.793C67.7209 112.71 67.9224 112.587 68.0917 112.424C68.261 112.258 68.3918 112.051 68.4841 111.805L69.5367 112.101C69.4259 112.458 69.2397 112.772 68.9781 113.042C68.7165 113.31 68.3933 113.519 68.0086 113.67C67.6239 113.818 67.1915 113.892 66.7114 113.892ZM72.3943 109.479V113.744H71.3048V106.653H72.3573V107.761H72.4497C72.6159 107.401 72.8682 107.112 73.2068 106.893C73.5453 106.672 73.9823 106.561 74.5178 106.561C74.998 106.561 75.4181 106.659 75.7781 106.856C76.1382 107.05 76.4183 107.346 76.6183 107.743C76.8184 108.137 76.9184 108.635 76.9184 109.238V113.744H75.8289V109.312C75.8289 108.755 75.6843 108.321 75.395 108.01C75.1057 107.697 74.7087 107.54 74.2039 107.54C73.8561 107.54 73.5453 107.615 73.2714 107.766C73.0006 107.917 72.7867 108.137 72.6297 108.426C72.4727 108.715 72.3943 109.066 72.3943 109.479ZM81.9931 106.653V107.577H78.3184V106.653H81.9931ZM79.3894 104.954H80.4789V111.713C80.4789 112.021 80.5235 112.251 80.6127 112.405C80.7051 112.556 80.822 112.658 80.9636 112.71C81.1083 112.759 81.2606 112.784 81.4206 112.784C81.5407 112.784 81.6391 112.778 81.7161 112.765C81.793 112.75 81.8546 112.738 81.9007 112.729L82.1223 113.707C82.0485 113.735 81.9454 113.763 81.813 113.79C81.6807 113.821 81.513 113.836 81.3098 113.836C81.0021 113.836 80.7005 113.77 80.405 113.638C80.1126 113.506 79.8695 113.304 79.6756 113.033C79.4848 112.762 79.3894 112.421 79.3894 112.008V104.954ZM88.5277 108.241L87.549 108.518C87.4875 108.355 87.3967 108.197 87.2766 108.043C87.1597 107.886 86.9996 107.757 86.7965 107.655C86.5934 107.553 86.3333 107.503 86.0163 107.503C85.5824 107.503 85.2208 107.603 84.9315 107.803C84.6452 108 84.5021 108.251 84.5021 108.555C84.5021 108.826 84.6006 109.04 84.7976 109.197C84.9946 109.354 85.3023 109.485 85.7209 109.589L86.7734 109.848C87.4074 110.002 87.8799 110.237 88.1907 110.554C88.5015 110.868 88.657 111.273 88.657 111.768C88.657 112.175 88.54 112.538 88.3061 112.858C88.0753 113.178 87.7521 113.43 87.3366 113.615C86.9212 113.8 86.438 113.892 85.8871 113.892C85.1638 113.892 84.5652 113.735 84.0913 113.421C83.6173 113.107 83.3172 112.648 83.1911 112.045L84.2251 111.787C84.3236 112.168 84.5098 112.455 84.7837 112.645C85.0607 112.836 85.4223 112.932 85.8686 112.932C86.3764 112.932 86.7796 112.824 87.0781 112.608C87.3797 112.39 87.5305 112.128 87.5305 111.824C87.5305 111.577 87.4444 111.371 87.272 111.205C87.0997 111.036 86.835 110.91 86.478 110.827L85.2962 110.55C84.6468 110.396 84.1697 110.157 83.8651 109.834C83.5634 109.508 83.4126 109.1 83.4126 108.611C83.4126 108.211 83.525 107.857 83.7496 107.549C83.9774 107.241 84.2867 106.999 84.6776 106.824C85.0715 106.649 85.5178 106.561 86.0163 106.561C86.718 106.561 87.2689 106.715 87.669 107.023C88.0722 107.33 88.3584 107.737 88.5277 108.241ZM96.0399 113.91C95.5905 113.91 95.1827 113.826 94.8165 113.656C94.4503 113.484 94.1594 113.236 93.944 112.913C93.7285 112.587 93.6208 112.193 93.6208 111.731C93.6208 111.325 93.7008 110.996 93.8609 110.743C94.0209 110.488 94.2348 110.288 94.5026 110.143C94.7703 109.999 95.0658 109.891 95.3889 109.82C95.7152 109.746 96.0429 109.688 96.3722 109.645C96.8031 109.589 97.1524 109.548 97.4202 109.52C97.691 109.489 97.888 109.439 98.0111 109.368C98.1373 109.297 98.2004 109.174 98.2004 108.998V108.961C98.2004 108.506 98.0757 108.152 97.8264 107.9C97.5802 107.647 97.2063 107.521 96.7046 107.521C96.1845 107.521 95.7767 107.635 95.4813 107.863C95.1858 108.09 94.9781 108.334 94.858 108.592L93.824 108.223C94.0086 107.792 94.2548 107.456 94.5626 107.216C94.8734 106.973 95.212 106.804 95.5782 106.709C95.9475 106.61 96.3107 106.561 96.6677 106.561C96.8954 106.561 97.157 106.589 97.4525 106.644C97.751 106.696 98.0388 106.806 98.3158 106.972C98.5959 107.138 98.8282 107.389 99.0129 107.724C99.1975 108.06 99.2899 108.509 99.2899 109.072V113.744H98.2004V112.784H98.145C98.0711 112.938 97.948 113.102 97.7757 113.278C97.6033 113.453 97.374 113.603 97.0878 113.726C96.8016 113.849 96.4523 113.91 96.0399 113.91ZM96.2061 112.932C96.6369 112.932 97.0001 112.847 97.2955 112.678C97.5941 112.508 97.8187 112.29 97.9695 112.022C98.1234 111.754 98.2004 111.473 98.2004 111.177V110.18C98.1542 110.236 98.0526 110.286 97.8957 110.333C97.7418 110.376 97.5633 110.414 97.3602 110.448C97.1601 110.479 96.9647 110.506 96.7739 110.531C96.5861 110.553 96.4338 110.571 96.3169 110.586C96.0337 110.623 95.769 110.683 95.5228 110.767C95.2797 110.847 95.0827 110.968 94.9319 111.131C94.7842 111.291 94.7103 111.51 94.7103 111.787C94.7103 112.165 94.8503 112.452 95.1304 112.645C95.4136 112.836 95.7721 112.932 96.2061 112.932ZM102.368 109.479V113.744H101.278V106.653H102.331V107.761H102.423C102.589 107.401 102.842 107.112 103.18 106.893C103.519 106.672 103.956 106.561 104.491 106.561C104.972 106.561 105.392 106.659 105.752 106.856C106.112 107.05 106.392 107.346 106.592 107.743C106.792 108.137 106.892 108.635 106.892 109.238V113.744H105.803V109.312C105.803 108.755 105.658 108.321 105.369 108.01C105.079 107.697 104.682 107.54 104.178 107.54C103.83 107.54 103.519 107.615 103.245 107.766C102.974 107.917 102.76 108.137 102.603 108.426C102.446 108.715 102.368 109.066 102.368 109.479ZM111.56 113.892C110.97 113.892 110.448 113.743 109.995 113.444C109.543 113.142 109.189 112.718 108.934 112.17C108.678 111.619 108.551 110.968 108.551 110.217C108.551 109.472 108.678 108.826 108.934 108.278C109.189 107.73 109.545 107.307 110 107.009C110.456 106.71 110.982 106.561 111.579 106.561C112.041 106.561 112.405 106.638 112.673 106.792C112.944 106.943 113.15 107.115 113.292 107.309C113.436 107.5 113.549 107.657 113.629 107.78H113.721V104.29H114.81V113.744H113.758V112.655H113.629C113.549 112.784 113.435 112.947 113.287 113.144C113.139 113.338 112.928 113.512 112.655 113.666C112.381 113.816 112.016 113.892 111.56 113.892ZM111.708 112.913C112.145 112.913 112.515 112.799 112.816 112.572C113.118 112.341 113.347 112.022 113.504 111.616C113.661 111.207 113.739 110.734 113.739 110.199C113.739 109.669 113.662 109.206 113.509 108.809C113.355 108.409 113.127 108.098 112.825 107.877C112.524 107.652 112.151 107.54 111.708 107.54C111.247 107.54 110.862 107.658 110.554 107.895C110.249 108.129 110.02 108.448 109.866 108.851C109.715 109.251 109.64 109.7 109.64 110.199C109.64 110.703 109.717 111.162 109.871 111.574C110.028 111.984 110.259 112.31 110.563 112.553C110.871 112.793 111.253 112.913 111.708 112.913ZM122.7 113.91C122.251 113.91 121.843 113.826 121.477 113.656C121.11 113.484 120.82 113.236 120.604 112.913C120.389 112.587 120.281 112.193 120.281 111.731C120.281 111.325 120.361 110.996 120.521 110.743C120.681 110.488 120.895 110.288 121.163 110.143C121.43 109.999 121.726 109.891 122.049 109.82C122.375 109.746 122.703 109.688 123.032 109.645C123.463 109.589 123.813 109.548 124.08 109.52C124.351 109.489 124.548 109.439 124.671 109.368C124.797 109.297 124.861 109.174 124.861 108.998V108.961C124.861 108.506 124.736 108.152 124.487 107.9C124.24 107.647 123.866 107.521 123.365 107.521C122.845 107.521 122.437 107.635 122.141 107.863C121.846 108.09 121.638 108.334 121.518 108.592L120.484 108.223C120.669 107.792 120.915 107.456 121.223 107.216C121.534 106.973 121.872 106.804 122.238 106.709C122.608 106.61 122.971 106.561 123.328 106.561C123.556 106.561 123.817 106.589 124.113 106.644C124.411 106.696 124.699 106.806 124.976 106.972C125.256 107.138 125.488 107.389 125.673 107.724C125.858 108.06 125.95 108.509 125.95 109.072V113.744H124.861V112.784H124.805C124.731 112.938 124.608 113.102 124.436 113.278C124.263 113.453 124.034 113.603 123.748 113.726C123.462 113.849 123.112 113.91 122.7 113.91ZM122.866 112.932C123.297 112.932 123.66 112.847 123.956 112.678C124.254 112.508 124.479 112.29 124.63 112.022C124.784 111.754 124.861 111.473 124.861 111.177V110.18C124.814 110.236 124.713 110.286 124.556 110.333C124.402 110.376 124.223 110.414 124.02 110.448C123.82 110.479 123.625 110.506 123.434 110.531C123.246 110.553 123.094 110.571 122.977 110.586C122.694 110.623 122.429 110.683 122.183 110.767C121.94 110.847 121.743 110.968 121.592 111.131C121.444 111.291 121.37 111.51 121.37 111.787C121.37 112.165 121.511 112.452 121.791 112.645C122.074 112.836 122.432 112.932 122.866 112.932ZM130.616 113.892C130.025 113.892 129.504 113.743 129.051 113.444C128.599 113.142 128.245 112.718 127.989 112.17C127.734 111.619 127.606 110.968 127.606 110.217C127.606 109.472 127.734 108.826 127.989 108.278C128.245 107.73 128.6 107.307 129.056 107.009C129.511 106.71 130.038 106.561 130.635 106.561C131.096 106.561 131.461 106.638 131.729 106.792C132 106.943 132.206 107.115 132.347 107.309C132.492 107.5 132.604 107.657 132.684 107.78H132.777V104.29H133.866V113.744H132.814V112.655H132.684C132.604 112.784 132.49 112.947 132.343 113.144C132.195 113.338 131.984 113.512 131.71 113.666C131.436 113.816 131.072 113.892 130.616 113.892ZM130.764 112.913C131.201 112.913 131.57 112.799 131.872 112.572C132.173 112.341 132.403 112.022 132.56 111.616C132.717 111.207 132.795 110.734 132.795 110.199C132.795 109.669 132.718 109.206 132.564 108.809C132.41 108.409 132.183 108.098 131.881 107.877C131.579 107.652 131.207 107.54 130.764 107.54C130.302 107.54 129.917 107.658 129.61 107.895C129.305 108.129 129.076 108.448 128.922 108.851C128.771 109.251 128.696 109.7 128.696 110.199C128.696 110.703 128.773 111.162 128.926 111.574C129.083 111.984 129.314 112.31 129.619 112.553C129.927 112.793 130.308 112.913 130.764 112.913ZM138.69 113.892C138.099 113.892 137.578 113.743 137.125 113.444C136.673 113.142 136.319 112.718 136.064 112.17C135.808 111.619 135.68 110.968 135.68 110.217C135.68 109.472 135.808 108.826 136.064 108.278C136.319 107.73 136.674 107.307 137.13 107.009C137.585 106.71 138.112 106.561 138.709 106.561C139.17 106.561 139.535 106.638 139.803 106.792C140.074 106.943 140.28 107.115 140.422 107.309C140.566 107.5 140.679 107.657 140.759 107.78H140.851V104.29H141.94V113.744H140.888V112.655H140.759C140.679 112.784 140.565 112.947 140.417 113.144C140.269 113.338 140.058 113.512 139.784 113.666C139.511 113.816 139.146 113.892 138.69 113.892ZM138.838 112.913C139.275 112.913 139.644 112.799 139.946 112.572C140.248 112.341 140.477 112.022 140.634 111.616C140.791 111.207 140.869 110.734 140.869 110.199C140.869 109.669 140.792 109.206 140.638 108.809C140.485 108.409 140.257 108.098 139.955 107.877C139.654 107.652 139.281 107.54 138.838 107.54C138.376 107.54 137.992 107.658 137.684 107.895C137.379 108.129 137.15 108.448 136.996 108.851C136.845 109.251 136.77 109.7 136.77 110.199C136.77 110.703 136.847 111.162 137.001 111.574C137.158 111.984 137.388 112.31 137.693 112.553C138.001 112.793 138.383 112.913 138.838 112.913ZM148.833 109.479V113.744H147.743V104.29H148.833V107.761H148.925C149.091 107.395 149.341 107.104 149.673 106.889C150.008 106.67 150.455 106.561 151.012 106.561C151.495 106.561 151.918 106.658 152.281 106.852C152.644 107.043 152.926 107.336 153.126 107.733C153.329 108.127 153.431 108.629 153.431 109.238V113.744H152.341V109.312C152.341 108.749 152.195 108.314 151.903 108.006C151.613 107.695 151.212 107.54 150.698 107.54C150.341 107.54 150.021 107.615 149.738 107.766C149.458 107.917 149.236 108.137 149.073 108.426C148.913 108.715 148.833 109.066 148.833 109.479ZM158.305 113.892C157.664 113.892 157.103 113.74 156.62 113.435C156.139 113.13 155.764 112.704 155.493 112.156C155.225 111.608 155.092 110.968 155.092 110.236C155.092 109.497 155.225 108.852 155.493 108.301C155.764 107.75 156.139 107.323 156.62 107.018C157.103 106.713 157.664 106.561 158.305 106.561C158.945 106.561 159.505 106.713 159.985 107.018C160.468 107.323 160.844 107.75 161.111 108.301C161.382 108.852 161.518 109.497 161.518 110.236C161.518 110.968 161.382 111.608 161.111 112.156C160.844 112.704 160.468 113.13 159.985 113.435C159.505 113.74 158.945 113.892 158.305 113.892ZM158.305 112.913C158.791 112.913 159.191 112.789 159.505 112.539C159.819 112.29 160.051 111.962 160.202 111.556C160.353 111.15 160.428 110.71 160.428 110.236C160.428 109.762 160.353 109.32 160.202 108.911C160.051 108.501 159.819 108.171 159.505 107.918C159.191 107.666 158.791 107.54 158.305 107.54C157.818 107.54 157.418 107.666 157.104 107.918C156.79 108.171 156.558 108.501 156.407 108.911C156.256 109.32 156.181 109.762 156.181 110.236C156.181 110.71 156.256 111.15 156.407 111.556C156.558 111.962 156.79 112.29 157.104 112.539C157.418 112.789 157.818 112.913 158.305 112.913ZM167.65 110.845V106.653H168.739V113.744H167.65V112.544H167.576C167.409 112.904 167.151 113.21 166.8 113.463C166.449 113.712 166.006 113.836 165.471 113.836C165.027 113.836 164.633 113.74 164.289 113.546C163.944 113.349 163.673 113.053 163.476 112.659C163.279 112.262 163.181 111.762 163.181 111.159V106.653H164.27V111.085C164.27 111.602 164.415 112.015 164.704 112.322C164.997 112.63 165.369 112.784 165.821 112.784C166.092 112.784 166.368 112.715 166.648 112.576C166.931 112.438 167.168 112.225 167.359 111.939C167.553 111.653 167.65 111.288 167.65 110.845ZM170.734 113.744V106.653H171.787V107.724H171.861C171.99 107.373 172.224 107.089 172.563 106.87C172.901 106.652 173.283 106.542 173.707 106.542C173.787 106.542 173.888 106.544 174.008 106.547C174.128 106.55 174.218 106.555 174.28 106.561V107.669C174.243 107.66 174.158 107.646 174.026 107.627C173.897 107.606 173.76 107.595 173.615 107.595C173.27 107.595 172.963 107.667 172.692 107.812C172.424 107.954 172.212 108.151 172.055 108.403C171.901 108.652 171.824 108.937 171.824 109.257V113.744H170.734ZM180.594 108.241L179.615 108.518C179.554 108.355 179.463 108.197 179.343 108.043C179.226 107.886 179.066 107.757 178.863 107.655C178.66 107.553 178.4 107.503 178.083 107.503C177.649 107.503 177.287 107.603 176.998 107.803C176.712 108 176.569 108.251 176.569 108.555C176.569 108.826 176.667 109.04 176.864 109.197C177.061 109.354 177.369 109.485 177.787 109.589L178.84 109.848C179.474 110.002 179.946 110.237 180.257 110.554C180.568 110.868 180.723 111.273 180.723 111.768C180.723 112.175 180.606 112.538 180.373 112.858C180.142 113.178 179.819 113.43 179.403 113.615C178.988 113.8 178.504 113.892 177.953 113.892C177.23 113.892 176.632 113.735 176.158 113.421C175.684 113.107 175.384 112.648 175.257 112.045L176.292 111.787C176.39 112.168 176.576 112.455 176.85 112.645C177.127 112.836 177.489 112.932 177.935 112.932C178.443 112.932 178.846 112.824 179.145 112.608C179.446 112.39 179.597 112.128 179.597 111.824C179.597 111.577 179.511 111.371 179.338 111.205C179.166 111.036 178.901 110.91 178.544 110.827L177.363 110.55C176.713 110.396 176.236 110.157 175.931 109.834C175.63 109.508 175.479 109.1 175.479 108.611C175.479 108.211 175.591 107.857 175.816 107.549C176.044 107.241 176.353 106.999 176.744 106.824C177.138 106.649 177.584 106.561 178.083 106.561C178.784 106.561 179.335 106.715 179.735 107.023C180.139 107.33 180.425 107.737 180.594 108.241ZM36.2646 129.892C35.6244 129.892 35.0627 129.74 34.5795 129.435C34.0994 129.13 33.724 128.704 33.4531 128.156C33.1854 127.608 33.0515 126.968 33.0515 126.236C33.0515 125.497 33.1854 124.852 33.4531 124.301C33.724 123.75 34.0994 123.323 34.5795 123.018C35.0627 122.713 35.6244 122.561 36.2646 122.561C36.9047 122.561 37.4648 122.713 37.945 123.018C38.4281 123.323 38.8036 123.75 39.0714 124.301C39.3422 124.852 39.4776 125.497 39.4776 126.236C39.4776 126.968 39.3422 127.608 39.0714 128.156C38.8036 128.704 38.4281 129.13 37.945 129.435C37.4648 129.74 36.9047 129.892 36.2646 129.892ZM36.2646 128.913C36.7508 128.913 37.1509 128.789 37.4648 128.539C37.7788 128.29 38.0111 127.962 38.1619 127.556C38.3127 127.15 38.3881 126.71 38.3881 126.236C38.3881 125.762 38.3127 125.32 38.1619 124.911C38.0111 124.501 37.7788 124.171 37.4648 123.918C37.1509 123.666 36.7508 123.54 36.2646 123.54C35.7783 123.54 35.3782 123.666 35.0643 123.918C34.7504 124.171 34.518 124.501 34.3672 124.911C34.2164 125.32 34.141 125.762 34.141 126.236C34.141 126.71 34.2164 127.15 34.3672 127.556C34.518 127.962 34.7504 128.29 35.0643 128.539C35.3782 128.789 35.7783 128.913 36.2646 128.913ZM45.6095 126.845V122.653H46.699V129.744H45.6095V128.544H45.5356C45.3694 128.904 45.1109 129.21 44.76 129.463C44.4092 129.712 43.966 129.836 43.4305 129.836C42.9873 129.836 42.5934 129.74 42.2487 129.546C41.904 129.349 41.6331 129.053 41.4362 128.659C41.2392 128.262 41.1407 127.762 41.1407 127.159V122.653H42.2302V127.085C42.2302 127.602 42.3749 128.015 42.6642 128.322C42.9565 128.63 43.3289 128.784 43.7813 128.784C44.0522 128.784 44.3276 128.715 44.6077 128.576C44.8908 128.438 45.1278 128.225 45.3186 127.939C45.5125 127.653 45.6095 127.288 45.6095 126.845ZM51.7782 122.653V123.577H48.1035V122.653H51.7782ZM49.1745 120.954H50.264V127.713C50.264 128.021 50.3087 128.251 50.3979 128.405C50.4902 128.556 50.6072 128.658 50.7488 128.71C50.8934 128.759 51.0458 128.784 51.2058 128.784C51.3258 128.784 51.4243 128.778 51.5012 128.765C51.5782 128.75 51.6397 128.738 51.6859 128.729L51.9075 129.707C51.8336 129.735 51.7305 129.763 51.5982 129.79C51.4659 129.821 51.2981 129.836 51.095 129.836C50.7872 129.836 50.4856 129.77 50.1902 129.638C49.8978 129.506 49.6547 129.304 49.4608 129.033C49.2699 128.762 49.1745 128.421 49.1745 128.008V120.954ZM58.3129 124.241L57.3342 124.518C57.2726 124.355 57.1818 124.197 57.0618 124.043C56.9448 123.886 56.7848 123.757 56.5817 123.655C56.3786 123.553 56.1185 123.503 55.8015 123.503C55.3675 123.503 55.0059 123.603 54.7166 123.803C54.4304 124 54.2873 124.251 54.2873 124.555C54.2873 124.826 54.3858 125.04 54.5827 125.197C54.7797 125.354 55.0875 125.485 55.506 125.589L56.5586 125.848C57.1926 126.002 57.665 126.237 57.9759 126.554C58.2867 126.868 58.4421 127.273 58.4421 127.768C58.4421 128.175 58.3252 128.538 58.0913 128.858C57.8604 129.178 57.5373 129.43 57.1218 129.615C56.7063 129.8 56.2231 129.892 55.6722 129.892C54.949 129.892 54.3504 129.735 53.8764 129.421C53.4025 129.107 53.1024 128.648 52.9762 128.045L54.0103 127.787C54.1088 128.168 54.295 128.455 54.5689 128.645C54.8459 128.836 55.2075 128.932 55.6538 128.932C56.1616 128.932 56.5647 128.824 56.8633 128.608C57.1649 128.39 57.3157 128.128 57.3157 127.824C57.3157 127.577 57.2295 127.371 57.0572 127.205C56.8848 127.036 56.6201 126.91 56.2631 126.827L55.0813 126.55C54.4319 126.396 53.9549 126.157 53.6502 125.834C53.3486 125.508 53.1978 125.1 53.1978 124.611C53.1978 124.211 53.3101 123.857 53.5348 123.549C53.7625 123.241 54.0719 122.999 54.4627 122.824C54.8567 122.649 55.3029 122.561 55.8015 122.561C56.5032 122.561 57.0541 122.715 57.4542 123.023C57.8574 123.33 58.1436 123.737 58.3129 124.241ZM60.0821 129.744V122.653H61.1716V129.744H60.0821ZM60.6361 121.471C60.4237 121.471 60.2406 121.399 60.0867 121.254C59.9359 121.11 59.8605 120.936 59.8605 120.733C59.8605 120.53 59.9359 120.356 60.0867 120.211C60.2406 120.066 60.4237 119.994 60.6361 119.994C60.8485 119.994 61.03 120.066 61.1808 120.211C61.3347 120.356 61.4117 120.53 61.4117 120.733C61.4117 120.936 61.3347 121.11 61.1808 121.254C61.03 121.399 60.8485 121.471 60.6361 121.471ZM65.8446 129.892C65.2537 129.892 64.7321 129.743 64.2797 129.444C63.8272 129.142 63.4733 128.718 63.2179 128.17C62.9624 127.619 62.8347 126.968 62.8347 126.217C62.8347 125.472 62.9624 124.826 63.2179 124.278C63.4733 123.73 63.8288 123.307 64.2843 123.009C64.7398 122.71 65.266 122.561 65.8631 122.561C66.3248 122.561 66.6895 122.638 66.9572 122.792C67.228 122.943 67.4342 123.115 67.5758 123.309C67.7205 123.5 67.8328 123.657 67.9128 123.78H68.0051V120.29H69.0946V129.744H68.0421V128.655H67.9128C67.8328 128.784 67.7189 128.947 67.5712 129.144C67.4235 129.338 67.2127 129.512 66.9387 129.666C66.6648 129.816 66.3001 129.892 65.8446 129.892ZM65.9924 128.913C66.4294 128.913 66.7987 128.799 67.1003 128.572C67.4019 128.341 67.6312 128.022 67.7882 127.616C67.9451 127.207 68.0236 126.734 68.0236 126.199C68.0236 125.669 67.9467 125.206 67.7928 124.809C67.6389 124.409 67.4112 124.098 67.1096 123.877C66.8079 123.652 66.4355 123.54 65.9924 123.54C65.5307 123.54 65.146 123.658 64.8382 123.895C64.5336 124.129 64.3043 124.448 64.1504 124.851C63.9996 125.251 63.9242 125.7 63.9242 126.199C63.9242 126.703 64.0011 127.162 64.155 127.574C64.312 127.984 64.5428 128.31 64.8475 128.553C65.1552 128.793 65.5369 128.913 65.9924 128.913ZM74.2143 129.892C73.5311 129.892 72.9417 129.741 72.4462 129.439C71.9538 129.135 71.5737 128.71 71.3059 128.165C71.0413 127.617 70.9089 126.98 70.9089 126.254C70.9089 125.528 71.0413 124.888 71.3059 124.334C71.5737 123.777 71.9461 123.343 72.4231 123.032C72.9032 122.718 73.4634 122.561 74.1035 122.561C74.4728 122.561 74.8375 122.622 75.1976 122.746C75.5577 122.869 75.8855 123.069 76.1809 123.346C76.4764 123.62 76.7118 123.983 76.8873 124.435C77.0627 124.888 77.1504 125.445 77.1504 126.106V126.568H71.6845V125.626H76.0424C76.0424 125.226 75.9624 124.869 75.8024 124.555C75.6454 124.241 75.4208 123.994 75.1284 123.812C74.8391 123.63 74.4975 123.54 74.1035 123.54C73.6696 123.54 73.2941 123.647 72.9771 123.863C72.6632 124.075 72.4216 124.352 72.2523 124.694C72.083 125.035 71.9984 125.402 71.9984 125.792V126.42C71.9984 126.956 72.0907 127.41 72.2754 127.782C72.4631 128.151 72.7232 128.433 73.0556 128.627C73.388 128.818 73.7742 128.913 74.2143 128.913C74.5005 128.913 74.7591 128.873 74.9899 128.793C75.2238 128.71 75.4254 128.587 75.5946 128.424C75.7639 128.258 75.8947 128.051 75.987 127.805L77.0396 128.101C76.9288 128.458 76.7426 128.772 76.481 129.042C76.2194 129.31 75.8962 129.519 75.5115 129.67C75.1268 129.818 74.6944 129.892 74.2143 129.892ZM85.5478 122.653V123.577H81.873V122.653H85.5478ZM82.9441 120.954H84.0336V127.713C84.0336 128.021 84.0782 128.251 84.1674 128.405C84.2598 128.556 84.3767 128.658 84.5183 128.71C84.6629 128.759 84.8153 128.784 84.9753 128.784C85.0953 128.784 85.1938 128.778 85.2708 128.765C85.3477 128.75 85.4093 128.738 85.4554 128.729L85.677 129.707C85.6032 129.735 85.5001 129.763 85.3677 129.79C85.2354 129.821 85.0676 129.836 84.8645 129.836C84.5568 129.836 84.2551 129.77 83.9597 129.638C83.6673 129.506 83.4242 129.304 83.2303 129.033C83.0395 128.762 82.9441 128.421 82.9441 128.008V120.954ZM88.4284 125.479V129.744H87.339V120.29H88.4284V123.761H88.5208C88.687 123.395 88.9363 123.104 89.2686 122.889C89.6041 122.67 90.0504 122.561 90.6074 122.561C91.0906 122.561 91.5138 122.658 91.877 122.852C92.2401 123.043 92.5217 123.336 92.7218 123.733C92.9249 124.127 93.0265 124.629 93.0265 125.238V129.744H91.937V125.312C91.937 124.749 91.7908 124.314 91.4984 124.006C91.2091 123.695 90.8075 123.54 90.2935 123.54C89.9365 123.54 89.6164 123.615 89.3333 123.766C89.0532 123.917 88.8316 124.137 88.6685 124.426C88.5085 124.715 88.4284 125.066 88.4284 125.479ZM97.9926 129.892C97.3094 129.892 96.72 129.741 96.2245 129.439C95.7321 129.135 95.352 128.71 95.0843 128.165C94.8196 127.617 94.6872 126.98 94.6872 126.254C94.6872 125.528 94.8196 124.888 95.0843 124.334C95.352 123.777 95.7244 123.343 96.2014 123.032C96.6816 122.718 97.2417 122.561 97.8818 122.561C98.2512 122.561 98.6159 122.622 98.9759 122.746C99.336 122.869 99.6638 123.069 99.9593 123.346C100.255 123.62 100.49 123.983 100.666 124.435C100.841 124.888 100.929 125.445 100.929 126.106V126.568H95.4628V125.626H99.8208C99.8208 125.226 99.7407 124.869 99.5807 124.555C99.4237 124.241 99.1991 123.994 98.9067 123.812C98.6174 123.63 98.2758 123.54 97.8818 123.54C97.4479 123.54 97.0724 123.647 96.7554 123.863C96.4415 124.075 96.1999 124.352 96.0306 124.694C95.8614 125.035 95.7767 125.402 95.7767 125.792V126.42C95.7767 126.956 95.8691 127.41 96.0537 127.782C96.2414 128.151 96.5015 128.433 96.8339 128.627C97.1663 128.818 97.5525 128.913 97.9926 128.913C98.2789 128.913 98.5374 128.873 98.7682 128.793C99.0021 128.71 99.2037 128.587 99.373 128.424C99.5422 128.258 99.673 128.051 99.7654 127.805L100.818 128.101C100.707 128.458 100.521 128.772 100.259 129.042C99.9977 129.31 99.6746 129.519 99.2899 129.67C98.9052 129.818 98.4727 129.892 97.9926 129.892ZM106.242 132.403V122.653H107.295V123.78H107.424C107.504 123.657 107.615 123.5 107.756 123.309C107.901 123.115 108.107 122.943 108.375 122.792C108.646 122.638 109.012 122.561 109.474 122.561C110.071 122.561 110.597 122.71 111.053 123.009C111.508 123.307 111.864 123.73 112.119 124.278C112.374 124.826 112.502 125.472 112.502 126.217C112.502 126.968 112.374 127.619 112.119 128.17C111.864 128.718 111.51 129.142 111.057 129.444C110.605 129.743 110.083 129.892 109.492 129.892C109.037 129.892 108.672 129.816 108.398 129.666C108.124 129.512 107.913 129.338 107.766 129.144C107.618 128.947 107.504 128.784 107.424 128.655H107.332V132.403H106.242ZM107.313 126.199C107.313 126.734 107.392 127.207 107.549 127.616C107.706 128.022 107.935 128.341 108.237 128.572C108.538 128.799 108.908 128.913 109.345 128.913C109.8 128.913 110.18 128.793 110.485 128.553C110.793 128.31 111.023 127.984 111.177 127.574C111.334 127.162 111.413 126.703 111.413 126.199C111.413 125.7 111.336 125.251 111.182 124.851C111.031 124.448 110.802 124.129 110.494 123.895C110.189 123.658 109.806 123.54 109.345 123.54C108.901 123.54 108.529 123.652 108.227 123.877C107.926 124.098 107.698 124.409 107.544 124.809C107.39 125.206 107.313 125.669 107.313 126.199ZM115.254 120.29V129.744H114.164V120.29H115.254ZM119.336 129.91C118.886 129.91 118.479 129.826 118.112 129.656C117.746 129.484 117.455 129.236 117.24 128.913C117.024 128.587 116.917 128.193 116.917 127.731C116.917 127.325 116.997 126.996 117.157 126.743C117.317 126.488 117.531 126.288 117.798 126.143C118.066 125.999 118.362 125.891 118.685 125.82C119.011 125.746 119.339 125.688 119.668 125.645C120.099 125.589 120.448 125.548 120.716 125.52C120.987 125.489 121.184 125.439 121.307 125.368C121.433 125.297 121.496 125.174 121.496 124.998V124.961C121.496 124.506 121.372 124.152 121.122 123.9C120.876 123.647 120.502 123.521 120.001 123.521C119.48 123.521 119.073 123.635 118.777 123.863C118.482 124.09 118.274 124.334 118.154 124.592L117.12 124.223C117.305 123.792 117.551 123.456 117.858 123.216C118.169 122.973 118.508 122.804 118.874 122.709C119.243 122.61 119.607 122.561 119.964 122.561C120.191 122.561 120.453 122.589 120.748 122.644C121.047 122.696 121.335 122.806 121.612 122.972C121.892 123.138 122.124 123.389 122.309 123.724C122.493 124.06 122.586 124.509 122.586 125.072V129.744H121.496V128.784H121.441C121.367 128.938 121.244 129.102 121.072 129.278C120.899 129.453 120.67 129.603 120.384 129.726C120.097 129.849 119.748 129.91 119.336 129.91ZM119.502 128.932C119.933 128.932 120.296 128.847 120.591 128.678C120.89 128.508 121.115 128.29 121.265 128.022C121.419 127.754 121.496 127.473 121.496 127.177V126.18C121.45 126.236 121.349 126.286 121.192 126.333C121.038 126.376 120.859 126.414 120.656 126.448C120.456 126.479 120.261 126.506 120.07 126.531C119.882 126.553 119.73 126.571 119.613 126.586C119.33 126.623 119.065 126.683 118.819 126.767C118.576 126.847 118.379 126.968 118.228 127.131C118.08 127.291 118.006 127.51 118.006 127.787C118.006 128.165 118.146 128.452 118.426 128.645C118.709 128.836 119.068 128.932 119.502 128.932ZM127.658 122.653V123.577H123.983V122.653H127.658ZM125.054 120.954H126.144V127.713C126.144 128.021 126.189 128.251 126.278 128.405C126.37 128.556 126.487 128.658 126.629 128.71C126.773 128.759 126.926 128.784 127.086 128.784C127.206 128.784 127.304 128.778 127.381 128.765C127.458 128.75 127.52 128.738 127.566 128.729L127.787 129.707C127.714 129.735 127.61 129.763 127.478 129.79C127.346 129.821 127.178 129.836 126.975 129.836C126.667 129.836 126.366 129.77 126.07 129.638C125.778 129.506 125.535 129.304 125.341 129.033C125.15 128.762 125.054 128.421 125.054 128.008V120.954ZM132.455 122.653V123.577H128.632V122.653H132.455ZM129.777 129.744V121.675C129.777 121.268 129.872 120.93 130.063 120.659C130.254 120.388 130.502 120.185 130.807 120.05C131.111 119.914 131.433 119.846 131.771 119.846C132.039 119.846 132.258 119.868 132.427 119.911C132.596 119.954 132.722 119.994 132.805 120.031L132.492 120.973C132.436 120.954 132.359 120.931 132.261 120.904C132.165 120.876 132.039 120.862 131.882 120.862C131.522 120.862 131.262 120.953 131.102 121.134C130.945 121.316 130.867 121.582 130.867 121.933V129.744H129.777ZM136.57 129.892C135.93 129.892 135.368 129.74 134.885 129.435C134.405 129.13 134.03 128.704 133.759 128.156C133.491 127.608 133.357 126.968 133.357 126.236C133.357 125.497 133.491 124.852 133.759 124.301C134.03 123.75 134.405 123.323 134.885 123.018C135.368 122.713 135.93 122.561 136.57 122.561C137.21 122.561 137.771 122.713 138.251 123.018C138.734 123.323 139.109 123.75 139.377 124.301C139.648 124.852 139.783 125.497 139.783 126.236C139.783 126.968 139.648 127.608 139.377 128.156C139.109 128.704 138.734 129.13 138.251 129.435C137.771 129.74 137.21 129.892 136.57 129.892ZM136.57 128.913C137.056 128.913 137.457 128.789 137.771 128.539C138.084 128.29 138.317 127.962 138.468 127.556C138.618 127.15 138.694 126.71 138.694 126.236C138.694 125.762 138.618 125.32 138.468 124.911C138.317 124.501 138.084 124.171 137.771 123.918C137.457 123.666 137.056 123.54 136.57 123.54C136.084 123.54 135.684 123.666 135.37 123.918C135.056 124.171 134.824 124.501 134.673 124.911C134.522 125.32 134.447 125.762 134.447 126.236C134.447 126.71 134.522 127.15 134.673 127.556C134.824 127.962 135.056 128.29 135.37 128.539C135.684 128.789 136.084 128.913 136.57 128.913ZM141.446 129.744V122.653H142.499V123.724H142.573C142.702 123.373 142.936 123.089 143.275 122.87C143.613 122.652 143.995 122.542 144.419 122.542C144.499 122.542 144.599 122.544 144.719 122.547C144.839 122.55 144.93 122.555 144.992 122.561V123.669C144.955 123.66 144.87 123.646 144.738 123.627C144.609 123.606 144.472 123.595 144.327 123.595C143.982 123.595 143.675 123.667 143.404 123.812C143.136 123.954 142.924 124.151 142.767 124.403C142.613 124.652 142.536 124.937 142.536 125.257V129.744H141.446ZM146.283 129.744V122.653H147.336V123.761H147.428C147.576 123.383 147.814 123.089 148.144 122.879C148.473 122.667 148.869 122.561 149.33 122.561C149.798 122.561 150.187 122.667 150.498 122.879C150.812 123.089 151.057 123.383 151.232 123.761H151.306C151.488 123.395 151.76 123.104 152.123 122.889C152.486 122.67 152.922 122.561 153.43 122.561C154.064 122.561 154.582 122.759 154.985 123.156C155.389 123.55 155.59 124.164 155.59 124.998V129.744H154.501V124.998C154.501 124.475 154.358 124.101 154.071 123.877C153.785 123.652 153.448 123.54 153.06 123.54C152.562 123.54 152.175 123.69 151.902 123.992C151.628 124.291 151.491 124.669 151.491 125.128V129.744H150.383V124.888C150.383 124.484 150.252 124.16 149.99 123.914C149.729 123.664 149.392 123.54 148.979 123.54C148.696 123.54 148.431 123.615 148.185 123.766C147.942 123.917 147.745 124.126 147.594 124.394C147.447 124.658 147.373 124.965 147.373 125.312V129.744H146.283ZM159.022 120.29L158.93 127.085H157.859L157.767 120.29H159.022ZM158.395 129.818C158.167 129.818 157.971 129.736 157.808 129.573C157.645 129.41 157.564 129.215 157.564 128.987C157.564 128.759 157.645 128.564 157.808 128.401C157.971 128.238 158.167 128.156 158.395 128.156C158.622 128.156 158.818 128.238 158.981 128.401C159.144 128.564 159.226 128.759 159.226 128.987C159.226 129.138 159.187 129.276 159.11 129.403C159.036 129.529 158.936 129.63 158.81 129.707C158.687 129.781 158.549 129.818 158.395 129.818Z" fill="black"/>
</svg>
