<svg width="121" height="28" viewBox="0 0 121 28" fill="none" xmlns="http://www.w3.org/2000/svg">
<rect width="120.79" height="28" rx="14" fill="#FDF0F0"/>
<path fill-rule="evenodd" clip-rule="evenodd" d="M13.729 19.3974H18.5226C18.8533 19.3974 19.1217 19.1288 19.1217 18.7977C19.1217 18.4666 18.8533 18.198 18.5226 18.198H13.729C13.3983 18.198 13.1299 18.4666 13.1299 18.7977C13.1299 19.1288 13.3983 19.3974 13.729 19.3974ZM20.2685 15.3967L19.7323 18.0805C19.6934 18.2773 19.7545 18.4805 19.8964 18.622C20.0379 18.7641 20.241 18.8254 20.4376 18.7865L23.1189 18.2496L20.2685 15.3967ZM27.8099 13.9484L24.1632 17.5983L20.9192 14.3516L24.5659 10.7017L27.8099 13.9484ZM25.4132 9.85366L28.6572 13.1006L29.7316 12.0253C29.9658 11.7914 29.9658 11.4112 29.7316 11.1773L27.3347 8.77838C27.101 8.54393 26.7211 8.54393 26.4874 8.77838L25.4132 9.85366Z" fill="#DB0000"/>
<path d="M46.2444 12.0646C46.1674 11.8153 46.0612 11.5922 45.9258 11.3952C45.7935 11.1952 45.6334 11.0244 45.4457 10.8828C45.2611 10.7412 45.0487 10.6351 44.8086 10.5643C44.5686 10.4904 44.307 10.4535 44.0238 10.4535C43.516 10.4535 43.0636 10.5812 42.6666 10.8366C42.2696 11.0921 41.9572 11.4676 41.7294 11.9631C41.5048 12.4555 41.3924 13.0556 41.3924 13.7635C41.3924 14.4775 41.5048 15.0823 41.7294 15.5778C41.9541 16.0733 42.2665 16.4503 42.6666 16.7088C43.0667 16.9643 43.5314 17.092 44.0608 17.092C44.5409 17.092 44.9564 16.9996 45.3072 16.815C45.6611 16.6303 45.9335 16.3687 46.1243 16.0302C46.3151 15.6886 46.4106 15.2885 46.4106 14.8299L46.7983 14.8899H44.2316V13.5511H48.0679V14.6868C48.0679 15.4962 47.8955 16.1964 47.5508 16.7873C47.2061 17.3782 46.7322 17.8337 46.129 18.1538C45.5257 18.4708 44.8333 18.6293 44.0515 18.6293C43.1806 18.6293 42.4158 18.4338 41.7571 18.043C41.1016 17.649 40.5892 17.0904 40.2199 16.3672C39.8536 15.6409 39.6705 14.7791 39.6705 13.782C39.6705 13.0187 39.7782 12.337 39.9937 11.7369C40.2122 11.1367 40.5169 10.6274 40.9077 10.2088C41.2986 9.78717 41.7571 9.46709 42.2834 9.24858C42.8097 9.02699 43.3821 8.91619 44.0008 8.91619C44.524 8.91619 45.0118 8.99313 45.4642 9.14702C45.9166 9.29782 46.3182 9.51326 46.6691 9.79332C47.023 10.0734 47.3138 10.4058 47.5416 10.7905C47.7693 11.1752 47.9186 11.5999 47.9894 12.0646H46.2444ZM52.7432 18.6385C52.0507 18.6385 51.4506 18.4862 50.9428 18.1815C50.435 17.8768 50.041 17.4505 49.761 16.9027C49.484 16.3549 49.3455 15.7147 49.3455 14.9822C49.3455 14.2498 49.484 13.6081 49.761 13.0572C50.041 12.5063 50.435 12.0785 50.9428 11.7738C51.4506 11.4691 52.0507 11.3168 52.7432 11.3168C53.4357 11.3168 54.0358 11.4691 54.5436 11.7738C55.0514 12.0785 55.4438 12.5063 55.7208 13.0572C56.0009 13.6081 56.1409 14.2498 56.1409 14.9822C56.1409 15.7147 56.0009 16.3549 55.7208 16.9027C55.4438 17.4505 55.0514 17.8768 54.5436 18.1815C54.0358 18.4862 53.4357 18.6385 52.7432 18.6385ZM52.7524 17.2997C53.1279 17.2997 53.4418 17.1966 53.6942 16.9904C53.9466 16.7811 54.1343 16.5011 54.2574 16.1502C54.3836 15.7994 54.4467 15.4085 54.4467 14.9776C54.4467 14.5437 54.3836 14.1513 54.2574 13.8004C54.1343 13.4465 53.9466 13.1649 53.6942 12.9556C53.4418 12.7463 53.1279 12.6417 52.7524 12.6417C52.3677 12.6417 52.0477 12.7463 51.7922 12.9556C51.5398 13.1649 51.3506 13.4465 51.2244 13.8004C51.1013 14.1513 51.0397 14.5437 51.0397 14.9776C51.0397 15.4085 51.1013 15.7994 51.2244 16.1502C51.3506 16.5011 51.5398 16.7811 51.7922 16.9904C52.0477 17.1966 52.3677 17.2997 52.7524 17.2997ZM64.3248 11.4091V12.7017H60.2484V11.4091H64.3248ZM61.2548 9.71023H62.926V16.3672C62.926 16.5919 62.9599 16.7642 63.0276 16.8842C63.0984 17.0012 63.1907 17.0812 63.3046 17.1243C63.4184 17.1674 63.5446 17.1889 63.6831 17.1889C63.7877 17.1889 63.8832 17.1812 63.9693 17.1658C64.0586 17.1504 64.1263 17.1366 64.1725 17.1243L64.4541 18.4308C64.3648 18.4615 64.2371 18.4954 64.0709 18.5323C63.9078 18.5692 63.7077 18.5908 63.4707 18.5969C63.0522 18.6093 62.6752 18.5462 62.3397 18.4077C62.0042 18.2661 61.738 18.0476 61.5411 17.7521C61.3472 17.4567 61.2518 17.0874 61.2548 16.6442V9.71023ZM68.7393 18.6385C68.0468 18.6385 67.4467 18.4862 66.9389 18.1815C66.4311 17.8768 66.0371 17.4505 65.7571 16.9027C65.4801 16.3549 65.3416 15.7147 65.3416 14.9822C65.3416 14.2498 65.4801 13.6081 65.7571 13.0572C66.0371 12.5063 66.4311 12.0785 66.9389 11.7738C67.4467 11.4691 68.0468 11.3168 68.7393 11.3168C69.4318 11.3168 70.0319 11.4691 70.5397 11.7738C71.0475 12.0785 71.4399 12.5063 71.7169 13.0572C71.997 13.6081 72.137 14.2498 72.137 14.9822C72.137 15.7147 71.997 16.3549 71.7169 16.9027C71.4399 17.4505 71.0475 17.8768 70.5397 18.1815C70.0319 18.4862 69.4318 18.6385 68.7393 18.6385ZM68.7485 17.2997C69.124 17.2997 69.4379 17.1966 69.6903 16.9904C69.9427 16.7811 70.1304 16.5011 70.2535 16.1502C70.3797 15.7994 70.4428 15.4085 70.4428 14.9776C70.4428 14.5437 70.3797 14.1513 70.2535 13.8004C70.1304 13.4465 69.9427 13.1649 69.6903 12.9556C69.4379 12.7463 69.124 12.6417 68.7485 12.6417C68.3638 12.6417 68.0438 12.7463 67.7883 12.9556C67.5359 13.1649 67.3467 13.4465 67.2205 13.8004C67.0974 14.1513 67.0358 14.5437 67.0358 14.9776C67.0358 15.4085 67.0974 15.7994 67.2205 16.1502C67.3467 16.5011 67.5359 16.7811 67.7883 16.9904C68.0438 17.1966 68.3638 17.2997 68.7485 17.2997ZM76.7801 21.1591V11.4091H78.4235V12.5817H78.5205C78.6066 12.4093 78.7282 12.2262 78.8852 12.0323C79.0421 11.8353 79.2545 11.6676 79.5222 11.5291C79.79 11.3875 80.1316 11.3168 80.5471 11.3168C81.0949 11.3168 81.5889 11.4568 82.029 11.7369C82.4722 12.0138 82.823 12.4247 83.0815 12.9695C83.3431 13.5111 83.4739 14.1759 83.4739 14.9638C83.4739 15.7424 83.3462 16.4041 83.0908 16.9489C82.8353 17.4936 82.4876 17.9091 82.0475 18.1953C81.6073 18.4815 81.1088 18.6246 80.5517 18.6246C80.1455 18.6246 79.8085 18.5569 79.5407 18.4215C79.2729 18.2861 79.0575 18.123 78.8944 17.9322C78.7344 17.7383 78.6097 17.5552 78.5205 17.3828H78.4512V21.1591H76.7801ZM78.4189 14.9545C78.4189 15.4131 78.4835 15.8147 78.6128 16.1594C78.7451 16.5041 78.9344 16.7734 79.1806 16.9673C79.4299 17.1581 79.7315 17.2536 80.0854 17.2536C80.4548 17.2536 80.7641 17.1551 81.0134 16.9581C81.2627 16.758 81.4504 16.4857 81.5766 16.141C81.7058 15.7932 81.7705 15.3977 81.7705 14.9545C81.7705 14.5144 81.7074 14.1236 81.5812 13.782C81.455 13.4403 81.2673 13.1726 81.018 12.9787C80.7687 12.7848 80.4578 12.6879 80.0854 12.6879C79.7284 12.6879 79.4253 12.7817 79.176 12.9695C78.9267 13.1572 78.7374 13.4203 78.6082 13.7589C78.482 14.0974 78.4189 14.496 78.4189 14.9545ZM86.9455 18.6431C86.4962 18.6431 86.0915 18.5631 85.7314 18.4031C85.3744 18.2399 85.0912 17.9999 84.882 17.6829C84.6758 17.3659 84.5727 16.975 84.5727 16.5103C84.5727 16.1102 84.6465 15.7794 84.7943 15.5178C84.942 15.2562 85.1436 15.0469 85.399 14.8899C85.6545 14.733 85.9422 14.6145 86.2623 14.5344C86.5854 14.4513 86.9194 14.3913 87.2641 14.3544C87.6796 14.3113 88.0166 14.2728 88.2751 14.239C88.5336 14.2021 88.7213 14.1467 88.8383 14.0728C88.9583 13.9959 89.0183 13.8774 89.0183 13.7173V13.6896C89.0183 13.3419 88.9152 13.0726 88.709 12.8817C88.5028 12.6909 88.2058 12.5955 87.818 12.5955C87.4087 12.5955 87.084 12.6848 86.844 12.8633C86.607 13.0418 86.447 13.2526 86.3639 13.4957L84.8035 13.2741C84.9266 12.8433 85.1297 12.4832 85.4129 12.1939C85.696 11.9015 86.0422 11.683 86.4516 11.5384C86.8609 11.3906 87.3133 11.3168 87.8088 11.3168C88.1504 11.3168 88.4905 11.3568 88.8291 11.4368C89.1676 11.5168 89.4769 11.6491 89.757 11.8338C90.037 12.0154 90.2617 12.2631 90.431 12.5771C90.6033 12.891 90.6895 13.2834 90.6895 13.7543V18.5H89.083V17.5259H89.0276C88.926 17.7229 88.7829 17.9076 88.5982 18.0799C88.4167 18.2492 88.1874 18.3861 87.9104 18.4908C87.6365 18.5923 87.3149 18.6431 86.9455 18.6431ZM87.3795 17.4151C87.7149 17.4151 88.0058 17.349 88.252 17.2166C88.4982 17.0812 88.6875 16.9027 88.8198 16.6811C88.9552 16.4595 89.0229 16.2179 89.0229 15.9563V15.1207C88.9706 15.1638 88.8814 15.2038 88.7552 15.2408C88.6321 15.2777 88.4936 15.31 88.3397 15.3377C88.1858 15.3654 88.0335 15.39 87.8827 15.4116C87.7319 15.4331 87.6011 15.4516 87.4903 15.467C87.241 15.5008 87.0179 15.5562 86.8209 15.6332C86.6239 15.7101 86.4685 15.8178 86.3546 15.9563C86.2408 16.0917 86.1838 16.2672 86.1838 16.4826C86.1838 16.7904 86.2962 17.0227 86.5208 17.1797C86.7455 17.3366 87.0317 17.4151 87.3795 17.4151ZM95.4537 21.3068C94.8536 21.3068 94.3381 21.2253 93.9072 21.0621C93.4763 20.9021 93.1301 20.6867 92.8685 20.4158C92.6069 20.145 92.4253 19.8449 92.3237 19.5156L93.8287 19.1509C93.8964 19.2894 93.9949 19.4264 94.1242 19.5618C94.2534 19.7003 94.4273 19.8142 94.6458 19.9034C94.8674 19.9957 95.1459 20.0419 95.4814 20.0419C95.9554 20.0419 96.3478 19.9265 96.6586 19.6957C96.9694 19.4679 97.1249 19.0924 97.1249 18.5692V17.2259H97.0418C96.9556 17.3982 96.8294 17.5752 96.6632 17.7567C96.5001 17.9383 96.2831 18.0907 96.0123 18.2138C95.7445 18.3369 95.4075 18.3984 95.0013 18.3984C94.4565 18.3984 93.9626 18.2707 93.5194 18.0153C93.0793 17.7567 92.7284 17.372 92.4668 16.8612C92.2083 16.3472 92.0791 15.704 92.0791 14.9315C92.0791 14.1528 92.2083 13.4957 92.4668 12.9602C92.7284 12.4216 93.0808 12.0138 93.524 11.7369C93.9672 11.4568 94.4612 11.3168 95.0059 11.3168C95.4214 11.3168 95.763 11.3875 96.0308 11.5291C96.3016 11.6676 96.517 11.8353 96.6771 12.0323C96.8371 12.2262 96.9587 12.4093 97.0418 12.5817H97.1341V11.4091H98.7822V18.6154C98.7822 19.2217 98.6375 19.7234 98.3482 20.1204C98.0589 20.5174 97.6635 20.8144 97.1618 21.0114C96.6601 21.2083 96.0908 21.3068 95.4537 21.3068ZM95.4676 17.0874C95.8215 17.0874 96.1231 17.0012 96.3724 16.8288C96.6217 16.6565 96.8109 16.4087 96.9402 16.0856C97.0695 15.7624 97.1341 15.3746 97.1341 14.9222C97.1341 14.476 97.0695 14.0851 96.9402 13.7496C96.814 13.4142 96.6263 13.1541 96.377 12.9695C96.1308 12.7817 95.8276 12.6879 95.4676 12.6879C95.0952 12.6879 94.7843 12.7848 94.535 12.9787C94.2857 13.1726 94.098 13.4388 93.9718 13.7773C93.8456 14.1128 93.7825 14.4944 93.7825 14.9222C93.7825 15.3562 93.8456 15.7363 93.9718 16.0625C94.1011 16.3857 94.2903 16.638 94.5396 16.8196C94.792 16.9981 95.1013 17.0874 95.4676 17.0874ZM103.634 18.6385C102.923 18.6385 102.309 18.4908 101.792 18.1953C101.278 17.8968 100.883 17.4751 100.606 16.9304C100.329 16.3826 100.19 15.7378 100.19 14.9961C100.19 14.2667 100.329 13.6265 100.606 13.0756C100.886 12.5217 101.277 12.0908 101.778 11.783C102.28 11.4722 102.869 11.3168 103.546 11.3168C103.983 11.3168 104.396 11.3875 104.784 11.5291C105.174 11.6676 105.519 11.883 105.818 12.1754C106.119 12.4678 106.356 12.8402 106.529 13.2926C106.701 13.742 106.787 14.2775 106.787 14.8991V15.4116H100.975V14.2852H105.185C105.182 13.9651 105.113 13.6804 104.977 13.4311C104.842 13.1787 104.653 12.9802 104.41 12.8356C104.17 12.6909 103.89 12.6186 103.569 12.6186C103.228 12.6186 102.928 12.7017 102.669 12.8679C102.411 13.031 102.209 13.2464 102.064 13.5142C101.923 13.7789 101.851 14.0697 101.848 14.3867V15.37C101.848 15.7824 101.923 16.1364 102.074 16.4318C102.225 16.7242 102.435 16.9489 102.706 17.1058C102.977 17.2597 103.294 17.3366 103.657 17.3366C103.9 17.3366 104.12 17.3028 104.317 17.2351C104.514 17.1643 104.685 17.0612 104.83 16.9258C104.974 16.7904 105.084 16.6226 105.158 16.4226L106.718 16.598C106.619 17.0104 106.432 17.3705 106.155 17.6783C105.881 17.983 105.53 18.2199 105.102 18.3892C104.674 18.5554 104.185 18.6385 103.634 18.6385Z" fill="#DB0000"/>
</svg>
