<svg width="210" height="203" viewBox="0 0 210 203" fill="none" xmlns="http://www.w3.org/2000/svg">
<rect x="0.5" y="0.5" width="209" height="202" rx="17.0064" fill="#FDF0F0"/>
<rect x="0.5" y="0.5" width="209" height="202" rx="17.0064" stroke="#DB0000"/>
<path d="M33.8779 43.3574V27.3574H40.1904C41.404 27.3574 42.4378 27.5892 43.292 28.0527C44.1462 28.5111 44.7972 29.1491 45.2451 29.9668C45.6982 30.7793 45.9248 31.7168 45.9248 32.7793C45.9248 33.8418 45.6956 34.7793 45.2373 35.5918C44.779 36.4043 44.1149 37.0371 43.2451 37.4902C42.3805 37.9434 41.3337 38.1699 40.1045 38.1699H36.0811V35.459H39.5576C40.2087 35.459 40.7451 35.347 41.167 35.123C41.5941 34.8939 41.9118 34.5788 42.1201 34.1777C42.3337 33.7715 42.4404 33.3053 42.4404 32.7793C42.4404 32.248 42.3337 31.7845 42.1201 31.3887C41.9118 30.9876 41.5941 30.6777 41.167 30.459C40.7399 30.235 40.1982 30.123 39.542 30.123H37.2607V43.3574H33.8779ZM48.0596 43.3574V31.3574H51.2861V33.4512H51.4111C51.6299 32.7064 51.9971 32.1439 52.5127 31.7637C53.0283 31.3783 53.6221 31.1855 54.2939 31.1855C54.4606 31.1855 54.6403 31.196 54.833 31.2168C55.0257 31.2376 55.195 31.2663 55.3408 31.3027V34.2559C55.1846 34.209 54.9684 34.1673 54.6924 34.1309C54.4163 34.0944 54.1637 34.0762 53.9346 34.0762C53.445 34.0762 53.0075 34.1829 52.6221 34.3965C52.2419 34.6048 51.9398 34.8965 51.7158 35.2715C51.4971 35.6465 51.3877 36.0788 51.3877 36.5684V43.3574H48.0596ZM61.9248 43.5918C60.7113 43.5918 59.6618 43.334 58.7764 42.8184C57.8962 42.2975 57.2165 41.5736 56.7373 40.6465C56.2581 39.7142 56.0186 38.6335 56.0186 37.4043C56.0186 36.1647 56.2581 35.0814 56.7373 34.1543C57.2165 33.222 57.8962 32.498 58.7764 31.9824C59.6618 31.4616 60.7113 31.2012 61.9248 31.2012C63.1383 31.2012 64.1852 31.4616 65.0654 31.9824C65.9508 32.498 66.6331 33.222 67.1123 34.1543C67.5915 35.0814 67.8311 36.1647 67.8311 37.4043C67.8311 38.6335 67.5915 39.7142 67.1123 40.6465C66.6331 41.5736 65.9508 42.2975 65.0654 42.8184C64.1852 43.334 63.1383 43.5918 61.9248 43.5918ZM61.9404 41.0137C62.4925 41.0137 62.9535 40.8574 63.3232 40.5449C63.693 40.2272 63.9717 39.7949 64.1592 39.248C64.3519 38.7012 64.4482 38.0788 64.4482 37.3809C64.4482 36.6829 64.3519 36.0605 64.1592 35.5137C63.9717 34.9668 63.693 34.5345 63.3232 34.2168C62.9535 33.8991 62.4925 33.7402 61.9404 33.7402C61.3831 33.7402 60.9144 33.8991 60.5342 34.2168C60.1592 34.5345 59.8753 34.9668 59.6826 35.5137C59.4951 36.0605 59.4014 36.6829 59.4014 37.3809C59.4014 38.0788 59.4951 38.7012 59.6826 39.248C59.8753 39.7949 60.1592 40.2272 60.5342 40.5449C60.9144 40.8574 61.3831 41.0137 61.9404 41.0137ZM75.4014 48.1074C74.3232 48.1074 73.3988 47.959 72.6279 47.6621C71.8623 47.3704 71.2529 46.972 70.7998 46.4668C70.3467 45.9616 70.0524 45.3939 69.917 44.7637L72.9951 44.3496C73.0889 44.5892 73.2373 44.8132 73.4404 45.0215C73.6436 45.2298 73.9118 45.3965 74.2451 45.5215C74.5837 45.6517 74.9951 45.7168 75.4795 45.7168C76.2035 45.7168 76.7998 45.5397 77.2686 45.1855C77.7425 44.8366 77.9795 44.2507 77.9795 43.4277V41.2324H77.8389C77.693 41.5658 77.4743 41.8809 77.1826 42.1777C76.891 42.4746 76.516 42.7168 76.0576 42.9043C75.5993 43.0918 75.0524 43.1855 74.417 43.1855C73.516 43.1855 72.6956 42.9772 71.9561 42.5605C71.2217 42.1387 70.6357 41.4954 70.1982 40.6309C69.766 39.7611 69.5498 38.6621 69.5498 37.334C69.5498 35.9746 69.7712 34.8392 70.2139 33.9277C70.6566 33.0163 71.2451 32.334 71.9795 31.8809C72.7191 31.4277 73.529 31.2012 74.4092 31.2012C75.0811 31.2012 75.6436 31.3158 76.0967 31.5449C76.5498 31.7689 76.9144 32.0501 77.1904 32.3887C77.4717 32.722 77.6878 33.0501 77.8389 33.373H77.9639V31.3574H81.2686V43.4746C81.2686 44.4954 81.0186 45.3496 80.5186 46.0371C80.0186 46.7246 79.3258 47.2402 78.4404 47.584C77.5602 47.9329 76.5472 48.1074 75.4014 48.1074ZM75.4717 40.6855C76.0081 40.6855 76.4613 40.5527 76.8311 40.2871C77.2061 40.0163 77.4925 39.6309 77.6904 39.1309C77.8936 38.6257 77.9951 38.0215 77.9951 37.3184C77.9951 36.6152 77.8962 36.0059 77.6982 35.4902C77.5003 34.9694 77.2139 34.5658 76.8389 34.2793C76.4639 33.9928 76.0081 33.8496 75.4717 33.8496C74.9248 33.8496 74.4639 33.998 74.0889 34.2949C73.7139 34.5866 73.43 34.9928 73.2373 35.5137C73.0446 36.0345 72.9482 36.6361 72.9482 37.3184C72.9482 38.0111 73.0446 38.61 73.2373 39.1152C73.4352 39.6152 73.7191 40.0033 74.0889 40.2793C74.4639 40.5501 74.9248 40.6855 75.4717 40.6855ZM83.917 43.3574V31.3574H87.1436V33.4512H87.2686C87.4873 32.7064 87.8545 32.1439 88.3701 31.7637C88.8857 31.3783 89.4795 31.1855 90.1514 31.1855C90.318 31.1855 90.4977 31.196 90.6904 31.2168C90.8831 31.2376 91.0524 31.2663 91.1982 31.3027V34.2559C91.042 34.209 90.8258 34.1673 90.5498 34.1309C90.2738 34.0944 90.0212 34.0762 89.792 34.0762C89.3024 34.0762 88.8649 34.1829 88.4795 34.3965C88.0993 34.6048 87.7972 34.8965 87.5732 35.2715C87.3545 35.6465 87.2451 36.0788 87.2451 36.5684V43.3574H83.917ZM97.8291 43.5918C96.5947 43.5918 95.5322 43.3418 94.6416 42.8418C93.7562 42.3366 93.0739 41.623 92.5947 40.7012C92.1156 39.7741 91.876 38.6777 91.876 37.4121C91.876 36.1777 92.1156 35.0944 92.5947 34.1621C93.0739 33.2298 93.7484 32.5033 94.6182 31.9824C95.4932 31.4616 96.5192 31.2012 97.6963 31.2012C98.488 31.2012 99.2249 31.3288 99.9072 31.584C100.595 31.834 101.194 32.2116 101.704 32.7168C102.22 33.222 102.621 33.8574 102.907 34.623C103.194 35.3835 103.337 36.2741 103.337 37.2949V38.209H93.2041V36.1465H100.204C100.204 35.6673 100.1 35.2428 99.8916 34.873C99.6833 34.5033 99.3942 34.2142 99.0244 34.0059C98.6598 33.7923 98.2354 33.6855 97.751 33.6855C97.2458 33.6855 96.7979 33.8027 96.4072 34.0371C96.0218 34.2663 95.7197 34.5762 95.501 34.9668C95.2822 35.3522 95.1702 35.7819 95.165 36.2559V38.2168C95.165 38.8105 95.2744 39.3236 95.4932 39.7559C95.7171 40.1882 96.0322 40.5215 96.4385 40.7559C96.8447 40.9902 97.3265 41.1074 97.8838 41.1074C98.2536 41.1074 98.5921 41.0553 98.8994 40.9512C99.2067 40.847 99.4697 40.6908 99.6885 40.4824C99.9072 40.2741 100.074 40.0189 100.188 39.7168L103.267 39.9199C103.11 40.6595 102.79 41.3053 102.306 41.8574C101.826 42.4043 101.207 42.8314 100.446 43.1387C99.6911 43.4408 98.8187 43.5918 97.8291 43.5918ZM115.493 34.7793L112.446 34.9668C112.394 34.7064 112.282 34.472 112.11 34.2637C111.938 34.0501 111.712 33.8809 111.431 33.7559C111.155 33.6257 110.824 33.5605 110.438 33.5605C109.923 33.5605 109.488 33.6699 109.134 33.8887C108.78 34.1022 108.603 34.3887 108.603 34.748C108.603 35.0345 108.717 35.2767 108.946 35.4746C109.175 35.6725 109.569 35.8314 110.126 35.9512L112.298 36.3887C113.465 36.6283 114.334 37.0137 114.907 37.5449C115.48 38.0762 115.767 38.7741 115.767 39.6387C115.767 40.4251 115.535 41.1152 115.071 41.709C114.613 42.3027 113.983 42.7663 113.181 43.0996C112.384 43.4277 111.465 43.5918 110.423 43.5918C108.834 43.5918 107.569 43.2611 106.626 42.5996C105.688 41.9329 105.139 41.0267 104.978 39.8809L108.251 39.709C108.35 40.1934 108.59 40.5632 108.97 40.8184C109.35 41.0684 109.837 41.1934 110.431 41.1934C111.014 41.1934 111.483 41.0814 111.837 40.8574C112.196 40.6283 112.379 40.334 112.384 39.9746C112.379 39.6725 112.251 39.4251 112.001 39.2324C111.751 39.0345 111.366 38.8835 110.845 38.7793L108.767 38.3652C107.595 38.1309 106.722 37.7246 106.149 37.1465C105.582 36.5684 105.298 35.8314 105.298 34.9355C105.298 34.1647 105.506 33.5007 105.923 32.9434C106.345 32.3861 106.936 31.9564 107.696 31.6543C108.462 31.3522 109.358 31.2012 110.384 31.2012C111.899 31.2012 113.092 31.5215 113.962 32.1621C114.837 32.8027 115.347 33.6751 115.493 34.7793ZM127.847 34.7793L124.8 34.9668C124.748 34.7064 124.636 34.472 124.464 34.2637C124.292 34.0501 124.065 33.8809 123.784 33.7559C123.508 33.6257 123.177 33.5605 122.792 33.5605C122.276 33.5605 121.841 33.6699 121.487 33.8887C121.133 34.1022 120.956 34.3887 120.956 34.748C120.956 35.0345 121.071 35.2767 121.3 35.4746C121.529 35.6725 121.922 35.8314 122.479 35.9512L124.651 36.3887C125.818 36.6283 126.688 37.0137 127.261 37.5449C127.834 38.0762 128.12 38.7741 128.12 39.6387C128.12 40.4251 127.888 41.1152 127.425 41.709C126.966 42.3027 126.336 42.7663 125.534 43.0996C124.737 43.4277 123.818 43.5918 122.776 43.5918C121.188 43.5918 119.922 43.2611 118.979 42.5996C118.042 41.9329 117.493 41.0267 117.331 39.8809L120.604 39.709C120.703 40.1934 120.943 40.5632 121.323 40.8184C121.703 41.0684 122.19 41.1934 122.784 41.1934C123.368 41.1934 123.836 41.0814 124.19 40.8574C124.55 40.6283 124.732 40.334 124.737 39.9746C124.732 39.6725 124.604 39.4251 124.354 39.2324C124.104 39.0345 123.719 38.8835 123.198 38.7793L121.12 38.3652C119.948 38.1309 119.076 37.7246 118.503 37.1465C117.935 36.5684 117.651 35.8314 117.651 34.9355C117.651 34.1647 117.86 33.5007 118.276 32.9434C118.698 32.3861 119.289 31.9564 120.05 31.6543C120.815 31.3522 121.711 31.2012 122.737 31.2012C124.253 31.2012 125.446 31.5215 126.315 32.1621C127.19 32.8027 127.701 33.6751 127.847 34.7793ZM39.5498 65.3574H33.8779V49.3574H39.5967C41.2061 49.3574 42.5915 49.6777 43.7529 50.3184C44.9144 50.9538 45.8076 51.8678 46.4326 53.0605C47.0628 54.2533 47.3779 55.6803 47.3779 57.3418C47.3779 59.0085 47.0628 60.4408 46.4326 61.6387C45.8076 62.8366 44.9092 63.7559 43.7373 64.3965C42.5706 65.0371 41.1748 65.3574 39.5498 65.3574ZM37.2607 62.459H39.4092C40.4092 62.459 41.2503 62.2819 41.9326 61.9277C42.6201 61.5684 43.1357 61.0137 43.4795 60.2637C43.8285 59.5085 44.0029 58.5345 44.0029 57.3418C44.0029 56.1595 43.8285 55.1934 43.4795 54.4434C43.1357 53.6934 42.6227 53.1413 41.9404 52.7871C41.2581 52.4329 40.417 52.2559 39.417 52.2559H37.2607V62.459ZM53.2432 65.584C52.4775 65.584 51.7952 65.4512 51.1963 65.1855C50.5973 64.9147 50.1234 64.5163 49.7744 63.9902C49.4307 63.459 49.2588 62.7975 49.2588 62.0059C49.2588 61.3392 49.3812 60.7793 49.626 60.3262C49.8708 59.873 50.2041 59.5085 50.626 59.2324C51.0479 58.9564 51.527 58.748 52.0635 58.6074C52.6051 58.4668 53.1729 58.3678 53.7666 58.3105C54.4645 58.2376 55.027 58.1699 55.4541 58.1074C55.8812 58.0397 56.1911 57.9408 56.3838 57.8105C56.5765 57.6803 56.6729 57.4876 56.6729 57.2324V57.1855C56.6729 56.6908 56.5166 56.3079 56.2041 56.0371C55.8968 55.7663 55.4593 55.6309 54.8916 55.6309C54.2926 55.6309 53.8161 55.7637 53.4619 56.0293C53.1077 56.2897 52.8734 56.6178 52.7588 57.0137L49.6807 56.7637C49.8369 56.0345 50.1442 55.4043 50.6025 54.873C51.0609 54.3366 51.652 53.9251 52.376 53.6387C53.1051 53.347 53.9489 53.2012 54.9072 53.2012C55.5739 53.2012 56.2119 53.2793 56.8213 53.4355C57.4359 53.5918 57.9801 53.834 58.4541 54.1621C58.9333 54.4902 59.3109 54.9121 59.5869 55.4277C59.863 55.9382 60.001 56.5501 60.001 57.2637V65.3574H56.8447V63.6934H56.751C56.5583 64.0684 56.3005 64.3991 55.9775 64.6855C55.6546 64.9668 55.2666 65.1882 54.8135 65.3496C54.3604 65.5059 53.8369 65.584 53.2432 65.584ZM54.1963 63.2871C54.6859 63.2871 55.1182 63.1908 55.4932 62.998C55.8682 62.8001 56.1624 62.5345 56.376 62.2012C56.5895 61.8678 56.6963 61.4902 56.6963 61.0684V59.7949C56.5921 59.8626 56.4489 59.9251 56.2666 59.9824C56.0895 60.0345 55.889 60.084 55.665 60.1309C55.4411 60.1725 55.2171 60.2116 54.9932 60.248C54.7692 60.2793 54.5661 60.3079 54.3838 60.334C53.9932 60.3913 53.652 60.4824 53.3604 60.6074C53.0687 60.7324 52.8421 60.9017 52.6807 61.1152C52.5192 61.3236 52.4385 61.584 52.4385 61.8965C52.4385 62.3496 52.6025 62.696 52.9307 62.9355C53.264 63.1699 53.6859 63.2871 54.1963 63.2871ZM72.5674 56.7793L69.5205 56.9668C69.4684 56.7064 69.3564 56.472 69.1846 56.2637C69.0127 56.0501 68.7861 55.8809 68.5049 55.7559C68.2288 55.6257 67.8981 55.5605 67.5127 55.5605C66.9971 55.5605 66.5622 55.6699 66.208 55.8887C65.8538 56.1022 65.6768 56.3887 65.6768 56.748C65.6768 57.0345 65.7913 57.2767 66.0205 57.4746C66.2497 57.6725 66.6429 57.8314 67.2002 57.9512L69.3721 58.3887C70.5387 58.6283 71.4085 59.0137 71.9814 59.5449C72.5544 60.0762 72.8408 60.7741 72.8408 61.6387C72.8408 62.4251 72.6091 63.1152 72.1455 63.709C71.6872 64.3027 71.057 64.7663 70.2549 65.0996C69.458 65.4277 68.5387 65.5918 67.4971 65.5918C65.9085 65.5918 64.6429 65.2611 63.7002 64.5996C62.7627 63.9329 62.2132 63.0267 62.0518 61.8809L65.3252 61.709C65.4242 62.1934 65.6637 62.5632 66.0439 62.8184C66.4242 63.0684 66.9111 63.1934 67.5049 63.1934C68.0882 63.1934 68.557 63.0814 68.9111 62.8574C69.2705 62.6283 69.4528 62.334 69.458 61.9746C69.4528 61.6725 69.3252 61.4251 69.0752 61.2324C68.8252 61.0345 68.4398 60.8835 67.9189 60.7793L65.8408 60.3652C64.6689 60.1309 63.7965 59.7246 63.2236 59.1465C62.6559 58.5684 62.3721 57.8314 62.3721 56.9355C62.3721 56.1647 62.5804 55.5007 62.9971 54.9434C63.4189 54.3861 64.0101 53.9564 64.7705 53.6543C65.5361 53.3522 66.432 53.2012 67.458 53.2012C68.9736 53.2012 70.1663 53.5215 71.0361 54.1621C71.9111 54.8027 72.4215 55.6751 72.5674 56.7793ZM78.2646 58.4199V65.3574H74.9365V49.3574H78.1709V55.4746H78.3115C78.5824 54.7663 79.0199 54.2116 79.624 53.8105C80.2282 53.4043 80.986 53.2012 81.8975 53.2012C82.7308 53.2012 83.4574 53.3835 84.0771 53.748C84.7021 54.1074 85.1865 54.6257 85.5303 55.3027C85.8792 55.9746 86.0511 56.7793 86.0459 57.7168V65.3574H82.7178V58.3105C82.723 57.571 82.5355 56.9954 82.1553 56.584C81.7803 56.1725 81.2542 55.9668 80.5771 55.9668C80.124 55.9668 79.723 56.0632 79.374 56.2559C79.0303 56.4486 78.7594 56.7298 78.5615 57.0996C78.3688 57.4642 78.2699 57.9043 78.2646 58.4199ZM88.7275 65.3574V49.3574H92.0557V55.373H92.1572C92.3031 55.0501 92.514 54.722 92.79 54.3887C93.0713 54.0501 93.4359 53.7689 93.8838 53.5449C94.3369 53.3158 94.8994 53.2012 95.5713 53.2012C96.4463 53.2012 97.2536 53.4303 97.9932 53.8887C98.7327 54.3418 99.3239 55.0267 99.7666 55.9434C100.209 56.8548 100.431 57.998 100.431 59.373C100.431 60.7116 100.215 61.8418 99.7822 62.7637C99.3551 63.6803 98.7718 64.3757 98.0322 64.8496C97.2979 65.3184 96.4749 65.5527 95.5635 65.5527C94.9176 65.5527 94.3682 65.446 93.915 65.2324C93.4671 65.0189 93.0999 64.7507 92.8135 64.4277C92.527 64.0996 92.3083 63.7689 92.1572 63.4355H92.0088V65.3574H88.7275ZM91.9854 59.3574C91.9854 60.071 92.0843 60.6934 92.2822 61.2246C92.4801 61.7559 92.7666 62.1699 93.1416 62.4668C93.5166 62.7585 93.9723 62.9043 94.5088 62.9043C95.0505 62.9043 95.5088 62.7559 95.8838 62.459C96.2588 62.1569 96.5426 61.7402 96.7354 61.209C96.9333 60.6725 97.0322 60.0553 97.0322 59.3574C97.0322 58.6647 96.9359 58.0553 96.7432 57.5293C96.5505 57.0033 96.2666 56.5918 95.8916 56.2949C95.5166 55.998 95.0557 55.8496 94.5088 55.8496C93.9671 55.8496 93.5088 55.9928 93.1338 56.2793C92.764 56.5658 92.4801 56.972 92.2822 57.498C92.0843 58.0241 91.9854 58.6439 91.9854 59.3574ZM108.073 65.5918C106.86 65.5918 105.81 65.334 104.925 64.8184C104.045 64.2975 103.365 63.5736 102.886 62.6465C102.407 61.7142 102.167 60.6335 102.167 59.4043C102.167 58.1647 102.407 57.0814 102.886 56.1543C103.365 55.222 104.045 54.498 104.925 53.9824C105.81 53.4616 106.86 53.2012 108.073 53.2012C109.287 53.2012 110.334 53.4616 111.214 53.9824C112.099 54.498 112.782 55.222 113.261 56.1543C113.74 57.0814 113.979 58.1647 113.979 59.4043C113.979 60.6335 113.74 61.7142 113.261 62.6465C112.782 63.5736 112.099 64.2975 111.214 64.8184C110.334 65.334 109.287 65.5918 108.073 65.5918ZM108.089 63.0137C108.641 63.0137 109.102 62.8574 109.472 62.5449C109.841 62.2272 110.12 61.7949 110.308 61.248C110.5 60.7012 110.597 60.0788 110.597 59.3809C110.597 58.6829 110.5 58.0605 110.308 57.5137C110.12 56.9668 109.841 56.5345 109.472 56.2168C109.102 55.8991 108.641 55.7402 108.089 55.7402C107.532 55.7402 107.063 55.8991 106.683 56.2168C106.308 56.5345 106.024 56.9668 105.831 57.5137C105.644 58.0605 105.55 58.6829 105.55 59.3809C105.55 60.0788 105.644 60.7012 105.831 61.248C106.024 61.7949 106.308 62.2272 106.683 62.5449C107.063 62.8574 107.532 63.0137 108.089 63.0137ZM119.565 65.584C118.8 65.584 118.118 65.4512 117.519 65.1855C116.92 64.9147 116.446 64.5163 116.097 63.9902C115.753 63.459 115.581 62.7975 115.581 62.0059C115.581 61.3392 115.703 60.7793 115.948 60.3262C116.193 59.873 116.526 59.5085 116.948 59.2324C117.37 58.9564 117.849 58.748 118.386 58.6074C118.927 58.4668 119.495 58.3678 120.089 58.3105C120.787 58.2376 121.349 58.1699 121.776 58.1074C122.203 58.0397 122.513 57.9408 122.706 57.8105C122.899 57.6803 122.995 57.4876 122.995 57.2324V57.1855C122.995 56.6908 122.839 56.3079 122.526 56.0371C122.219 55.7663 121.782 55.6309 121.214 55.6309C120.615 55.6309 120.138 55.7637 119.784 56.0293C119.43 56.2897 119.196 56.6178 119.081 57.0137L116.003 56.7637C116.159 56.0345 116.466 55.4043 116.925 54.873C117.383 54.3366 117.974 53.9251 118.698 53.6387C119.427 53.347 120.271 53.2012 121.229 53.2012C121.896 53.2012 122.534 53.2793 123.144 53.4355C123.758 53.5918 124.302 53.834 124.776 54.1621C125.256 54.4902 125.633 54.9121 125.909 55.4277C126.185 55.9382 126.323 56.5501 126.323 57.2637V65.3574H123.167V63.6934H123.073C122.881 64.0684 122.623 64.3991 122.3 64.6855C121.977 64.9668 121.589 65.1882 121.136 65.3496C120.683 65.5059 120.159 65.584 119.565 65.584ZM120.519 63.2871C121.008 63.2871 121.44 63.1908 121.815 62.998C122.19 62.8001 122.485 62.5345 122.698 62.2012C122.912 61.8678 123.019 61.4902 123.019 61.0684V59.7949C122.914 59.8626 122.771 59.9251 122.589 59.9824C122.412 60.0345 122.211 60.084 121.987 60.1309C121.763 60.1725 121.539 60.2116 121.315 60.248C121.091 60.2793 120.888 60.3079 120.706 60.334C120.315 60.3913 119.974 60.4824 119.683 60.6074C119.391 60.7324 119.164 60.9017 119.003 61.1152C118.841 61.3236 118.761 61.584 118.761 61.8965C118.761 62.3496 118.925 62.696 119.253 62.9355C119.586 63.1699 120.008 63.2871 120.519 63.2871ZM128.905 65.3574V53.3574H132.132V55.4512H132.257C132.476 54.7064 132.843 54.1439 133.358 53.7637C133.874 53.3783 134.468 53.1855 135.14 53.1855C135.306 53.1855 135.486 53.196 135.679 53.2168C135.871 53.2376 136.041 53.2663 136.187 53.3027V56.2559C136.03 56.209 135.814 56.1673 135.538 56.1309C135.262 56.0944 135.009 56.0762 134.78 56.0762C134.291 56.0762 133.853 56.1829 133.468 56.3965C133.088 56.6048 132.785 56.8965 132.562 57.2715C132.343 57.6465 132.233 58.0788 132.233 58.5684V65.3574H128.905ZM141.771 65.5527C140.859 65.5527 140.034 65.3184 139.294 64.8496C138.56 64.3757 137.976 63.6803 137.544 62.7637C137.117 61.8418 136.903 60.7116 136.903 59.373C136.903 57.998 137.125 56.8548 137.567 55.9434C138.01 55.0267 138.599 54.3418 139.333 53.8887C140.073 53.4303 140.882 53.2012 141.763 53.2012C142.435 53.2012 142.994 53.3158 143.442 53.5449C143.896 53.7689 144.26 54.0501 144.536 54.3887C144.817 54.722 145.031 55.0501 145.177 55.373H145.278V49.3574H148.599V65.3574H145.317V63.4355H145.177C145.021 63.7689 144.799 64.0996 144.513 64.4277C144.231 64.7507 143.864 65.0189 143.411 65.2324C142.963 65.446 142.416 65.5527 141.771 65.5527ZM142.825 62.9043C143.362 62.9043 143.815 62.7585 144.185 62.4668C144.56 62.1699 144.846 61.7559 145.044 61.2246C145.247 60.6934 145.349 60.071 145.349 59.3574C145.349 58.6439 145.25 58.0241 145.052 57.498C144.854 56.972 144.567 56.5658 144.192 56.2793C143.817 55.9928 143.362 55.8496 142.825 55.8496C142.278 55.8496 141.817 55.998 141.442 56.2949C141.067 56.5918 140.784 57.0033 140.591 57.5293C140.398 58.0553 140.302 58.6647 140.302 59.3574C140.302 60.0553 140.398 60.6725 140.591 61.209C140.789 61.7402 141.073 62.1569 141.442 62.459C141.817 62.7559 142.278 62.9043 142.825 62.9043Z" fill="#DB0000"/>
<rect x="32.5" y="151.5" width="113.321" height="27" rx="13.5" fill="white"/>
<rect x="32.5" y="151.5" width="113.321" height="27" rx="13.5" stroke="#DB0000"/>
<mask id="mask0_501_36081" style="mask-type:luminance" maskUnits="userSpaceOnUse" x="45" y="167" width="15" height="3">
<path d="M45.1299 167.777H59.1913V169.686H45.1299V167.777Z" fill="white"/>
</mask>
<g mask="url(#mask0_501_36081)">
<path d="M45.1299 167.812V168.281C45.13 168.327 45.1324 168.373 45.1369 168.419C45.1414 168.465 45.1482 168.51 45.1572 168.556C45.1663 168.601 45.1775 168.645 45.1908 168.689C45.2042 168.733 45.2198 168.777 45.2375 168.819C45.2551 168.862 45.2748 168.903 45.2964 168.944C45.3182 168.984 45.3418 169.024 45.3675 169.062C45.393 169.1 45.4205 169.137 45.4496 169.173C45.4788 169.209 45.5097 169.243 45.5422 169.275C45.5749 169.308 45.609 169.339 45.6446 169.368C45.68 169.397 45.717 169.424 45.7553 169.45C45.7935 169.476 45.833 169.499 45.8736 169.521C45.9142 169.543 45.9557 169.562 45.9983 169.58C46.0408 169.598 46.084 169.613 46.1281 169.627C46.1721 169.64 46.2168 169.651 46.2619 169.66C46.307 169.669 46.3525 169.676 46.3984 169.681C46.4441 169.685 46.4901 169.687 46.5361 169.687H57.7852C57.8312 169.687 57.8772 169.685 57.923 169.681C57.9688 169.676 58.0142 169.669 58.0595 169.66C58.1046 169.651 58.1492 169.64 58.1932 169.627C58.2372 169.613 58.2806 169.598 58.323 169.58C58.3656 169.562 58.4072 169.543 58.4477 169.521C58.4883 169.499 58.5278 169.476 58.5661 169.45C58.6043 169.424 58.6413 169.397 58.6768 169.368C58.7124 169.339 58.7464 169.308 58.7791 169.275C58.8116 169.243 58.8425 169.209 58.8718 169.173C58.9008 169.137 58.9284 169.1 58.9539 169.062C58.9795 169.024 59.0032 168.984 59.0249 168.944C59.0465 168.903 59.0663 168.862 59.0839 168.819C59.1016 168.777 59.1171 168.733 59.1305 168.689C59.1439 168.645 59.1551 168.601 59.1641 168.556C59.1731 168.51 59.18 168.465 59.1845 168.419C59.189 168.373 59.1913 168.327 59.1913 168.281V167.812H45.1299Z" fill="#DB0000"/>
</g>
<path d="M49.3474 164.999C49.3474 164.969 49.3459 164.938 49.3428 164.907C49.3398 164.877 49.3353 164.847 49.3292 164.816C49.3232 164.786 49.3157 164.757 49.3069 164.727C49.2978 164.698 49.2876 164.669 49.2758 164.641C49.2641 164.612 49.2509 164.585 49.2364 164.558C49.222 164.531 49.2062 164.504 49.1891 164.479C49.172 164.453 49.1538 164.429 49.1344 164.405C49.1148 164.381 49.0943 164.359 49.0725 164.337C49.0509 164.315 49.0282 164.294 49.0044 164.275C48.9808 164.256 48.9561 164.237 48.9306 164.22C48.9051 164.203 48.8788 164.187 48.8517 164.173C48.8247 164.158 48.797 164.145 48.7687 164.134C48.7402 164.122 48.7115 164.111 48.6821 164.103C48.6527 164.094 48.623 164.086 48.5928 164.08C48.5628 164.074 48.5325 164.07 48.5019 164.067C48.4714 164.064 48.4408 164.062 48.4101 164.062H47.004C46.9732 164.062 46.9426 164.064 46.9121 164.067C46.8816 164.07 46.8513 164.074 46.8212 164.08C46.791 164.086 46.7613 164.094 46.7319 164.103C46.7025 164.111 46.6738 164.122 46.6455 164.134C46.617 164.145 46.5893 164.158 46.5623 164.173C46.5352 164.187 46.5089 164.203 46.4834 164.22C46.4579 164.237 46.4332 164.256 46.4096 164.275C46.3858 164.294 46.3631 164.315 46.3413 164.337C46.3197 164.359 46.299 164.381 46.2796 164.405C46.2601 164.429 46.2418 164.453 46.2249 164.479C46.2077 164.504 46.1919 164.531 46.1774 164.558C46.163 164.585 46.1499 164.612 46.1381 164.641C46.1263 164.669 46.116 164.698 46.107 164.727C46.0981 164.757 46.0907 164.786 46.0846 164.816C46.0785 164.847 46.074 164.877 46.0711 164.907C46.068 164.938 46.0664 164.969 46.0664 164.999V166.874H49.3474V164.999Z" fill="#DB0000"/>
<path d="M51.4568 162.188C51.426 162.188 51.3956 162.189 51.3649 162.192C51.3345 162.195 51.3041 162.2 51.274 162.206C51.244 162.212 51.2141 162.219 51.1847 162.228C51.1555 162.237 51.1266 162.248 51.0983 162.259C51.0698 162.271 51.0421 162.284 51.0151 162.299C50.988 162.313 50.9617 162.329 50.9362 162.346C50.9107 162.363 50.886 162.381 50.8624 162.401C50.8386 162.42 50.8159 162.441 50.7943 162.463C50.7725 162.484 50.752 162.507 50.7326 162.531C50.713 162.554 50.6948 162.579 50.6777 162.605C50.6606 162.63 50.6449 162.656 50.6304 162.683C50.6159 162.711 50.6029 162.738 50.5911 162.767C50.5792 162.795 50.569 162.824 50.56 162.853C50.5511 162.883 50.5436 162.912 50.5376 162.942C50.5317 162.972 50.5272 163.003 50.524 163.033C50.5211 163.064 50.5195 163.094 50.5195 163.125V166.875H53.8002V163.125C53.8002 163.094 53.7987 163.064 53.7957 163.033C53.7926 163.003 53.7881 162.972 53.7822 162.942C53.7761 162.912 53.7687 162.883 53.7598 162.853C53.7508 162.824 53.7405 162.795 53.7287 162.767C53.7169 162.738 53.7038 162.711 53.6894 162.683C53.6749 162.656 53.6591 162.63 53.6421 162.605C53.625 162.579 53.6068 162.554 53.5872 162.531C53.5678 162.507 53.5473 162.484 53.5255 162.463C53.5039 162.441 53.4812 162.42 53.4574 162.401C53.4336 162.381 53.409 162.363 53.3835 162.346C53.358 162.329 53.3318 162.313 53.3047 162.299C53.2776 162.284 53.25 162.271 53.2215 162.259C53.1932 162.248 53.1643 162.237 53.1349 162.228C53.1057 162.219 53.0758 162.212 53.0458 162.206C53.0156 162.2 52.9853 162.195 52.9548 162.192C52.9242 162.189 52.8936 162.188 52.8629 162.188H51.4568Z" fill="#DB0000"/>
<path d="M55.91 160.313C55.8793 160.313 55.8487 160.315 55.8181 160.318C55.7876 160.321 55.7573 160.325 55.7273 160.331C55.6971 160.337 55.6674 160.345 55.638 160.354C55.6086 160.363 55.5799 160.373 55.5514 160.385C55.5231 160.396 55.4954 160.41 55.4684 160.424C55.4413 160.438 55.415 160.454 55.3895 160.471C55.364 160.488 55.3393 160.507 55.3157 160.526C55.2919 160.546 55.2692 160.566 55.2476 160.588C55.2258 160.61 55.2053 160.632 55.1857 160.656C55.1662 160.68 55.1481 160.704 55.1309 160.73C55.1138 160.755 55.0981 160.782 55.0837 160.809C55.0692 160.836 55.056 160.863 55.0443 160.892C55.0325 160.92 55.0221 160.949 55.0132 160.978C55.0044 161.008 54.9969 161.037 54.9908 161.068C54.9848 161.098 54.9803 161.128 54.9773 161.159C54.9742 161.189 54.9727 161.22 54.9727 161.25V166.875H58.2537V161.25C58.2537 161.22 58.2521 161.189 58.2492 161.158C58.2461 161.128 58.2416 161.098 58.2355 161.067C58.2296 161.037 58.222 161.008 58.2131 160.978C58.2042 160.949 58.1938 160.92 58.182 160.892C58.1703 160.863 58.1571 160.836 58.1427 160.809C58.1282 160.781 58.1125 160.755 58.0954 160.73C58.0783 160.704 58.0601 160.68 58.0405 160.656C58.0211 160.632 58.0005 160.61 57.9788 160.588C57.957 160.566 57.9343 160.545 57.9107 160.526C57.8869 160.507 57.8623 160.488 57.8368 160.471C57.8112 160.454 57.7849 160.438 57.7578 160.424C57.7308 160.409 57.7031 160.396 57.6748 160.385C57.6463 160.373 57.6176 160.362 57.5882 160.354C57.5588 160.345 57.5291 160.337 57.4989 160.331C57.4688 160.325 57.4384 160.321 57.408 160.318C57.3775 160.315 57.3469 160.313 57.3161 160.313H55.91Z" fill="#DB0000"/>
<path d="M71.7756 163.065C71.6987 162.815 71.5925 162.592 71.4571 162.395C71.3247 162.195 71.1647 162.024 70.977 161.883C70.7923 161.741 70.5799 161.635 70.3399 161.564C70.0998 161.49 69.8382 161.453 69.5551 161.453C69.0473 161.453 68.5949 161.581 68.1978 161.837C67.8008 162.092 67.4884 162.468 67.2607 162.963C67.036 163.455 66.9237 164.056 66.9237 164.763C66.9237 165.478 67.036 166.082 67.2607 166.578C67.4854 167.073 67.7977 167.45 68.1978 167.709C68.5979 167.964 69.0627 168.092 69.592 168.092C70.0721 168.092 70.4876 168 70.8385 167.815C71.1924 167.63 71.4648 167.369 71.6556 167.03C71.8464 166.689 71.9418 166.288 71.9418 165.83L72.3296 165.89H69.7628V164.551H73.5991V165.687C73.5991 166.496 73.4268 167.196 73.0821 167.787C72.7374 168.378 72.2634 168.834 71.6602 169.154C71.057 169.471 70.3645 169.629 69.5828 169.629C68.7118 169.629 67.947 169.434 67.2884 169.043C66.6329 168.649 66.1204 168.09 65.7511 167.367C65.3849 166.641 65.2017 165.779 65.2017 164.782C65.2017 164.019 65.3095 163.337 65.5249 162.737C65.7434 162.137 66.0481 161.627 66.439 161.209C66.8298 160.787 67.2884 160.467 67.8147 160.249C68.341 160.027 68.9134 159.916 69.532 159.916C70.0552 159.916 70.543 159.993 70.9954 160.147C71.4478 160.298 71.8495 160.513 72.2003 160.793C72.5543 161.073 72.8451 161.406 73.0728 161.79C73.3006 162.175 73.4499 162.6 73.5206 163.065H71.7756ZM78.2745 169.638C77.582 169.638 76.9818 169.486 76.474 169.181C75.9662 168.877 75.5723 168.451 75.2922 167.903C75.0152 167.355 74.8767 166.715 74.8767 165.982C74.8767 165.25 75.0152 164.608 75.2922 164.057C75.5723 163.506 75.9662 163.078 76.474 162.774C76.9818 162.469 77.582 162.317 78.2745 162.317C78.9669 162.317 79.5671 162.469 80.0749 162.774C80.5827 163.078 80.9751 163.506 81.2521 164.057C81.5322 164.608 81.6722 165.25 81.6722 165.982C81.6722 166.715 81.5322 167.355 81.2521 167.903C80.9751 168.451 80.5827 168.877 80.0749 169.181C79.5671 169.486 78.9669 169.638 78.2745 169.638ZM78.2837 168.3C78.6592 168.3 78.9731 168.197 79.2255 167.99C79.4778 167.781 79.6656 167.501 79.7887 167.15C79.9148 166.799 79.9779 166.408 79.9779 165.978C79.9779 165.544 79.9148 165.151 79.7887 164.8C79.6656 164.446 79.4778 164.165 79.2255 163.956C78.9731 163.746 78.6592 163.642 78.2837 163.642C77.899 163.642 77.5789 163.746 77.3235 163.956C77.0711 164.165 76.8818 164.446 76.7556 164.8C76.6325 165.151 76.571 165.544 76.571 165.978C76.571 166.408 76.6325 166.799 76.7556 167.15C76.8818 167.501 77.0711 167.781 77.3235 167.99C77.5789 168.197 77.899 168.3 78.2837 168.3ZM89.856 162.409V163.702H85.7797V162.409H89.856ZM86.7861 160.71H88.4573V167.367C88.4573 167.592 88.4911 167.764 88.5588 167.884C88.6296 168.001 88.7219 168.081 88.8358 168.124C88.9497 168.167 89.0759 168.189 89.2144 168.189C89.319 168.189 89.4144 168.181 89.5006 168.166C89.5898 168.15 89.6575 168.137 89.7037 168.124L89.9853 169.431C89.8961 169.462 89.7683 169.495 89.6021 169.532C89.439 169.569 89.239 169.591 89.002 169.597C88.5834 169.609 88.2064 169.546 87.871 169.408C87.5355 169.266 87.2693 169.048 87.0723 168.752C86.8784 168.457 86.783 168.087 86.7861 167.644V160.71ZM94.2706 169.638C93.5781 169.638 92.9779 169.486 92.4701 169.181C91.9623 168.877 91.5684 168.451 91.2883 167.903C91.0113 167.355 90.8728 166.715 90.8728 165.982C90.8728 165.25 91.0113 164.608 91.2883 164.057C91.5684 163.506 91.9623 163.078 92.4701 162.774C92.9779 162.469 93.5781 162.317 94.2706 162.317C94.963 162.317 95.5632 162.469 96.071 162.774C96.5788 163.078 96.9712 163.506 97.2482 164.057C97.5282 164.608 97.6683 165.25 97.6683 165.982C97.6683 166.715 97.5282 167.355 97.2482 167.903C96.9712 168.451 96.5788 168.877 96.071 169.181C95.5632 169.486 94.963 169.638 94.2706 169.638ZM94.2798 168.3C94.6553 168.3 94.9692 168.197 95.2215 167.99C95.4739 167.781 95.6617 167.501 95.7848 167.15C95.9109 166.799 95.974 166.408 95.974 165.978C95.974 165.544 95.9109 165.151 95.7848 164.8C95.6617 164.446 95.4739 164.165 95.2215 163.956C94.9692 163.746 94.6553 163.642 94.2798 163.642C93.8951 163.642 93.575 163.746 93.3196 163.956C93.0672 164.165 92.8779 164.446 92.7517 164.8C92.6286 165.151 92.5671 165.544 92.5671 165.978C92.5671 166.408 92.6286 166.799 92.7517 167.15C92.8779 167.501 93.0672 167.781 93.3196 167.99C93.575 168.197 93.8951 168.3 94.2798 168.3ZM102.311 172.159V162.409H103.955V163.582H104.052C104.138 163.409 104.259 163.226 104.416 163.032C104.573 162.835 104.786 162.668 105.053 162.529C105.321 162.388 105.663 162.317 106.078 162.317C106.626 162.317 107.12 162.457 107.56 162.737C108.003 163.014 108.354 163.425 108.613 163.969C108.874 164.511 109.005 165.176 109.005 165.964C109.005 166.742 108.877 167.404 108.622 167.949C108.367 168.494 108.019 168.909 107.579 169.195C107.139 169.482 106.64 169.625 106.083 169.625C105.677 169.625 105.34 169.557 105.072 169.422C104.804 169.286 104.589 169.123 104.426 168.932C104.266 168.738 104.141 168.555 104.052 168.383H103.982V172.159H102.311ZM103.95 165.955C103.95 166.413 104.015 166.815 104.144 167.159C104.276 167.504 104.466 167.773 104.712 167.967C104.961 168.158 105.263 168.254 105.617 168.254C105.986 168.254 106.295 168.155 106.545 167.958C106.794 167.758 106.982 167.486 107.108 167.141C107.237 166.793 107.302 166.398 107.302 165.955C107.302 165.514 107.239 165.124 107.112 164.782C106.986 164.44 106.799 164.173 106.549 163.979C106.3 163.785 105.989 163.688 105.617 163.688C105.26 163.688 104.957 163.782 104.707 163.969C104.458 164.157 104.269 164.42 104.139 164.759C104.013 165.097 103.95 165.496 103.95 165.955ZM112.477 169.643C112.027 169.643 111.623 169.563 111.263 169.403C110.906 169.24 110.622 169 110.413 168.683C110.207 168.366 110.104 167.975 110.104 167.51C110.104 167.11 110.178 166.779 110.326 166.518C110.473 166.256 110.675 166.047 110.93 165.89C111.186 165.733 111.473 165.614 111.794 165.534C112.117 165.451 112.451 165.391 112.795 165.354C113.211 165.311 113.548 165.273 113.806 165.239C114.065 165.202 114.253 165.147 114.37 165.073C114.49 164.996 114.55 164.877 114.55 164.717V164.69C114.55 164.342 114.446 164.073 114.24 163.882C114.034 163.691 113.737 163.596 113.349 163.596C112.94 163.596 112.615 163.685 112.375 163.863C112.138 164.042 111.978 164.253 111.895 164.496L110.335 164.274C110.458 163.843 110.661 163.483 110.944 163.194C111.227 162.902 111.573 162.683 111.983 162.538C112.392 162.391 112.845 162.317 113.34 162.317C113.682 162.317 114.022 162.357 114.36 162.437C114.699 162.517 115.008 162.649 115.288 162.834C115.568 163.015 115.793 163.263 115.962 163.577C116.135 163.891 116.221 164.283 116.221 164.754V169.5H114.614V168.526H114.559C114.457 168.723 114.314 168.908 114.129 169.08C113.948 169.249 113.719 169.386 113.442 169.491C113.168 169.592 112.846 169.643 112.477 169.643ZM112.911 168.415C113.246 168.415 113.537 168.349 113.783 168.217C114.029 168.081 114.219 167.903 114.351 167.681C114.486 167.46 114.554 167.218 114.554 166.956V166.121C114.502 166.164 114.413 166.204 114.286 166.241C114.163 166.278 114.025 166.31 113.871 166.338C113.717 166.365 113.565 166.39 113.414 166.412C113.263 166.433 113.132 166.452 113.022 166.467C112.772 166.501 112.549 166.556 112.352 166.633C112.155 166.71 112 166.818 111.886 166.956C111.772 167.092 111.715 167.267 111.715 167.483C111.715 167.79 111.827 168.023 112.052 168.18C112.277 168.337 112.563 168.415 112.911 168.415ZM120.985 172.307C120.385 172.307 119.869 172.225 119.438 172.062C119.008 171.902 118.661 171.687 118.4 171.416C118.138 171.145 117.957 170.845 117.855 170.516L119.36 170.151C119.428 170.289 119.526 170.426 119.655 170.562C119.785 170.7 119.959 170.814 120.177 170.903C120.399 170.996 120.677 171.042 121.013 171.042C121.487 171.042 121.879 170.926 122.19 170.696C122.501 170.468 122.656 170.092 122.656 169.569V168.226H122.573C122.487 168.398 122.361 168.575 122.194 168.757C122.031 168.938 121.814 169.091 121.544 169.214C121.276 169.337 120.939 169.398 120.533 169.398C119.988 169.398 119.494 169.271 119.051 169.015C118.611 168.757 118.26 168.372 117.998 167.861C117.74 167.347 117.61 166.704 117.61 165.931C117.61 165.153 117.74 164.496 117.998 163.96C118.26 163.422 118.612 163.014 119.055 162.737C119.498 162.457 119.992 162.317 120.537 162.317C120.953 162.317 121.294 162.388 121.562 162.529C121.833 162.668 122.048 162.835 122.208 163.032C122.368 163.226 122.49 163.409 122.573 163.582H122.665V162.409H124.313V169.615C124.313 170.222 124.169 170.723 123.879 171.12C123.59 171.517 123.195 171.814 122.693 172.011C122.191 172.208 121.622 172.307 120.985 172.307ZM120.999 168.087C121.353 168.087 121.654 168.001 121.904 167.829C122.153 167.656 122.342 167.409 122.471 167.086C122.601 166.762 122.665 166.375 122.665 165.922C122.665 165.476 122.601 165.085 122.471 164.75C122.345 164.414 122.158 164.154 121.908 163.969C121.662 163.782 121.359 163.688 120.999 163.688C120.626 163.688 120.316 163.785 120.066 163.979C119.817 164.173 119.629 164.439 119.503 164.777C119.377 165.113 119.314 165.494 119.314 165.922C119.314 166.356 119.377 166.736 119.503 167.062C119.632 167.386 119.822 167.638 120.071 167.82C120.323 167.998 120.633 168.087 120.999 168.087ZM129.165 169.638C128.454 169.638 127.84 169.491 127.323 169.195C126.809 168.897 126.414 168.475 126.137 167.93C125.86 167.383 125.721 166.738 125.721 165.996C125.721 165.267 125.86 164.627 126.137 164.076C126.417 163.522 126.808 163.091 127.31 162.783C127.811 162.472 128.401 162.317 129.078 162.317C129.515 162.317 129.927 162.388 130.315 162.529C130.706 162.668 131.05 162.883 131.349 163.175C131.651 163.468 131.888 163.84 132.06 164.293C132.232 164.742 132.318 165.277 132.318 165.899V166.412H126.506V165.285H130.716C130.713 164.965 130.644 164.68 130.509 164.431C130.373 164.179 130.184 163.98 129.941 163.836C129.701 163.691 129.421 163.619 129.101 163.619C128.759 163.619 128.459 163.702 128.201 163.868C127.942 164.031 127.74 164.246 127.596 164.514C127.454 164.779 127.382 165.07 127.379 165.387V166.37C127.379 166.782 127.454 167.136 127.605 167.432C127.756 167.724 127.967 167.949 128.237 168.106C128.508 168.26 128.825 168.337 129.188 168.337C129.432 168.337 129.652 168.303 129.849 168.235C130.046 168.164 130.216 168.061 130.361 167.926C130.506 167.79 130.615 167.623 130.689 167.423L132.249 167.598C132.151 168.01 131.963 168.371 131.686 168.678C131.412 168.983 131.061 169.22 130.633 169.389C130.206 169.555 129.716 169.638 129.165 169.638Z" fill="#DB0000"/>
<path d="M33.5316 97.7441V88.2896H39.2376V89.3052H34.6765V92.4998H38.9421V93.5154H34.6765V96.7285H39.3114V97.7441H33.5316ZM46.9517 90.6532L44.3295 97.7441H43.2216L40.5994 90.6532H41.7812L43.7386 96.3038H43.8125L45.7699 90.6532H46.9517ZM50.2606 97.9103C49.8112 97.9103 49.4034 97.8257 49.0372 97.6564C48.671 97.4841 48.3801 97.2363 48.1647 96.9132C47.9492 96.5869 47.8415 96.193 47.8415 95.7314C47.8415 95.3251 47.9215 94.9958 48.0816 94.7434C48.2416 94.488 48.4555 94.2879 48.7233 94.1433C48.991 93.9986 49.2865 93.8909 49.6096 93.8201C49.9359 93.7463 50.2636 93.6878 50.593 93.6447C51.0238 93.5893 51.3731 93.5478 51.6409 93.5201C51.9117 93.4893 52.1087 93.4385 52.2318 93.3677C52.358 93.2969 52.4211 93.1738 52.4211 92.9984V92.9615C52.4211 92.506 52.2964 92.152 52.0471 91.8997C51.8009 91.6473 51.427 91.5211 50.9253 91.5211C50.4052 91.5211 49.9974 91.635 49.702 91.8627C49.4065 92.0905 49.1988 92.3336 49.0787 92.5922L48.0447 92.2228C48.2293 91.792 48.4755 91.4565 48.7833 91.2164C49.0941 90.9733 49.4327 90.804 49.7989 90.7086C50.1682 90.6101 50.5314 90.5609 50.8884 90.5609C51.1162 90.5609 51.3778 90.5886 51.6732 90.644C51.9717 90.6963 52.2595 90.8056 52.5365 90.9718C52.8166 91.138 53.0489 91.3888 53.2336 91.7243C53.4182 92.0597 53.5106 92.5091 53.5106 93.0723V97.7441H52.4211V96.7839H52.3657C52.2918 96.9378 52.1687 97.1025 51.9964 97.2779C51.824 97.4533 51.5947 97.6026 51.3085 97.7257C51.0223 97.8488 50.673 97.9103 50.2606 97.9103ZM50.4268 96.9316C50.8576 96.9316 51.2208 96.847 51.5162 96.6777C51.8148 96.5085 52.0394 96.29 52.1903 96.0222C52.3441 95.7544 52.4211 95.4728 52.4211 95.1774V94.1802C52.3749 94.2356 52.2733 94.2864 52.1164 94.3326C51.9625 94.3757 51.784 94.4141 51.5809 94.448C51.3808 94.4788 51.1854 94.5065 50.9946 94.5311C50.8068 94.5526 50.6545 94.5711 50.5376 94.5865C50.2544 94.6234 49.9897 94.6834 49.7435 94.7665C49.5004 94.8465 49.3034 94.9681 49.1526 95.1312C49.0049 95.2913 48.931 95.5098 48.931 95.7868C48.931 96.1653 49.0711 96.4515 49.3511 96.6454C49.6343 96.8362 49.9928 96.9316 50.4268 96.9316ZM56.5886 88.2896V97.7441H55.4991V88.2896H56.5886ZM63.0528 94.845V90.6532H64.1423V97.7441H63.0528V96.5439H62.979C62.8128 96.9039 62.5542 97.2102 62.2034 97.4625C61.8525 97.7118 61.4094 97.8365 60.8738 97.8365C60.4307 97.8365 60.0367 97.7395 59.692 97.5456C59.3473 97.3487 59.0765 97.0532 58.8795 96.6593C58.6826 96.2623 58.5841 95.7621 58.5841 95.1589V90.6532H59.6736V95.085C59.6736 95.6021 59.8182 96.0145 60.1075 96.3223C60.3999 96.63 60.7723 96.7839 61.2247 96.7839C61.4955 96.7839 61.771 96.7147 62.051 96.5762C62.3342 96.4377 62.5712 96.2253 62.762 95.9391C62.9559 95.6529 63.0528 95.2882 63.0528 94.845ZM68.2244 97.9103C67.7751 97.9103 67.3673 97.8257 67.0011 97.6564C66.6348 97.4841 66.344 97.2363 66.1286 96.9132C65.9131 96.5869 65.8054 96.193 65.8054 95.7314C65.8054 95.3251 65.8854 94.9958 66.0455 94.7434C66.2055 94.488 66.4194 94.2879 66.6871 94.1433C66.9549 93.9986 67.2504 93.8909 67.5735 93.8201C67.8997 93.7463 68.2275 93.6878 68.5568 93.6447C68.9877 93.5893 69.337 93.5478 69.6048 93.5201C69.8756 93.4893 70.0726 93.4385 70.1957 93.3677C70.3219 93.2969 70.3849 93.1738 70.3849 92.9984V92.9615C70.3849 92.506 70.2603 92.152 70.011 91.8997C69.7648 91.6473 69.3909 91.5211 68.8892 91.5211C68.3691 91.5211 67.9613 91.635 67.6658 91.8627C67.3704 92.0905 67.1626 92.3336 67.0426 92.5922L66.0085 92.2228C66.1932 91.792 66.4394 91.4565 66.7472 91.2164C67.058 90.9733 67.3965 90.804 67.7628 90.7086C68.1321 90.6101 68.4953 90.5609 68.8523 90.5609C69.08 90.5609 69.3416 90.5886 69.6371 90.644C69.9356 90.6963 70.2234 90.8056 70.5004 90.9718C70.7804 91.138 71.0128 91.3888 71.1974 91.7243C71.3821 92.0597 71.4744 92.5091 71.4744 93.0723V97.7441H70.3849V96.7839H70.3295C70.2557 96.9378 70.1326 97.1025 69.9602 97.2779C69.7879 97.4533 69.5586 97.6026 69.2724 97.7257C68.9862 97.8488 68.6368 97.9103 68.2244 97.9103ZM68.3906 96.9316C68.8215 96.9316 69.1847 96.847 69.4801 96.6777C69.7786 96.5085 70.0033 96.29 70.1541 96.0222C70.308 95.7544 70.3849 95.4728 70.3849 95.1774V94.1802C70.3388 94.2356 70.2372 94.2864 70.0803 94.3326C69.9264 94.3757 69.7479 94.4141 69.5447 94.448C69.3447 94.4788 69.1493 94.5065 68.9585 94.5311C68.7707 94.5526 68.6184 94.5711 68.5014 94.5865C68.2183 94.6234 67.9536 94.6834 67.7074 94.7665C67.4643 94.8465 67.2673 94.9681 67.1165 95.1312C66.9688 95.2913 66.8949 95.5098 66.8949 95.7868C66.8949 96.1653 67.0349 96.4515 67.315 96.6454C67.5981 96.8362 67.9567 96.9316 68.3906 96.9316ZM76.5468 90.6532V91.5765H72.8721V90.6532H76.5468ZM73.9431 88.9544H75.0326V95.7129C75.0326 96.0207 75.0772 96.2515 75.1665 96.4054C75.2588 96.5562 75.3757 96.6577 75.5173 96.71C75.662 96.7593 75.8143 96.7839 75.9743 96.7839C76.0944 96.7839 76.1929 96.7778 76.2698 96.7654C76.3467 96.7501 76.4083 96.7377 76.4545 96.7285L76.676 97.7072C76.6022 97.7349 76.4991 97.7626 76.3667 97.7903C76.2344 97.8211 76.0667 97.8365 75.8635 97.8365C75.5558 97.8365 75.2542 97.7703 74.9587 97.638C74.6663 97.5056 74.4232 97.304 74.2293 97.0332C74.0385 96.7624 73.9431 96.4208 73.9431 96.0083V88.9544ZM81.0825 97.8919C80.3992 97.8919 79.8099 97.7411 79.3144 97.4395C78.8219 97.1348 78.4419 96.71 78.1741 96.1653C77.9094 95.6175 77.7771 94.9804 77.7771 94.2541C77.7771 93.5278 77.9094 92.8876 78.1741 92.3336C78.4419 91.7766 78.8142 91.3426 79.2913 91.0318C79.7714 90.7179 80.3315 90.5609 80.9717 90.5609C81.341 90.5609 81.7057 90.6225 82.0658 90.7456C82.4259 90.8687 82.7536 91.0687 83.0491 91.3457C83.3445 91.6196 83.58 91.9828 83.7554 92.4352C83.9308 92.8876 84.0186 93.4447 84.0186 94.1064V94.568H78.5526V93.6262H82.9106C82.9106 93.2261 82.8306 92.8691 82.6705 92.5552C82.5136 92.2413 82.2889 91.9935 81.9965 91.812C81.7072 91.6304 81.3656 91.5396 80.9717 91.5396C80.5377 91.5396 80.1623 91.6473 79.8453 91.8627C79.5313 92.0751 79.2897 92.3521 79.1205 92.6937C78.9512 93.0353 78.8666 93.4016 78.8666 93.7924V94.4203C78.8666 94.9558 78.9589 95.4097 79.1436 95.7821C79.3313 96.1515 79.5914 96.4331 79.9237 96.627C80.2561 96.8178 80.6424 96.9132 81.0825 96.9132C81.3687 96.9132 81.6272 96.8732 81.858 96.7931C82.0919 96.71 82.2935 96.5869 82.4628 96.4238C82.6321 96.2576 82.7629 96.0514 82.8552 95.8052L83.9078 96.1007C83.797 96.4577 83.6108 96.7716 83.3492 97.0424C83.0876 97.3102 82.7644 97.5195 82.3797 97.6703C81.995 97.818 81.5626 97.8919 81.0825 97.8919ZM90.0338 100.403C89.8492 100.403 89.6845 100.388 89.5399 100.357C89.3952 100.329 89.2952 100.302 89.2398 100.274L89.5168 99.3137C89.7815 99.3815 90.0154 99.4061 90.2185 99.3876C90.4216 99.3691 90.6017 99.2783 90.7586 99.1152C90.9186 98.9552 91.0648 98.6951 91.1972 98.335L91.4003 97.7811L88.7781 90.6532H89.96L91.9173 96.3038H91.9912L93.9486 90.6532H95.1304L92.1205 98.7782C91.9851 99.1445 91.8173 99.4476 91.6173 99.6877C91.4172 99.9308 91.1849 100.111 90.9202 100.228C90.6586 100.345 90.3631 100.403 90.0338 100.403ZM99.1952 97.8919C98.5551 97.8919 97.9934 97.7395 97.5102 97.4348C97.0301 97.1301 96.6546 96.7039 96.3838 96.1561C96.116 95.6083 95.9822 94.9681 95.9822 94.2356C95.9822 93.497 96.116 92.8522 96.3838 92.3013C96.6546 91.7504 97.0301 91.3226 97.5102 91.0179C97.9934 90.7132 98.5551 90.5609 99.1952 90.5609C99.8354 90.5609 100.396 90.7132 100.876 91.0179C101.359 91.3226 101.734 91.7504 102.002 92.3013C102.273 92.8522 102.408 93.497 102.408 94.2356C102.408 94.9681 102.273 95.6083 102.002 96.1561C101.734 96.7039 101.359 97.1301 100.876 97.4348C100.396 97.7395 99.8354 97.8919 99.1952 97.8919ZM99.1952 96.9132C99.6815 96.9132 100.082 96.7885 100.396 96.5392C100.709 96.29 100.942 95.9622 101.093 95.5559C101.243 95.1497 101.319 94.7096 101.319 94.2356C101.319 93.7617 101.243 93.32 101.093 92.9107C100.942 92.5014 100.709 92.1705 100.396 91.9181C100.082 91.6658 99.6815 91.5396 99.1952 91.5396C98.709 91.5396 98.3089 91.6658 97.9949 91.9181C97.681 92.1705 97.4487 92.5014 97.2979 92.9107C97.147 93.32 97.0716 93.7617 97.0716 94.2356C97.0716 94.7096 97.147 95.1497 97.2979 95.5559C97.4487 95.9622 97.681 96.29 97.9949 96.5392C98.3089 96.7885 98.709 96.9132 99.1952 96.9132ZM108.54 94.845V90.6532H109.63V97.7441H108.54V96.5439H108.466C108.3 96.9039 108.042 97.2102 107.691 97.4625C107.34 97.7118 106.897 97.8365 106.361 97.8365C105.918 97.8365 105.524 97.7395 105.179 97.5456C104.835 97.3487 104.564 97.0532 104.367 96.6593C104.17 96.2623 104.071 95.7621 104.071 95.1589V90.6532H105.161V95.085C105.161 95.6021 105.306 96.0145 105.595 96.3223C105.887 96.63 106.26 96.7839 106.712 96.7839C106.983 96.7839 107.258 96.7147 107.538 96.5762C107.821 96.4377 108.058 96.2253 108.249 95.9391C108.443 95.6529 108.54 95.2882 108.54 94.845ZM111.625 97.7441V90.6532H112.678V91.7243H112.752C112.881 91.3734 113.115 91.0887 113.453 90.8702C113.792 90.6517 114.173 90.5424 114.598 90.5424C114.678 90.5424 114.778 90.544 114.898 90.5471C115.018 90.5501 115.109 90.5547 115.171 90.5609V91.6689C115.134 91.6596 115.049 91.6458 114.917 91.6273C114.787 91.6058 114.65 91.595 114.506 91.595C114.161 91.595 113.853 91.6673 113.582 91.812C113.315 91.9535 113.102 92.1505 112.945 92.4029C112.792 92.6522 112.715 92.9368 112.715 93.2569V97.7441H111.625ZM120.118 100.403V90.6532H121.171V91.7797H121.3C121.38 91.6565 121.491 91.4996 121.632 91.3088C121.777 91.1149 121.983 90.9425 122.251 90.7917C122.522 90.6378 122.888 90.5609 123.35 90.5609C123.947 90.5609 124.473 90.7102 124.929 91.0087C125.384 91.3072 125.74 91.7304 125.995 92.2782C126.25 92.8261 126.378 93.4724 126.378 94.2172C126.378 94.9681 126.25 95.619 125.995 96.1699C125.74 96.7177 125.386 97.1425 124.933 97.4441C124.481 97.7426 123.959 97.8919 123.368 97.8919C122.913 97.8919 122.548 97.8165 122.274 97.6657C122 97.5118 121.789 97.3379 121.642 97.144C121.494 96.947 121.38 96.7839 121.3 96.6547H121.208V100.403H120.118ZM121.189 94.1987C121.189 94.7342 121.268 95.2066 121.425 95.6159C121.582 96.0222 121.811 96.3407 122.113 96.5716C122.414 96.7993 122.783 96.9132 123.221 96.9132C123.676 96.9132 124.056 96.7931 124.361 96.5531C124.669 96.31 124.899 95.9837 125.053 95.5744C125.21 95.162 125.289 94.7034 125.289 94.1987C125.289 93.7001 125.212 93.2508 125.058 92.8507C124.907 92.4475 124.678 92.129 124.37 91.8951C124.065 91.6581 123.682 91.5396 123.221 91.5396C122.777 91.5396 122.405 91.6519 122.103 91.8766C121.802 92.0982 121.574 92.409 121.42 92.8091C121.266 93.2061 121.189 93.6693 121.189 94.1987ZM128.04 97.7441V90.6532H129.093V91.7243H129.167C129.296 91.3734 129.53 91.0887 129.868 90.8702C130.207 90.6517 130.588 90.5424 131.013 90.5424C131.093 90.5424 131.193 90.544 131.313 90.5471C131.433 90.5501 131.524 90.5547 131.586 90.5609V91.6689C131.549 91.6596 131.464 91.6458 131.332 91.6273C131.202 91.6058 131.065 91.595 130.921 91.595C130.576 91.595 130.268 91.6673 129.998 91.812C129.73 91.9535 129.517 92.1505 129.36 92.4029C129.207 92.6522 129.13 92.9368 129.13 93.2569V97.7441H128.04ZM135.542 97.8919C134.902 97.8919 134.34 97.7395 133.857 97.4348C133.377 97.1301 133.001 96.7039 132.73 96.1561C132.463 95.6083 132.329 94.9681 132.329 94.2356C132.329 93.497 132.463 92.8522 132.73 92.3013C133.001 91.7504 133.377 91.3226 133.857 91.0179C134.34 90.7132 134.902 90.5609 135.542 90.5609C136.182 90.5609 136.742 90.7132 137.222 91.0179C137.705 91.3226 138.081 91.7504 138.349 92.3013C138.62 92.8522 138.755 93.497 138.755 94.2356C138.755 94.9681 138.62 95.6083 138.349 96.1561C138.081 96.7039 137.705 97.1301 137.222 97.4348C136.742 97.7395 136.182 97.8919 135.542 97.8919ZM135.542 96.9132C136.028 96.9132 136.428 96.7885 136.742 96.5392C137.056 96.29 137.288 95.9622 137.439 95.5559C137.59 95.1497 137.665 94.7096 137.665 94.2356C137.665 93.7617 137.59 93.32 137.439 92.9107C137.288 92.5014 137.056 92.1705 136.742 91.9181C136.428 91.6658 136.028 91.5396 135.542 91.5396C135.056 91.5396 134.656 91.6658 134.342 91.9181C134.028 92.1705 133.795 92.5014 133.645 92.9107C133.494 93.32 133.418 93.7617 133.418 94.2356C133.418 94.7096 133.494 95.1497 133.645 95.5559C133.795 95.9622 134.028 96.29 134.342 96.5392C134.656 96.7885 135.056 96.9132 135.542 96.9132ZM143.28 100.551C142.754 100.551 142.302 100.483 141.923 100.348C141.544 100.215 141.229 100.04 140.977 99.8216C140.727 99.6061 140.529 99.3753 140.381 99.1291L141.249 98.5197C141.348 98.649 141.472 98.7967 141.623 98.9629C141.774 99.1322 141.98 99.2783 142.242 99.4015C142.506 99.5276 142.852 99.5907 143.28 99.5907C143.853 99.5907 144.325 99.4522 144.698 99.1752C145.07 98.8983 145.256 98.4643 145.256 97.8734V96.4331H145.164C145.084 96.5623 144.97 96.7224 144.822 96.9132C144.678 97.1009 144.468 97.2686 144.194 97.4164C143.924 97.561 143.557 97.6333 143.096 97.6333C142.523 97.6333 142.009 97.4979 141.554 97.2271C141.101 96.9563 140.743 96.5623 140.478 96.0453C140.216 95.5282 140.086 94.9004 140.086 94.1618C140.086 93.4354 140.213 92.803 140.469 92.2644C140.724 91.7227 141.08 91.3042 141.535 91.0087C141.991 90.7102 142.517 90.5609 143.114 90.5609C143.576 90.5609 143.942 90.6378 144.213 90.7917C144.487 90.9425 144.696 91.1149 144.841 91.3088C144.988 91.4996 145.102 91.6565 145.182 91.7797H145.293V90.6532H146.346V97.9473C146.346 98.5566 146.207 99.0521 145.93 99.4338C145.656 99.8185 145.287 100.1 144.822 100.279C144.361 100.46 143.847 100.551 143.28 100.551ZM143.243 96.6547C143.68 96.6547 144.05 96.5546 144.351 96.3546C144.653 96.1545 144.882 95.8668 145.039 95.4913C145.196 95.1158 145.275 94.6665 145.275 94.1433C145.275 93.6324 145.198 93.1815 145.044 92.7907C144.89 92.3998 144.662 92.0936 144.361 91.872C144.059 91.6504 143.687 91.5396 143.243 91.5396C142.782 91.5396 142.397 91.6565 142.089 91.8904C141.785 92.1243 141.555 92.4383 141.401 92.8322C141.251 93.2261 141.175 93.6632 141.175 94.1433C141.175 94.6357 141.252 95.0712 141.406 95.4498C141.563 95.8252 141.794 96.1207 142.098 96.3361C142.406 96.5485 142.788 96.6547 143.243 96.6547ZM148.34 97.7441V90.6532H149.392V91.7243H149.466C149.596 91.3734 149.83 91.0887 150.168 90.8702C150.507 90.6517 150.888 90.5424 151.313 90.5424C151.393 90.5424 151.493 90.544 151.613 90.5471C151.733 90.5501 151.824 90.5547 151.885 90.5609V91.6689C151.848 91.6596 151.764 91.6458 151.631 91.6273C151.502 91.6058 151.365 91.595 151.221 91.595C150.876 91.595 150.568 91.6673 150.297 91.812C150.03 91.9535 149.817 92.1505 149.66 92.4029C149.506 92.6522 149.429 92.9368 149.429 93.2569V97.7441H148.34ZM155.934 97.8919C155.251 97.8919 154.661 97.7411 154.166 97.4395C153.674 97.1348 153.293 96.71 153.026 96.1653C152.761 95.6175 152.629 94.9804 152.629 94.2541C152.629 93.5278 152.761 92.8876 153.026 92.3336C153.293 91.7766 153.666 91.3426 154.143 91.0318C154.623 90.7179 155.183 90.5609 155.823 90.5609C156.193 90.5609 156.557 90.6225 156.917 90.7456C157.277 90.8687 157.605 91.0687 157.901 91.3457C158.196 91.6196 158.432 91.9828 158.607 92.4352C158.782 92.8876 158.87 93.4447 158.87 94.1064V94.568H153.404V93.6262H157.762C157.762 93.2261 157.682 92.8691 157.522 92.5552C157.365 92.2413 157.14 91.9935 156.848 91.812C156.559 91.6304 156.217 91.5396 155.823 91.5396C155.389 91.5396 155.014 91.6473 154.697 91.8627C154.383 92.0751 154.141 92.3521 153.972 92.6937C153.803 93.0353 153.718 93.4016 153.718 93.7924V94.4203C153.718 94.9558 153.81 95.4097 153.995 95.7821C154.183 96.1515 154.443 96.4331 154.775 96.627C155.108 96.8178 155.494 96.9132 155.934 96.9132C156.22 96.9132 156.479 96.8732 156.71 96.7931C156.944 96.71 157.145 96.5869 157.314 96.4238C157.484 96.2576 157.614 96.0514 157.707 95.8052L158.759 96.1007C158.649 96.4577 158.462 96.7716 158.201 97.0424C157.939 97.3102 157.616 97.5195 157.231 97.6703C156.847 97.818 156.414 97.8919 155.934 97.8919ZM165.55 92.2413L164.571 92.5183C164.51 92.3552 164.419 92.1967 164.299 92.0428C164.182 91.8858 164.022 91.7566 163.819 91.655C163.616 91.5534 163.356 91.5027 163.039 91.5027C162.605 91.5027 162.243 91.6027 161.954 91.8027C161.668 91.9997 161.525 92.2505 161.525 92.5552C161.525 92.8261 161.623 93.04 161.82 93.1969C162.017 93.3539 162.325 93.4847 162.743 93.5893L163.796 93.8478C164.43 94.0017 164.902 94.2372 165.213 94.5542C165.524 94.8681 165.679 95.2728 165.679 95.7683C165.679 96.1745 165.562 96.5377 165.329 96.8578C165.098 97.1779 164.775 97.4302 164.359 97.6149C163.944 97.7995 163.46 97.8919 162.91 97.8919C162.186 97.8919 161.588 97.7349 161.114 97.421C160.64 97.1071 160.34 96.6485 160.214 96.0453L161.248 95.7868C161.346 96.1684 161.532 96.4546 161.806 96.6454C162.083 96.8362 162.445 96.9316 162.891 96.9316C163.399 96.9316 163.802 96.8239 164.101 96.6085C164.402 96.39 164.553 96.1284 164.553 95.8237C164.553 95.5775 164.467 95.3713 164.294 95.2051C164.122 95.0358 163.857 94.9096 163.5 94.8265L162.319 94.5495C161.669 94.3957 161.192 94.1571 160.888 93.834C160.586 93.5078 160.435 93.1 160.435 92.6106C160.435 92.2105 160.547 91.8566 160.772 91.5488C161 91.2411 161.309 90.9995 161.7 90.824C162.094 90.6486 162.54 90.5609 163.039 90.5609C163.741 90.5609 164.291 90.7148 164.691 91.0225C165.095 91.3303 165.381 91.7366 165.55 92.2413ZM172.342 92.2413L171.363 92.5183C171.302 92.3552 171.211 92.1967 171.091 92.0428C170.974 91.8858 170.814 91.7566 170.611 91.655C170.408 91.5534 170.148 91.5027 169.831 91.5027C169.397 91.5027 169.035 91.6027 168.746 91.8027C168.46 91.9997 168.317 92.2505 168.317 92.5552C168.317 92.8261 168.415 93.04 168.612 93.1969C168.809 93.3539 169.117 93.4847 169.535 93.5893L170.588 93.8478C171.222 94.0017 171.694 94.2372 172.005 94.5542C172.316 94.8681 172.471 95.2728 172.471 95.7683C172.471 96.1745 172.354 96.5377 172.121 96.8578C171.89 97.1779 171.567 97.4302 171.151 97.6149C170.736 97.7995 170.252 97.8919 169.702 97.8919C168.978 97.8919 168.38 97.7349 167.906 97.421C167.432 97.1071 167.132 96.6485 167.006 96.0453L168.04 95.7868C168.138 96.1684 168.324 96.4546 168.598 96.6454C168.875 96.8362 169.237 96.9316 169.683 96.9316C170.191 96.9316 170.594 96.8239 170.893 96.6085C171.194 96.39 171.345 96.1284 171.345 95.8237C171.345 95.5775 171.259 95.3713 171.086 95.2051C170.914 95.0358 170.649 94.9096 170.292 94.8265L169.111 94.5495C168.461 94.3957 167.984 94.1571 167.68 93.834C167.378 93.5078 167.227 93.1 167.227 92.6106C167.227 92.2105 167.339 91.8566 167.564 91.5488C167.792 91.2411 168.101 90.9995 168.492 90.824C168.886 90.6486 169.332 90.5609 169.831 90.5609C170.532 90.5609 171.083 90.7148 171.483 91.0225C171.887 91.3303 172.173 91.7366 172.342 92.2413ZM35.4705 113.91C35.0212 113.91 34.6134 113.826 34.2472 113.656C33.8809 113.484 33.5901 113.236 33.3746 112.913C33.1592 112.587 33.0515 112.193 33.0515 111.731C33.0515 111.325 33.1315 110.996 33.2915 110.743C33.4516 110.488 33.6655 110.288 33.9332 110.143C34.201 109.999 34.4964 109.891 34.8196 109.82C35.1458 109.746 35.4736 109.688 35.8029 109.645C36.2338 109.589 36.5831 109.548 36.8509 109.52C37.1217 109.489 37.3187 109.439 37.4418 109.368C37.5679 109.297 37.631 109.174 37.631 108.998V108.961C37.631 108.506 37.5064 108.152 37.2571 107.9C37.0109 107.647 36.637 107.521 36.1353 107.521C35.6152 107.521 35.2074 107.635 34.9119 107.863C34.6165 108.09 34.4087 108.334 34.2887 108.592L33.2546 108.223C33.4393 107.792 33.6855 107.456 33.9933 107.216C34.3041 106.973 34.6426 106.804 35.0089 106.709C35.3782 106.61 35.7414 106.561 36.0984 106.561C36.3261 106.561 36.5877 106.589 36.8832 106.644C37.1817 106.696 37.4695 106.806 37.7464 106.972C38.0265 107.138 38.2589 107.389 38.4435 107.724C38.6282 108.06 38.7205 108.509 38.7205 109.072V113.744H37.631V112.784H37.5756C37.5018 112.938 37.3787 113.102 37.2063 113.278C37.034 113.453 36.8047 113.603 36.5185 113.726C36.2322 113.849 35.8829 113.91 35.4705 113.91ZM35.6367 112.932C36.0676 112.932 36.4308 112.847 36.7262 112.678C37.0247 112.508 37.2494 112.29 37.4002 112.022C37.5541 111.754 37.631 111.473 37.631 111.177V110.18C37.5849 110.236 37.4833 110.286 37.3263 110.333C37.1725 110.376 36.994 110.414 36.7908 110.448C36.5908 110.479 36.3954 110.506 36.2045 110.531C36.0168 110.553 35.8645 110.571 35.7475 110.586C35.4644 110.623 35.1997 110.683 34.9535 110.767C34.7103 110.847 34.5134 110.968 34.3626 111.131C34.2148 111.291 34.141 111.51 34.141 111.787C34.141 112.165 34.281 112.452 34.5611 112.645C34.8442 112.836 35.2028 112.932 35.6367 112.932ZM41.7986 109.479V113.744H40.7091V106.653H41.7616V107.761H41.854C42.0202 107.401 42.2725 107.112 42.6111 106.893C42.9496 106.672 43.3866 106.561 43.9221 106.561C44.4023 106.561 44.8224 106.659 45.1824 106.856C45.5425 107.05 45.8226 107.346 46.0226 107.743C46.2227 108.137 46.3227 108.635 46.3227 109.238V113.744H45.2332V109.312C45.2332 108.755 45.0886 108.321 44.7993 108.01C44.51 107.697 44.113 107.54 43.6082 107.54C43.2604 107.54 42.9496 107.615 42.6757 107.766C42.4049 107.917 42.191 108.137 42.034 108.426C41.877 108.715 41.7986 109.066 41.7986 109.479ZM50.9911 113.892C50.4002 113.892 49.8786 113.743 49.4261 113.444C48.9737 113.142 48.6198 112.718 48.3643 112.17C48.1089 111.619 47.9812 110.968 47.9812 110.217C47.9812 109.472 48.1089 108.826 48.3643 108.278C48.6198 107.73 48.9753 107.307 49.4308 107.009C49.8862 106.71 50.4125 106.561 51.0096 106.561C51.4712 106.561 51.8359 106.638 52.1037 106.792C52.3745 106.943 52.5807 107.115 52.7223 107.309C52.867 107.5 52.9793 107.657 53.0593 107.78H53.1516V104.29H54.2411V113.744H53.1886V112.655H53.0593C52.9793 112.784 52.8654 112.947 52.7177 113.144C52.57 113.338 52.3591 113.512 52.0852 113.666C51.8113 113.816 51.4466 113.892 50.9911 113.892ZM51.1388 112.913C51.5759 112.913 51.9452 112.799 52.2468 112.572C52.5484 112.341 52.7777 112.022 52.9347 111.616C53.0916 111.207 53.1701 110.734 53.1701 110.199C53.1701 109.669 53.0932 109.206 52.9393 108.809C52.7854 108.409 52.5576 108.098 52.256 107.877C51.9544 107.652 51.582 107.54 51.1388 107.54C50.6772 107.54 50.2925 107.658 49.9847 107.895C49.68 108.129 49.4508 108.448 49.2969 108.851C49.1461 109.251 49.0707 109.7 49.0707 110.199C49.0707 110.703 49.1476 111.162 49.3015 111.574C49.4585 111.984 49.6893 112.31 49.994 112.553C50.3017 112.793 50.6834 112.913 51.1388 112.913ZM62.9247 113.892C62.2599 113.892 61.6875 113.735 61.2074 113.421C60.7273 113.107 60.358 112.675 60.0994 112.124C59.8409 111.573 59.7116 110.943 59.7116 110.236C59.7116 109.515 59.844 108.88 60.1087 108.329C60.3764 107.775 60.7488 107.343 61.2259 107.032C61.706 106.718 62.2661 106.561 62.9062 106.561C63.4048 106.561 63.8542 106.653 64.2543 106.838C64.6544 107.023 64.9821 107.281 65.2376 107.613C65.493 107.946 65.6515 108.334 65.7131 108.777H64.6236C64.5405 108.454 64.3558 108.167 64.0696 107.918C63.7865 107.666 63.4048 107.54 62.9247 107.54C62.5 107.54 62.1276 107.65 61.8075 107.872C61.4905 108.09 61.2428 108.4 61.0643 108.8C60.8888 109.197 60.8011 109.663 60.8011 110.199C60.8011 110.747 60.8873 111.224 61.0597 111.63C61.2351 112.036 61.4813 112.352 61.7983 112.576C62.1184 112.801 62.4938 112.913 62.9247 112.913C63.2079 112.913 63.4648 112.864 63.6957 112.765C63.9265 112.667 64.1219 112.525 64.282 112.341C64.442 112.156 64.5559 111.934 64.6236 111.676H65.7131C65.6515 112.095 65.4992 112.472 65.256 112.807C65.016 113.139 64.6974 113.404 64.3004 113.601C63.9065 113.795 63.4479 113.892 62.9247 113.892ZM68.3952 109.479V113.744H67.3058V104.29H68.3952V107.761H68.4876C68.6538 107.395 68.9031 107.104 69.2354 106.889C69.5709 106.67 70.0172 106.561 70.5742 106.561C71.0574 106.561 71.4806 106.658 71.8438 106.852C72.2069 107.043 72.4885 107.336 72.6886 107.733C72.8917 108.127 72.9933 108.629 72.9933 109.238V113.744H71.9038V109.312C71.9038 108.749 71.7576 108.314 71.4652 108.006C71.1759 107.695 70.7743 107.54 70.2603 107.54C69.9033 107.54 69.5832 107.615 69.3001 107.766C69.02 107.917 68.7984 108.137 68.6353 108.426C68.4753 108.715 68.3952 109.066 68.3952 109.479ZM77.8671 113.892C77.2269 113.892 76.6653 113.74 76.1821 113.435C75.702 113.13 75.3265 112.704 75.0557 112.156C74.7879 111.608 74.654 110.968 74.654 110.236C74.654 109.497 74.7879 108.852 75.0557 108.301C75.3265 107.75 75.702 107.323 76.1821 107.018C76.6653 106.713 77.2269 106.561 77.8671 106.561C78.5073 106.561 79.0674 106.713 79.5475 107.018C80.0307 107.323 80.4062 107.75 80.6739 108.301C80.9448 108.852 81.0802 109.497 81.0802 110.236C81.0802 110.968 80.9448 111.608 80.6739 112.156C80.4062 112.704 80.0307 113.13 79.5475 113.435C79.0674 113.74 78.5073 113.892 77.8671 113.892ZM77.8671 112.913C78.3534 112.913 78.7535 112.789 79.0674 112.539C79.3813 112.29 79.6137 111.962 79.7645 111.556C79.9153 111.15 79.9907 110.71 79.9907 110.236C79.9907 109.762 79.9153 109.32 79.7645 108.911C79.6137 108.501 79.3813 108.171 79.0674 107.918C78.7535 107.666 78.3534 107.54 77.8671 107.54C77.3808 107.54 76.9807 107.666 76.6668 107.918C76.3529 108.171 76.1205 108.501 75.9697 108.911C75.8189 109.32 75.7435 109.762 75.7435 110.236C75.7435 110.71 75.8189 111.15 75.9697 111.556C76.1205 111.962 76.3529 112.29 76.6668 112.539C76.9807 112.789 77.3808 112.913 77.8671 112.913ZM85.6239 113.892C84.9838 113.892 84.4221 113.74 83.9389 113.435C83.4588 113.13 83.0833 112.704 82.8125 112.156C82.5447 111.608 82.4109 110.968 82.4109 110.236C82.4109 109.497 82.5447 108.852 82.8125 108.301C83.0833 107.75 83.4588 107.323 83.9389 107.018C84.4221 106.713 84.9838 106.561 85.6239 106.561C86.2641 106.561 86.8242 106.713 87.3043 107.018C87.7875 107.323 88.163 107.75 88.4308 108.301C88.7016 108.852 88.837 109.497 88.837 110.236C88.837 110.968 88.7016 111.608 88.4308 112.156C88.163 112.704 87.7875 113.13 87.3043 113.435C86.8242 113.74 86.2641 113.892 85.6239 113.892ZM85.6239 112.913C86.1102 112.913 86.5103 112.789 86.8242 112.539C87.1381 112.29 87.3705 111.962 87.5213 111.556C87.6721 111.15 87.7475 110.71 87.7475 110.236C87.7475 109.762 87.6721 109.32 87.5213 108.911C87.3705 108.501 87.1381 108.171 86.8242 107.918C86.5103 107.666 86.1102 107.54 85.6239 107.54C85.1377 107.54 84.7376 107.666 84.4237 107.918C84.1097 108.171 83.8774 108.501 83.7266 108.911C83.5758 109.32 83.5004 109.762 83.5004 110.236C83.5004 110.71 83.5758 111.15 83.7266 111.556C83.8774 111.962 84.1097 112.29 84.4237 112.539C84.7376 112.789 85.1377 112.913 85.6239 112.913ZM95.5228 108.241L94.5441 108.518C94.4826 108.355 94.3918 108.197 94.2718 108.043C94.1548 107.886 93.9948 107.757 93.7916 107.655C93.5885 107.553 93.3285 107.503 93.0115 107.503C92.5775 107.503 92.2159 107.603 91.9266 107.803C91.6404 108 91.4972 108.251 91.4972 108.555C91.4972 108.826 91.5957 109.04 91.7927 109.197C91.9897 109.354 92.2974 109.485 92.716 109.589L93.7686 109.848C94.4026 110.002 94.875 110.237 95.1858 110.554C95.4967 110.868 95.6521 111.273 95.6521 111.768C95.6521 112.175 95.5351 112.538 95.3012 112.858C95.0704 113.178 94.7472 113.43 94.3318 113.615C93.9163 113.8 93.4331 113.892 92.8822 113.892C92.1589 113.892 91.5603 113.735 91.0864 113.421C90.6124 113.107 90.3124 112.648 90.1862 112.045L91.2203 111.787C91.3187 112.168 91.5049 112.455 91.7789 112.645C92.0558 112.836 92.4175 112.932 92.8637 112.932C93.3715 112.932 93.7747 112.824 94.0732 112.608C94.3749 112.39 94.5257 112.128 94.5257 111.824C94.5257 111.577 94.4395 111.371 94.2671 111.205C94.0948 111.036 93.8301 110.91 93.4731 110.827L92.2913 110.55C91.6419 110.396 91.1649 110.157 90.8602 109.834C90.5586 109.508 90.4078 109.1 90.4078 108.611C90.4078 108.211 90.5201 107.857 90.7448 107.549C90.9725 107.241 91.2818 106.999 91.6727 106.824C92.0666 106.649 92.5129 106.561 93.0115 106.561C93.7132 106.561 94.2641 106.715 94.6642 107.023C95.0673 107.33 95.3535 107.737 95.5228 108.241ZM100.265 113.892C99.5819 113.892 98.9925 113.741 98.497 113.439C98.0046 113.135 97.6245 112.71 97.3567 112.165C97.092 111.617 96.9597 110.98 96.9597 110.254C96.9597 109.528 97.092 108.888 97.3567 108.334C97.6245 107.777 97.9969 107.343 98.4739 107.032C98.954 106.718 99.5141 106.561 100.154 106.561C100.524 106.561 100.888 106.622 101.248 106.746C101.608 106.869 101.936 107.069 102.232 107.346C102.527 107.62 102.763 107.983 102.938 108.435C103.113 108.888 103.201 109.445 103.201 110.106V110.568H97.7353V109.626H102.093C102.093 109.226 102.013 108.869 101.853 108.555C101.696 108.241 101.472 107.994 101.179 107.812C100.89 107.63 100.548 107.54 100.154 107.54C99.7203 107.54 99.3449 107.647 99.0279 107.863C98.714 108.075 98.4724 108.352 98.3031 108.694C98.1338 109.035 98.0492 109.402 98.0492 109.792V110.42C98.0492 110.956 98.1415 111.41 98.3262 111.782C98.5139 112.151 98.774 112.433 99.1064 112.627C99.4387 112.818 99.825 112.913 100.265 112.913C100.551 112.913 100.81 112.873 101.041 112.793C101.275 112.71 101.476 112.587 101.645 112.424C101.815 112.258 101.945 112.051 102.038 111.805L103.09 112.101C102.98 112.458 102.793 112.772 102.532 113.042C102.27 113.31 101.947 113.519 101.562 113.67C101.178 113.818 100.745 113.892 100.265 113.892ZM109.216 116.403C109.032 116.403 108.867 116.388 108.722 116.357C108.578 116.329 108.478 116.302 108.422 116.274L108.699 115.314C108.964 115.381 109.198 115.406 109.401 115.388C109.604 115.369 109.784 115.278 109.941 115.115C110.101 114.955 110.247 114.695 110.38 114.335L110.583 113.781L107.961 106.653H109.143L111.1 112.304H111.174L113.131 106.653H114.313L111.303 114.778C111.168 115.144 111 115.448 110.8 115.688C110.6 115.931 110.367 116.111 110.103 116.228C109.841 116.345 109.546 116.403 109.216 116.403ZM118.378 113.892C117.738 113.892 117.176 113.74 116.693 113.435C116.213 113.13 115.837 112.704 115.566 112.156C115.299 111.608 115.165 110.968 115.165 110.236C115.165 109.497 115.299 108.852 115.566 108.301C115.837 107.75 116.213 107.323 116.693 107.018C117.176 106.713 117.738 106.561 118.378 106.561C119.018 106.561 119.578 106.713 120.058 107.018C120.541 107.323 120.917 107.75 121.185 108.301C121.455 108.852 121.591 109.497 121.591 110.236C121.591 110.968 121.455 111.608 121.185 112.156C120.917 112.704 120.541 113.13 120.058 113.435C119.578 113.74 119.018 113.892 118.378 113.892ZM118.378 112.913C118.864 112.913 119.264 112.789 119.578 112.539C119.892 112.29 120.124 111.962 120.275 111.556C120.426 111.15 120.501 110.71 120.501 110.236C120.501 109.762 120.426 109.32 120.275 108.911C120.124 108.501 119.892 108.171 119.578 107.918C119.264 107.666 118.864 107.54 118.378 107.54C117.892 107.54 117.491 107.666 117.178 107.918C116.864 108.171 116.631 108.501 116.48 108.911C116.33 109.32 116.254 109.762 116.254 110.236C116.254 110.71 116.33 111.15 116.48 111.556C116.631 111.962 116.864 112.29 117.178 112.539C117.491 112.789 117.892 112.913 118.378 112.913ZM127.723 110.845V106.653H128.812V113.744H127.723V112.544H127.649C127.483 112.904 127.224 113.21 126.873 113.463C126.522 113.712 126.079 113.836 125.544 113.836C125.101 113.836 124.707 113.74 124.362 113.546C124.017 113.349 123.746 113.053 123.549 112.659C123.352 112.262 123.254 111.762 123.254 111.159V106.653H124.343V111.085C124.343 111.602 124.488 112.015 124.777 112.322C125.07 112.63 125.442 112.784 125.895 112.784C126.165 112.784 126.441 112.715 126.721 112.576C127.004 112.438 127.241 112.225 127.432 111.939C127.626 111.653 127.723 111.288 127.723 110.845ZM130.808 113.744V106.653H131.86V107.724H131.934C132.063 107.373 132.297 107.089 132.636 106.87C132.974 106.652 133.356 106.542 133.781 106.542C133.861 106.542 133.961 106.544 134.081 106.547C134.201 106.55 134.292 106.555 134.353 106.561V107.669C134.316 107.66 134.232 107.646 134.099 107.627C133.97 107.606 133.833 107.595 133.688 107.595C133.344 107.595 133.036 107.667 132.765 107.812C132.497 107.954 132.285 108.151 132.128 108.403C131.974 108.652 131.897 108.937 131.897 109.257V113.744H130.808ZM142.182 113.892C141.541 113.892 140.98 113.74 140.497 113.435C140.016 113.13 139.641 112.704 139.37 112.156C139.102 111.608 138.968 110.968 138.968 110.236C138.968 109.497 139.102 108.852 139.37 108.301C139.641 107.75 140.016 107.323 140.497 107.018C140.98 106.713 141.541 106.561 142.182 106.561C142.822 106.561 143.382 106.713 143.862 107.018C144.345 107.323 144.721 107.75 144.988 108.301C145.259 108.852 145.395 109.497 145.395 110.236C145.395 110.968 145.259 111.608 144.988 112.156C144.721 112.704 144.345 113.13 143.862 113.435C143.382 113.74 142.822 113.892 142.182 113.892ZM142.182 112.913C142.668 112.913 143.068 112.789 143.382 112.539C143.696 112.29 143.928 111.962 144.079 111.556C144.23 111.15 144.305 110.71 144.305 110.236C144.305 109.762 144.23 109.32 144.079 108.911C143.928 108.501 143.696 108.171 143.382 107.918C143.068 107.666 142.668 107.54 142.182 107.54C141.695 107.54 141.295 107.666 140.981 107.918C140.667 108.171 140.435 108.501 140.284 108.911C140.133 109.32 140.058 109.762 140.058 110.236C140.058 110.71 140.133 111.15 140.284 111.556C140.435 111.962 140.667 112.29 140.981 112.539C141.295 112.789 141.695 112.913 142.182 112.913ZM148.423 113.744L146.263 106.653H147.407L148.94 112.082H149.014L150.528 106.653H151.691L153.187 112.064H153.261L154.794 106.653H155.939L153.778 113.744H152.707L151.156 108.297H151.045L149.494 113.744H148.423ZM158.468 109.479V113.744H157.379V106.653H158.432V107.761H158.524C158.69 107.401 158.942 107.112 159.281 106.893C159.62 106.672 160.057 106.561 160.592 106.561C161.072 106.561 161.492 106.659 161.852 106.856C162.212 107.05 162.493 107.346 162.693 107.743C162.893 108.137 162.993 108.635 162.993 109.238V113.744H161.903V109.312C161.903 108.755 161.758 108.321 161.469 108.01C161.18 107.697 160.783 107.54 160.278 107.54C159.93 107.54 159.62 107.615 159.346 107.766C159.075 107.917 158.861 108.137 158.704 108.426C158.547 108.715 158.468 109.066 158.468 109.479ZM36.2461 132.551C35.7198 132.551 35.2674 132.483 34.8888 132.348C34.5103 132.215 34.1948 132.04 33.9425 131.822C33.6932 131.606 33.4947 131.375 33.3469 131.129L34.2148 130.52C34.3133 130.649 34.438 130.797 34.5888 130.963C34.7396 131.132 34.9458 131.278 35.2074 131.401C35.4721 131.528 35.8183 131.591 36.2461 131.591C36.8185 131.591 37.291 131.452 37.6634 131.175C38.0357 130.898 38.2219 130.464 38.2219 129.873V128.433H38.1296C38.0496 128.562 37.9357 128.722 37.788 128.913C37.6433 129.101 37.4341 129.269 37.1602 129.416C36.8893 129.561 36.5231 129.633 36.0614 129.633C35.489 129.633 34.975 129.498 34.5195 129.227C34.0671 128.956 33.7086 128.562 33.4439 128.045C33.1823 127.528 33.0515 126.9 33.0515 126.162C33.0515 125.435 33.1792 124.803 33.4347 124.264C33.6901 123.723 34.0456 123.304 34.5011 123.009C34.9566 122.71 35.4828 122.561 36.0799 122.561C36.5415 122.561 36.9078 122.638 37.1786 122.792C37.4525 122.943 37.6618 123.115 37.8065 123.309C37.9542 123.5 38.0681 123.657 38.1481 123.78H38.2589V122.653H39.3114V129.947C39.3114 130.557 39.1729 131.052 38.896 131.434C38.622 131.818 38.2527 132.1 37.788 132.279C37.3263 132.46 36.8124 132.551 36.2461 132.551ZM36.2092 128.655C36.6462 128.655 37.0155 128.555 37.3171 128.355C37.6187 128.155 37.848 127.867 38.005 127.491C38.1619 127.116 38.2404 126.666 38.2404 126.143C38.2404 125.632 38.1635 125.182 38.0096 124.791C37.8557 124.4 37.628 124.094 37.3263 123.872C37.0247 123.65 36.6523 123.54 36.2092 123.54C35.7475 123.54 35.3628 123.657 35.055 123.89C34.7504 124.124 34.5211 124.438 34.3672 124.832C34.2164 125.226 34.141 125.663 34.141 126.143C34.141 126.636 34.2179 127.071 34.3718 127.45C34.5288 127.825 34.7596 128.121 35.0643 128.336C35.372 128.548 35.7537 128.655 36.2092 128.655ZM44.1864 129.892C43.5463 129.892 42.9846 129.74 42.5014 129.435C42.0213 129.13 41.6458 128.704 41.375 128.156C41.1072 127.608 40.9734 126.968 40.9734 126.236C40.9734 125.497 41.1072 124.852 41.375 124.301C41.6458 123.75 42.0213 123.323 42.5014 123.018C42.9846 122.713 43.5463 122.561 44.1864 122.561C44.8266 122.561 45.3867 122.713 45.8668 123.018C46.35 123.323 46.7255 123.75 46.9933 124.301C47.2641 124.852 47.3995 125.497 47.3995 126.236C47.3995 126.968 47.2641 127.608 46.9933 128.156C46.7255 128.704 46.35 129.13 45.8668 129.435C45.3867 129.74 44.8266 129.892 44.1864 129.892ZM44.1864 128.913C44.6727 128.913 45.0728 128.789 45.3867 128.539C45.7006 128.29 45.933 127.962 46.0838 127.556C46.2346 127.15 46.31 126.71 46.31 126.236C46.31 125.762 46.2346 125.32 46.0838 124.911C45.933 124.501 45.7006 124.171 45.3867 123.918C45.0728 123.666 44.6727 123.54 44.1864 123.54C43.7002 123.54 43.3001 123.666 42.9862 123.918C42.6722 124.171 42.4399 124.501 42.2891 124.911C42.1383 125.32 42.0629 125.762 42.0629 126.236C42.0629 126.71 42.1383 127.15 42.2891 127.556C42.4399 127.962 42.6722 128.29 42.9862 128.539C43.3001 128.789 43.7002 128.913 44.1864 128.913ZM51.1492 129.91C50.6999 129.91 50.2921 129.826 49.9259 129.656C49.5596 129.484 49.2688 129.236 49.0534 128.913C48.8379 128.587 48.7302 128.193 48.7302 127.731C48.7302 127.325 48.8102 126.996 48.9703 126.743C49.1303 126.488 49.3442 126.288 49.6119 126.143C49.8797 125.999 50.1752 125.891 50.4983 125.82C50.8245 125.746 51.1523 125.688 51.4816 125.645C51.9125 125.589 52.2618 125.548 52.5296 125.52C52.8004 125.489 52.9974 125.439 53.1205 125.368C53.2467 125.297 53.3097 125.174 53.3097 124.998V124.961C53.3097 124.506 53.1851 124.152 52.9358 123.9C52.6896 123.647 52.3157 123.521 51.814 123.521C51.2939 123.521 50.8861 123.635 50.5906 123.863C50.2952 124.09 50.0874 124.334 49.9674 124.592L48.9333 124.223C49.118 123.792 49.3642 123.456 49.672 123.216C49.9828 122.973 50.3213 122.804 50.6876 122.709C51.0569 122.61 51.4201 122.561 51.7771 122.561C52.0048 122.561 52.2664 122.589 52.5619 122.644C52.8604 122.696 53.1482 122.806 53.4252 122.972C53.7052 123.138 53.9376 123.389 54.1222 123.724C54.3069 124.06 54.3992 124.509 54.3992 125.072V129.744H53.3097V128.784H53.2544C53.1805 128.938 53.0574 129.102 52.885 129.278C52.7127 129.453 52.4834 129.603 52.1972 129.726C51.911 129.849 51.5616 129.91 51.1492 129.91ZM51.3154 128.932C51.7463 128.932 52.1095 128.847 52.4049 128.678C52.7035 128.508 52.9281 128.29 53.0789 128.022C53.2328 127.754 53.3097 127.473 53.3097 127.177V126.18C53.2636 126.236 53.162 126.286 53.0051 126.333C52.8512 126.376 52.6727 126.414 52.4695 126.448C52.2695 126.479 52.0741 126.506 51.8833 126.531C51.6955 126.553 51.5432 126.571 51.4262 126.586C51.1431 126.623 50.8784 126.683 50.6322 126.767C50.3891 126.847 50.1921 126.968 50.0413 127.131C49.8936 127.291 49.8197 127.51 49.8197 127.787C49.8197 128.165 49.9597 128.452 50.2398 128.645C50.5229 128.836 50.8815 128.932 51.3154 128.932ZM57.4773 120.29V129.744H56.3878V120.29H57.4773ZM64.4955 124.241L63.5168 124.518C63.4552 124.355 63.3644 124.197 63.2444 124.043C63.1275 123.886 62.9674 123.757 62.7643 123.655C62.5612 123.553 62.3011 123.503 61.9841 123.503C61.5502 123.503 61.1885 123.603 60.8992 123.803C60.613 124 60.4699 124.251 60.4699 124.555C60.4699 124.826 60.5684 125.04 60.7654 125.197C60.9623 125.354 61.2701 125.485 61.6887 125.589L62.7412 125.848C63.3752 126.002 63.8476 126.237 64.1585 126.554C64.4693 126.868 64.6247 127.273 64.6247 127.768C64.6247 128.175 64.5078 128.538 64.2739 128.858C64.0431 129.178 63.7199 129.43 63.3044 129.615C62.8889 129.8 62.4057 129.892 61.8548 129.892C61.1316 129.892 60.533 129.735 60.059 129.421C59.5851 129.107 59.285 128.648 59.1588 128.045L60.1929 127.787C60.2914 128.168 60.4776 128.455 60.7515 128.645C61.0285 128.836 61.3901 128.932 61.8364 128.932C62.3442 128.932 62.7474 128.824 63.0459 128.608C63.3475 128.39 63.4983 128.128 63.4983 127.824C63.4983 127.577 63.4121 127.371 63.2398 127.205C63.0674 127.036 62.8028 126.91 62.4458 126.827L61.2639 126.55C60.6146 126.396 60.1375 126.157 59.8328 125.834C59.5312 125.508 59.3804 125.1 59.3804 124.611C59.3804 124.211 59.4927 123.857 59.7174 123.549C59.9452 123.241 60.2545 122.999 60.6453 122.824C61.0393 122.649 61.4855 122.561 61.9841 122.561C62.6858 122.561 63.2367 122.715 63.6368 123.023C64.04 123.33 64.3262 123.737 64.4955 124.241ZM67.7051 120.29L67.6127 127.085H66.5417L66.4494 120.29H67.7051ZM67.0772 129.818C66.8495 129.818 66.6541 129.736 66.4909 129.573C66.3278 129.41 66.2463 129.215 66.2463 128.987C66.2463 128.759 66.3278 128.564 66.4909 128.401C66.6541 128.238 66.8495 128.156 67.0772 128.156C67.305 128.156 67.5004 128.238 67.6635 128.401C67.8266 128.564 67.9082 128.759 67.9082 128.987C67.9082 129.138 67.8697 129.276 67.7928 129.403C67.7189 129.529 67.6189 129.63 67.4927 129.707C67.3696 129.781 67.2311 129.818 67.0772 129.818Z" fill="#DB0000"/>
</svg>
