<svg width="215" height="203" viewBox="0 0 215 203" fill="none" xmlns="http://www.w3.org/2000/svg">
<rect width="215" height="203" rx="17.5064" fill="white"/>
<path d="M33.2686 30.1465V27.3574H46.4092V30.1465H41.5107V43.3574H38.167V30.1465H33.2686ZM52.1924 43.5918C50.9788 43.5918 49.9294 43.334 49.0439 42.8184C48.1637 42.2975 47.484 41.5736 47.0049 40.6465C46.5257 39.7142 46.2861 38.6335 46.2861 37.4043C46.2861 36.1647 46.5257 35.0814 47.0049 34.1543C47.484 33.222 48.1637 32.498 49.0439 31.9824C49.9294 31.4616 50.9788 31.2012 52.1924 31.2012C53.4059 31.2012 54.4528 31.4616 55.333 31.9824C56.2184 32.498 56.9007 33.222 57.3799 34.1543C57.859 35.0814 58.0986 36.1647 58.0986 37.4043C58.0986 38.6335 57.859 39.7142 57.3799 40.6465C56.9007 41.5736 56.2184 42.2975 55.333 42.8184C54.4528 43.334 53.4059 43.5918 52.1924 43.5918ZM52.208 41.0137C52.7601 41.0137 53.221 40.8574 53.5908 40.5449C53.9606 40.2272 54.2393 39.7949 54.4268 39.248C54.6195 38.7012 54.7158 38.0788 54.7158 37.3809C54.7158 36.6829 54.6195 36.0605 54.4268 35.5137C54.2393 34.9668 53.9606 34.5345 53.5908 34.2168C53.221 33.8991 52.7601 33.7402 52.208 33.7402C51.6507 33.7402 51.182 33.8991 50.8018 34.2168C50.4268 34.5345 50.1429 34.9668 49.9502 35.5137C49.7627 36.0605 49.6689 36.6829 49.6689 37.3809C49.6689 38.0788 49.7627 38.7012 49.9502 39.248C50.1429 39.7949 50.4268 40.2272 50.8018 40.5449C51.182 40.8574 51.6507 41.0137 52.208 41.0137ZM71.7373 31.3574V33.8574H64.5107V31.3574H71.7373ZM66.1514 28.4824H69.4795V39.6699C69.4795 39.9772 69.5264 40.2168 69.6201 40.3887C69.7139 40.5553 69.8441 40.6725 70.0107 40.7402C70.1826 40.8079 70.3805 40.8418 70.6045 40.8418C70.7607 40.8418 70.917 40.8288 71.0732 40.8027C71.2295 40.7715 71.3493 40.748 71.4326 40.7324L71.9561 43.209C71.7894 43.2611 71.555 43.321 71.2529 43.3887C70.9508 43.4616 70.5837 43.5059 70.1514 43.5215C69.3493 43.5527 68.6462 43.446 68.042 43.2012C67.443 42.9564 66.9769 42.5762 66.6436 42.0605C66.3102 41.5449 66.1462 40.8939 66.1514 40.1074V28.4824ZM77.4912 36.4199V43.3574H74.1631V27.3574H77.3975V33.4746H77.5381C77.8089 32.7663 78.2464 32.2116 78.8506 31.8105C79.4548 31.4043 80.2126 31.2012 81.124 31.2012C81.9574 31.2012 82.6839 31.3835 83.3037 31.748C83.9287 32.1074 84.4131 32.6257 84.7568 33.3027C85.1058 33.9746 85.2777 34.7793 85.2725 35.7168V43.3574H81.9443V36.3105C81.9495 35.571 81.762 34.9954 81.3818 34.584C81.0068 34.1725 80.4808 33.9668 79.8037 33.9668C79.3506 33.9668 78.9495 34.0632 78.6006 34.2559C78.2568 34.4486 77.986 34.7298 77.7881 35.0996C77.5954 35.4642 77.4964 35.9043 77.4912 36.4199ZM93.3604 43.5918C92.126 43.5918 91.0635 43.3418 90.1729 42.8418C89.2874 42.3366 88.6051 41.623 88.126 40.7012C87.6468 39.7741 87.4072 38.6777 87.4072 37.4121C87.4072 36.1777 87.6468 35.0944 88.126 34.1621C88.6051 33.2298 89.2796 32.5033 90.1494 31.9824C91.0244 31.4616 92.0505 31.2012 93.2275 31.2012C94.0192 31.2012 94.7562 31.3288 95.4385 31.584C96.126 31.834 96.7249 32.2116 97.2354 32.7168C97.751 33.222 98.152 33.8574 98.4385 34.623C98.7249 35.3835 98.8682 36.2741 98.8682 37.2949V38.209H88.7354V36.1465H95.7354C95.7354 35.6673 95.6312 35.2428 95.4229 34.873C95.2145 34.5033 94.9255 34.2142 94.5557 34.0059C94.1911 33.7923 93.7666 33.6855 93.2822 33.6855C92.777 33.6855 92.3291 33.8027 91.9385 34.0371C91.5531 34.2663 91.251 34.5762 91.0322 34.9668C90.8135 35.3522 90.7015 35.7819 90.6963 36.2559V38.2168C90.6963 38.8105 90.8057 39.3236 91.0244 39.7559C91.2484 40.1882 91.5635 40.5215 91.9697 40.7559C92.376 40.9902 92.8577 41.1074 93.415 41.1074C93.7848 41.1074 94.1234 41.0553 94.4307 40.9512C94.738 40.847 95.001 40.6908 95.2197 40.4824C95.4385 40.2741 95.6051 40.0189 95.7197 39.7168L98.7979 39.9199C98.6416 40.6595 98.3213 41.3053 97.8369 41.8574C97.3577 42.4043 96.738 42.8314 95.9775 43.1387C95.2223 43.4408 94.3499 43.5918 93.3604 43.5918ZM45.0029 53.3574L40.8076 65.3574H37.0576L32.8623 53.3574H36.3779L38.8701 61.9434H38.9951L41.4795 53.3574H45.0029ZM46.7061 65.3574V53.3574H50.0342V65.3574H46.7061ZM48.3779 51.8105C47.8831 51.8105 47.4587 51.6465 47.1045 51.3184C46.7555 50.985 46.5811 50.5866 46.5811 50.123C46.5811 49.6647 46.7555 49.2715 47.1045 48.9434C47.4587 48.61 47.8831 48.4434 48.3779 48.4434C48.8727 48.4434 49.2946 48.61 49.6436 48.9434C49.9977 49.2715 50.1748 49.6647 50.1748 50.123C50.1748 50.5866 49.9977 50.985 49.6436 51.3184C49.2946 51.6465 48.8727 51.8105 48.3779 51.8105ZM57.1221 65.5527C56.2106 65.5527 55.3851 65.3184 54.6455 64.8496C53.9111 64.3757 53.3278 63.6803 52.8955 62.7637C52.4684 61.8418 52.2549 60.7116 52.2549 59.373C52.2549 57.998 52.4762 56.8548 52.9189 55.9434C53.3617 55.0267 53.9502 54.3418 54.6846 53.8887C55.4242 53.4303 56.234 53.2012 57.1143 53.2012C57.7861 53.2012 58.346 53.3158 58.7939 53.5449C59.2471 53.7689 59.6117 54.0501 59.8877 54.3887C60.1689 54.722 60.3825 55.0501 60.5283 55.373H60.6299V49.3574H63.9502V65.3574H60.6689V63.4355H60.5283C60.3721 63.7689 60.1507 64.0996 59.8643 64.4277C59.583 64.7507 59.2158 65.0189 58.7627 65.2324C58.3148 65.446 57.7679 65.5527 57.1221 65.5527ZM58.1768 62.9043C58.7132 62.9043 59.1663 62.7585 59.5361 62.4668C59.9111 62.1699 60.1976 61.7559 60.3955 61.2246C60.5986 60.6934 60.7002 60.071 60.7002 59.3574C60.7002 58.6439 60.6012 58.0241 60.4033 57.498C60.2054 56.972 59.9189 56.5658 59.5439 56.2793C59.1689 55.9928 58.7132 55.8496 58.1768 55.8496C57.6299 55.8496 57.1689 55.998 56.7939 56.2949C56.4189 56.5918 56.1351 57.0033 55.9424 57.5293C55.7497 58.0553 55.6533 58.6647 55.6533 59.3574C55.6533 60.0553 55.7497 60.6725 55.9424 61.209C56.1403 61.7402 56.4242 62.1569 56.7939 62.459C57.1689 62.7559 57.6299 62.9043 58.1768 62.9043ZM72.1553 65.5918C70.9209 65.5918 69.8584 65.3418 68.9678 64.8418C68.0824 64.3366 67.4001 63.623 66.9209 62.7012C66.4417 61.7741 66.2021 60.6777 66.2021 59.4121C66.2021 58.1777 66.4417 57.0944 66.9209 56.1621C67.4001 55.2298 68.0745 54.5033 68.9443 53.9824C69.8193 53.4616 70.8454 53.2012 72.0225 53.2012C72.8141 53.2012 73.5511 53.3288 74.2334 53.584C74.9209 53.834 75.5199 54.2116 76.0303 54.7168C76.5459 55.222 76.9469 55.8574 77.2334 56.623C77.5199 57.3835 77.6631 58.2741 77.6631 59.2949V60.209H67.5303V58.1465H74.5303C74.5303 57.6673 74.4261 57.2428 74.2178 56.873C74.0094 56.5033 73.7204 56.2142 73.3506 56.0059C72.986 55.7923 72.5615 55.6855 72.0771 55.6855C71.5719 55.6855 71.124 55.8027 70.7334 56.0371C70.348 56.2663 70.0459 56.5762 69.8271 56.9668C69.6084 57.3522 69.4964 57.7819 69.4912 58.2559V60.2168C69.4912 60.8105 69.6006 61.3236 69.8193 61.7559C70.0433 62.1882 70.3584 62.5215 70.7646 62.7559C71.1709 62.9902 71.6527 63.1074 72.21 63.1074C72.5798 63.1074 72.9183 63.0553 73.2256 62.9512C73.5329 62.847 73.7959 62.6908 74.0146 62.4824C74.2334 62.2741 74.4001 62.0189 74.5146 61.7168L77.5928 61.9199C77.4365 62.6595 77.1162 63.3053 76.6318 63.8574C76.1527 64.4043 75.5329 64.8314 74.7725 65.1387C74.0173 65.4408 73.1449 65.5918 72.1553 65.5918ZM85.2568 65.5918C84.0433 65.5918 82.9938 65.334 82.1084 64.8184C81.2282 64.2975 80.5485 63.5736 80.0693 62.6465C79.5902 61.7142 79.3506 60.6335 79.3506 59.4043C79.3506 58.1647 79.5902 57.0814 80.0693 56.1543C80.5485 55.222 81.2282 54.498 82.1084 53.9824C82.9938 53.4616 84.0433 53.2012 85.2568 53.2012C86.4704 53.2012 87.5173 53.4616 88.3975 53.9824C89.2829 54.498 89.9652 55.222 90.4443 56.1543C90.9235 57.0814 91.1631 58.1647 91.1631 59.4043C91.1631 60.6335 90.9235 61.7142 90.4443 62.6465C89.9652 63.5736 89.2829 64.2975 88.3975 64.8184C87.5173 65.334 86.4704 65.5918 85.2568 65.5918ZM85.2725 63.0137C85.8245 63.0137 86.2855 62.8574 86.6553 62.5449C87.0251 62.2272 87.3037 61.7949 87.4912 61.248C87.6839 60.7012 87.7803 60.0788 87.7803 59.3809C87.7803 58.6829 87.6839 58.0605 87.4912 57.5137C87.3037 56.9668 87.0251 56.5345 86.6553 56.2168C86.2855 55.8991 85.8245 55.7402 85.2725 55.7402C84.7152 55.7402 84.2464 55.8991 83.8662 56.2168C83.4912 56.5345 83.2074 56.9668 83.0146 57.5137C82.8271 58.0605 82.7334 58.6829 82.7334 59.3809C82.7334 60.0788 82.8271 60.7012 83.0146 61.248C83.2074 61.7949 83.4912 62.2272 83.8662 62.5449C84.2464 62.8574 84.7152 63.0137 85.2725 63.0137ZM103.312 56.7793L100.265 56.9668C100.213 56.7064 100.101 56.472 99.9287 56.2637C99.7568 56.0501 99.5303 55.8809 99.249 55.7559C98.973 55.6257 98.6423 55.5605 98.2568 55.5605C97.7412 55.5605 97.3063 55.6699 96.9521 55.8887C96.598 56.1022 96.4209 56.3887 96.4209 56.748C96.4209 57.0345 96.5355 57.2767 96.7646 57.4746C96.9938 57.6725 97.387 57.8314 97.9443 57.9512L100.116 58.3887C101.283 58.6283 102.153 59.0137 102.726 59.5449C103.299 60.0762 103.585 60.7741 103.585 61.6387C103.585 62.4251 103.353 63.1152 102.89 63.709C102.431 64.3027 101.801 64.7663 100.999 65.0996C100.202 65.4277 99.2829 65.5918 98.2412 65.5918C96.6527 65.5918 95.387 65.2611 94.4443 64.5996C93.5068 63.9329 92.9574 63.0267 92.7959 61.8809L96.0693 61.709C96.1683 62.1934 96.4079 62.5632 96.7881 62.8184C97.1683 63.0684 97.6553 63.1934 98.249 63.1934C98.8324 63.1934 99.3011 63.0814 99.6553 62.8574C100.015 62.6283 100.197 62.334 100.202 61.9746C100.197 61.6725 100.069 61.4251 99.8193 61.2324C99.5693 61.0345 99.1839 60.8835 98.6631 60.7793L96.585 60.3652C95.4131 60.1309 94.5407 59.7246 93.9678 59.1465C93.4001 58.5684 93.1162 57.8314 93.1162 56.9355C93.1162 56.1647 93.3245 55.5007 93.7412 54.9434C94.1631 54.3861 94.7542 53.9564 95.5146 53.6543C96.2803 53.3522 97.1761 53.2012 98.2021 53.2012C99.7178 53.2012 100.91 53.5215 101.78 54.1621C102.655 54.8027 103.166 55.6751 103.312 56.7793Z" fill="black"/>
<rect x="32" y="151" width="118.426" height="28" rx="14" fill="#FDF0F0"/>
<path d="M45.5273 163.974C45.5811 163.774 45.731 163.605 45.923 163.528C45.731 163.605 45.5811 163.77 45.5273 163.974Z" fill="#DB0000"/>
<path d="M59.1221 171.715C59.3143 171.638 59.464 171.473 59.5179 171.269C59.464 171.469 59.3143 171.634 59.1221 171.715Z" fill="#DB0000"/>
<mask id="mask0_506_36138" style="mask-type:luminance" maskUnits="userSpaceOnUse" x="45" y="171" width="2" height="1">
<path d="M45.5703 171.363H46.0855V171.857H45.5703V171.363Z" fill="white"/>
</mask>
<g mask="url(#mask0_506_36138)">
<path d="M46.0694 171.844C45.8505 171.79 45.6697 171.621 45.5967 171.405C45.6659 171.621 45.8464 171.79 46.0694 171.844Z" fill="#DB0000"/>
</g>
<mask id="mask1_506_36138" style="mask-type:luminance" maskUnits="userSpaceOnUse" x="45" y="163" width="15" height="9">
<path d="M45.4668 163.328H59.5431V171.859H45.4668V163.328Z" fill="white"/>
</mask>
<g mask="url(#mask1_506_36138)">
<path d="M58.8305 163.381H58.8152C56.2445 163.4 53.674 163.419 51.1033 163.438C49.455 163.45 47.8103 163.465 46.162 163.477C45.8046 163.481 45.5011 163.781 45.5049 164.135C45.5242 166.492 45.5395 168.849 45.5589 171.203C45.5627 171.561 45.8585 171.861 46.2119 171.861H46.2158C47.9295 171.849 49.6394 171.834 51.3531 171.822L53.9391 171.803L56.4097 171.784L58.8804 171.765C59.2378 171.761 59.5413 171.461 59.5375 171.107C59.5184 168.749 59.5029 166.392 59.4838 164.038C59.4838 163.685 59.1841 163.381 58.8305 163.381Z" fill="#DB0000"/>
</g>
<mask id="mask2_506_36138" style="mask-type:luminance" maskUnits="userSpaceOnUse" x="45" y="158" width="14" height="7">
<path d="M45.1299 158.138H58.9658V164.51H45.1299V158.138Z" fill="white"/>
</mask>
<g mask="url(#mask2_506_36138)">
<path d="M57.6704 158.165C56.9479 158.403 56.2294 158.638 55.5071 158.873C55.5033 158.873 55.5033 158.873 55.4995 158.873C52.6291 159.815 49.7549 160.753 46.8846 161.692C46.7654 161.73 46.6503 161.768 46.5312 161.807C46.2659 161.895 46.0008 161.98 45.7358 162.069C45.5398 162.134 45.3745 162.238 45.267 162.422C45.2439 162.461 45.2208 162.503 45.2055 162.549C45.1479 162.699 45.1324 162.872 45.1825 163.022C45.1902 163.053 45.1978 163.08 45.2093 163.107C45.2976 163.376 45.386 163.645 45.4705 163.911C45.5359 164.107 45.6396 164.272 45.8203 164.38C45.9894 164.484 46.2277 164.53 46.4197 164.464C49.2938 163.526 52.168 162.588 55.0422 161.646C56.1449 161.284 57.2514 160.922 58.3543 160.565C58.5503 160.499 58.7156 160.396 58.823 160.215C58.9269 160.046 58.973 159.807 58.9076 159.615C58.8116 159.319 58.7156 159.023 58.6156 158.723C58.5503 158.527 58.4465 158.361 58.266 158.254C58.1506 158.184 58.0086 158.142 57.8663 158.138C57.8011 158.138 57.7318 158.146 57.6704 158.165Z" fill="#DB0000"/>
</g>
<path d="M55.5066 158.877C55.5028 158.877 55.5028 158.877 55.4989 158.88L53.5047 159.53C53.2625 160.484 53.0204 161.438 52.7783 162.391L55.0417 161.653L55.5412 161.491C55.7831 160.538 56.0252 159.584 56.2673 158.63L55.5066 158.877Z" fill="#FDF0F0"/>
<path d="M58.292 160.587L58.3536 160.568C58.5687 160.499 58.7225 160.383 58.8223 160.214C58.9338 160.029 58.9684 159.795 58.9068 159.614L58.6993 158.976C58.5649 159.514 58.4305 160.053 58.292 160.587Z" fill="#FDF0F0"/>
<path d="M49.3591 160.883L47.9489 161.344C47.7643 162.071 47.58 162.802 47.3916 163.529C48.0411 163.525 48.6905 163.517 49.3398 163.513L50.0198 163.29C50.262 162.336 50.5041 161.382 50.7462 160.429L49.3591 160.883Z" fill="#FDF0F0"/>
<path d="M51.2027 165.306C51.1065 165.306 51.0105 165.333 50.926 165.379C50.8415 165.429 50.7684 165.498 50.7185 165.583C50.6915 165.625 50.6724 165.671 50.6609 165.722C50.6492 165.768 50.6416 165.818 50.6416 165.864V169.36C50.6416 169.556 50.7493 169.74 50.9183 169.84C51.0029 169.89 51.0989 169.917 51.1989 169.917C51.2987 169.917 51.3947 169.89 51.4831 169.84C52.49 169.259 53.5005 168.675 54.5072 168.094C54.6762 167.998 54.7837 167.81 54.7837 167.614C54.7837 167.417 54.6762 167.229 54.5072 167.133L52.1249 165.756L51.4831 165.387C51.4487 165.368 51.4102 165.352 51.3718 165.337C51.3178 165.314 51.2603 165.306 51.2027 165.306Z" fill="#FDF0F0"/>
<path d="M75.8801 163.065C75.8032 162.815 75.697 162.592 75.5616 162.395C75.4292 162.195 75.2692 162.024 75.0815 161.883C74.8968 161.741 74.6844 161.635 74.4444 161.564C74.2043 161.49 73.9427 161.453 73.6596 161.453C73.1518 161.453 72.6994 161.581 72.3023 161.837C71.9053 162.092 71.5929 162.468 71.3652 162.963C71.1405 163.455 71.0282 164.056 71.0282 164.763C71.0282 165.478 71.1405 166.082 71.3652 166.578C71.5899 167.073 71.9022 167.45 72.3023 167.709C72.7024 167.964 73.1672 168.092 73.6965 168.092C74.1766 168.092 74.5921 168 74.943 167.815C75.2969 167.63 75.5693 167.369 75.7601 167.03C75.9509 166.689 76.0463 166.288 76.0463 165.83L76.4341 165.89H73.8673V164.551H77.7036V165.687C77.7036 166.496 77.5313 167.196 77.1866 167.787C76.8419 168.378 76.3679 168.834 75.7647 169.154C75.1615 169.471 74.469 169.629 73.6873 169.629C72.8163 169.629 72.0515 169.434 71.3929 169.043C70.7373 168.649 70.2249 168.09 69.8556 167.367C69.4894 166.641 69.3062 165.779 69.3062 164.782C69.3062 164.019 69.414 163.337 69.6294 162.737C69.8479 162.137 70.1526 161.627 70.5435 161.209C70.9343 160.787 71.3929 160.467 71.9192 160.249C72.4454 160.027 73.0179 159.916 73.6365 159.916C74.1597 159.916 74.6475 159.993 75.0999 160.147C75.5523 160.298 75.954 160.513 76.3048 160.793C76.6588 161.073 76.9496 161.406 77.1773 161.79C77.4051 162.175 77.5543 162.6 77.6251 163.065H75.8801ZM82.379 169.638C81.6865 169.638 81.0863 169.486 80.5785 169.181C80.0707 168.877 79.6768 168.451 79.3967 167.903C79.1197 167.355 78.9812 166.715 78.9812 165.982C78.9812 165.25 79.1197 164.608 79.3967 164.057C79.6768 163.506 80.0707 163.078 80.5785 162.774C81.0863 162.469 81.6865 162.317 82.379 162.317C83.0714 162.317 83.6716 162.469 84.1794 162.774C84.6872 163.078 85.0796 163.506 85.3566 164.057C85.6366 164.608 85.7767 165.25 85.7767 165.982C85.7767 166.715 85.6366 167.355 85.3566 167.903C85.0796 168.451 84.6872 168.877 84.1794 169.181C83.6716 169.486 83.0714 169.638 82.379 169.638ZM82.3882 168.3C82.7637 168.3 83.0776 168.197 83.3299 167.99C83.5823 167.781 83.77 167.501 83.8932 167.15C84.0193 166.799 84.0824 166.408 84.0824 165.978C84.0824 165.544 84.0193 165.151 83.8932 164.8C83.77 164.446 83.5823 164.165 83.3299 163.956C83.0776 163.746 82.7637 163.642 82.3882 163.642C82.0035 163.642 81.6834 163.746 81.428 163.956C81.1756 164.165 80.9863 164.446 80.8601 164.8C80.737 165.151 80.6755 165.544 80.6755 165.978C80.6755 166.408 80.737 166.799 80.8601 167.15C80.9863 167.501 81.1756 167.781 81.428 167.99C81.6834 168.197 82.0035 168.3 82.3882 168.3ZM93.9605 162.409V163.702H89.8842V162.409H93.9605ZM90.8906 160.71H92.5617V167.367C92.5617 167.592 92.5956 167.764 92.6633 167.884C92.7341 168.001 92.8264 168.081 92.9403 168.124C93.0542 168.167 93.1804 168.189 93.3188 168.189C93.4235 168.189 93.5189 168.181 93.6051 168.166C93.6943 168.15 93.762 168.137 93.8082 168.124L94.0898 169.431C94.0005 169.462 93.8728 169.495 93.7066 169.532C93.5435 169.569 93.3435 169.591 93.1065 169.597C92.6879 169.609 92.3109 169.546 91.9755 169.408C91.64 169.266 91.3738 169.048 91.1768 168.752C90.9829 168.457 90.8875 168.087 90.8906 167.644V160.71ZM98.375 169.638C97.6826 169.638 97.0824 169.486 96.5746 169.181C96.0668 168.877 95.6729 168.451 95.3928 167.903C95.1158 167.355 94.9773 166.715 94.9773 165.982C94.9773 165.25 95.1158 164.608 95.3928 164.057C95.6729 163.506 96.0668 163.078 96.5746 162.774C97.0824 162.469 97.6826 162.317 98.375 162.317C99.0675 162.317 99.6677 162.469 100.175 162.774C100.683 163.078 101.076 163.506 101.353 164.057C101.633 164.608 101.773 165.25 101.773 165.982C101.773 166.715 101.633 167.355 101.353 167.903C101.076 168.451 100.683 168.877 100.175 169.181C99.6677 169.486 99.0675 169.638 98.375 169.638ZM98.3843 168.3C98.7598 168.3 99.0737 168.197 99.326 167.99C99.5784 167.781 99.7661 167.501 99.8892 167.15C100.015 166.799 100.079 166.408 100.079 165.978C100.079 165.544 100.015 165.151 99.8892 164.8C99.7661 164.446 99.5784 164.165 99.326 163.956C99.0737 163.746 98.7598 163.642 98.3843 163.642C97.9996 163.642 97.6795 163.746 97.4241 163.956C97.1717 164.165 96.9824 164.446 96.8562 164.8C96.7331 165.151 96.6716 165.544 96.6716 165.978C96.6716 166.408 96.7331 166.799 96.8562 167.15C96.9824 167.501 97.1717 167.781 97.4241 167.99C97.6795 168.197 97.9996 168.3 98.3843 168.3ZM106.416 172.159V162.409H108.059V163.582H108.156C108.242 163.409 108.364 163.226 108.521 163.032C108.678 162.835 108.89 162.668 109.158 162.529C109.426 162.388 109.767 162.317 110.183 162.317C110.731 162.317 111.225 162.457 111.665 162.737C112.108 163.014 112.459 163.425 112.717 163.969C112.979 164.511 113.11 165.176 113.11 165.964C113.11 166.742 112.982 167.404 112.727 167.949C112.471 168.494 112.123 168.909 111.683 169.195C111.243 169.482 110.745 169.625 110.187 169.625C109.781 169.625 109.444 169.557 109.176 169.422C108.909 169.286 108.693 169.123 108.53 168.932C108.37 168.738 108.245 168.555 108.156 168.383H108.087V172.159H106.416ZM108.055 165.955C108.055 166.413 108.119 166.815 108.249 167.159C108.381 167.504 108.57 167.773 108.816 167.967C109.066 168.158 109.367 168.254 109.721 168.254C110.091 168.254 110.4 168.155 110.649 167.958C110.898 167.758 111.086 167.486 111.212 167.141C111.342 166.793 111.406 166.398 111.406 165.955C111.406 165.514 111.343 165.124 111.217 164.782C111.091 164.44 110.903 164.173 110.654 163.979C110.404 163.785 110.094 163.688 109.721 163.688C109.364 163.688 109.061 163.782 108.812 163.969C108.562 164.157 108.373 164.42 108.244 164.759C108.118 165.097 108.055 165.496 108.055 165.955ZM116.581 169.643C116.132 169.643 115.727 169.563 115.367 169.403C115.01 169.24 114.727 169 114.518 168.683C114.312 168.366 114.208 167.975 114.208 167.51C114.208 167.11 114.282 166.779 114.43 166.518C114.578 166.256 114.779 166.047 115.035 165.89C115.29 165.733 115.578 165.614 115.898 165.534C116.221 165.451 116.555 165.391 116.9 165.354C117.315 165.311 117.652 165.273 117.911 165.239C118.169 165.202 118.357 165.147 118.474 165.073C118.594 164.996 118.654 164.877 118.654 164.717V164.69C118.654 164.342 118.551 164.073 118.345 163.882C118.139 163.691 117.842 163.596 117.454 163.596C117.044 163.596 116.72 163.685 116.48 163.863C116.243 164.042 116.083 164.253 116 164.496L114.439 164.274C114.562 163.843 114.765 163.483 115.049 163.194C115.332 162.902 115.678 162.683 116.087 162.538C116.497 162.391 116.949 162.317 117.445 162.317C117.786 162.317 118.126 162.357 118.465 162.437C118.803 162.517 119.113 162.649 119.393 162.834C119.673 163.015 119.897 163.263 120.067 163.577C120.239 163.891 120.325 164.283 120.325 164.754V169.5H118.719V168.526H118.663C118.562 168.723 118.419 168.908 118.234 169.08C118.052 169.249 117.823 169.386 117.546 169.491C117.272 169.592 116.951 169.643 116.581 169.643ZM117.015 168.415C117.351 168.415 117.642 168.349 117.888 168.217C118.134 168.081 118.323 167.903 118.456 167.681C118.591 167.46 118.659 167.218 118.659 166.956V166.121C118.606 166.164 118.517 166.204 118.391 166.241C118.268 166.278 118.129 166.31 117.975 166.338C117.822 166.365 117.669 166.39 117.518 166.412C117.368 166.433 117.237 166.452 117.126 166.467C116.877 166.501 116.654 166.556 116.457 166.633C116.26 166.71 116.104 166.818 115.99 166.956C115.876 167.092 115.82 167.267 115.82 167.483C115.82 167.79 115.932 168.023 116.157 168.18C116.381 168.337 116.667 168.415 117.015 168.415ZM125.089 172.307C124.489 172.307 123.974 172.225 123.543 172.062C123.112 171.902 122.766 171.687 122.504 171.416C122.243 171.145 122.061 170.845 121.959 170.516L123.464 170.151C123.532 170.289 123.631 170.426 123.76 170.562C123.889 170.7 124.063 170.814 124.282 170.903C124.503 170.996 124.782 171.042 125.117 171.042C125.591 171.042 125.984 170.926 126.294 170.696C126.605 170.468 126.761 170.092 126.761 169.569V168.226H126.678C126.591 168.398 126.465 168.575 126.299 168.757C126.136 168.938 125.919 169.091 125.648 169.214C125.38 169.337 125.043 169.398 124.637 169.398C124.092 169.398 123.598 169.271 123.155 169.015C122.715 168.757 122.364 168.372 122.103 167.861C121.844 167.347 121.715 166.704 121.715 165.931C121.715 165.153 121.844 164.496 122.103 163.96C122.364 163.422 122.717 163.014 123.16 162.737C123.603 162.457 124.097 162.317 124.642 162.317C125.057 162.317 125.399 162.388 125.667 162.529C125.937 162.668 126.153 162.835 126.313 163.032C126.473 163.226 126.594 163.409 126.678 163.582H126.77V162.409H128.418V169.615C128.418 170.222 128.273 170.723 127.984 171.12C127.695 171.517 127.299 171.814 126.798 172.011C126.296 172.208 125.727 172.307 125.089 172.307ZM125.103 168.087C125.457 168.087 125.759 168.001 126.008 167.829C126.257 167.656 126.447 167.409 126.576 167.086C126.705 166.762 126.77 166.375 126.77 165.922C126.77 165.476 126.705 165.085 126.576 164.75C126.45 164.414 126.262 164.154 126.013 163.969C125.767 163.782 125.463 163.688 125.103 163.688C124.731 163.688 124.42 163.785 124.171 163.979C123.921 164.173 123.734 164.439 123.608 164.777C123.481 165.113 123.418 165.494 123.418 165.922C123.418 166.356 123.481 166.736 123.608 167.062C123.737 167.386 123.926 167.638 124.175 167.82C124.428 167.998 124.737 168.087 125.103 168.087ZM133.27 169.638C132.559 169.638 131.945 169.491 131.428 169.195C130.914 168.897 130.518 168.475 130.241 167.93C129.964 167.383 129.826 166.738 129.826 165.996C129.826 165.267 129.964 164.627 130.241 164.076C130.521 163.522 130.912 163.091 131.414 162.783C131.916 162.472 132.505 162.317 133.182 162.317C133.619 162.317 134.032 162.388 134.419 162.529C134.81 162.668 135.155 162.883 135.453 163.175C135.755 163.468 135.992 163.84 136.164 164.293C136.337 164.742 136.423 165.277 136.423 165.899V166.412H130.611V165.285H134.821C134.818 164.965 134.749 164.68 134.613 164.431C134.478 164.179 134.289 163.98 134.045 163.836C133.805 163.691 133.525 163.619 133.205 163.619C132.864 163.619 132.564 163.702 132.305 163.868C132.046 164.031 131.845 164.246 131.7 164.514C131.559 164.779 131.486 165.07 131.483 165.387V166.37C131.483 166.782 131.559 167.136 131.709 167.432C131.86 167.724 132.071 167.949 132.342 168.106C132.613 168.26 132.93 168.337 133.293 168.337C133.536 168.337 133.756 168.303 133.953 168.235C134.15 168.164 134.321 168.061 134.466 167.926C134.61 167.79 134.719 167.623 134.793 167.423L136.354 167.598C136.255 168.01 136.067 168.371 135.79 168.678C135.517 168.983 135.166 169.22 134.738 169.389C134.31 169.555 133.821 169.638 133.27 169.638Z" fill="#DB0000"/>
<path d="M33.5316 97.7441V88.2896H39.2006V89.3052H34.6765V92.4998H38.7759V93.5154H34.6765V97.7441H33.5316ZM43.3739 97.8919C42.7338 97.8919 42.1721 97.7395 41.6889 97.4348C41.2088 97.1301 40.8333 96.7039 40.5625 96.1561C40.2947 95.6083 40.1609 94.9681 40.1609 94.2356C40.1609 93.497 40.2947 92.8522 40.5625 92.3013C40.8333 91.7504 41.2088 91.3226 41.6889 91.0179C42.1721 90.7132 42.7338 90.5609 43.3739 90.5609C44.0141 90.5609 44.5742 90.7132 45.0543 91.0179C45.5375 91.3226 45.913 91.7504 46.1808 92.3013C46.4516 92.8522 46.587 93.497 46.587 94.2356C46.587 94.9681 46.4516 95.6083 46.1808 96.1561C45.913 96.7039 45.5375 97.1301 45.0543 97.4348C44.5742 97.7395 44.0141 97.8919 43.3739 97.8919ZM43.3739 96.9132C43.8602 96.9132 44.2603 96.7885 44.5742 96.5392C44.8881 96.29 45.1205 95.9622 45.2713 95.5559C45.4221 95.1497 45.4975 94.7096 45.4975 94.2356C45.4975 93.7617 45.4221 93.32 45.2713 92.9107C45.1205 92.5014 44.8881 92.1705 44.5742 91.9181C44.2603 91.6658 43.8602 91.5396 43.3739 91.5396C42.8877 91.5396 42.4876 91.6658 42.1737 91.9181C41.8597 92.1705 41.6274 92.5014 41.4766 92.9107C41.3258 93.32 41.2504 93.7617 41.2504 94.2356C41.2504 94.7096 41.3258 95.1497 41.4766 95.5559C41.6274 95.9622 41.8597 96.29 42.1737 96.5392C42.4876 96.7885 42.8877 96.9132 43.3739 96.9132ZM48.2501 97.7441V90.6532H49.3026V91.7243H49.3765C49.5058 91.3734 49.7397 91.0887 50.0782 90.8702C50.4168 90.6517 50.7984 90.5424 51.2231 90.5424C51.3031 90.5424 51.4031 90.544 51.5232 90.5471C51.6432 90.5501 51.734 90.5547 51.7955 90.5609V91.6689C51.7586 91.6596 51.674 91.6458 51.5416 91.6273C51.4124 91.6058 51.2754 91.595 51.1308 91.595C50.7861 91.595 50.4783 91.6673 50.2075 91.812C49.9397 91.9535 49.7274 92.1505 49.5704 92.4029C49.4165 92.6522 49.3396 92.9368 49.3396 93.2569V97.7441H48.2501ZM54.8078 97.7441L52.6473 90.6532H53.7922L55.3248 96.0822H55.3987L56.9129 90.6532H58.0763L59.572 96.0637H59.6459L61.1785 90.6532H62.3234L60.1629 97.7441H59.0919L57.5407 92.2967H57.43L55.8788 97.7441H54.8078ZM65.8504 97.9103C65.4011 97.9103 64.9933 97.8257 64.627 97.6564C64.2608 97.4841 63.97 97.2363 63.7545 96.9132C63.5391 96.5869 63.4314 96.193 63.4314 95.7314C63.4314 95.3251 63.5114 94.9958 63.6714 94.7434C63.8315 94.488 64.0454 94.2879 64.3131 94.1433C64.5809 93.9986 64.8763 93.8909 65.1995 93.8201C65.5257 93.7463 65.8535 93.6878 66.1828 93.6447C66.6137 93.5893 66.963 93.5478 67.2307 93.5201C67.5016 93.4893 67.6985 93.4385 67.8216 93.3677C67.9478 93.2969 68.0109 93.1738 68.0109 92.9984V92.9615C68.0109 92.506 67.8863 92.152 67.637 91.8997C67.3908 91.6473 67.0168 91.5211 66.5152 91.5211C65.9951 91.5211 65.5873 91.635 65.2918 91.8627C64.9964 92.0905 64.7886 92.3336 64.6686 92.5922L63.6345 92.2228C63.8192 91.792 64.0654 91.4565 64.3731 91.2164C64.684 90.9733 65.0225 90.804 65.3888 90.7086C65.7581 90.6101 66.1212 90.5609 66.4782 90.5609C66.706 90.5609 66.9676 90.5886 67.2631 90.644C67.5616 90.6963 67.8493 90.8056 68.1263 90.9718C68.4064 91.138 68.6388 91.3888 68.8234 91.7243C69.0081 92.0597 69.1004 92.5091 69.1004 93.0723V97.7441H68.0109V96.7839H67.9555C67.8817 96.9378 67.7586 97.1025 67.5862 97.2779C67.4139 97.4533 67.1846 97.6026 66.8983 97.7257C66.6121 97.8488 66.2628 97.9103 65.8504 97.9103ZM66.0166 96.9316C66.4475 96.9316 66.8106 96.847 67.1061 96.6777C67.4046 96.5085 67.6293 96.29 67.7801 96.0222C67.934 95.7544 68.0109 95.4728 68.0109 95.1774V94.1802C67.9648 94.2356 67.8632 94.2864 67.7062 94.3326C67.5523 94.3757 67.3738 94.4141 67.1707 94.448C66.9707 94.4788 66.7752 94.5065 66.5844 94.5311C66.3967 94.5526 66.2443 94.5711 66.1274 94.5865C65.8443 94.6234 65.5796 94.6834 65.3334 94.7665C65.0902 94.8465 64.8933 94.9681 64.7425 95.1312C64.5947 95.2913 64.5209 95.5098 64.5209 95.7868C64.5209 96.1653 64.6609 96.4515 64.941 96.6454C65.2241 96.8362 65.5827 96.9316 66.0166 96.9316ZM71.089 97.7441V90.6532H72.1415V91.7243H72.2154C72.3446 91.3734 72.5785 91.0887 72.9171 90.8702C73.2556 90.6517 73.6373 90.5424 74.062 90.5424C74.142 90.5424 74.242 90.544 74.362 90.5471C74.4821 90.5501 74.5729 90.5547 74.6344 90.5609V91.6689C74.5975 91.6596 74.5128 91.6458 74.3805 91.6273C74.2512 91.6058 74.1143 91.595 73.9696 91.595C73.6249 91.595 73.3172 91.6673 73.0463 91.812C72.7786 91.9535 72.5662 92.1505 72.4093 92.4029C72.2554 92.6522 72.1784 92.9368 72.1784 93.2569V97.7441H71.089ZM78.3876 97.8919C77.7967 97.8919 77.275 97.7426 76.8226 97.4441C76.3702 97.1425 76.0163 96.7177 75.7608 96.1699C75.5054 95.619 75.3777 94.9681 75.3777 94.2172C75.3777 93.4724 75.5054 92.8261 75.7608 92.2782C76.0163 91.7304 76.3717 91.3072 76.8272 91.0087C77.2827 90.7102 77.809 90.5609 78.4061 90.5609C78.8677 90.5609 79.2324 90.6378 79.5002 90.7917C79.771 90.9425 79.9772 91.1149 80.1188 91.3088C80.2634 91.4996 80.3758 91.6565 80.4558 91.7797H80.5481V88.2896H81.6376V97.7441H80.585V96.6547H80.4558C80.3758 96.7839 80.2619 96.947 80.1142 97.144C79.9664 97.3379 79.7556 97.5118 79.4817 97.6657C79.2078 97.8165 78.8431 97.8919 78.3876 97.8919ZM78.5353 96.9132C78.9724 96.9132 79.3417 96.7993 79.6433 96.5716C79.9449 96.3407 80.1742 96.0222 80.3311 95.6159C80.4881 95.2066 80.5666 94.7342 80.5666 94.1987C80.5666 93.6693 80.4896 93.2061 80.3358 92.8091C80.1819 92.409 79.9541 92.0982 79.6525 91.8766C79.3509 91.6519 78.9785 91.5396 78.5353 91.5396C78.0737 91.5396 77.689 91.6581 77.3812 91.8951C77.0765 92.129 76.8472 92.4475 76.6934 92.8507C76.5426 93.2508 76.4672 93.7001 76.4672 94.1987C76.4672 94.7034 76.5441 95.162 76.698 95.5744C76.8549 95.9837 77.0858 96.31 77.3904 96.5531C77.6982 96.7931 78.0798 96.9132 78.5353 96.9132ZM90.5243 90.6532V91.5765H86.8496V90.6532H90.5243ZM87.9206 88.9544H89.0101V95.7129C89.0101 96.0207 89.0547 96.2515 89.144 96.4054C89.2363 96.5562 89.3533 96.6577 89.4949 96.71C89.6395 96.7593 89.7918 96.7839 89.9519 96.7839C90.0719 96.7839 90.1704 96.7778 90.2473 96.7654C90.3243 96.7501 90.3858 96.7377 90.432 96.7285L90.6536 97.7072C90.5797 97.7349 90.4766 97.7626 90.3443 97.7903C90.2119 97.8211 90.0442 97.8365 89.8411 97.8365C89.5333 97.8365 89.2317 97.7703 88.9363 97.638C88.6439 97.5056 88.4007 97.304 88.2069 97.0332C88.016 96.7624 87.9206 96.4208 87.9206 96.0083V88.9544ZM94.9677 97.8919C94.3275 97.8919 93.7659 97.7395 93.2827 97.4348C92.8026 97.1301 92.4271 96.7039 92.1562 96.1561C91.8885 95.6083 91.7546 94.9681 91.7546 94.2356C91.7546 93.497 91.8885 92.8522 92.1562 92.3013C92.4271 91.7504 92.8026 91.3226 93.2827 91.0179C93.7659 90.7132 94.3275 90.5609 94.9677 90.5609C95.6078 90.5609 96.168 90.7132 96.6481 91.0179C97.1313 91.3226 97.5067 91.7504 97.7745 92.3013C98.0453 92.8522 98.1808 93.497 98.1808 94.2356C98.1808 94.9681 98.0453 95.6083 97.7745 96.1561C97.5067 96.7039 97.1313 97.1301 96.6481 97.4348C96.168 97.7395 95.6078 97.8919 94.9677 97.8919ZM94.9677 96.9132C95.454 96.9132 95.854 96.7885 96.168 96.5392C96.4819 96.29 96.7143 95.9622 96.8651 95.5559C97.0159 95.1497 97.0913 94.7096 97.0913 94.2356C97.0913 93.7617 97.0159 93.32 96.8651 92.9107C96.7143 92.5014 96.4819 92.1705 96.168 91.9181C95.854 91.6658 95.454 91.5396 94.9677 91.5396C94.4814 91.5396 94.0813 91.6658 93.7674 91.9181C93.4535 92.1705 93.2211 92.5014 93.0703 92.9107C92.9195 93.32 92.8441 93.7617 92.8441 94.2356C92.8441 94.7096 92.9195 95.1497 93.0703 95.5559C93.2211 95.9622 93.4535 96.29 93.7674 96.5392C94.0813 96.7885 94.4814 96.9132 94.9677 96.9132ZM105.587 97.9103C105.137 97.9103 104.73 97.8257 104.363 97.6564C103.997 97.4841 103.706 97.2363 103.491 96.9132C103.275 96.5869 103.168 96.193 103.168 95.7314C103.168 95.3251 103.248 94.9958 103.408 94.7434C103.568 94.488 103.782 94.2879 104.049 94.1433C104.317 93.9986 104.613 93.8909 104.936 93.8201C105.262 93.7463 105.59 93.6878 105.919 93.6447C106.35 93.5893 106.699 93.5478 106.967 93.5201C107.238 93.4893 107.435 93.4385 107.558 93.3677C107.684 93.2969 107.747 93.1738 107.747 92.9984V92.9615C107.747 92.506 107.623 92.152 107.373 91.8997C107.127 91.6473 106.753 91.5211 106.252 91.5211C105.731 91.5211 105.324 91.635 105.028 91.8627C104.733 92.0905 104.525 92.3336 104.405 92.5922L103.371 92.2228C103.555 91.792 103.802 91.4565 104.109 91.2164C104.42 90.9733 104.759 90.804 105.125 90.7086C105.494 90.6101 105.858 90.5609 106.215 90.5609C106.442 90.5609 106.704 90.5886 106.999 90.644C107.298 90.6963 107.586 90.8056 107.863 90.9718C108.143 91.138 108.375 91.3888 108.56 91.7243C108.744 92.0597 108.837 92.5091 108.837 93.0723V97.7441H107.747V96.7839H107.692C107.618 96.9378 107.495 97.1025 107.323 97.2779C107.15 97.4533 106.921 97.6026 106.635 97.7257C106.348 97.8488 105.999 97.9103 105.587 97.9103ZM105.753 96.9316C106.184 96.9316 106.547 96.847 106.842 96.6777C107.141 96.5085 107.366 96.29 107.516 96.0222C107.67 95.7544 107.747 95.4728 107.747 95.1774V94.1802C107.701 94.2356 107.6 94.2864 107.443 94.3326C107.289 94.3757 107.11 94.4141 106.907 94.448C106.707 94.4788 106.512 94.5065 106.321 94.5311C106.133 94.5526 105.981 94.5711 105.864 94.5865C105.581 94.6234 105.316 94.6834 105.07 94.7665C104.827 94.8465 104.63 94.9681 104.479 95.1312C104.331 95.2913 104.257 95.5098 104.257 95.7868C104.257 96.1653 104.397 96.4515 104.677 96.6454C104.96 96.8362 105.319 96.9316 105.753 96.9316ZM113.706 97.8919C113.041 97.8919 112.469 97.7349 111.989 97.421C111.509 97.1071 111.139 96.6747 110.881 96.1238C110.622 95.5729 110.493 94.9435 110.493 94.2356C110.493 93.5154 110.625 92.8799 110.89 92.329C111.158 91.775 111.53 91.3426 112.007 91.0318C112.487 90.7179 113.047 90.5609 113.688 90.5609C114.186 90.5609 114.635 90.6532 115.036 90.8379C115.436 91.0225 115.763 91.2811 116.019 91.6135C116.274 91.9458 116.433 92.3336 116.494 92.7768H115.405C115.322 92.4537 115.137 92.1674 114.851 91.9181C114.568 91.6658 114.186 91.5396 113.706 91.5396C113.281 91.5396 112.909 91.6504 112.589 91.872C112.272 92.0905 112.024 92.3998 111.846 92.7999C111.67 93.1969 111.582 93.6632 111.582 94.1987C111.582 94.7465 111.669 95.2235 111.841 95.6298C112.016 96.036 112.263 96.3515 112.58 96.5762C112.9 96.8008 113.275 96.9132 113.706 96.9132C113.989 96.9132 114.246 96.8639 114.477 96.7654C114.708 96.667 114.903 96.5254 115.063 96.3407C115.223 96.1561 115.337 95.9345 115.405 95.676H116.494C116.433 96.0945 116.28 96.4715 116.037 96.807C115.797 97.1394 115.479 97.4041 115.082 97.601C114.688 97.7949 114.229 97.8919 113.706 97.8919ZM119.176 93.4785V97.7441H118.087V88.2896H119.176V91.7612H119.269C119.435 91.3949 119.684 91.1041 120.017 90.8887C120.352 90.6702 120.798 90.5609 121.355 90.5609C121.839 90.5609 122.262 90.6578 122.625 90.8517C122.988 91.0426 123.27 91.3365 123.47 91.7335C123.673 92.1274 123.775 92.6291 123.775 93.2385V97.7441H122.685V93.3123C122.685 92.7491 122.539 92.3136 122.246 92.0059C121.957 91.695 121.556 91.5396 121.042 91.5396C120.685 91.5396 120.364 91.615 120.081 91.7658C119.801 91.9166 119.58 92.1367 119.417 92.426C119.257 92.7153 119.176 93.0661 119.176 93.4785ZM125.768 97.7441V90.6532H126.857V97.7441H125.768ZM126.322 89.4714C126.109 89.4714 125.926 89.3991 125.772 89.2544C125.621 89.1098 125.546 88.9359 125.546 88.7328C125.546 88.5297 125.621 88.3558 125.772 88.2111C125.926 88.0665 126.109 87.9941 126.322 87.9941C126.534 87.9941 126.716 88.0665 126.866 88.2111C127.02 88.3558 127.097 88.5297 127.097 88.7328C127.097 88.9359 127.02 89.1098 126.866 89.2544C126.716 89.3991 126.534 89.4714 126.322 89.4714ZM131.826 97.8919C131.142 97.8919 130.553 97.7411 130.058 97.4395C129.565 97.1348 129.185 96.71 128.917 96.1653C128.653 95.6175 128.52 94.9804 128.52 94.2541C128.52 93.5278 128.653 92.8876 128.917 92.3336C129.185 91.7766 129.557 91.3426 130.034 91.0318C130.515 90.7179 131.075 90.5609 131.715 90.5609C132.084 90.5609 132.449 90.6225 132.809 90.7456C133.169 90.8687 133.497 91.0687 133.792 91.3457C134.088 91.6196 134.323 91.9828 134.499 92.4352C134.674 92.8876 134.762 93.4447 134.762 94.1064V94.568H129.296V93.6262H133.654C133.654 93.2261 133.574 92.8691 133.414 92.5552C133.257 92.2413 133.032 91.9935 132.74 91.812C132.45 91.6304 132.109 91.5396 131.715 91.5396C131.281 91.5396 130.905 91.6473 130.588 91.8627C130.275 92.0751 130.033 92.3521 129.864 92.6937C129.694 93.0353 129.61 93.4016 129.61 93.7924V94.4203C129.61 94.9558 129.702 95.4097 129.887 95.7821C130.074 96.1515 130.335 96.4331 130.667 96.627C130.999 96.8178 131.386 96.9132 131.826 96.9132C132.112 96.9132 132.37 96.8732 132.601 96.7931C132.835 96.71 133.037 96.5869 133.206 96.4238C133.375 96.2576 133.506 96.0514 133.598 95.8052L134.651 96.1007C134.54 96.4577 134.354 96.7716 134.092 97.0424C133.831 97.3102 133.508 97.5195 133.123 97.6703C132.738 97.818 132.306 97.8919 131.826 97.8919ZM142.002 90.6532L139.379 97.7441H138.271L135.649 90.6532H136.831L138.788 96.3038H138.862L140.82 90.6532H142.002ZM143.44 97.7441V90.6532H144.529V97.7441H143.44ZM143.994 89.4714C143.781 89.4714 143.598 89.3991 143.444 89.2544C143.293 89.1098 143.218 88.9359 143.218 88.7328C143.218 88.5297 143.293 88.3558 143.444 88.2111C143.598 88.0665 143.781 87.9941 143.994 87.9941C144.206 87.9941 144.387 88.0665 144.538 88.2111C144.692 88.3558 144.769 88.5297 144.769 88.7328C144.769 88.9359 144.692 89.1098 144.538 89.2544C144.387 89.3991 144.206 89.4714 143.994 89.4714ZM147.614 93.4785V97.7441H146.525V90.6532H147.577V91.7612H147.669C147.836 91.4011 148.088 91.1118 148.426 90.8933C148.765 90.6717 149.202 90.5609 149.738 90.5609C150.218 90.5609 150.638 90.6594 150.998 90.8564C151.358 91.0502 151.638 91.3457 151.838 91.7427C152.038 92.1367 152.138 92.6352 152.138 93.2385V97.7441H151.049V93.3123C151.049 92.7553 150.904 92.3213 150.615 92.0105C150.325 91.6966 149.928 91.5396 149.424 91.5396C149.076 91.5396 148.765 91.615 148.491 91.7658C148.22 91.9166 148.006 92.1367 147.849 92.426C147.692 92.7153 147.614 93.0661 147.614 93.4785ZM156.991 100.551C156.465 100.551 156.013 100.483 155.634 100.348C155.255 100.215 154.94 100.04 154.688 99.8216C154.438 99.6061 154.24 99.3753 154.092 99.1291L154.96 98.5197C155.058 98.649 155.183 98.7967 155.334 98.9629C155.485 99.1322 155.691 99.2783 155.953 99.4015C156.217 99.5276 156.563 99.5907 156.991 99.5907C157.564 99.5907 158.036 99.4522 158.408 99.1752C158.781 98.8983 158.967 98.4643 158.967 97.8734V96.4331H158.875C158.795 96.5623 158.681 96.7224 158.533 96.9132C158.388 97.1009 158.179 97.2686 157.905 97.4164C157.634 97.561 157.268 97.6333 156.807 97.6333C156.234 97.6333 155.72 97.4979 155.265 97.2271C154.812 96.9563 154.454 96.5623 154.189 96.0453C153.927 95.5282 153.797 94.9004 153.797 94.1618C153.797 93.4354 153.924 92.803 154.18 92.2644C154.435 91.7227 154.791 91.3042 155.246 91.0087C155.702 90.7102 156.228 90.5609 156.825 90.5609C157.287 90.5609 157.653 90.6378 157.924 90.7917C158.198 90.9425 158.407 91.1149 158.552 91.3088C158.699 91.4996 158.813 91.6565 158.893 91.7797H159.004V90.6532H160.057V97.9473C160.057 98.5566 159.918 99.0521 159.641 99.4338C159.367 99.8185 158.998 100.1 158.533 100.279C158.071 100.46 157.557 100.551 156.991 100.551ZM156.954 96.6547C157.391 96.6547 157.761 96.5546 158.062 96.3546C158.364 96.1545 158.593 95.8668 158.75 95.4913C158.907 95.1158 158.986 94.6665 158.986 94.1433C158.986 93.6324 158.909 93.1815 158.755 92.7907C158.601 92.3998 158.373 92.0936 158.071 91.872C157.77 91.6504 157.397 91.5396 156.954 91.5396C156.493 91.5396 156.108 91.6565 155.8 91.8904C155.495 92.1243 155.266 92.4383 155.112 92.8322C154.961 93.2261 154.886 93.6632 154.886 94.1433C154.886 94.6357 154.963 95.0712 155.117 95.4498C155.274 95.8252 155.505 96.1207 155.809 96.3361C156.117 96.5485 156.499 96.6547 156.954 96.6547ZM34.4734 109.479V113.744H33.3839V106.653H34.4364V107.761H34.5288C34.695 107.401 34.9473 107.112 35.2859 106.893C35.6244 106.672 36.0614 106.561 36.5969 106.561C37.0771 106.561 37.4972 106.659 37.8572 106.856C38.2173 107.05 38.4974 107.346 38.6974 107.743C38.8975 108.137 38.9975 108.635 38.9975 109.238V113.744H37.908V109.312C37.908 108.755 37.7634 108.321 37.4741 108.01C37.1848 107.697 36.7878 107.54 36.283 107.54C35.9353 107.54 35.6244 107.615 35.3505 107.766C35.0797 107.917 34.8658 108.137 34.7088 108.426C34.5518 108.715 34.4734 109.066 34.4734 109.479ZM43.9614 113.892C43.2781 113.892 42.6888 113.741 42.1933 113.439C41.7008 113.135 41.3208 112.71 41.053 112.165C40.7883 111.617 40.656 110.98 40.656 110.254C40.656 109.528 40.7883 108.888 41.053 108.334C41.3208 107.777 41.6932 107.343 42.1702 107.032C42.6503 106.718 43.2104 106.561 43.8506 106.561C44.2199 106.561 44.5846 106.622 44.9447 106.746C45.3048 106.869 45.6325 107.069 45.928 107.346C46.2235 107.62 46.4589 107.983 46.6343 108.435C46.8097 108.888 46.8975 109.445 46.8975 110.106V110.568H41.4316V109.626H45.7895C45.7895 109.226 45.7095 108.869 45.5494 108.555C45.3925 108.241 45.1678 107.994 44.8754 107.812C44.5861 107.63 44.2445 107.54 43.8506 107.54C43.4166 107.54 43.0412 107.647 42.7242 107.863C42.4102 108.075 42.1686 108.352 41.9994 108.694C41.8301 109.035 41.7455 109.402 41.7455 109.792V110.42C41.7455 110.956 41.8378 111.41 42.0225 111.782C42.2102 112.151 42.4703 112.433 42.8026 112.627C43.135 112.818 43.5213 112.913 43.9614 112.913C44.2476 112.913 44.5061 112.873 44.7369 112.793C44.9709 112.71 45.1724 112.587 45.3417 112.424C45.511 112.258 45.6418 112.051 45.7341 111.805L46.7867 112.101C46.6759 112.458 46.4897 112.772 46.2281 113.042C45.9665 113.31 45.6433 113.519 45.2586 113.67C44.8739 113.818 44.4415 113.892 43.9614 113.892ZM50.1613 113.744L48.0008 106.653H49.1457L50.6784 112.082H50.7522L52.2664 106.653H53.4298L54.9255 112.064H54.9994L56.532 106.653H57.6769L55.5164 113.744H54.4454L52.8943 108.297H52.7835L51.2323 113.744H50.1613ZM65.6357 116.551C65.1095 116.551 64.657 116.483 64.2785 116.348C63.8999 116.215 63.5845 116.04 63.3321 115.822C63.0828 115.606 62.8843 115.375 62.7366 115.129L63.6045 114.52C63.703 114.649 63.8276 114.797 63.9784 114.963C64.1292 115.132 64.3354 115.278 64.597 115.401C64.8617 115.528 65.2079 115.591 65.6357 115.591C66.2082 115.591 66.6806 115.452 67.053 115.175C67.4254 114.898 67.6116 114.464 67.6116 113.873V112.433H67.5193C67.4392 112.562 67.3254 112.722 67.1776 112.913C67.033 113.101 66.8237 113.269 66.5498 113.416C66.279 113.561 65.9127 113.633 65.4511 113.633C64.8786 113.633 64.3647 113.498 63.9092 113.227C63.4568 112.956 63.0982 112.562 62.8335 112.045C62.5719 111.528 62.4411 110.9 62.4411 110.162C62.4411 109.435 62.5689 108.803 62.8243 108.264C63.0798 107.723 63.4352 107.304 63.8907 107.009C64.3462 106.71 64.8725 106.561 65.4695 106.561C65.9312 106.561 66.2974 106.638 66.5683 106.792C66.8422 106.943 67.0515 107.115 67.1961 107.309C67.3438 107.5 67.4577 107.657 67.5377 107.78H67.6485V106.653H68.7011V113.947C68.7011 114.557 68.5626 115.052 68.2856 115.434C68.0117 115.818 67.6424 116.1 67.1776 116.279C66.716 116.46 66.202 116.551 65.6357 116.551ZM65.5988 112.655C66.0358 112.655 66.4052 112.555 66.7068 112.355C67.0084 112.155 67.2377 111.867 67.3946 111.491C67.5516 111.116 67.6301 110.666 67.6301 110.143C67.6301 109.632 67.5531 109.182 67.3992 108.791C67.2454 108.4 67.0176 108.094 66.716 107.872C66.4144 107.65 66.042 107.54 65.5988 107.54C65.1372 107.54 64.7525 107.657 64.4447 107.89C64.14 108.124 63.9107 108.438 63.7568 108.832C63.606 109.226 63.5306 109.663 63.5306 110.143C63.5306 110.636 63.6076 111.071 63.7615 111.45C63.9184 111.825 64.1492 112.121 64.4539 112.336C64.7617 112.548 65.1433 112.655 65.5988 112.655ZM73.5761 113.892C72.9359 113.892 72.3743 113.74 71.8911 113.435C71.411 113.13 71.0355 112.704 70.7646 112.156C70.4969 111.608 70.363 110.968 70.363 110.236C70.363 109.497 70.4969 108.852 70.7646 108.301C71.0355 107.75 71.411 107.323 71.8911 107.018C72.3743 106.713 72.9359 106.561 73.5761 106.561C74.2162 106.561 74.7764 106.713 75.2565 107.018C75.7397 107.323 76.1151 107.75 76.3829 108.301C76.6537 108.852 76.7892 109.497 76.7892 110.236C76.7892 110.968 76.6537 111.608 76.3829 112.156C76.1151 112.704 75.7397 113.13 75.2565 113.435C74.7764 113.74 74.2162 113.892 73.5761 113.892ZM73.5761 112.913C74.0624 112.913 74.4624 112.789 74.7764 112.539C75.0903 112.29 75.3227 111.962 75.4735 111.556C75.6243 111.15 75.6997 110.71 75.6997 110.236C75.6997 109.762 75.6243 109.32 75.4735 108.911C75.3227 108.501 75.0903 108.171 74.7764 107.918C74.4624 107.666 74.0624 107.54 73.5761 107.54C73.0898 107.54 72.6897 107.666 72.3758 107.918C72.0619 108.171 71.8295 108.501 71.6787 108.911C71.5279 109.32 71.4525 109.762 71.4525 110.236C71.4525 110.71 71.5279 111.15 71.6787 111.556C71.8295 111.962 72.0619 112.29 72.3758 112.539C72.6897 112.789 73.0898 112.913 73.5761 112.913ZM80.5389 113.91C80.0895 113.91 79.6818 113.826 79.3155 113.656C78.9493 113.484 78.6584 113.236 78.443 112.913C78.2276 112.587 78.1199 112.193 78.1199 111.731C78.1199 111.325 78.1999 110.996 78.3599 110.743C78.5199 110.488 78.7338 110.288 79.0016 110.143C79.2694 109.999 79.5648 109.891 79.888 109.82C80.2142 109.746 80.542 109.688 80.8713 109.645C81.3021 109.589 81.6515 109.548 81.9192 109.52C82.19 109.489 82.387 109.439 82.5101 109.368C82.6363 109.297 82.6994 109.174 82.6994 108.998V108.961C82.6994 108.506 82.5748 108.152 82.3255 107.9C82.0792 107.647 81.7053 107.521 81.2037 107.521C80.6835 107.521 80.2757 107.635 79.9803 107.863C79.6848 108.09 79.4771 108.334 79.3571 108.592L78.323 108.223C78.5076 107.792 78.7538 107.456 79.0616 107.216C79.3725 106.973 79.711 106.804 80.0772 106.709C80.4466 106.61 80.8097 106.561 81.1667 106.561C81.3945 106.561 81.6561 106.589 81.9515 106.644C82.2501 106.696 82.5378 106.806 82.8148 106.972C83.0949 107.138 83.3272 107.389 83.5119 107.724C83.6966 108.06 83.7889 108.509 83.7889 109.072V113.744H82.6994V112.784H82.644C82.5701 112.938 82.447 113.102 82.2747 113.278C82.1023 113.453 81.873 113.603 81.5868 113.726C81.3006 113.849 80.9513 113.91 80.5389 113.91ZM80.7051 112.932C81.1359 112.932 81.4991 112.847 81.7946 112.678C82.0931 112.508 82.3178 112.29 82.4686 112.022C82.6225 111.754 82.6994 111.473 82.6994 111.177V110.18C82.6532 110.236 82.5517 110.286 82.3947 110.333C82.2408 110.376 82.0623 110.414 81.8592 110.448C81.6592 110.479 81.4637 110.506 81.2729 110.531C81.0852 110.553 80.9328 110.571 80.8159 110.586C80.5327 110.623 80.2681 110.683 80.0218 110.767C79.7787 110.847 79.5817 110.968 79.4309 111.131C79.2832 111.291 79.2093 111.51 79.2093 111.787C79.2093 112.165 79.3494 112.452 79.6294 112.645C79.9126 112.836 80.2711 112.932 80.7051 112.932ZM86.8669 104.29V113.744H85.7774V104.29H86.8669ZM93.8851 108.241L92.9064 108.518C92.8449 108.355 92.7541 108.197 92.6341 108.043C92.5171 107.886 92.3571 107.757 92.1539 107.655C91.9508 107.553 91.6908 107.503 91.3738 107.503C90.9398 107.503 90.5782 107.603 90.2889 107.803C90.0027 108 89.8596 108.251 89.8596 108.555C89.8596 108.826 89.958 109.04 90.155 109.197C90.352 109.354 90.6597 109.485 91.0783 109.589L92.1309 109.848C92.7649 110.002 93.2373 110.237 93.5481 110.554C93.859 110.868 94.0144 111.273 94.0144 111.768C94.0144 112.175 93.8974 112.538 93.6635 112.858C93.4327 113.178 93.1096 113.43 92.6941 113.615C92.2786 113.8 91.7954 113.892 91.2445 113.892C90.5212 113.892 89.9226 113.735 89.4487 113.421C88.9747 113.107 88.6747 112.648 88.5485 112.045L89.5826 111.787C89.681 112.168 89.8672 112.455 90.1412 112.645C90.4181 112.836 90.7798 112.932 91.226 112.932C91.7338 112.932 92.137 112.824 92.4355 112.608C92.7372 112.39 92.888 112.128 92.888 111.824C92.888 111.577 92.8018 111.371 92.6294 111.205C92.4571 111.036 92.1924 110.91 91.8354 110.827L90.6536 110.55C90.0042 110.396 89.5272 110.157 89.2225 109.834C88.9209 109.508 88.7701 109.1 88.7701 108.611C88.7701 108.211 88.8824 107.857 89.1071 107.549C89.3348 107.241 89.6441 106.999 90.035 106.824C90.4289 106.649 90.8752 106.561 91.3738 106.561C92.0755 106.561 92.6264 106.715 93.0265 107.023C93.4296 107.33 93.7158 107.737 93.8851 108.241ZM100.105 113.818C99.8769 113.818 99.6815 113.736 99.5184 113.573C99.3553 113.41 99.2737 113.215 99.2737 112.987C99.2737 112.759 99.3553 112.564 99.5184 112.401C99.6815 112.238 99.8769 112.156 100.105 112.156C100.332 112.156 100.528 112.238 100.691 112.401C100.854 112.564 100.936 112.759 100.936 112.987C100.936 113.138 100.897 113.276 100.82 113.403C100.746 113.529 100.646 113.63 100.52 113.707C100.397 113.781 100.259 113.818 100.105 113.818ZM100.105 108.555C99.8769 108.555 99.6815 108.474 99.5184 108.311C99.3553 108.147 99.2737 107.952 99.2737 107.724C99.2737 107.497 99.3553 107.301 99.5184 107.138C99.6815 106.975 99.8769 106.893 100.105 106.893C100.332 106.893 100.528 106.975 100.691 107.138C100.854 107.301 100.936 107.497 100.936 107.724C100.936 107.875 100.897 108.014 100.82 108.14C100.746 108.266 100.646 108.367 100.52 108.444C100.397 108.518 100.259 108.555 100.105 108.555ZM105.217 109.756C105.217 110.919 105.065 111.99 104.76 112.969C104.459 113.944 104.026 114.843 103.463 115.665H102.503C102.725 115.36 102.931 114.984 103.122 114.538C103.315 114.095 103.485 113.609 103.629 113.079C103.774 112.547 103.886 111.998 103.966 111.431C104.049 110.862 104.091 110.303 104.091 109.756C104.091 109.023 104.02 108.28 103.879 107.526C103.737 106.772 103.546 106.072 103.306 105.425C103.066 104.779 102.798 104.253 102.503 103.846H103.463C104.026 104.668 104.459 105.568 104.76 106.547C105.065 107.523 105.217 108.592 105.217 109.756Z" fill="black"/>
</svg>
