<svg width="22" height="23" viewBox="0 0 22 23" fill="none" xmlns="http://www.w3.org/2000/svg">
<path d="M13.6406 0.0615234C14.1459 0.0617854 14.5391 0.500518 14.4844 1.00293C14.3987 1.79093 14.5371 2.75188 15.0186 3.32422C15.2387 3.58571 15.5502 3.79242 16.0254 3.87207C16.5195 3.95474 17.2332 3.90568 18.2373 3.55762C18.5835 3.43757 18.968 3.55364 19.1904 3.84473L21.7451 7.18262C22.0219 7.54404 21.9645 8.05959 21.6152 8.35156C20.9238 8.92935 20.1776 9.84436 19.9736 10.7236C19.8782 11.1351 19.9067 11.5125 20.0869 11.8652C20.2719 12.2269 20.6634 12.6533 21.46 13.0645C21.9081 13.2958 22.0575 13.8642 21.7812 14.2861L19.2266 18.1807C19.0032 18.5213 18.5693 18.6557 18.1924 18.501C17.4784 18.2078 16.5063 18.0578 15.7803 18.3438C15.4437 18.4765 15.1406 18.7083 14.9111 19.1113C14.6742 19.5277 14.4893 20.174 14.4893 21.1641C14.4893 21.6338 14.1084 22.0146 13.6387 22.0146H8.36035C7.89069 22.0145 7.50977 21.6338 7.50977 21.1641C7.50973 20.174 7.32483 19.5277 7.08789 19.1113C6.85846 18.7084 6.55622 18.4765 6.21973 18.3438C5.49357 18.0575 4.52082 18.2077 3.80664 18.501C3.43028 18.6556 2.99653 18.521 2.77344 18.1807L0.21875 14.2861C-0.0577999 13.8644 0.0918726 13.2957 0.540039 13.0645C1.33646 12.6533 1.72818 12.2269 1.91309 11.8652C2.0933 11.5125 2.12173 11.135 2.02637 10.7236C1.82241 9.8444 1.07617 8.92938 0.384766 8.35156C0.0356454 8.0596 -0.0217829 7.54399 0.254883 7.18262L2.80859 3.84473C3.03121 3.55334 3.41617 3.43774 3.7627 3.55762C4.76665 3.90559 5.4806 3.95476 5.97461 3.87207C6.44963 3.79235 6.76136 3.58572 6.98145 3.32422C7.46288 2.75186 7.60028 1.79089 7.51465 1.00293C7.46043 0.500206 7.85471 0.0615234 8.36035 0.0615234H13.6406ZM10.0527 1.76074C9.59131 1.76094 9.21908 2.12476 9.12793 2.57715C8.99849 3.2195 8.74055 3.87416 8.28223 4.41895C7.80493 4.98606 7.13283 5.40171 6.25488 5.54883C5.69283 5.64291 5.06605 5.62266 4.37012 5.4834C4.02316 5.41395 3.6595 5.53067 3.44434 5.81152L2.52539 7.01172C2.26445 7.35271 2.29677 7.83032 2.56445 8.16602C3.05721 8.78348 3.49383 9.52968 3.68164 10.3389C3.85028 11.066 3.82168 11.8658 3.42676 12.6387C3.26073 12.9635 3.03816 13.2671 2.75879 13.5488C2.43068 13.8797 2.32363 14.3936 2.5791 14.7832L3.49023 16.1729C3.69677 16.4876 4.08264 16.6269 4.4541 16.5654C5.20356 16.4415 6.05308 16.451 6.84375 16.7627C7.52259 17.0306 8.13477 17.514 8.56543 18.2705C8.77573 18.64 8.93667 19.0631 9.04492 19.541C9.14343 19.9751 9.508 20.3143 9.95312 20.3145H12.0469C12.4921 20.3145 12.8576 19.9752 12.9561 19.541C13.0643 19.0632 13.2243 18.64 13.4346 18.2705C13.8653 17.514 14.4773 17.0305 15.1562 16.7627C15.9472 16.4509 16.7974 16.4415 17.5469 16.5654C17.9183 16.6267 18.3033 16.4877 18.5098 16.1729L19.4209 14.7832C19.6762 14.3936 19.5691 13.8798 19.2412 13.5488C18.9621 13.267 18.7393 12.9635 18.5732 12.6387C18.1782 11.8658 18.1487 11.066 18.3174 10.3389C18.5052 9.5297 18.9418 8.78353 19.4346 8.16602C19.7024 7.83039 19.7355 7.3528 19.4746 7.01172L18.5566 5.8125C18.3416 5.53129 17.978 5.41402 17.6309 5.4834C16.9344 5.62278 16.3064 5.64295 15.7441 5.54883C14.8665 5.40167 14.195 4.98589 13.7178 4.41895C13.2594 3.87414 13.0015 3.21949 12.8721 2.57715C12.7809 2.12464 12.4089 1.76074 11.9473 1.76074H10.0527Z" fill="#DB0000"/>
<circle cx="11" cy="11.0381" r="3.1" stroke="#DB0000" stroke-width="1.8"/>
</svg>
