<svg width="140" height="33" viewBox="0 0 140 33" fill="none" xmlns="http://www.w3.org/2000/svg">
<rect x="1.42098" y="0.449301" width="137.319" height="31.2" rx="15.6" fill="white"/>
<rect x="1.42098" y="0.449301" width="137.319" height="31.2" rx="15.6" stroke="#DB0000" stroke-width="0.898602"/>
<path d="M12.9082 16.0488H18.5961M24.284 16.0488H18.5961M18.5961 16.0488V10.3609M18.5961 16.0488V21.7367" stroke="#DB0000" stroke-width="1.49387" stroke-linecap="round"/>
<path d="M32.2075 20.5488H30.6933L34.0956 11.0943H35.7437L39.146 20.5488H37.6318L34.9589 12.8116H34.885L32.2075 20.5488ZM32.4614 16.8464H37.3733V18.0467H32.4614V16.8464ZM42.9408 20.6873C42.3683 20.6873 41.8575 20.5411 41.4081 20.2488C40.9619 19.9533 40.611 19.5332 40.3556 18.9885C40.1032 18.4406 39.977 17.7836 39.977 17.0172C39.977 16.2509 40.1047 15.5953 40.3602 15.0506C40.6187 14.5059 40.9726 14.0888 41.422 13.7995C41.8713 13.5102 42.3807 13.3656 42.95 13.3656C43.3901 13.3656 43.7441 13.4395 44.0118 13.5872C44.2826 13.7318 44.4919 13.9011 44.6396 14.095C44.7905 14.2889 44.9074 14.4597 44.9905 14.6074H45.0736V11.0943H46.4539V20.5488H45.1059V19.4455H44.9905C44.9074 19.5963 44.7874 19.7686 44.6304 19.9625C44.4765 20.1564 44.2642 20.3257 43.9933 20.4703C43.7225 20.615 43.3717 20.6873 42.9408 20.6873ZM43.2455 19.5101C43.6425 19.5101 43.978 19.4055 44.2519 19.1962C44.5289 18.9838 44.7381 18.6899 44.8797 18.3145C45.0244 17.939 45.0967 17.502 45.0967 17.0034C45.0967 16.5109 45.0259 16.0801 44.8843 15.7108C44.7427 15.3414 44.535 15.0537 44.2611 14.8475C43.9872 14.6413 43.6486 14.5382 43.2455 14.5382C42.83 14.5382 42.4838 14.6459 42.2068 14.8613C41.9298 15.0768 41.7205 15.3707 41.5789 15.7431C41.4404 16.1155 41.3712 16.5356 41.3712 17.0034C41.3712 17.4773 41.442 17.9036 41.5835 18.2821C41.7251 18.6607 41.9344 18.9608 42.2114 19.1824C42.4914 19.4009 42.8361 19.5101 43.2455 19.5101ZM51.0785 20.6873C50.506 20.6873 49.9951 20.5411 49.5458 20.2488C49.0996 19.9533 48.7487 19.5332 48.4933 18.9885C48.2409 18.4406 48.1147 17.7836 48.1147 17.0172C48.1147 16.2509 48.2424 15.5953 48.4979 15.0506C48.7564 14.5059 49.1103 14.0888 49.5597 13.7995C50.009 13.5102 50.5183 13.3656 51.0877 13.3656C51.5278 13.3656 51.8817 13.4395 52.1495 13.5872C52.4203 13.7318 52.6296 13.9011 52.7773 14.095C52.9281 14.2889 53.0451 14.4597 53.1282 14.6074H53.2113V11.0943H54.5916V20.5488H53.2436V19.4455H53.1282C53.0451 19.5963 52.9251 19.7686 52.7681 19.9625C52.6142 20.1564 52.4019 20.3257 52.131 20.4703C51.8602 20.615 51.5094 20.6873 51.0785 20.6873ZM51.3832 19.5101C51.7802 19.5101 52.1156 19.4055 52.3896 19.1962C52.6665 18.9838 52.8758 18.6899 53.0174 18.3145C53.1621 17.939 53.2344 17.502 53.2344 17.0034C53.2344 16.5109 53.1636 16.0801 53.022 15.7108C52.8804 15.3414 52.6727 15.0537 52.3988 14.8475C52.1249 14.6413 51.7863 14.5382 51.3832 14.5382C50.9677 14.5382 50.6214 14.6459 50.3445 14.8613C50.0675 15.0768 49.8582 15.3707 49.7166 15.7431C49.5781 16.1155 49.5089 16.5356 49.5089 17.0034C49.5089 17.4773 49.5797 17.9036 49.7212 18.2821C49.8628 18.6607 50.0721 18.9608 50.3491 19.1824C50.6291 19.4009 50.9738 19.5101 51.3832 19.5101ZM62.0657 20.7058C61.6164 20.7058 61.2101 20.6227 60.8469 20.4565C60.4838 20.2872 60.196 20.0426 59.9837 19.7225C59.7744 19.4024 59.6697 19.01 59.6697 18.5453C59.6697 18.1452 59.7467 17.8159 59.9006 17.5574C60.0545 17.2988 60.2622 17.0942 60.5238 16.9434C60.7854 16.7926 61.0778 16.6787 61.4009 16.6017C61.7241 16.5248 62.0534 16.4663 62.3888 16.4263C62.8136 16.3771 63.1583 16.3371 63.4229 16.3063C63.6876 16.2724 63.88 16.2186 64 16.1447C64.12 16.0708 64.18 15.9508 64.18 15.7846V15.7523C64.18 15.3491 64.0662 15.0368 63.8384 14.8152C63.6138 14.5936 63.2783 14.4828 62.832 14.4828C62.3673 14.4828 62.0011 14.5859 61.7333 14.7921C61.4686 14.9952 61.2855 15.2214 61.1839 15.4707L59.8867 15.1752C60.0406 14.7444 60.2653 14.3966 60.5607 14.1319C60.8593 13.8642 61.2024 13.6703 61.5902 13.5502C61.978 13.4271 62.3858 13.3656 62.8136 13.3656C63.0967 13.3656 63.3968 13.3994 63.7138 13.4672C64.0339 13.5318 64.3324 13.6518 64.6094 13.8272C64.8894 14.0027 65.1187 14.2535 65.2972 14.5797C65.4757 14.9029 65.565 15.323 65.565 15.84V20.5488H64.217V19.5794H64.1616C64.0723 19.7579 63.9384 19.9333 63.7599 20.1056C63.5814 20.278 63.3522 20.4211 63.0721 20.535C62.792 20.6489 62.4566 20.7058 62.0657 20.7058ZM62.3658 19.5978C62.7474 19.5978 63.0736 19.5224 63.3445 19.3716C63.6184 19.2208 63.8261 19.0239 63.9677 18.7807C64.1123 18.5345 64.1847 18.2714 64.1847 17.9913V17.0772C64.1354 17.1265 64.04 17.1726 63.8984 17.2157C63.7599 17.2557 63.6014 17.2911 63.4229 17.3219C63.2444 17.3496 63.0705 17.3758 62.9013 17.4004C62.732 17.4219 62.5904 17.4404 62.4766 17.4558C62.2088 17.4896 61.9641 17.5466 61.7425 17.6266C61.524 17.7066 61.3486 17.822 61.2163 17.9728C61.087 18.1206 61.0224 18.3175 61.0224 18.5637C61.0224 18.9054 61.1486 19.1639 61.4009 19.3393C61.6533 19.5117 61.9749 19.5978 62.3658 19.5978ZM72.2243 11.0943V20.5488H70.8439V11.0943H72.2243ZM76.1448 20.7058C75.6955 20.7058 75.2892 20.6227 74.926 20.4565C74.5629 20.2872 74.2751 20.0426 74.0628 19.7225C73.8535 19.4024 73.7488 19.01 73.7488 18.5453C73.7488 18.1452 73.8258 17.8159 73.9797 17.5574C74.1336 17.2988 74.3413 17.0942 74.6029 16.9434C74.8645 16.7926 75.1569 16.6787 75.48 16.6017C75.8032 16.5248 76.1325 16.4663 76.468 16.4263C76.8927 16.3771 77.2374 16.3371 77.502 16.3063C77.7667 16.2724 77.9591 16.2186 78.0791 16.1447C78.1991 16.0708 78.2591 15.9508 78.2591 15.7846V15.7523C78.2591 15.3491 78.1453 15.0368 77.9175 14.8152C77.6929 14.5936 77.3574 14.4828 76.9111 14.4828C76.4464 14.4828 76.0802 14.5859 75.8124 14.7921C75.5477 14.9952 75.3646 15.2214 75.2631 15.4707L73.9658 15.1752C74.1197 14.7444 74.3444 14.3966 74.6398 14.1319C74.9384 13.8642 75.2815 13.6703 75.6693 13.5502C76.0571 13.4271 76.4649 13.3656 76.8927 13.3656C77.1758 13.3656 77.4759 13.3994 77.7929 13.4672C78.113 13.5318 78.4115 13.6518 78.6885 13.8272C78.9685 14.0027 79.1978 14.2535 79.3763 14.5797C79.5548 14.9029 79.6441 15.323 79.6441 15.84V20.5488H78.2961V19.5794H78.2407C78.1514 19.7579 78.0175 19.9333 77.839 20.1056C77.6605 20.278 77.4313 20.4211 77.1512 20.535C76.8711 20.6489 76.5357 20.7058 76.1448 20.7058ZM76.4449 19.5978C76.8265 19.5978 77.1527 19.5224 77.4236 19.3716C77.6975 19.2208 77.9052 19.0239 78.0468 18.7807C78.1914 18.5345 78.2638 18.2714 78.2638 17.9913V17.0772C78.2145 17.1265 78.1191 17.1726 77.9775 17.2157C77.839 17.2557 77.6805 17.2911 77.502 17.3219C77.3235 17.3496 77.1497 17.3758 76.9804 17.4004C76.8111 17.4219 76.6695 17.4404 76.5557 17.4558C76.2879 17.4896 76.0432 17.5466 75.8216 17.6266C75.6031 17.7066 75.4277 17.822 75.2954 17.9728C75.1661 18.1206 75.1015 18.3175 75.1015 18.5637C75.1015 18.9054 75.2277 19.1639 75.48 19.3393C75.7324 19.5117 76.054 19.5978 76.4449 19.5978ZM82.8629 16.3386V20.5488H81.4826V13.4579H82.8075V14.612H82.8952C83.0584 14.2366 83.3138 13.935 83.6616 13.7072C84.0124 13.4795 84.4541 13.3656 84.9865 13.3656C85.4697 13.3656 85.8929 13.4672 86.256 13.6703C86.6192 13.8703 86.9008 14.1689 87.1009 14.5659C87.3009 14.9629 87.4009 15.4538 87.4009 16.0385V20.5488H86.0206V16.2047C86.0206 15.6908 85.8867 15.2891 85.619 14.9998C85.3512 14.7074 84.9834 14.5613 84.5156 14.5613C84.1955 14.5613 83.9109 14.6305 83.6616 14.769C83.4154 14.9075 83.2199 15.1106 83.0753 15.3784C82.9337 15.6431 82.8629 15.9631 82.8629 16.3386ZM92.2251 23.3556C91.6619 23.3556 91.1772 23.2818 90.771 23.1341C90.3678 22.9863 90.0385 22.7909 89.783 22.5478C89.5276 22.3046 89.3368 22.0384 89.2106 21.7491L90.397 21.2598C90.4801 21.3952 90.5909 21.5383 90.7294 21.6891C90.871 21.843 91.0618 21.9738 91.3018 22.0815C91.545 22.1892 91.8574 22.2431 92.239 22.2431C92.7622 22.2431 93.1946 22.1154 93.5362 21.8599C93.8778 21.6075 94.0487 21.2044 94.0487 20.6504V19.2562H93.9609C93.8778 19.407 93.7578 19.5748 93.6009 19.7594C93.447 19.9441 93.2346 20.1041 92.9638 20.2395C92.6929 20.3749 92.3406 20.4426 91.9066 20.4426C91.3465 20.4426 90.8417 20.3118 90.3924 20.0502C89.9461 19.7856 89.5922 19.3962 89.3306 18.8823C89.0721 18.3652 88.9428 17.7297 88.9428 16.9757C88.9428 16.2216 89.0705 15.5753 89.326 15.0368C89.5845 14.4982 89.9384 14.0858 90.3878 13.7995C90.8371 13.5102 91.3465 13.3656 91.9158 13.3656C92.3559 13.3656 92.7114 13.4395 92.9822 13.5872C93.2531 13.7318 93.4639 13.9011 93.6147 14.095C93.7686 14.2889 93.8871 14.4597 93.9702 14.6074H94.0717V13.4579H95.4244V20.7058C95.4244 21.3152 95.2828 21.8153 94.9996 22.2061C94.7165 22.597 94.3333 22.8863 93.8501 23.074C93.37 23.2618 92.8284 23.3556 92.2251 23.3556ZM92.2113 19.2978C92.6083 19.2978 92.9438 19.2054 93.2177 19.0208C93.4947 18.833 93.704 18.5653 93.8455 18.2175C93.9902 17.8667 94.0625 17.4466 94.0625 16.9572C94.0625 16.4802 93.9917 16.0601 93.8501 15.6969C93.7086 15.3337 93.5008 15.0506 93.2269 14.8475C92.953 14.6413 92.6145 14.5382 92.2113 14.5382C91.7958 14.5382 91.4496 14.6459 91.1726 14.8613C90.8956 15.0737 90.6863 15.363 90.5447 15.7292C90.4063 16.0955 90.337 16.5048 90.337 16.9572C90.337 17.4219 90.4078 17.8297 90.5494 18.1806C90.6909 18.5314 90.9002 18.8053 91.1772 19.0023C91.4573 19.1993 91.802 19.2978 92.2113 19.2978ZM101.767 17.6081V13.4579H103.152V20.5488H101.795V19.3208H101.721C101.558 19.6994 101.297 20.0149 100.936 20.2672C100.579 20.5165 100.135 20.6412 99.6023 20.6412C99.1468 20.6412 98.7436 20.5411 98.3928 20.3411C98.045 20.138 97.7711 19.8379 97.571 19.4409C97.3741 19.0439 97.2756 18.553 97.2756 17.9682V13.4579H98.6559V17.802C98.6559 18.2852 98.7898 18.6699 99.0575 18.9561C99.3253 19.2424 99.6731 19.3855 100.101 19.3855C100.359 19.3855 100.616 19.3208 100.872 19.1916C101.13 19.0623 101.344 18.8669 101.513 18.6053C101.686 18.3437 101.77 18.0113 101.767 17.6081ZM107.071 20.7058C106.621 20.7058 106.215 20.6227 105.852 20.4565C105.489 20.2872 105.201 20.0426 104.989 19.7225C104.779 19.4024 104.675 19.01 104.675 18.5453C104.675 18.1452 104.752 17.8159 104.905 17.5574C105.059 17.2988 105.267 17.0942 105.529 16.9434C105.79 16.7926 106.083 16.6787 106.406 16.6017C106.729 16.5248 107.058 16.4663 107.394 16.4263C107.818 16.3771 108.163 16.3371 108.428 16.3063C108.693 16.2724 108.885 16.2186 109.005 16.1447C109.125 16.0708 109.185 15.9508 109.185 15.7846V15.7523C109.185 15.3491 109.071 15.0368 108.843 14.8152C108.619 14.5936 108.283 14.4828 107.837 14.4828C107.372 14.4828 107.006 14.5859 106.738 14.7921C106.474 14.9952 106.29 15.2214 106.189 15.4707L104.892 15.1752C105.045 14.7444 105.27 14.3966 105.566 14.1319C105.864 13.8642 106.207 13.6703 106.595 13.5502C106.983 13.4271 107.391 13.3656 107.818 13.3656C108.102 13.3656 108.402 13.3994 108.719 13.4672C109.039 13.5318 109.337 13.6518 109.614 13.8272C109.894 14.0027 110.124 14.2535 110.302 14.5797C110.481 14.9029 110.57 15.323 110.57 15.84V20.5488H109.222V19.5794H109.166C109.077 19.7579 108.943 19.9333 108.765 20.1056C108.586 20.278 108.357 20.4211 108.077 20.535C107.797 20.6489 107.461 20.7058 107.071 20.7058ZM107.371 19.5978C107.752 19.5978 108.079 19.5224 108.349 19.3716C108.623 19.2208 108.831 19.0239 108.973 18.7807C109.117 18.5345 109.19 18.2714 109.19 17.9913V17.0772C109.14 17.1265 109.045 17.1726 108.903 17.2157C108.765 17.2557 108.606 17.2911 108.428 17.3219C108.249 17.3496 108.075 17.3758 107.906 17.4004C107.737 17.4219 107.595 17.4404 107.481 17.4558C107.214 17.4896 106.969 17.5466 106.747 17.6266C106.529 17.7066 106.353 17.822 106.221 17.9728C106.092 18.1206 106.027 18.3175 106.027 18.5637C106.027 18.9054 106.153 19.1639 106.406 19.3393C106.658 19.5117 106.98 19.5978 107.371 19.5978ZM115.381 23.3556C114.818 23.3556 114.333 23.2818 113.927 23.1341C113.524 22.9863 113.195 22.7909 112.939 22.5478C112.684 22.3046 112.493 22.0384 112.367 21.7491L113.553 21.2598C113.636 21.3952 113.747 21.5383 113.886 21.6891C114.027 21.843 114.218 21.9738 114.458 22.0815C114.701 22.1892 115.014 22.2431 115.395 22.2431C115.918 22.2431 116.351 22.1154 116.692 21.8599C117.034 21.6075 117.205 21.2044 117.205 20.6504V19.2562H117.117C117.034 19.407 116.914 19.5748 116.757 19.7594C116.603 19.9441 116.391 20.1041 116.12 20.2395C115.849 20.3749 115.497 20.4426 115.063 20.4426C114.503 20.4426 113.998 20.3118 113.549 20.0502C113.102 19.7856 112.748 19.3962 112.487 18.8823C112.228 18.3652 112.099 17.7297 112.099 16.9757C112.099 16.2216 112.227 15.5753 112.482 15.0368C112.741 14.4982 113.095 14.0858 113.544 13.7995C113.993 13.5102 114.503 13.3656 115.072 13.3656C115.512 13.3656 115.868 13.4395 116.138 13.5872C116.409 13.7318 116.62 13.9011 116.771 14.095C116.925 14.2889 117.043 14.4597 117.126 14.6074H117.228V13.4579H118.581V20.7058C118.581 21.3152 118.439 21.8153 118.156 22.2061C117.873 22.597 117.49 22.8863 117.006 23.074C116.526 23.2618 115.985 23.3556 115.381 23.3556ZM115.368 19.2978C115.765 19.2978 116.1 19.2054 116.374 19.0208C116.651 18.833 116.86 18.5653 117.002 18.2175C117.146 17.8667 117.219 17.4466 117.219 16.9572C117.219 16.4802 117.148 16.0601 117.006 15.6969C116.865 15.3337 116.657 15.0506 116.383 14.8475C116.109 14.6413 115.771 14.5382 115.368 14.5382C114.952 14.5382 114.606 14.6459 114.329 14.8613C114.052 15.0737 113.843 15.363 113.701 15.7292C113.563 16.0955 113.493 16.5048 113.493 16.9572C113.493 17.4219 113.564 17.8297 113.706 18.1806C113.847 18.5314 114.056 18.8053 114.333 19.0023C114.614 19.1993 114.958 19.2978 115.368 19.2978ZM123.488 20.6919C122.789 20.6919 122.188 20.5427 121.683 20.2441C121.181 19.9425 120.793 19.5194 120.52 18.9746C120.249 18.4268 120.113 17.7851 120.113 17.0495C120.113 16.3232 120.249 15.6831 120.52 15.1291C120.793 14.5751 121.175 14.1427 121.664 13.8319C122.157 13.521 122.732 13.3656 123.391 13.3656C123.791 13.3656 124.179 13.4318 124.554 13.5641C124.93 13.6964 125.267 13.9042 125.565 14.1873C125.864 14.4705 126.099 14.8382 126.272 15.2907C126.444 15.74 126.53 16.2863 126.53 16.9295V17.4189H120.893V16.3848H125.178C125.178 16.0216 125.104 15.7 124.956 15.4199C124.808 15.1368 124.6 14.9136 124.333 14.7505C124.068 14.5874 123.757 14.5059 123.4 14.5059C123.012 14.5059 122.674 14.6013 122.385 14.7921C122.098 14.9798 121.877 15.226 121.72 15.5307C121.566 15.8323 121.489 16.1601 121.489 16.514V17.3219C121.489 17.7959 121.572 18.199 121.738 18.5314C121.908 18.8638 122.143 19.1177 122.445 19.2931C122.746 19.4655 123.099 19.5517 123.502 19.5517C123.763 19.5517 124.002 19.5147 124.217 19.4409C124.433 19.3639 124.619 19.2501 124.776 19.0993C124.933 18.9484 125.053 18.7623 125.136 18.5407L126.442 18.7761C126.338 19.1608 126.15 19.4978 125.879 19.7871C125.612 20.0733 125.275 20.2965 124.868 20.4565C124.465 20.6135 124.005 20.6919 123.488 20.6919Z" fill="#DB0000"/>
</svg>
