<svg width="17" height="16" viewBox="0 0 17 16" fill="none" xmlns="http://www.w3.org/2000/svg">
<path d="M1.02311 12.0767L9.97346 3.25155C10.1408 3.0866 10.4095 3.0866 10.5768 3.25155L13.2366 5.87412C13.4058 6.04103 13.4074 6.31368 13.2401 6.48252L4.3006 15.5019C4.21992 15.5833 4.11006 15.6291 3.99544 15.6291H1.14623C0.898243 15.6291 0.701746 15.4198 0.717434 15.1723L0.895982 12.3555C0.902663 12.2501 0.947919 12.1509 1.02311 12.0767Z" fill="#FFB200"/>
<path d="M14.312 4.78703L11.7104 2.22182C11.5264 2.04034 11.543 1.73861 11.746 1.57854L13.2335 0.405145C13.4084 0.2672 13.6597 0.285768 13.8124 0.447918L16.1036 2.88081C16.2569 3.04365 16.2597 3.29692 16.1099 3.46306L14.9328 4.76877C14.7689 4.95062 14.4863 4.95893 14.312 4.78703Z" fill="#FFB200"/>
</svg>