<svg width="12" height="12" viewBox="0 0 12 12" fill="none" xmlns="http://www.w3.org/2000/svg">
<path d="M11.498 9.74023C11.498 10.7986 10.6394 11.6572 9.58105 11.6572H1.91602C0.857821 11.6571 0 10.7985 0 9.74023V5.26953H11.498V9.74023ZM2.875 0C3.22774 0 3.51362 0.285946 3.51367 0.638672V1.75684H7.98438V0.797852C7.98438 0.445083 8.27028 0.159188 8.62305 0.15918C8.97582 0.15918 9.26172 0.445078 9.26172 0.797852V1.75684H9.58105C10.6393 1.75684 11.498 2.61458 11.498 3.67285V4.15234H0V3.67285C5.63442e-05 2.61467 0.857856 1.75698 1.91602 1.75684H2.23633V0.638672C2.23638 0.285975 2.5223 4.70006e-05 2.875 0Z" fill="#C2C2C2"/>
</svg>
