<svg width="105" height="29" viewBox="0 0 105 29" fill="none" xmlns="http://www.w3.org/2000/svg">
<rect width="104.934" height="28.8808" rx="4.81347" fill="#F6F6F6"/>
<mask id="mask0_947_2094" style="mask-type:luminance" maskUnits="userSpaceOnUse" x="14" y="8" width="5" height="10">
<path d="M14.0601 8.41797H18.6714V17.352H14.0601V8.41797Z" fill="white"/>
</mask>
<g mask="url(#mask0_947_2094)">
<path d="M16.3648 17.3319C17.6177 17.3319 18.6372 16.3118 18.6372 15.058V10.692C18.6372 9.43811 17.6177 8.41797 16.3648 8.41797C15.1117 8.41797 14.0923 9.43811 14.0923 10.692V15.058C14.0923 16.3118 15.1117 17.3319 16.3648 17.3319Z" fill="#9C9C9C"/>
</g>
<mask id="mask1_947_2094" style="mask-type:luminance" maskUnits="userSpaceOnUse" x="11" y="13" width="11" height="8">
<path d="M11.3628 13.4092H21.3685V20.0603H11.3628V13.4092Z" fill="white"/>
</mask>
<g mask="url(#mask1_947_2094)">
<path d="M20.6838 13.4199C20.3073 13.4199 20.002 13.7253 20.002 14.1021V15.0218C20.002 17.0331 18.3862 18.6899 16.3765 18.6954C14.3669 18.701 12.7302 17.0668 12.7302 15.0572V14.1021C12.7302 13.7253 12.4249 13.4199 12.0484 13.4199C11.672 13.4199 11.3667 13.7253 11.3667 14.1021V15.0572C11.3667 17.82 13.605 20.0598 16.3662 20.0598C19.1272 20.0598 21.3655 17.82 21.3655 15.0572V14.1021C21.3655 13.7253 21.0603 13.4199 20.6838 13.4199Z" fill="#9C9C9C"/>
</g>
<path d="M32.8006 12.5737H31.4711C31.42 12.2896 31.3248 12.0396 31.1856 11.8237C31.0464 11.6078 30.8759 11.4245 30.6742 11.274C30.4725 11.1234 30.2467 11.0098 29.9967 10.9331C29.7495 10.8564 29.4867 10.818 29.2083 10.818C28.7055 10.818 28.2552 10.9444 27.8575 11.1973C27.4626 11.4501 27.1501 11.8208 26.92 12.3095C26.6927 12.7981 26.5791 13.3947 26.5791 14.0993C26.5791 14.8095 26.6927 15.4089 26.92 15.8975C27.1501 16.3862 27.464 16.7555 27.8617 17.0055C28.2595 17.2555 28.7069 17.3805 29.2041 17.3805C29.4796 17.3805 29.741 17.3436 29.9881 17.2697C30.2381 17.193 30.464 17.0808 30.6657 16.9331C30.8674 16.7853 31.0379 16.6049 31.1771 16.3919C31.3191 16.176 31.4171 15.9288 31.4711 15.6504L32.8006 15.6547C32.7296 16.0836 32.5918 16.4785 32.3873 16.8393C32.1856 17.1973 31.9256 17.5069 31.6075 17.7683C31.2921 18.0268 30.9313 18.2271 30.5251 18.3691C30.1188 18.5112 29.6756 18.5822 29.1955 18.5822C28.4399 18.5822 27.7666 18.4032 27.1756 18.0453C26.5847 17.6845 26.1188 17.1689 25.7779 16.4984C25.4399 15.8279 25.2708 15.0282 25.2708 14.0993C25.2708 13.1674 25.4413 12.3677 25.7822 11.7001C26.1231 11.0297 26.589 10.5154 27.1799 10.1575C27.7708 9.7967 28.4427 9.6163 29.1955 9.6163C29.6586 9.6163 30.0904 9.68306 30.491 9.81658C30.8944 9.94727 31.2566 10.1404 31.5776 10.3961C31.8987 10.649 32.1643 10.9586 32.3745 11.3251C32.5847 11.6887 32.7268 12.1049 32.8006 12.5737ZM35.5482 14.5765V18.4629H34.274V9.73562H35.5311V12.9828H35.6121C35.7655 12.6305 35.9999 12.3507 36.3152 12.1433C36.6305 11.9359 37.0425 11.8322 37.551 11.8322C37.9999 11.8322 38.3919 11.9245 38.7271 12.1092C39.0652 12.2939 39.3266 12.5694 39.5112 12.9359C39.6987 13.2995 39.7925 13.7541 39.7925 14.2995V18.4629H38.5183V14.4529C38.5183 13.9728 38.3948 13.6007 38.1476 13.3365C37.9004 13.0694 37.5567 12.9359 37.1163 12.9359C36.8152 12.9359 36.5453 12.9998 36.3067 13.1277C36.0709 13.2555 35.8848 13.443 35.7484 13.6902C35.6149 13.9345 35.5482 14.2299 35.5482 14.5765ZM43.3976 18.6078C42.9828 18.6078 42.6078 18.5311 42.2726 18.3777C41.9374 18.2214 41.6717 17.9956 41.4757 17.7001C41.2825 17.4047 41.1859 17.0424 41.1859 16.6135C41.1859 16.2441 41.257 15.9402 41.399 15.7015C41.5411 15.4629 41.7328 15.274 41.9743 15.1348C42.2158 14.9956 42.4857 14.8904 42.784 14.8194C43.0823 14.7484 43.3862 14.6944 43.6959 14.6575C44.0879 14.612 44.4061 14.5751 44.6504 14.5467C44.8948 14.5154 45.0723 14.4657 45.1831 14.3975C45.2939 14.3294 45.3493 14.2186 45.3493 14.0652V14.0353C45.3493 13.6632 45.2442 13.3748 45.034 13.1703C44.8266 12.9657 44.5169 12.8635 44.105 12.8635C43.676 12.8635 43.3379 12.9586 43.0908 13.149C42.8465 13.3365 42.6774 13.5453 42.5837 13.7754L41.3862 13.5027C41.5283 13.1049 41.7357 12.7839 42.0084 12.5396C42.284 12.2924 42.6007 12.1135 42.9587 12.0027C43.3166 11.889 43.693 11.8322 44.0879 11.8322C44.3493 11.8322 44.6263 11.8635 44.9189 11.926C45.2144 11.9856 45.4899 12.0964 45.7456 12.2583C46.0041 12.4203 46.2158 12.6518 46.3805 12.9529C46.5453 13.2512 46.6277 13.639 46.6277 14.1163V18.4629H45.3834V17.568H45.3323C45.2499 17.7328 45.1263 17.8947 44.9615 18.0538C44.7967 18.2129 44.5851 18.345 44.3266 18.4501C44.068 18.5552 43.7584 18.6078 43.3976 18.6078ZM43.6746 17.585C44.0269 17.585 44.328 17.5154 44.578 17.3762C44.8308 17.237 45.0226 17.0552 45.1533 16.8308C45.2868 16.6035 45.3536 16.3606 45.3536 16.1021V15.2583C45.3081 15.3038 45.22 15.3464 45.0894 15.3862C44.9615 15.4231 44.8152 15.4558 44.6504 15.4842C44.4857 15.5098 44.3252 15.5339 44.1689 15.5566C44.0127 15.5765 43.882 15.5936 43.7769 15.6078C43.5297 15.639 43.3038 15.6916 43.0993 15.7654C42.8976 15.8393 42.7357 15.9458 42.6135 16.085C42.4942 16.2214 42.4345 16.4032 42.4345 16.6305C42.4345 16.9458 42.551 17.1845 42.784 17.3464C43.0169 17.5055 43.3138 17.585 43.6746 17.585ZM49.5989 14.5765V18.4629H48.3248V11.9174H49.5478V12.9828H49.6288C49.7793 12.6362 50.0151 12.3578 50.3362 12.1475C50.66 11.9373 51.0677 11.8322 51.5592 11.8322C52.0052 11.8322 52.3958 11.926 52.731 12.1135C53.0663 12.2981 53.3262 12.5737 53.5109 12.9402C53.6955 13.3066 53.7879 13.7598 53.7879 14.2995V18.4629H52.5137V14.4529C52.5137 13.9785 52.3901 13.6078 52.143 13.3407C51.8958 13.0708 51.5563 12.9359 51.1245 12.9359C50.8291 12.9359 50.5663 12.9998 50.3362 13.1277C50.1089 13.2555 49.9285 13.443 49.795 13.6902C49.6643 13.9345 49.5989 14.2299 49.5989 14.5765ZM56.7708 14.5765V18.4629H55.4967V11.9174H56.7197V12.9828H56.8006C56.9512 12.6362 57.187 12.3578 57.508 12.1475C57.8319 11.9373 58.2396 11.8322 58.731 11.8322C59.1771 11.8322 59.5677 11.926 59.9029 12.1135C60.2381 12.2981 60.4981 12.5737 60.6828 12.9402C60.8674 13.3066 60.9597 13.7598 60.9597 14.2995V18.4629H59.6856V14.4529C59.6856 13.9785 59.562 13.6078 59.3149 13.3407C59.0677 13.0708 58.7282 12.9359 58.2964 12.9359C58.0009 12.9359 57.7381 12.9998 57.508 13.1277C57.2808 13.2555 57.1004 13.443 56.9668 13.6902C56.8362 13.9345 56.7708 14.2299 56.7708 14.5765ZM65.4896 18.595C64.8447 18.595 64.2893 18.4572 63.8234 18.1816C63.3603 17.9032 63.0024 17.5126 62.7495 17.0098C62.4995 16.5041 62.3745 15.9118 62.3745 15.2328C62.3745 14.5623 62.4995 13.9714 62.7495 13.46C63.0024 12.9487 63.3546 12.5495 63.8063 12.2626C64.2609 11.9757 64.7921 11.8322 65.4001 11.8322C65.7694 11.8322 66.1274 11.8933 66.4739 12.0154C66.8205 12.1376 67.1316 12.3294 67.4072 12.5907C67.6828 12.8521 67.9001 13.1916 68.0592 13.6092C68.2183 14.024 68.2978 14.5282 68.2978 15.122V15.5737H63.0947V14.6191H67.0492C67.0492 14.2839 66.981 13.987 66.8447 13.7285C66.7083 13.4672 66.5166 13.2612 66.2694 13.1106C66.0251 12.96 65.7381 12.8848 65.4086 12.8848C65.0506 12.8848 64.7381 12.9728 64.4711 13.149C64.2069 13.3223 64.0024 13.5495 63.8575 13.8308C63.7154 14.1092 63.6444 14.4118 63.6444 14.7385V15.4842C63.6444 15.9217 63.7211 16.2939 63.8745 16.6007C64.0308 16.9075 64.2481 17.1419 64.5265 17.3038C64.8049 17.4629 65.1302 17.5424 65.5024 17.5424C65.7438 17.5424 65.964 17.5083 66.1629 17.4402C66.3617 17.3691 66.5336 17.264 66.6785 17.1248C66.8234 16.9856 66.9342 16.8137 67.0109 16.6092L68.2168 16.8265C68.1203 17.1816 67.947 17.4927 67.697 17.7598C67.4498 18.024 67.1387 18.2299 66.7637 18.3777C66.3916 18.5225 65.9668 18.595 65.4896 18.595ZM70.9857 9.73562V18.4629H69.7115V9.73562H70.9857Z" fill="#9C9C9C"/>
<path d="M86.2637 12.6138L89.9173 16.2674L93.5708 12.6138" stroke="#9C9C9C" stroke-width="1.2515" stroke-linecap="round"/>
</svg>
