<svg width="107" height="29" viewBox="0 0 107 29" fill="none" xmlns="http://www.w3.org/2000/svg">
<rect width="106.859" height="28.8808" rx="4.81347" fill="#F6F6F6"/>
<path d="M16.9487 8.63037C20.0338 8.63062 22.5355 11.1312 22.5356 14.2163C22.5355 17.3014 20.0338 19.803 16.9487 19.8032C13.8635 19.8031 11.363 17.3015 11.3628 14.2163C11.363 11.1311 13.8635 8.63049 16.9487 8.63037ZM16.9487 10.8647C16.7075 10.865 16.5122 11.0609 16.5122 11.3022V14.0063L14.2466 15.8188C14.0586 15.9697 14.0278 16.2447 14.1782 16.4331C14.329 16.6215 14.6049 16.652 14.7935 16.5015L17.1675 14.6021C17.3056 14.4915 17.3861 14.3239 17.3862 14.147V11.3022C17.3862 11.0608 17.1902 10.8647 16.9487 10.8647Z" fill="#9C9C9C"/>
<path d="M29.6557 18.4404H26.8304V9.71316H29.7452C30.6003 9.71316 31.3347 9.88787 31.9483 10.2373C32.5619 10.5839 33.0321 11.0825 33.3588 11.733C33.6883 12.3808 33.8531 13.1578 33.8531 14.064C33.8531 14.9731 33.6869 15.7544 33.3545 16.4078C33.025 17.0612 32.5477 17.564 31.9227 17.9163C31.2977 18.2657 30.542 18.4404 29.6557 18.4404ZM28.1472 17.2899H29.5832C30.248 17.2899 30.8006 17.1649 31.2409 16.9149C31.6812 16.662 32.0108 16.297 32.2295 15.8197C32.4483 15.3396 32.5577 14.7544 32.5577 14.064C32.5577 13.3794 32.4483 12.7984 32.2295 12.3211C32.0136 11.8438 31.6912 11.4816 31.2622 11.2345C30.8332 10.9873 30.3006 10.8637 29.6642 10.8637H28.1472V17.2899ZM39.5346 15.7259V11.895H40.813V18.4404H39.5601V17.3069H39.492C39.3414 17.6563 39.0999 17.9475 38.7675 18.1805C38.438 18.4106 38.0275 18.5257 37.536 18.5257C37.1155 18.5257 36.7434 18.4333 36.4195 18.2487C36.0985 18.0612 35.8457 17.7842 35.661 17.4177C35.4792 17.0512 35.3883 16.5981 35.3883 16.0583V11.895H36.6624V15.9049C36.6624 16.3509 36.786 16.7061 37.0332 16.9703C37.2803 17.2345 37.6013 17.3666 37.9962 17.3666C38.2349 17.3666 38.4721 17.3069 38.7079 17.1876C38.9465 17.0683 39.144 16.8879 39.3002 16.6464C39.4593 16.4049 39.5374 16.0981 39.5346 15.7259ZM42.525 18.4404V11.895H43.7565V12.9347H43.8247C43.944 12.5825 44.1543 12.3055 44.4554 12.1038C44.7594 11.8992 45.1031 11.797 45.4866 11.797C45.5662 11.797 45.6599 11.7998 45.7679 11.8055C45.8787 11.8112 45.9653 11.8183 46.0278 11.8268V13.0455C45.9767 13.0313 45.8858 13.0157 45.7551 12.9987C45.6244 12.9788 45.4937 12.9688 45.3631 12.9688C45.0619 12.9688 44.7935 13.0328 44.5577 13.1606C44.3247 13.2856 44.14 13.4603 44.0037 13.6847C43.8673 13.9063 43.7991 14.1592 43.7991 14.4433V18.4404H42.525ZM48.9767 18.5853C48.5619 18.5853 48.1869 18.5086 47.8517 18.3552C47.5165 18.199 47.2508 17.9731 47.0548 17.6776C46.8616 17.3822 46.765 17.02 46.765 16.591C46.765 16.2217 46.8361 15.9177 46.9781 15.6791C47.1202 15.4404 47.3119 15.2515 47.5534 15.1123C47.7949 14.9731 48.0648 14.868 48.3631 14.797C48.6614 14.7259 48.9653 14.672 49.275 14.635C49.667 14.5896 49.9852 14.5526 50.2295 14.5242C50.4739 14.493 50.6514 14.4433 50.7622 14.3751C50.873 14.3069 50.9284 14.1961 50.9284 14.0427V14.0129C50.9284 13.6407 50.8233 13.3524 50.6131 13.1478C50.4057 12.9433 50.096 12.841 49.6841 12.841C49.2551 12.841 48.917 12.9362 48.6699 13.1265C48.4256 13.314 48.2565 13.5228 48.1628 13.7529L46.9653 13.4802C47.1074 13.0825 47.3148 12.7615 47.5875 12.5171C47.8631 12.27 48.1798 12.091 48.5378 11.9802C48.8957 11.8666 49.2722 11.8097 49.667 11.8097C49.9284 11.8097 50.2054 11.841 50.498 11.9035C50.7935 11.9632 51.069 12.074 51.3247 12.2359C51.5832 12.3978 51.7949 12.6293 51.9597 12.9305C52.1244 13.2288 52.2068 13.6166 52.2068 14.0938V18.4404H50.9625V17.5455H50.9114C50.829 17.7103 50.7054 17.8722 50.5406 18.0313C50.3758 18.1904 50.1642 18.3225 49.9057 18.4276C49.6472 18.5328 49.3375 18.5853 48.9767 18.5853ZM49.2537 17.5626C49.606 17.5626 49.9071 17.493 50.1571 17.3538C50.4099 17.2146 50.6017 17.0328 50.7324 16.8083C50.8659 16.5811 50.9327 16.3382 50.9327 16.0796V15.2359C50.8872 15.2813 50.7991 15.324 50.6685 15.3637C50.5406 15.4007 50.3943 15.4333 50.2295 15.4617C50.0648 15.4873 49.9043 15.5115 49.748 15.5342C49.5918 15.5541 49.4611 15.5711 49.356 15.5853C49.1088 15.6166 48.8829 15.6691 48.6784 15.743C48.4767 15.8169 48.3148 15.9234 48.1926 16.0626C48.0733 16.199 48.0136 16.3808 48.0136 16.608C48.0136 16.9234 48.1301 17.162 48.3631 17.324C48.596 17.483 48.8929 17.5626 49.2537 17.5626ZM56.9593 11.895V12.9177H53.384V11.895H56.9593ZM54.3428 10.3268H55.617V16.5186C55.617 16.7657 55.6539 16.9518 55.7278 17.0768C55.8016 17.199 55.8968 17.2828 56.0133 17.3282C56.1326 17.3708 56.2619 17.3921 56.4011 17.3921C56.5033 17.3921 56.5928 17.385 56.6695 17.3708C56.7462 17.3566 56.8059 17.3453 56.8485 17.3367L57.0786 18.3893C57.0047 18.4177 56.8996 18.4461 56.7633 18.4745C56.6269 18.5058 56.4565 18.5228 56.2519 18.5257C55.9167 18.5313 55.6042 18.4717 55.3144 18.3467C55.0246 18.2217 54.7903 18.0285 54.6113 17.7671C54.4323 17.5058 54.3428 17.1776 54.3428 16.7828V10.3268ZM58.3687 18.4404V11.895H59.6429V18.4404H58.3687ZM59.0122 10.885C58.7906 10.885 58.6003 10.8112 58.4412 10.6634C58.2849 10.5129 58.2068 10.3339 58.2068 10.1265C58.2068 9.91628 58.2849 9.7373 58.4412 9.58958C58.6003 9.43901 58.7906 9.36372 59.0122 9.36372C59.2338 9.36372 59.4227 9.43901 59.579 9.58958C59.7381 9.7373 59.8176 9.91628 59.8176 10.1265C59.8176 10.3339 59.7381 10.5129 59.579 10.6634C59.4227 10.8112 59.2338 10.885 59.0122 10.885ZM64.1141 18.5725C63.5005 18.5725 62.965 18.4319 62.5076 18.1507C62.0502 17.8694 61.6951 17.4759 61.4422 16.9703C61.1894 16.4646 61.063 15.8737 61.063 15.1975C61.063 14.5186 61.1894 13.9248 61.4422 13.4163C61.6951 12.9078 62.0502 12.5129 62.5076 12.2316C62.965 11.9504 63.5005 11.8097 64.1141 11.8097C64.7278 11.8097 65.2633 11.9504 65.7207 12.2316C66.178 12.5129 66.5332 12.9078 66.786 13.4163C67.0388 13.9248 67.1653 14.5186 67.1653 15.1975C67.1653 15.8737 67.0388 16.4646 66.786 16.9703C66.5332 17.4759 66.178 17.8694 65.7207 18.1507C65.2633 18.4319 64.7278 18.5725 64.1141 18.5725ZM64.1184 17.5029C64.5161 17.5029 64.8457 17.3978 65.107 17.1876C65.3684 16.9774 65.5616 16.6975 65.6866 16.3481C65.8144 15.9987 65.8783 15.6137 65.8783 15.1933C65.8783 14.7757 65.8144 14.3921 65.6866 14.0427C65.5616 13.6904 65.3684 13.4078 65.107 13.1947C64.8457 12.9816 64.5161 12.8751 64.1184 12.8751C63.7178 12.8751 63.3854 12.9816 63.1212 13.1947C62.8599 13.4078 62.6653 13.6904 62.5374 14.0427C62.4124 14.3921 62.3499 14.7757 62.3499 15.1933C62.3499 15.6137 62.4124 15.9987 62.5374 16.3481C62.6653 16.6975 62.8599 16.9774 63.1212 17.1876C63.3854 17.3978 63.7178 17.5029 64.1184 17.5029ZM69.8616 14.5541V18.4404H68.5875V11.895H69.8105V12.9603H69.8915C70.042 12.6137 70.2778 12.3353 70.5989 12.1251C70.9227 11.9149 71.3304 11.8097 71.8219 11.8097C72.2679 11.8097 72.6585 11.9035 72.9937 12.091C73.329 12.2757 73.5889 12.5512 73.7736 12.9177C73.9582 13.2842 74.0506 13.7373 74.0506 14.2771V18.4404H72.7764V14.4305C72.7764 13.9561 72.6528 13.5853 72.4057 13.3183C72.1585 13.0484 71.819 12.9134 71.3872 12.9134C71.0918 12.9134 70.829 12.9774 70.5989 13.1052C70.3716 13.233 70.1912 13.4205 70.0577 13.6677C69.927 13.912 69.8616 14.2075 69.8616 14.5541Z" fill="#9C9C9C"/>
<path d="M88.189 12.6138L91.8425 16.2674L95.4961 12.6138" stroke="#9C9C9C" stroke-width="1.2515" stroke-linecap="round"/>
</svg>
