<svg width="128" height="29" viewBox="0 0 128 29" fill="none" xmlns="http://www.w3.org/2000/svg">
<rect width="127.665" height="28.8808" rx="14.4404" fill="#F6F6F6"/>
<rect x="0.240674" y="0.240674" width="127.183" height="28.3995" rx="14.1997" stroke="#9C9C9C" stroke-opacity="0.1" stroke-width="0.481347"/>
<mask id="mask0_947_2144" style="mask-type:luminance" maskUnits="userSpaceOnUse" x="11" y="6" width="20" height="17">
<path d="M11.5522 6.32178H30.3359V22.5592H11.5522V6.32178Z" fill="white"/>
</mask>
<g mask="url(#mask0_947_2144)">
<path d="M20.9439 9.74024C23.3003 9.74024 25.2128 11.6545 25.2128 14.0133C25.2128 14.5644 25.1017 15.0901 24.9098 15.573L27.4071 18.0727C28.6963 16.9959 29.7122 15.6028 30.3396 14.0133C28.8585 10.2616 25.217 7.60359 20.9439 7.60359C19.7486 7.60359 18.6046 7.8173 17.5415 8.20189L19.3857 10.0435C19.8682 9.85546 20.3932 9.74024 20.9439 9.74024ZM12.406 7.41141L14.3526 9.36L14.7411 9.74872C13.3323 10.8512 12.2182 12.3169 11.5522 14.0133C13.0293 17.7648 16.6749 20.4228 20.9439 20.4228C22.2672 20.4228 23.5308 20.1663 24.6878 19.7006L25.0506 20.0639L27.5393 22.5592L28.6278 21.474L13.4948 6.32178L12.406 7.41141ZM17.1276 12.133L18.4466 13.4535C18.4081 13.6372 18.3826 13.8209 18.3826 14.0133C18.3826 15.4275 19.531 16.5769 20.9439 16.5769C21.1361 16.5769 21.3196 16.5513 21.4989 16.513L22.8179 17.8333C22.2503 18.1153 21.6183 18.2862 20.9439 18.2862C18.5874 18.2862 16.6749 16.3719 16.6749 14.0133C16.6749 13.3381 16.8458 12.7056 17.1276 12.133ZM20.803 11.4623L23.4925 14.1542L23.5051 14.0133C23.5051 12.5989 22.3568 11.4495 20.9439 11.4495L20.803 11.4623Z" fill="#9C9C9C"/>
</g>
<path d="M39.3284 18.4404V9.71316H40.6452V13.5058H44.996V9.71316H46.3171V18.4404H44.996V14.635H40.6452V18.4404H39.3284ZM48.1324 18.4404V11.895H49.4066V18.4404H48.1324ZM48.7759 10.885C48.5543 10.885 48.3639 10.8112 48.2049 10.6634C48.0486 10.5129 47.9705 10.3339 47.9705 10.1265C47.9705 9.91628 48.0486 9.7373 48.2049 9.58958C48.3639 9.43901 48.5543 9.36372 48.7759 9.36372C48.9975 9.36372 49.1864 9.43901 49.3426 9.58958C49.5017 9.7373 49.5813 9.91628 49.5813 10.1265C49.5813 10.3339 49.5017 10.5129 49.3426 10.6634C49.1864 10.8112 48.9975 10.885 48.7759 10.885ZM53.571 18.5683C53.0426 18.5683 52.571 18.4333 52.1562 18.1634C51.7443 17.8907 51.4204 17.5029 51.1846 17.0001C50.9517 16.4944 50.8352 15.8879 50.8352 15.1805C50.8352 14.4731 50.9531 13.868 51.1889 13.3651C51.4275 12.8623 51.7542 12.4774 52.169 12.2103C52.5838 11.9433 53.0539 11.8097 53.5795 11.8097C53.9858 11.8097 54.3125 11.8779 54.5596 12.0143C54.8096 12.1478 55.0028 12.3041 55.1392 12.483C55.2784 12.662 55.3863 12.8197 55.463 12.9561H55.5397V9.71316H56.8139V18.4404H55.5696V17.422H55.463C55.3863 17.5612 55.2755 17.7203 55.1306 17.8992C54.9886 18.0782 54.7926 18.2345 54.5426 18.368C54.2926 18.5015 53.9687 18.5683 53.571 18.5683ZM53.8522 17.4816C54.2187 17.4816 54.5284 17.385 54.7812 17.1919C55.0369 16.9958 55.2301 16.7245 55.3608 16.3779C55.4943 16.0313 55.561 15.6279 55.561 15.1677C55.561 14.7132 55.4957 14.3154 55.365 13.9745C55.2343 13.6336 55.0426 13.368 54.7897 13.1776C54.5369 12.9873 54.2244 12.8921 53.8522 12.8921C53.4687 12.8921 53.1491 12.9916 52.8934 13.1904C52.6377 13.3893 52.4446 13.6606 52.3139 14.0043C52.186 14.3481 52.1221 14.7359 52.1221 15.1677C52.1221 15.6052 52.1875 15.9987 52.3181 16.3481C52.4488 16.6975 52.642 16.9745 52.8977 17.1791C53.1562 17.3808 53.4744 17.4816 53.8522 17.4816ZM61.4534 18.5725C60.8085 18.5725 60.2532 18.4347 59.7872 18.1592C59.3242 17.8808 58.9662 17.4901 58.7134 16.9873C58.4634 16.4816 58.3384 15.8893 58.3384 15.2103C58.3384 14.5399 58.4634 13.949 58.7134 13.4376C58.9662 12.9262 59.3185 12.5271 59.7702 12.2401C60.2247 11.9532 60.756 11.8097 61.3639 11.8097C61.7333 11.8097 62.0912 11.8708 62.4378 11.993C62.7844 12.1151 63.0955 12.3069 63.371 12.5683C63.6466 12.8296 63.8639 13.1691 64.023 13.5867C64.1821 14.0015 64.2617 14.5058 64.2617 15.0995V15.5512H59.0585V14.5967H63.0131C63.0131 14.2615 62.9449 13.9646 62.8085 13.7061C62.6722 13.4447 62.4804 13.2387 62.2333 13.0882C61.9889 12.9376 61.702 12.8623 61.3725 12.8623C61.0145 12.8623 60.702 12.9504 60.435 13.1265C60.1708 13.2998 59.9662 13.5271 59.8213 13.8083C59.6793 14.0867 59.6083 14.3893 59.6083 14.716V15.4617C59.6083 15.8992 59.685 16.2714 59.8384 16.5782C59.9946 16.885 60.212 17.1194 60.4904 17.2813C60.7688 17.4404 61.0941 17.52 61.4662 17.52C61.7077 17.52 61.9279 17.4859 62.1267 17.4177C62.3256 17.3467 62.4975 17.2416 62.6424 17.1024C62.7872 16.9632 62.898 16.7913 62.9747 16.5867L64.1807 16.8041C64.0841 17.1592 63.9108 17.4703 63.6608 17.7373C63.4137 18.0015 63.1026 18.2075 62.7276 18.3552C62.3554 18.5001 61.9307 18.5725 61.4534 18.5725ZM70.2702 18.4404L68.3441 11.895H69.6608L70.9435 16.7018H71.0074L72.2943 11.895H73.6111L74.8895 16.6805H74.9534L76.2276 11.895H77.5443L75.6225 18.4404H74.3228L72.9932 13.7146H72.8952L71.5657 18.4404H70.2702ZM80.6583 18.5853C80.2436 18.5853 79.8686 18.5086 79.5333 18.3552C79.1981 18.199 78.9325 17.9731 78.7365 17.6776C78.5433 17.3822 78.4467 17.02 78.4467 16.591C78.4467 16.2217 78.5177 15.9177 78.6598 15.6791C78.8018 15.4404 78.9936 15.2515 79.235 15.1123C79.4765 14.9731 79.7464 14.868 80.0447 14.797C80.343 14.7259 80.647 14.672 80.9566 14.635C81.3487 14.5896 81.6669 14.5526 81.9112 14.5242C82.1555 14.493 82.3331 14.4433 82.4438 14.3751C82.5546 14.3069 82.61 14.1961 82.61 14.0427V14.0129C82.61 13.6407 82.5049 13.3524 82.2947 13.1478C82.0873 12.9433 81.7777 12.841 81.3657 12.841C80.9367 12.841 80.5987 12.9362 80.3515 13.1265C80.1072 13.314 79.9382 13.5228 79.8444 13.7529L78.647 13.4802C78.789 13.0825 78.9964 12.7615 79.2691 12.5171C79.5447 12.27 79.8615 12.091 80.2194 11.9802C80.5774 11.8666 80.9538 11.8097 81.3487 11.8097C81.61 11.8097 81.887 11.841 82.1796 11.9035C82.4751 11.9632 82.7507 12.074 83.0063 12.2359C83.2649 12.3978 83.4765 12.6293 83.6413 12.9305C83.8061 13.2288 83.8885 13.6166 83.8885 14.0938V18.4404H82.6441V17.5455H82.593C82.5106 17.7103 82.387 17.8722 82.2223 18.0313C82.0575 18.1904 81.8458 18.3225 81.5873 18.4276C81.3288 18.5328 81.0191 18.5853 80.6583 18.5853ZM80.9353 17.5626C81.2876 17.5626 81.5887 17.493 81.8387 17.3538C82.0916 17.2146 82.2833 17.0328 82.414 16.8083C82.5475 16.5811 82.6143 16.3382 82.6143 16.0796V15.2359C82.5688 15.2813 82.4808 15.324 82.3501 15.3637C82.2223 15.4007 82.076 15.4333 81.9112 15.4617C81.7464 15.4873 81.5859 15.5115 81.4296 15.5342C81.2734 15.5541 81.1427 15.5711 81.0376 15.5853C80.7904 15.6166 80.5646 15.6691 80.36 15.743C80.1583 15.8169 79.9964 15.9234 79.8742 16.0626C79.7549 16.199 79.6953 16.3808 79.6953 16.608C79.6953 16.9234 79.8117 17.162 80.0447 17.324C80.2777 17.483 80.5745 17.5626 80.9353 17.5626ZM88.6409 11.895V12.9177H85.0657V11.895H88.6409ZM86.0245 10.3268H87.2986V16.5186C87.2986 16.7657 87.3355 16.9518 87.4094 17.0768C87.4833 17.199 87.5784 17.2828 87.6949 17.3282C87.8142 17.3708 87.9435 17.3921 88.0827 17.3921C88.185 17.3921 88.2745 17.385 88.3512 17.3708C88.4279 17.3566 88.4875 17.3453 88.5301 17.3367L88.7603 18.3893C88.6864 18.4177 88.5813 18.4461 88.4449 18.4745C88.3085 18.5058 88.1381 18.5228 87.9335 18.5257C87.5983 18.5313 87.2858 18.4717 86.996 18.3467C86.7063 18.2217 86.4719 18.0285 86.2929 17.7671C86.1139 17.5058 86.0245 17.1776 86.0245 16.7828V10.3268ZM92.7372 18.5725C92.1036 18.5725 91.5582 18.4291 91.1008 18.1421C90.6463 17.8524 90.2968 17.4532 90.0525 16.9447C89.8082 16.4362 89.686 15.8538 89.686 15.1975C89.686 14.5328 89.811 13.9461 90.061 13.4376C90.311 12.9262 90.6633 12.5271 91.1179 12.2401C91.5724 11.9532 92.1079 11.8097 92.7244 11.8097C93.2215 11.8097 93.6647 11.9021 94.0539 12.0867C94.4431 12.2686 94.7571 12.5242 94.9957 12.8538C95.2372 13.1833 95.3806 13.5683 95.4261 14.0086H94.186C94.1179 13.7018 93.9616 13.4376 93.7173 13.216C93.4758 12.9944 93.1519 12.8836 92.7457 12.8836C92.3906 12.8836 92.0795 12.9774 91.8125 13.1649C91.5483 13.3495 91.3423 13.6137 91.1946 13.9575C91.0468 14.2984 90.973 14.7018 90.973 15.1677C90.973 15.645 91.0454 16.0569 91.1903 16.4035C91.3352 16.7501 91.5397 17.0186 91.8039 17.2089C92.071 17.3992 92.3849 17.4944 92.7457 17.4944C92.9872 17.4944 93.2059 17.4504 93.4019 17.3623C93.6008 17.2714 93.767 17.1421 93.9005 16.9745C94.0369 16.8069 94.1321 16.6052 94.186 16.3694H95.4261C95.3806 16.7927 95.2429 17.1705 95.0127 17.5029C94.7826 17.8353 94.4744 18.0967 94.088 18.287C93.7045 18.4774 93.2542 18.5725 92.7372 18.5725ZM98.0628 14.5541V18.4404H96.7887V9.71316H98.0458V12.9603H98.1267C98.2801 12.608 98.5145 12.3282 98.8299 12.1208C99.1452 11.9134 99.5571 11.8097 100.066 11.8097C100.515 11.8097 100.907 11.9021 101.242 12.0867C101.58 12.2714 101.841 12.547 102.026 12.9134C102.213 13.2771 102.307 13.7316 102.307 14.2771V18.4404H101.033V14.4305C101.033 13.9504 100.909 13.5782 100.662 13.314C100.415 13.047 100.071 12.9134 99.631 12.9134C99.3299 12.9134 99.06 12.9774 98.8213 13.1052C98.5855 13.233 98.3995 13.4205 98.2631 13.6677C98.1296 13.912 98.0628 14.2075 98.0628 14.5541ZM106.828 18.5725C106.184 18.5725 105.628 18.4347 105.162 18.1592C104.699 17.8808 104.341 17.4901 104.088 16.9873C103.838 16.4816 103.713 15.8893 103.713 15.2103C103.713 14.5399 103.838 13.949 104.088 13.4376C104.341 12.9262 104.693 12.5271 105.145 12.2401C105.6 11.9532 106.131 11.8097 106.739 11.8097C107.108 11.8097 107.466 11.8708 107.813 11.993C108.159 12.1151 108.47 12.3069 108.746 12.5683C109.022 12.8296 109.239 13.1691 109.398 13.5867C109.557 14.0015 109.637 14.5058 109.637 15.0995V15.5512H104.434V14.5967H108.388C108.388 14.2615 108.32 13.9646 108.184 13.7061C108.047 13.4447 107.855 13.2387 107.608 13.0882C107.364 12.9376 107.077 12.8623 106.747 12.8623C106.39 12.8623 106.077 12.9504 105.81 13.1265C105.546 13.2998 105.341 13.5271 105.196 13.8083C105.054 14.0867 104.983 14.3893 104.983 14.716V15.4617C104.983 15.8992 105.06 16.2714 105.213 16.5782C105.37 16.885 105.587 17.1194 105.865 17.2813C106.144 17.4404 106.469 17.52 106.841 17.52C107.083 17.52 107.303 17.4859 107.502 17.4177C107.701 17.3467 107.872 17.2416 108.017 17.1024C108.162 16.9632 108.273 16.7913 108.35 16.5867L109.556 16.8041C109.459 17.1592 109.286 17.4703 109.036 17.7373C108.789 18.0015 108.478 18.2075 108.103 18.3552C107.73 18.5001 107.306 18.5725 106.828 18.5725ZM113.501 18.5683C112.972 18.5683 112.501 18.4333 112.086 18.1634C111.674 17.8907 111.35 17.5029 111.114 17.0001C110.881 16.4944 110.765 15.8879 110.765 15.1805C110.765 14.4731 110.883 13.868 111.119 13.3651C111.357 12.8623 111.684 12.4774 112.099 12.2103C112.513 11.9433 112.984 11.8097 113.509 11.8097C113.915 11.8097 114.242 11.8779 114.489 12.0143C114.739 12.1478 114.932 12.3041 115.069 12.483C115.208 12.662 115.316 12.8197 115.393 12.9561H115.469V9.71316H116.744V18.4404H115.499V17.422H115.393C115.316 17.5612 115.205 17.7203 115.06 17.8992C114.918 18.0782 114.722 18.2345 114.472 18.368C114.222 18.5015 113.898 18.5683 113.501 18.5683ZM113.782 17.4816C114.148 17.4816 114.458 17.385 114.711 17.1919C114.967 16.9958 115.16 16.7245 115.29 16.3779C115.424 16.0313 115.491 15.6279 115.491 15.1677C115.491 14.7132 115.425 14.3154 115.295 13.9745C115.164 13.6336 114.972 13.368 114.719 13.1776C114.467 12.9873 114.154 12.8921 113.782 12.8921C113.398 12.8921 113.079 12.9916 112.823 13.1904C112.567 13.3893 112.374 13.6606 112.244 14.0043C112.116 14.3481 112.052 14.7359 112.052 15.1677C112.052 15.6052 112.117 15.9987 112.248 16.3481C112.379 16.6975 112.572 16.9745 112.827 17.1791C113.086 17.3808 113.404 17.4816 113.782 17.4816Z" fill="#9C9C9C"/>
</svg>
