<svg width="15" height="10" viewBox="0 0 15 10" fill="none" xmlns="http://www.w3.org/2000/svg">
<mask id="mask0_947_2153" style="mask-type:luminance" maskUnits="userSpaceOnUse" x="0" y="7" width="15" height="3">
<path d="M0 7.46533H14.0614V9.37415H0V7.46533Z" fill="white"/>
</mask>
<g mask="url(#mask0_947_2153)">
<path d="M0 7.49902V7.96783C0.000155482 8.01386 0.00248788 8.05988 0.00699712 8.1056C0.0115064 8.15147 0.018348 8.19687 0.0273665 8.24212C0.0363851 8.28721 0.0475805 8.33184 0.0609527 8.37584C0.074325 8.41984 0.0898742 8.46323 0.1076 8.50568C0.125171 8.54828 0.144918 8.5898 0.166532 8.63038C0.1883 8.67096 0.211935 8.71046 0.237591 8.74871C0.263092 8.78696 0.290614 8.82397 0.319691 8.85942C0.348923 8.89503 0.379866 8.92908 0.412364 8.96173C0.445017 8.99423 0.47907 9.02517 0.514677 9.05425C0.550129 9.08348 0.587136 9.11101 0.625387 9.13651C0.663638 9.16216 0.703133 9.1858 0.743716 9.20757C0.7843 9.22918 0.825816 9.24893 0.868421 9.2665C0.91087 9.28422 0.954097 9.29977 0.998256 9.31314C1.04226 9.32652 1.08689 9.33771 1.13198 9.34673C1.17707 9.35575 1.22263 9.36259 1.2685 9.3671C1.31422 9.37161 1.36024 9.37394 1.40627 9.37394H12.6553C12.7013 9.37394 12.7474 9.37161 12.7931 9.3671C12.8389 9.36259 12.8843 9.35575 12.9296 9.34673C12.9747 9.33771 13.0193 9.32652 13.0633 9.31314C13.1073 9.29977 13.1507 9.28422 13.1932 9.2665C13.2358 9.24893 13.2773 9.22918 13.3179 9.20757C13.3584 9.1858 13.3979 9.16216 13.4362 9.13651C13.4744 9.11101 13.5114 9.08348 13.5469 9.05441C13.5825 9.02517 13.6166 8.99423 13.6492 8.96173C13.6817 8.92908 13.7127 8.89503 13.7419 8.85942C13.771 8.82397 13.7985 8.78696 13.824 8.74871C13.8496 8.71046 13.8733 8.67096 13.895 8.63038C13.9167 8.5898 13.9364 8.54828 13.954 8.50568C13.9717 8.46323 13.9872 8.41984 14.0006 8.37584C14.014 8.33184 14.0252 8.28721 14.0342 8.24212C14.0432 8.19687 14.0501 8.15147 14.0546 8.1056C14.0591 8.05988 14.0614 8.01386 14.0614 7.96783V7.49902H0Z" fill="#F08484"/>
</g>
<path d="M4.21804 4.68633C4.21804 4.65554 4.21649 4.62506 4.21338 4.59443C4.21042 4.56396 4.20591 4.53363 4.19985 4.50347C4.19378 4.47346 4.18632 4.44376 4.17746 4.41437C4.16844 4.38498 4.15818 4.35606 4.14636 4.32776C4.1347 4.29946 4.12148 4.27179 4.10702 4.24473C4.09256 4.21768 4.07685 4.1914 4.05975 4.16574C4.04265 4.14024 4.02445 4.11567 4.00502 4.09204C3.98543 4.06825 3.9649 4.04555 3.94313 4.02378C3.92152 4.00216 3.89882 3.98148 3.87503 3.96205C3.85139 3.94261 3.82667 3.92426 3.80117 3.90731C3.77567 3.89021 3.74939 3.87451 3.72233 3.86004C3.69528 3.84543 3.6676 3.83237 3.6393 3.82055C3.61085 3.80889 3.58208 3.79847 3.55269 3.78961C3.5233 3.78059 3.49361 3.77312 3.46344 3.76722C3.43343 3.76115 3.40311 3.75664 3.37248 3.75353C3.342 3.75058 3.31137 3.74902 3.28074 3.74902H1.87463C1.84384 3.74902 1.81321 3.75058 1.78273 3.75353C1.75225 3.75664 1.72193 3.76115 1.69177 3.76722C1.6616 3.77312 1.6319 3.78059 1.60252 3.78961C1.57313 3.79847 1.54436 3.80889 1.51606 3.82055C1.48761 3.83237 1.45993 3.84543 1.43287 3.85989C1.40582 3.87451 1.37954 3.89021 1.35404 3.90731C1.32854 3.92426 1.30382 3.94261 1.28018 3.96205C1.25639 3.98148 1.23369 4.00216 1.21192 4.02378C1.19031 4.04555 1.16963 4.06825 1.15019 4.09188C1.13075 4.11567 1.11241 4.14024 1.09546 4.16574C1.07835 4.19124 1.06249 4.21752 1.04803 4.24458C1.03357 4.27163 1.02051 4.29946 1.00869 4.32776C0.996876 4.35606 0.986614 4.38498 0.977595 4.41437C0.968732 4.4436 0.961268 4.47346 0.955204 4.50347C0.94914 4.53363 0.944631 4.56396 0.941676 4.59443C0.938567 4.62506 0.937012 4.65554 0.937012 4.68633V6.56125H4.21804V4.68633Z" fill="#F08484"/>
<path d="M6.32793 1.87451C6.29714 1.87467 6.26666 1.87622 6.23603 1.87918C6.20556 1.88229 6.17524 1.8868 6.14507 1.89286C6.11506 1.89877 6.08521 1.90623 6.05582 1.91525C6.02659 1.92411 5.99766 1.93453 5.96936 1.94619C5.94091 1.95801 5.91323 1.97107 5.88618 1.98569C5.85912 2.00015 5.83284 2.01585 5.80734 2.03296C5.78184 2.05006 5.75712 2.06825 5.73348 2.08769C5.70969 2.10728 5.68699 2.12781 5.66538 2.14958C5.64361 2.17119 5.62309 2.19389 5.60365 2.21768C5.58406 2.24147 5.56586 2.26604 5.54876 2.29154C5.53166 2.31704 5.51595 2.34332 5.50149 2.37037C5.48703 2.39759 5.47397 2.42526 5.46215 2.45356C5.45033 2.48186 5.44007 2.51078 5.43105 2.54017C5.42219 2.56956 5.41473 2.59926 5.40866 2.62942C5.40275 2.65943 5.39824 2.68975 5.39513 2.72039C5.39218 2.75086 5.39062 2.78149 5.39062 2.81213V6.56181H8.67134V2.81213C8.67134 2.78149 8.66979 2.75086 8.66683 2.72039C8.66372 2.68975 8.65921 2.65943 8.65331 2.62942C8.64724 2.59926 8.63978 2.56956 8.63092 2.54017C8.6219 2.51078 8.61163 2.48186 8.59982 2.45356C8.588 2.42526 8.57494 2.39759 8.56048 2.37037C8.54602 2.34332 8.53016 2.31704 8.51321 2.29154C8.4961 2.26604 8.47791 2.24147 8.45832 2.21768C8.43888 2.19389 8.41836 2.17119 8.39659 2.14958C8.37498 2.12781 8.35227 2.10728 8.32848 2.08769C8.30469 2.06825 8.28013 2.05006 8.25463 2.03296C8.22913 2.01585 8.20285 2.00015 8.17579 1.98569C8.14874 1.97107 8.12106 1.95801 8.0926 1.94619C8.0643 1.93453 8.03538 1.92411 8.00599 1.91525C7.97676 1.90623 7.94691 1.89877 7.9169 1.89286C7.88673 1.8868 7.85641 1.88229 7.82594 1.87918C7.7953 1.87622 7.76467 1.87467 7.73404 1.87451H6.32793Z" fill="#F08484"/>
<path d="M10.7806 0C10.7499 0 10.7193 0.00155492 10.6887 0.00466475C10.6582 0.0076191 10.6279 0.0121284 10.5979 0.0181925C10.5677 0.0242567 10.538 0.0317203 10.5086 0.0405833C10.4792 0.0496018 10.4505 0.0598643 10.422 0.0716816C10.3937 0.0833435 10.366 0.0965603 10.339 0.111021C10.3119 0.125482 10.2856 0.141186 10.2601 0.15829C10.2346 0.175395 10.2099 0.193587 10.1863 0.213179C10.1625 0.232615 10.1398 0.25314 10.1182 0.274909C10.0964 0.296523 10.0759 0.319224 10.0563 0.343015C10.0368 0.366649 10.0187 0.391372 10.0016 0.416873C9.98445 0.442374 9.96874 0.468652 9.95428 0.495707C9.93982 0.522763 9.92661 0.55044 9.91494 0.57874C9.90313 0.607195 9.89271 0.635961 9.88385 0.665349C9.87498 0.694737 9.86752 0.724436 9.86145 0.754601C9.85539 0.784611 9.85088 0.814932 9.84793 0.845563C9.84482 0.87604 9.84326 0.906672 9.84326 0.937303V6.5619H13.1243V0.937303C13.1243 0.906672 13.1227 0.87604 13.1198 0.845408C13.1167 0.814932 13.1122 0.784611 13.1061 0.754445C13.1002 0.724436 13.0926 0.694737 13.0837 0.665349C13.0748 0.635961 13.0644 0.607039 13.0526 0.57874C13.0409 0.55044 13.0277 0.522763 13.0133 0.495552C12.9988 0.468496 12.9831 0.442218 12.966 0.416718C12.9489 0.391217 12.9307 0.366649 12.9111 0.342859C12.8917 0.319224 12.8712 0.296523 12.8494 0.274754C12.8276 0.25314 12.8049 0.23246 12.7813 0.213024C12.7575 0.193587 12.7329 0.175239 12.7074 0.15829C12.6818 0.141186 12.6555 0.125326 12.6284 0.110866C12.6014 0.0964048 12.5737 0.0833435 12.5454 0.0715261C12.5169 0.0598643 12.4882 0.0494464 12.4588 0.0405833C12.4294 0.0315648 12.3997 0.0241012 12.3695 0.0181925C12.3394 0.0121284 12.309 0.0076191 12.2786 0.00466475C12.2481 0.00155492 12.2175 0 12.1867 0H10.7806Z" fill="#F08484"/>
</svg>
