<svg width="90" height="29" viewBox="0 0 90 29" fill="none" xmlns="http://www.w3.org/2000/svg">
<rect x="0.481347" y="0.481347" width="88.5679" height="27.9181" rx="4.33212" fill="#F6F6F6"/>
<rect x="0.481347" y="0.481347" width="88.5679" height="27.9181" rx="4.33212" stroke="#DB0000" stroke-width="0.962694"/>
<mask id="mask0_947_2081" style="mask-type:luminance" maskUnits="userSpaceOnUse" x="11" y="16" width="15" height="3">
<path d="M11.3628 16.9937H25.4242V18.9025H11.3628V16.9937Z" fill="white"/>
</mask>
<g mask="url(#mask0_947_2081)">
<path d="M11.3628 17.0288V17.4976C11.3629 17.5436 11.3653 17.5897 11.3698 17.6354C11.3743 17.6813 11.3811 17.7267 11.3902 17.7719C11.3992 17.817 11.4104 17.8616 11.4237 17.9056C11.4371 17.9496 11.4527 17.993 11.4704 18.0355C11.488 18.0781 11.5077 18.1196 11.5293 18.1602C11.5511 18.2007 11.5747 18.2402 11.6004 18.2785C11.6259 18.3167 11.6534 18.3538 11.6825 18.3892C11.7117 18.4248 11.7427 18.4589 11.7752 18.4915C11.8078 18.524 11.8419 18.555 11.8775 18.584C11.9129 18.6133 11.9499 18.6408 11.9882 18.6663C12.0264 18.6919 12.0659 18.7156 12.1065 18.7374C12.1471 18.759 12.1886 18.7787 12.2312 18.7963C12.2737 18.814 12.3169 18.8296 12.361 18.8429C12.4051 18.8563 12.4497 18.8675 12.4948 18.8765C12.5399 18.8855 12.5854 18.8924 12.6313 18.8969C12.677 18.9014 12.723 18.9037 12.7691 18.9037H24.0181C24.0641 18.9037 24.1102 18.9014 24.1559 18.8969C24.2017 18.8924 24.2471 18.8855 24.2924 18.8765C24.3375 18.8675 24.3821 18.8563 24.4261 18.8429C24.4701 18.8296 24.5135 18.814 24.5559 18.7963C24.5986 18.7787 24.6401 18.759 24.6807 18.7374C24.7212 18.7156 24.7607 18.6919 24.799 18.6663C24.8372 18.6408 24.8742 18.6133 24.9097 18.5842C24.9453 18.555 24.9794 18.524 25.012 18.4915C25.0445 18.4589 25.0754 18.4248 25.1047 18.3892C25.1338 18.3538 25.1613 18.3167 25.1868 18.2785C25.2124 18.2402 25.2361 18.2007 25.2578 18.1602C25.2794 18.1196 25.2992 18.0781 25.3168 18.0355C25.3345 17.993 25.35 17.9496 25.3634 17.9056C25.3768 17.8616 25.388 17.817 25.397 17.7719C25.406 17.7267 25.4129 17.6813 25.4174 17.6354C25.4219 17.5897 25.4242 17.5436 25.4242 17.4976V17.0288H11.3628Z" fill="#DB0000"/>
</g>
<path d="M15.5803 14.2156C15.5803 14.1848 15.5788 14.1544 15.5757 14.1237C15.5727 14.0933 15.5682 14.0629 15.5622 14.0328C15.5561 14.0028 15.5486 13.9731 15.5398 13.9437C15.5307 13.9143 15.5205 13.8854 15.5087 13.8571C15.497 13.8288 15.4838 13.8011 15.4693 13.774C15.4549 13.747 15.4392 13.7207 15.4221 13.695C15.405 13.6695 15.3868 13.645 15.3673 13.6213C15.3477 13.5975 15.3272 13.5748 15.3054 13.5531C15.2838 13.5315 15.2611 13.5108 15.2373 13.4913C15.2137 13.4719 15.189 13.4536 15.1635 13.4366C15.138 13.4195 15.1117 13.4038 15.0846 13.3893C15.0576 13.3747 15.0299 13.3617 15.0016 13.3498C14.9732 13.3382 14.9444 13.3278 14.915 13.3189C14.8856 13.3099 14.8559 13.3024 14.8257 13.2965C14.7957 13.2904 14.7654 13.2859 14.7348 13.2828C14.7043 13.2799 14.6737 13.2783 14.643 13.2783H13.2369C13.2061 13.2783 13.1755 13.2799 13.145 13.2828C13.1146 13.2859 13.0842 13.2904 13.0541 13.2965C13.0239 13.3024 12.9942 13.3099 12.9648 13.3189C12.9354 13.3278 12.9067 13.3382 12.8784 13.3498C12.8499 13.3617 12.8222 13.3747 12.7952 13.3892C12.7681 13.4038 12.7418 13.4195 12.7163 13.4366C12.6908 13.4536 12.6661 13.4719 12.6425 13.4913C12.6187 13.5108 12.596 13.5315 12.5742 13.5531C12.5526 13.5748 12.5319 13.5975 12.5125 13.6212C12.4931 13.645 12.4747 13.6695 12.4578 13.695C12.4407 13.7205 12.4248 13.7468 12.4103 13.7739C12.3959 13.8009 12.3828 13.8288 12.371 13.8571C12.3592 13.8854 12.3489 13.9143 12.3399 13.9437C12.331 13.9729 12.3236 14.0028 12.3175 14.0328C12.3114 14.0629 12.3069 14.0933 12.304 14.1237C12.3009 14.1544 12.2993 14.1848 12.2993 14.2156V16.0905H15.5803V14.2156Z" fill="#DB0000"/>
<path d="M17.6902 11.4038C17.6594 11.404 17.629 11.4055 17.5983 11.4085C17.5679 11.4116 17.5375 11.4161 17.5074 11.4222C17.4774 11.4281 17.4475 11.4355 17.4181 11.4445C17.3889 11.4534 17.36 11.4638 17.3317 11.4755C17.3032 11.4873 17.2755 11.5004 17.2485 11.515C17.2214 11.5294 17.1951 11.5452 17.1696 11.5623C17.1441 11.5794 17.1194 11.5976 17.0958 11.617C17.072 11.6366 17.0493 11.6571 17.0277 11.6789C17.0059 11.7005 16.9854 11.7232 16.966 11.747C16.9464 11.7708 16.9282 11.7953 16.9111 11.8208C16.894 11.8463 16.8783 11.8726 16.8638 11.8997C16.8493 11.9269 16.8363 11.9546 16.8245 11.9829C16.8126 12.0112 16.8024 12.0401 16.7934 12.0695C16.7845 12.0989 16.777 12.1286 16.771 12.1587C16.7651 12.1887 16.7605 12.2191 16.7574 12.2497C16.7545 12.2802 16.7529 12.3108 16.7529 12.3414V16.0911H20.0336V12.3414C20.0336 12.3108 20.0321 12.2802 20.0291 12.2497C20.026 12.2191 20.0215 12.1887 20.0156 12.1587C20.0095 12.1286 20.0021 12.0989 19.9932 12.0695C19.9842 12.0401 19.9739 12.0112 19.9621 11.9829C19.9503 11.9546 19.9372 11.9269 19.9228 11.8997C19.9083 11.8726 19.8925 11.8463 19.8755 11.8208C19.8584 11.7953 19.8402 11.7708 19.8206 11.747C19.8012 11.7232 19.7807 11.7005 19.7589 11.6789C19.7373 11.6571 19.7146 11.6366 19.6908 11.617C19.667 11.5976 19.6424 11.5794 19.6169 11.5623C19.5914 11.5452 19.5652 11.5294 19.5381 11.515C19.511 11.5004 19.4834 11.4873 19.4549 11.4755C19.4266 11.4638 19.3977 11.4534 19.3683 11.4445C19.3391 11.4355 19.3092 11.4281 19.2792 11.4222C19.249 11.4161 19.2187 11.4116 19.1882 11.4085C19.1576 11.4055 19.127 11.404 19.0963 11.4038H17.6902Z" fill="#DB0000"/>
<path d="M22.1424 9.5293C22.1117 9.5293 22.0811 9.53085 22.0505 9.53396C22.02 9.53692 21.9897 9.54143 21.9597 9.54749C21.9295 9.55355 21.8998 9.56102 21.8704 9.56988C21.841 9.5789 21.8123 9.58916 21.7838 9.60098C21.7555 9.61264 21.7278 9.62586 21.7008 9.64032C21.6737 9.65478 21.6475 9.67048 21.622 9.68759C21.5965 9.70469 21.5717 9.72288 21.5481 9.74248C21.5243 9.76191 21.5016 9.78244 21.48 9.80421C21.4582 9.82582 21.4377 9.84852 21.4181 9.87231C21.3987 9.89595 21.3805 9.92067 21.3634 9.94617C21.3463 9.97167 21.3306 9.99795 21.3161 10.025C21.3016 10.0521 21.2884 10.0797 21.2768 10.108C21.2649 10.1365 21.2545 10.1653 21.2457 10.1946C21.2368 10.224 21.2293 10.2537 21.2233 10.2839C21.2172 10.3139 21.2127 10.3442 21.2097 10.3749C21.2066 10.4053 21.2051 10.436 21.2051 10.4666V16.0912H24.4861V10.4666C24.4861 10.436 24.4846 10.4053 24.4816 10.3747C24.4785 10.3442 24.474 10.3139 24.4679 10.2837C24.462 10.2537 24.4544 10.224 24.4455 10.1946C24.4367 10.1653 24.4262 10.1363 24.4144 10.108C24.4028 10.0797 24.3895 10.0521 24.3751 10.0248C24.3606 9.99779 24.3449 9.97152 24.3278 9.94601C24.3107 9.92051 24.2925 9.89595 24.2729 9.87216C24.2535 9.84852 24.233 9.82582 24.2112 9.80405C24.1894 9.78244 24.1667 9.76176 24.1431 9.74232C24.1193 9.72288 24.0947 9.70454 24.0692 9.68759C24.0436 9.67048 24.0173 9.65462 23.9902 9.64016C23.9632 9.6257 23.9355 9.61264 23.9072 9.60082C23.8788 9.58916 23.85 9.57874 23.8206 9.56988C23.7912 9.56086 23.7615 9.5534 23.7314 9.54749C23.7012 9.54143 23.6709 9.53692 23.6404 9.53396C23.6099 9.53085 23.5793 9.5293 23.5485 9.5293H22.1424Z" fill="#DB0000"/>
<path d="M30.6155 18.4404V9.71316H31.9323V17.3069H35.8869V18.4404H30.6155ZM40.1077 18.5725C39.4628 18.5725 38.9074 18.4347 38.4415 18.1592C37.9785 17.8808 37.6205 17.4901 37.3677 16.9873C37.1177 16.4816 36.9927 15.8893 36.9927 15.2103C36.9927 14.5399 37.1177 13.949 37.3677 13.4376C37.6205 12.9262 37.9728 12.5271 38.4245 12.2401C38.879 11.9532 39.4103 11.8097 40.0182 11.8097C40.3876 11.8097 40.7455 11.8708 41.0921 11.993C41.4387 12.1151 41.7498 12.3069 42.0253 12.5683C42.3009 12.8296 42.5182 13.1691 42.6773 13.5867C42.8364 14.0015 42.916 14.5058 42.916 15.0995V15.5512H37.7128V14.5967H41.6674C41.6674 14.2615 41.5992 13.9646 41.4628 13.7061C41.3265 13.4447 41.1347 13.2387 40.8876 13.0882C40.6432 12.9376 40.3563 12.8623 40.0268 12.8623C39.6688 12.8623 39.3563 12.9504 39.0893 13.1265C38.8251 13.2998 38.6205 13.5271 38.4756 13.8083C38.3336 14.0867 38.2626 14.3893 38.2626 14.716V15.4617C38.2626 15.8992 38.3393 16.2714 38.4927 16.5782C38.6489 16.885 38.8663 17.1194 39.1447 17.2813C39.4231 17.4404 39.7484 17.52 40.1205 17.52C40.362 17.52 40.5822 17.4859 40.781 17.4177C40.9799 17.3467 41.1518 17.2416 41.2967 17.1024C41.4415 16.9632 41.5523 16.7913 41.629 16.5867L42.835 16.8041C42.7384 17.1592 42.5651 17.4703 42.3151 17.7373C42.068 18.0015 41.7569 18.2075 41.3819 18.3552C41.0097 18.5001 40.585 18.5725 40.1077 18.5725ZM49.7416 11.895L47.368 18.4404H46.0044L43.6266 11.895H44.9945L46.6521 16.9319H46.7203L48.3737 11.895H49.7416ZM53.5374 18.5725C52.8925 18.5725 52.3371 18.4347 51.8712 18.1592C51.4082 17.8808 51.0502 17.4901 50.7974 16.9873C50.5474 16.4816 50.4224 15.8893 50.4224 15.2103C50.4224 14.5399 50.5474 13.949 50.7974 13.4376C51.0502 12.9262 51.4025 12.5271 51.8542 12.2401C52.3087 11.9532 52.84 11.8097 53.4479 11.8097C53.8172 11.8097 54.1752 11.8708 54.5218 11.993C54.8684 12.1151 55.1795 12.3069 55.455 12.5683C55.7306 12.8296 55.9479 13.1691 56.107 13.5867C56.2661 14.0015 56.3457 14.5058 56.3457 15.0995V15.5512H51.1425V14.5967H55.0971C55.0971 14.2615 55.0289 13.9646 54.8925 13.7061C54.7562 13.4447 54.5644 13.2387 54.3172 13.0882C54.0729 12.9376 53.786 12.8623 53.4565 12.8623C53.0985 12.8623 52.786 12.9504 52.519 13.1265C52.2547 13.2998 52.0502 13.5271 51.9053 13.8083C51.7633 14.0867 51.6922 14.3893 51.6922 14.716V15.4617C51.6922 15.8992 51.769 16.2714 51.9224 16.5782C52.0786 16.885 52.2959 17.1194 52.5744 17.2813C52.8528 17.4404 53.178 17.52 53.5502 17.52C53.7917 17.52 54.0119 17.4859 54.2107 17.4177C54.4096 17.3467 54.5815 17.2416 54.7263 17.1024C54.8712 16.9632 54.982 16.7913 55.0587 16.5867L56.2647 16.8041C56.1681 17.1592 55.9948 17.4703 55.7448 17.7373C55.4976 18.0015 55.1866 18.2075 54.8116 18.3552C54.4394 18.5001 54.0147 18.5725 53.5374 18.5725ZM59.0335 9.71316V18.4404H57.7594V9.71316H59.0335Z" fill="#DB0000"/>
<path d="M70.8604 12.6138L74.5139 16.2674L78.1675 12.6138" stroke="#DB0000" stroke-width="1.2515" stroke-linecap="round"/>
</svg>
