<svg width="11" height="11" viewBox="0 0 11 11" fill="none" xmlns="http://www.w3.org/2000/svg">
<mask id="mask0_947_2137" style="mask-type:luminance" maskUnits="userSpaceOnUse" x="0" y="0" width="11" height="11">
<path d="M0 0H10.6753V10.688H0V0Z" fill="white"/>
</mask>
<g mask="url(#mask0_947_2137)">
<path fill-rule="evenodd" clip-rule="evenodd" d="M6.88909 7.83758L9.51431 10.462C9.77419 10.7217 10.1963 10.7217 10.4561 10.4617C10.716 10.2017 10.7159 9.77963 10.456 9.51976L7.83255 6.89725C8.3603 6.17939 8.67235 5.29298 8.67235 4.33422C8.67235 1.94205 6.73029 0 4.33813 0C1.94596 0 0.00390625 1.94205 0.00390625 4.33422C0.00390625 6.72625 1.94596 8.6683 4.33813 8.6683C5.29133 8.6683 6.17314 8.36005 6.88909 7.83758ZM4.33813 1.33205C5.99496 1.33205 7.34029 2.67725 7.34029 4.33422C7.34029 5.99105 5.99496 7.33625 4.33813 7.33625C2.68116 7.33625 1.33609 5.99105 1.33609 4.33422C1.33609 2.67725 2.68116 1.33205 4.33813 1.33205Z" fill="#9C9C9C"/>
</g>
</svg>
