<svg width="100" height="29" viewBox="0 0 100 29" fill="none" xmlns="http://www.w3.org/2000/svg">
<rect width="99.1575" height="28.8808" rx="4.81347" fill="#F6F6F6"/>
<path d="M14.0674 8.24121C14.0669 8.24121 14.0666 8.24121 14.0662 8.24121C13.6899 8.24121 13.3047 8.50225 13.296 9.00176V18.2119L12.6176 17.6691C12.2225 17.3636 11.7768 17.5023 11.5406 17.7976C11.3046 18.0922 11.2674 18.557 11.6524 18.8756L11.6855 18.8997C11.7409 18.9421 11.8988 19.0703 12.104 19.2367C13.5227 20.3866 13.776 20.586 13.9124 20.5742C13.9613 20.5852 14.0114 20.5905 14.0624 20.5905C14.2276 20.5905 14.399 20.5334 14.5511 20.4225L16.4822 18.8775C16.8145 18.6116 16.8688 18.1243 16.6028 17.7917C16.3368 17.4594 15.8502 17.4048 15.517 17.6709L14.8411 18.2119V9.00222C14.8337 8.50334 14.4463 8.24167 14.0674 8.24121Z" fill="#9C9C9C"/>
<mask id="mask0_947_2055" style="mask-type:luminance" maskUnits="userSpaceOnUse" x="16" y="9" width="8" height="3">
<path d="M16.0239 9.77002H23.7238V11.3536H16.0239V9.77002Z" fill="white"/>
</mask>
<g mask="url(#mask0_947_2055)">
<path d="M22.9512 9.77783H16.8198C16.3939 9.77783 16.0474 10.1244 16.0474 10.5503C16.0474 10.9763 16.3939 11.3229 16.8198 11.3229H22.9512C23.3771 11.3229 23.7235 10.9763 23.7235 10.5503C23.7235 10.1244 23.3771 9.77783 22.9512 9.77783Z" fill="#9C9C9C"/>
</g>
<mask id="mask1_947_2055" style="mask-type:luminance" maskUnits="userSpaceOnUse" x="17" y="12" width="7" height="2">
<path d="M17.0542 12.3428H23.7247V13.9263H17.0542V12.3428Z" fill="white"/>
</mask>
<g mask="url(#mask1_947_2055)">
<path d="M22.9511 12.3525H17.8416C17.4157 12.3525 17.0693 12.6991 17.0693 13.1252C17.0693 13.551 17.4157 13.8976 17.8416 13.8976H22.9511C23.377 13.8976 23.7234 13.551 23.7234 13.1252C23.7234 12.6991 23.377 12.3525 22.9511 12.3525Z" fill="#9C9C9C"/>
</g>
<mask id="mask2_947_2055" style="mask-type:luminance" maskUnits="userSpaceOnUse" x="18" y="14" width="6" height="3">
<path d="M18.084 14.916H23.7252V16.4996H18.084V14.916Z" fill="white"/>
</mask>
<g mask="url(#mask2_947_2055)">
<path d="M22.9519 14.9268H18.8641C18.4382 14.9268 18.0918 15.2733 18.0918 15.6994C18.0918 16.1253 18.4382 16.4718 18.8641 16.4718H22.9519C23.3778 16.4718 23.7242 16.1253 23.7242 15.6994C23.7242 15.2733 23.3778 14.9268 22.9519 14.9268Z" fill="#9C9C9C"/>
</g>
<mask id="mask3_947_2055" style="mask-type:luminance" maskUnits="userSpaceOnUse" x="19" y="17" width="5" height="3">
<path d="M19.1113 17.4893H23.7232V19.0728H19.1113V17.4893Z" fill="white"/>
</mask>
<g mask="url(#mask3_947_2055)">
<path d="M22.9506 17.501H19.8849C19.4589 17.501 19.1123 17.8475 19.1123 18.2734C19.1123 18.6993 19.4589 19.0459 19.8849 19.0459H22.9506C23.3765 19.0459 23.7229 18.6993 23.7229 18.2734C23.7229 17.8475 23.3765 17.501 22.9506 17.501Z" fill="#9C9C9C"/>
</g>
<path d="M32.4575 12.205C32.4121 11.8016 32.2246 11.4891 31.895 11.2675C31.5655 11.0431 31.1507 10.9308 30.6507 10.9308C30.2927 10.9308 29.9831 10.9877 29.7217 11.1013C29.4604 11.2121 29.2572 11.3655 29.1123 11.5615C28.9703 11.7547 28.8993 11.9749 28.8993 12.222C28.8993 12.4294 28.9476 12.6084 29.0442 12.759C29.1436 12.9095 29.2729 13.036 29.432 13.1382C29.5939 13.2377 29.7672 13.3215 29.9518 13.3896C30.1365 13.455 30.3141 13.509 30.4845 13.5516L31.3368 13.7732C31.6152 13.8414 31.9007 13.9337 32.1933 14.0502C32.4859 14.1666 32.7572 14.32 33.0072 14.5104C33.2572 14.7007 33.4589 14.9365 33.6123 15.2178C33.7686 15.499 33.8467 15.8357 33.8467 16.2277C33.8467 16.722 33.7189 17.161 33.4632 17.5445C33.2104 17.928 32.8425 18.2306 32.3595 18.4521C31.8794 18.6737 31.2984 18.7845 30.6166 18.7845C29.9632 18.7845 29.3979 18.6808 28.9206 18.4735C28.4433 18.2661 28.0697 17.972 27.7998 17.5914C27.53 17.2078 27.3808 16.7533 27.3524 16.2277H28.6734C28.699 16.5431 28.8013 16.8058 28.9802 17.0161C29.1621 17.2235 29.3936 17.3783 29.6748 17.4806C29.9589 17.58 30.27 17.6297 30.6081 17.6297C30.9802 17.6297 31.3112 17.5715 31.601 17.455C31.8936 17.3357 32.1237 17.1709 32.2913 16.9607C32.4589 16.7476 32.5427 16.499 32.5427 16.2149C32.5427 15.9564 32.4689 15.7448 32.3212 15.58C32.1763 15.4152 31.9788 15.2789 31.7288 15.1709C31.4817 15.0629 31.2018 14.9678 30.8893 14.8854L29.8581 14.6041C29.1592 14.4138 28.6052 14.134 28.1962 13.7646C27.7899 13.3953 27.5868 12.9067 27.5868 12.2987C27.5868 11.7959 27.7231 11.357 27.9959 10.982C28.2686 10.607 28.6379 10.3158 29.1038 10.1084C29.5697 9.89817 30.0953 9.79306 30.6805 9.79306C31.2714 9.79306 31.7927 9.89675 32.2445 10.1041C32.699 10.3115 33.057 10.597 33.3183 10.9607C33.5797 11.3215 33.716 11.7362 33.7274 12.205H32.4575ZM38.0751 18.7718C37.4614 18.7718 36.9259 18.6311 36.4685 18.3499C36.0111 18.0686 35.656 17.6752 35.4032 17.1695C35.1503 16.6638 35.0239 16.0729 35.0239 15.3968C35.0239 14.7178 35.1503 14.124 35.4032 13.6155C35.656 13.107 36.0111 12.7121 36.4685 12.4308C36.9259 12.1496 37.4614 12.009 38.0751 12.009C38.6887 12.009 39.2242 12.1496 39.6816 12.4308C40.139 12.7121 40.4941 13.107 40.7469 13.6155C40.9998 14.124 41.1262 14.7178 41.1262 15.3968C41.1262 16.0729 40.9998 16.6638 40.7469 17.1695C40.4941 17.6752 40.139 18.0686 39.6816 18.3499C39.2242 18.6311 38.6887 18.7718 38.0751 18.7718ZM38.0793 17.7021C38.4771 17.7021 38.8066 17.597 39.068 17.3868C39.3293 17.1766 39.5225 16.8968 39.6475 16.5473C39.7753 16.1979 39.8393 15.8129 39.8393 15.3925C39.8393 14.9749 39.7753 14.5914 39.6475 14.2419C39.5225 13.8896 39.3293 13.607 39.068 13.3939C38.8066 13.1808 38.4771 13.0743 38.0793 13.0743C37.6788 13.0743 37.3464 13.1808 37.0822 13.3939C36.8208 13.607 36.6262 13.8896 36.4984 14.2419C36.3734 14.5914 36.3109 14.9749 36.3109 15.3925C36.3109 15.8129 36.3734 16.1979 36.4984 16.5473C36.6262 16.8968 36.8208 17.1766 37.0822 17.3868C37.3464 17.597 37.6788 17.7021 38.0793 17.7021ZM42.5484 18.6396V12.0942H43.78V13.134H43.8481C43.9675 12.7817 44.1777 12.5047 44.4788 12.303C44.7828 12.0985 45.1266 11.9962 45.5101 11.9962C45.5896 11.9962 45.6834 11.999 45.7913 12.0047C45.9021 12.0104 45.9888 12.0175 46.0513 12.026V13.2448C46.0001 13.2306 45.9092 13.2149 45.7785 13.1979C45.6479 13.178 45.5172 13.1681 45.3865 13.1681C45.0854 13.1681 44.8169 13.232 44.5811 13.3598C44.3481 13.4848 44.1635 13.6595 44.0271 13.884C43.8908 14.1056 43.8226 14.3584 43.8226 14.6425V18.6396H42.5484ZM50.596 12.0942V13.1169H47.0207V12.0942H50.596ZM47.9795 10.526H49.2537V16.7178C49.2537 16.9649 49.2906 17.151 49.3645 17.276C49.4383 17.3982 49.5335 17.482 49.65 17.5274C49.7693 17.57 49.8986 17.5914 50.0378 17.5914C50.14 17.5914 50.2295 17.5843 50.3062 17.57C50.3829 17.5558 50.4426 17.5445 50.4852 17.536L50.7153 18.5885C50.6415 18.6169 50.5364 18.6453 50.4 18.6737C50.2636 18.705 50.0932 18.722 49.8886 18.7249C49.5534 18.7306 49.2409 18.6709 48.9511 18.5459C48.6614 18.4209 48.427 18.2277 48.248 17.9664C48.069 17.705 47.9795 17.3769 47.9795 16.982V10.526ZM55.2835 18.6396V9.91238H56.5577V13.1553H56.6344C56.7082 13.0189 56.8148 12.8612 56.954 12.6823C57.0932 12.5033 57.2864 12.347 57.5335 12.2135C57.7807 12.0771 58.1074 12.009 58.5136 12.009C59.042 12.009 59.5136 12.1425 59.9284 12.4095C60.3432 12.6766 60.6685 13.0615 60.9043 13.5644C61.1429 14.0672 61.2622 14.6723 61.2622 15.3797C61.2622 16.0871 61.1443 16.6936 60.9085 17.1993C60.6727 17.7021 60.3489 18.0899 59.9369 18.3627C59.525 18.6325 59.0548 18.7675 58.5264 18.7675C58.1287 18.7675 57.8034 18.7007 57.5506 18.5672C57.3006 18.4337 57.1045 18.2774 56.9625 18.0985C56.8204 17.9195 56.7111 17.7604 56.6344 17.6212H56.5278V18.6396H55.2835ZM56.5321 15.3669C56.5321 15.8271 56.5989 16.2306 56.7324 16.5771C56.8659 16.9237 57.0591 17.195 57.3119 17.3911C57.5648 17.5843 57.8744 17.6808 58.2409 17.6808C58.6216 17.6808 58.9398 17.58 59.1954 17.3783C59.4511 17.1737 59.6443 16.8968 59.775 16.5473C59.9085 16.1979 59.9753 15.8044 59.9753 15.3669C59.9753 14.9351 59.9099 14.5473 59.7793 14.2036C59.6514 13.8598 59.4582 13.5885 59.1997 13.3896C58.944 13.1908 58.6244 13.0914 58.2409 13.0914C57.8716 13.0914 57.5591 13.1865 57.3034 13.3769C57.0506 13.5672 56.8588 13.8328 56.7281 14.1737C56.5974 14.5146 56.5321 14.9124 56.5321 15.3669ZM63.2757 21.0942C63.0854 21.0942 62.9121 21.0786 62.7558 21.0473C62.5996 21.0189 62.4831 20.9877 62.4064 20.9536L62.7132 19.9095C62.9462 19.972 63.1535 19.999 63.3354 19.9905C63.5172 19.982 63.6777 19.9138 63.8169 19.786C63.9589 19.6581 64.0839 19.4493 64.1919 19.1595L64.3496 18.7249L61.9547 12.0942H63.3183L64.976 17.1737H65.0442L66.7018 12.0942H68.0697L65.3723 19.5132C65.2473 19.8541 65.0882 20.1425 64.895 20.3783C64.7018 20.6169 64.4717 20.7959 64.2047 20.9152C63.9376 21.0345 63.628 21.0942 63.2757 21.0942Z" fill="#9C9C9C"/>
<path d="M80.4873 12.6138L84.1409 16.2674L87.7945 12.6138" stroke="#9C9C9C" stroke-width="1.2515" stroke-linecap="round"/>
</svg>
