<svg width="103" height="29" viewBox="0 0 103 29" fill="none" xmlns="http://www.w3.org/2000/svg">
<rect x="0.481347" y="0.481347" width="101.083" height="27.9181" rx="4.33212" fill="#F6F6F6"/>
<rect x="0.481347" y="0.481347" width="101.083" height="27.9181" rx="4.33212" stroke="#DB0000" stroke-width="0.962694"/>
<circle cx="16.6058" cy="12.012" r="3.49442" fill="#DB0000"/>
<path d="M20.4761 15.0923C21.1166 15.0923 21.6477 15.5899 21.689 16.229L21.8423 18.6245C21.8871 19.3255 21.3299 19.9181 20.6274 19.9165L12.5747 19.8989C11.8776 19.8974 11.3248 19.3098 11.3647 18.6138L11.5015 16.2378C11.5384 15.5952 12.0697 15.0925 12.7134 15.0923H13.1646C14.0852 15.8939 15.2874 16.3803 16.604 16.3804C17.9205 16.3804 19.1228 15.8939 20.0435 15.0923H20.4761Z" fill="#DB0000"/>
<path d="M30.7891 12.0058C30.7436 11.6024 30.5561 11.2899 30.2266 11.0683C29.897 10.8438 29.4822 10.7316 28.9822 10.7316C28.6243 10.7316 28.3146 10.7884 28.0533 10.9021C27.7919 11.0129 27.5888 11.1663 27.4439 11.3623C27.3018 11.5555 27.2308 11.7757 27.2308 12.0228C27.2308 12.2302 27.2791 12.4092 27.3757 12.5597C27.4751 12.7103 27.6044 12.8367 27.7635 12.939C27.9254 13.0384 28.0987 13.1222 28.2834 13.1904C28.468 13.2558 28.6456 13.3097 28.8161 13.3524L29.6683 13.574C29.9467 13.6421 30.2322 13.7345 30.5249 13.8509C30.8175 13.9674 31.0888 14.1208 31.3388 14.3112C31.5888 14.5015 31.7905 14.7373 31.9439 15.0186C32.1001 15.2998 32.1783 15.6365 32.1783 16.0285C32.1783 16.5228 32.0504 16.9617 31.7947 17.3453C31.5419 17.7288 31.174 18.0313 30.6911 18.2529C30.2109 18.4745 29.63 18.5853 28.9482 18.5853C28.2947 18.5853 27.7294 18.4816 27.2521 18.2742C26.7749 18.0669 26.4013 17.7728 26.1314 17.3921C25.8615 17.0086 25.7124 16.5541 25.6839 16.0285H27.005C27.0305 16.3438 27.1328 16.6066 27.3118 16.8169C27.4936 17.0242 27.7251 17.1791 28.0064 17.2813C28.2905 17.3808 28.6016 17.4305 28.9396 17.4305C29.3118 17.4305 29.6428 17.3722 29.9325 17.2558C30.2251 17.1365 30.4553 16.9717 30.6229 16.7615C30.7905 16.5484 30.8743 16.2998 30.8743 16.0157C30.8743 15.7572 30.8004 15.5455 30.6527 15.3808C30.5078 15.216 30.3104 15.0796 30.0604 14.9717C29.8132 14.8637 29.5334 14.7686 29.2209 14.6862L28.1896 14.4049C27.4908 14.2146 26.9368 13.9347 26.5277 13.5654C26.1214 13.1961 25.9183 12.7075 25.9183 12.0995C25.9183 11.5967 26.0547 11.1578 26.3274 10.7828C26.6001 10.4078 26.9695 10.1166 27.4354 9.90918C27.9013 9.69895 28.4268 9.59384 29.0121 9.59384C29.603 9.59384 30.1243 9.69753 30.576 9.90492C31.0305 10.1123 31.3885 10.3978 31.6499 10.7615C31.9112 11.1222 32.0476 11.537 32.0589 12.0058H30.7891ZM33.6495 20.895V11.895H34.8938V12.9561H35.0004C35.0742 12.8197 35.1808 12.662 35.32 12.483C35.4592 12.3041 35.6523 12.1478 35.8995 12.0143C36.1467 11.8779 36.4734 11.8097 36.8796 11.8097C37.408 11.8097 37.8796 11.9433 38.2944 12.2103C38.7092 12.4774 39.0344 12.8623 39.2702 13.3651C39.5089 13.868 39.6282 14.4731 39.6282 15.1805C39.6282 15.8879 39.5103 16.4944 39.2745 17.0001C39.0387 17.5029 38.7148 17.8907 38.3029 18.1634C37.891 18.4333 37.4208 18.5683 36.8924 18.5683C36.4947 18.5683 36.1694 18.5015 35.9165 18.368C35.6665 18.2345 35.4705 18.0782 35.3285 17.8992C35.1864 17.7203 35.0771 17.5612 35.0004 17.422H34.9237V20.895H33.6495ZM34.8981 15.1677C34.8981 15.6279 34.9648 16.0313 35.0984 16.3779C35.2319 16.7245 35.4251 16.9958 35.6779 17.1919C35.9308 17.385 36.2404 17.4816 36.6069 17.4816C36.9876 17.4816 37.3058 17.3808 37.5614 17.1791C37.8171 16.9745 38.0103 16.6975 38.141 16.3481C38.2745 15.9987 38.3413 15.6052 38.3413 15.1677C38.3413 14.7359 38.2759 14.3481 38.1452 14.0043C38.0174 13.6606 37.8242 13.3893 37.5657 13.1904C37.31 12.9916 36.9904 12.8921 36.6069 12.8921C36.2376 12.8921 35.9251 12.9873 35.6694 13.1776C35.4165 13.368 35.2248 13.6336 35.0941 13.9745C34.9634 14.3154 34.8981 14.7132 34.8981 15.1677ZM43.8768 18.5725C43.2319 18.5725 42.6765 18.4347 42.2106 18.1592C41.7475 17.8808 41.3896 17.4901 41.1367 16.9873C40.8867 16.4816 40.7617 15.8893 40.7617 15.2103C40.7617 14.5399 40.8867 13.949 41.1367 13.4376C41.3896 12.9262 41.7418 12.5271 42.1935 12.2401C42.6481 11.9532 43.1793 11.8097 43.7873 11.8097C44.1566 11.8097 44.5146 11.8708 44.8612 11.993C45.2077 12.1151 45.5188 12.3069 45.7944 12.5683C46.07 12.8296 46.2873 13.1691 46.4464 13.5867C46.6055 14.0015 46.685 14.5058 46.685 15.0995V15.5512H41.4819V14.5967H45.4364C45.4364 14.2615 45.3683 13.9646 45.2319 13.7061C45.0955 13.4447 44.9038 13.2387 44.6566 13.0882C44.4123 12.9376 44.1254 12.8623 43.7958 12.8623C43.4379 12.8623 43.1254 12.9504 42.8583 13.1265C42.5941 13.2998 42.3896 13.5271 42.2447 13.8083C42.1026 14.0867 42.0316 14.3893 42.0316 14.716V15.4617C42.0316 15.8992 42.1083 16.2714 42.2617 16.5782C42.418 16.885 42.6353 17.1194 42.9137 17.2813C43.1921 17.4404 43.5174 17.52 43.8896 17.52C44.131 17.52 44.3512 17.4859 44.5501 17.4177C44.7489 17.3467 44.9208 17.2416 45.0657 17.1024C45.2106 16.9632 45.3214 16.7913 45.3981 16.5867L46.604 16.8041C46.5075 17.1592 46.3342 17.4703 46.0842 17.7373C45.837 18.0015 45.5259 18.2075 45.1509 18.3552C44.7788 18.5001 44.354 18.5725 43.8768 18.5725ZM50.0036 18.5853C49.5888 18.5853 49.2138 18.5086 48.8786 18.3552C48.5433 18.199 48.2777 17.9731 48.0817 17.6776C47.8885 17.3822 47.7919 17.02 47.7919 16.591C47.7919 16.2217 47.8629 15.9177 48.005 15.6791C48.147 15.4404 48.3388 15.2515 48.5803 15.1123C48.8217 14.9731 49.0916 14.868 49.3899 14.797C49.6882 14.7259 49.9922 14.672 50.3018 14.635C50.6939 14.5896 51.0121 14.5526 51.2564 14.5242C51.5007 14.493 51.6783 14.4433 51.7891 14.3751C51.8999 14.3069 51.9553 14.1961 51.9553 14.0427V14.0129C51.9553 13.6407 51.8501 13.3524 51.6399 13.1478C51.4325 12.9433 51.1229 12.841 50.7109 12.841C50.282 12.841 49.9439 12.9362 49.6967 13.1265C49.4524 13.314 49.2834 13.5228 49.1896 13.7529L47.9922 13.4802C48.1342 13.0825 48.3416 12.7615 48.6143 12.5171C48.8899 12.27 49.2067 12.091 49.5646 11.9802C49.9226 11.8666 50.299 11.8097 50.6939 11.8097C50.9553 11.8097 51.2322 11.841 51.5249 11.9035C51.8203 11.9632 52.0959 12.074 52.3516 12.2359C52.6101 12.3978 52.8217 12.6293 52.9865 12.9305C53.1513 13.2288 53.2337 13.6166 53.2337 14.0938V18.4404H51.9893V17.5455H51.9382C51.8558 17.7103 51.7322 17.8722 51.5675 18.0313C51.4027 18.1904 51.1911 18.3225 50.9325 18.4276C50.674 18.5328 50.3643 18.5853 50.0036 18.5853ZM50.2805 17.5626C50.6328 17.5626 50.9339 17.493 51.1839 17.3538C51.4368 17.2146 51.6286 17.0328 51.7592 16.8083C51.8928 16.5811 51.9595 16.3382 51.9595 16.0796V15.2359C51.9141 15.2813 51.826 15.324 51.6953 15.3637C51.5675 15.4007 51.4212 15.4333 51.2564 15.4617C51.0916 15.4873 50.9311 15.5115 50.7749 15.5342C50.6186 15.5541 50.4879 15.5711 50.3828 15.5853C50.1357 15.6166 49.9098 15.6691 49.7053 15.743C49.5036 15.8169 49.3416 15.9234 49.2195 16.0626C49.1001 16.199 49.0405 16.3808 49.0405 16.608C49.0405 16.9234 49.157 17.162 49.3899 17.324C49.6229 17.483 49.9197 17.5626 50.2805 17.5626ZM56.1026 16.2203L56.0941 14.6649H56.3157L58.9237 11.895H60.4492L57.4748 15.0484H57.2745L56.1026 16.2203ZM54.9308 18.4404V9.71316H56.2049V18.4404H54.9308ZM59.0643 18.4404L56.7205 15.3296L57.5984 14.439L60.6282 18.4404H59.0643ZM64.1619 18.5725C63.517 18.5725 62.9616 18.4347 62.4957 18.1592C62.0327 17.8808 61.6747 17.4901 61.4219 16.9873C61.1719 16.4816 61.0469 15.8893 61.0469 15.2103C61.0469 14.5399 61.1719 13.949 61.4219 13.4376C61.6747 12.9262 62.027 12.5271 62.4787 12.2401C62.9332 11.9532 63.4645 11.8097 64.0724 11.8097C64.4418 11.8097 64.7997 11.8708 65.1463 11.993C65.4929 12.1151 65.804 12.3069 66.0795 12.5683C66.3551 12.8296 66.5724 13.1691 66.7315 13.5867C66.8906 14.0015 66.9702 14.5058 66.9702 15.0995V15.5512H61.767V14.5967H65.7216C65.7216 14.2615 65.6534 13.9646 65.517 13.7061C65.3807 13.4447 65.1889 13.2387 64.9418 13.0882C64.6974 12.9376 64.4105 12.8623 64.081 12.8623C63.723 12.8623 63.4105 12.9504 63.1435 13.1265C62.8793 13.2998 62.6747 13.5271 62.5298 13.8083C62.3878 14.0867 62.3168 14.3893 62.3168 14.716V15.4617C62.3168 15.8992 62.3935 16.2714 62.5469 16.5782C62.7031 16.885 62.9205 17.1194 63.1989 17.2813C63.4773 17.4404 63.8026 17.52 64.1747 17.52C64.4162 17.52 64.6364 17.4859 64.8352 17.4177C65.0341 17.3467 65.206 17.2416 65.3509 17.1024C65.4957 16.9632 65.6065 16.7913 65.6832 16.5867L66.8892 16.8041C66.7926 17.1592 66.6193 17.4703 66.3693 17.7373C66.1222 18.0015 65.8111 18.2075 65.4361 18.3552C65.0639 18.5001 64.6392 18.5725 64.1619 18.5725ZM68.3839 18.4404V11.895H69.6154V12.9347H69.6836C69.8029 12.5825 70.0131 12.3055 70.3143 12.1038C70.6183 11.8992 70.962 11.797 71.3455 11.797C71.4251 11.797 71.5188 11.7998 71.6268 11.8055C71.7376 11.8112 71.8242 11.8183 71.8867 11.8268V13.0455C71.8356 13.0313 71.7447 13.0157 71.614 12.9987C71.4833 12.9788 71.3526 12.9688 71.2219 12.9688C70.9208 12.9688 70.6523 13.0328 70.4165 13.1606C70.1836 13.2856 69.9989 13.4603 69.8626 13.6847C69.7262 13.9063 69.658 14.1592 69.658 14.4433V18.4404H68.3839Z" fill="#DB0000"/>
<path d="M83.3755 12.6138L87.0291 16.2674L90.6827 12.6138" stroke="#DB0000" stroke-width="1.2515" stroke-linecap="round"/>
</svg>
