<svg width="96" height="29" viewBox="0 0 96 29" fill="none" xmlns="http://www.w3.org/2000/svg">
<rect width="95.3067" height="28.8808" rx="4.81347" fill="#F6F6F6"/>
<mask id="mask0_947_2118" style="mask-type:luminance" maskUnits="userSpaceOnUse" x="11" y="8" width="12" height="12">
<path d="M11.3628 8.73096H22.3313V19.6995H11.3628V8.73096Z" fill="white"/>
</mask>
<g mask="url(#mask0_947_2118)">
<path d="M22.0077 13.9849L17.0746 9.05179C16.8745 8.85427 16.6003 8.73096 16.2986 8.73096H12.4596C11.8536 8.73096 11.3628 9.22173 11.3628 9.82781V13.6668C11.3628 13.9712 11.4861 14.2454 11.6864 14.4428L16.6222 19.3786C16.8196 19.576 17.0938 19.6995 17.3955 19.6995C17.6971 19.6995 17.974 19.576 18.1715 19.3786L22.0105 15.5397C22.2079 15.3395 22.3313 15.0653 22.3313 14.7636C22.3313 14.4592 22.2079 14.185 22.0077 13.9849ZM13.2823 11.4731C12.8271 11.4731 12.4596 11.1056 12.4596 10.6504C12.4596 10.1953 12.8271 9.82781 13.2823 9.82781C13.7375 9.82781 14.1049 10.1953 14.1049 10.6504C14.1049 11.1056 13.7375 11.4731 13.2823 11.4731Z" fill="#9C9C9C"/>
</g>
<path d="M25.8424 10.8467V9.71316H32.5966V10.8467H29.8736V18.4404H28.5611V10.8467H25.8424ZM35.7948 18.5725C35.1812 18.5725 34.6456 18.4319 34.1883 18.1507C33.7309 17.8694 33.3758 17.4759 33.1229 16.9703C32.8701 16.4646 32.7437 15.8737 32.7437 15.1975C32.7437 14.5186 32.8701 13.9248 33.1229 13.4163C33.3758 12.9078 33.7309 12.5129 34.1883 12.2316C34.6456 11.9504 35.1812 11.8097 35.7948 11.8097C36.4084 11.8097 36.9439 11.9504 37.4013 12.2316C37.8587 12.5129 38.2138 12.9078 38.4667 13.4163C38.7195 13.9248 38.8459 14.5186 38.8459 15.1975C38.8459 15.8737 38.7195 16.4646 38.4667 16.9703C38.2138 17.4759 37.8587 17.8694 37.4013 18.1507C36.9439 18.4319 36.4084 18.5725 35.7948 18.5725ZM35.7991 17.5029C36.1968 17.5029 36.5263 17.3978 36.7877 17.1876C37.0491 16.9774 37.2422 16.6975 37.3672 16.3481C37.4951 15.9987 37.559 15.6137 37.559 15.1933C37.559 14.7757 37.4951 14.3921 37.3672 14.0427C37.2422 13.6904 37.0491 13.4078 36.7877 13.1947C36.5263 12.9816 36.1968 12.8751 35.7991 12.8751C35.3985 12.8751 35.0661 12.9816 34.8019 13.1947C34.5405 13.4078 34.3459 13.6904 34.2181 14.0427C34.0931 14.3921 34.0306 14.7757 34.0306 15.1933C34.0306 15.6137 34.0931 15.9987 34.2181 16.3481C34.3459 16.6975 34.5405 16.9774 34.8019 17.1876C35.0661 17.3978 35.3985 17.5029 35.7991 17.5029ZM40.2682 20.895V11.895H41.5125V12.9561H41.619C41.6929 12.8197 41.7994 12.662 41.9386 12.483C42.0778 12.3041 42.271 12.1478 42.5182 12.0143C42.7653 11.8779 43.092 11.8097 43.4983 11.8097C44.0267 11.8097 44.4983 11.9433 44.913 12.2103C45.3278 12.4774 45.6531 12.8623 45.8889 13.3651C46.1275 13.868 46.2468 14.4731 46.2468 15.1805C46.2468 15.8879 46.129 16.4944 45.8932 17.0001C45.6574 17.5029 45.3335 17.8907 44.9216 18.1634C44.5096 18.4333 44.0395 18.5683 43.5111 18.5683C43.1133 18.5683 42.788 18.5015 42.5352 18.368C42.2852 18.2345 42.0892 18.0782 41.9471 17.8992C41.8051 17.7203 41.6957 17.5612 41.619 17.422H41.5423V20.895H40.2682ZM41.5167 15.1677C41.5167 15.6279 41.5835 16.0313 41.717 16.3779C41.8505 16.7245 42.0437 16.9958 42.2966 17.1919C42.5494 17.385 42.8591 17.4816 43.2255 17.4816C43.6062 17.4816 43.9244 17.3808 44.1801 17.1791C44.4358 16.9745 44.629 16.6975 44.7596 16.3481C44.8932 15.9987 44.9599 15.6052 44.9599 15.1677C44.9599 14.7359 44.8946 14.3481 44.7639 14.0043C44.6361 13.6606 44.4429 13.3893 44.1843 13.1904C43.9287 12.9916 43.6091 12.8921 43.2255 12.8921C42.8562 12.8921 42.5437 12.9873 42.288 13.1776C42.0352 13.368 41.8434 13.6336 41.7128 13.9745C41.5821 14.3154 41.5167 14.7132 41.5167 15.1677ZM47.6744 18.4404V11.895H48.9486V18.4404H47.6744ZM48.3179 10.885C48.0963 10.885 47.9059 10.8112 47.7468 10.6634C47.5906 10.5129 47.5125 10.3339 47.5125 10.1265C47.5125 9.91628 47.5906 9.7373 47.7468 9.58958C47.9059 9.43901 48.0963 9.36372 48.3179 9.36372C48.5395 9.36372 48.7284 9.43901 48.8846 9.58958C49.0437 9.7373 49.1233 9.91628 49.1233 10.1265C49.1233 10.3339 49.0437 10.5129 48.8846 10.6634C48.7284 10.8112 48.5395 10.885 48.3179 10.885ZM53.4198 18.5725C52.7863 18.5725 52.2408 18.4291 51.7834 18.1421C51.3289 17.8524 50.9794 17.4532 50.7351 16.9447C50.4908 16.4362 50.3687 15.8538 50.3687 15.1975C50.3687 14.5328 50.4937 13.9461 50.7437 13.4376C50.9937 12.9262 51.3459 12.5271 51.8005 12.2401C52.255 11.9532 52.7905 11.8097 53.407 11.8097C53.9042 11.8097 54.3473 11.9021 54.7366 12.0867C55.1258 12.2686 55.4397 12.5242 55.6783 12.8538C55.9198 13.1833 56.0633 13.5683 56.1087 14.0086H54.8687C54.8005 13.7018 54.6442 13.4376 54.3999 13.216C54.1584 12.9944 53.8346 12.8836 53.4283 12.8836C53.0732 12.8836 52.7621 12.9774 52.4951 13.1649C52.2309 13.3495 52.0249 13.6137 51.8772 13.9575C51.7294 14.2984 51.6556 14.7018 51.6556 15.1677C51.6556 15.645 51.728 16.0569 51.8729 16.4035C52.0178 16.7501 52.2223 17.0186 52.4866 17.2089C52.7536 17.3992 53.0675 17.4944 53.4283 17.4944C53.6698 17.4944 53.8885 17.4504 54.0846 17.3623C54.2834 17.2714 54.4496 17.1421 54.5831 16.9745C54.7195 16.8069 54.8147 16.6052 54.8687 16.3694H56.1087C56.0633 16.7927 55.9255 17.1705 55.6954 17.5029C55.4652 17.8353 55.157 18.0967 54.7706 18.287C54.3871 18.4774 53.9368 18.5725 53.4198 18.5725ZM62.3761 13.493L61.2213 13.6975C61.173 13.5498 61.0963 13.4092 60.9912 13.2757C60.8889 13.1421 60.7497 13.0328 60.5736 12.9475C60.3974 12.8623 60.1772 12.8197 59.913 12.8197C59.5522 12.8197 59.2511 12.9007 59.0096 13.0626C58.7682 13.2217 58.6474 13.4276 58.6474 13.6805C58.6474 13.8992 58.7284 14.0754 58.8903 14.2089C59.0522 14.3424 59.3136 14.4518 59.6744 14.537L60.7142 14.7757C61.3165 14.9149 61.7653 15.1294 62.0608 15.4191C62.3562 15.7089 62.504 16.0853 62.504 16.5484C62.504 16.9404 62.3903 17.2899 62.163 17.5967C61.9386 17.9007 61.6247 18.1393 61.2213 18.3126C60.8207 18.4859 60.3562 18.5725 59.8278 18.5725C59.0949 18.5725 58.4968 18.4163 58.0338 18.1038C57.5707 17.7884 57.2866 17.341 57.1815 16.7615L58.413 16.574C58.4897 16.895 58.6474 17.1379 58.8861 17.3026C59.1247 17.4646 59.4358 17.5455 59.8193 17.5455C60.2369 17.5455 60.5707 17.4589 60.8207 17.2856C61.0707 17.1095 61.1957 16.895 61.1957 16.6421C61.1957 16.4376 61.119 16.2657 60.9656 16.1265C60.815 15.9873 60.5835 15.8822 60.271 15.8112L59.163 15.5683C58.5522 15.4291 58.1005 15.2075 57.8079 14.9035C57.5182 14.5995 57.3733 14.2146 57.3733 13.7487C57.3733 13.3623 57.4812 13.0242 57.6971 12.7345C57.913 12.4447 58.2113 12.2188 58.592 12.0569C58.9727 11.8921 59.4088 11.8097 59.9003 11.8097C60.6076 11.8097 61.1645 11.9632 61.5707 12.27C61.977 12.574 62.2454 12.9816 62.3761 13.493Z" fill="#9C9C9C"/>
<path d="M76.6367 12.6138L80.2903 16.2674L83.9439 12.6138" stroke="#9C9C9C" stroke-width="1.2515" stroke-linecap="round"/>
</svg>
