<svg width="453" height="43" viewBox="0 0 453 43" fill="none" xmlns="http://www.w3.org/2000/svg">
<rect width="453" height="43" rx="10" fill="#FDF0F0"/>
<path d="M191.489 28.5V13.9545H194.124V26.2912H200.531V28.5H191.489ZM207.462 28.7131C206.397 28.7131 205.474 28.4787 204.692 28.0099C203.911 27.5412 203.305 26.8854 202.874 26.0426C202.448 25.1998 202.235 24.215 202.235 23.0881C202.235 21.9612 202.448 20.974 202.874 20.1264C203.305 19.2789 203.911 18.6207 204.692 18.152C205.474 17.6832 206.397 17.4489 207.462 17.4489C208.528 17.4489 209.451 17.6832 210.232 18.152C211.013 18.6207 211.617 19.2789 212.043 20.1264C212.474 20.974 212.69 21.9612 212.69 23.0881C212.69 24.215 212.474 25.1998 212.043 26.0426C211.617 26.8854 211.013 27.5412 210.232 28.0099C209.451 28.4787 208.528 28.7131 207.462 28.7131ZM207.477 26.6534C208.054 26.6534 208.537 26.4948 208.925 26.1776C209.314 25.8556 209.603 25.4247 209.792 24.8849C209.986 24.3452 210.083 23.7438 210.083 23.081C210.083 22.4134 209.986 21.8097 209.792 21.2699C209.603 20.7254 209.314 20.2921 208.925 19.9702C208.537 19.6482 208.054 19.4872 207.477 19.4872C206.885 19.4872 206.392 19.6482 205.999 19.9702C205.611 20.2921 205.32 20.7254 205.126 21.2699C204.936 21.8097 204.842 22.4134 204.842 23.081C204.842 23.7438 204.936 24.3452 205.126 24.8849C205.32 25.4247 205.611 25.8556 205.999 26.1776C206.392 26.4948 206.885 26.6534 207.477 26.6534ZM219.616 32.8182C218.693 32.8182 217.9 32.6927 217.237 32.4418C216.574 32.1955 216.041 31.8641 215.639 31.4474C215.236 31.0308 214.957 30.5691 214.801 30.0625L217.116 29.5014C217.22 29.7145 217.372 29.9252 217.571 30.1335C217.77 30.3466 218.037 30.5218 218.373 30.6591C218.714 30.8011 219.143 30.8722 219.659 30.8722C220.388 30.8722 220.992 30.6946 221.47 30.3395C221.948 29.9891 222.187 29.4115 222.187 28.6065V26.5398H222.059C221.927 26.8049 221.733 27.0772 221.477 27.3565C221.226 27.6359 220.892 27.8703 220.475 28.0597C220.064 28.2491 219.545 28.3438 218.92 28.3438C218.082 28.3438 217.322 28.1473 216.64 27.7543C215.963 27.3565 215.423 26.7647 215.021 25.9787C214.623 25.188 214.424 24.1984 214.424 23.0099C214.424 21.812 214.623 20.8011 215.021 19.9773C215.423 19.1487 215.966 18.5213 216.647 18.0952C217.329 17.6643 218.089 17.4489 218.927 17.4489C219.566 17.4489 220.092 17.5578 220.504 17.7756C220.921 17.9886 221.252 18.2467 221.498 18.5497C221.744 18.848 221.931 19.1297 222.059 19.3949H222.201V17.5909H224.737V28.6776C224.737 29.6103 224.514 30.3821 224.069 30.9929C223.624 31.6037 223.016 32.0606 222.244 32.3636C221.472 32.6667 220.596 32.8182 219.616 32.8182ZM219.637 26.3267C220.182 26.3267 220.646 26.1941 221.029 25.929C221.413 25.6638 221.704 25.2827 221.903 24.7855C222.102 24.2884 222.201 23.6918 222.201 22.9957C222.201 22.3092 222.102 21.7079 221.903 21.1918C221.709 20.6757 221.42 20.2756 221.037 19.9915C220.658 19.7027 220.191 19.5582 219.637 19.5582C219.065 19.5582 218.586 19.7074 218.203 20.0057C217.819 20.304 217.53 20.7135 217.336 21.2344C217.142 21.7505 217.045 22.3376 217.045 22.9957C217.045 23.6634 217.142 24.2481 217.336 24.75C217.535 25.2472 217.826 25.6354 218.21 25.9148C218.598 26.1894 219.074 26.3267 219.637 26.3267ZM237.091 28.7131C236.026 28.7131 235.103 28.4787 234.321 28.0099C233.54 27.5412 232.934 26.8854 232.503 26.0426C232.077 25.1998 231.864 24.215 231.864 23.0881C231.864 21.9612 232.077 20.974 232.503 20.1264C232.934 19.2789 233.54 18.6207 234.321 18.152C235.103 17.6832 236.026 17.4489 237.091 17.4489C238.157 17.4489 239.08 17.6832 239.861 18.152C240.642 18.6207 241.246 19.2789 241.672 20.1264C242.103 20.974 242.319 21.9612 242.319 23.0881C242.319 24.215 242.103 25.1998 241.672 26.0426C241.246 26.8854 240.642 27.5412 239.861 28.0099C239.08 28.4787 238.157 28.7131 237.091 28.7131ZM237.105 26.6534C237.683 26.6534 238.166 26.4948 238.554 26.1776C238.943 25.8556 239.231 25.4247 239.421 24.8849C239.615 24.3452 239.712 23.7438 239.712 23.081C239.712 22.4134 239.615 21.8097 239.421 21.2699C239.231 20.7254 238.943 20.2921 238.554 19.9702C238.166 19.6482 237.683 19.4872 237.105 19.4872C236.514 19.4872 236.021 19.6482 235.628 19.9702C235.24 20.2921 234.949 20.7254 234.755 21.2699C234.565 21.8097 234.471 22.4134 234.471 23.081C234.471 23.7438 234.565 24.3452 234.755 24.8849C234.949 25.4247 235.24 25.8556 235.628 26.1776C236.021 26.4948 236.514 26.6534 237.105 26.6534ZM251.454 23.9119V17.5909H254.025V28.5H251.532V26.5611H251.418C251.172 27.1719 250.767 27.6714 250.204 28.0597C249.645 28.4479 248.956 28.642 248.137 28.642C247.422 28.642 246.79 28.4834 246.241 28.1662C245.696 27.8442 245.27 27.3778 244.962 26.767C244.655 26.1515 244.501 25.4081 244.501 24.5369V17.5909H247.072V24.1392C247.072 24.8305 247.261 25.3797 247.64 25.7869C248.019 26.1941 248.516 26.3977 249.131 26.3977C249.51 26.3977 249.877 26.3054 250.232 26.1207C250.587 25.9361 250.879 25.6615 251.106 25.2969C251.338 24.9276 251.454 24.4659 251.454 23.9119ZM262.116 17.5909V19.5795H255.845V17.5909H262.116ZM257.393 14.9773H259.964V25.2188C259.964 25.5644 260.016 25.8295 260.12 26.0142C260.229 26.1941 260.371 26.3172 260.547 26.3835C260.722 26.4498 260.916 26.483 261.129 26.483C261.29 26.483 261.437 26.4711 261.569 26.4474C261.707 26.4238 261.811 26.4025 261.882 26.3835L262.315 28.3935C262.178 28.4408 261.981 28.4929 261.725 28.5497C261.475 28.6065 261.167 28.6397 260.802 28.6491C260.158 28.6681 259.578 28.571 259.062 28.358C258.546 28.1402 258.136 27.804 257.833 27.3494C257.535 26.8949 257.388 26.3267 257.393 25.6449V14.9773Z" fill="#DB0000"/>
</svg>
