<svg width="119" height="28" viewBox="0 0 119 28" fill="none" xmlns="http://www.w3.org/2000/svg">
<rect width="118.426" height="28" rx="14" fill="#FDF0F0"/>
<path d="M13.5273 12.9738C13.5811 12.774 13.731 12.6047 13.923 12.5278C13.731 12.6047 13.5811 12.7701 13.5273 12.9738Z" fill="#DB0000"/>
<path d="M27.1221 20.7152C27.3143 20.6384 27.464 20.4729 27.5179 20.269C27.464 20.4691 27.3143 20.6343 27.1221 20.7152Z" fill="#DB0000"/>
<mask id="mask0_506_36140" style="mask-type:luminance" maskUnits="userSpaceOnUse" x="13" y="20" width="2" height="1">
<path d="M13.5703 20.3633H14.0855V20.857H13.5703V20.3633Z" fill="white"/>
</mask>
<g mask="url(#mask0_506_36140)">
<path d="M14.0694 20.8436C13.8505 20.7899 13.6697 20.6206 13.5967 20.4053C13.6659 20.6206 13.8464 20.7899 14.0694 20.8436Z" fill="#DB0000"/>
</g>
<mask id="mask1_506_36140" style="mask-type:luminance" maskUnits="userSpaceOnUse" x="13" y="12" width="15" height="9">
<path d="M13.4668 12.3281H27.5431V20.8593H13.4668V12.3281Z" fill="white"/>
</mask>
<g mask="url(#mask1_506_36140)">
<path d="M26.8305 12.3809H26.8152C24.2445 12.4 21.674 12.4193 19.1033 12.4384C17.455 12.4501 15.8103 12.4654 14.162 12.4769C13.8046 12.4807 13.5011 12.7808 13.5049 13.1346C13.5242 15.4919 13.5395 17.8495 13.5589 20.203C13.5627 20.5606 13.8585 20.8607 14.2119 20.8607H14.2158C15.9295 20.849 17.6394 20.8337 19.3531 20.8223L21.9391 20.8029L24.4097 20.7838L26.8804 20.7645C27.2378 20.7607 27.5413 20.4608 27.5375 20.107C27.5184 17.7494 27.5029 15.3921 27.4838 13.0384C27.4838 12.6846 27.1841 12.3809 26.8305 12.3809Z" fill="#DB0000"/>
</g>
<mask id="mask2_506_36140" style="mask-type:luminance" maskUnits="userSpaceOnUse" x="13" y="7" width="14" height="7">
<path d="M13.1299 7.13818H26.9658V13.5098H13.1299V7.13818Z" fill="white"/>
</mask>
<g mask="url(#mask2_506_36140)">
<path d="M25.6704 7.16515C24.9479 7.40344 24.2294 7.63811 23.5071 7.87278C23.5033 7.87278 23.5033 7.87278 23.4995 7.87278C20.6291 8.81487 17.7549 9.75334 14.8846 10.6916C14.7654 10.7301 14.6503 10.7685 14.5312 10.8069C14.2659 10.8955 14.0008 10.98 13.7358 11.0686C13.5398 11.134 13.3745 11.2376 13.267 11.4224C13.2439 11.4608 13.2208 11.5031 13.2055 11.5492C13.1479 11.6991 13.1324 11.8722 13.1825 12.0223C13.1902 12.0529 13.1978 12.0799 13.2093 12.1069C13.2976 12.3762 13.386 12.6452 13.4705 12.9107C13.5359 13.1067 13.6396 13.2722 13.8203 13.3798C13.9894 13.4837 14.2277 13.5298 14.4197 13.4644C17.2938 12.5261 20.168 11.5876 23.0422 10.6455C24.1449 10.2841 25.2514 9.9224 26.3543 9.56476C26.5503 9.49935 26.7156 9.3955 26.823 9.21477C26.9269 9.04572 26.973 8.80722 26.9076 8.61482C26.8116 8.31877 26.7156 8.02272 26.6156 7.72264C26.5503 7.52661 26.4465 7.36118 26.266 7.2535C26.1506 7.18427 26.0086 7.14201 25.8663 7.13818C25.8011 7.13818 25.7318 7.14583 25.6704 7.16515Z" fill="#DB0000"/>
</g>
<path d="M23.5066 7.87651C23.5028 7.87651 23.5028 7.87651 23.4989 7.88033L21.5047 8.5302C21.2625 9.48397 21.0204 10.4377 20.7783 11.3915L23.0417 10.6531L23.5412 10.4915C23.7831 9.5377 24.0252 8.58394 24.2673 7.63037L23.5066 7.87651Z" fill="#FDF0F0"/>
<path d="M26.292 9.58707L26.3536 9.56775C26.5687 9.49851 26.7225 9.38319 26.8223 9.21393C26.9338 9.02938 26.9684 8.79471 26.9068 8.61398L26.6993 7.97559C26.5649 8.51415 26.4305 9.05252 26.292 9.58707Z" fill="#FDF0F0"/>
<path d="M17.3591 9.88255L15.9489 10.344C15.7643 11.071 15.58 11.8016 15.3916 12.5285C16.0411 12.5247 16.6905 12.5168 17.3398 12.513L18.0198 12.29C18.262 11.3362 18.5041 10.3825 18.7462 9.42871L17.3591 9.88255Z" fill="#FDF0F0"/>
<path d="M19.2027 14.3062C19.1065 14.3062 19.0105 14.3331 18.926 14.3792C18.8415 14.4291 18.7684 14.4984 18.7185 14.5831C18.6915 14.6253 18.6724 14.6714 18.6609 14.7216C18.6492 14.7676 18.6416 14.8176 18.6416 14.8638V18.3595C18.6416 18.5557 18.7493 18.7403 18.9183 18.8403C19.0029 18.8902 19.0989 18.9172 19.1989 18.9172C19.2987 18.9172 19.3947 18.8902 19.4831 18.8403C20.49 18.2595 21.5005 17.675 22.5072 17.0944C22.6762 16.9982 22.7837 16.8098 22.7837 16.6136C22.7837 16.4174 22.6762 16.229 22.5072 16.1328L20.1249 14.7562L19.4831 14.3869C19.4487 14.3677 19.4102 14.3522 19.3718 14.3369C19.3178 14.3138 19.2603 14.3062 19.2027 14.3062Z" fill="#FDF0F0"/>
<path d="M43.8801 12.0646C43.8032 11.8153 43.697 11.5922 43.5616 11.3952C43.4292 11.1952 43.2692 11.0244 43.0815 10.8828C42.8968 10.7412 42.6844 10.6351 42.4444 10.5643C42.2043 10.4904 41.9427 10.4535 41.6596 10.4535C41.1518 10.4535 40.6994 10.5812 40.3023 10.8366C39.9053 11.0921 39.5929 11.4676 39.3652 11.9631C39.1405 12.4555 39.0282 13.0556 39.0282 13.7635C39.0282 14.4775 39.1405 15.0823 39.3652 15.5778C39.5899 16.0733 39.9022 16.4503 40.3023 16.7088C40.7024 16.9643 41.1672 17.092 41.6965 17.092C42.1766 17.092 42.5921 16.9996 42.943 16.815C43.2969 16.6303 43.5693 16.3687 43.7601 16.0302C43.9509 15.6886 44.0463 15.2885 44.0463 14.8299L44.4341 14.8899H41.8673V13.5511H45.7036V14.6868C45.7036 15.4962 45.5313 16.1964 45.1866 16.7873C44.8419 17.3782 44.3679 17.8337 43.7647 18.1538C43.1615 18.4708 42.469 18.6293 41.6873 18.6293C40.8163 18.6293 40.0515 18.4338 39.3929 18.043C38.7373 17.649 38.2249 17.0904 37.8556 16.3672C37.4894 15.6409 37.3062 14.7791 37.3062 13.782C37.3062 13.0187 37.414 12.337 37.6294 11.7369C37.8479 11.1367 38.1526 10.6274 38.5435 10.2088C38.9343 9.78717 39.3929 9.46709 39.9192 9.24858C40.4454 9.02699 41.0179 8.91619 41.6365 8.91619C42.1597 8.91619 42.6475 8.99313 43.0999 9.14702C43.5523 9.29782 43.954 9.51326 44.3048 9.79332C44.6588 10.0734 44.9496 10.4058 45.1773 10.7905C45.4051 11.1752 45.5543 11.5999 45.6251 12.0646H43.8801ZM50.379 18.6385C49.6865 18.6385 49.0863 18.4862 48.5785 18.1815C48.0707 17.8768 47.6768 17.4505 47.3967 16.9027C47.1197 16.3549 46.9812 15.7147 46.9812 14.9822C46.9812 14.2498 47.1197 13.6081 47.3967 13.0572C47.6768 12.5063 48.0707 12.0785 48.5785 11.7738C49.0863 11.4691 49.6865 11.3168 50.379 11.3168C51.0714 11.3168 51.6716 11.4691 52.1794 11.7738C52.6872 12.0785 53.0796 12.5063 53.3566 13.0572C53.6366 13.6081 53.7767 14.2498 53.7767 14.9822C53.7767 15.7147 53.6366 16.3549 53.3566 16.9027C53.0796 17.4505 52.6872 17.8768 52.1794 18.1815C51.6716 18.4862 51.0714 18.6385 50.379 18.6385ZM50.3882 17.2997C50.7637 17.2997 51.0776 17.1966 51.3299 16.9904C51.5823 16.7811 51.77 16.5011 51.8932 16.1502C52.0193 15.7994 52.0824 15.4085 52.0824 14.9776C52.0824 14.5437 52.0193 14.1513 51.8932 13.8004C51.77 13.4465 51.5823 13.1649 51.3299 12.9556C51.0776 12.7463 50.7637 12.6417 50.3882 12.6417C50.0035 12.6417 49.6834 12.7463 49.428 12.9556C49.1756 13.1649 48.9863 13.4465 48.8601 13.8004C48.737 14.1513 48.6755 14.5437 48.6755 14.9776C48.6755 15.4085 48.737 15.7994 48.8601 16.1502C48.9863 16.5011 49.1756 16.7811 49.428 16.9904C49.6834 17.1966 50.0035 17.2997 50.3882 17.2997ZM61.9605 11.4091V12.7017H57.8842V11.4091H61.9605ZM58.8906 9.71023H60.5617V16.3672C60.5617 16.5919 60.5956 16.7642 60.6633 16.8842C60.7341 17.0012 60.8264 17.0812 60.9403 17.1243C61.0542 17.1674 61.1804 17.1889 61.3188 17.1889C61.4235 17.1889 61.5189 17.1812 61.6051 17.1658C61.6943 17.1504 61.762 17.1366 61.8082 17.1243L62.0898 18.4308C62.0005 18.4615 61.8728 18.4954 61.7066 18.5323C61.5435 18.5692 61.3435 18.5908 61.1065 18.5969C60.6879 18.6093 60.3109 18.5462 59.9755 18.4077C59.64 18.2661 59.3738 18.0476 59.1768 17.7521C58.9829 17.4567 58.8875 17.0874 58.8906 16.6442V9.71023ZM66.375 18.6385C65.6826 18.6385 65.0824 18.4862 64.5746 18.1815C64.0668 17.8768 63.6729 17.4505 63.3928 16.9027C63.1158 16.3549 62.9773 15.7147 62.9773 14.9822C62.9773 14.2498 63.1158 13.6081 63.3928 13.0572C63.6729 12.5063 64.0668 12.0785 64.5746 11.7738C65.0824 11.4691 65.6826 11.3168 66.375 11.3168C67.0675 11.3168 67.6677 11.4691 68.1755 11.7738C68.6833 12.0785 69.0757 12.5063 69.3527 13.0572C69.6327 13.6081 69.7728 14.2498 69.7728 14.9822C69.7728 15.7147 69.6327 16.3549 69.3527 16.9027C69.0757 17.4505 68.6833 17.8768 68.1755 18.1815C67.6677 18.4862 67.0675 18.6385 66.375 18.6385ZM66.3843 17.2997C66.7598 17.2997 67.0737 17.1966 67.326 16.9904C67.5784 16.7811 67.7661 16.5011 67.8892 16.1502C68.0154 15.7994 68.0785 15.4085 68.0785 14.9776C68.0785 14.5437 68.0154 14.1513 67.8892 13.8004C67.7661 13.4465 67.5784 13.1649 67.326 12.9556C67.0737 12.7463 66.7598 12.6417 66.3843 12.6417C65.9996 12.6417 65.6795 12.7463 65.4241 12.9556C65.1717 13.1649 64.9824 13.4465 64.8562 13.8004C64.7331 14.1513 64.6716 14.5437 64.6716 14.9776C64.6716 15.4085 64.7331 15.7994 64.8562 16.1502C64.9824 16.5011 65.1717 16.7811 65.4241 16.9904C65.6795 17.1966 65.9996 17.2997 66.3843 17.2997ZM74.4158 21.1591V11.4091H76.0593V12.5817H76.1562C76.2424 12.4093 76.3639 12.2262 76.5209 12.0323C76.6779 11.8353 76.8902 11.6676 77.158 11.5291C77.4257 11.3875 77.7674 11.3168 78.1828 11.3168C78.7307 11.3168 79.2246 11.4568 79.6647 11.7369C80.1079 12.0138 80.4588 12.4247 80.7173 12.9695C80.9789 13.5111 81.1097 14.1759 81.1097 14.9638C81.1097 15.7424 80.982 16.4041 80.7265 16.9489C80.4711 17.4936 80.1233 17.9091 79.6832 18.1953C79.2431 18.4815 78.7445 18.6246 78.1875 18.6246C77.7812 18.6246 77.4442 18.5569 77.1764 18.4215C76.9087 18.2861 76.6933 18.123 76.5301 17.9322C76.3701 17.7383 76.2455 17.5552 76.1562 17.3828H76.087V21.1591H74.4158ZM76.0546 14.9545C76.0546 15.4131 76.1193 15.8147 76.2485 16.1594C76.3809 16.5041 76.5701 16.7734 76.8164 16.9673C77.0657 17.1581 77.3673 17.2536 77.7212 17.2536C78.0905 17.2536 78.3998 17.1551 78.6491 16.9581C78.8984 16.758 79.0861 16.4857 79.2123 16.141C79.3416 15.7932 79.4062 15.3977 79.4062 14.9545C79.4062 14.5144 79.3431 14.1236 79.2169 13.782C79.0907 13.4403 78.903 13.1726 78.6537 12.9787C78.4044 12.7848 78.0936 12.6879 77.7212 12.6879C77.3642 12.6879 77.061 12.7817 76.8117 12.9695C76.5625 13.1572 76.3732 13.4203 76.2439 13.7589C76.1177 14.0974 76.0546 14.496 76.0546 14.9545ZM84.5813 18.6431C84.1319 18.6431 83.7272 18.5631 83.3671 18.4031C83.0101 18.2399 82.727 17.9999 82.5177 17.6829C82.3115 17.3659 82.2084 16.975 82.2084 16.5103C82.2084 16.1102 82.2823 15.7794 82.43 15.5178C82.5777 15.2562 82.7793 15.0469 83.0348 14.8899C83.2902 14.733 83.578 14.6145 83.898 14.5344C84.2212 14.4513 84.5551 14.3913 84.8998 14.3544C85.3153 14.3113 85.6523 14.2728 85.9108 14.239C86.1693 14.2021 86.3571 14.1467 86.474 14.0728C86.5941 13.9959 86.6541 13.8774 86.6541 13.7173V13.6896C86.6541 13.3419 86.551 13.0726 86.3448 12.8817C86.1386 12.6909 85.8416 12.5955 85.4538 12.5955C85.0445 12.5955 84.7198 12.6848 84.4797 12.8633C84.2427 13.0418 84.0827 13.2526 83.9996 13.4957L82.4392 13.2741C82.5623 12.8433 82.7655 12.4832 83.0486 12.1939C83.3318 11.9015 83.678 11.683 84.0873 11.5384C84.4966 11.3906 84.9491 11.3168 85.4446 11.3168C85.7862 11.3168 86.1263 11.3568 86.4648 11.4368C86.8033 11.5168 87.1126 11.6491 87.3927 11.8338C87.6728 12.0154 87.8974 12.2631 88.0667 12.5771C88.2391 12.891 88.3252 13.2834 88.3252 13.7543V18.5H86.7187V17.5259H86.6633C86.5617 17.7229 86.4186 17.9076 86.234 18.0799C86.0524 18.2492 85.8231 18.3861 85.5461 18.4908C85.2722 18.5923 84.9506 18.6431 84.5813 18.6431ZM85.0152 17.4151C85.3507 17.4151 85.6415 17.349 85.8877 17.2166C86.134 17.0812 86.3232 16.9027 86.4556 16.6811C86.591 16.4595 86.6587 16.2179 86.6587 15.9563V15.1207C86.6064 15.1638 86.5171 15.2038 86.3909 15.2408C86.2678 15.2777 86.1293 15.31 85.9755 15.3377C85.8216 15.3654 85.6692 15.39 85.5184 15.4116C85.3676 15.4331 85.2368 15.4516 85.126 15.467C84.8767 15.5008 84.6536 15.5562 84.4566 15.6332C84.2597 15.7101 84.1042 15.8178 83.9904 15.9563C83.8765 16.0917 83.8196 16.2672 83.8196 16.4826C83.8196 16.7904 83.9319 17.0227 84.1566 17.1797C84.3812 17.3366 84.6675 17.4151 85.0152 17.4151ZM93.0894 21.3068C92.4893 21.3068 91.9738 21.2253 91.5429 21.0621C91.1121 20.9021 90.7658 20.6867 90.5042 20.4158C90.2426 20.145 90.061 19.8449 89.9595 19.5156L91.4644 19.1509C91.5322 19.2894 91.6306 19.4264 91.7599 19.5618C91.8892 19.7003 92.063 19.8142 92.2816 19.9034C92.5032 19.9957 92.7817 20.0419 93.1171 20.0419C93.5911 20.0419 93.9835 19.9265 94.2943 19.6957C94.6052 19.4679 94.7606 19.0924 94.7606 18.5692V17.2259H94.6775C94.5913 17.3982 94.4652 17.5752 94.299 17.7567C94.1358 17.9383 93.9189 18.0907 93.648 18.2138C93.3803 18.3369 93.0433 18.3984 92.637 18.3984C92.0923 18.3984 91.5983 18.2707 91.1551 18.0153C90.715 17.7567 90.3642 17.372 90.1026 16.8612C89.8441 16.3472 89.7148 15.704 89.7148 14.9315C89.7148 14.1528 89.8441 13.4957 90.1026 12.9602C90.3642 12.4216 90.7166 12.0138 91.1598 11.7369C91.6029 11.4568 92.0969 11.3168 92.6416 11.3168C93.0571 11.3168 93.3987 11.3875 93.6665 11.5291C93.9373 11.6676 94.1528 11.8353 94.3128 12.0323C94.4728 12.2262 94.5944 12.4093 94.6775 12.5817H94.7698V11.4091H96.4179V18.6154C96.4179 19.2217 96.2733 19.7234 95.984 20.1204C95.6947 20.5174 95.2992 20.8144 94.7975 21.0114C94.2959 21.2083 93.7265 21.3068 93.0894 21.3068ZM93.1033 17.0874C93.4572 17.0874 93.7588 17.0012 94.0081 16.8288C94.2574 16.6565 94.4467 16.4087 94.576 16.0856C94.7052 15.7624 94.7698 15.3746 94.7698 14.9222C94.7698 14.476 94.7052 14.0851 94.576 13.7496C94.4498 13.4142 94.262 13.1541 94.0127 12.9695C93.7665 12.7817 93.4634 12.6879 93.1033 12.6879C92.7309 12.6879 92.4201 12.7848 92.1708 12.9787C91.9215 13.1726 91.7337 13.4388 91.6076 13.7773C91.4814 14.1128 91.4183 14.4944 91.4183 14.9222C91.4183 15.3562 91.4814 15.7363 91.6076 16.0625C91.7368 16.3857 91.9261 16.638 92.1754 16.8196C92.4277 16.9981 92.7371 17.0874 93.1033 17.0874ZM101.27 18.6385C100.559 18.6385 99.9449 18.4908 99.4279 18.1953C98.9139 17.8968 98.5184 17.4751 98.2414 16.9304C97.9644 16.3826 97.8259 15.7378 97.8259 14.9961C97.8259 14.2667 97.9644 13.6265 98.2414 13.0756C98.5215 12.5217 98.9124 12.0908 99.414 11.783C99.9157 11.4722 100.505 11.3168 101.182 11.3168C101.619 11.3168 102.032 11.3875 102.419 11.5291C102.81 11.6676 103.155 11.883 103.453 12.1754C103.755 12.4678 103.992 12.8402 104.164 13.2926C104.337 13.742 104.423 14.2775 104.423 14.8991V15.4116H98.6108V14.2852H102.821C102.818 13.9651 102.749 13.6804 102.613 13.4311C102.478 13.1787 102.289 12.9802 102.045 12.8356C101.805 12.6909 101.525 12.6186 101.205 12.6186C100.864 12.6186 100.564 12.7017 100.305 12.8679C100.046 13.031 99.8449 13.2464 99.7002 13.5142C99.5587 13.7789 99.4863 14.0697 99.4833 14.3867V15.37C99.4833 15.7824 99.5587 16.1364 99.7095 16.4318C99.8603 16.7242 100.071 16.9489 100.342 17.1058C100.613 17.2597 100.93 17.3366 101.293 17.3366C101.536 17.3366 101.756 17.3028 101.953 17.2351C102.15 17.1643 102.321 17.0612 102.466 16.9258C102.61 16.7904 102.719 16.6226 102.793 16.4226L104.354 16.598C104.255 17.0104 104.067 17.3705 103.79 17.6783C103.517 17.983 103.166 18.2199 102.738 18.3892C102.31 18.5554 101.821 18.6385 101.27 18.6385Z" fill="#DB0000"/>
</svg>
