<svg width="37" height="27" viewBox="0 0 37 27" fill="none" xmlns="http://www.w3.org/2000/svg">
<path d="M21.7712 10.4913L16.9299 8.07668C16.8944 8.05874 16.8579 8.0432 16.8205 8.03006C16.7829 8.01691 16.7449 8.00615 16.7061 7.99778C16.6672 7.98941 16.6278 7.98344 16.5883 7.98015C16.5486 7.97656 16.5091 7.97567 16.4694 7.97746C16.4296 7.97925 16.3902 7.98344 16.3511 7.99001C16.3119 7.99659 16.2734 8.00585 16.2351 8.0175C16.1971 8.02886 16.1601 8.04291 16.1239 8.05934C16.0875 8.07548 16.0525 8.09401 16.0187 8.11493C15.9847 8.13555 15.9524 8.15856 15.9213 8.18336C15.8905 8.20847 15.8612 8.23506 15.8338 8.26375C15.806 8.29244 15.7806 8.32262 15.7567 8.3546C15.733 8.38628 15.7115 8.41975 15.6921 8.45441C15.6727 8.48908 15.6553 8.52464 15.6404 8.5614C15.6255 8.59846 15.6132 8.63581 15.603 8.67436C15.5929 8.71291 15.5851 8.75176 15.58 8.79121C15.575 8.83036 15.5723 8.87011 15.5723 8.90985V13.7484C15.5723 13.7882 15.575 13.8276 15.58 13.8671C15.5851 13.9065 15.5929 13.9454 15.603 13.9839C15.6132 14.0222 15.6255 14.0598 15.6404 14.0966C15.6553 14.1333 15.6727 14.1692 15.6921 14.2039C15.7115 14.2385 15.733 14.2717 15.7567 14.3037C15.7806 14.3357 15.806 14.3658 15.8338 14.3945C15.8612 14.4229 15.8905 14.4498 15.9213 14.4746C15.9524 14.4997 15.9847 14.5224 16.0187 14.5434C16.0525 14.564 16.0875 14.5825 16.1239 14.5989C16.1601 14.6151 16.1971 14.6291 16.2351 14.6408C16.2734 14.6524 16.3119 14.6614 16.3511 14.6683C16.3902 14.6749 16.4296 14.679 16.4694 14.6808C16.5091 14.6823 16.5486 14.6814 16.5883 14.6781C16.6278 14.6749 16.6672 14.6689 16.7061 14.6605C16.7449 14.6521 16.7829 14.6414 16.8205 14.6279C16.8579 14.6148 16.8944 14.5992 16.9299 14.5813L21.7712 12.1667C21.8492 12.1278 21.9203 12.0791 21.9846 12.0205C22.0488 11.9619 22.1038 11.8956 22.1498 11.8215C22.1955 11.7477 22.2302 11.6688 22.2541 11.5851C22.278 11.5014 22.29 11.416 22.29 11.329C22.29 11.242 22.278 11.1569 22.2541 11.0732C22.2302 10.9892 22.1955 10.9106 22.1498 10.8365C22.1038 10.7627 22.0488 10.6963 21.9846 10.6375C21.9203 10.5789 21.8492 10.5302 21.7712 10.4913Z" fill="#DB0000"/>
<path d="M15.4976 21.7312C15.4361 21.7312 15.3751 21.7252 15.315 21.7132C15.2547 21.7013 15.1961 21.6837 15.1393 21.6601C15.0825 21.6364 15.0284 21.6078 14.9773 21.5734C14.9262 21.5393 14.879 21.5005 14.8354 21.4571C14.792 21.4138 14.7532 21.3663 14.7188 21.3152C14.6848 21.2641 14.6561 21.2103 14.6325 21.1535C14.6089 21.0967 14.5912 21.0382 14.5793 20.9778C14.567 20.9177 14.561 20.8568 14.561 20.7952V17.7628C14.561 17.7016 14.567 17.6406 14.5793 17.5802C14.5912 17.5202 14.6089 17.4616 14.6325 17.4048C14.6561 17.348 14.6848 17.2939 14.7188 17.2428C14.7532 17.192 14.792 17.1445 14.8354 17.1012C14.879 17.0579 14.9262 17.019 14.9773 16.9846C15.0284 16.9506 15.0825 16.9219 15.1393 16.8983C15.1961 16.8747 15.2547 16.857 15.315 16.8451C15.3751 16.8331 15.4361 16.8271 15.4976 16.8271C15.5592 16.8271 15.6198 16.8331 15.6802 16.8451C15.7406 16.857 15.7991 16.8747 15.8559 16.8983C15.9127 16.9219 15.9668 16.9506 16.0179 16.9846C16.069 17.019 16.1162 17.0579 16.1599 17.1012C16.2032 17.1445 16.242 17.192 16.2761 17.2428C16.3105 17.2939 16.3392 17.348 16.3628 17.4048C16.3861 17.4616 16.404 17.5202 16.416 17.5802C16.4279 17.6406 16.4339 17.7016 16.4339 17.7628V20.8048C16.4333 20.8657 16.4267 20.9261 16.4145 20.9859C16.4019 21.0456 16.3837 21.1036 16.3601 21.1601C16.3362 21.2163 16.3072 21.2698 16.2728 21.3203C16.2387 21.3708 16.1999 21.4174 16.1566 21.4604C16.1129 21.5035 16.0657 21.5417 16.0149 21.5755C15.9641 21.6092 15.9103 21.6376 15.8538 21.6609C15.7974 21.6843 15.7391 21.7016 15.679 21.7135C15.6192 21.7255 15.5586 21.7312 15.4976 21.7312Z" fill="#DB0000"/>
<path d="M21.1158 21.7312C21.0542 21.7312 20.9933 21.7252 20.9329 21.7132C20.8725 21.7013 20.8142 21.6837 20.7572 21.6601C20.7004 21.6364 20.6466 21.6078 20.5955 21.5734C20.5444 21.5393 20.4969 21.5005 20.4535 21.4571C20.4099 21.4138 20.3711 21.3663 20.337 21.3152C20.3029 21.2641 20.2739 21.2103 20.2506 21.1535C20.227 21.0967 20.2091 21.0382 20.1971 20.9778C20.1852 20.9177 20.1792 20.8568 20.1792 20.7952V17.7628C20.1792 17.7016 20.1852 17.6406 20.1971 17.5802C20.2091 17.5202 20.227 17.4616 20.2506 17.4048C20.2739 17.348 20.3029 17.2939 20.337 17.2428C20.3711 17.192 20.4099 17.1445 20.4535 17.1012C20.4969 17.0579 20.5444 17.019 20.5955 16.9846C20.6466 16.9506 20.7004 16.9219 20.7572 16.8983C20.8142 16.8747 20.8725 16.857 20.9329 16.8451C20.9933 16.8331 21.0542 16.8271 21.1158 16.8271C21.177 16.8271 21.238 16.8331 21.2984 16.8451C21.3587 16.857 21.4173 16.8747 21.4741 16.8983C21.5309 16.9219 21.5847 16.9506 21.6358 16.9846C21.6869 17.019 21.7344 17.0579 21.7777 17.1012C21.8213 17.1445 21.8602 17.192 21.8943 17.2428C21.9283 17.2939 21.9573 17.348 21.9806 17.4048C22.0042 17.4616 22.0222 17.5202 22.0341 17.5802C22.0461 17.6406 22.0521 17.7016 22.0521 17.7628V20.8048C22.0515 20.8657 22.0449 20.9261 22.0323 20.9859C22.0201 21.0456 22.0018 21.1036 21.9782 21.1601C21.9543 21.2163 21.9253 21.2698 21.891 21.3203C21.8566 21.3708 21.8181 21.4174 21.7744 21.4604C21.7311 21.5035 21.6839 21.5417 21.6331 21.5755C21.582 21.6092 21.5285 21.6376 21.4717 21.6609C21.4152 21.6843 21.3572 21.7016 21.2972 21.7135C21.2371 21.7255 21.1767 21.7312 21.1158 21.7312Z" fill="#DB0000"/>
<path d="M18.3064 22.6686C18.2448 22.6686 18.1842 22.6626 18.1238 22.6506C18.0634 22.6387 18.0049 22.6208 17.9481 22.5974C17.8913 22.5738 17.8372 22.5451 17.7861 22.5108C17.735 22.4767 17.6878 22.4379 17.6445 22.3945C17.6008 22.3509 17.562 22.3037 17.5279 22.2526C17.4938 22.2015 17.4649 22.1477 17.4412 22.0909C17.4179 22.0341 17.4 21.9755 17.388 21.9152C17.3761 21.8551 17.3701 21.7941 17.3701 21.7326V16.8286C17.3701 16.767 17.3761 16.706 17.388 16.646C17.4 16.5856 17.4179 16.527 17.4412 16.4702C17.4649 16.4135 17.4938 16.3597 17.5279 16.3086C17.562 16.2575 17.6008 16.2102 17.6445 16.1666C17.6878 16.1233 17.735 16.0844 17.7861 16.0504C17.8372 16.016 17.8913 15.9873 17.9481 15.9637C18.0049 15.9404 18.0634 15.9225 18.1238 15.9105C18.1842 15.8986 18.2448 15.8926 18.3064 15.8926C18.368 15.8926 18.4289 15.8986 18.4893 15.9105C18.5494 15.9225 18.6079 15.9404 18.6647 15.9637C18.7215 15.9873 18.7756 16.016 18.8267 16.0504C18.8778 16.0844 18.925 16.1233 18.9686 16.1666C19.012 16.2102 19.0508 16.2575 19.0852 16.3086C19.1193 16.3597 19.1479 16.4135 19.1715 16.4702C19.1952 16.527 19.2128 16.5856 19.2247 16.646C19.237 16.706 19.243 16.767 19.243 16.8286V21.7422C19.2424 21.8031 19.2358 21.8635 19.2232 21.9232C19.2107 21.983 19.1928 22.041 19.1689 22.0972C19.1453 22.1537 19.116 22.2069 19.0819 22.2577C19.0475 22.3082 19.0087 22.3548 18.9653 22.3978C18.922 22.4408 18.8748 22.4791 18.8237 22.5129C18.7729 22.5466 18.7191 22.575 18.6626 22.5983C18.6061 22.6213 18.5479 22.639 18.4881 22.6509C18.428 22.6626 18.3677 22.6686 18.3064 22.6686Z" fill="#DB0000"/>
<mask id="mask0_534_351" style="mask-type:luminance" maskUnits="userSpaceOnUse" x="5" y="0" width="27" height="15">
<path d="M5.11768 0.00292969H31.4351V14.5575H5.11768V0.00292969Z" fill="white"/>
</mask>
<g mask="url(#mask0_534_351)">
<path d="M27.8395 4.09053C27.6868 3.92856 27.5299 3.77077 27.3694 3.61686C27.2086 3.46326 27.044 3.31353 26.8757 3.168C26.7072 3.02246 26.5354 2.88141 26.3596 2.74483C26.1842 2.60796 26.0052 2.47587 25.8229 2.34827C25.6406 2.22066 25.4553 2.09784 25.2668 1.97949C25.0782 1.86145 24.8869 1.74819 24.6924 1.63971C24.4981 1.53123 24.3012 1.42783 24.1016 1.32951C23.9019 1.23089 23.6999 1.13765 23.4958 1.04979C23.2914 0.961632 23.0849 0.878554 22.8763 0.801153C22.6677 0.723454 22.4573 0.651133 22.2451 0.584192C22.033 0.517251 21.819 0.455988 21.6038 0.399806C21.3884 0.343922 21.1717 0.293417 20.9535 0.248292C20.7357 0.203465 20.5166 0.164018 20.2967 0.130248C20.0767 0.0961801 19.8562 0.0680888 19.6347 0.0453766C19.4133 0.0229633 19.1916 0.00592928 18.9692 -0.00542683C18.7469 -0.0167829 18.5245 -0.0224609 18.3022 -0.0224609C18.0796 -0.0224609 17.8572 -0.0167829 17.6349 -0.00542683C17.4125 0.00592928 17.1908 0.0229633 16.9694 0.0453766C16.7479 0.0680888 16.5274 0.0961801 16.3074 0.130248C16.0875 0.164018 15.8684 0.203465 15.6506 0.248292C15.4324 0.293417 15.2157 0.343922 15.0006 0.399806C14.7851 0.455988 14.5711 0.517251 14.359 0.584192C14.1468 0.651133 13.9364 0.723454 13.7278 0.801153C13.5192 0.878554 13.3127 0.961632 13.1083 1.04979C12.9042 1.13765 12.7022 1.23089 12.5025 1.32951C12.3029 1.42783 12.106 1.53123 11.9117 1.63971C11.7175 1.74819 11.5259 1.86145 11.3373 1.97949C11.1488 2.09784 10.9635 2.22066 10.7812 2.34827C10.5989 2.47587 10.4199 2.60796 10.2445 2.74483C10.0688 2.88141 9.89692 3.02246 9.72837 3.168C9.56012 3.31353 9.39546 3.46326 9.23498 3.61686C9.0742 3.77077 8.91731 3.92856 8.7646 4.09053C8.45679 4.41298 8.16601 4.75068 7.89287 5.10301C7.61973 5.45565 7.36511 5.82113 7.12962 6.19977C6.89413 6.5787 6.67867 6.9684 6.48352 7.36915C6.28808 7.77019 6.11385 8.17991 5.96085 8.59889C5.80784 9.01757 5.67664 9.44342 5.56727 9.87555C5.45819 10.308 5.37153 10.7449 5.30727 11.186C5.24302 11.6274 5.20178 12.0709 5.18355 12.5161C5.16502 12.9617 5.16951 13.407 5.197 13.8523V14.3669C5.3784 14.0925 5.5846 13.8382 5.81501 13.6039C6.04572 13.3693 6.29675 13.1592 6.5678 12.9731C6.83915 12.7869 7.12544 12.6285 7.42727 12.4976C7.7291 12.367 8.0408 12.2663 8.36206 12.1955L10.3473 11.7651C10.3766 11.5808 10.4121 11.3976 10.454 11.2159C10.4961 11.0339 10.5445 10.854 10.5989 10.6753C10.6536 10.4968 10.7146 10.3205 10.7815 10.1463C10.8484 9.97208 10.9214 9.80054 11.0003 9.6314C11.0794 9.46225 11.164 9.29639 11.2549 9.13322C11.3454 8.97005 11.4416 8.81017 11.5433 8.65358C11.6452 8.49728 11.7524 8.34457 11.8648 8.19575C11.9772 8.04663 12.0949 7.90198 12.2174 7.76123C12.34 7.62047 12.4676 7.4842 12.5997 7.35241C12.7318 7.22062 12.8683 7.09331 13.0094 6.97109C13.1504 6.84886 13.2957 6.73171 13.4448 6.61965C13.5942 6.50758 13.7472 6.40059 13.9038 6.29928C14.0607 6.19798 14.2206 6.10205 14.3841 6.0118C14.5475 5.92155 14.714 5.83727 14.8834 5.75868C15.0526 5.68008 15.2247 5.60746 15.3989 5.54082C15.5735 5.47448 15.7501 5.41381 15.9288 5.35972C16.1072 5.30563 16.2877 5.25751 16.4697 5.21598C16.6517 5.17444 16.8349 5.13917 17.0193 5.11018C17.204 5.0815 17.3892 5.05908 17.5751 5.04324C17.7613 5.0274 17.9475 5.01814 18.1343 5.01545C18.321 5.01246 18.5075 5.01635 18.694 5.02651C18.8805 5.03667 19.0663 5.0534 19.2513 5.07671C19.4366 5.10002 19.621 5.12961 19.8042 5.16577C19.9874 5.20163 20.1691 5.24437 20.3493 5.29308C20.5295 5.34179 20.7076 5.39678 20.8842 5.45804C21.0605 5.5196 21.2345 5.58684 21.406 5.66036C21.5778 5.73357 21.7467 5.81307 21.9128 5.89824C22.0787 5.98371 22.2416 6.07455 22.4014 6.17108C22.561 6.26791 22.7173 6.36981 22.8697 6.4774C23.0224 6.58498 23.171 6.69794 23.3156 6.81569C23.4605 6.93373 23.6007 7.05656 23.737 7.18446C23.873 7.31207 24.0044 7.44445 24.1312 7.58133C24.4046 7.86911 24.6547 8.17543 24.8821 8.50057C25.1093 8.82541 25.311 9.1658 25.4873 9.52112C25.6633 9.87645 25.8122 10.2428 25.9332 10.6206C26.0545 10.9983 26.1466 11.3829 26.2102 11.7744L28.0828 12.1769C28.4199 12.2511 28.7459 12.3583 29.0609 12.4982C29.3762 12.6384 29.6741 12.8084 29.955 13.0086C30.2356 13.2089 30.4935 13.4351 30.7287 13.6876C30.9636 13.9398 31.171 14.213 31.3509 14.5073V13.8334C31.3796 13.39 31.3856 12.9465 31.3686 12.5027C31.3518 12.0586 31.3121 11.6169 31.2499 11.177C31.1875 10.7371 31.1029 10.3017 30.9959 9.87047C30.8889 9.43924 30.7601 9.01488 30.6095 8.5968C30.4589 8.17871 30.287 7.7696 30.0943 7.36944C29.9018 6.96899 29.6891 6.5796 29.4566 6.20126C29.2238 5.82263 28.9724 5.45714 28.7023 5.10421C28.4318 4.75157 28.1443 4.41358 27.8395 4.09053Z" fill="#DB0000"/>
</g>
<path d="M12.0625 21.1377C12.0623 21.2425 12.0576 21.347 12.0488 21.4512L12.0098 21.7627C11.9753 21.9684 11.9231 22.1705 11.8555 22.3682L11.8564 22.3691C11.7889 22.5674 11.7051 22.7595 11.6055 22.9443C11.5066 23.1278 11.393 23.3021 11.2656 23.4668L11.2637 23.4697C11.1364 23.6332 10.996 23.7875 10.8408 23.9297L10.8398 23.9287C10.6858 24.0705 10.5209 24.1973 10.3467 24.3096L10.3477 24.3105C10.1722 24.4239 9.98787 24.5218 9.79492 24.6035L9.79395 24.6025C9.60235 24.6838 9.40456 24.7498 9.2002 24.7969L9.19043 24.7988L7.87793 25.0879L7.87891 25.0889C7.77708 25.112 7.67464 25.1325 7.57324 25.1494H7.57227C7.47052 25.1664 7.36837 25.1802 7.26562 25.1914L7.26074 25.1924C7.16088 25.2028 7.05908 25.2104 6.95605 25.2158H6.95117C6.85104 25.2206 6.74776 25.2235 6.6416 25.2227C6.53838 25.2218 6.43506 25.2186 6.33203 25.2119V25.2109C6.2275 25.2045 6.12276 25.1957 6.01855 25.1826V25.1816C5.9173 25.1693 5.81626 25.1547 5.71582 25.1367C5.61074 25.1179 5.5094 25.0964 5.41211 25.0732L5.41113 25.0723C5.30984 25.048 5.20909 25.0213 5.10938 24.9912V24.9902C5.00916 24.9601 4.91163 24.9285 4.81738 24.8945L4.8125 24.8926C4.71627 24.8573 4.62013 24.8196 4.52441 24.7783C4.43128 24.7382 4.33645 24.6941 4.24121 24.6465C4.14934 24.6006 4.05734 24.5514 3.96582 24.499V24.498C3.87537 24.4464 3.78681 24.3934 3.70117 24.3379L3.69922 24.3369C3.61536 24.2823 3.5285 24.2232 3.44141 24.1592V24.1582C3.35831 24.0974 3.27634 24.0344 3.19629 23.9688C3.11645 23.9032 3.03793 23.8346 2.96094 23.7637L2.73633 23.5459L2.73438 23.5439C2.66313 23.4706 2.59304 23.3949 2.52441 23.3164L2.52246 23.3145C2.45371 23.2354 2.38736 23.155 2.32422 23.0742L2.32324 23.0723L2.13672 22.8193C2.07835 22.7351 2.02103 22.6479 1.96582 22.5586L1.96387 22.5557C1.91028 22.4684 1.8583 22.3789 1.80859 22.2881L1.80566 22.2832C1.7564 22.1921 1.70961 22.0994 1.66504 22.0059C1.62047 21.9123 1.57752 21.816 1.53711 21.7178C1.49675 21.6197 1.45975 21.5216 1.42578 21.4248L1.42383 21.4199C1.39091 21.3247 1.35932 21.2268 1.33008 21.126L1.24902 20.8164L1.25 20.8154C1.22583 20.7123 1.20428 20.611 1.18652 20.5117V20.5078C1.16834 20.4042 1.15323 20.3011 1.14062 20.2002L1.13965 20.1963C1.12724 20.0935 1.11742 19.9902 1.11035 19.8867L1.09668 19.5684V18.0996C1.09746 17.9392 1.10438 17.7785 1.11816 17.6172V17.6162C1.13184 17.4568 1.15178 17.2967 1.17871 17.1367C1.20563 16.9765 1.24007 16.8197 1.2793 16.665H1.27832C1.31816 16.507 1.36551 16.3516 1.41797 16.1992C1.4702 16.0471 1.52788 15.897 1.59277 15.749C1.65767 15.6011 1.72886 15.4568 1.80469 15.3164V15.3154C1.88126 15.174 1.96393 15.0358 2.05176 14.9014C2.13954 14.767 2.23298 14.6357 2.33203 14.5088C2.43114 14.3818 2.53526 14.2597 2.64355 14.1426C2.75186 14.0255 2.86649 13.9119 2.98633 13.8027L3.16602 13.6455C3.22703 13.5944 3.28941 13.5446 3.35254 13.4961L3.35352 13.4951C3.4805 13.3978 3.61103 13.3062 3.74414 13.2207L3.74609 13.2197C3.88046 13.1338 4.01836 13.0534 4.15918 12.9795H4.16016C4.30135 12.9055 4.44609 12.8371 4.59375 12.7754V12.7764C4.7403 12.7149 4.88925 12.6599 5.04102 12.6113V12.6104C5.19272 12.5617 5.34753 12.5197 5.50488 12.4844L7.63672 12.0059V12.0049C7.90706 11.9439 8.18095 11.9151 8.45703 11.918C8.66396 11.9201 8.86932 11.9408 9.07227 11.9785L9.27441 12.0215L9.27637 12.0225C9.47745 12.0723 9.67211 12.139 9.86035 12.2217L10.0469 12.3096L10.0488 12.3105C10.2327 12.4045 10.4076 12.5137 10.5732 12.6377L10.7363 12.7666L10.7393 12.7695C10.946 12.9448 11.1311 13.1408 11.2939 13.3555L11.4121 13.5195C11.4878 13.6314 11.557 13.7471 11.6201 13.8662L11.71 14.0469L11.7109 14.0488C11.8238 14.2934 11.9104 14.5484 11.9697 14.8125C12.0291 15.0766 12.0602 15.3454 12.0625 15.6172V21.1377Z" fill="#DB0000" stroke="#FDF0F0" stroke-width="2.19312"/>
<path d="M24.4902 21.1377C24.4905 21.2425 24.4951 21.347 24.5039 21.4512L24.543 21.7627C24.5774 21.9684 24.6296 22.1705 24.6973 22.3682L24.6963 22.3691C24.7638 22.5674 24.8476 22.7595 24.9473 22.9443C25.0462 23.1278 25.1597 23.3021 25.2871 23.4668L25.2891 23.4697C25.4163 23.6332 25.5567 23.7875 25.7119 23.9297L25.7129 23.9287C25.8669 24.0705 26.0318 24.1973 26.2061 24.3096L26.2051 24.3105C26.3805 24.4239 26.5649 24.5218 26.7578 24.6035L26.7588 24.6025C26.9504 24.6838 27.1482 24.7498 27.3525 24.7969L27.3623 24.7988L28.6748 25.0879L28.6738 25.0889C28.7757 25.112 28.8781 25.1325 28.9795 25.1494H28.9805C29.0822 25.1664 29.1844 25.1802 29.2871 25.1914L29.292 25.1924C29.3919 25.2028 29.4937 25.2104 29.5967 25.2158H29.6016C29.7017 25.2206 29.805 25.2235 29.9111 25.2227C30.0144 25.2218 30.1177 25.2186 30.2207 25.2119V25.2109C30.3252 25.2045 30.43 25.1957 30.5342 25.1826V25.1816C30.6354 25.1693 30.7365 25.1547 30.8369 25.1367C30.942 25.1179 31.0433 25.0964 31.1406 25.0732L31.1416 25.0723C31.2429 25.048 31.3436 25.0213 31.4434 24.9912V24.9902C31.5436 24.9601 31.6411 24.9285 31.7354 24.8945L31.7402 24.8926C31.8365 24.8573 31.9326 24.8196 32.0283 24.7783C32.1215 24.7382 32.2163 24.6941 32.3115 24.6465C32.4034 24.6006 32.4954 24.5514 32.5869 24.499V24.498C32.6774 24.4464 32.7659 24.3934 32.8516 24.3379L32.8535 24.3369C32.9374 24.2823 33.0242 24.2232 33.1113 24.1592V24.1582C33.1944 24.0974 33.2764 24.0344 33.3564 23.9688C33.4363 23.9032 33.5148 23.8346 33.5918 23.7637L33.8164 23.5459L33.8184 23.5439C33.8896 23.4706 33.9597 23.3949 34.0283 23.3164L34.0303 23.3145C34.099 23.2354 34.1654 23.155 34.2285 23.0742L34.2295 23.0723L34.416 22.8193C34.4744 22.7351 34.5317 22.6479 34.5869 22.5586L34.5889 22.5557C34.6425 22.4684 34.6944 22.3789 34.7441 22.2881L34.7471 22.2832C34.7963 22.1921 34.8431 22.0994 34.8877 22.0059C34.9323 21.9123 34.9752 21.816 35.0156 21.7178C35.056 21.6197 35.093 21.5216 35.127 21.4248L35.1289 21.4199C35.1618 21.3247 35.1934 21.2268 35.2227 21.126L35.3037 20.8164L35.3027 20.8154C35.3269 20.7123 35.3485 20.611 35.3662 20.5117V20.5078C35.3844 20.4042 35.3995 20.3011 35.4121 20.2002L35.4131 20.1963C35.4255 20.0935 35.4353 19.9902 35.4424 19.8867L35.4561 19.5684V18.0996C35.4553 17.9392 35.4484 17.7785 35.4346 17.6172V17.6162C35.4209 17.4568 35.401 17.2967 35.374 17.1367C35.3471 16.9765 35.3127 16.8197 35.2734 16.665H35.2744C35.2346 16.507 35.1872 16.3516 35.1348 16.1992C35.0825 16.0471 35.0249 15.897 34.96 15.749C34.8951 15.6011 34.8239 15.4568 34.748 15.3164V15.3154C34.6715 15.174 34.5888 15.0358 34.501 14.9014C34.4132 14.767 34.3198 14.6357 34.2207 14.5088C34.1216 14.3818 34.0175 14.2597 33.9092 14.1426C33.8009 14.0255 33.6862 13.9119 33.5664 13.8027L33.3867 13.6455C33.3257 13.5944 33.2633 13.5446 33.2002 13.4961L33.1992 13.4951C33.0722 13.3978 32.9417 13.3062 32.8086 13.2207L32.8066 13.2197C32.6723 13.1338 32.5344 13.0534 32.3936 12.9795H32.3926C32.2514 12.9055 32.1066 12.8371 31.959 12.7754V12.7764C31.8124 12.7149 31.6635 12.6599 31.5117 12.6113V12.6104C31.36 12.5617 31.2052 12.5197 31.0479 12.4844L28.916 12.0059V12.0049C28.6457 11.9439 28.3718 11.9151 28.0957 11.918C27.8888 11.9201 27.6834 11.9408 27.4805 11.9785L27.2783 12.0215L27.2764 12.0225C27.0753 12.0723 26.8806 12.139 26.6924 12.2217L26.5059 12.3096L26.5039 12.3105C26.3201 12.4045 26.1452 12.5137 25.9795 12.6377L25.8164 12.7666L25.8135 12.7695C25.6067 12.9448 25.4216 13.1408 25.2588 13.3555L25.1406 13.5195C25.0649 13.6314 24.9958 13.7471 24.9326 13.8662L24.8428 14.0469L24.8418 14.0488C24.7289 14.2934 24.6424 14.5484 24.583 14.8125C24.5236 15.0766 24.4925 15.3454 24.4902 15.6172V21.1377Z" fill="#DB0000" stroke="#FDF0F0" stroke-width="2.19312"/>
</svg>
