<svg width="17" height="17" viewBox="0 0 17 17" fill="none" xmlns="http://www.w3.org/2000/svg">
<path d="M0.347248 12.9608L9.97261 3.33598C10.1388 3.16984 10.4081 3.16984 10.5743 3.33598L13.4783 6.23984C13.6431 6.40465 13.6447 6.67139 13.4818 6.83808L3.86098 16.682C3.78093 16.7639 3.67123 16.8101 3.5567 16.8101H0.45289C0.207471 16.8101 0.0129424 16.603 0.0282521 16.3581L0.223452 13.2351C0.229919 13.1316 0.273941 13.0341 0.347248 12.9608Z" fill="#FFB200"/>
<path d="M14.6227 5.05086L11.7756 2.20393C11.5963 2.02462 11.6126 1.72924 11.8107 1.57083L13.4657 0.246879C13.6397 0.107686 13.8916 0.126321 14.0433 0.289601L16.5466 2.98536C16.6958 3.14601 16.6985 3.39371 16.5528 3.55755L15.2415 5.03267C15.0789 5.21563 14.7958 5.22395 14.6227 5.05086Z" fill="#FFB200"/>
</svg>
