<svg width="100" height="33" viewBox="0 0 100 33" fill="none" xmlns="http://www.w3.org/2000/svg">
<g clip-path="url(#clip0_698_5645)">
<circle cx="16.5" cy="16.5" r="13" stroke="#E9E9E9" stroke-width="7"/>
<path d="M23.2175 23.2175C20.4838 25.9512 20.4838 30.3833 23.2175 33.117C25.9512 35.8507 30.3833 35.8507 33.117 33.117L28.1673 28.1673L23.2175 23.2175ZM25.6669 2.78075L21.7779 8.60104H21.7779L25.6669 2.78075ZM28.1673 28.1673L33.117 33.117C36.4035 29.8305 38.6417 25.6432 39.5485 21.0846L32.683 19.719L25.8175 18.3534C25.4509 20.1962 24.5461 21.8889 23.2175 23.2175L28.1673 28.1673ZM32.683 19.719L39.5485 21.0846C40.4552 16.5261 39.9898 11.801 38.2112 7.50694L31.744 10.1857L25.2769 12.8645C25.9959 14.6004 26.184 16.5105 25.8175 18.3534L32.683 19.719ZM31.744 10.1857L38.2112 7.50694C36.4325 3.21288 33.4205 -0.457321 29.5559 -3.03954L25.6669 2.78075L21.7779 8.60104C23.3402 9.64491 24.5578 11.1286 25.2769 12.8645L31.744 10.1857ZM25.6669 2.78075L29.5559 -3.03954C25.6913 -5.62175 21.1479 -7 16.5 -7V0V7C18.3789 7 20.2157 7.55717 21.7779 8.60104L25.6669 2.78075Z" fill="#7AC431"/>
</g>
<path d="M44.8523 15H41.7585V6.27273H44.8778C45.7557 6.27273 46.5114 6.44744 47.1449 6.79688C47.7784 7.14347 48.2656 7.64205 48.6065 8.29261C48.9503 8.94318 49.1222 9.72159 49.1222 10.6278C49.1222 11.5369 48.9503 12.3182 48.6065 12.9716C48.2656 13.625 47.7756 14.1264 47.1364 14.4759C46.5 14.8253 45.7386 15 44.8523 15ZM43.6037 13.419H44.7756C45.321 13.419 45.7798 13.3224 46.152 13.1293C46.527 12.9332 46.8082 12.6307 46.9957 12.2216C47.1861 11.8097 47.2812 11.2784 47.2812 10.6278C47.2812 9.98295 47.1861 9.45597 46.9957 9.04688C46.8082 8.63778 46.5284 8.33665 46.1562 8.14347C45.7841 7.95028 45.3253 7.85369 44.7798 7.85369H43.6037V13.419ZM52.3214 15.1236C51.9038 15.1236 51.5316 15.0511 51.2049 14.9062C50.8782 14.7585 50.6197 14.5412 50.4293 14.2543C50.2418 13.9645 50.1481 13.6037 50.1481 13.1719C50.1481 12.8082 50.2148 12.5028 50.3484 12.2557C50.4819 12.0085 50.6637 11.8097 50.8938 11.6591C51.1239 11.5085 51.3853 11.3949 51.6779 11.3182C51.9734 11.2415 52.283 11.1875 52.6069 11.1562C52.9876 11.1165 53.2944 11.0795 53.5273 11.0455C53.7603 11.0085 53.9293 10.9545 54.0344 10.8835C54.1396 10.8125 54.1921 10.7074 54.1921 10.5682V10.5426C54.1921 10.2727 54.1069 10.0639 53.9364 9.91619C53.7688 9.76847 53.5302 9.6946 53.2205 9.6946C52.8938 9.6946 52.6339 9.76705 52.4407 9.91193C52.2475 10.054 52.1197 10.233 52.0572 10.4489L50.3782 10.3125C50.4634 9.91477 50.631 9.57102 50.881 9.28125C51.131 8.98864 51.4535 8.7642 51.8484 8.60795C52.2461 8.44886 52.7063 8.36932 53.229 8.36932C53.5927 8.36932 53.9407 8.41193 54.2731 8.49716C54.6083 8.58239 54.9052 8.71449 55.1637 8.89347C55.4251 9.07244 55.631 9.30256 55.7816 9.58381C55.9322 9.86222 56.0075 10.196 56.0075 10.5852V15H54.2859V14.0923H54.2347C54.1296 14.2969 53.989 14.4773 53.8129 14.6335C53.6367 14.7869 53.4251 14.9077 53.1779 14.9957C52.9308 15.081 52.6452 15.1236 52.3214 15.1236ZM52.8413 13.8707C53.1083 13.8707 53.3441 13.8182 53.5487 13.7131C53.7532 13.6051 53.9137 13.4602 54.0302 13.2784C54.1467 13.0966 54.2049 12.8906 54.2049 12.6605V11.9659C54.1481 12.0028 54.07 12.0369 53.9705 12.0682C53.8739 12.0966 53.7646 12.1236 53.6424 12.1491C53.5202 12.1719 53.3981 12.1932 53.2759 12.2131C53.1538 12.2301 53.043 12.2457 52.9435 12.2599C52.7305 12.2912 52.5444 12.3409 52.3853 12.4091C52.2262 12.4773 52.1026 12.5696 52.0146 12.6861C51.9265 12.7997 51.8825 12.9418 51.8825 13.1122C51.8825 13.3594 51.9719 13.5483 52.1509 13.679C52.3327 13.8068 52.5629 13.8707 52.8413 13.8707ZM57.4158 15V8.45455H59.2312V15H57.4158ZM58.3278 7.6108C58.0579 7.6108 57.8263 7.52131 57.6332 7.34233C57.4428 7.16051 57.3477 6.94318 57.3477 6.69034C57.3477 6.44034 57.4428 6.22585 57.6332 6.04688C57.8263 5.86506 58.0579 5.77415 58.3278 5.77415C58.5977 5.77415 58.8278 5.86506 59.0181 6.04688C59.2113 6.22585 59.3079 6.44034 59.3079 6.69034C59.3079 6.94318 59.2113 7.16051 59.0181 7.34233C58.8278 7.52131 58.5977 7.6108 58.3278 7.6108ZM62.5007 6.27273V15H60.6854V6.27273H62.5007ZM65.0756 17.4545C64.8455 17.4545 64.6296 17.4361 64.4279 17.3991C64.229 17.3651 64.0643 17.321 63.9336 17.267L64.3427 15.9119C64.5558 15.9773 64.7475 16.0128 64.918 16.0185C65.0913 16.0241 65.2404 15.9844 65.3654 15.8991C65.4933 15.8139 65.5969 15.669 65.6765 15.4645L65.783 15.1875L63.435 8.45455H65.3441L66.6992 13.2614H66.7674L68.1353 8.45455H70.0572L67.5131 15.7074C67.391 16.0597 67.2248 16.3665 67.0146 16.6278C66.8072 16.892 66.5444 17.0952 66.2262 17.2372C65.908 17.3821 65.5245 17.4545 65.0756 17.4545ZM79.5845 9.09375C79.5249 8.88636 79.4411 8.70312 79.3331 8.54403C79.2251 8.3821 79.093 8.24574 78.9368 8.13494C78.7834 8.02131 78.6072 7.93466 78.4084 7.875C78.2124 7.81534 77.995 7.78551 77.7564 7.78551C77.3104 7.78551 76.9183 7.89631 76.5803 8.1179C76.245 8.33949 75.9837 8.66193 75.7962 9.08523C75.6087 9.50568 75.5149 10.0199 75.5149 10.6278C75.5149 11.2358 75.6072 11.7528 75.7919 12.179C75.9766 12.6051 76.2379 12.9304 76.576 13.1548C76.9141 13.3764 77.3132 13.4872 77.7734 13.4872C78.1911 13.4872 78.5476 13.4134 78.843 13.2656C79.1413 13.1151 79.3686 12.9034 79.5249 12.6307C79.6839 12.358 79.7635 12.0355 79.7635 11.6634L80.1385 11.7188H77.8885V10.3295H81.5405V11.429C81.5405 12.196 81.3786 12.8551 81.0547 13.4062C80.7308 13.9545 80.2848 14.3778 79.7166 14.6761C79.1484 14.9716 78.4979 15.1193 77.7649 15.1193C76.9467 15.1193 76.228 14.9389 75.6087 14.5781C74.9893 14.2145 74.5064 13.6989 74.1598 13.0312C73.8161 12.3608 73.6442 11.5653 73.6442 10.6449C73.6442 9.9375 73.7464 9.30682 73.951 8.75284C74.1584 8.19602 74.4482 7.72443 74.8203 7.33807C75.1925 6.9517 75.6257 6.65767 76.12 6.45597C76.6143 6.25426 77.1499 6.15341 77.7266 6.15341C78.2209 6.15341 78.6811 6.22585 79.1072 6.37074C79.5334 6.51278 79.9112 6.71449 80.2408 6.97585C80.5732 7.23722 80.8445 7.5483 81.0547 7.90909C81.2649 8.26705 81.3999 8.66193 81.4595 9.09375H79.5845ZM85.8498 15.1278C85.1879 15.1278 84.6154 14.9872 84.1325 14.706C83.6523 14.4219 83.2816 14.027 83.0202 13.5213C82.7589 13.0128 82.6282 12.4233 82.6282 11.7528C82.6282 11.0767 82.7589 10.4858 83.0202 9.98011C83.2816 9.47159 83.6523 9.0767 84.1325 8.79545C84.6154 8.51136 85.1879 8.36932 85.8498 8.36932C86.5117 8.36932 87.0827 8.51136 87.5629 8.79545C88.0458 9.0767 88.418 9.47159 88.6793 9.98011C88.9407 10.4858 89.0714 11.0767 89.0714 11.7528C89.0714 12.4233 88.9407 13.0128 88.6793 13.5213C88.418 14.027 88.0458 14.4219 87.5629 14.706C87.0827 14.9872 86.5117 15.1278 85.8498 15.1278ZM85.8583 13.7216C86.1594 13.7216 86.4109 13.6364 86.6126 13.4659C86.8143 13.2926 86.9663 13.0568 87.0685 12.7585C87.1737 12.4602 87.2262 12.1207 87.2262 11.7401C87.2262 11.3594 87.1737 11.0199 87.0685 10.7216C86.9663 10.4233 86.8143 10.1875 86.6126 10.0142C86.4109 9.84091 86.1594 9.75426 85.8583 9.75426C85.5543 9.75426 85.2987 9.84091 85.0913 10.0142C84.8867 10.1875 84.7319 10.4233 84.6268 10.7216C84.5245 11.0199 84.4734 11.3594 84.4734 11.7401C84.4734 12.1207 84.5245 12.4602 84.6268 12.7585C84.7319 13.0568 84.8867 13.2926 85.0913 13.4659C85.2987 13.6364 85.5543 13.7216 85.8583 13.7216ZM92.1183 15.1236C91.7006 15.1236 91.3285 15.0511 91.0018 14.9062C90.6751 14.7585 90.4165 14.5412 90.2262 14.2543C90.0387 13.9645 89.945 13.6037 89.945 13.1719C89.945 12.8082 90.0117 12.5028 90.1452 12.2557C90.2788 12.0085 90.4606 11.8097 90.6907 11.6591C90.9208 11.5085 91.1822 11.3949 91.4748 11.3182C91.7702 11.2415 92.0799 11.1875 92.4038 11.1562C92.7844 11.1165 93.0913 11.0795 93.3242 11.0455C93.5572 11.0085 93.7262 10.9545 93.8313 10.8835C93.9364 10.8125 93.989 10.7074 93.989 10.5682V10.5426C93.989 10.2727 93.9038 10.0639 93.7333 9.91619C93.5657 9.76847 93.3271 9.6946 93.0174 9.6946C92.6907 9.6946 92.4308 9.76705 92.2376 9.91193C92.0444 10.054 91.9165 10.233 91.854 10.4489L90.1751 10.3125C90.2603 9.91477 90.4279 9.57102 90.6779 9.28125C90.9279 8.98864 91.2504 8.7642 91.6452 8.60795C92.043 8.44886 92.5032 8.36932 93.0259 8.36932C93.3896 8.36932 93.7376 8.41193 94.07 8.49716C94.4052 8.58239 94.7021 8.71449 94.9606 8.89347C95.2219 9.07244 95.4279 9.30256 95.5785 9.58381C95.729 9.86222 95.8043 10.196 95.8043 10.5852V15H94.0827V14.0923H94.0316C93.9265 14.2969 93.7859 14.4773 93.6097 14.6335C93.4336 14.7869 93.2219 14.9077 92.9748 14.9957C92.7276 15.081 92.4421 15.1236 92.1183 15.1236ZM92.6381 13.8707C92.9052 13.8707 93.141 13.8182 93.3455 13.7131C93.5501 13.6051 93.7106 13.4602 93.8271 13.2784C93.9435 13.0966 94.0018 12.8906 94.0018 12.6605V11.9659C93.945 12.0028 93.8668 12.0369 93.7674 12.0682C93.6708 12.0966 93.5614 12.1236 93.4393 12.1491C93.3171 12.1719 93.195 12.1932 93.0728 12.2131C92.9506 12.2301 92.8398 12.2457 92.7404 12.2599C92.5273 12.2912 92.3413 12.3409 92.1822 12.4091C92.0231 12.4773 91.8995 12.5696 91.8114 12.6861C91.7234 12.7997 91.6793 12.9418 91.6793 13.1122C91.6793 13.3594 91.7688 13.5483 91.9478 13.679C92.1296 13.8068 92.3597 13.8707 92.6381 13.8707ZM99.0281 6.27273V15H97.2127V6.27273H99.0281Z" fill="black"/>
<path d="M41.5895 28V26.892L44.1783 24.495C44.3984 24.282 44.5831 24.0902 44.7322 23.9197C44.8838 23.7493 44.9986 23.5824 45.0767 23.419C45.1548 23.2533 45.1939 23.0746 45.1939 22.8828C45.1939 22.6697 45.1454 22.4863 45.0483 22.3324C44.9512 22.1761 44.8187 22.0566 44.6506 21.9737C44.4825 21.8885 44.2919 21.8459 44.0788 21.8459C43.8563 21.8459 43.6622 21.8909 43.4964 21.9808C43.3307 22.0708 43.2029 22.1998 43.1129 22.3679C43.023 22.536 42.978 22.736 42.978 22.968H41.5185C41.5185 22.4922 41.6262 22.0791 41.8416 21.7287C42.0571 21.3783 42.3589 21.1072 42.7472 20.9155C43.1354 20.7237 43.5829 20.6278 44.0895 20.6278C44.6103 20.6278 45.0637 20.7202 45.4496 20.9048C45.8378 21.0871 46.1397 21.3404 46.3551 21.6648C46.5705 21.9891 46.6783 22.3608 46.6783 22.7798C46.6783 23.0545 46.6238 23.3255 46.5149 23.593C46.4084 23.8606 46.2178 24.1577 45.9432 24.4844C45.6686 24.8087 45.2815 25.1982 44.782 25.6527L43.7202 26.6932V26.7429H46.7741V28H41.5895ZM50.7399 28.1598C50.1291 28.1574 49.6035 28.0071 49.1632 27.7088C48.7252 27.4105 48.3878 26.9785 48.1511 26.4126C47.9167 25.8468 47.8007 25.1662 47.8031 24.3707C47.8031 23.5777 47.9203 22.9018 48.1547 22.343C48.3914 21.7843 48.7288 21.3594 49.1667 21.0682C49.6071 20.7746 50.1315 20.6278 50.7399 20.6278C51.3483 20.6278 51.8715 20.7746 52.3095 21.0682C52.7498 21.3617 53.0884 21.7879 53.3251 22.3466C53.5618 22.9029 53.679 23.5777 53.6767 24.3707C53.6767 25.1686 53.5583 25.8504 53.3216 26.4162C53.0872 26.982 52.751 27.4141 52.313 27.7124C51.8751 28.0107 51.3507 28.1598 50.7399 28.1598ZM50.7399 26.8849C51.1565 26.8849 51.4892 26.6754 51.7377 26.2564C51.9863 25.8374 52.1094 25.2088 52.1071 24.3707C52.1071 23.8191 52.0502 23.3598 51.9366 22.9929C51.8253 22.6259 51.6667 22.3501 51.4608 22.1655C51.2572 21.9808 51.0169 21.8885 50.7399 21.8885C50.3256 21.8885 49.9941 22.0956 49.7456 22.5099C49.497 22.9242 49.3715 23.5445 49.3691 24.3707C49.3691 24.9295 49.4248 25.3958 49.536 25.7699C49.6497 26.1416 49.8095 26.4209 50.0154 26.608C50.2214 26.7926 50.4629 26.8849 50.7399 26.8849ZM57.9549 20.3864L55.6112 29.0938H54.3079L56.6516 20.3864H57.9549ZM61.4608 28.0994C61.0867 28.0971 60.7257 28.0343 60.3777 27.9112C60.032 27.7881 59.7219 27.5881 59.4473 27.3111C59.1726 27.0341 58.9548 26.6671 58.7939 26.2102C58.6352 25.7533 58.5559 25.1922 58.5559 24.527C58.5583 23.9162 58.6281 23.3705 58.7654 22.8899C58.9051 22.407 59.104 21.9974 59.362 21.6612C59.6225 21.325 59.9338 21.0694 60.296 20.8942C60.6582 20.7166 61.0642 20.6278 61.514 20.6278C61.9993 20.6278 62.4279 20.7225 62.7995 20.9119C63.1712 21.099 63.4695 21.3535 63.6944 21.6754C63.9217 21.9974 64.059 22.3584 64.1064 22.7585H62.59C62.5308 22.5052 62.4065 22.3063 62.2172 22.1619C62.0278 22.0175 61.7934 21.9453 61.514 21.9453C61.0405 21.9453 60.6807 22.1513 60.4345 22.5632C60.1906 22.9751 60.0663 23.535 60.0616 24.2429H60.1113C60.2202 24.0275 60.367 23.844 60.5517 23.6925C60.7387 23.5386 60.9506 23.4214 61.1873 23.3409C61.4264 23.258 61.6786 23.2166 61.9437 23.2166C62.3746 23.2166 62.7581 23.3184 63.0943 23.522C63.4305 23.7232 63.6956 24.0002 63.8897 24.353C64.0839 24.7057 64.1809 25.1094 64.1809 25.5639C64.1809 26.0563 64.0661 26.4943 63.8365 26.8778C63.6092 27.2614 63.2908 27.562 62.8812 27.7798C62.474 27.9953 62.0005 28.1018 61.4608 28.0994ZM61.4537 26.892C61.6904 26.892 61.9023 26.8352 62.0893 26.7216C62.2763 26.608 62.4231 26.4541 62.5297 26.2599C62.6362 26.0658 62.6895 25.848 62.6895 25.6065C62.6895 25.3651 62.6362 25.1484 62.5297 24.9567C62.4255 24.7649 62.2811 24.6122 62.0964 24.4986C61.9118 24.3849 61.7011 24.3281 61.4643 24.3281C61.2868 24.3281 61.1222 24.3613 60.9707 24.4276C60.8216 24.4938 60.6902 24.5862 60.5765 24.7045C60.4653 24.8229 60.3777 24.9602 60.3137 25.1165C60.2498 25.2704 60.2179 25.4349 60.2179 25.6101C60.2179 25.8445 60.2711 26.0587 60.3777 26.2528C60.4866 26.447 60.6333 26.602 60.818 26.718C61.005 26.834 61.2169 26.892 61.4537 26.892ZM68.1227 28.1598C67.5119 28.1574 66.9863 28.0071 66.546 27.7088C66.108 27.4105 65.7707 26.9785 65.5339 26.4126C65.2995 25.8468 65.1835 25.1662 65.1859 24.3707C65.1859 23.5777 65.3031 22.9018 65.5375 22.343C65.7742 21.7843 66.1116 21.3594 66.5495 21.0682C66.9899 20.7746 67.5143 20.6278 68.1227 20.6278C68.7311 20.6278 69.2543 20.7746 69.6923 21.0682C70.1326 21.3617 70.4712 21.7879 70.7079 22.3466C70.9447 22.9029 71.0618 23.5777 71.0595 24.3707C71.0595 25.1686 70.9411 25.8504 70.7044 26.4162C70.47 26.982 70.1338 27.4141 69.6958 27.7124C69.2579 28.0107 68.7335 28.1598 68.1227 28.1598ZM68.1227 26.8849C68.5394 26.8849 68.872 26.6754 69.1206 26.2564C69.3691 25.8374 69.4922 25.2088 69.4899 24.3707C69.4899 23.8191 69.4331 23.3598 69.3194 22.9929C69.2082 22.6259 69.0495 22.3501 68.8436 22.1655C68.64 21.9808 68.3997 21.8885 68.1227 21.8885C67.7084 21.8885 67.377 22.0956 67.1284 22.5099C66.8798 22.9242 66.7543 23.5445 66.752 24.3707C66.752 24.9295 66.8076 25.3958 66.9189 25.7699C67.0325 26.1416 67.1923 26.4209 67.3983 26.608C67.6042 26.7926 67.8457 26.8849 68.1227 26.8849ZM74.4846 28V22.5455H75.9263V23.5078H75.9902C76.1039 23.1882 76.2933 22.9361 76.5584 22.7514C76.8236 22.5668 77.1408 22.4744 77.5101 22.4744C77.8842 22.4744 78.2026 22.5679 78.4654 22.755C78.7282 22.9396 78.9034 23.1906 78.9909 23.5078H79.0478C79.159 23.1953 79.3603 22.9455 79.6515 22.7585C79.945 22.5691 80.2918 22.4744 80.6919 22.4744C81.2009 22.4744 81.6141 22.6366 81.9313 22.9609C82.2509 23.2829 82.4107 23.7398 82.4107 24.3317V28H80.9015V24.63C80.9015 24.3269 80.821 24.0997 80.66 23.9482C80.499 23.7966 80.2978 23.7209 80.0563 23.7209C79.7817 23.7209 79.5674 23.8085 79.4135 23.9837C79.2596 24.1565 79.1827 24.3849 79.1827 24.669V28H77.7161V24.598C77.7161 24.3305 77.6391 24.1174 77.4853 23.9588C77.3337 23.8002 77.1337 23.7209 76.8851 23.7209C76.717 23.7209 76.5655 23.7635 76.4306 23.8487C76.298 23.9316 76.1926 24.0488 76.1145 24.2003C76.0364 24.3494 75.9973 24.5246 75.9973 24.7259V28H74.4846ZM83.6056 28V22.5455H85.1184V28H83.6056ZM84.3656 21.8423C84.1407 21.8423 83.9477 21.7678 83.7868 21.6186C83.6281 21.4671 83.5488 21.286 83.5488 21.0753C83.5488 20.867 83.6281 20.6882 83.7868 20.5391C83.9477 20.3875 84.1407 20.3118 84.3656 20.3118C84.5905 20.3118 84.7823 20.3875 84.9409 20.5391C85.1019 20.6882 85.1824 20.867 85.1824 21.0753C85.1824 21.286 85.1019 21.4671 84.9409 21.6186C84.7823 21.7678 84.5905 21.8423 84.3656 21.8423ZM87.843 24.8466V28H86.3303V22.5455H87.772V23.5078H87.8359C87.9567 23.1906 88.1591 22.9396 88.4432 22.755C88.7273 22.5679 89.0717 22.4744 89.4766 22.4744C89.8554 22.4744 90.1856 22.5573 90.4673 22.723C90.7491 22.8887 90.968 23.1255 91.1243 23.4332C91.2805 23.7386 91.3587 24.1032 91.3587 24.527V28H89.8459V24.7969C89.8482 24.4631 89.763 24.2027 89.5902 24.0156C89.4174 23.8262 89.1795 23.7315 88.8764 23.7315C88.6728 23.7315 88.4929 23.7753 88.3366 23.8629C88.1828 23.9505 88.062 24.0784 87.9744 24.2464C87.8892 24.4122 87.8454 24.6122 87.843 24.8466Z" fill="#C2C2C2"/>
<defs>
<clipPath id="clip0_698_5645">
<rect width="33" height="33" rx="16.5" fill="white"/>
</clipPath>
</defs>
</svg>
