<svg width="33" height="33" viewBox="0 0 33 33" fill="none" xmlns="http://www.w3.org/2000/svg">
<g clip-path="url(#clip0_698_5819)">
<circle cx="16.5" cy="16.5" r="13" stroke="#E9E9E9" stroke-width="7"/>
<path d="M23.2175 23.2175C20.4838 25.9512 20.4838 30.3833 23.2175 33.117C25.9512 35.8507 30.3833 35.8507 33.117 33.117L28.1673 28.1673L23.2175 23.2175ZM25.6669 2.78075L21.7779 8.60104H21.7779L25.6669 2.78075ZM28.1673 28.1673L33.117 33.117C36.4035 29.8305 38.6417 25.6432 39.5485 21.0846L32.683 19.719L25.8175 18.3534C25.4509 20.1962 24.5461 21.8889 23.2175 23.2175L28.1673 28.1673ZM32.683 19.719L39.5485 21.0846C40.4552 16.5261 39.9898 11.801 38.2112 7.50694L31.744 10.1857L25.2769 12.8645C25.9959 14.6004 26.184 16.5105 25.8175 18.3534L32.683 19.719ZM31.744 10.1857L38.2112 7.50694C36.4325 3.21288 33.4205 -0.457321 29.5559 -3.03954L25.6669 2.78075L21.7779 8.60104C23.3402 9.64491 24.5578 11.1286 25.2769 12.8645L31.744 10.1857ZM25.6669 2.78075L29.5559 -3.03954C25.6913 -5.62175 21.1479 -7 16.5 -7V0V7C18.3789 7 20.2157 7.55717 21.7779 8.60104L25.6669 2.78075Z" fill="#7AC431"/>
</g>
<defs>
<clipPath id="clip0_698_5819">
<rect width="33" height="33" rx="16.5" fill="white"/>
</clipPath>
</defs>
</svg>
