<svg width="143" height="25" viewBox="0 0 143 25" fill="none" xmlns="http://www.w3.org/2000/svg">
<rect y="0.5" width="66" height="24" rx="4" fill="#DB0000"/>
<path d="M19.1275 16.5V9.22727H20.445V15.3956H23.6481V16.5H19.1275ZM27.114 16.6065C26.5813 16.6065 26.1197 16.4893 25.729 16.255C25.3384 16.0206 25.0354 15.6927 24.82 15.2713C24.6069 14.8499 24.5004 14.3575 24.5004 13.794C24.5004 13.2306 24.6069 12.737 24.82 12.3132C25.0354 11.8894 25.3384 11.5604 25.729 11.326C26.1197 11.0916 26.5813 10.9744 27.114 10.9744C27.6467 10.9744 28.1083 11.0916 28.4989 11.326C28.8896 11.5604 29.1914 11.8894 29.4045 12.3132C29.6199 12.737 29.7276 13.2306 29.7276 13.794C29.7276 14.3575 29.6199 14.8499 29.4045 15.2713C29.1914 15.6927 28.8896 16.0206 28.4989 16.255C28.1083 16.4893 27.6467 16.6065 27.114 16.6065ZM27.1211 15.5767C27.4099 15.5767 27.6514 15.4974 27.8455 15.3388C28.0397 15.1778 28.1841 14.9624 28.2788 14.6925C28.3758 14.4226 28.4244 14.1219 28.4244 13.7905C28.4244 13.4567 28.3758 13.1548 28.2788 12.8849C28.1841 12.6127 28.0397 12.3961 27.8455 12.2351C27.6514 12.0741 27.4099 11.9936 27.1211 11.9936C26.8252 11.9936 26.579 12.0741 26.3825 12.2351C26.1883 12.3961 26.0427 12.6127 25.9457 12.8849C25.851 13.1548 25.8036 13.4567 25.8036 13.7905C25.8036 14.1219 25.851 14.4226 25.9457 14.6925C26.0427 14.9624 26.1883 15.1778 26.3825 15.3388C26.579 15.4974 26.8252 15.5767 27.1211 15.5767ZM33.1909 18.6591C32.7292 18.6591 32.3327 18.5964 32.0012 18.4709C31.6698 18.3478 31.4035 18.1821 31.2022 17.9737C31.001 17.7654 30.8613 17.5346 30.7832 17.2812L31.9409 17.0007C31.993 17.1072 32.0687 17.2126 32.1681 17.3168C32.2676 17.4233 32.4013 17.5109 32.5694 17.5795C32.7399 17.6506 32.9541 17.6861 33.2122 17.6861C33.5768 17.6861 33.8786 17.5973 34.1177 17.4197C34.3568 17.2446 34.4764 16.9557 34.4764 16.5533V15.5199H34.4125C34.3462 15.6525 34.2491 15.7886 34.1213 15.9283C33.9958 16.0679 33.8289 16.1851 33.6206 16.2798C33.4146 16.3745 33.1554 16.4219 32.8429 16.4219C32.4238 16.4219 32.0439 16.3236 31.7029 16.1271C31.3644 15.9283 31.0945 15.6323 30.8933 15.2393C30.6944 14.844 30.595 14.3492 30.595 13.755C30.595 13.156 30.6944 12.6506 30.8933 12.2386C31.0945 11.8243 31.3656 11.5107 31.7065 11.2976C32.0474 11.0821 32.4274 10.9744 32.8464 10.9744C33.166 10.9744 33.4288 11.0289 33.6348 11.1378C33.8431 11.2443 34.0088 11.3733 34.1319 11.5249C34.255 11.674 34.3485 11.8149 34.4125 11.9474H34.4835V11.0455H35.7512V16.5888C35.7512 17.0552 35.64 17.4411 35.4174 17.7464C35.1949 18.0518 34.8907 18.2803 34.5048 18.4318C34.1189 18.5833 33.6809 18.6591 33.1909 18.6591ZM33.2015 15.4134C33.4738 15.4134 33.7058 15.3471 33.8975 15.2145C34.0893 15.0819 34.2349 14.8913 34.3343 14.6428C34.4338 14.3942 34.4835 14.0959 34.4835 13.7479C34.4835 13.4046 34.4338 13.1039 34.3343 12.8459C34.2373 12.5878 34.0929 12.3878 33.9011 12.2457C33.7117 12.1013 33.4785 12.0291 33.2015 12.0291C32.9151 12.0291 32.676 12.1037 32.4842 12.2528C32.2924 12.402 32.148 12.6068 32.051 12.8672C31.9539 13.1252 31.9054 13.4188 31.9054 13.7479C31.9054 14.0817 31.9539 14.3741 32.051 14.625C32.1504 14.8736 32.296 15.0677 32.4877 15.2074C32.6819 15.3447 32.9198 15.4134 33.2015 15.4134ZM39.5492 16.5V11.0455H40.8347V16.5H39.5492ZM40.1955 10.2713C39.9919 10.2713 39.8167 10.2038 39.6699 10.0689C39.5231 9.93158 39.4498 9.76705 39.4498 9.57528C39.4498 9.38116 39.5231 9.21662 39.6699 9.08168C39.8167 8.94437 39.9919 8.87571 40.1955 8.87571C40.4015 8.87571 40.5766 8.94437 40.7211 9.08168C40.8678 9.21662 40.9412 9.38116 40.9412 9.57528C40.9412 9.76705 40.8678 9.93158 40.7211 10.0689C40.5766 10.2038 40.4015 10.2713 40.1955 10.2713ZM43.4421 13.304V16.5H42.1566V11.0455H43.3853V11.9723H43.4492C43.5747 11.6669 43.7747 11.4242 44.0494 11.2443C44.3263 11.0644 44.6684 10.9744 45.0756 10.9744C45.4521 10.9744 45.7799 11.0549 46.0593 11.2159C46.341 11.3769 46.5588 11.6101 46.7127 11.9155C46.869 12.2209 46.9459 12.5914 46.9435 13.027V16.5H45.658V13.2259C45.658 12.8613 45.5633 12.576 45.3739 12.37C45.1869 12.1641 44.9277 12.0611 44.5962 12.0611C44.3713 12.0611 44.1713 12.1108 43.9961 12.2102C43.8233 12.3073 43.6871 12.4482 43.5877 12.6328C43.4906 12.8175 43.4421 13.0412 43.4421 13.304Z" fill="white"/>
<rect x="70.5" y="1" width="72" height="23" rx="3.5" fill="white"/>
<rect x="70.5" y="1" width="72" height="23" rx="3.5" stroke="#DB0000"/>
<path d="M93.0399 11.2266C93.0067 10.9164 92.867 10.675 92.6208 10.5021C92.377 10.3293 92.0597 10.2429 91.6691 10.2429C91.3945 10.2429 91.1589 10.2843 90.9624 10.3672C90.766 10.45 90.6156 10.5625 90.5115 10.7045C90.4073 10.8466 90.354 11.0088 90.3517 11.1911C90.3517 11.3426 90.386 11.474 90.4546 11.5852C90.5257 11.6965 90.6215 11.7912 90.7423 11.8693C90.863 11.9451 90.9968 12.009 91.1436 12.0611C91.2903 12.1132 91.4383 12.157 91.5874 12.1925L92.2693 12.3629C92.5439 12.4268 92.8079 12.5133 93.0612 12.6222C93.3169 12.7311 93.5453 12.8684 93.7465 13.0341C93.9501 13.1998 94.1111 13.3999 94.2295 13.6342C94.3479 13.8686 94.407 14.1432 94.407 14.4581C94.407 14.8842 94.2981 15.2595 94.0803 15.5838C93.8625 15.9058 93.5477 16.1579 93.1357 16.3402C92.7262 16.5201 92.2302 16.6101 91.6478 16.6101C91.082 16.6101 90.5908 16.5225 90.1741 16.3473C89.7598 16.1721 89.4355 15.9164 89.2011 15.5803C88.9691 15.2441 88.8436 14.8345 88.8247 14.3516H90.1208C90.1398 14.6049 90.2179 14.8156 90.3552 14.9837C90.4925 15.1518 90.6713 15.2772 90.8914 15.3601C91.114 15.4429 91.3625 15.4844 91.6372 15.4844C91.9236 15.4844 92.1746 15.4418 92.39 15.3565C92.6078 15.2689 92.7783 15.1482 92.9014 14.9943C93.0245 14.8381 93.0872 14.6558 93.0896 14.4474C93.0872 14.258 93.0316 14.1018 92.9227 13.9787C92.8138 13.8532 92.6611 13.7491 92.4646 13.6662C92.2704 13.581 92.0432 13.5052 91.7828 13.4389L90.9553 13.2259C90.3564 13.072 89.8829 12.8388 89.5349 12.5263C89.1892 12.2114 89.0164 11.7936 89.0164 11.2727C89.0164 10.8442 89.1324 10.469 89.3644 10.147C89.5988 9.82505 89.9172 9.57528 90.3197 9.39773C90.7222 9.2178 91.1779 9.12784 91.6869 9.12784C92.203 9.12784 92.6552 9.2178 93.0434 9.39773C93.434 9.57528 93.7406 9.82268 93.9632 10.1399C94.1857 10.4548 94.3005 10.817 94.3076 11.2266H93.0399ZM95.5248 16.5V11.0455H96.8103V16.5H95.5248ZM96.1711 10.2713C95.9675 10.2713 95.7923 10.2038 95.6455 10.0689C95.4987 9.93158 95.4253 9.76705 95.4253 9.57528C95.4253 9.38116 95.4987 9.21662 95.6455 9.08168C95.7923 8.94437 95.9675 8.87571 96.1711 8.87571C96.377 8.87571 96.5522 8.94437 96.6966 9.08168C96.8434 9.21662 96.9168 9.38116 96.9168 9.57528C96.9168 9.76705 96.8434 9.93158 96.6966 10.0689C96.5522 10.2038 96.377 10.2713 96.1711 10.2713ZM100.504 18.6591C100.043 18.6591 99.6462 18.5964 99.3147 18.4709C98.9833 18.3478 98.7169 18.1821 98.5157 17.9737C98.3145 17.7654 98.1748 17.5346 98.0967 17.2812L99.2544 17.0007C99.3064 17.1072 99.3822 17.2126 99.4816 17.3168C99.5811 17.4233 99.7148 17.5109 99.8829 17.5795C100.053 17.6506 100.268 17.6861 100.526 17.6861C100.89 17.6861 101.192 17.5973 101.431 17.4197C101.67 17.2446 101.79 16.9557 101.79 16.5533V15.5199H101.726C101.66 15.6525 101.563 15.7886 101.435 15.9283C101.309 16.0679 101.142 16.1851 100.934 16.2798C100.728 16.3745 100.469 16.4219 100.156 16.4219C99.7373 16.4219 99.3573 16.3236 99.0164 16.1271C98.6779 15.9283 98.408 15.6323 98.2068 15.2393C98.0079 14.844 97.9085 14.3492 97.9085 13.755C97.9085 13.156 98.0079 12.6506 98.2068 12.2386C98.408 11.8243 98.6791 11.5107 99.02 11.2976C99.3609 11.0821 99.7409 10.9744 100.16 10.9744C100.479 10.9744 100.742 11.0289 100.948 11.1378C101.157 11.2443 101.322 11.3733 101.445 11.5249C101.569 11.674 101.662 11.8149 101.726 11.9474H101.797V11.0455H103.065V16.5888C103.065 17.0552 102.953 17.4411 102.731 17.7464C102.508 18.0518 102.204 18.2803 101.818 18.4318C101.432 18.5833 100.994 18.6591 100.504 18.6591ZM100.515 15.4134C100.787 15.4134 101.019 15.3471 101.211 15.2145C101.403 15.0819 101.548 14.8913 101.648 14.6428C101.747 14.3942 101.797 14.0959 101.797 13.7479C101.797 13.4046 101.747 13.1039 101.648 12.8459C101.551 12.5878 101.406 12.3878 101.215 12.2457C101.025 12.1013 100.792 12.0291 100.515 12.0291C100.229 12.0291 99.9894 12.1037 99.7977 12.2528C99.6059 12.402 99.4615 12.6068 99.3644 12.8672C99.2674 13.1252 99.2188 13.4188 99.2188 13.7479C99.2188 14.0817 99.2674 14.3741 99.3644 14.625C99.4639 14.8736 99.6095 15.0677 99.8012 15.2074C99.9954 15.3447 100.233 15.4134 100.515 15.4134ZM105.668 13.304V16.5H104.382V11.0455H105.611V11.9723H105.675C105.8 11.6669 106 11.4242 106.275 11.2443C106.552 11.0644 106.894 10.9744 107.301 10.9744C107.678 10.9744 108.006 11.0549 108.285 11.2159C108.567 11.3769 108.784 11.6101 108.938 11.9155C109.095 12.2209 109.171 12.5914 109.169 13.027V16.5H107.884V13.2259C107.884 12.8613 107.789 12.576 107.6 12.37C107.412 12.1641 107.153 12.0611 106.822 12.0611C106.597 12.0611 106.397 12.1108 106.222 12.2102C106.049 12.3073 105.913 12.4482 105.813 12.6328C105.716 12.8175 105.668 13.0412 105.668 13.304ZM116.433 14.206V11.0455H117.718V16.5H116.472V15.5305H116.415C116.292 15.8359 116.09 16.0857 115.808 16.2798C115.529 16.474 115.184 16.571 114.775 16.571C114.417 16.571 114.101 16.4917 113.826 16.3331C113.554 16.1721 113.341 15.9389 113.187 15.6335C113.033 15.3258 112.956 14.9541 112.956 14.5185V11.0455H114.242V14.3196C114.242 14.6652 114.337 14.9399 114.526 15.1435C114.715 15.3471 114.964 15.4489 115.272 15.4489C115.461 15.4489 115.645 15.4027 115.822 15.3104C116 15.218 116.145 15.0807 116.259 14.8984C116.375 14.7138 116.433 14.483 116.433 14.206ZM119.04 18.5455V11.0455H120.305V11.9474H120.379C120.445 11.8149 120.539 11.674 120.66 11.5249C120.78 11.3733 120.944 11.2443 121.15 11.1378C121.356 11.0289 121.619 10.9744 121.938 10.9744C122.36 10.9744 122.739 11.0821 123.078 11.2976C123.419 11.5107 123.689 11.8267 123.888 12.2457C124.089 12.6624 124.19 13.1738 124.19 13.7798C124.19 14.3788 124.091 14.8878 123.895 15.3068C123.698 15.7259 123.431 16.0455 123.092 16.2656C122.754 16.4858 122.37 16.5959 121.942 16.5959C121.629 16.5959 121.37 16.5438 121.164 16.4396C120.958 16.3355 120.792 16.21 120.667 16.0632C120.544 15.9141 120.448 15.7732 120.379 15.6406H120.326V18.5455H119.04ZM120.301 13.7727C120.301 14.1255 120.351 14.4344 120.45 14.6996C120.552 14.9647 120.698 15.1719 120.887 15.321C121.079 15.4678 121.311 15.5412 121.583 15.5412C121.867 15.5412 122.105 15.4654 122.297 15.3139C122.489 15.16 122.633 14.9505 122.73 14.6854C122.829 14.4179 122.879 14.1136 122.879 13.7727C122.879 13.4342 122.831 13.1335 122.734 12.8707C122.637 12.608 122.492 12.402 122.3 12.2528C122.109 12.1037 121.869 12.0291 121.583 12.0291C121.308 12.0291 121.075 12.1013 120.883 12.2457C120.692 12.3902 120.546 12.5926 120.447 12.853C120.35 13.1134 120.301 13.42 120.301 13.7727Z" fill="#DB0000"/>
</svg>
