<svg width="414" height="45" viewBox="0 0 414 45" fill="none" xmlns="http://www.w3.org/2000/svg">
<rect width="414" height="45" rx="10" fill="#F6F6F6"/>
<path d="M25.6037 20.1719C25.5639 19.7997 25.3963 19.5099 25.1009 19.3026C24.8082 19.0952 24.4276 18.9915 23.9588 18.9915C23.6293 18.9915 23.3466 19.0412 23.1108 19.1406C22.875 19.2401 22.6946 19.375 22.5696 19.5455C22.4446 19.7159 22.3807 19.9105 22.3778 20.1293C22.3778 20.3111 22.419 20.4687 22.5014 20.6023C22.5866 20.7358 22.7017 20.8494 22.8466 20.9432C22.9915 21.0341 23.152 21.1108 23.3281 21.1733C23.5043 21.2358 23.6818 21.2884 23.8608 21.331L24.679 21.5355C25.0085 21.6122 25.3253 21.7159 25.6293 21.8466C25.9361 21.9773 26.2102 22.142 26.4517 22.3409C26.696 22.5398 26.8892 22.7798 27.0312 23.0611C27.1733 23.3423 27.2443 23.6719 27.2443 24.0497C27.2443 24.5611 27.1136 25.0114 26.8523 25.4006C26.5909 25.7869 26.2131 26.0895 25.7188 26.3082C25.2273 26.5241 24.6321 26.6321 23.9332 26.6321C23.2543 26.6321 22.6648 26.527 22.1648 26.3168C21.6676 26.1065 21.2784 25.7997 20.9972 25.3963C20.7188 24.9929 20.5682 24.5014 20.5455 23.9219H22.1009C22.1236 24.2259 22.2173 24.4787 22.3821 24.6804C22.5469 24.8821 22.7614 25.0327 23.0256 25.1321C23.2926 25.2315 23.5909 25.2812 23.9205 25.2812C24.2642 25.2812 24.5653 25.2301 24.8239 25.1278C25.0852 25.0227 25.2898 24.8778 25.4375 24.6932C25.5852 24.5057 25.6605 24.2869 25.6634 24.0369C25.6605 23.8097 25.5938 23.6222 25.4631 23.4744C25.3324 23.3239 25.1491 23.1989 24.9134 23.0994C24.6804 22.9972 24.4077 22.9062 24.0952 22.8267L23.1023 22.571C22.3835 22.3864 21.8153 22.1065 21.3977 21.7315C20.983 21.3537 20.7756 20.8523 20.7756 20.2273C20.7756 19.7131 20.9148 19.2628 21.1932 18.8764C21.4744 18.4901 21.8565 18.1903 22.3395 17.9773C22.8224 17.7614 23.3693 17.6534 23.9801 17.6534C24.5994 17.6534 25.142 17.7614 25.608 17.9773C26.0767 18.1903 26.4446 18.4872 26.7116 18.8679C26.9787 19.2457 27.1165 19.6804 27.125 20.1719H25.6037ZM28.5856 26.5V19.9545H30.1282V26.5H28.5856ZM29.3612 19.0256C29.1168 19.0256 28.9066 18.9446 28.7305 18.7827C28.5543 18.6179 28.4663 18.4205 28.4663 18.1903C28.4663 17.9574 28.5543 17.7599 28.7305 17.598C28.9066 17.4332 29.1168 17.3509 29.3612 17.3509C29.6083 17.3509 29.8185 17.4332 29.9918 17.598C30.168 17.7599 30.256 17.9574 30.256 18.1903C30.256 18.4205 30.168 18.6179 29.9918 18.7827C29.8185 18.9446 29.6083 19.0256 29.3612 19.0256ZM34.5611 29.0909C34.0071 29.0909 33.5313 29.0156 33.1335 28.8651C32.7358 28.7173 32.4162 28.5185 32.1747 28.2685C31.9332 28.0185 31.7656 27.7415 31.6719 27.4375L33.0611 27.1009C33.1236 27.2287 33.2145 27.3551 33.3338 27.4801C33.4531 27.608 33.6136 27.7131 33.8153 27.7955C34.0199 27.8807 34.277 27.9233 34.5866 27.9233C35.0241 27.9233 35.3864 27.8168 35.6733 27.6037C35.9602 27.3935 36.1037 27.0469 36.1037 26.5639V25.3239H36.027C35.9474 25.483 35.831 25.6463 35.6776 25.8139C35.527 25.9815 35.3267 26.1222 35.0767 26.2358C34.8295 26.3494 34.5185 26.4062 34.1435 26.4062C33.6406 26.4062 33.1847 26.2884 32.7756 26.0526C32.3693 25.8139 32.0455 25.4588 31.804 24.9872C31.5653 24.5128 31.446 23.919 31.446 23.206C31.446 22.4872 31.5653 21.8807 31.804 21.3864C32.0455 20.8892 32.3707 20.5128 32.7798 20.2571C33.1889 19.9986 33.6449 19.8693 34.1477 19.8693C34.5313 19.8693 34.8466 19.9347 35.0938 20.0653C35.3438 20.1932 35.5426 20.348 35.6903 20.5298C35.8381 20.7088 35.9503 20.8778 36.027 21.0369H36.1122V19.9545H37.6335V26.6065C37.6335 27.1662 37.5 27.6293 37.233 27.9957C36.9659 28.3622 36.6009 28.6364 36.1378 28.8182C35.6747 29 35.1491 29.0909 34.5611 29.0909ZM34.5739 25.196C34.9006 25.196 35.179 25.1165 35.4091 24.9574C35.6392 24.7983 35.8139 24.5696 35.9332 24.2713C36.0526 23.973 36.1122 23.6151 36.1122 23.1974C36.1122 22.7855 36.0526 22.4247 35.9332 22.1151C35.8168 21.8054 35.6435 21.5653 35.4134 21.3949C35.1861 21.2216 34.9063 21.1349 34.5739 21.1349C34.2301 21.1349 33.9432 21.2244 33.7131 21.4034C33.483 21.5824 33.3097 21.8281 33.1932 22.1406C33.0767 22.4503 33.0185 22.8026 33.0185 23.1974C33.0185 23.598 33.0767 23.9489 33.1932 24.25C33.3125 24.5483 33.4872 24.7812 33.7173 24.9489C33.9503 25.1136 34.2358 25.196 34.5739 25.196ZM40.7571 22.6648V26.5H39.2145V19.9545H40.6889V21.0668H40.7656C40.9162 20.7003 41.1563 20.4091 41.4858 20.1932C41.8182 19.9773 42.2287 19.8693 42.7173 19.8693C43.169 19.8693 43.5625 19.9659 43.8977 20.1591C44.2358 20.3523 44.4972 20.6321 44.6818 20.9986C44.8693 21.3651 44.9616 21.8097 44.9588 22.3324V26.5H43.4162V22.571C43.4162 22.1335 43.3026 21.7912 43.0753 21.544C42.8509 21.2969 42.5398 21.1733 42.142 21.1733C41.8722 21.1733 41.6321 21.233 41.4219 21.3523C41.2145 21.4687 41.0511 21.6378 40.9318 21.8594C40.8153 22.081 40.7571 22.3494 40.7571 22.6648ZM49.5036 26.5V19.9545H51.0462V26.5H49.5036ZM50.2791 19.0256C50.0348 19.0256 49.8246 18.9446 49.6484 18.7827C49.4723 18.6179 49.3842 18.4205 49.3842 18.1903C49.3842 17.9574 49.4723 17.7599 49.6484 17.598C49.8246 17.4332 50.0348 17.3509 50.2791 17.3509C50.5263 17.3509 50.7365 17.4332 50.9098 17.598C51.0859 17.7599 51.174 17.9574 51.174 18.1903C51.174 18.4205 51.0859 18.6179 50.9098 18.7827C50.7365 18.9446 50.5263 19.0256 50.2791 19.0256ZM54.1751 22.6648V26.5H52.6325V19.9545H54.1069V21.0668H54.1836C54.3342 20.7003 54.5742 20.4091 54.9038 20.1932C55.2362 19.9773 55.6467 19.8693 56.1353 19.8693C56.587 19.8693 56.9805 19.9659 57.3157 20.1591C57.6538 20.3523 57.9151 20.6321 58.0998 20.9986C58.2873 21.3651 58.3796 21.8097 58.3768 22.3324V26.5H56.8342V22.571C56.8342 22.1335 56.7205 21.7912 56.4933 21.544C56.2688 21.2969 55.9577 21.1733 55.56 21.1733C55.2901 21.1733 55.0501 21.233 54.8398 21.3523C54.6325 21.4687 54.4691 21.6378 54.3498 21.8594C54.2333 22.081 54.1751 22.3494 54.1751 22.6648ZM64.4641 22.6648V26.5H62.9215V19.9545H64.396V21.0668H64.4727C64.6232 20.7003 64.8633 20.4091 65.1928 20.1932C65.5252 19.9773 65.9357 19.8693 66.4244 19.8693C66.8761 19.8693 67.2695 19.9659 67.6048 20.1591C67.9428 20.3523 68.2042 20.6321 68.3888 20.9986C68.5763 21.3651 68.6687 21.8097 68.6658 22.3324V26.5H67.1232V22.571C67.1232 22.1335 67.0096 21.7912 66.7823 21.544C66.5579 21.2969 66.2468 21.1733 65.8491 21.1733C65.5792 21.1733 65.3391 21.233 65.1289 21.3523C64.9215 21.4687 64.7582 21.6378 64.6388 21.8594C64.5224 22.081 64.4641 22.3494 64.4641 22.6648ZM73.0891 26.6278C72.4499 26.6278 71.896 26.4872 71.4272 26.206C70.9585 25.9247 70.5948 25.5312 70.3363 25.0256C70.0806 24.5199 69.9528 23.929 69.9528 23.2528C69.9528 22.5767 70.0806 21.9844 70.3363 21.4759C70.5948 20.9673 70.9585 20.5724 71.4272 20.2912C71.896 20.0099 72.4499 19.8693 73.0891 19.8693C73.7283 19.8693 74.2823 20.0099 74.7511 20.2912C75.2198 20.5724 75.582 20.9673 75.8377 21.4759C76.0962 21.9844 76.2255 22.5767 76.2255 23.2528C76.2255 23.929 76.0962 24.5199 75.8377 25.0256C75.582 25.5312 75.2198 25.9247 74.7511 26.206C74.2823 26.4872 73.7283 26.6278 73.0891 26.6278ZM73.0977 25.392C73.4442 25.392 73.734 25.2969 73.967 25.1065C74.1999 24.9134 74.3732 24.6548 74.4869 24.331C74.6033 24.0071 74.6616 23.6463 74.6616 23.2486C74.6616 22.848 74.6033 22.4858 74.4869 22.1619C74.3732 21.8352 74.1999 21.5753 73.967 21.3821C73.734 21.1889 73.4442 21.0923 73.0977 21.0923C72.7425 21.0923 72.4471 21.1889 72.2113 21.3821C71.9783 21.5753 71.8036 21.8352 71.6871 22.1619C71.5735 22.4858 71.5167 22.848 71.5167 23.2486C71.5167 23.6463 71.5735 24.0071 71.6871 24.331C71.8036 24.6548 71.9783 24.9134 72.2113 25.1065C72.4471 25.2969 72.7425 25.392 73.0977 25.392ZM78.6982 26.5L76.8487 19.9545H78.4212L79.5717 24.5568H79.6314L80.8075 19.9545H82.3629L83.5391 24.5312H83.603L84.7365 19.9545H86.3132L84.4595 26.5H82.853L81.6257 22.0767H81.5362L80.3089 26.5H78.6982ZM93.6353 19.9545V21.1477H89.8725V19.9545H93.6353ZM90.8015 18.3864H92.3441V24.5312C92.3441 24.7386 92.3754 24.8977 92.4379 25.0085C92.5032 25.1165 92.5884 25.1903 92.6935 25.2301C92.7987 25.2699 92.9151 25.2898 93.043 25.2898C93.1396 25.2898 93.2276 25.2827 93.3072 25.2685C93.3896 25.2543 93.4521 25.2415 93.4947 25.2301L93.7546 26.4361C93.6722 26.4645 93.5543 26.4957 93.4009 26.5298C93.2504 26.5639 93.0657 26.5838 92.8469 26.5895C92.4606 26.6009 92.1126 26.5426 91.8029 26.4148C91.4933 26.2841 91.2475 26.0824 91.0657 25.8097C90.8867 25.5369 90.7987 25.196 90.8015 24.7869V18.3864ZM97.7102 26.6278C97.071 26.6278 96.517 26.4872 96.0483 26.206C95.5795 25.9247 95.2159 25.5312 94.9574 25.0256C94.7017 24.5199 94.5739 23.929 94.5739 23.2528C94.5739 22.5767 94.7017 21.9844 94.9574 21.4759C95.2159 20.9673 95.5795 20.5724 96.0483 20.2912C96.517 20.0099 97.071 19.8693 97.7102 19.8693C98.3494 19.8693 98.9034 20.0099 99.3722 20.2912C99.8409 20.5724 100.203 20.9673 100.459 21.4759C100.717 21.9844 100.847 22.5767 100.847 23.2528C100.847 23.929 100.717 24.5199 100.459 25.0256C100.203 25.5312 99.8409 25.9247 99.3722 26.206C98.9034 26.4872 98.3494 26.6278 97.7102 26.6278ZM97.7188 25.392C98.0653 25.392 98.3551 25.2969 98.5881 25.1065C98.821 24.9134 98.9943 24.6548 99.108 24.331C99.2244 24.0071 99.2827 23.6463 99.2827 23.2486C99.2827 22.848 99.2244 22.4858 99.108 22.1619C98.9943 21.8352 98.821 21.5753 98.5881 21.3821C98.3551 21.1889 98.0653 21.0923 97.7188 21.0923C97.3636 21.0923 97.0682 21.1889 96.8324 21.3821C96.5994 21.5753 96.4247 21.8352 96.3082 22.1619C96.1946 22.4858 96.1378 22.848 96.1378 23.2486C96.1378 23.6463 96.1946 24.0071 96.3082 24.331C96.4247 24.6548 96.5994 24.9134 96.8324 25.1065C97.0682 25.2969 97.3636 25.392 97.7188 25.392ZM106.675 22.6648V26.5H105.132V19.9545H106.607V21.0668H106.684C106.834 20.7003 107.074 20.4091 107.404 20.1932C107.736 19.9773 108.147 19.8693 108.635 19.8693C109.087 19.8693 109.48 19.9659 109.816 20.1591C110.154 20.3523 110.415 20.6321 110.6 20.9986C110.787 21.3651 110.88 21.8097 110.877 22.3324V26.5H109.334V22.571C109.334 22.1335 109.221 21.7912 108.993 21.544C108.769 21.2969 108.458 21.1733 108.06 21.1733C107.79 21.1733 107.55 21.233 107.34 21.3523C107.132 21.4687 106.969 21.6378 106.85 21.8594C106.733 22.081 106.675 22.3494 106.675 22.6648ZM115.3 26.6278C114.661 26.6278 114.107 26.4872 113.638 26.206C113.169 25.9247 112.806 25.5312 112.547 25.0256C112.292 24.5199 112.164 23.929 112.164 23.2528C112.164 22.5767 112.292 21.9844 112.547 21.4759C112.806 20.9673 113.169 20.5724 113.638 20.2912C114.107 20.0099 114.661 19.8693 115.3 19.8693C115.939 19.8693 116.493 20.0099 116.962 20.2912C117.431 20.5724 117.793 20.9673 118.049 21.4759C118.307 21.9844 118.436 22.5767 118.436 23.2528C118.436 23.929 118.307 24.5199 118.049 25.0256C117.793 25.5312 117.431 25.9247 116.962 26.206C116.493 26.4872 115.939 26.6278 115.3 26.6278ZM115.309 25.392C115.655 25.392 115.945 25.2969 116.178 25.1065C116.411 24.9134 116.584 24.6548 116.698 24.331C116.814 24.0071 116.873 23.6463 116.873 23.2486C116.873 22.848 116.814 22.4858 116.698 22.1619C116.584 21.8352 116.411 21.5753 116.178 21.3821C115.945 21.1889 115.655 21.0923 115.309 21.0923C114.953 21.0923 114.658 21.1889 114.422 21.3821C114.189 21.5753 114.015 21.8352 113.898 22.1619C113.784 22.4858 113.728 22.848 113.728 23.2486C113.728 23.6463 113.784 24.0071 113.898 24.331C114.015 24.6548 114.189 24.9134 114.422 25.1065C114.658 25.2969 114.953 25.392 115.309 25.392ZM123.014 19.9545V21.1477H119.251V19.9545H123.014ZM120.18 18.3864H121.723V24.5312C121.723 24.7386 121.754 24.8977 121.817 25.0085C121.882 25.1165 121.967 25.1903 122.072 25.2301C122.178 25.2699 122.294 25.2898 122.422 25.2898C122.518 25.2898 122.607 25.2827 122.686 25.2685C122.768 25.2543 122.831 25.2415 122.874 25.2301L123.134 26.4361C123.051 26.4645 122.933 26.4957 122.78 26.5298C122.629 26.5639 122.445 26.5838 122.226 26.5895C121.839 26.6009 121.491 26.5426 121.182 26.4148C120.872 26.2841 120.626 26.0824 120.445 25.8097C120.266 25.5369 120.178 25.196 120.18 24.7869V18.3864ZM128.824 17.7727V26.5H127.281V17.7727H128.824ZM133.265 26.6278C132.626 26.6278 132.072 26.4872 131.603 26.206C131.134 25.9247 130.771 25.5312 130.512 25.0256C130.256 24.5199 130.129 23.929 130.129 23.2528C130.129 22.5767 130.256 21.9844 130.512 21.4759C130.771 20.9673 131.134 20.5724 131.603 20.2912C132.072 20.0099 132.626 19.8693 133.265 19.8693C133.904 19.8693 134.458 20.0099 134.927 20.2912C135.396 20.5724 135.758 20.9673 136.013 21.4759C136.272 21.9844 136.401 22.5767 136.401 23.2528C136.401 23.929 136.272 24.5199 136.013 25.0256C135.758 25.5312 135.396 25.9247 134.927 26.206C134.458 26.4872 133.904 26.6278 133.265 26.6278ZM133.273 25.392C133.62 25.392 133.91 25.2969 134.143 25.1065C134.376 24.9134 134.549 24.6548 134.663 24.331C134.779 24.0071 134.837 23.6463 134.837 23.2486C134.837 22.848 134.779 22.4858 134.663 22.1619C134.549 21.8352 134.376 21.5753 134.143 21.3821C133.91 21.1889 133.62 21.0923 133.273 21.0923C132.918 21.0923 132.623 21.1889 132.387 21.3821C132.154 21.5753 131.979 21.8352 131.863 22.1619C131.749 22.4858 131.692 22.848 131.692 23.2486C131.692 23.6463 131.749 24.0071 131.863 24.331C131.979 24.6548 132.154 24.9134 132.387 25.1065C132.623 25.2969 132.918 25.392 133.273 25.392ZM142.884 21.6847L141.478 21.8381C141.438 21.696 141.368 21.5625 141.269 21.4375C141.172 21.3125 141.042 21.2116 140.877 21.1349C140.712 21.0582 140.51 21.0199 140.272 21.0199C139.951 21.0199 139.681 21.0895 139.462 21.2287C139.246 21.3679 139.14 21.5483 139.142 21.7699C139.14 21.9602 139.209 22.1151 139.351 22.2344C139.496 22.3537 139.735 22.4517 140.067 22.5284L141.184 22.767C141.803 22.9006 142.263 23.1122 142.564 23.402C142.868 23.6918 143.022 24.071 143.025 24.5398C143.022 24.9517 142.901 25.3153 142.662 25.6307C142.426 25.9432 142.098 26.1875 141.678 26.3636C141.257 26.5398 140.775 26.6278 140.229 26.6278C139.428 26.6278 138.783 26.4602 138.294 26.125C137.806 25.7869 137.515 25.3168 137.421 24.7145L138.925 24.5696C138.993 24.8651 139.138 25.0881 139.36 25.2386C139.581 25.3892 139.87 25.4645 140.225 25.4645C140.591 25.4645 140.885 25.3892 141.107 25.2386C141.331 25.0881 141.444 24.902 141.444 24.6804C141.444 24.4929 141.371 24.3381 141.226 24.2159C141.084 24.0937 140.863 24 140.561 23.9347L139.445 23.7003C138.817 23.5696 138.353 23.3494 138.051 23.0398C137.75 22.7273 137.601 22.3324 137.604 21.8551C137.601 21.4517 137.711 21.1023 137.932 20.8068C138.157 20.5085 138.468 20.2784 138.865 20.1165C139.266 19.9517 139.728 19.8693 140.25 19.8693C141.017 19.8693 141.621 20.0327 142.061 20.3594C142.505 20.6861 142.779 21.1278 142.884 21.6847ZM147.194 26.6278C146.538 26.6278 145.971 26.4915 145.494 26.2188C145.02 25.9432 144.654 25.554 144.399 25.0511C144.143 24.5455 144.015 23.9503 144.015 23.2656C144.015 22.5923 144.143 22.0014 144.399 21.4929C144.657 20.9815 145.018 20.5838 145.481 20.2997C145.944 20.0128 146.488 19.8693 147.113 19.8693C147.517 19.8693 147.897 19.9347 148.255 20.0653C148.616 20.1932 148.934 20.392 149.21 20.6619C149.488 20.9318 149.707 21.2756 149.866 21.6932C150.025 22.108 150.105 22.6023 150.105 23.1761V23.6491H144.74V22.6094H148.626C148.623 22.3139 148.559 22.0511 148.434 21.821C148.309 21.5881 148.135 21.4048 147.91 21.2713C147.689 21.1378 147.43 21.071 147.135 21.071C146.819 21.071 146.542 21.1477 146.304 21.3011C146.065 21.4517 145.879 21.6506 145.745 21.8977C145.615 22.142 145.548 22.4105 145.545 22.7031V23.6108C145.545 23.9915 145.615 24.3182 145.754 24.5909C145.893 24.8608 146.088 25.0682 146.338 25.2131C146.588 25.3551 146.88 25.4261 147.216 25.4261C147.44 25.4261 147.643 25.3949 147.825 25.3324C148.007 25.267 148.164 25.1719 148.298 25.0469C148.431 24.9219 148.532 24.767 148.6 24.5824L150.041 24.7443C149.95 25.125 149.777 25.4574 149.521 25.7415C149.268 26.0227 148.944 26.2415 148.549 26.3977C148.154 26.5511 147.703 26.6278 147.194 26.6278Z" fill="black"/>
<path d="M155.345 28.9545C155.135 28.9545 154.94 28.9375 154.761 28.9034C154.585 28.8722 154.445 28.8352 154.339 28.7926L154.697 27.5909C154.922 27.6563 155.122 27.6875 155.298 27.6847C155.474 27.6818 155.629 27.6264 155.763 27.5185C155.899 27.4134 156.014 27.2372 156.108 26.9901L156.24 26.6364L153.866 19.9545H155.503L157.011 24.8977H157.08L158.592 19.9545H160.233L157.612 27.2926C157.49 27.6392 157.328 27.9361 157.126 28.1832C156.925 28.4332 156.678 28.6236 156.385 28.7543C156.095 28.8878 155.749 28.9545 155.345 28.9545ZM163.933 26.6278C163.294 26.6278 162.74 26.4872 162.271 26.206C161.802 25.9247 161.439 25.5312 161.18 25.0256C160.924 24.5199 160.797 23.929 160.797 23.2528C160.797 22.5767 160.924 21.9844 161.18 21.4759C161.439 20.9673 161.802 20.5724 162.271 20.2912C162.74 20.0099 163.294 19.8693 163.933 19.8693C164.572 19.8693 165.126 20.0099 165.595 20.2912C166.064 20.5724 166.426 20.9673 166.681 21.4759C166.94 21.9844 167.069 22.5767 167.069 23.2528C167.069 23.929 166.94 24.5199 166.681 25.0256C166.426 25.5312 166.064 25.9247 165.595 26.206C165.126 26.4872 164.572 26.6278 163.933 26.6278ZM163.941 25.392C164.288 25.392 164.578 25.2969 164.811 25.1065C165.044 24.9134 165.217 24.6548 165.331 24.331C165.447 24.0071 165.505 23.6463 165.505 23.2486C165.505 22.848 165.447 22.4858 165.331 22.1619C165.217 21.8352 165.044 21.5753 164.811 21.3821C164.578 21.1889 164.288 21.0923 163.941 21.0923C163.586 21.0923 163.291 21.1889 163.055 21.3821C162.822 21.5753 162.647 21.8352 162.531 22.1619C162.417 22.4858 162.36 22.848 162.36 23.2486C162.36 23.6463 162.417 24.0071 162.531 24.331C162.647 24.6548 162.822 24.9134 163.055 25.1065C163.291 25.2969 163.586 25.392 163.941 25.392ZM172.55 23.7472V19.9545H174.093V26.5H172.597V25.3366H172.529C172.381 25.7031 172.138 26.0028 171.8 26.2358C171.465 26.4687 171.052 26.5852 170.56 26.5852C170.131 26.5852 169.752 26.4901 169.423 26.2997C169.096 26.1065 168.84 25.8267 168.656 25.4602C168.471 25.0909 168.379 24.6449 168.379 24.1222V19.9545H169.921V23.8835C169.921 24.2983 170.035 24.6278 170.262 24.8722C170.489 25.1165 170.788 25.2386 171.157 25.2386C171.384 25.2386 171.604 25.1832 171.817 25.0724C172.031 24.9616 172.205 24.7969 172.342 24.5781C172.481 24.3565 172.55 24.0795 172.55 23.7472ZM175.679 26.5V19.9545H177.175V21.0455H177.243C177.363 20.6676 177.567 20.3764 177.857 20.1719C178.15 19.9645 178.483 19.8608 178.858 19.8608C178.944 19.8608 179.039 19.8651 179.144 19.8736C179.252 19.8793 179.341 19.8892 179.412 19.9034V21.3224C179.347 21.2997 179.243 21.2798 179.101 21.2628C178.962 21.2429 178.827 21.233 178.696 21.233C178.415 21.233 178.162 21.294 177.938 21.4162C177.716 21.5355 177.542 21.7017 177.414 21.9148C177.286 22.1278 177.222 22.3736 177.222 22.652V26.5H175.679ZM183.414 28.9545V19.9545H184.931V21.0369H185.02C185.1 20.8778 185.212 20.7088 185.357 20.5298C185.502 20.348 185.698 20.1932 185.945 20.0653C186.192 19.9347 186.507 19.8693 186.891 19.8693C187.397 19.8693 187.853 19.9986 188.259 20.2571C188.668 20.5128 188.992 20.892 189.23 21.3949C189.472 21.8949 189.593 22.5085 189.593 23.2358C189.593 23.9545 189.475 24.5653 189.239 25.0682C189.003 25.571 188.682 25.9545 188.276 26.2188C187.87 26.483 187.409 26.6151 186.895 26.6151C186.52 26.6151 186.209 26.5526 185.962 26.4276C185.715 26.3026 185.516 26.152 185.365 25.9759C185.218 25.7969 185.103 25.6278 185.02 25.4688H184.956V28.9545H183.414ZM184.926 23.2273C184.926 23.6506 184.986 24.0213 185.105 24.3395C185.228 24.6577 185.402 24.9062 185.63 25.0852C185.86 25.2614 186.138 25.3494 186.465 25.3494C186.806 25.3494 187.091 25.2585 187.321 25.0767C187.551 24.892 187.725 24.6406 187.841 24.3224C187.961 24.0014 188.02 23.6364 188.02 23.2273C188.02 22.821 187.962 22.4602 187.846 22.1449C187.729 21.8295 187.556 21.5824 187.326 21.4034C187.096 21.2244 186.809 21.1349 186.465 21.1349C186.135 21.1349 185.855 21.2216 185.625 21.3949C185.395 21.5682 185.221 21.8111 185.101 22.1236C184.985 22.4361 184.926 22.804 184.926 23.2273ZM190.914 26.5V19.9545H192.409V21.0455H192.478C192.597 20.6676 192.801 20.3764 193.091 20.1719C193.384 19.9645 193.718 19.8608 194.093 19.8608C194.178 19.8608 194.273 19.8651 194.378 19.8736C194.486 19.8793 194.576 19.8892 194.647 19.9034V21.3224C194.581 21.2997 194.478 21.2798 194.336 21.2628C194.196 21.2429 194.061 21.233 193.931 21.233C193.65 21.233 193.397 21.294 193.172 21.4162C192.951 21.5355 192.776 21.7017 192.648 21.9148C192.52 22.1278 192.456 22.3736 192.456 22.652V26.5H190.914ZM198.257 26.6278C197.618 26.6278 197.064 26.4872 196.595 26.206C196.126 25.9247 195.763 25.5312 195.504 25.0256C195.249 24.5199 195.121 23.929 195.121 23.2528C195.121 22.5767 195.249 21.9844 195.504 21.4759C195.763 20.9673 196.126 20.5724 196.595 20.2912C197.064 20.0099 197.618 19.8693 198.257 19.8693C198.896 19.8693 199.45 20.0099 199.919 20.2912C200.388 20.5724 200.75 20.9673 201.006 21.4759C201.264 21.9844 201.393 22.5767 201.393 23.2528C201.393 23.929 201.264 24.5199 201.006 25.0256C200.75 25.5312 200.388 25.9247 199.919 26.206C199.45 26.4872 198.896 26.6278 198.257 26.6278ZM198.266 25.392C198.612 25.392 198.902 25.2969 199.135 25.1065C199.368 24.9134 199.541 24.6548 199.655 24.331C199.771 24.0071 199.83 23.6463 199.83 23.2486C199.83 22.848 199.771 22.4858 199.655 22.1619C199.541 21.8352 199.368 21.5753 199.135 21.3821C198.902 21.1889 198.612 21.0923 198.266 21.0923C197.911 21.0923 197.615 21.1889 197.379 21.3821C197.146 21.5753 196.972 21.8352 196.855 22.1619C196.741 22.4858 196.685 22.848 196.685 23.2486C196.685 23.6463 196.741 24.0071 196.855 24.331C196.972 24.6548 197.146 24.9134 197.379 25.1065C197.615 25.2969 197.911 25.392 198.266 25.392ZM205.549 29.0909C204.995 29.0909 204.52 29.0156 204.122 28.8651C203.724 28.7173 203.404 28.5185 203.163 28.2685C202.922 28.0185 202.754 27.7415 202.66 27.4375L204.049 27.1009C204.112 27.2287 204.203 27.3551 204.322 27.4801C204.441 27.608 204.602 27.7131 204.804 27.7955C205.008 27.8807 205.265 27.9233 205.575 27.9233C206.012 27.9233 206.375 27.8168 206.662 27.6037C206.949 27.3935 207.092 27.0469 207.092 26.5639V25.3239H207.015C206.936 25.483 206.819 25.6463 206.666 25.8139C206.515 25.9815 206.315 26.1222 206.065 26.2358C205.818 26.3494 205.507 26.4062 205.132 26.4062C204.629 26.4062 204.173 26.2884 203.764 26.0526C203.358 25.8139 203.034 25.4588 202.792 24.9872C202.554 24.5128 202.434 23.919 202.434 23.206C202.434 22.4872 202.554 21.8807 202.792 21.3864C203.034 20.8892 203.359 20.5128 203.768 20.2571C204.177 19.9986 204.633 19.8693 205.136 19.8693C205.52 19.8693 205.835 19.9347 206.082 20.0653C206.332 20.1932 206.531 20.348 206.679 20.5298C206.826 20.7088 206.939 20.8778 207.015 21.0369H207.1V19.9545H208.622V26.6065C208.622 27.1662 208.488 27.6293 208.221 27.9957C207.954 28.3622 207.589 28.6364 207.126 28.8182C206.663 29 206.137 29.0909 205.549 29.0909ZM205.562 25.196C205.889 25.196 206.167 25.1165 206.397 24.9574C206.627 24.7983 206.802 24.5696 206.922 24.2713C207.041 23.973 207.1 23.6151 207.1 23.1974C207.1 22.7855 207.041 22.4247 206.922 22.1151C206.805 21.8054 206.632 21.5653 206.402 21.3949C206.174 21.2216 205.895 21.1349 205.562 21.1349C205.218 21.1349 204.931 21.2244 204.701 21.4034C204.471 21.5824 204.298 21.8281 204.181 22.1406C204.065 22.4503 204.007 22.8026 204.007 23.1974C204.007 23.598 204.065 23.9489 204.181 24.25C204.301 24.5483 204.475 24.7812 204.706 24.9489C204.939 25.1136 205.224 25.196 205.562 25.196ZM210.203 26.5V19.9545H211.699V21.0455H211.767C211.886 20.6676 212.091 20.3764 212.38 20.1719C212.673 19.9645 213.007 19.8608 213.382 19.8608C213.467 19.8608 213.562 19.8651 213.667 19.8736C213.775 19.8793 213.865 19.8892 213.936 19.9034V21.3224C213.87 21.2997 213.767 21.2798 213.625 21.2628C213.485 21.2429 213.35 21.233 213.22 21.233C212.939 21.233 212.686 21.294 212.461 21.4162C212.24 21.5355 212.065 21.7017 211.937 21.9148C211.809 22.1278 211.745 22.3736 211.745 22.652V26.5H210.203ZM217.589 26.6278C216.933 26.6278 216.366 26.4915 215.888 26.2188C215.414 25.9432 215.049 25.554 214.793 25.0511C214.538 24.5455 214.41 23.9503 214.41 23.2656C214.41 22.5923 214.538 22.0014 214.793 21.4929C215.052 20.9815 215.413 20.5838 215.876 20.2997C216.339 20.0128 216.883 19.8693 217.508 19.8693C217.911 19.8693 218.292 19.9347 218.65 20.0653C219.011 20.1932 219.329 20.392 219.604 20.6619C219.883 20.9318 220.102 21.2756 220.261 21.6932C220.42 22.108 220.499 22.6023 220.499 23.1761V23.6491H215.134V22.6094H219.021C219.018 22.3139 218.954 22.0511 218.829 21.821C218.704 21.5881 218.529 21.4048 218.305 21.2713C218.083 21.1378 217.825 21.071 217.529 21.071C217.214 21.071 216.937 21.1477 216.698 21.3011C216.46 21.4517 216.273 21.6506 216.14 21.8977C216.009 22.142 215.942 22.4105 215.94 22.7031V23.6108C215.94 23.9915 216.009 24.3182 216.148 24.5909C216.288 24.8608 216.482 25.0682 216.732 25.2131C216.982 25.3551 217.275 25.4261 217.61 25.4261C217.835 25.4261 218.038 25.3949 218.219 25.3324C218.401 25.267 218.559 25.1719 218.692 25.0469C218.826 24.9219 218.927 24.767 218.995 24.5824L220.435 24.7443C220.344 25.125 220.171 25.4574 219.915 25.7415C219.663 26.0227 219.339 26.2415 218.944 26.3977C218.549 26.5511 218.097 26.6278 217.589 26.6278ZM226.978 21.6847L225.571 21.8381C225.532 21.696 225.462 21.5625 225.363 21.4375C225.266 21.3125 225.135 21.2116 224.971 21.1349C224.806 21.0582 224.604 21.0199 224.365 21.0199C224.044 21.0199 223.775 21.0895 223.556 21.2287C223.34 21.3679 223.233 21.5483 223.236 21.7699C223.233 21.9602 223.303 22.1151 223.445 22.2344C223.59 22.3537 223.828 22.4517 224.161 22.5284L225.277 22.767C225.897 22.9006 226.357 23.1122 226.658 23.402C226.962 23.6918 227.115 24.071 227.118 24.5398C227.115 24.9517 226.995 25.3153 226.756 25.6307C226.52 25.9432 226.192 26.1875 225.772 26.3636C225.351 26.5398 224.868 26.6278 224.323 26.6278C223.522 26.6278 222.877 26.4602 222.388 26.125C221.9 25.7869 221.608 25.3168 221.515 24.7145L223.019 24.5696C223.087 24.8651 223.232 25.0881 223.453 25.2386C223.675 25.3892 223.963 25.4645 224.319 25.4645C224.685 25.4645 224.979 25.3892 225.201 25.2386C225.425 25.0881 225.537 24.902 225.537 24.6804C225.537 24.4929 225.465 24.3381 225.32 24.2159C225.178 24.0937 224.956 24 224.655 23.9347L223.539 23.7003C222.911 23.5696 222.446 23.3494 222.145 23.0398C221.844 22.7273 221.695 22.3324 221.698 21.8551C221.695 21.4517 221.804 21.1023 222.026 20.8068C222.25 20.5085 222.561 20.2784 222.959 20.1165C223.36 19.9517 223.821 19.8693 224.344 19.8693C225.111 19.8693 225.715 20.0327 226.155 20.3594C226.598 20.6861 226.873 21.1278 226.978 21.6847ZM233.564 21.6847L232.157 21.8381C232.118 21.696 232.048 21.5625 231.949 21.4375C231.852 21.3125 231.721 21.2116 231.556 21.1349C231.392 21.0582 231.19 21.0199 230.951 21.0199C230.63 21.0199 230.36 21.0895 230.142 21.2287C229.926 21.3679 229.819 21.5483 229.822 21.7699C229.819 21.9602 229.889 22.1151 230.031 22.2344C230.176 22.3537 230.414 22.4517 230.747 22.5284L231.863 22.767C232.483 22.9006 232.943 23.1122 233.244 23.402C233.548 23.6918 233.701 24.071 233.704 24.5398C233.701 24.9517 233.581 25.3153 233.342 25.6307C233.106 25.9432 232.778 26.1875 232.358 26.3636C231.937 26.5398 231.454 26.6278 230.909 26.6278C230.108 26.6278 229.463 26.4602 228.974 26.125C228.485 25.7869 228.194 25.3168 228.1 24.7145L229.605 24.5696C229.673 24.8651 229.818 25.0881 230.039 25.2386C230.261 25.3892 230.549 25.4645 230.904 25.4645C231.271 25.4645 231.565 25.3892 231.787 25.2386C232.011 25.0881 232.123 24.902 232.123 24.6804C232.123 24.4929 232.051 24.3381 231.906 24.2159C231.764 24.0937 231.542 24 231.241 23.9347L230.125 23.7003C229.497 23.5696 229.032 23.3494 228.731 23.0398C228.43 22.7273 228.281 22.3324 228.284 21.8551C228.281 21.4517 228.39 21.1023 228.612 20.8068C228.836 20.5085 229.147 20.2784 229.545 20.1165C229.946 19.9517 230.407 19.8693 230.93 19.8693C231.697 19.8693 232.301 20.0327 232.741 20.3594C233.184 20.6861 233.458 21.1278 233.564 21.6847ZM236.864 17.7727L236.723 23.9347H235.351L235.215 17.7727H236.864ZM236.037 26.5938C235.779 26.5938 235.557 26.5028 235.373 26.321C235.191 26.1392 235.1 25.9176 235.1 25.6562C235.1 25.4006 235.191 25.1818 235.373 25C235.557 24.8182 235.779 24.7273 236.037 24.7273C236.29 24.7273 236.509 24.8182 236.694 25C236.881 25.1818 236.975 25.4006 236.975 25.6562C236.975 25.8295 236.931 25.9872 236.843 26.1293C236.757 26.2713 236.644 26.3849 236.502 26.4702C236.363 26.5526 236.208 26.5938 236.037 26.5938Z" fill="#DB0000"/>
<rect x="251" y="10.5" width="66" height="24" rx="4" fill="#DB0000"/>
<path d="M270.127 26.5V19.2273H271.445V25.3956H274.648V26.5H270.127ZM278.114 26.6065C277.581 26.6065 277.12 26.4893 276.729 26.255C276.338 26.0206 276.035 25.6927 275.82 25.2713C275.607 24.8499 275.5 24.3575 275.5 23.794C275.5 23.2306 275.607 22.737 275.82 22.3132C276.035 21.8894 276.338 21.5604 276.729 21.326C277.12 21.0916 277.581 20.9744 278.114 20.9744C278.647 20.9744 279.108 21.0916 279.499 21.326C279.89 21.5604 280.191 21.8894 280.404 22.3132C280.62 22.737 280.728 23.2306 280.728 23.794C280.728 24.3575 280.62 24.8499 280.404 25.2713C280.191 25.6927 279.89 26.0206 279.499 26.255C279.108 26.4893 278.647 26.6065 278.114 26.6065ZM278.121 25.5767C278.41 25.5767 278.651 25.4974 278.846 25.3388C279.04 25.1778 279.184 24.9624 279.279 24.6925C279.376 24.4226 279.424 24.1219 279.424 23.7905C279.424 23.4567 279.376 23.1548 279.279 22.8849C279.184 22.6127 279.04 22.3961 278.846 22.2351C278.651 22.0741 278.41 21.9936 278.121 21.9936C277.825 21.9936 277.579 22.0741 277.382 22.2351C277.188 22.3961 277.043 22.6127 276.946 22.8849C276.851 23.1548 276.804 23.4567 276.804 23.7905C276.804 24.1219 276.851 24.4226 276.946 24.6925C277.043 24.9624 277.188 25.1778 277.382 25.3388C277.579 25.4974 277.825 25.5767 278.121 25.5767ZM284.191 28.6591C283.729 28.6591 283.333 28.5964 283.001 28.4709C282.67 28.3478 282.403 28.1821 282.202 27.9737C282.001 27.7654 281.861 27.5346 281.783 27.2812L282.941 27.0007C282.993 27.1072 283.069 27.2126 283.168 27.3168C283.268 27.4233 283.401 27.5109 283.569 27.5795C283.74 27.6506 283.954 27.6861 284.212 27.6861C284.577 27.6861 284.879 27.5973 285.118 27.4197C285.357 27.2446 285.476 26.9557 285.476 26.5533V25.5199H285.412C285.346 25.6525 285.249 25.7886 285.121 25.9283C284.996 26.0679 284.829 26.1851 284.621 26.2798C284.415 26.3745 284.155 26.4219 283.843 26.4219C283.424 26.4219 283.044 26.3236 282.703 26.1271C282.364 25.9283 282.095 25.6323 281.893 25.2393C281.694 24.844 281.595 24.3492 281.595 23.755C281.595 23.156 281.694 22.6506 281.893 22.2386C282.095 21.8243 282.366 21.5107 282.706 21.2976C283.047 21.0821 283.427 20.9744 283.846 20.9744C284.166 20.9744 284.429 21.0289 284.635 21.1378C284.843 21.2443 285.009 21.3733 285.132 21.5249C285.255 21.674 285.349 21.8149 285.412 21.9474H285.483V21.0455H286.751V26.5888C286.751 27.0552 286.64 27.4411 286.417 27.7464C286.195 28.0518 285.891 28.2803 285.505 28.4318C285.119 28.5833 284.681 28.6591 284.191 28.6591ZM284.202 25.4134C284.474 25.4134 284.706 25.3471 284.898 25.2145C285.089 25.0819 285.235 24.8913 285.334 24.6428C285.434 24.3942 285.483 24.0959 285.483 23.7479C285.483 23.4046 285.434 23.1039 285.334 22.8459C285.237 22.5878 285.093 22.3878 284.901 22.2457C284.712 22.1013 284.479 22.0291 284.202 22.0291C283.915 22.0291 283.676 22.1037 283.484 22.2528C283.292 22.402 283.148 22.6068 283.051 22.8672C282.954 23.1252 282.905 23.4188 282.905 23.7479C282.905 24.0817 282.954 24.3741 283.051 24.625C283.15 24.8736 283.296 25.0677 283.488 25.2074C283.682 25.3447 283.92 25.4134 284.202 25.4134ZM290.549 26.5V21.0455H291.835V26.5H290.549ZM291.195 20.2713C290.992 20.2713 290.817 20.2038 290.67 20.0689C290.523 19.9316 290.45 19.767 290.45 19.5753C290.45 19.3812 290.523 19.2166 290.67 19.0817C290.817 18.9444 290.992 18.8757 291.195 18.8757C291.401 18.8757 291.577 18.9444 291.721 19.0817C291.868 19.2166 291.941 19.3812 291.941 19.5753C291.941 19.767 291.868 19.9316 291.721 20.0689C291.577 20.2038 291.401 20.2713 291.195 20.2713ZM294.442 23.304V26.5H293.157V21.0455H294.385V21.9723H294.449C294.575 21.6669 294.775 21.4242 295.049 21.2443C295.326 21.0644 295.668 20.9744 296.076 20.9744C296.452 20.9744 296.78 21.0549 297.059 21.2159C297.341 21.3769 297.559 21.6101 297.713 21.9155C297.869 22.2209 297.946 22.5914 297.944 23.027V26.5H296.658V23.2259C296.658 22.8613 296.563 22.576 296.374 22.37C296.187 22.1641 295.928 22.0611 295.596 22.0611C295.371 22.0611 295.171 22.1108 294.996 22.2102C294.823 22.3073 294.687 22.4482 294.588 22.6328C294.491 22.8175 294.442 23.0412 294.442 23.304Z" fill="white"/>
<rect x="321.5" y="11" width="72" height="23" rx="3.5" fill="white"/>
<rect x="321.5" y="11" width="72" height="23" rx="3.5" stroke="#DB0000"/>
<path d="M344.04 21.2266C344.007 20.9164 343.867 20.675 343.621 20.5021C343.377 20.3293 343.06 20.2429 342.669 20.2429C342.395 20.2429 342.159 20.2843 341.962 20.3672C341.766 20.45 341.616 20.5625 341.511 20.7045C341.407 20.8466 341.354 21.0088 341.352 21.1911C341.352 21.3426 341.386 21.474 341.455 21.5852C341.526 21.6965 341.622 21.7912 341.742 21.8693C341.863 21.9451 341.997 22.009 342.144 22.0611C342.29 22.1132 342.438 22.157 342.587 22.1925L343.269 22.3629C343.544 22.4268 343.808 22.5133 344.061 22.6222C344.317 22.7311 344.545 22.8684 344.747 23.0341C344.95 23.1998 345.111 23.3999 345.229 23.6342C345.348 23.8686 345.407 24.1432 345.407 24.4581C345.407 24.8842 345.298 25.2595 345.08 25.5838C344.863 25.9058 344.548 26.1579 344.136 26.3402C343.726 26.5201 343.23 26.6101 342.648 26.6101C342.082 26.6101 341.591 26.5225 341.174 26.3473C340.76 26.1721 340.435 25.9164 340.201 25.5803C339.969 25.2441 339.844 24.8345 339.825 24.3516H341.121C341.14 24.6049 341.218 24.8156 341.355 24.9837C341.493 25.1518 341.671 25.2772 341.891 25.3601C342.114 25.4429 342.363 25.4844 342.637 25.4844C342.924 25.4844 343.175 25.4418 343.39 25.3565C343.608 25.2689 343.778 25.1482 343.901 24.9943C344.024 24.8381 344.087 24.6558 344.09 24.4474C344.087 24.258 344.032 24.1018 343.923 23.9787C343.814 23.8532 343.661 23.7491 343.465 23.6662C343.27 23.581 343.043 23.5052 342.783 23.4389L341.955 23.2259C341.356 23.072 340.883 22.8388 340.535 22.5263C340.189 22.2114 340.016 21.7936 340.016 21.2727C340.016 20.8442 340.132 20.469 340.364 20.147C340.599 19.825 340.917 19.5753 341.32 19.3977C341.722 19.2178 342.178 19.1278 342.687 19.1278C343.203 19.1278 343.655 19.2178 344.043 19.3977C344.434 19.5753 344.741 19.8227 344.963 20.1399C345.186 20.4548 345.301 20.817 345.308 21.2266H344.04ZM346.525 26.5V21.0455H347.81V26.5H346.525ZM347.171 20.2713C346.967 20.2713 346.792 20.2038 346.646 20.0689C346.499 19.9316 346.425 19.767 346.425 19.5753C346.425 19.3812 346.499 19.2166 346.646 19.0817C346.792 18.9444 346.967 18.8757 347.171 18.8757C347.377 18.8757 347.552 18.9444 347.697 19.0817C347.843 19.2166 347.917 19.3812 347.917 19.5753C347.917 19.767 347.843 19.9316 347.697 20.0689C347.552 20.2038 347.377 20.2713 347.171 20.2713ZM351.504 28.6591C351.043 28.6591 350.646 28.5964 350.315 28.4709C349.983 28.3478 349.717 28.1821 349.516 27.9737C349.314 27.7654 349.175 27.5346 349.097 27.2812L350.254 27.0007C350.306 27.1072 350.382 27.2126 350.482 27.3168C350.581 27.4233 350.715 27.5109 350.883 27.5795C351.053 27.6506 351.268 27.6861 351.526 27.6861C351.89 27.6861 352.192 27.5973 352.431 27.4197C352.67 27.2446 352.79 26.9557 352.79 26.5533V25.5199H352.726C352.66 25.6525 352.563 25.7886 352.435 25.9283C352.309 26.0679 352.142 26.1851 351.934 26.2798C351.728 26.3745 351.469 26.4219 351.156 26.4219C350.737 26.4219 350.357 26.3236 350.016 26.1271C349.678 25.9283 349.408 25.6323 349.207 25.2393C349.008 24.844 348.908 24.3492 348.908 23.755C348.908 23.156 349.008 22.6506 349.207 22.2386C349.408 21.8243 349.679 21.5107 350.02 21.2976C350.361 21.0821 350.741 20.9744 351.16 20.9744C351.479 20.9744 351.742 21.0289 351.948 21.1378C352.157 21.2443 352.322 21.3733 352.445 21.5249C352.569 21.674 352.662 21.8149 352.726 21.9474H352.797V21.0455H354.065V26.5888C354.065 27.0552 353.953 27.4411 353.731 27.7464C353.508 28.0518 353.204 28.2803 352.818 28.4318C352.432 28.5833 351.994 28.6591 351.504 28.6591ZM351.515 25.4134C351.787 25.4134 352.019 25.3471 352.211 25.2145C352.403 25.0819 352.548 24.8913 352.648 24.6428C352.747 24.3942 352.797 24.0959 352.797 23.7479C352.797 23.4046 352.747 23.1039 352.648 22.8459C352.551 22.5878 352.406 22.3878 352.215 22.2457C352.025 22.1013 351.792 22.0291 351.515 22.0291C351.229 22.0291 350.989 22.1037 350.798 22.2528C350.606 22.402 350.461 22.6068 350.364 22.8672C350.267 23.1252 350.219 23.4188 350.219 23.7479C350.219 24.0817 350.267 24.3741 350.364 24.625C350.464 24.8736 350.609 25.0677 350.801 25.2074C350.995 25.3447 351.233 25.4134 351.515 25.4134ZM356.668 23.304V26.5H355.382V21.0455H356.611V21.9723H356.675C356.8 21.6669 357 21.4242 357.275 21.2443C357.552 21.0644 357.894 20.9744 358.301 20.9744C358.678 20.9744 359.006 21.0549 359.285 21.2159C359.567 21.3769 359.784 21.6101 359.938 21.9155C360.095 22.2209 360.171 22.5914 360.169 23.027V26.5H358.884V23.2259C358.884 22.8613 358.789 22.576 358.6 22.37C358.412 22.1641 358.153 22.0611 357.822 22.0611C357.597 22.0611 357.397 22.1108 357.222 22.2102C357.049 22.3073 356.913 22.4482 356.813 22.6328C356.716 22.8175 356.668 23.0412 356.668 23.304ZM367.433 24.206V21.0455H368.718V26.5H367.472V25.5305H367.415C367.292 25.8359 367.09 26.0857 366.808 26.2798C366.529 26.474 366.184 26.571 365.775 26.571C365.417 26.571 365.101 26.4917 364.826 26.3331C364.554 26.1721 364.341 25.9389 364.187 25.6335C364.033 25.3258 363.956 24.9541 363.956 24.5185V21.0455H365.242V24.3196C365.242 24.6652 365.337 24.9399 365.526 25.1435C365.715 25.3471 365.964 25.4489 366.272 25.4489C366.461 25.4489 366.645 25.4027 366.822 25.3104C367 25.218 367.145 25.0807 367.259 24.8984C367.375 24.7138 367.433 24.483 367.433 24.206ZM370.04 28.5455V21.0455H371.305V21.9474H371.379C371.445 21.8149 371.539 21.674 371.66 21.5249C371.78 21.3733 371.944 21.2443 372.15 21.1378C372.356 21.0289 372.619 20.9744 372.938 20.9744C373.36 20.9744 373.739 21.0821 374.078 21.2976C374.419 21.5107 374.689 21.8267 374.888 22.2457C375.089 22.6624 375.19 23.1738 375.19 23.7798C375.19 24.3788 375.091 24.8878 374.895 25.3068C374.698 25.7259 374.431 26.0455 374.092 26.2656C373.754 26.4858 373.37 26.5959 372.942 26.5959C372.629 26.5959 372.37 26.5438 372.164 26.4396C371.958 26.3355 371.792 26.21 371.667 26.0632C371.544 25.9141 371.448 25.7732 371.379 25.6406H371.326V28.5455H370.04ZM371.301 23.7727C371.301 24.1255 371.351 24.4344 371.45 24.6996C371.552 24.9647 371.698 25.1719 371.887 25.321C372.079 25.4678 372.311 25.5412 372.583 25.5412C372.867 25.5412 373.105 25.4654 373.297 25.3139C373.489 25.16 373.633 24.9505 373.73 24.6854C373.829 24.4179 373.879 24.1136 373.879 23.7727C373.879 23.4342 373.831 23.1335 373.734 22.8707C373.637 22.608 373.492 22.402 373.3 22.2528C373.109 22.1037 372.869 22.0291 372.583 22.0291C372.308 22.0291 372.075 22.1013 371.883 22.2457C371.692 22.3902 371.546 22.5926 371.447 22.853C371.35 23.1134 371.301 23.42 371.301 23.7727Z" fill="#DB0000"/>
</svg>
