<svg width="35" height="35" viewBox="0 0 35 35" fill="none" xmlns="http://www.w3.org/2000/svg">
<path d="M7.44141 4.40088C10.5494 2.01457 14.41 0.806197 18.335 1.00537C22.4381 1.21369 26.316 2.94459 29.2119 5.85889C32.1077 8.77315 33.8138 12.6618 33.9961 16.7661C34.1783 20.8706 32.8245 24.8967 30.1982 28.0562C27.5719 31.2156 23.8606 33.282 19.792 33.853C15.7236 34.4238 11.5887 33.4574 8.19434 31.1431C4.79991 28.8285 2.39018 25.3314 1.43555 21.3354C0.48111 17.3396 1.04951 13.1305 3.03125 9.53174C3.28283 9.0758 3.8572 8.90952 4.31348 9.16064C4.76992 9.41203 4.93582 9.98638 4.68457 10.4429C2.92922 13.6305 2.42593 17.3585 3.27148 20.8979C4.1171 24.4372 6.2513 27.5345 9.25781 29.5845C12.2643 31.6343 15.9268 32.4895 19.5303 31.9839C23.1337 31.4782 26.42 29.6482 28.7461 26.8501C31.0723 24.0517 32.2727 20.4855 32.1113 16.8501C31.9499 13.2148 30.4379 9.77022 27.873 7.18896C25.3082 4.60796 21.8733 3.07467 18.2393 2.89014C14.6159 2.70631 11.0543 3.87679 8.24512 6.17139L7.31543 7.04932C6.69164 7.63953 5.68913 7.26187 5.56641 6.45752L5.55371 6.2915L5.55469 3.49951C5.55491 2.97856 5.97706 2.55525 6.49805 2.55518C7.01912 2.55518 7.44122 2.97848 7.44141 3.49951V4.40088ZM17.499 5.99951C23.8499 5.99983 28.9989 11.1486 28.999 17.4995C28.9989 23.8505 23.8499 28.9992 17.499 28.9995C11.1478 28.9995 5.99918 23.8507 5.99902 17.4995C5.99919 11.1484 11.1479 5.99951 17.499 5.99951ZM17.499 10.5991C17.0021 10.5991 16.5988 11.0026 16.5986 11.4995V17.0669L11.9365 20.7964C11.5484 21.1069 11.4855 21.6739 11.7959 22.062C12.1065 22.4498 12.6735 22.5131 13.0615 22.2026L17.9482 18.2925C18.2326 18.0648 18.3993 17.7193 18.3994 17.355V11.4995C18.3993 11.0028 17.9957 10.5994 17.499 10.5991Z" fill="#D8D8D8"/>
</svg>
