<svg width="109" height="35" viewBox="0 0 109 35" fill="none" xmlns="http://www.w3.org/2000/svg">
<path d="M7.44043 4.40137C10.5484 2.01505 14.409 0.806691 18.334 1.00586C22.4371 1.21418 26.3151 2.94416 29.2109 5.8584C32.1067 8.77261 33.8127 12.6614 33.9951 16.7656C34.1773 20.8701 32.8235 24.8962 30.1973 28.0557C27.5709 31.2152 23.8597 33.2815 19.791 33.8525C15.7226 34.4233 11.5877 33.4569 8.19336 31.1426C4.79908 28.8281 2.38925 25.3318 1.43457 21.3359C0.480055 17.3401 1.04863 13.131 3.03027 9.53223C3.28182 9.07605 3.85612 8.90981 4.3125 9.16113C4.76894 9.41256 4.93493 9.98686 4.68359 10.4434C2.92847 13.6308 2.42506 17.3583 3.27051 20.8975C4.11611 24.4367 6.2503 27.535 9.25684 29.585C12.2633 31.6346 15.9259 32.489 19.5293 31.9834C23.1328 31.4777 26.419 29.6478 28.7451 26.8496C31.0713 24.0512 32.2717 20.485 32.1104 16.8496C31.9489 13.2144 30.4369 9.76969 27.8721 7.18848C25.3072 4.60747 21.8723 3.07516 18.2383 2.89062C14.615 2.7068 11.0533 3.87636 8.24414 6.1709L7.31445 7.04883C6.69066 7.63906 5.68815 7.26139 5.56543 6.45703L5.55273 6.29102L5.55371 3.49902C5.55393 2.97809 5.97611 2.55577 6.49707 2.55566C7.01814 2.55566 7.44024 2.978 7.44043 3.49902V4.40137ZM17.498 5.99902C23.849 5.99931 28.9979 11.1481 28.998 17.499C28.998 23.8501 23.8491 28.9987 17.498 28.999C11.1468 28.999 5.99806 23.8503 5.99805 17.499C5.99821 11.1479 11.1469 5.99902 17.498 5.99902ZM17.498 10.5986C17.0011 10.5986 16.5978 11.0021 16.5977 11.499V17.0664L11.9355 20.7959C11.5474 21.1064 11.4845 21.6734 11.7949 22.0615C12.1055 22.4495 12.6725 22.5126 13.0605 22.2021L17.9473 18.292C18.2316 18.0643 18.3984 17.7188 18.3984 17.3545V11.499C18.3983 11.0023 17.9948 10.5989 17.498 10.5986Z" fill="#D8D8D8"/>
<path d="M42.4242 8.79355V7.27224H49.5918V8.79355H46.9199V15.9995H45.0961V8.79355H42.4242ZM52.7463 16.1274C52.0843 16.1274 51.5119 15.9867 51.0289 15.7055C50.5488 15.4214 50.1781 15.0265 49.9167 14.5208C49.6554 14.0123 49.5247 13.4228 49.5247 12.7524C49.5247 12.0762 49.6554 11.4853 49.9167 10.9796C50.1781 10.4711 50.5488 10.0762 51.0289 9.79497C51.5119 9.51088 52.0843 9.36883 52.7463 9.36883C53.4082 9.36883 53.9792 9.51088 54.4593 9.79497C54.9423 10.0762 55.3145 10.4711 55.5758 10.9796C55.8372 11.4853 55.9679 12.0762 55.9679 12.7524C55.9679 13.4228 55.8372 14.0123 55.5758 14.5208C55.3145 15.0265 54.9423 15.4214 54.4593 15.7055C53.9792 15.9867 53.4082 16.1274 52.7463 16.1274ZM52.7548 14.7211C53.0559 14.7211 53.3074 14.6359 53.5091 14.4654C53.7108 14.2921 53.8627 14.0563 53.965 13.758C54.0701 13.4597 54.1227 13.1203 54.1227 12.7396C54.1227 12.3589 54.0701 12.0194 53.965 11.7211C53.8627 11.4228 53.7108 11.187 53.5091 11.0137C53.3074 10.8404 53.0559 10.7538 52.7548 10.7538C52.4508 10.7538 52.1951 10.8404 51.9877 11.0137C51.7832 11.187 51.6284 11.4228 51.5233 11.7211C51.421 12.0194 51.3699 12.3589 51.3699 12.7396C51.3699 13.1203 51.421 13.4597 51.5233 13.758C51.6284 14.0563 51.7832 14.2921 51.9877 14.4654C52.1951 14.6359 52.4508 14.7211 52.7548 14.7211ZM60.6298 9.45406V10.8177H56.688V9.45406H60.6298ZM57.5829 7.88588H59.3983V13.9881C59.3983 14.1558 59.4238 14.2864 59.475 14.3802C59.5261 14.4711 59.5971 14.535 59.688 14.572C59.7818 14.6089 59.8897 14.6274 60.0119 14.6274C60.0971 14.6274 60.1824 14.6203 60.2676 14.606C60.3528 14.589 60.4181 14.5762 60.4636 14.5677L60.7491 15.9185C60.6582 15.947 60.5304 15.9796 60.3656 16.0166C60.2008 16.0563 60.0005 16.0805 59.7647 16.089C59.3272 16.106 58.9437 16.0478 58.6142 15.9143C58.2875 15.7808 58.0332 15.5734 57.8514 15.2921C57.6696 15.0109 57.5801 14.6558 57.5829 14.2268V7.88588ZM63.6788 16.1231C63.2612 16.1231 62.889 16.0506 62.5623 15.9058C62.2356 15.758 61.9771 15.5407 61.7868 15.2538C61.5993 14.964 61.5055 14.6032 61.5055 14.1714C61.5055 13.8078 61.5723 13.5024 61.7058 13.2552C61.8393 13.008 62.0211 12.8092 62.2512 12.6586C62.4814 12.508 62.7427 12.3944 63.0353 12.3177C63.3308 12.241 63.6404 12.187 63.9643 12.1558C64.345 12.116 64.6518 12.0791 64.8848 12.045C65.1177 12.008 65.2868 11.9541 65.3919 11.883C65.497 11.812 65.5495 11.7069 65.5495 11.5677V11.5421C65.5495 11.2722 65.4643 11.0634 65.2939 10.9157C65.1262 10.768 64.8876 10.6941 64.5779 10.6941C64.2512 10.6941 63.9913 10.7666 63.7981 10.9114C63.6049 11.0535 63.4771 11.2325 63.4146 11.4484L61.7356 11.312C61.8208 10.9143 61.9885 10.5705 62.2385 10.2808C62.4885 9.98815 62.8109 9.76372 63.2058 9.60747C63.6035 9.44838 64.0637 9.36883 64.5865 9.36883C64.9501 9.36883 65.2981 9.41144 65.6305 9.49667C65.9657 9.5819 66.2626 9.714 66.5211 9.89298C66.7825 10.072 66.9885 10.3021 67.139 10.5833C67.2896 10.8617 67.3649 11.1955 67.3649 11.5847V15.9995H65.6433V15.0918H65.5922C65.487 15.2964 65.3464 15.4768 65.1703 15.633C64.9941 15.7864 64.7825 15.9072 64.5353 15.9953C64.2882 16.0805 64.0027 16.1231 63.6788 16.1231ZM64.1987 14.8703C64.4657 14.8703 64.7015 14.8177 64.9061 14.7126C65.1106 14.6046 65.2711 14.4597 65.3876 14.2779C65.5041 14.0961 65.5623 13.8901 65.5623 13.66V12.9654C65.5055 13.0024 65.4274 13.0364 65.3279 13.0677C65.2314 13.0961 65.122 13.1231 64.9998 13.1487C64.8777 13.1714 64.7555 13.1927 64.6333 13.2126C64.5112 13.2296 64.4004 13.2453 64.301 13.2595C64.0879 13.2907 63.9018 13.3404 63.7427 13.4086C63.5836 13.4768 63.46 13.5691 63.372 13.6856C63.2839 13.7992 63.2399 13.9413 63.2399 14.1117C63.2399 14.3589 63.3294 14.5478 63.5083 14.6785C63.6902 14.8063 63.9203 14.8703 64.1987 14.8703ZM70.5886 7.27224V15.9995H68.7733V7.27224H70.5886ZM76.6994 7.27224V15.9995H74.8542V7.27224H76.6994ZM79.9988 12.2154V15.9995H78.1834V9.45406H79.9135V10.6089H79.9902C80.1351 10.2282 80.378 9.92707 80.7189 9.70548C81.0598 9.48105 81.4732 9.36883 81.959 9.36883C82.4135 9.36883 82.8098 9.46826 83.1479 9.66713C83.486 9.86599 83.7488 10.1501 83.9363 10.5194C84.1238 10.8859 84.2175 11.3234 84.2175 11.8319V15.9995H82.4022V12.1558C82.405 11.7552 82.3027 11.4427 82.0953 11.2183C81.888 10.991 81.6025 10.8774 81.2388 10.8774C80.9945 10.8774 80.7786 10.9299 80.5911 11.035C80.4064 11.1401 80.2615 11.2935 80.1564 11.4953C80.0542 11.6941 80.0016 11.9342 79.9988 12.2154ZM85.6483 18.4541V9.45406H87.438V10.5535H87.519C87.5985 10.3774 87.7136 10.1984 87.8642 10.0166C88.0176 9.8319 88.2164 9.67849 88.4608 9.55633C88.7079 9.43133 89.0147 9.36883 89.3812 9.36883C89.8585 9.36883 90.2988 9.49383 90.7022 9.74383C91.1056 9.99099 91.4281 10.3646 91.6696 10.8646C91.911 11.3617 92.0318 11.9853 92.0318 12.7353C92.0318 13.4654 91.9139 14.0819 91.6781 14.5847C91.4451 15.0847 91.127 15.464 90.7235 15.7225C90.323 15.9782 89.8741 16.106 89.377 16.106C89.0247 16.106 88.725 16.0478 88.4778 15.9313C88.2335 15.8149 88.0332 15.6685 87.877 15.4924C87.7207 15.3134 87.6014 15.133 87.519 14.9512H87.4636V18.4541H85.6483ZM87.4252 12.7268C87.4252 13.116 87.4792 13.4555 87.5872 13.7453C87.6951 14.035 87.8514 14.2609 88.0559 14.4228C88.2605 14.5819 88.5091 14.6614 88.8017 14.6614C89.0971 14.6614 89.3471 14.5805 89.5517 14.4185C89.7562 14.2538 89.911 14.0265 90.0162 13.7367C90.1241 13.4441 90.1781 13.1075 90.1781 12.7268C90.1781 12.3489 90.1255 12.0166 90.0204 11.7296C89.9153 11.4427 89.7605 11.2183 89.5559 11.0563C89.3514 10.8944 89.1 10.8134 88.8017 10.8134C88.5062 10.8134 88.2562 10.8916 88.0517 11.0478C87.85 11.2041 87.6951 11.4256 87.5872 11.7126C87.4792 11.9995 87.4252 12.3376 87.4252 12.7268ZM97.4395 13.2126V9.45406H99.2548V15.9995H97.5119V14.8106H97.4437C97.296 15.1941 97.0502 15.5024 96.7065 15.7353C96.3656 15.9683 95.9494 16.0847 95.4579 16.0847C95.0204 16.0847 94.6355 15.9853 94.3031 15.7864C93.9707 15.5876 93.7108 15.3049 93.5233 14.9384C93.3386 14.572 93.2449 14.133 93.242 13.6217V9.45406H95.0574V13.2978C95.0602 13.6842 95.1639 13.9896 95.3684 14.214C95.573 14.4384 95.8471 14.5506 96.1909 14.5506C96.4096 14.5506 96.6142 14.5009 96.8045 14.4015C96.9949 14.2992 97.1483 14.1487 97.2647 13.9498C97.3841 13.7509 97.4423 13.5052 97.4395 13.2126ZM104.188 9.45406V10.8177H100.247V9.45406H104.188ZM101.142 7.88588H102.957V13.9881C102.957 14.1558 102.982 14.2864 103.034 14.3802C103.085 14.4711 103.156 14.535 103.247 14.572C103.34 14.6089 103.448 14.6274 103.57 14.6274C103.656 14.6274 103.741 14.6203 103.826 14.606C103.911 14.589 103.977 14.5762 104.022 14.5677L104.308 15.9185C104.217 15.947 104.089 15.9796 103.924 16.0166C103.759 16.0563 103.559 16.0805 103.323 16.089C102.886 16.106 102.502 16.0478 102.173 15.9143C101.846 15.7808 101.592 15.5734 101.41 15.2921C101.228 15.0109 101.139 14.6558 101.142 14.2268V7.88588Z" fill="black"/>
<path d="M42.5875 28.9995V27.8916L45.1763 25.4945C45.3965 25.2815 45.5811 25.0897 45.7303 24.9193C45.8818 24.7488 45.9966 24.5819 46.0748 24.4185C46.1529 24.2528 46.1919 24.0741 46.1919 23.8823C46.1919 23.6693 46.1434 23.4858 46.0463 23.3319C45.9493 23.1756 45.8167 23.0561 45.6486 22.9732C45.4805 22.888 45.29 22.8454 45.0769 22.8454C44.8543 22.8454 44.6602 22.8904 44.4945 22.9803C44.3288 23.0703 44.2009 23.1993 44.111 23.3674C44.021 23.5355 43.976 23.7355 43.976 23.9676H42.5165C42.5165 23.4917 42.6242 23.0786 42.8397 22.7282C43.0551 22.3778 43.3569 22.1068 43.7452 21.915C44.1335 21.7232 44.5809 21.6274 45.0875 21.6274C45.6084 21.6274 46.0617 21.7197 46.4476 21.9043C46.8359 22.0866 47.1377 22.3399 47.3532 22.6643C47.5686 22.9886 47.6763 23.3603 47.6763 23.7793C47.6763 24.054 47.6219 24.325 47.513 24.5926C47.4064 24.8601 47.2158 25.1572 46.9412 25.4839C46.6666 25.8082 46.2795 26.1977 45.78 26.6522L44.7182 27.6927V27.7424H47.7722V28.9995H42.5875ZM51.5994 29.0989C51.0526 29.0989 50.5661 29.0102 50.1399 28.8326C49.7161 28.6527 49.3835 28.4077 49.142 28.0975C48.9006 27.7874 48.7798 27.4358 48.7798 27.0428C48.7798 26.7398 48.8485 26.4616 48.9858 26.2083C49.1255 25.9526 49.3149 25.7408 49.554 25.5727C49.7931 25.4022 50.0606 25.2933 50.3565 25.246V25.1962C49.9683 25.1181 49.6534 24.9299 49.4119 24.6316C49.1705 24.331 49.0497 23.9818 49.0497 23.584C49.0497 23.2076 49.1598 22.8726 49.38 22.5791C49.6001 22.2831 49.902 22.0511 50.2855 21.883C50.6714 21.7126 51.1094 21.6274 51.5994 21.6274C52.0895 21.6274 52.5263 21.7126 52.9098 21.883C53.2957 22.0535 53.5987 22.2867 53.8189 22.5826C54.0391 22.8762 54.1503 23.21 54.1527 23.584C54.1503 23.9841 54.0272 24.3333 53.7834 24.6316C53.5395 24.9299 53.227 25.1181 52.8459 25.1962V25.246C53.1371 25.2933 53.401 25.4022 53.6378 25.5727C53.8769 25.7408 54.0663 25.9526 54.206 26.2083C54.348 26.4616 54.4202 26.7398 54.4226 27.0428C54.4202 27.4358 54.2983 27.7874 54.0568 28.0975C53.8153 28.4077 53.4815 28.6527 53.0554 28.8326C52.6316 29.0102 52.1463 29.0989 51.5994 29.0989ZM51.5994 27.9697C51.8433 27.9697 52.0563 27.9259 52.2386 27.8383C52.4209 27.7483 52.563 27.6252 52.6648 27.469C52.7689 27.3104 52.821 27.1281 52.821 26.9221C52.821 26.7114 52.7678 26.5256 52.6612 26.3646C52.5547 26.2012 52.4103 26.0734 52.228 25.981C52.0457 25.8863 51.8362 25.839 51.5994 25.839C51.3651 25.839 51.1555 25.8863 50.9709 25.981C50.7862 26.0734 50.6406 26.2012 50.5341 26.3646C50.4299 26.5256 50.3778 26.7114 50.3778 26.9221C50.3778 27.1281 50.4287 27.3104 50.5305 27.469C50.6323 27.6252 50.7756 27.7483 50.9602 27.8383C51.1449 27.9259 51.358 27.9697 51.5994 27.9697ZM51.5994 24.7204C51.803 24.7204 51.9841 24.679 52.1428 24.5961C52.3014 24.5132 52.4257 24.3984 52.5156 24.2516C52.6056 24.1049 52.6506 23.9356 52.6506 23.7438C52.6506 23.5544 52.6056 23.3887 52.5156 23.2467C52.4257 23.1023 52.3026 22.9898 52.1463 22.9093C51.9901 22.8265 51.8078 22.785 51.5994 22.785C51.3935 22.785 51.2112 22.8265 51.0526 22.9093C50.8939 22.9898 50.7696 23.1023 50.6797 23.2467C50.5921 23.3887 50.5483 23.5544 50.5483 23.7438C50.5483 23.9356 50.5933 24.1049 50.6832 24.2516C50.7732 24.3984 50.8975 24.5132 51.0561 24.5961C51.2147 24.679 51.3958 24.7204 51.5994 24.7204ZM59.3391 25.8461V28.9995H57.8263V21.7268H59.2965V24.5073H59.3604C59.4835 24.1854 59.6824 23.9332 59.957 23.7509C60.2317 23.5663 60.5761 23.4739 60.9904 23.4739C61.3692 23.4739 61.6995 23.5568 61.9812 23.7225C62.2653 23.8859 62.4854 24.1214 62.6417 24.4292C62.8003 24.7346 62.8784 25.1004 62.8761 25.5265V28.9995H61.3633V25.7964C61.3656 25.4602 61.2804 25.1986 61.1076 25.0116C60.9371 24.8246 60.698 24.731 60.3903 24.731C60.1843 24.731 60.002 24.7748 59.8434 24.8624C59.6871 24.95 59.564 25.0779 59.4741 25.246C59.3865 25.4117 59.3415 25.6117 59.3391 25.8461ZM64.0666 28.9995V23.545H65.5332V24.4967H65.59C65.6895 24.1581 65.8564 23.9024 66.0907 23.7296C66.3251 23.5544 66.595 23.4668 66.9004 23.4668C66.9761 23.4668 67.0578 23.4716 67.1454 23.481C67.233 23.4905 67.31 23.5035 67.3762 23.5201V24.8624C67.3052 24.8411 67.207 24.8222 67.0815 24.8056C66.956 24.789 66.8412 24.7808 66.737 24.7808C66.5145 24.7808 66.3156 24.8293 66.1404 24.9264C65.9676 25.0211 65.8303 25.1536 65.7285 25.3241C65.6291 25.4945 65.5794 25.691 65.5794 25.9136V28.9995H64.0666ZM72.6967 25.1004L71.3118 25.1856C71.2881 25.0672 71.2372 24.9607 71.1591 24.866C71.081 24.7689 70.978 24.692 70.8501 24.6352C70.7247 24.576 70.5743 24.5464 70.3991 24.5464C70.1648 24.5464 69.9671 24.5961 69.8061 24.6955C69.6451 24.7926 69.5646 24.9228 69.5646 25.0862C69.5646 25.2164 69.6167 25.3265 69.7209 25.4164C69.825 25.5064 70.0038 25.5786 70.2571 25.633L71.2443 25.8319C71.7746 25.9408 72.17 26.116 72.4304 26.3575C72.6908 26.5989 72.821 26.9162 72.821 27.3092C72.821 27.6667 72.7157 27.9803 72.505 28.2502C72.2966 28.5201 72.0102 28.7308 71.6456 28.8823C71.2834 29.0315 70.8655 29.106 70.392 29.106C69.67 29.106 69.0947 28.9557 68.6662 28.6551C68.2401 28.352 67.9903 27.9401 67.9169 27.4193L69.4048 27.3411C69.4498 27.5613 69.5587 27.7294 69.7315 27.8454C69.9044 27.959 70.1257 28.0158 70.3956 28.0158C70.6607 28.0158 70.8738 27.9649 71.0348 27.8631C71.1982 27.759 71.281 27.6252 71.2834 27.4619C71.281 27.3246 71.223 27.2121 71.1094 27.1245C70.9957 27.0345 70.8205 26.9659 70.5838 26.9185L69.6392 26.7303C69.1065 26.6238 68.71 26.4391 68.4496 26.1764C68.1915 25.9136 68.0625 25.5786 68.0625 25.1714C68.0625 24.821 68.1572 24.5192 68.3466 24.2658C68.5384 24.0125 68.8071 23.8172 69.1527 23.6799C69.5007 23.5426 69.9079 23.4739 70.3743 23.4739C71.0632 23.4739 71.6054 23.6195 72.0007 23.9107C72.3984 24.2019 72.6304 24.5985 72.6967 25.1004ZM76.0739 28.9995V27.8916L78.6626 25.4945C78.8828 25.2815 79.0675 25.0897 79.2166 24.9193C79.3681 24.7488 79.483 24.5819 79.5611 24.4185C79.6392 24.2528 79.6783 24.0741 79.6783 23.8823C79.6783 23.6693 79.6297 23.4858 79.5327 23.3319C79.4356 23.1756 79.303 23.0561 79.1349 22.9732C78.9669 22.888 78.7763 22.8454 78.5632 22.8454C78.3407 22.8454 78.1465 22.8904 77.9808 22.9803C77.8151 23.0703 77.6873 23.1993 77.5973 23.3674C77.5073 23.5355 77.4624 23.7355 77.4624 23.9676H76.0028C76.0028 23.4917 76.1106 23.0786 76.326 22.7282C76.5414 22.3778 76.8433 22.1068 77.2315 21.915C77.6198 21.7232 78.0672 21.6274 78.5739 21.6274C79.0947 21.6274 79.5481 21.7197 79.9339 21.9043C80.3222 22.0866 80.6241 22.3399 80.8395 22.6643C81.0549 22.9886 81.1626 23.3603 81.1626 23.7793C81.1626 24.054 81.1082 24.325 80.9993 24.5926C80.8928 24.8601 80.7022 25.1572 80.4276 25.4839C80.1529 25.8082 79.7659 26.1977 79.2663 26.6522L78.2045 27.6927V27.7424H81.2585V28.9995H76.0739ZM85.0858 29.0989C84.5389 29.0989 84.0524 29.0102 83.6262 28.8326C83.2025 28.6527 82.8699 28.4077 82.6284 28.0975C82.3869 27.7874 82.2662 27.4358 82.2662 27.0428C82.2662 26.7398 82.3348 26.4616 82.4721 26.2083C82.6118 25.9526 82.8012 25.7408 83.0403 25.5727C83.2794 25.4022 83.5469 25.2933 83.8429 25.246V25.1962C83.4546 25.1181 83.1397 24.9299 82.8983 24.6316C82.6568 24.331 82.536 23.9818 82.536 23.584C82.536 23.2076 82.6461 22.8726 82.8663 22.5791C83.0865 22.2831 83.3883 22.0511 83.7718 21.883C84.1577 21.7126 84.5957 21.6274 85.0858 21.6274C85.5758 21.6274 86.0126 21.7126 86.3961 21.883C86.782 22.0535 87.085 22.2867 87.3052 22.5826C87.5254 22.8762 87.6367 23.21 87.639 23.584C87.6367 23.9841 87.5136 24.3333 87.2697 24.6316C87.0259 24.9299 86.7134 25.1181 86.3322 25.1962V25.246C86.6234 25.2933 86.8874 25.4022 87.1241 25.5727C87.3632 25.7408 87.5526 25.9526 87.6923 26.2083C87.8343 26.4616 87.9065 26.7398 87.9089 27.0428C87.9065 27.4358 87.7846 27.7874 87.5431 28.0975C87.3017 28.4077 86.9679 28.6527 86.5417 28.8326C86.118 29.0102 85.6326 29.0989 85.0858 29.0989ZM85.0858 27.9697C85.3296 27.9697 85.5427 27.9259 85.725 27.8383C85.9073 27.7483 86.0493 27.6252 86.1511 27.469C86.2553 27.3104 86.3074 27.1281 86.3074 26.9221C86.3074 26.7114 86.2541 26.5256 86.1475 26.3646C86.041 26.2012 85.8966 26.0734 85.7143 25.981C85.532 25.8863 85.3225 25.839 85.0858 25.839C84.8514 25.839 84.6419 25.8863 84.4572 25.981C84.2725 26.0734 84.127 26.2012 84.0204 26.3646C83.9163 26.5256 83.8642 26.7114 83.8642 26.9221C83.8642 27.1281 83.9151 27.3104 84.0169 27.469C84.1187 27.6252 84.2619 27.7483 84.4466 27.8383C84.6312 27.9259 84.8443 27.9697 85.0858 27.9697ZM85.0858 24.7204C85.2894 24.7204 85.4705 24.679 85.6291 24.5961C85.7877 24.5132 85.912 24.3984 86.002 24.2516C86.0919 24.1049 86.1369 23.9356 86.1369 23.7438C86.1369 23.5544 86.0919 23.3887 86.002 23.2467C85.912 23.1023 85.7889 22.9898 85.6326 22.9093C85.4764 22.8265 85.2941 22.785 85.0858 22.785C84.8798 22.785 84.6975 22.8265 84.5389 22.9093C84.3803 22.9898 84.256 23.1023 84.166 23.2467C84.0784 23.3887 84.0346 23.5544 84.0346 23.7438C84.0346 23.9356 84.0796 24.1049 84.1696 24.2516C84.2595 24.3984 84.3838 24.5132 84.5424 24.5961C84.7011 24.679 84.8822 24.7204 85.0858 24.7204ZM91.3127 28.9995V23.545H92.7544V24.5073H92.8184C92.932 24.1877 93.1214 23.9356 93.3865 23.7509C93.6517 23.5663 93.9689 23.4739 94.3382 23.4739C94.7123 23.4739 95.0307 23.5675 95.2935 23.7545C95.5563 23.9391 95.7315 24.1901 95.8191 24.5073H95.8759C95.9872 24.1948 96.1884 23.9451 96.4796 23.758C96.7731 23.5686 97.12 23.4739 97.5201 23.4739C98.0291 23.4739 98.4422 23.6361 98.7594 23.9604C99.079 24.2824 99.2388 24.7393 99.2388 25.3312V28.9995H97.7296V25.6295C97.7296 25.3265 97.6491 25.0992 97.4881 24.9477C97.3271 24.7961 97.1259 24.7204 96.8844 24.7204C96.6098 24.7204 96.3955 24.808 96.2417 24.9832C96.0878 25.156 96.0108 25.3845 96.0108 25.6685V28.9995H94.5442V25.5975C94.5442 25.33 94.4673 25.1169 94.3134 24.9583C94.1619 24.7997 93.9618 24.7204 93.7132 24.7204C93.5452 24.7204 93.3936 24.763 93.2587 24.8482C93.1261 24.9311 93.0208 25.0483 92.9426 25.1998C92.8645 25.3489 92.8255 25.5241 92.8255 25.7254V28.9995H91.3127ZM100.434 28.9995V23.545H101.947V28.9995H100.434ZM101.194 22.8418C100.969 22.8418 100.776 22.7673 100.615 22.6181C100.456 22.4666 100.377 22.2855 100.377 22.0748C100.377 21.8665 100.456 21.6877 100.615 21.5386C100.776 21.3871 100.969 21.3113 101.194 21.3113C101.419 21.3113 101.61 21.3871 101.769 21.5386C101.93 21.6877 102.01 21.8665 102.01 22.0748C102.01 22.2855 101.93 22.4666 101.769 22.6181C101.61 22.7673 101.419 22.8418 101.194 22.8418ZM104.671 25.8461V28.9995H103.158V23.545H104.6V24.5073H104.664C104.785 24.1901 104.987 23.9391 105.271 23.7545C105.555 23.5675 105.9 23.4739 106.305 23.4739C106.683 23.4739 107.014 23.5568 107.295 23.7225C107.577 23.8882 107.796 24.125 107.952 24.4328C108.109 24.7381 108.187 25.1027 108.187 25.5265V28.9995H106.674V25.7964C106.676 25.4626 106.591 25.2022 106.418 25.0151C106.246 24.8257 106.008 24.731 105.705 24.731C105.501 24.731 105.321 24.7748 105.165 24.8624C105.011 24.95 104.89 25.0779 104.803 25.246C104.717 25.4117 104.674 25.6117 104.671 25.8461Z" fill="#C2C2C2"/>
</svg>
