<svg width="1022" height="344" viewBox="0 0 1022 344" fill="none" xmlns="http://www.w3.org/2000/svg">
<rect width="1022" height="344" rx="10" fill="white"/>
<path d="M42.6582 29.7017H39.2363C39.1738 29.259 39.0462 28.8657 38.8535 28.522C38.6608 28.173 38.4134 27.8761 38.1113 27.6313C37.8092 27.3866 37.4603 27.1991 37.0645 27.0688C36.6738 26.9386 36.2493 26.8735 35.791 26.8735C34.9629 26.8735 34.2415 27.0793 33.627 27.4907C33.0124 27.897 32.5358 28.4907 32.1973 29.272C31.8587 30.048 31.6895 30.9907 31.6895 32.1001C31.6895 33.2407 31.8587 34.1991 32.1973 34.9751C32.541 35.7511 33.0202 36.3371 33.6348 36.7329C34.2493 37.1287 34.9603 37.3267 35.7676 37.3267C36.2207 37.3267 36.64 37.2668 37.0254 37.147C37.416 37.0272 37.7624 36.8527 38.0645 36.6235C38.3665 36.3892 38.6165 36.1053 38.8145 35.772C39.0176 35.4386 39.1582 35.0584 39.2363 34.6313L42.6582 34.647C42.5697 35.3813 42.3483 36.0897 41.9941 36.772C41.6452 37.4491 41.1738 38.0558 40.5801 38.5923C39.9915 39.1235 39.2884 39.5454 38.4707 39.8579C37.6582 40.1652 36.7389 40.3188 35.7129 40.3188C34.2858 40.3188 33.0098 39.9959 31.8848 39.3501C30.765 38.7043 29.8796 37.7694 29.2285 36.5454C28.5827 35.3215 28.2598 33.8397 28.2598 32.1001C28.2598 30.3553 28.5879 28.8709 29.2441 27.647C29.9004 26.423 30.791 25.4907 31.916 24.8501C33.041 24.2043 34.3066 23.8813 35.7129 23.8813C36.64 23.8813 37.4993 24.0116 38.291 24.272C39.0879 24.5324 39.7936 24.9126 40.4082 25.4126C41.0228 25.9074 41.5228 26.5142 41.9082 27.2329C42.2988 27.9517 42.5488 28.7746 42.6582 29.7017ZM50.4434 40.3345C49.2298 40.3345 48.1803 40.0767 47.2949 39.561C46.4147 39.0402 45.735 38.3162 45.2559 37.3892C44.7767 36.4569 44.5371 35.3761 44.5371 34.147C44.5371 32.9074 44.7767 31.8241 45.2559 30.897C45.735 29.9647 46.4147 29.2407 47.2949 28.7251C48.1803 28.2043 49.2298 27.9438 50.4434 27.9438C51.6569 27.9438 52.7038 28.2043 53.584 28.7251C54.4694 29.2407 55.1517 29.9647 55.6309 30.897C56.11 31.8241 56.3496 32.9074 56.3496 34.147C56.3496 35.3761 56.11 36.4569 55.6309 37.3892C55.1517 38.3162 54.4694 39.0402 53.584 39.561C52.7038 40.0767 51.6569 40.3345 50.4434 40.3345ZM50.459 37.7563C51.0111 37.7563 51.472 37.6001 51.8418 37.2876C52.2116 36.9699 52.4902 36.5376 52.6777 35.9907C52.8704 35.4438 52.9668 34.8215 52.9668 34.1235C52.9668 33.4256 52.8704 32.8032 52.6777 32.2563C52.4902 31.7095 52.2116 31.2772 51.8418 30.9595C51.472 30.6418 51.0111 30.4829 50.459 30.4829C49.9017 30.4829 49.4329 30.6418 49.0527 30.9595C48.6777 31.2772 48.3939 31.7095 48.2012 32.2563C48.0137 32.8032 47.9199 33.4256 47.9199 34.1235C47.9199 34.8215 48.0137 35.4438 48.2012 35.9907C48.3939 36.5376 48.6777 36.9699 49.0527 37.2876C49.4329 37.6001 49.9017 37.7563 50.459 37.7563ZM61.8418 33.1626V40.1001H58.5137V28.1001H61.6855V30.2173H61.8262C62.0918 29.5194 62.5371 28.9673 63.1621 28.561C63.7871 28.1496 64.5449 27.9438 65.4355 27.9438C66.2689 27.9438 66.9954 28.1261 67.6152 28.4907C68.235 28.8553 68.7168 29.3761 69.0605 30.0532C69.4043 30.7251 69.5762 31.5272 69.5762 32.4595V40.1001H66.248V33.0532C66.2533 32.3188 66.0658 31.7459 65.6855 31.3345C65.3053 30.9178 64.7819 30.7095 64.1152 30.7095C63.6673 30.7095 63.2715 30.8058 62.9277 30.9985C62.5892 31.1912 62.3236 31.4725 62.1309 31.8423C61.9434 32.2069 61.847 32.647 61.8418 33.1626ZM78.582 28.1001V30.6001H71.3555V28.1001H78.582ZM72.9961 25.2251H76.3242V36.4126C76.3242 36.7199 76.3711 36.9595 76.4648 37.1313C76.5586 37.298 76.6888 37.4152 76.8555 37.4829C77.0273 37.5506 77.2253 37.5845 77.4492 37.5845C77.6055 37.5845 77.7617 37.5715 77.918 37.5454C78.0742 37.5142 78.194 37.4907 78.2773 37.4751L78.8008 39.9517C78.6341 40.0037 78.3997 40.0636 78.0977 40.1313C77.7956 40.2043 77.4284 40.2485 76.9961 40.2642C76.194 40.2954 75.4909 40.1886 74.8867 39.9438C74.2878 39.6991 73.8216 39.3188 73.4883 38.8032C73.1549 38.2876 72.9909 37.6366 72.9961 36.8501V25.2251ZM84.1719 40.3267C83.4063 40.3267 82.724 40.1938 82.125 39.9282C81.526 39.6574 81.0521 39.259 80.7031 38.7329C80.3594 38.2017 80.1875 37.5402 80.1875 36.7485C80.1875 36.0819 80.3099 35.522 80.5547 35.0688C80.7995 34.6157 81.1328 34.2511 81.5547 33.9751C81.9766 33.6991 82.4557 33.4907 82.9922 33.3501C83.5339 33.2095 84.1016 33.1105 84.6953 33.0532C85.3932 32.9803 85.9557 32.9126 86.3828 32.8501C86.8099 32.7824 87.1198 32.6834 87.3125 32.5532C87.5052 32.423 87.6016 32.2303 87.6016 31.9751V31.9282C87.6016 31.4334 87.4453 31.0506 87.1328 30.7798C86.8255 30.509 86.388 30.3735 85.8203 30.3735C85.2214 30.3735 84.7448 30.5063 84.3906 30.772C84.0365 31.0324 83.8021 31.3605 83.6875 31.7563L80.6094 31.5063C80.7656 30.7772 81.0729 30.147 81.5313 29.6157C81.9896 29.0793 82.5807 28.6678 83.3047 28.3813C84.0339 28.0897 84.8776 27.9438 85.8359 27.9438C86.5026 27.9438 87.1406 28.022 87.75 28.1782C88.3646 28.3345 88.9089 28.5767 89.3828 28.9048C89.862 29.2329 90.2396 29.6548 90.5156 30.1704C90.7917 30.6808 90.9297 31.2928 90.9297 32.0063V40.1001H87.7734V38.436H87.6797C87.487 38.811 87.2292 39.1418 86.9063 39.4282C86.5833 39.7095 86.1953 39.9308 85.7422 40.0923C85.2891 40.2485 84.7656 40.3267 84.1719 40.3267ZM85.125 38.0298C85.6146 38.0298 86.0469 37.9334 86.4219 37.7407C86.7969 37.5428 87.0911 37.2772 87.3047 36.9438C87.5182 36.6105 87.625 36.2329 87.625 35.811V34.5376C87.5208 34.6053 87.3776 34.6678 87.1953 34.7251C87.0182 34.7772 86.8177 34.8267 86.5938 34.8735C86.3698 34.9152 86.1458 34.9543 85.9219 34.9907C85.6979 35.022 85.4948 35.0506 85.3125 35.0767C84.9219 35.134 84.5807 35.2251 84.2891 35.3501C83.9974 35.4751 83.7708 35.6444 83.6094 35.8579C83.4479 36.0662 83.3672 36.3267 83.3672 36.6392C83.3672 37.0923 83.5313 37.4386 83.8594 37.6782C84.1927 37.9126 84.6146 38.0298 85.125 38.0298ZM98.9336 40.3345C97.7044 40.3345 96.6471 40.0741 95.7617 39.5532C94.8815 39.0272 94.2044 38.298 93.7305 37.3657C93.2617 36.4334 93.0273 35.3605 93.0273 34.147C93.0273 32.9178 93.2643 31.8397 93.7383 30.9126C94.2174 29.9803 94.8971 29.2537 95.7773 28.7329C96.6576 28.2069 97.7044 27.9438 98.918 27.9438C99.9648 27.9438 100.882 28.134 101.668 28.5142C102.454 28.8944 103.077 29.4282 103.535 30.1157C103.993 30.8032 104.246 31.6105 104.293 32.5376H101.152C101.064 31.9386 100.829 31.4569 100.449 31.0923C100.074 30.7225 99.582 30.5376 98.9727 30.5376C98.457 30.5376 98.0065 30.6782 97.6211 30.9595C97.2409 31.2355 96.944 31.6392 96.7305 32.1704C96.5169 32.7017 96.4102 33.3449 96.4102 34.1001C96.4102 34.8657 96.5143 35.5168 96.7227 36.0532C96.9362 36.5897 97.2357 36.9985 97.6211 37.2798C98.0065 37.561 98.457 37.7017 98.9727 37.7017C99.3529 37.7017 99.694 37.6235 99.9961 37.4673C100.303 37.311 100.556 37.0845 100.754 36.7876C100.957 36.4855 101.09 36.1235 101.152 35.7017H104.293C104.241 36.6183 103.991 37.4256 103.543 38.1235C103.1 38.8162 102.488 39.3579 101.707 39.7485C100.926 40.1392 100.001 40.3345 98.9336 40.3345ZM112.807 28.1001V30.6001H105.58V28.1001H112.807ZM107.221 25.2251H110.549V36.4126C110.549 36.7199 110.596 36.9595 110.689 37.1313C110.783 37.298 110.913 37.4152 111.08 37.4829C111.252 37.5506 111.45 37.5845 111.674 37.5845C111.83 37.5845 111.986 37.5715 112.143 37.5454C112.299 37.5142 112.419 37.4907 112.502 37.4751L113.025 39.9517C112.859 40.0037 112.624 40.0636 112.322 40.1313C112.02 40.2043 111.653 40.2485 111.221 40.2642C110.419 40.2954 109.715 40.1886 109.111 39.9438C108.512 39.6991 108.046 39.3188 107.713 38.8032C107.38 38.2876 107.215 37.6366 107.221 36.8501V25.2251ZM127.762 34.9907V28.1001H131.09V40.1001H127.895V37.9204H127.77C127.499 38.6235 127.048 39.1886 126.418 39.6157C125.793 40.0428 125.03 40.2563 124.129 40.2563C123.327 40.2563 122.621 40.0741 122.012 39.7095C121.402 39.3449 120.926 38.8267 120.582 38.1548C120.243 37.4829 120.072 36.6782 120.066 35.7407V28.1001H123.395V35.147C123.4 35.8553 123.59 36.4152 123.965 36.8267C124.34 37.2381 124.842 37.4438 125.473 37.4438C125.874 37.4438 126.249 37.3527 126.598 37.1704C126.947 36.9829 127.228 36.7069 127.441 36.3423C127.66 35.9777 127.767 35.5272 127.762 34.9907ZM143.736 31.522L140.689 31.7095C140.637 31.4491 140.525 31.2147 140.354 31.0063C140.182 30.7928 139.955 30.6235 139.674 30.4985C139.398 30.3683 139.067 30.3032 138.682 30.3032C138.166 30.3032 137.731 30.4126 137.377 30.6313C137.023 30.8449 136.846 31.1313 136.846 31.4907C136.846 31.7772 136.96 32.0194 137.189 32.2173C137.419 32.4152 137.812 32.5741 138.369 32.6938L140.541 33.1313C141.708 33.3709 142.577 33.7563 143.15 34.2876C143.723 34.8188 144.01 35.5168 144.01 36.3813C144.01 37.1678 143.778 37.8579 143.314 38.4517C142.856 39.0454 142.226 39.509 141.424 39.8423C140.627 40.1704 139.708 40.3345 138.666 40.3345C137.077 40.3345 135.812 40.0037 134.869 39.3423C133.932 38.6756 133.382 37.7694 133.221 36.6235L136.494 36.4517C136.593 36.936 136.833 37.3058 137.213 37.561C137.593 37.811 138.08 37.936 138.674 37.936C139.257 37.936 139.726 37.8241 140.08 37.6001C140.439 37.3709 140.622 37.0767 140.627 36.7173C140.622 36.4152 140.494 36.1678 140.244 35.9751C139.994 35.7772 139.609 35.6261 139.088 35.522L137.01 35.1079C135.838 34.8735 134.965 34.4673 134.393 33.8892C133.825 33.311 133.541 32.5741 133.541 31.6782C133.541 30.9074 133.749 30.2433 134.166 29.686C134.588 29.1287 135.179 28.6991 135.939 28.397C136.705 28.0949 137.601 27.9438 138.627 27.9438C140.143 27.9438 141.335 28.2642 142.205 28.9048C143.08 29.5454 143.59 30.4178 143.736 31.522Z" fill="black"/>
<rect x="27.5968" y="272.597" width="177.328" height="38.1634" rx="19.0817" fill="#FDF0F0"/>
<rect x="27.5968" y="272.597" width="177.328" height="38.1634" rx="19.0817" stroke="#DB0000" stroke-width="1.19366"/>
<path d="M59.4521 289.135C59.3953 288.631 59.161 288.241 58.749 287.964C58.3371 287.683 57.8186 287.543 57.1936 287.543C56.7462 287.543 56.3591 287.614 56.0324 287.756C55.7057 287.894 55.4518 288.086 55.2707 288.331C55.0931 288.573 55.0044 288.848 55.0044 289.157C55.0044 289.416 55.0647 289.64 55.1855 289.828C55.3097 290.016 55.4713 290.174 55.6702 290.302C55.8726 290.426 56.0892 290.531 56.32 290.616C56.5509 290.698 56.7728 290.765 56.9859 290.819L58.0512 291.096C58.3992 291.181 58.7561 291.296 59.1219 291.442C59.4877 291.587 59.8268 291.779 60.1393 292.017C60.4518 292.255 60.7039 292.55 60.8957 292.901C61.091 293.253 61.1887 293.674 61.1887 294.164C61.1887 294.782 61.0289 295.33 60.7093 295.81C60.3932 296.289 59.9333 296.667 59.3296 296.944C58.7295 297.221 58.0033 297.36 57.151 297.36C56.3343 297.36 55.6276 297.23 55.031 296.971C54.4344 296.712 53.9674 296.344 53.6301 295.868C53.2927 295.389 53.1063 294.821 53.0708 294.164H54.722C54.754 294.558 54.8818 294.886 55.1056 295.149C55.3328 295.408 55.6222 295.602 55.9738 295.73C56.3289 295.854 56.7178 295.916 57.1404 295.916C57.6056 295.916 58.0193 295.843 58.3815 295.698C58.7472 295.549 59.0349 295.343 59.2444 295.08C59.4539 294.814 59.5587 294.503 59.5587 294.148C59.5587 293.825 59.4664 293.56 59.2817 293.354C59.1006 293.148 58.8538 292.978 58.5413 292.843C58.2323 292.708 57.8825 292.589 57.4919 292.486L56.2029 292.134C55.3293 291.896 54.6368 291.547 54.1254 291.085C53.6176 290.623 53.3637 290.013 53.3637 289.253C53.3637 288.624 53.5342 288.075 53.8751 287.607C54.216 287.138 54.6776 286.774 55.26 286.515C55.8424 286.252 56.4994 286.12 57.2309 286.12C57.9695 286.12 58.6212 286.25 59.1858 286.509C59.754 286.769 60.2014 287.125 60.5281 287.58C60.8548 288.031 61.0253 288.549 61.0395 289.135H59.4521ZM66.554 297.344C65.7479 297.344 65.0536 297.172 64.4712 296.827C63.8924 296.479 63.445 295.991 63.1289 295.362C62.8164 294.73 62.6602 293.99 62.6602 293.141C62.6602 292.303 62.8164 291.564 63.1289 290.925C63.445 290.286 63.8853 289.787 64.4499 289.428C65.0181 289.07 65.6822 288.89 66.4421 288.89C66.9038 288.89 67.3512 288.967 67.7844 289.119C68.2177 289.272 68.6065 289.512 68.951 289.839C69.2955 290.165 69.5671 290.59 69.766 291.112C69.9648 291.63 70.0643 292.26 70.0643 293.003V293.567H63.5604V292.374H68.5036C68.5036 291.955 68.4183 291.584 68.2479 291.261C68.0774 290.934 67.8377 290.677 67.5288 290.488C67.2234 290.3 66.8647 290.206 66.4528 290.206C66.0053 290.206 65.6147 290.316 65.2809 290.536C64.9506 290.753 64.695 291.037 64.5138 291.389C64.3363 291.737 64.2475 292.115 64.2475 292.523V293.455C64.2475 294.002 64.3434 294.467 64.5352 294.851C64.7305 295.234 65.0021 295.527 65.3501 295.73C65.6982 295.929 66.1048 296.028 66.57 296.028C66.8718 296.028 67.147 295.986 67.3956 295.9C67.6442 295.812 67.859 295.68 68.0401 295.506C68.2212 295.332 68.3597 295.117 68.4556 294.862L69.9631 295.133C69.8423 295.577 69.6257 295.966 69.3132 296.3C69.0043 296.63 68.6154 296.888 68.1467 297.072C67.6815 297.253 67.1506 297.344 66.554 297.344ZM73.4241 292.321V297.179H71.8314V288.997H73.3602V290.329H73.4614C73.6496 289.895 73.9443 289.547 74.3456 289.285C74.7504 289.022 75.26 288.89 75.8744 288.89C76.4319 288.89 76.9202 289.008 77.3392 289.242C77.7583 289.473 78.0832 289.817 78.314 290.275C78.5448 290.733 78.6602 291.3 78.6602 291.975V297.179H77.0676V292.166C77.0676 291.573 76.9131 291.11 76.6041 290.776C76.2952 290.439 75.8708 290.27 75.3311 290.27C74.9617 290.27 74.6333 290.35 74.3456 290.51C74.0615 290.669 73.836 290.904 73.6691 291.213C73.5058 291.518 73.4241 291.888 73.4241 292.321ZM83.8591 297.339C83.1986 297.339 82.6091 297.17 82.0906 296.832C81.5757 296.492 81.1709 296.007 80.8762 295.378C80.585 294.746 80.4394 293.988 80.4394 293.104C80.4394 292.22 80.5867 291.463 80.8815 290.835C81.1798 290.206 81.5882 289.725 82.1066 289.391C82.6251 289.057 83.2128 288.89 83.8698 288.89C84.3776 288.89 84.786 288.976 85.0949 289.146C85.4074 289.313 85.6489 289.508 85.8193 289.732C85.9933 289.956 86.1283 290.153 86.2242 290.323H86.32V286.27H87.9127V297.179H86.3573V295.906H86.2242C86.1283 296.08 85.9898 296.278 85.8087 296.502C85.6311 296.726 85.3861 296.921 85.0736 297.088C84.7611 297.255 84.3563 297.339 83.8591 297.339ZM84.2107 295.98C84.6688 295.98 85.0558 295.859 85.3719 295.618C85.6915 295.373 85.933 295.034 86.0963 294.601C86.2632 294.167 86.3467 293.663 86.3467 293.088C86.3467 292.52 86.265 292.022 86.1017 291.596C85.9383 291.17 85.6986 290.838 85.3825 290.6C85.0665 290.362 84.6759 290.243 84.2107 290.243C83.7313 290.243 83.3318 290.368 83.0122 290.616C82.6926 290.865 82.4511 291.204 82.2877 291.634C82.1279 292.063 82.048 292.548 82.048 293.088C82.048 293.635 82.1297 294.127 82.2931 294.563C82.4564 295 82.6979 295.346 83.0175 295.602C83.3406 295.854 83.7384 295.98 84.2107 295.98ZM94.2835 286.27H96.281L99.754 294.75H99.8818L103.355 286.27H105.352V297.179H103.786V289.285H103.685L100.468 297.163H99.1681L95.9507 289.279H95.8495V297.179H94.2835V286.27ZM111.144 297.344C110.338 297.344 109.643 297.172 109.061 296.827C108.482 296.479 108.035 295.991 107.719 295.362C107.406 294.73 107.25 293.99 107.25 293.141C107.25 292.303 107.406 291.564 107.719 290.925C108.035 290.286 108.475 289.787 109.04 289.428C109.608 289.07 110.272 288.89 111.032 288.89C111.494 288.89 111.941 288.967 112.374 289.119C112.808 289.272 113.196 289.512 113.541 289.839C113.885 290.165 114.157 290.59 114.356 291.112C114.555 291.63 114.654 292.26 114.654 293.003V293.567H108.15V292.374H113.093C113.093 291.955 113.008 291.584 112.838 291.261C112.667 290.934 112.428 290.677 112.119 290.488C111.813 290.3 111.455 290.206 111.043 290.206C110.595 290.206 110.205 290.316 109.871 290.536C109.54 290.753 109.285 291.037 109.104 291.389C108.926 291.737 108.837 292.115 108.837 292.523V293.455C108.837 294.002 108.933 294.467 109.125 294.851C109.32 295.234 109.592 295.527 109.94 295.73C110.288 295.929 110.695 296.028 111.16 296.028C111.462 296.028 111.737 295.986 111.985 295.9C112.234 295.812 112.449 295.68 112.63 295.506C112.811 295.332 112.95 295.117 113.045 294.862L114.553 295.133C114.432 295.577 114.216 295.966 113.903 296.3C113.594 296.63 113.205 296.888 112.737 297.072C112.271 297.253 111.74 297.344 111.144 297.344ZM122.552 290.994L121.109 291.25C121.048 291.065 120.953 290.89 120.821 290.723C120.693 290.556 120.519 290.419 120.299 290.313C120.079 290.206 119.804 290.153 119.473 290.153C119.022 290.153 118.646 290.254 118.344 290.456C118.042 290.655 117.891 290.913 117.891 291.229C117.891 291.502 117.993 291.722 118.195 291.889C118.397 292.056 118.724 292.193 119.175 292.299L120.475 292.598C121.228 292.772 121.789 293.04 122.158 293.402C122.527 293.764 122.712 294.235 122.712 294.814C122.712 295.304 122.57 295.741 122.286 296.124C122.005 296.504 121.613 296.802 121.109 297.019C120.608 297.236 120.027 297.344 119.367 297.344C118.451 297.344 117.703 297.149 117.124 296.758C116.546 296.364 116.19 295.804 116.059 295.08L117.598 294.846C117.694 295.247 117.891 295.551 118.19 295.756C118.488 295.959 118.877 296.06 119.356 296.06C119.878 296.06 120.296 295.952 120.608 295.735C120.921 295.515 121.077 295.247 121.077 294.931C121.077 294.675 120.981 294.46 120.789 294.286C120.601 294.112 120.312 293.981 119.921 293.892L118.536 293.589C117.772 293.415 117.208 293.138 116.842 292.758C116.48 292.378 116.299 291.896 116.299 291.314C116.299 290.831 116.434 290.408 116.704 290.046C116.973 289.684 117.346 289.402 117.822 289.199C118.298 288.993 118.843 288.89 119.457 288.89C120.342 288.89 121.038 289.082 121.546 289.466C122.053 289.846 122.389 290.355 122.552 290.994ZM130.594 290.994L129.151 291.25C129.09 291.065 128.994 290.89 128.863 290.723C128.735 290.556 128.561 290.419 128.341 290.313C128.121 290.206 127.846 290.153 127.515 290.153C127.064 290.153 126.688 290.254 126.386 290.456C126.084 290.655 125.933 290.913 125.933 291.229C125.933 291.502 126.035 291.722 126.237 291.889C126.439 292.056 126.766 292.193 127.217 292.299L128.517 292.598C129.27 292.772 129.831 293.04 130.2 293.402C130.569 293.764 130.754 294.235 130.754 294.814C130.754 295.304 130.612 295.741 130.328 296.124C130.047 296.504 129.655 296.802 129.151 297.019C128.65 297.236 128.069 297.344 127.409 297.344C126.493 297.344 125.745 297.149 125.166 296.758C124.588 296.364 124.232 295.804 124.101 295.08L125.64 294.846C125.736 295.247 125.933 295.551 126.232 295.756C126.53 295.959 126.919 296.06 127.398 296.06C127.92 296.06 128.338 295.952 128.65 295.735C128.963 295.515 129.119 295.247 129.119 294.931C129.119 294.675 129.023 294.46 128.831 294.286C128.643 294.112 128.354 293.981 127.963 293.892L126.578 293.589C125.814 293.415 125.25 293.138 124.884 292.758C124.522 292.378 124.341 291.896 124.341 291.314C124.341 290.831 124.476 290.408 124.746 290.046C125.015 289.684 125.388 289.402 125.864 289.199C126.34 288.993 126.885 288.89 127.499 288.89C128.384 288.89 129.08 289.082 129.588 289.466C130.095 289.846 130.431 290.355 130.594 290.994ZM134.886 297.36C134.368 297.36 133.899 297.264 133.48 297.072C133.061 296.877 132.729 296.595 132.484 296.225C132.242 295.856 132.122 295.403 132.122 294.867C132.122 294.405 132.21 294.025 132.388 293.727C132.566 293.429 132.805 293.193 133.107 293.019C133.409 292.845 133.746 292.713 134.119 292.624C134.492 292.536 134.872 292.468 135.259 292.422C135.749 292.365 136.147 292.319 136.452 292.283C136.758 292.244 136.98 292.182 137.118 292.097C137.257 292.012 137.326 291.873 137.326 291.682V291.644C137.326 291.179 137.195 290.819 136.932 290.563C136.672 290.307 136.285 290.179 135.771 290.179C135.234 290.179 134.812 290.298 134.503 290.536C134.197 290.771 133.986 291.032 133.869 291.319L132.372 290.978C132.55 290.481 132.809 290.08 133.15 289.775C133.494 289.466 133.89 289.242 134.338 289.103C134.785 288.961 135.256 288.89 135.749 288.89C136.076 288.89 136.422 288.929 136.788 289.008C137.157 289.082 137.502 289.221 137.821 289.423C138.144 289.625 138.409 289.915 138.615 290.291C138.821 290.664 138.924 291.149 138.924 291.745V297.179H137.369V296.06H137.305C137.202 296.266 137.047 296.468 136.841 296.667C136.635 296.866 136.371 297.031 136.047 297.163C135.724 297.294 135.337 297.36 134.886 297.36ZM135.233 296.081C135.673 296.081 136.049 295.994 136.362 295.82C136.678 295.646 136.918 295.419 137.081 295.139C137.248 294.854 137.331 294.551 137.331 294.228V293.173C137.274 293.23 137.164 293.283 137.001 293.333C136.841 293.379 136.658 293.42 136.452 293.455C136.246 293.487 136.046 293.517 135.85 293.546C135.655 293.571 135.492 293.592 135.36 293.61C135.051 293.649 134.769 293.715 134.513 293.807C134.261 293.899 134.059 294.032 133.906 294.206C133.757 294.377 133.682 294.604 133.682 294.888C133.682 295.282 133.828 295.581 134.119 295.783C134.41 295.982 134.782 296.081 135.233 296.081ZM144.476 300.417C143.826 300.417 143.267 300.332 142.798 300.162C142.333 299.991 141.953 299.766 141.658 299.485C141.363 299.205 141.143 298.897 140.997 298.564L142.366 297.999C142.462 298.155 142.59 298.32 142.75 298.494C142.913 298.672 143.133 298.823 143.41 298.947C143.691 299.071 144.051 299.134 144.492 299.134C145.095 299.134 145.594 298.986 145.988 298.691C146.383 298.4 146.58 297.935 146.58 297.296V295.687H146.479C146.383 295.861 146.244 296.055 146.063 296.268C145.885 296.481 145.64 296.666 145.328 296.822C145.015 296.978 144.609 297.056 144.108 297.056C143.462 297.056 142.879 296.905 142.361 296.603C141.846 296.298 141.438 295.849 141.136 295.256C140.838 294.659 140.688 293.926 140.688 293.056C140.688 292.186 140.836 291.44 141.131 290.819C141.429 290.197 141.837 289.721 142.356 289.391C142.874 289.057 143.462 288.89 144.119 288.89C144.627 288.89 145.037 288.976 145.349 289.146C145.662 289.313 145.905 289.508 146.079 289.732C146.257 289.956 146.393 290.153 146.489 290.323H146.606V288.997H148.167V297.36C148.167 298.063 148.004 298.64 147.677 299.091C147.35 299.542 146.908 299.876 146.351 300.092C145.797 300.309 145.172 300.417 144.476 300.417ZM144.46 295.735C144.918 295.735 145.305 295.629 145.621 295.416C145.941 295.199 146.182 294.89 146.345 294.489C146.512 294.084 146.596 293.599 146.596 293.035C146.596 292.484 146.514 291.999 146.351 291.58C146.187 291.161 145.948 290.835 145.632 290.6C145.316 290.362 144.925 290.243 144.46 290.243C143.98 290.243 143.581 290.368 143.261 290.616C142.942 290.861 142.7 291.195 142.537 291.618C142.377 292.04 142.297 292.513 142.297 293.035C142.297 293.571 142.379 294.041 142.542 294.446C142.705 294.851 142.947 295.167 143.267 295.394C143.59 295.622 143.987 295.735 144.46 295.735ZM153.829 297.344C153.023 297.344 152.329 297.172 151.747 296.827C151.168 296.479 150.72 295.991 150.404 295.362C150.092 294.73 149.936 293.99 149.936 293.141C149.936 292.303 150.092 291.564 150.404 290.925C150.72 290.286 151.161 289.787 151.725 289.428C152.294 289.07 152.958 288.89 153.718 288.89C154.179 288.89 154.627 288.967 155.06 289.119C155.493 289.272 155.882 289.512 156.226 289.839C156.571 290.165 156.843 290.59 157.041 291.112C157.24 291.63 157.34 292.26 157.34 293.003V293.567H150.836V292.374H155.779C155.779 291.955 155.694 291.584 155.523 291.261C155.353 290.934 155.113 290.677 154.804 290.488C154.499 290.3 154.14 290.206 153.728 290.206C153.281 290.206 152.89 290.316 152.556 290.536C152.226 290.753 151.97 291.037 151.789 291.389C151.612 291.737 151.523 292.115 151.523 292.523V293.455C151.523 294.002 151.619 294.467 151.811 294.851C152.006 295.234 152.278 295.527 152.626 295.73C152.974 295.929 153.38 296.028 153.845 296.028C154.147 296.028 154.422 295.986 154.671 295.9C154.92 295.812 155.134 295.68 155.316 295.506C155.497 295.332 155.635 295.117 155.731 294.862L157.238 295.133C157.118 295.577 156.901 295.966 156.589 296.3C156.28 296.63 155.891 296.888 155.422 297.072C154.957 297.253 154.426 297.344 153.829 297.344Z" fill="#DB0000"/>
<path d="M175.213 286.046C174.751 285.583 174.002 285.583 173.539 286.046C173.076 286.508 173.076 287.259 173.539 287.721L176.31 290.494H166.661C166.007 290.494 165.477 291.024 165.477 291.679C165.477 292.333 166.007 292.864 166.661 292.864H176.31L173.539 295.637C173.076 296.1 173.076 296.85 173.539 297.312C173.77 297.543 174.074 297.658 174.377 297.658C174.68 297.658 174.983 297.543 175.214 297.312L180.006 292.516C180.469 292.053 180.469 291.303 180.006 290.841L175.213 286.046Z" fill="#DB0000"/>
<rect x="27" y="100" width="336.552" height="45.9655" rx="10" fill="#F6F6F6"/>
<path d="M48.4299 117.119H50.5488L53.7786 122.74H53.9114L57.1412 117.119H59.2601L54.7747 124.629V129.483H52.9153V124.629L48.4299 117.119ZM63.2551 129.67C62.3857 129.67 61.6271 129.471 60.9791 129.072C60.3312 128.674 59.8281 128.117 59.4699 127.4C59.1117 126.684 58.9326 125.847 58.9326 124.889C58.9326 123.927 59.1117 123.086 59.4699 122.365C59.8281 121.645 60.3312 121.086 60.9791 120.687C61.6271 120.289 62.3857 120.089 63.2551 120.089C64.1244 120.089 64.883 120.289 65.531 120.687C66.1789 121.086 66.682 121.645 67.0402 122.365C67.3984 123.086 67.5775 123.927 67.5775 124.889C67.5775 125.847 67.3984 126.684 67.0402 127.4C66.682 128.117 66.1789 128.674 65.531 129.072C64.883 129.471 64.1244 129.67 63.2551 129.67ZM63.2611 128.155C63.8245 128.155 64.2914 128.006 64.6617 127.708C65.0319 127.41 65.3056 127.014 65.4827 126.519C65.6638 126.024 65.7544 125.478 65.7544 124.883C65.7544 124.291 65.6638 123.748 65.4827 123.253C65.3056 122.754 65.0319 122.353 64.6617 122.051C64.2914 121.75 63.8245 121.599 63.2611 121.599C62.6936 121.599 62.2227 121.75 61.8485 122.051C61.4782 122.353 61.2025 122.754 61.0214 123.253C60.8443 123.748 60.7558 124.291 60.7558 124.883C60.7558 125.478 60.8443 126.024 61.0214 126.519C61.2025 127.014 61.4782 127.41 61.8485 127.708C62.2227 128.006 62.6936 128.155 63.2611 128.155ZM75.4663 125.637V120.21H77.2773V129.483H75.5025V127.877H75.4059C75.1926 128.372 74.8505 128.785 74.3796 129.115C73.9128 129.441 73.3312 129.604 72.6349 129.604C72.0393 129.604 71.5121 129.473 71.0533 129.211C70.5985 128.946 70.2403 128.553 69.9787 128.034C69.7211 127.515 69.5923 126.873 69.5923 126.108V120.21H71.3974V125.891C71.3974 126.523 71.5724 127.026 71.9226 127.4C72.2727 127.774 72.7275 127.962 73.2869 127.962C73.625 127.962 73.9611 127.877 74.2951 127.708C74.6332 127.539 74.9129 127.283 75.1342 126.941C75.3596 126.599 75.4703 126.165 75.4663 125.637ZM79.7027 129.483V120.21H81.4474V121.683H81.5439C81.713 121.184 82.0108 120.792 82.4374 120.506C82.868 120.216 83.355 120.071 83.8983 120.071C84.011 120.071 84.1439 120.075 84.2968 120.083C84.4537 120.091 84.5765 120.102 84.665 120.114V121.84C84.5926 121.82 84.4638 121.798 84.2787 121.774C84.0935 121.746 83.9084 121.731 83.7233 121.731C83.2967 121.731 82.9163 121.822 82.5823 122.003C82.2523 122.18 81.9907 122.428 81.7975 122.746C81.6043 123.06 81.5077 123.418 81.5077 123.82V129.483H79.7027ZM92.5312 123.977V129.483H90.7261V120.21H92.4587V121.719H92.5734C92.7867 121.228 93.1208 120.834 93.5756 120.536C94.0344 120.238 94.6119 120.089 95.3081 120.089C95.94 120.089 96.4934 120.222 96.9683 120.488C97.4432 120.749 97.8115 121.14 98.0731 121.659C98.3347 122.178 98.4655 122.82 98.4655 123.585V129.483H96.6604V123.802C96.6604 123.13 96.4854 122.605 96.1352 122.227C95.7851 121.844 95.3041 121.653 94.6924 121.653C94.2738 121.653 93.9015 121.744 93.5756 121.925C93.2536 122.106 92.998 122.371 92.8089 122.722C92.6237 123.068 92.5312 123.486 92.5312 123.977ZM103.585 129.688C102.997 129.688 102.466 129.58 101.991 129.362C101.516 129.141 101.14 128.821 100.862 128.402C100.588 127.984 100.452 127.471 100.452 126.863C100.452 126.34 100.552 125.909 100.753 125.571C100.955 125.233 101.226 124.965 101.568 124.768C101.911 124.571 102.293 124.422 102.715 124.321C103.138 124.221 103.569 124.144 104.007 124.092C104.563 124.028 105.014 123.975 105.36 123.935C105.706 123.891 105.957 123.82 106.114 123.724C106.271 123.627 106.35 123.47 106.35 123.253V123.211C106.35 122.683 106.201 122.275 105.903 121.985C105.609 121.695 105.17 121.55 104.587 121.55C103.979 121.55 103.5 121.685 103.15 121.955C102.804 122.22 102.565 122.516 102.432 122.842L100.735 122.456C100.937 121.892 101.23 121.438 101.617 121.092C102.007 120.741 102.456 120.488 102.963 120.331C103.47 120.17 104.003 120.089 104.563 120.089C104.933 120.089 105.325 120.134 105.74 120.222C106.159 120.307 106.549 120.464 106.911 120.693C107.277 120.923 107.577 121.251 107.811 121.677C108.044 122.1 108.161 122.649 108.161 123.325V129.483H106.398V128.215H106.326C106.209 128.449 106.034 128.678 105.8 128.903C105.567 129.129 105.267 129.316 104.901 129.465C104.535 129.614 104.096 129.688 103.585 129.688ZM103.977 128.239C104.476 128.239 104.903 128.141 105.257 127.943C105.615 127.746 105.887 127.489 106.072 127.171C106.261 126.849 106.356 126.505 106.356 126.138V124.943C106.291 125.008 106.167 125.068 105.981 125.124C105.8 125.177 105.593 125.223 105.36 125.263C105.126 125.299 104.899 125.334 104.677 125.366C104.456 125.394 104.271 125.418 104.122 125.438C103.772 125.482 103.452 125.557 103.162 125.662C102.876 125.766 102.647 125.917 102.474 126.114C102.305 126.307 102.22 126.565 102.22 126.887C102.22 127.334 102.385 127.672 102.715 127.901C103.045 128.127 103.466 128.239 103.977 128.239ZM110.565 129.483V120.21H112.298V121.719H112.412C112.605 121.208 112.921 120.81 113.36 120.524C113.799 120.234 114.324 120.089 114.936 120.089C115.556 120.089 116.075 120.234 116.493 120.524C116.916 120.814 117.228 121.212 117.429 121.719H117.526C117.747 121.224 118.099 120.83 118.582 120.536C119.065 120.238 119.641 120.089 120.309 120.089C121.15 120.089 121.836 120.353 122.367 120.88C122.902 121.408 123.17 122.202 123.17 123.265V129.483H121.365V123.434C121.365 122.806 121.194 122.351 120.852 122.07C120.51 121.788 120.101 121.647 119.626 121.647C119.039 121.647 118.582 121.828 118.256 122.19C117.93 122.548 117.767 123.009 117.767 123.573V129.483H115.968V123.319C115.968 122.816 115.811 122.412 115.497 122.106C115.183 121.8 114.775 121.647 114.272 121.647C113.93 121.647 113.614 121.738 113.324 121.919C113.038 122.096 112.807 122.343 112.63 122.661C112.457 122.979 112.37 123.347 112.37 123.766V129.483H110.565ZM129.586 129.67C128.672 129.67 127.885 129.475 127.225 129.084C126.569 128.69 126.062 128.137 125.704 127.424C125.35 126.708 125.173 125.869 125.173 124.907C125.173 123.957 125.35 123.12 125.704 122.396C126.062 121.671 126.561 121.106 127.201 120.699C127.845 120.293 128.598 120.089 129.459 120.089C129.982 120.089 130.489 120.176 130.98 120.349C131.471 120.522 131.912 120.794 132.302 121.164C132.693 121.534 133.001 122.015 133.226 122.607C133.451 123.194 133.564 123.909 133.564 124.75V125.39H126.193V124.038H131.795C131.795 123.563 131.699 123.142 131.506 122.776C131.312 122.406 131.041 122.114 130.691 121.901C130.344 121.687 129.938 121.581 129.471 121.581C128.964 121.581 128.521 121.705 128.143 121.955C127.769 122.2 127.479 122.522 127.274 122.921C127.072 123.315 126.972 123.744 126.972 124.207V125.263C126.972 125.883 127.081 126.41 127.298 126.845C127.519 127.279 127.827 127.611 128.222 127.841C128.616 128.066 129.077 128.179 129.604 128.179C129.946 128.179 130.258 128.131 130.54 128.034C130.821 127.933 131.065 127.785 131.27 127.587C131.475 127.39 131.632 127.147 131.741 126.857L133.449 127.165C133.313 127.668 133.067 128.109 132.713 128.487C132.363 128.861 131.922 129.153 131.391 129.362C130.864 129.567 130.262 129.67 129.586 129.67Z" fill="#C2C2C2"/>
<path d="M330.592 116.848L336.727 122.983M342.862 129.118L336.727 122.983M336.727 122.983L342.862 116.848M336.727 122.983L330.592 129.118" stroke="#9C9C9C" stroke-width="2.27874" stroke-linecap="round"/>
<path d="M37.6705 76.3636V88H36.0568L30.142 79.4659H30.0341V88H28.2784V76.3636H29.9034L35.8239 84.9091H35.9318V76.3636H37.6705ZM42.6349 88.1932C42.0819 88.1932 41.5819 88.0909 41.1349 87.8864C40.688 87.678 40.3338 87.3769 40.0724 86.983C39.8149 86.589 39.6861 86.1061 39.6861 85.5341C39.6861 85.0417 39.7808 84.6364 39.9702 84.3182C40.1596 84 40.4152 83.7481 40.7372 83.5625C41.0592 83.3769 41.419 83.2367 41.8168 83.142C42.2145 83.0473 42.6198 82.9754 43.0327 82.9261C43.5554 82.8655 43.9796 82.8163 44.3054 82.7784C44.6312 82.7367 44.8679 82.6705 45.0156 82.5795C45.1634 82.4886 45.2372 82.3409 45.2372 82.1364V82.0966C45.2372 81.6004 45.0971 81.2159 44.8168 80.9432C44.5402 80.6705 44.1274 80.5341 43.5781 80.5341C43.0062 80.5341 42.5554 80.661 42.2259 80.9148C41.9001 81.1648 41.6747 81.4432 41.5497 81.75L39.9531 81.3864C40.1425 80.8561 40.419 80.428 40.7827 80.1023C41.1501 79.7727 41.5724 79.5341 42.0497 79.3864C42.527 79.2348 43.0289 79.1591 43.5554 79.1591C43.9039 79.1591 44.2732 79.2008 44.6634 79.2841C45.0573 79.3636 45.4247 79.5114 45.7656 79.7273C46.1103 79.9432 46.3925 80.2519 46.6122 80.6534C46.8319 81.0511 46.9418 81.5682 46.9418 82.2045V88H45.2827V86.8068H45.2145C45.1046 87.0265 44.9399 87.2424 44.7202 87.4545C44.5005 87.6667 44.2183 87.8428 43.8736 87.983C43.5289 88.1231 43.116 88.1932 42.6349 88.1932ZM43.0043 86.8295C43.474 86.8295 43.8755 86.7367 44.2088 86.5511C44.5459 86.3655 44.8016 86.1231 44.9759 85.8239C45.1539 85.5208 45.2429 85.197 45.2429 84.8523V83.7273C45.1823 83.7879 45.0649 83.8447 44.8906 83.8977C44.7202 83.947 44.5251 83.9905 44.3054 84.0284C44.0857 84.0625 43.8717 84.0947 43.6634 84.125C43.455 84.1515 43.2808 84.1742 43.1406 84.1932C42.8111 84.2348 42.5099 84.3049 42.2372 84.4034C41.9683 84.5019 41.7524 84.6439 41.5895 84.8295C41.4304 85.0114 41.3509 85.2538 41.3509 85.5568C41.3509 85.9773 41.5062 86.2955 41.8168 86.5114C42.1274 86.7235 42.5232 86.8295 43.0043 86.8295ZM49.2045 88V79.2727H50.8352V80.6932H50.9432C51.125 80.2121 51.4223 79.8371 51.8352 79.5682C52.2481 79.2955 52.7424 79.1591 53.3182 79.1591C53.9015 79.1591 54.3902 79.2955 54.7841 79.5682C55.1818 79.8409 55.4754 80.2159 55.6648 80.6932H55.7557C55.964 80.2273 56.2955 79.8561 56.75 79.5795C57.2045 79.2992 57.7462 79.1591 58.375 79.1591C59.1667 79.1591 59.8125 79.4072 60.3125 79.9034C60.8163 80.3996 61.0682 81.1477 61.0682 82.1477V88H59.3693V82.3068C59.3693 81.7159 59.2083 81.2879 58.8864 81.0227C58.5644 80.7576 58.1799 80.625 57.733 80.625C57.1799 80.625 56.75 80.7955 56.4432 81.1364C56.1364 81.4735 55.983 81.9072 55.983 82.4375V88H54.2898V82.1989C54.2898 81.7254 54.142 81.3447 53.8466 81.0568C53.5511 80.7689 53.1667 80.625 52.6932 80.625C52.3712 80.625 52.0739 80.7102 51.8011 80.8807C51.5322 81.0473 51.3144 81.2803 51.1477 81.5795C50.9848 81.8788 50.9034 82.2254 50.9034 82.6193V88H49.2045ZM67.1065 88.1761C66.2467 88.1761 65.5062 87.9924 64.8849 87.625C64.2675 87.2538 63.7902 86.733 63.4531 86.0625C63.1198 85.3883 62.9531 84.5985 62.9531 83.6932C62.9531 82.7992 63.1198 82.0114 63.4531 81.3295C63.7902 80.6477 64.2599 80.1155 64.8622 79.733C65.4683 79.3504 66.1766 79.1591 66.9872 79.1591C67.4796 79.1591 67.9569 79.2405 68.419 79.4034C68.8812 79.5663 69.2959 79.822 69.6634 80.1705C70.0308 80.5189 70.3205 80.9716 70.5327 81.5284C70.7448 82.0814 70.8509 82.7538 70.8509 83.5455V84.1477H63.9134V82.875H69.1861C69.1861 82.428 69.0952 82.0322 68.9134 81.6875C68.7315 81.339 68.4759 81.0644 68.1463 80.8636C67.8205 80.6629 67.438 80.5625 66.9986 80.5625C66.5213 80.5625 66.1046 80.6799 65.7486 80.9148C65.3963 81.1458 65.1236 81.4489 64.9304 81.8239C64.741 82.1951 64.6463 82.5985 64.6463 83.0341V84.0284C64.6463 84.6117 64.7486 85.108 64.9531 85.517C65.1615 85.9261 65.4512 86.2386 65.8224 86.4545C66.1937 86.6667 66.6274 86.7727 67.1236 86.7727C67.4455 86.7727 67.7391 86.7273 68.0043 86.6364C68.2694 86.5417 68.4986 86.4015 68.6918 86.2159C68.8849 86.0303 69.0327 85.8011 69.1349 85.5284L70.7429 85.8182C70.6141 86.2917 70.383 86.7064 70.0497 87.0625C69.7202 87.4148 69.3054 87.6894 68.8054 87.8864C68.3092 88.0795 67.7429 88.1761 67.1065 88.1761Z" fill="black"/>
<path d="M79.064 79.76C79.816 79.952 81.112 80.528 81.336 80.656C81.544 80.768 81.64 80.992 81.64 81.2C81.64 81.552 81.352 81.84 81 81.84C80.888 81.84 80.792 81.824 80.696 81.76C80.472 81.632 79.336 80.8 78.792 80.24C79.016 80.992 79.16 82.384 79.16 82.64C79.16 82.992 78.872 83.28 78.52 83.28C78.168 83.28 77.88 82.992 77.88 82.64C77.88 82.384 78.024 80.992 78.248 80.24C77.704 80.8 76.568 81.632 76.344 81.76C76.248 81.824 76.152 81.84 76.04 81.84C75.688 81.84 75.4 81.552 75.4 81.2C75.4 80.976 75.496 80.752 75.704 80.64C75.928 80.512 77.224 79.952 77.976 79.76C77.224 79.568 75.928 78.992 75.704 78.864C75.496 78.752 75.4 78.528 75.4 78.32C75.4 77.968 75.688 77.68 76.04 77.68C76.152 77.68 76.248 77.696 76.344 77.76C76.568 77.888 77.704 78.72 78.248 79.28C78.024 78.528 77.88 77.136 77.88 76.88C77.88 76.528 78.168 76.24 78.52 76.24C78.872 76.24 79.16 76.528 79.16 76.88C79.16 77.136 79.016 78.528 78.792 79.28C79.336 78.72 80.472 77.888 80.696 77.76C80.792 77.696 80.888 77.68 81 77.68C81.352 77.68 81.64 77.968 81.64 78.32C81.64 78.544 81.544 78.768 81.336 78.88C81.112 79.008 79.816 79.568 79.064 79.76Z" fill="#DB0000"/>
<rect x="389" y="100" width="602" height="144" rx="10" fill="#F6F6F6"/>
<path d="M410.248 117.119H412.367L415.597 122.74H415.73L418.96 117.119H421.078L416.593 124.629V129.483H414.734V124.629L410.248 117.119ZM425.073 129.67C424.204 129.67 423.445 129.471 422.797 129.072C422.15 128.674 421.646 128.117 421.288 127.4C420.93 126.684 420.751 125.847 420.751 124.889C420.751 123.927 420.93 123.086 421.288 122.365C421.646 121.645 422.15 121.086 422.797 120.687C423.445 120.289 424.204 120.089 425.073 120.089C425.943 120.089 426.701 120.289 427.349 120.687C427.997 121.086 428.5 121.645 428.859 122.365C429.217 123.086 429.396 123.927 429.396 124.889C429.396 125.847 429.217 126.684 428.859 127.4C428.5 128.117 427.997 128.674 427.349 129.072C426.701 129.471 425.943 129.67 425.073 129.67ZM425.079 128.155C425.643 128.155 426.11 128.006 426.48 127.708C426.85 127.41 427.124 127.014 427.301 126.519C427.482 126.024 427.573 125.478 427.573 124.883C427.573 124.291 427.482 123.748 427.301 123.253C427.124 122.754 426.85 122.353 426.48 122.051C426.11 121.75 425.643 121.599 425.079 121.599C424.512 121.599 424.041 121.75 423.667 122.051C423.297 122.353 423.021 122.754 422.84 123.253C422.663 123.748 422.574 124.291 422.574 124.883C422.574 125.478 422.663 126.024 422.84 126.519C423.021 127.014 423.297 127.41 423.667 127.708C424.041 128.006 424.512 128.155 425.079 128.155ZM437.285 125.637V120.21H439.096V129.483H437.321V127.877H437.224C437.011 128.372 436.669 128.785 436.198 129.115C435.731 129.441 435.15 129.604 434.453 129.604C433.858 129.604 433.33 129.473 432.872 129.211C432.417 128.946 432.059 128.553 431.797 128.034C431.539 127.515 431.411 126.873 431.411 126.108V120.21H433.216V125.891C433.216 126.523 433.391 127.026 433.741 127.4C434.091 127.774 434.546 127.962 435.105 127.962C435.443 127.962 435.779 127.877 436.113 127.708C436.452 127.539 436.731 127.283 436.953 126.941C437.178 126.599 437.289 126.165 437.285 125.637ZM441.521 129.483V120.21H443.266V121.683H443.362C443.531 121.184 443.829 120.792 444.256 120.506C444.686 120.216 445.173 120.071 445.717 120.071C445.829 120.071 445.962 120.075 446.115 120.083C446.272 120.091 446.395 120.102 446.483 120.114V121.84C446.411 121.82 446.282 121.798 446.097 121.774C445.912 121.746 445.727 121.731 445.542 121.731C445.115 121.731 444.735 121.822 444.401 122.003C444.071 122.18 443.809 122.428 443.616 122.746C443.423 123.06 443.326 123.418 443.326 123.82V129.483H441.521ZM457.748 127.249L460.743 120.21H462.3L458.418 129.483H457.078L453.275 120.21H454.814L457.748 127.249ZM454.313 120.21V129.483H452.544V120.21H454.313ZM461.232 129.483V120.21H462.988V129.483H461.232ZM469.391 129.67C468.477 129.67 467.69 129.475 467.03 129.084C466.374 128.69 465.867 128.137 465.509 127.424C465.155 126.708 464.978 125.869 464.978 124.907C464.978 123.957 465.155 123.12 465.509 122.396C465.867 121.671 466.366 121.106 467.006 120.699C467.65 120.293 468.402 120.089 469.264 120.089C469.787 120.089 470.294 120.176 470.785 120.349C471.276 120.522 471.717 120.794 472.107 121.164C472.498 121.534 472.805 122.015 473.031 122.607C473.256 123.194 473.369 123.909 473.369 124.75V125.39H465.998V124.038H471.6C471.6 123.563 471.503 123.142 471.31 122.776C471.117 122.406 470.845 122.114 470.495 121.901C470.149 121.687 469.743 121.581 469.276 121.581C468.769 121.581 468.326 121.705 467.948 121.955C467.573 122.2 467.284 122.522 467.078 122.921C466.877 123.315 466.777 123.744 466.777 124.207V125.263C466.777 125.883 466.885 126.41 467.103 126.845C467.324 127.279 467.632 127.611 468.026 127.841C468.421 128.066 468.881 128.179 469.409 128.179C469.751 128.179 470.063 128.131 470.344 128.034C470.626 127.933 470.87 127.785 471.075 127.587C471.28 127.39 471.437 127.147 471.546 126.857L473.254 127.165C473.117 127.668 472.872 128.109 472.518 128.487C472.168 128.861 471.727 129.153 471.196 129.362C470.668 129.567 470.067 129.67 469.391 129.67ZM482.32 122.474L480.684 122.764C480.616 122.555 480.507 122.355 480.358 122.166C480.213 121.977 480.016 121.822 479.767 121.701C479.517 121.581 479.205 121.52 478.831 121.52C478.32 121.52 477.893 121.635 477.551 121.864C477.209 122.09 477.038 122.381 477.038 122.74C477.038 123.05 477.153 123.299 477.382 123.488C477.611 123.677 477.982 123.832 478.493 123.953L479.966 124.291C480.819 124.488 481.455 124.792 481.873 125.203C482.292 125.613 482.501 126.146 482.501 126.803C482.501 127.358 482.34 127.853 482.018 128.288C481.7 128.718 481.256 129.056 480.684 129.302C480.117 129.547 479.459 129.67 478.71 129.67C477.672 129.67 476.825 129.449 476.169 129.006C475.512 128.559 475.11 127.925 474.961 127.104L476.706 126.839C476.814 127.294 477.038 127.638 477.376 127.871C477.714 128.1 478.155 128.215 478.698 128.215C479.29 128.215 479.762 128.092 480.117 127.847C480.471 127.597 480.648 127.294 480.648 126.935C480.648 126.646 480.539 126.402 480.322 126.205C480.109 126.008 479.781 125.859 479.338 125.758L477.768 125.414C476.903 125.217 476.263 124.903 475.849 124.472C475.438 124.042 475.233 123.496 475.233 122.836C475.233 122.289 475.386 121.81 475.692 121.399C475.997 120.989 476.42 120.669 476.959 120.44C477.499 120.206 478.116 120.089 478.813 120.089C479.815 120.089 480.604 120.307 481.179 120.741C481.755 121.172 482.135 121.75 482.32 122.474ZM491.434 122.474L489.798 122.764C489.73 122.555 489.621 122.355 489.472 122.166C489.328 121.977 489.13 121.822 488.881 121.701C488.631 121.581 488.319 121.52 487.945 121.52C487.434 121.52 487.007 121.635 486.665 121.864C486.323 122.09 486.152 122.381 486.152 122.74C486.152 123.05 486.267 123.299 486.496 123.488C486.726 123.677 487.096 123.832 487.607 123.953L489.08 124.291C489.933 124.488 490.569 124.792 490.988 125.203C491.406 125.613 491.616 126.146 491.616 126.803C491.616 127.358 491.455 127.853 491.133 128.288C490.815 128.718 490.37 129.056 489.798 129.302C489.231 129.547 488.573 129.67 487.824 129.67C486.786 129.67 485.939 129.449 485.283 129.006C484.627 128.559 484.224 127.925 484.075 127.104L485.82 126.839C485.929 127.294 486.152 127.638 486.49 127.871C486.828 128.1 487.269 128.215 487.812 128.215C488.404 128.215 488.877 128.092 489.231 127.847C489.585 127.597 489.762 127.294 489.762 126.935C489.762 126.646 489.653 126.402 489.436 126.205C489.223 126.008 488.895 125.859 488.452 125.758L486.883 125.414C486.017 125.217 485.377 124.903 484.963 124.472C484.552 124.042 484.347 123.496 484.347 122.836C484.347 122.289 484.5 121.81 484.806 121.399C485.112 120.989 485.534 120.669 486.074 120.44C486.613 120.206 487.231 120.089 487.927 120.089C488.929 120.089 489.718 120.307 490.293 120.741C490.869 121.172 491.249 121.75 491.434 122.474ZM496.299 129.688C495.711 129.688 495.18 129.58 494.705 129.362C494.23 129.141 493.854 128.821 493.576 128.402C493.302 127.984 493.165 127.471 493.165 126.863C493.165 126.34 493.266 125.909 493.467 125.571C493.669 125.233 493.94 124.965 494.282 124.768C494.624 124.571 495.007 124.422 495.429 124.321C495.852 124.221 496.283 124.144 496.721 124.092C497.277 124.028 497.727 123.975 498.074 123.935C498.42 123.891 498.671 123.82 498.828 123.724C498.985 123.627 499.064 123.47 499.064 123.253V123.211C499.064 122.683 498.915 122.275 498.617 121.985C498.323 121.695 497.884 121.55 497.301 121.55C496.693 121.55 496.214 121.685 495.864 121.955C495.518 122.22 495.278 122.516 495.146 122.842L493.449 122.456C493.65 121.892 493.944 121.438 494.331 121.092C494.721 120.741 495.17 120.488 495.677 120.331C496.184 120.17 496.717 120.089 497.277 120.089C497.647 120.089 498.039 120.134 498.454 120.222C498.872 120.307 499.263 120.464 499.625 120.693C499.991 120.923 500.291 121.251 500.525 121.677C500.758 122.1 500.875 122.649 500.875 123.325V129.483H499.112V128.215H499.039C498.923 128.449 498.748 128.678 498.514 128.903C498.281 129.129 497.981 129.316 497.615 129.465C497.248 129.614 496.81 129.688 496.299 129.688ZM496.691 128.239C497.19 128.239 497.617 128.141 497.971 127.943C498.329 127.746 498.601 127.489 498.786 127.171C498.975 126.849 499.07 126.505 499.07 126.138V124.943C499.005 125.008 498.88 125.068 498.695 125.124C498.514 125.177 498.307 125.223 498.074 125.263C497.84 125.299 497.613 125.334 497.391 125.366C497.17 125.394 496.985 125.418 496.836 125.438C496.486 125.482 496.166 125.557 495.876 125.662C495.59 125.766 495.361 125.917 495.188 126.114C495.019 126.307 494.934 126.565 494.934 126.887C494.934 127.334 495.099 127.672 495.429 127.901C495.759 128.127 496.18 128.239 496.691 128.239ZM507.167 133.153C506.43 133.153 505.796 133.057 505.265 132.864C504.738 132.67 504.307 132.415 503.973 132.097C503.639 131.779 503.39 131.431 503.225 131.053L504.776 130.413C504.885 130.59 505.03 130.777 505.211 130.974C505.396 131.175 505.645 131.346 505.959 131.487C506.277 131.628 506.686 131.698 507.185 131.698C507.869 131.698 508.434 131.531 508.881 131.197C509.328 130.867 509.551 130.34 509.551 129.616V127.793H509.437C509.328 127.99 509.171 128.209 508.966 128.451C508.764 128.692 508.487 128.901 508.133 129.078C507.778 129.256 507.318 129.344 506.75 129.344C506.018 129.344 505.358 129.173 504.77 128.831C504.186 128.485 503.724 127.976 503.381 127.304C503.043 126.627 502.874 125.796 502.874 124.81C502.874 123.824 503.041 122.979 503.375 122.275C503.714 121.571 504.176 121.031 504.764 120.657C505.352 120.279 506.018 120.089 506.762 120.089C507.338 120.089 507.803 120.186 508.157 120.379C508.511 120.568 508.787 120.79 508.984 121.043C509.185 121.297 509.34 121.52 509.449 121.713H509.581V120.21H511.35V129.688C511.35 130.485 511.165 131.139 510.795 131.65C510.425 132.161 509.924 132.54 509.292 132.785C508.664 133.031 507.955 133.153 507.167 133.153ZM507.149 127.847C507.668 127.847 508.106 127.726 508.465 127.485C508.827 127.239 509.1 126.889 509.286 126.434C509.475 125.975 509.569 125.426 509.569 124.786C509.569 124.162 509.477 123.613 509.292 123.138C509.107 122.663 508.835 122.293 508.477 122.027C508.118 121.758 507.676 121.623 507.149 121.623C506.605 121.623 506.152 121.764 505.79 122.045C505.428 122.323 505.154 122.701 504.969 123.18C504.788 123.659 504.698 124.195 504.698 124.786C504.698 125.394 504.79 125.927 504.975 126.386C505.16 126.845 505.434 127.203 505.796 127.461C506.162 127.718 506.613 127.847 507.149 127.847ZM517.767 129.67C516.854 129.67 516.067 129.475 515.407 129.084C514.751 128.69 514.244 128.137 513.886 127.424C513.532 126.708 513.354 125.869 513.354 124.907C513.354 123.957 513.532 123.12 513.886 122.396C514.244 121.671 514.743 121.106 515.383 120.699C516.027 120.293 516.779 120.089 517.641 120.089C518.164 120.089 518.671 120.176 519.162 120.349C519.653 120.522 520.094 120.794 520.484 121.164C520.874 121.534 521.182 122.015 521.408 122.607C521.633 123.194 521.746 123.909 521.746 124.75V125.39H514.375V124.038H519.977C519.977 123.563 519.88 123.142 519.687 122.776C519.494 122.406 519.222 122.114 518.872 121.901C518.526 121.687 518.12 121.581 517.653 121.581C517.146 121.581 516.703 121.705 516.325 121.955C515.95 122.2 515.661 122.522 515.455 122.921C515.254 123.315 515.153 123.744 515.153 124.207V125.263C515.153 125.883 515.262 126.41 515.479 126.845C515.701 127.279 516.009 127.611 516.403 127.841C516.798 128.066 517.258 128.179 517.786 128.179C518.128 128.179 518.44 128.131 518.721 128.034C519.003 127.933 519.247 127.785 519.452 127.587C519.657 127.39 519.814 127.147 519.923 126.857L521.631 127.165C521.494 127.668 521.249 128.109 520.895 128.487C520.544 128.861 520.104 129.153 519.573 129.362C519.045 129.567 518.444 129.67 517.767 129.67Z" fill="#C2C2C2"/>
<path d="M958.041 114.483L964.176 120.618M970.311 126.753L964.176 120.618M964.176 120.618L970.311 114.483M964.176 120.618L958.041 126.753" stroke="#9C9C9C" stroke-width="2.27874" stroke-linecap="round"/>
<path d="M390.278 76.3636H392.409L396.114 85.4091H396.25L399.955 76.3636H402.085V88H400.415V79.5795H400.307L396.875 87.983H395.489L392.057 79.5739H391.949V88H390.278V76.3636ZM408.263 88.1761C407.403 88.1761 406.662 87.9924 406.041 87.625C405.424 87.2538 404.946 86.733 404.609 86.0625C404.276 85.3883 404.109 84.5985 404.109 83.6932C404.109 82.7992 404.276 82.0114 404.609 81.3295C404.946 80.6477 405.416 80.1155 406.018 79.733C406.625 79.3504 407.333 79.1591 408.143 79.1591C408.636 79.1591 409.113 79.2405 409.575 79.4034C410.037 79.5663 410.452 79.822 410.82 80.1705C411.187 80.5189 411.477 80.9716 411.689 81.5284C411.901 82.0814 412.007 82.7538 412.007 83.5455V84.1477H405.07V82.875H410.342C410.342 82.428 410.251 82.0322 410.07 81.6875C409.888 81.339 409.632 81.0644 409.303 80.8636C408.977 80.6629 408.594 80.5625 408.155 80.5625C407.678 80.5625 407.261 80.6799 406.905 80.9148C406.553 81.1458 406.28 81.4489 406.087 81.8239C405.897 82.1951 405.803 82.5985 405.803 83.0341V84.0284C405.803 84.6117 405.905 85.108 406.109 85.517C406.318 85.9261 406.607 86.2386 406.979 86.4545C407.35 86.6667 407.784 86.7727 408.28 86.7727C408.602 86.7727 408.895 86.7273 409.161 86.6364C409.426 86.5417 409.655 86.4015 409.848 86.2159C410.041 86.0303 410.189 85.8011 410.291 85.5284L411.899 85.8182C411.77 86.2917 411.539 86.7064 411.206 87.0625C410.876 87.4148 410.462 87.6894 409.962 87.8864C409.465 88.0795 408.899 88.1761 408.263 88.1761ZM420.432 81.4034L418.892 81.6761C418.828 81.4792 418.725 81.2917 418.585 81.1136C418.449 80.9356 418.263 80.7898 418.028 80.6761C417.794 80.5625 417.5 80.5057 417.148 80.5057C416.667 80.5057 416.265 80.6136 415.943 80.8295C415.621 81.0417 415.46 81.3163 415.46 81.6534C415.46 81.9451 415.568 82.1799 415.784 82.358C416 82.536 416.348 82.6818 416.83 82.7955L418.216 83.1136C419.019 83.2992 419.617 83.5852 420.011 83.9716C420.405 84.358 420.602 84.8598 420.602 85.4773C420.602 86 420.451 86.4659 420.148 86.875C419.848 87.2803 419.43 87.5985 418.892 87.8295C418.358 88.0606 417.739 88.1761 417.034 88.1761C416.057 88.1761 415.259 87.9678 414.642 87.5511C414.025 87.1307 413.646 86.5341 413.506 85.7614L415.148 85.5114C415.25 85.9394 415.46 86.2633 415.778 86.483C416.097 86.6989 416.511 86.8068 417.023 86.8068C417.58 86.8068 418.025 86.6913 418.358 86.4602C418.691 86.2254 418.858 85.9394 418.858 85.6023C418.858 85.3295 418.756 85.1004 418.551 84.9148C418.35 84.7292 418.042 84.589 417.625 84.4943L416.148 84.1705C415.333 83.9848 414.731 83.6894 414.341 83.2841C413.955 82.8788 413.761 82.3655 413.761 81.7443C413.761 81.2292 413.905 80.7784 414.193 80.392C414.481 80.0057 414.879 79.7045 415.386 79.4886C415.894 79.2689 416.475 79.1591 417.131 79.1591C418.074 79.1591 418.816 79.3636 419.358 79.7727C419.9 80.178 420.258 80.7216 420.432 81.4034ZM429.01 81.4034L427.47 81.6761C427.406 81.4792 427.304 81.2917 427.163 81.1136C427.027 80.9356 426.841 80.7898 426.607 80.6761C426.372 80.5625 426.078 80.5057 425.726 80.5057C425.245 80.5057 424.843 80.6136 424.521 80.8295C424.199 81.0417 424.038 81.3163 424.038 81.6534C424.038 81.9451 424.146 82.1799 424.362 82.358C424.578 82.536 424.927 82.6818 425.408 82.7955L426.794 83.1136C427.597 83.2992 428.196 83.5852 428.589 83.9716C428.983 84.358 429.18 84.8598 429.18 85.4773C429.18 86 429.029 86.4659 428.726 86.875C428.427 87.2803 428.008 87.5985 427.47 87.8295C426.936 88.0606 426.317 88.1761 425.612 88.1761C424.635 88.1761 423.838 87.9678 423.22 87.5511C422.603 87.1307 422.224 86.5341 422.084 85.7614L423.726 85.5114C423.828 85.9394 424.038 86.2633 424.357 86.483C424.675 86.6989 425.089 86.8068 425.601 86.8068C426.158 86.8068 426.603 86.6913 426.936 86.4602C427.269 86.2254 427.436 85.9394 427.436 85.6023C427.436 85.3295 427.334 85.1004 427.129 84.9148C426.929 84.7292 426.62 84.589 426.203 84.4943L424.726 84.1705C423.911 83.9848 423.309 83.6894 422.919 83.2841C422.533 82.8788 422.339 82.3655 422.339 81.7443C422.339 81.2292 422.483 80.7784 422.771 80.392C423.059 80.0057 423.457 79.7045 423.964 79.4886C424.472 79.2689 425.054 79.1591 425.709 79.1591C426.652 79.1591 427.394 79.3636 427.936 79.7727C428.478 80.178 428.836 80.7216 429.01 81.4034ZM433.588 88.1932C433.035 88.1932 432.535 88.0909 432.088 87.8864C431.641 87.678 431.287 87.3769 431.026 86.983C430.768 86.589 430.639 86.1061 430.639 85.5341C430.639 85.0417 430.734 84.6364 430.923 84.3182C431.113 84 431.368 83.7481 431.69 83.5625C432.012 83.3769 432.372 83.2367 432.77 83.142C433.168 83.0473 433.573 82.9754 433.986 82.9261C434.509 82.8655 434.933 82.8163 435.259 82.7784C435.584 82.7367 435.821 82.6705 435.969 82.5795C436.116 82.4886 436.19 82.3409 436.19 82.1364V82.0966C436.19 81.6004 436.05 81.2159 435.77 80.9432C435.493 80.6705 435.08 80.5341 434.531 80.5341C433.959 80.5341 433.509 80.661 433.179 80.9148C432.853 81.1648 432.628 81.4432 432.503 81.75L430.906 81.3864C431.096 80.8561 431.372 80.428 431.736 80.1023C432.103 79.7727 432.526 79.5341 433.003 79.3864C433.48 79.2348 433.982 79.1591 434.509 79.1591C434.857 79.1591 435.226 79.2008 435.616 79.2841C436.01 79.3636 436.378 79.5114 436.719 79.7273C437.063 79.9432 437.346 80.2519 437.565 80.6534C437.785 81.0511 437.895 81.5682 437.895 82.2045V88H436.236V86.8068H436.168C436.058 87.0265 435.893 87.2424 435.673 87.4545C435.454 87.6667 435.171 87.8428 434.827 87.983C434.482 88.1231 434.069 88.1932 433.588 88.1932ZM433.957 86.8295C434.427 86.8295 434.829 86.7367 435.162 86.5511C435.499 86.3655 435.755 86.1231 435.929 85.8239C436.107 85.5208 436.196 85.197 436.196 84.8523V83.7273C436.135 83.7879 436.018 83.8447 435.844 83.8977C435.673 83.947 435.478 83.9905 435.259 84.0284C435.039 84.0625 434.825 84.0947 434.616 84.125C434.408 84.1515 434.234 84.1742 434.094 84.1932C433.764 84.2348 433.463 84.3049 433.19 84.4034C432.921 84.5019 432.705 84.6439 432.543 84.8295C432.384 85.0114 432.304 85.2538 432.304 85.5568C432.304 85.9773 432.459 86.2955 432.77 86.5114C433.08 86.7235 433.476 86.8295 433.957 86.8295ZM443.817 91.4545C443.124 91.4545 442.527 91.3636 442.027 91.1818C441.531 91 441.125 90.7595 440.811 90.4602C440.497 90.161 440.262 89.8333 440.107 89.4773L441.567 88.875C441.669 89.0417 441.805 89.2178 441.976 89.4034C442.15 89.5928 442.385 89.7538 442.68 89.8864C442.98 90.0189 443.364 90.0852 443.834 90.0852C444.478 90.0852 445.01 89.928 445.43 89.6136C445.851 89.303 446.061 88.8068 446.061 88.125V86.4091H445.953C445.851 86.5947 445.703 86.8011 445.51 87.0284C445.321 87.2557 445.059 87.4527 444.726 87.6193C444.393 87.786 443.959 87.8693 443.425 87.8693C442.735 87.8693 442.114 87.7083 441.561 87.3864C441.012 87.0606 440.576 86.5814 440.254 85.9489C439.936 85.3125 439.777 84.5303 439.777 83.6023C439.777 82.6742 439.934 81.8788 440.249 81.2159C440.567 80.553 441.002 80.0455 441.555 79.6932C442.108 79.3371 442.735 79.1591 443.436 79.1591C443.978 79.1591 444.415 79.25 444.749 79.4318C445.082 79.6098 445.341 79.8182 445.527 80.0568C445.716 80.2955 445.862 80.5057 445.964 80.6875H446.089V79.2727H447.754V88.1932C447.754 88.9432 447.58 89.5587 447.232 90.0398C446.883 90.5208 446.411 90.8769 445.817 91.108C445.226 91.339 444.559 91.4545 443.817 91.4545ZM443.8 86.4602C444.288 86.4602 444.701 86.3466 445.038 86.1193C445.379 85.8883 445.637 85.5587 445.811 85.1307C445.989 84.6989 446.078 84.1818 446.078 83.5795C446.078 82.9924 445.991 82.4754 445.817 82.0284C445.643 81.5814 445.387 81.233 445.05 80.983C444.713 80.7292 444.296 80.6023 443.8 80.6023C443.288 80.6023 442.862 80.7348 442.521 81C442.18 81.2614 441.923 81.6174 441.749 82.0682C441.578 82.5189 441.493 83.0227 441.493 83.5795C441.493 84.1515 441.58 84.6534 441.754 85.0852C441.929 85.517 442.186 85.8542 442.527 86.0966C442.872 86.339 443.296 86.4602 443.8 86.4602ZM453.794 88.1761C452.934 88.1761 452.194 87.9924 451.572 87.625C450.955 87.2538 450.478 86.733 450.141 86.0625C449.807 85.3883 449.641 84.5985 449.641 83.6932C449.641 82.7992 449.807 82.0114 450.141 81.3295C450.478 80.6477 450.947 80.1155 451.55 79.733C452.156 79.3504 452.864 79.1591 453.675 79.1591C454.167 79.1591 454.644 79.2405 455.107 79.4034C455.569 79.5663 455.983 79.822 456.351 80.1705C456.718 80.5189 457.008 80.9716 457.22 81.5284C457.432 82.0814 457.538 82.7538 457.538 83.5455V84.1477H450.601V82.875H455.874C455.874 82.428 455.783 82.0322 455.601 81.6875C455.419 81.339 455.163 81.0644 454.834 80.8636C454.508 80.6629 454.125 80.5625 453.686 80.5625C453.209 80.5625 452.792 80.6799 452.436 80.9148C452.084 81.1458 451.811 81.4489 451.618 81.8239C451.429 82.1951 451.334 82.5985 451.334 83.0341V84.0284C451.334 84.6117 451.436 85.108 451.641 85.517C451.849 85.9261 452.139 86.2386 452.51 86.4545C452.881 86.6667 453.315 86.7727 453.811 86.7727C454.133 86.7727 454.427 86.7273 454.692 86.6364C454.957 86.5417 455.186 86.4015 455.379 86.2159C455.572 86.0303 455.72 85.8011 455.822 85.5284L457.43 85.8182C457.302 86.2917 457.071 86.7064 456.737 87.0625C456.408 87.4148 455.993 87.6894 455.493 87.8864C454.997 88.0795 454.43 88.1761 453.794 88.1761Z" fill="black"/>
<path d="M467.064 79.76C467.816 79.952 469.112 80.528 469.336 80.656C469.544 80.768 469.64 80.992 469.64 81.2C469.64 81.552 469.352 81.84 469 81.84C468.888 81.84 468.792 81.824 468.696 81.76C468.472 81.632 467.336 80.8 466.792 80.24C467.016 80.992 467.16 82.384 467.16 82.64C467.16 82.992 466.872 83.28 466.52 83.28C466.168 83.28 465.88 82.992 465.88 82.64C465.88 82.384 466.024 80.992 466.248 80.24C465.704 80.8 464.568 81.632 464.344 81.76C464.248 81.824 464.152 81.84 464.04 81.84C463.688 81.84 463.4 81.552 463.4 81.2C463.4 80.976 463.496 80.752 463.704 80.64C463.928 80.512 465.224 79.952 465.976 79.76C465.224 79.568 463.928 78.992 463.704 78.864C463.496 78.752 463.4 78.528 463.4 78.32C463.4 77.968 463.688 77.68 464.04 77.68C464.152 77.68 464.248 77.696 464.344 77.76C464.568 77.888 465.704 78.72 466.248 79.28C466.024 78.528 465.88 77.136 465.88 76.88C465.88 76.528 466.168 76.24 466.52 76.24C466.872 76.24 467.16 76.528 467.16 76.88C467.16 77.136 467.016 78.528 466.792 79.28C467.336 78.72 468.472 77.888 468.696 77.76C468.792 77.696 468.888 77.68 469 77.68C469.352 77.68 469.64 77.968 469.64 78.32C469.64 78.544 469.544 78.768 469.336 78.88C469.112 79.008 467.816 79.568 467.064 79.76Z" fill="#DB0000"/>
<rect x="27" y="198" width="336.552" height="45.9655" rx="10" fill="#F6F6F6"/>
<path d="M49.0289 227.483V218.21H50.8339V227.483H49.0289ZM49.9404 216.779C49.6265 216.779 49.3569 216.675 49.1315 216.466C48.9101 216.252 48.7994 215.999 48.7994 215.705C48.7994 215.407 48.9101 215.153 49.1315 214.944C49.3569 214.731 49.6265 214.624 49.9404 214.624C50.2544 214.624 50.522 214.731 50.7433 214.944C50.9687 215.153 51.0814 215.407 51.0814 215.705C51.0814 215.999 50.9687 216.252 50.7433 216.466C50.522 216.675 50.2544 216.779 49.9404 216.779ZM55.0673 215.119V227.483H53.2623V215.119H55.0673ZM61.4015 227.67C60.5322 227.67 59.7736 227.471 59.1256 227.072C58.4777 226.674 57.9746 226.117 57.6164 225.4C57.2582 224.684 57.0791 223.847 57.0791 222.889C57.0791 221.927 57.2582 221.086 57.6164 220.365C57.9746 219.645 58.4777 219.086 59.1256 218.687C59.7736 218.289 60.5322 218.089 61.4015 218.089C62.2709 218.089 63.0295 218.289 63.6775 218.687C64.3254 219.086 64.8285 219.645 65.1867 220.365C65.5449 221.086 65.724 221.927 65.724 222.889C65.724 223.847 65.5449 224.684 65.1867 225.4C64.8285 226.117 64.3254 226.674 63.6775 227.072C63.0295 227.471 62.2709 227.67 61.4015 227.67ZM61.4076 226.155C61.971 226.155 62.4379 226.006 62.8081 225.708C63.1784 225.41 63.4521 225.014 63.6292 224.519C63.8103 224.024 63.9008 223.478 63.9008 222.883C63.9008 222.291 63.8103 221.748 63.6292 221.253C63.4521 220.754 63.1784 220.353 62.8081 220.051C62.4379 219.75 61.971 219.599 61.4076 219.599C60.8401 219.599 60.3692 219.75 59.9949 220.051C59.6247 220.353 59.349 220.754 59.1679 221.253C58.9908 221.748 58.9023 222.291 58.9023 222.883C58.9023 223.478 58.9908 224.024 59.1679 224.519C59.349 225.014 59.6247 225.41 59.9949 225.708C60.3692 226.006 60.8401 226.155 61.4076 226.155ZM75.3559 218.21L71.9933 227.483H70.0615L66.6929 218.21H68.6308L70.9791 225.346H71.0757L73.4181 218.21H75.3559ZM80.7333 227.67C79.8197 227.67 79.0329 227.475 78.3729 227.084C77.7169 226.69 77.2098 226.137 76.8516 225.424C76.4974 224.708 76.3203 223.869 76.3203 222.907C76.3203 221.957 76.4974 221.12 76.8516 220.396C77.2098 219.671 77.7088 219.106 78.3487 218.699C78.9927 218.293 79.7453 218.089 80.6065 218.089C81.1297 218.089 81.6368 218.176 82.1278 218.349C82.6188 218.522 83.0595 218.794 83.4499 219.164C83.8403 219.534 84.1482 220.015 84.3736 220.607C84.599 221.194 84.7116 221.909 84.7116 222.75V223.39H77.3406V222.038H82.9428C82.9428 221.563 82.8462 221.142 82.6531 220.776C82.4599 220.406 82.1882 220.114 81.8381 219.901C81.492 219.687 81.0855 219.581 80.6186 219.581C80.1115 219.581 79.6688 219.705 79.2905 219.955C78.9162 220.2 78.6264 220.522 78.4212 220.921C78.2199 221.315 78.1193 221.744 78.1193 222.207V223.263C78.1193 223.883 78.228 224.41 78.4453 224.845C78.6667 225.279 78.9746 225.611 79.369 225.841C79.7634 226.066 80.2242 226.179 80.7514 226.179C81.0935 226.179 81.4054 226.131 81.6871 226.034C81.9689 225.933 82.2124 225.785 82.4176 225.587C82.6229 225.39 82.7798 225.147 82.8885 224.857L84.5969 225.165C84.4601 225.668 84.2146 226.109 83.8604 226.487C83.5103 226.861 83.0696 227.153 82.5384 227.362C82.0111 227.567 81.4094 227.67 80.7333 227.67ZM86.8593 227.483V215.119H91.2662C92.2241 215.119 93.019 215.284 93.6508 215.614C94.2867 215.944 94.7616 216.401 95.0756 216.985C95.3895 217.564 95.5464 218.234 95.5464 218.995C95.5464 219.752 95.3875 220.418 95.0695 220.993C94.7556 221.565 94.2807 222.009 93.6448 222.327C93.0129 222.645 92.2181 222.804 91.2602 222.804H87.9218V221.198H91.0912C91.6949 221.198 92.1859 221.112 92.5642 220.939C92.9465 220.766 93.2262 220.514 93.4033 220.184C93.5804 219.854 93.6689 219.458 93.6689 218.995C93.6689 218.528 93.5784 218.124 93.3973 217.782C93.2202 217.439 92.9405 217.178 92.5581 216.997C92.1798 216.812 91.6828 216.719 91.067 216.719H88.7247V227.483H86.8593ZM92.9626 221.905L96.0173 227.483H93.8923L90.898 221.905H92.9626ZM103.545 223.637V218.21H105.356V227.483H103.582V225.877H103.485C103.272 226.372 102.93 226.785 102.459 227.115C101.992 227.441 101.41 227.604 100.714 227.604C100.118 227.604 99.5912 227.473 99.1324 227.211C98.6776 226.946 98.3194 226.553 98.0578 226.034C97.8002 225.515 97.6714 224.873 97.6714 224.108V218.21H99.4765V223.891C99.4765 224.523 99.6515 225.026 100.002 225.4C100.352 225.774 100.807 225.962 101.366 225.962C101.704 225.962 102.04 225.877 102.374 225.708C102.712 225.539 102.992 225.283 103.213 224.941C103.439 224.599 103.549 224.165 103.545 223.637ZM114.73 220.474L113.094 220.764C113.026 220.555 112.917 220.355 112.768 220.166C112.623 219.977 112.426 219.822 112.177 219.701C111.927 219.581 111.615 219.52 111.241 219.52C110.73 219.52 110.303 219.635 109.961 219.864C109.619 220.09 109.448 220.381 109.448 220.74C109.448 221.05 109.563 221.299 109.792 221.488C110.021 221.677 110.392 221.832 110.903 221.953L112.376 222.291C113.229 222.488 113.865 222.792 114.284 223.203C114.702 223.613 114.911 224.146 114.911 224.803C114.911 225.358 114.75 225.853 114.428 226.288C114.11 226.718 113.666 227.056 113.094 227.302C112.527 227.547 111.869 227.67 111.12 227.67C110.082 227.67 109.235 227.449 108.579 227.006C107.923 226.559 107.52 225.925 107.371 225.104L109.116 224.839C109.225 225.294 109.448 225.638 109.786 225.871C110.124 226.1 110.565 226.215 111.108 226.215C111.7 226.215 112.173 226.092 112.527 225.847C112.881 225.597 113.058 225.294 113.058 224.935C113.058 224.646 112.949 224.402 112.732 224.205C112.519 224.008 112.191 223.859 111.748 223.758L110.178 223.414C109.313 223.217 108.673 222.903 108.259 222.472C107.848 222.042 107.643 221.496 107.643 220.836C107.643 220.289 107.796 219.81 108.102 219.399C108.408 218.989 108.83 218.669 109.369 218.44C109.909 218.206 110.527 218.089 111.223 218.089C112.225 218.089 113.014 218.307 113.589 218.741C114.165 219.172 114.545 219.75 114.73 220.474ZM123.845 220.474L122.209 220.764C122.14 220.555 122.031 220.355 121.883 220.166C121.738 219.977 121.54 219.822 121.291 219.701C121.041 219.581 120.729 219.52 120.355 219.52C119.844 219.52 119.417 219.635 119.075 219.864C118.733 220.09 118.562 220.381 118.562 220.74C118.562 221.05 118.677 221.299 118.906 221.488C119.136 221.677 119.506 221.832 120.017 221.953L121.49 222.291C122.343 222.488 122.979 222.792 123.398 223.203C123.816 223.613 124.026 224.146 124.026 224.803C124.026 225.358 123.865 225.853 123.543 226.288C123.225 226.718 122.78 227.056 122.209 227.302C121.641 227.547 120.983 227.67 120.234 227.67C119.196 227.67 118.349 227.449 117.693 227.006C117.037 226.559 116.634 225.925 116.486 225.104L118.23 224.839C118.339 225.294 118.562 225.638 118.9 225.871C119.238 226.1 119.679 226.215 120.222 226.215C120.814 226.215 121.287 226.092 121.641 225.847C121.995 225.597 122.172 225.294 122.172 224.935C122.172 224.646 122.064 224.402 121.846 224.205C121.633 224.008 121.305 223.859 120.862 223.758L119.293 223.414C118.427 223.217 117.787 222.903 117.373 222.472C116.962 222.042 116.757 221.496 116.757 220.836C116.757 220.289 116.91 219.81 117.216 219.399C117.522 218.989 117.944 218.669 118.484 218.44C119.023 218.206 119.641 218.089 120.337 218.089C121.339 218.089 122.128 218.307 122.704 218.741C123.279 219.172 123.659 219.75 123.845 220.474ZM126.01 227.483V218.21H127.815V227.483H126.01ZM126.922 216.779C126.608 216.779 126.338 216.675 126.113 216.466C125.892 216.252 125.781 215.999 125.781 215.705C125.781 215.407 125.892 215.153 126.113 214.944C126.338 214.731 126.608 214.624 126.922 214.624C127.236 214.624 127.503 214.731 127.725 214.944C127.95 215.153 128.063 215.407 128.063 215.705C128.063 215.999 127.95 216.252 127.725 216.466C127.503 216.675 127.236 216.779 126.922 216.779ZM132.942 227.688C132.355 227.688 131.823 227.58 131.348 227.362C130.874 227.141 130.497 226.821 130.22 226.402C129.946 225.984 129.809 225.471 129.809 224.863C129.809 224.34 129.91 223.909 130.111 223.571C130.312 223.233 130.584 222.965 130.926 222.768C131.268 222.571 131.65 222.422 132.073 222.321C132.495 222.221 132.926 222.144 133.365 222.092C133.92 222.028 134.371 221.975 134.717 221.935C135.063 221.891 135.315 221.82 135.472 221.724C135.629 221.627 135.707 221.47 135.707 221.253V221.211C135.707 220.683 135.558 220.275 135.26 219.985C134.967 219.695 134.528 219.55 133.944 219.55C133.337 219.55 132.858 219.685 132.508 219.955C132.161 220.22 131.922 220.516 131.789 220.842L130.093 220.456C130.294 219.892 130.588 219.438 130.974 219.092C131.365 218.741 131.813 218.488 132.32 218.331C132.828 218.17 133.361 218.089 133.92 218.089C134.29 218.089 134.683 218.134 135.097 218.222C135.516 218.307 135.906 218.464 136.269 218.693C136.635 218.923 136.935 219.251 137.168 219.677C137.401 220.1 137.518 220.649 137.518 221.325V227.483H135.755V226.215H135.683C135.566 226.449 135.391 226.678 135.158 226.903C134.924 227.129 134.624 227.316 134.258 227.465C133.892 227.614 133.453 227.688 132.942 227.688ZM133.335 226.239C133.834 226.239 134.26 226.141 134.614 225.943C134.973 225.746 135.244 225.489 135.429 225.171C135.619 224.849 135.713 224.505 135.713 224.138V222.943C135.649 223.008 135.524 223.068 135.339 223.124C135.158 223.177 134.95 223.223 134.717 223.263C134.484 223.299 134.256 223.334 134.035 223.366C133.814 223.394 133.628 223.418 133.479 223.438C133.129 223.482 132.809 223.557 132.52 223.662C132.234 223.766 132.004 223.917 131.831 224.114C131.662 224.307 131.578 224.565 131.578 224.887C131.578 225.334 131.743 225.672 132.073 225.901C132.403 226.127 132.823 226.239 133.335 226.239ZM141.727 221.977V227.483H139.922V218.21H141.655V219.719H141.77C141.983 219.228 142.317 218.834 142.772 218.536C143.231 218.238 143.808 218.089 144.504 218.089C145.136 218.089 145.69 218.222 146.165 218.488C146.64 218.749 147.008 219.14 147.269 219.659C147.531 220.178 147.662 220.82 147.662 221.585V227.483H145.857V221.802C145.857 221.13 145.682 220.605 145.331 220.227C144.981 219.844 144.5 219.653 143.889 219.653C143.47 219.653 143.098 219.744 142.772 219.925C142.45 220.106 142.194 220.371 142.005 220.722C141.82 221.068 141.727 221.486 141.727 221.977ZM157.526 230.845C156.278 230.845 155.172 230.674 154.206 230.332C153.244 229.994 152.433 229.495 151.773 228.835C151.113 228.179 150.612 227.374 150.27 226.42C149.928 225.467 149.757 224.378 149.757 223.154C149.757 221.963 149.93 220.893 150.276 219.943C150.622 218.993 151.125 218.184 151.785 217.516C152.449 216.844 153.256 216.331 154.206 215.977C155.156 215.622 156.234 215.445 157.442 215.445C158.597 215.445 159.615 215.626 160.496 215.989C161.378 216.351 162.118 216.848 162.718 217.48C163.322 218.112 163.776 218.836 164.082 219.653C164.388 220.47 164.541 221.333 164.541 222.243C164.541 222.879 164.501 223.501 164.42 224.108C164.34 224.712 164.191 225.259 163.974 225.75C163.76 226.237 163.45 226.628 163.044 226.921C162.641 227.211 162.118 227.362 161.474 227.374C161.132 227.386 160.8 227.346 160.478 227.254C160.156 227.161 159.883 227.012 159.657 226.807C159.432 226.597 159.295 226.332 159.247 226.01H159.174C159.078 226.247 158.917 226.469 158.691 226.674C158.466 226.875 158.178 227.036 157.828 227.157C157.482 227.274 157.079 227.322 156.621 227.302C156.113 227.282 155.657 227.167 155.25 226.958C154.844 226.748 154.496 226.459 154.206 226.088C153.92 225.718 153.701 225.279 153.548 224.772C153.395 224.265 153.318 223.702 153.318 223.082C153.318 222.486 153.405 221.953 153.578 221.482C153.751 221.007 153.986 220.599 154.284 220.257C154.586 219.911 154.932 219.637 155.323 219.436C155.713 219.234 156.126 219.108 156.56 219.055C156.983 219.007 157.371 219.019 157.725 219.092C158.079 219.164 158.373 219.275 158.607 219.424C158.844 219.573 158.993 219.736 159.053 219.913H159.132V219.236H160.617V224.839C160.617 225.157 160.7 225.426 160.865 225.648C161.034 225.869 161.273 225.98 161.583 225.98C161.949 225.98 162.235 225.845 162.44 225.575C162.649 225.306 162.796 224.891 162.881 224.332C162.969 223.772 163.014 223.056 163.014 222.182C163.014 221.571 162.931 220.995 162.766 220.456C162.605 219.913 162.366 219.422 162.048 218.983C161.734 218.54 161.347 218.16 160.889 217.842C160.43 217.524 159.907 217.278 159.319 217.105C158.736 216.932 158.09 216.846 157.381 216.846C156.419 216.846 155.564 216.995 154.816 217.293C154.067 217.586 153.435 218.011 152.92 218.566C152.409 219.122 152.02 219.788 151.755 220.565C151.493 221.337 151.362 222.205 151.362 223.167C151.362 224.169 151.497 225.058 151.767 225.835C152.037 226.608 152.435 227.26 152.962 227.791C153.489 228.322 154.141 228.725 154.918 228.998C155.695 229.276 156.59 229.415 157.605 229.415C158.055 229.415 158.498 229.374 158.933 229.294C159.367 229.218 159.754 229.129 160.092 229.028C160.434 228.932 160.689 228.853 160.858 228.793L161.281 230.115C161.032 230.232 160.7 230.346 160.285 230.459C159.874 230.572 159.428 230.664 158.945 230.737C158.466 230.809 157.993 230.845 157.526 230.845ZM156.971 225.823C157.494 225.823 157.914 225.718 158.232 225.509C158.554 225.3 158.786 224.988 158.927 224.573C159.072 224.155 159.144 223.631 159.144 223.004C159.14 222.392 159.061 221.905 158.909 221.543C158.76 221.176 158.526 220.915 158.208 220.758C157.894 220.597 157.49 220.516 156.995 220.516C156.54 220.516 156.152 220.627 155.83 220.848C155.512 221.07 155.268 221.37 155.099 221.748C154.934 222.126 154.85 222.547 154.846 223.01C154.85 223.497 154.918 223.955 155.051 224.386C155.188 224.813 155.409 225.159 155.715 225.424C156.025 225.69 156.443 225.823 156.971 225.823ZM170.531 227.67C169.618 227.67 168.831 227.475 168.171 227.084C167.515 226.69 167.008 226.137 166.649 225.424C166.295 224.708 166.118 223.869 166.118 222.907C166.118 221.957 166.295 221.12 166.649 220.396C167.008 219.671 167.507 219.106 168.147 218.699C168.791 218.293 169.543 218.089 170.404 218.089C170.928 218.089 171.435 218.176 171.926 218.349C172.417 218.522 172.857 218.794 173.248 219.164C173.638 219.534 173.946 220.015 174.171 220.607C174.397 221.194 174.51 221.909 174.51 222.75V223.39H167.138V222.038H172.741C172.741 221.563 172.644 221.142 172.451 220.776C172.258 220.406 171.986 220.114 171.636 219.901C171.29 219.687 170.883 219.581 170.416 219.581C169.909 219.581 169.467 219.705 169.088 219.955C168.714 220.2 168.424 220.522 168.219 220.921C168.018 221.315 167.917 221.744 167.917 222.207V223.263C167.917 223.883 168.026 224.41 168.243 224.845C168.465 225.279 168.772 225.611 169.167 225.841C169.561 226.066 170.022 226.179 170.549 226.179C170.891 226.179 171.203 226.131 171.485 226.034C171.767 225.933 172.01 225.785 172.215 225.587C172.421 225.39 172.578 225.147 172.686 224.857L174.395 225.165C174.258 225.668 174.012 226.109 173.658 226.487C173.308 226.861 172.867 227.153 172.336 227.362C171.809 227.567 171.207 227.67 170.531 227.67ZM177.721 218.21L179.768 221.82L181.832 218.21H183.806L180.915 222.847L183.831 227.483H181.856L179.768 224.018L177.685 227.483H175.705L178.59 222.847L175.741 218.21H177.721ZM188.342 227.688C187.754 227.688 187.223 227.58 186.748 227.362C186.273 227.141 185.897 226.821 185.619 226.402C185.345 225.984 185.208 225.471 185.208 224.863C185.208 224.34 185.309 223.909 185.51 223.571C185.712 223.233 185.983 222.965 186.325 222.768C186.667 222.571 187.05 222.422 187.472 222.321C187.895 222.221 188.326 222.144 188.764 222.092C189.32 222.028 189.77 221.975 190.116 221.935C190.463 221.891 190.714 221.82 190.871 221.724C191.028 221.627 191.107 221.47 191.107 221.253V221.211C191.107 220.683 190.958 220.275 190.66 219.985C190.366 219.695 189.927 219.55 189.344 219.55C188.736 219.55 188.257 219.685 187.907 219.955C187.561 220.22 187.321 220.516 187.189 220.842L185.492 220.456C185.693 219.892 185.987 219.438 186.374 219.092C186.764 218.741 187.213 218.488 187.72 218.331C188.227 218.17 188.76 218.089 189.32 218.089C189.69 218.089 190.082 218.134 190.497 218.222C190.915 218.307 191.306 218.464 191.668 218.693C192.034 218.923 192.334 219.251 192.567 219.677C192.801 220.1 192.918 220.649 192.918 221.325V227.483H191.155V226.215H191.082C190.966 226.449 190.791 226.678 190.557 226.903C190.324 227.129 190.024 227.316 189.658 227.465C189.291 227.614 188.853 227.688 188.342 227.688ZM188.734 226.239C189.233 226.239 189.66 226.141 190.014 225.943C190.372 225.746 190.644 225.489 190.829 225.171C191.018 224.849 191.113 224.505 191.113 224.138V222.943C191.048 223.008 190.923 223.068 190.738 223.124C190.557 223.177 190.35 223.223 190.116 223.263C189.883 223.299 189.656 223.334 189.434 223.366C189.213 223.394 189.028 223.418 188.879 223.438C188.529 223.482 188.209 223.557 187.919 223.662C187.633 223.766 187.404 223.917 187.231 224.114C187.062 224.307 186.977 224.565 186.977 224.887C186.977 225.334 187.142 225.672 187.472 225.901C187.802 226.127 188.223 226.239 188.734 226.239ZM195.322 227.483V218.21H197.054V219.719H197.169C197.362 219.208 197.678 218.81 198.117 218.524C198.556 218.234 199.081 218.089 199.693 218.089C200.312 218.089 200.832 218.234 201.25 218.524C201.673 218.814 201.985 219.212 202.186 219.719H202.282C202.504 219.224 202.856 218.83 203.339 218.536C203.822 218.238 204.397 218.089 205.065 218.089C205.907 218.089 206.593 218.353 207.124 218.88C207.659 219.408 207.927 220.202 207.927 221.265V227.483H206.122V221.434C206.122 220.806 205.951 220.351 205.609 220.07C205.267 219.788 204.858 219.647 204.383 219.647C203.796 219.647 203.339 219.828 203.013 220.19C202.687 220.548 202.524 221.009 202.524 221.573V227.483H200.725V221.319C200.725 220.816 200.568 220.412 200.254 220.106C199.94 219.8 199.532 219.647 199.028 219.647C198.686 219.647 198.37 219.738 198.081 219.919C197.795 220.096 197.564 220.343 197.386 220.661C197.213 220.979 197.127 221.347 197.127 221.766V227.483H195.322ZM210.346 230.96V218.21H212.109V219.713H212.26C212.365 219.52 212.516 219.297 212.713 219.043C212.91 218.79 213.184 218.568 213.534 218.379C213.884 218.186 214.347 218.089 214.922 218.089C215.671 218.089 216.339 218.279 216.926 218.657C217.514 219.035 217.975 219.581 218.309 220.293C218.647 221.005 218.816 221.863 218.816 222.865C218.816 223.867 218.649 224.726 218.315 225.442C217.981 226.155 217.522 226.704 216.939 227.091C216.355 227.473 215.689 227.664 214.94 227.664C214.377 227.664 213.916 227.569 213.558 227.38C213.204 227.191 212.926 226.97 212.725 226.716C212.524 226.463 212.369 226.237 212.26 226.04H212.151V230.96H210.346ZM212.115 222.847C212.115 223.499 212.21 224.07 212.399 224.561C212.588 225.052 212.862 225.436 213.22 225.714C213.578 225.988 214.017 226.125 214.536 226.125C215.075 226.125 215.526 225.982 215.888 225.696C216.25 225.406 216.524 225.014 216.709 224.519C216.898 224.024 216.993 223.466 216.993 222.847C216.993 222.235 216.9 221.685 216.715 221.198C216.534 220.711 216.26 220.327 215.894 220.045C215.532 219.764 215.079 219.623 214.536 219.623C214.013 219.623 213.57 219.758 213.208 220.027C212.85 220.297 212.578 220.673 212.393 221.156C212.208 221.639 212.115 222.203 212.115 222.847ZM222.643 215.119V227.483H220.838V215.119H222.643ZM229.068 227.67C228.155 227.67 227.368 227.475 226.708 227.084C226.052 226.69 225.545 226.137 225.187 225.424C224.832 224.708 224.655 223.869 224.655 222.907C224.655 221.957 224.832 221.12 225.187 220.396C225.545 219.671 226.044 219.106 226.684 218.699C227.328 218.293 228.08 218.089 228.941 218.089C229.465 218.089 229.972 218.176 230.463 218.349C230.954 218.522 231.395 218.794 231.785 219.164C232.175 219.534 232.483 220.015 232.709 220.607C232.934 221.194 233.047 221.909 233.047 222.75V223.39H225.676V222.038H231.278C231.278 221.563 231.181 221.142 230.988 220.776C230.795 220.406 230.523 220.114 230.173 219.901C229.827 219.687 229.42 219.581 228.954 219.581C228.446 219.581 228.004 219.705 227.625 219.955C227.251 220.2 226.961 220.522 226.756 220.921C226.555 221.315 226.454 221.744 226.454 222.207V223.263C226.454 223.883 226.563 224.41 226.78 224.845C227.002 225.279 227.31 225.611 227.704 225.841C228.098 226.066 228.559 226.179 229.086 226.179C229.428 226.179 229.74 226.131 230.022 226.034C230.304 225.933 230.547 225.785 230.753 225.587C230.958 225.39 231.115 225.147 231.223 224.857L232.932 225.165C232.795 225.668 232.55 226.109 232.195 226.487C231.845 226.861 231.405 227.153 230.873 227.362C230.346 227.567 229.744 227.67 229.068 227.67ZM236.239 227.598C235.909 227.598 235.625 227.481 235.387 227.247C235.15 227.01 235.031 226.724 235.031 226.39C235.031 226.06 235.15 225.778 235.387 225.545C235.625 225.308 235.909 225.189 236.239 225.189C236.569 225.189 236.852 225.308 237.09 225.545C237.327 225.778 237.446 226.06 237.446 226.39C237.446 226.612 237.39 226.815 237.277 227C237.168 227.181 237.023 227.326 236.842 227.435C236.661 227.543 236.46 227.598 236.239 227.598ZM243.77 227.67C242.872 227.67 242.099 227.467 241.452 227.06C240.808 226.65 240.313 226.084 239.966 225.364C239.62 224.644 239.447 223.818 239.447 222.889C239.447 221.947 239.624 221.116 239.979 220.396C240.333 219.671 240.832 219.106 241.476 218.699C242.12 218.293 242.878 218.089 243.752 218.089C244.456 218.089 245.084 218.22 245.635 218.482C246.186 218.739 246.631 219.102 246.969 219.568C247.311 220.035 247.515 220.581 247.579 221.205H245.822C245.726 220.77 245.504 220.396 245.158 220.082C244.816 219.768 244.357 219.611 243.782 219.611C243.279 219.611 242.838 219.744 242.46 220.009C242.085 220.271 241.794 220.645 241.584 221.132C241.375 221.615 241.27 222.187 241.27 222.847C241.27 223.523 241.373 224.106 241.578 224.597C241.784 225.088 242.073 225.469 242.448 225.738C242.826 226.008 243.271 226.143 243.782 226.143C244.124 226.143 244.434 226.08 244.711 225.956C244.993 225.827 245.229 225.644 245.418 225.406C245.611 225.169 245.746 224.883 245.822 224.549H247.579C247.515 225.149 247.319 225.684 246.993 226.155C246.667 226.626 246.231 226.996 245.683 227.266C245.14 227.535 244.502 227.67 243.77 227.67ZM253.415 227.67C252.546 227.67 251.787 227.471 251.139 227.072C250.491 226.674 249.988 226.117 249.63 225.4C249.272 224.684 249.093 223.847 249.093 222.889C249.093 221.927 249.272 221.086 249.63 220.365C249.988 219.645 250.491 219.086 251.139 218.687C251.787 218.289 252.546 218.089 253.415 218.089C254.285 218.089 255.043 218.289 255.691 218.687C256.339 219.086 256.842 219.645 257.2 220.365C257.559 221.086 257.738 221.927 257.738 222.889C257.738 223.847 257.559 224.684 257.2 225.4C256.842 226.117 256.339 226.674 255.691 227.072C255.043 227.471 254.285 227.67 253.415 227.67ZM253.421 226.155C253.985 226.155 254.452 226.006 254.822 225.708C255.192 225.41 255.466 225.014 255.643 224.519C255.824 224.024 255.915 223.478 255.915 222.883C255.915 222.291 255.824 221.748 255.643 221.253C255.466 220.754 255.192 220.353 254.822 220.051C254.452 219.75 253.985 219.599 253.421 219.599C252.854 219.599 252.383 219.75 252.009 220.051C251.638 220.353 251.363 220.754 251.182 221.253C251.004 221.748 250.916 222.291 250.916 222.883C250.916 223.478 251.004 224.024 251.182 224.519C251.363 225.014 251.638 225.41 252.009 225.708C252.383 226.006 252.854 226.155 253.421 226.155ZM259.752 227.483V218.21H261.485V219.719H261.6C261.793 219.208 262.109 218.81 262.548 218.524C262.986 218.234 263.511 218.089 264.123 218.089C264.743 218.089 265.262 218.234 265.681 218.524C266.103 218.814 266.415 219.212 266.616 219.719H266.713C266.934 219.224 267.287 218.83 267.77 218.536C268.252 218.238 268.828 218.089 269.496 218.089C270.337 218.089 271.023 218.353 271.555 218.88C272.09 219.408 272.358 220.202 272.358 221.265V227.483H270.553V221.434C270.553 220.806 270.382 220.351 270.039 220.07C269.697 219.788 269.289 219.647 268.814 219.647C268.226 219.647 267.77 219.828 267.444 220.19C267.118 220.548 266.955 221.009 266.955 221.573V227.483H265.156V221.319C265.156 220.816 264.999 220.412 264.685 220.106C264.371 219.8 263.962 219.647 263.459 219.647C263.117 219.647 262.801 219.738 262.511 219.919C262.226 220.096 261.994 220.343 261.817 220.661C261.644 220.979 261.558 221.347 261.558 221.766V227.483H259.752Z" fill="#C2C2C2"/>
<path d="M330.592 214.848L336.727 220.983M342.862 227.118L336.727 220.983M336.727 220.983L342.862 214.848M336.727 220.983L330.592 227.118" stroke="#9C9C9C" stroke-width="2.27874" stroke-linecap="round"/>
<path d="M75.064 177.76C75.816 177.952 77.112 178.528 77.336 178.656C77.544 178.768 77.64 178.992 77.64 179.2C77.64 179.552 77.352 179.84 77 179.84C76.888 179.84 76.792 179.824 76.696 179.76C76.472 179.632 75.336 178.8 74.792 178.24C75.016 178.992 75.16 180.384 75.16 180.64C75.16 180.992 74.872 181.28 74.52 181.28C74.168 181.28 73.88 180.992 73.88 180.64C73.88 180.384 74.024 178.992 74.248 178.24C73.704 178.8 72.568 179.632 72.344 179.76C72.248 179.824 72.152 179.84 72.04 179.84C71.688 179.84 71.4 179.552 71.4 179.2C71.4 178.976 71.496 178.752 71.704 178.64C71.928 178.512 73.224 177.952 73.976 177.76C73.224 177.568 71.928 176.992 71.704 176.864C71.496 176.752 71.4 176.528 71.4 176.32C71.4 175.968 71.688 175.68 72.04 175.68C72.152 175.68 72.248 175.696 72.344 175.76C72.568 175.888 73.704 176.72 74.248 177.28C74.024 176.528 73.88 175.136 73.88 174.88C73.88 174.528 74.168 174.24 74.52 174.24C74.872 174.24 75.16 174.528 75.16 174.88C75.16 175.136 75.016 176.528 74.792 177.28C75.336 176.72 76.472 175.888 76.696 175.76C76.792 175.696 76.888 175.68 77 175.68C77.352 175.68 77.64 175.968 77.64 176.32C77.64 176.544 77.544 176.768 77.336 176.88C77.112 177.008 75.816 177.568 75.064 177.76Z" fill="#DB0000"/>
<path d="M28.2784 186V174.364H35.5739V175.875H30.0341V179.42H35.1932V180.926H30.0341V184.489H35.642V186H28.2784ZM37.7827 186V177.273H39.4134V178.693H39.5213C39.7031 178.212 40.0005 177.837 40.4134 177.568C40.8262 177.295 41.3205 177.159 41.8963 177.159C42.4796 177.159 42.9683 177.295 43.3622 177.568C43.7599 177.841 44.0535 178.216 44.2429 178.693H44.3338C44.5421 178.227 44.8736 177.856 45.3281 177.58C45.7827 177.299 46.3243 177.159 46.9531 177.159C47.7448 177.159 48.3906 177.407 48.8906 177.903C49.3944 178.4 49.6463 179.148 49.6463 180.148V186H47.9474V180.307C47.9474 179.716 47.7865 179.288 47.4645 179.023C47.1425 178.758 46.758 178.625 46.3111 178.625C45.758 178.625 45.3281 178.795 45.0213 179.136C44.7145 179.473 44.5611 179.907 44.5611 180.438V186H42.8679V180.199C42.8679 179.725 42.7202 179.345 42.4247 179.057C42.1293 178.769 41.7448 178.625 41.2713 178.625C40.9493 178.625 40.652 178.71 40.3793 178.881C40.1103 179.047 39.8925 179.28 39.7259 179.58C39.563 179.879 39.4815 180.225 39.4815 180.619V186H37.7827ZM54.4631 186.193C53.91 186.193 53.41 186.091 52.9631 185.886C52.5161 185.678 52.1619 185.377 51.9006 184.983C51.643 184.589 51.5142 184.106 51.5142 183.534C51.5142 183.042 51.6089 182.636 51.7983 182.318C51.9877 182 52.2434 181.748 52.5653 181.562C52.8873 181.377 53.2472 181.237 53.6449 181.142C54.0426 181.047 54.4479 180.975 54.8608 180.926C55.3835 180.866 55.8078 180.816 56.1335 180.778C56.4593 180.737 56.696 180.67 56.8438 180.58C56.9915 180.489 57.0653 180.341 57.0653 180.136V180.097C57.0653 179.6 56.9252 179.216 56.6449 178.943C56.3684 178.67 55.9555 178.534 55.4062 178.534C54.8343 178.534 54.3835 178.661 54.054 178.915C53.7282 179.165 53.5028 179.443 53.3778 179.75L51.7812 179.386C51.9706 178.856 52.2472 178.428 52.6108 178.102C52.9782 177.773 53.4006 177.534 53.8778 177.386C54.3551 177.235 54.857 177.159 55.3835 177.159C55.732 177.159 56.1013 177.201 56.4915 177.284C56.8854 177.364 57.2528 177.511 57.5938 177.727C57.9384 177.943 58.2206 178.252 58.4403 178.653C58.66 179.051 58.7699 179.568 58.7699 180.205V186H57.1108V184.807H57.0426C56.9328 185.027 56.768 185.242 56.5483 185.455C56.3286 185.667 56.0464 185.843 55.7017 185.983C55.357 186.123 54.9441 186.193 54.4631 186.193ZM54.8324 184.83C55.3021 184.83 55.7036 184.737 56.0369 184.551C56.3741 184.366 56.6297 184.123 56.804 183.824C56.982 183.521 57.071 183.197 57.071 182.852V181.727C57.0104 181.788 56.893 181.845 56.7188 181.898C56.5483 181.947 56.3532 181.991 56.1335 182.028C55.9138 182.062 55.6998 182.095 55.4915 182.125C55.2831 182.152 55.1089 182.174 54.9688 182.193C54.6392 182.235 54.3381 182.305 54.0653 182.403C53.7964 182.502 53.5805 182.644 53.4176 182.83C53.2585 183.011 53.179 183.254 53.179 183.557C53.179 183.977 53.3343 184.295 53.6449 184.511C53.9555 184.723 54.3513 184.83 54.8324 184.83ZM61.0327 186V177.273H62.7315V186H61.0327ZM61.8906 175.926C61.5952 175.926 61.3414 175.828 61.1293 175.631C60.9209 175.43 60.8168 175.191 60.8168 174.915C60.8168 174.634 60.9209 174.396 61.1293 174.199C61.3414 173.998 61.5952 173.898 61.8906 173.898C62.1861 173.898 62.438 173.998 62.6463 174.199C62.8584 174.396 62.9645 174.634 62.9645 174.915C62.9645 175.191 62.8584 175.43 62.6463 175.631C62.438 175.828 62.1861 175.926 61.8906 175.926ZM66.7159 174.364V186H65.017V174.364H66.7159Z" fill="black"/>
</svg>
