<svg width="122" height="40" viewBox="0 0 122 40" fill="none" xmlns="http://www.w3.org/2000/svg">
<rect x="1.28954" y="0.695788" width="119.907" height="37.874" rx="18.937" fill="white"/>
<rect x="1.28954" y="0.695788" width="119.907" height="37.874" rx="18.937" stroke="#DB0000" stroke-width="1.12595"/>
<path d="M30.5753 14.3196C31.0116 13.883 31.7183 13.883 32.1546 14.3196C32.5909 14.7554 32.5909 15.4639 32.1546 15.8997L29.5403 18.5155H38.6427C39.2592 18.5155 39.7598 19.0156 39.7598 19.6331C39.7598 20.2506 39.2592 20.7506 38.6427 20.7506H29.5403L32.1546 23.3664C32.5909 23.803 32.5909 24.5107 32.1546 24.9465C31.9364 25.1647 31.6504 25.2735 31.3645 25.2735C31.0785 25.2735 30.7927 25.1647 30.5745 24.9465L26.054 20.4229C25.6177 19.9863 25.6177 19.2786 26.054 18.8425L30.5753 14.3196Z" fill="#DB0000"/>
<path d="M57.2265 17.7713H55.5646C55.5007 17.4162 55.3817 17.1037 55.2077 16.8338C55.0337 16.5639 54.8206 16.3349 54.5685 16.1467C54.3164 15.9585 54.034 15.8164 53.7215 15.7205C53.4126 15.6246 53.0841 15.5767 52.7361 15.5767C52.1076 15.5767 51.5447 15.7347 51.0475 16.0508C50.5539 16.3668 50.1633 16.8303 49.8757 17.4411C49.5916 18.0518 49.4495 18.7976 49.4495 19.6783C49.4495 20.5661 49.5916 21.3153 49.8757 21.9261C50.1633 22.5369 50.5557 22.9986 51.0529 23.3111C51.55 23.6236 52.1093 23.7798 52.7308 23.7798C53.0752 23.7798 53.4019 23.7337 53.7109 23.6413C54.0234 23.5455 54.3057 23.4052 54.5578 23.2205C54.81 23.0359 55.023 22.8104 55.197 22.544C55.3746 22.2741 55.4971 21.9652 55.5646 21.6172L57.2265 21.6225C57.1377 22.1587 56.9655 22.6523 56.7098 23.1033C56.4577 23.5508 56.1328 23.9379 55.735 24.2646C55.3409 24.5877 54.8899 24.8381 54.3821 25.0156C53.8742 25.1932 53.3203 25.282 52.7201 25.282C51.7755 25.282 50.9339 25.0582 50.1953 24.6108C49.4566 24.1598 48.8742 23.5153 48.4481 22.6772C48.0255 21.8391 47.8142 20.8395 47.8142 19.6783C47.8142 18.5135 48.0273 17.5138 48.4534 16.6793C48.8796 15.8413 49.462 15.1985 50.2006 14.7511C50.9392 14.3001 51.7791 14.0746 52.7201 14.0746C53.299 14.0746 53.8387 14.158 54.3394 14.3249C54.8437 14.4883 55.2965 14.7298 55.6978 15.0494C56.099 15.3654 56.4311 15.7525 56.6938 16.2106C56.9566 16.6651 57.1342 17.1854 57.2265 17.7713ZM61.4493 25.3139C60.9308 25.3139 60.462 25.218 60.043 25.0263C59.624 24.831 59.2919 24.5487 59.0469 24.1793C58.8054 23.81 58.6847 23.3572 58.6847 22.821C58.6847 22.3594 58.7735 21.9794 58.951 21.6811C59.1286 21.3828 59.3683 21.1467 59.6701 20.9727C59.972 20.7987 60.3093 20.6673 60.6822 20.5785C61.0551 20.4897 61.4351 20.4222 61.8221 20.3761C62.3122 20.3192 62.7099 20.2731 63.0153 20.2376C63.3207 20.1985 63.5427 20.1364 63.6812 20.0511C63.8196 19.9659 63.8889 19.8274 63.8889 19.6357V19.5984C63.8889 19.1332 63.7575 18.7727 63.4947 18.517C63.2355 18.2614 62.8484 18.1335 62.3335 18.1335C61.7973 18.1335 61.3747 18.2525 61.0657 18.4904C60.7603 18.7248 60.5491 18.9858 60.4319 19.2734L58.9351 18.9325C59.1126 18.4354 59.3718 18.0341 59.7128 17.7287C60.0572 17.4197 60.4532 17.196 60.9006 17.0575C61.3481 16.9155 61.8186 16.8445 62.3122 16.8445C62.6389 16.8445 62.9851 16.8835 63.3509 16.9616C63.7202 17.0362 64.0647 17.1747 64.3843 17.3771C64.7074 17.5795 64.972 17.869 65.178 18.2454C65.3839 18.6183 65.4869 19.103 65.4869 19.6996V25.1328H63.9315V24.0142H63.8676C63.7646 24.2202 63.6101 24.4226 63.4042 24.6214C63.1982 24.8203 62.9336 24.9854 62.6105 25.1168C62.2873 25.2482 61.9003 25.3139 61.4493 25.3139ZM61.7955 24.0355C62.2358 24.0355 62.6123 23.9485 62.9248 23.7745C63.2408 23.6005 63.4805 23.3732 63.6439 23.0927C63.8108 22.8086 63.8942 22.505 63.8942 22.1818V21.1271C63.8374 21.1839 63.7273 21.2372 63.564 21.2869C63.4042 21.3331 63.2213 21.3739 63.0153 21.4094C62.8093 21.4414 62.6087 21.4716 62.4134 21.5C62.2181 21.5249 62.0547 21.5462 61.9233 21.5639C61.6144 21.603 61.3321 21.6687 61.0764 21.761C60.8243 21.8533 60.6218 21.9865 60.4691 22.1605C60.32 22.331 60.2454 22.5582 60.2454 22.8423C60.2454 23.2365 60.391 23.5348 60.6822 23.7372C60.9734 23.9361 61.3445 24.0355 61.7955 24.0355ZM69.201 20.2749V25.1328H67.6083V16.951H69.137V18.2827H69.2382C69.4264 17.8494 69.7212 17.5014 70.1225 17.2386C70.5273 16.9759 71.0369 16.8445 71.6512 16.8445C72.2088 16.8445 72.697 16.9616 73.1161 17.196C73.5351 17.4268 73.86 17.7713 74.0909 18.2294C74.3217 18.6875 74.4371 19.2539 74.4371 19.9286V25.1328H72.8444V20.1204C72.8444 19.5273 72.6899 19.0639 72.381 18.7301C72.072 18.3928 71.6477 18.2241 71.1079 18.2241C70.7386 18.2241 70.4101 18.304 70.1225 18.4638C69.8384 18.6236 69.6129 18.858 69.446 19.1669C69.2826 19.4723 69.201 19.8416 69.201 20.2749ZM80.0195 25.2979C79.2276 25.2979 78.5458 25.1186 77.974 24.7599C77.4059 24.3977 76.9691 23.8988 76.6637 23.2631C76.3583 22.6275 76.2056 21.8995 76.2056 21.0792C76.2056 20.2482 76.3618 19.5149 76.6743 18.8793C76.9868 18.2401 77.4272 17.7411 77.9953 17.3825C78.5635 17.0238 79.2329 16.8445 80.0035 16.8445C80.625 16.8445 81.1789 16.9599 81.6654 17.1907C82.1519 17.418 82.5443 17.7376 82.8426 18.1495C83.1445 18.5614 83.3238 19.0426 83.3806 19.593H81.8306C81.7453 19.2095 81.55 18.8793 81.2446 18.6023C80.9428 18.3253 80.538 18.1868 80.0301 18.1868C79.5862 18.1868 79.1974 18.304 78.8636 18.5384C78.5333 18.7692 78.2759 19.0994 78.0912 19.5291C77.9066 19.9553 77.8142 20.4595 77.8142 21.0419C77.8142 21.6385 77.9048 22.1534 78.0859 22.5866C78.267 23.0199 78.5227 23.3555 78.8529 23.5934C79.1867 23.8313 79.5791 23.9503 80.0301 23.9503C80.332 23.9503 80.6054 23.8952 80.8505 23.7852C81.099 23.6715 81.3068 23.5099 81.4737 23.3004C81.6441 23.0909 81.7631 22.8388 81.8306 22.544H83.3806C83.3238 23.0732 83.1516 23.5455 82.8639 23.9609C82.5763 24.3764 82.191 24.7031 81.7081 24.9411C81.2286 25.179 80.6658 25.2979 80.0195 25.2979ZM88.6101 25.2979C87.804 25.2979 87.1098 25.1257 86.5274 24.7812C85.9486 24.4332 85.5011 23.945 85.1851 23.3164C84.8726 22.6843 84.7163 21.9439 84.7163 21.0952C84.7163 20.2571 84.8726 19.5185 85.1851 18.8793C85.5011 18.2401 85.9415 17.7411 86.5061 17.3825C87.0743 17.0238 87.7383 16.8445 88.4983 16.8445C88.9599 16.8445 89.4074 16.9208 89.8406 17.0735C90.2738 17.2262 90.6627 17.4659 91.0071 17.7926C91.3516 18.1193 91.6233 18.5437 91.8221 19.0657C92.021 19.5842 92.1204 20.2145 92.1204 20.9567V21.5213H85.6165V20.3281H90.5597C90.5597 19.9091 90.4745 19.538 90.304 19.2148C90.1336 18.8881 89.8939 18.6307 89.5849 18.4425C89.2795 18.2543 88.9209 18.1602 88.5089 18.1602C88.0615 18.1602 87.6709 18.2702 87.337 18.4904C87.0068 18.707 86.7511 18.9911 86.57 19.3427C86.3924 19.6907 86.3037 20.0689 86.3037 20.4773V21.4094C86.3037 21.9563 86.3995 22.4215 86.5913 22.805C86.7866 23.1886 87.0583 23.4815 87.4063 23.6839C87.7543 23.8828 88.1609 23.9822 88.6261 23.9822C88.928 23.9822 89.2032 23.9396 89.4517 23.8544C89.7003 23.7656 89.9152 23.6342 90.0963 23.4602C90.2774 23.2862 90.4159 23.0714 90.5118 22.8157L92.0192 23.0874C91.8985 23.5312 91.6819 23.9201 91.3694 24.2539C91.0604 24.5842 90.6716 24.8416 90.2028 25.0263C89.7376 25.2074 89.2067 25.2979 88.6101 25.2979ZM95.4802 14.2237V25.1328H93.8876V14.2237H95.4802Z" fill="#DB0000"/>
</svg>
