<svg width="21" height="18" viewBox="0 0 21 18" fill="none" xmlns="http://www.w3.org/2000/svg">
<mask id="mask0_1010_18926" style="mask-type:luminance" maskUnits="userSpaceOnUse" x="0" y="0" width="21" height="18">
<path d="M0.798828 0.549316H20.3104V17.416H0.798828V0.549316Z" fill="white"/>
</mask>
<g mask="url(#mask0_1010_18926)">
<path d="M10.5544 4.10025C13.0022 4.10025 14.9888 6.08867 14.9888 8.53891C14.9888 9.11138 14.8734 9.65744 14.674 10.159L17.2681 12.7556C18.6072 11.6371 19.6625 10.1899 20.3143 8.53891C18.7757 4.64178 14.9931 1.8808 10.5544 1.8808C9.31279 1.8808 8.12448 2.10279 7.02018 2.50228L8.93589 4.41528C9.437 4.21994 9.98238 4.10025 10.5544 4.10025ZM1.68566 1.68117L3.70773 3.70527L4.11128 4.10905C2.64791 5.25423 1.49054 6.77677 0.798828 8.53891C2.33311 12.4358 6.12003 15.1968 10.5544 15.1968C11.929 15.1968 13.2415 14.9303 14.4434 14.4466L14.8203 14.8239L17.4054 17.416L18.5361 16.2887L2.81661 0.549316L1.68566 1.68117ZM6.5902 6.58572L7.96031 7.9574C7.92034 8.14822 7.89391 8.33905 7.89391 8.53891C7.89391 10.0079 9.08674 11.2019 10.5544 11.2019C10.754 11.2019 10.9446 11.1752 11.1309 11.1355L12.501 12.5069C11.9114 12.7998 11.2549 12.9773 10.5544 12.9773C8.10664 12.9773 6.12003 10.9889 6.12003 8.53891C6.12003 7.83748 6.29753 7.18055 6.5902 6.58572ZM10.4081 5.88903L13.2018 8.68524L13.2149 8.53891C13.2149 7.06967 12.0221 5.87571 10.5544 5.87571L10.4081 5.88903Z" fill="#9C9C9C"/>
</g>
</svg>
