<svg width="100" height="39" viewBox="0 0 100 39" fill="none" xmlns="http://www.w3.org/2000/svg">
<rect x="0.47168" width="99.033" height="39" rx="19.5" fill="#DB0000"/>
<path d="M32.5277 14.0909V25H30.7698L25.6296 17.5692H25.539V25H23.5628V14.0909H25.3313L30.4662 21.527H30.5621V14.0909H32.5277ZM38.2179 25.1598C37.3976 25.1598 36.6891 24.9893 36.0926 24.6484C35.4995 24.304 35.0432 23.8175 34.7236 23.1889C34.404 22.5568 34.2442 21.8129 34.2442 20.957C34.2442 20.1154 34.404 19.3768 34.7236 18.7411C35.0467 18.1019 35.4977 17.6048 36.0766 17.2496C36.6554 16.891 37.3354 16.7116 38.1167 16.7116C38.621 16.7116 39.0968 16.7933 39.5443 16.9567C39.9953 17.1165 40.393 17.3651 40.7374 17.7024C41.0854 18.0398 41.3589 18.4695 41.5578 18.9915C41.7566 19.5099 41.856 20.1278 41.856 20.8452V21.4364H35.1497V20.1367H40.0077C40.0041 19.7674 39.9242 19.4389 39.768 19.1513C39.6117 18.8601 39.3933 18.631 39.1128 18.4641C38.8358 18.2972 38.5127 18.2138 38.1433 18.2138C37.7492 18.2138 37.4029 18.3097 37.1046 18.5014C36.8063 18.6896 36.5737 18.9382 36.4068 19.2472C36.2435 19.5526 36.16 19.8881 36.1565 20.2539V21.3885C36.1565 21.8643 36.2435 22.2727 36.4175 22.6136C36.5915 22.951 36.8347 23.2102 37.1472 23.3913C37.4597 23.5689 37.8255 23.6577 38.2445 23.6577C38.5251 23.6577 38.779 23.6186 39.0063 23.5405C39.2335 23.4588 39.4306 23.3398 39.5975 23.1836C39.7644 23.0273 39.8905 22.8338 39.9757 22.603L41.7761 22.8054C41.6625 23.2812 41.4459 23.6967 41.1263 24.0518C40.8102 24.4034 40.4054 24.6768 39.9118 24.8722C39.4182 25.0639 38.8536 25.1598 38.2179 25.1598ZM44.8883 16.8182L46.5396 19.8384L48.2175 16.8182H50.2576L47.7913 20.9091L50.3002 25H48.2707L46.5396 22.0543L44.8244 25H42.7789L45.2718 20.9091L42.8428 16.8182H44.8883ZM55.8347 16.8182V18.3097H51.1312V16.8182H55.8347ZM52.2924 14.858H54.2207V22.5391C54.2207 22.7983 54.2597 22.9972 54.3378 23.1357C54.4195 23.2706 54.5261 23.3629 54.6574 23.4126C54.7888 23.4624 54.9344 23.4872 55.0942 23.4872C55.215 23.4872 55.3251 23.4783 55.4245 23.4606C55.5275 23.4428 55.6056 23.4268 55.6589 23.4126L55.9838 24.9201C55.8808 24.9556 55.7334 24.9947 55.5417 25.0373C55.3535 25.0799 55.1226 25.1048 54.8492 25.1119C54.3663 25.1261 53.9312 25.0533 53.5442 24.8935C53.1571 24.7301 52.8499 24.478 52.6226 24.1371C52.3989 23.7962 52.2888 23.37 52.2924 22.8587V14.858Z" fill="white"/>
<path d="M72.6562 14.1868C72.2198 13.7502 71.5132 13.7502 71.0769 14.1868C70.6405 14.6226 70.6405 15.3311 71.0769 15.7669L73.6911 18.3827H64.5887C63.9722 18.3827 63.4717 18.8828 63.4717 19.5003C63.4717 20.1178 63.9722 20.6178 64.5887 20.6178H73.6911L71.0769 23.2336C70.6405 23.6702 70.6405 24.3779 71.0769 24.8137C71.295 25.0319 71.5811 25.1407 71.8669 25.1407C72.153 25.1407 72.4388 25.0319 72.6569 24.8137L77.1775 20.29C77.6138 19.8535 77.6138 19.1458 77.1775 18.7097L72.6562 14.1868Z" fill="white"/>
</svg>
