<svg width="17" height="18" viewBox="0 0 17 18" fill="none" xmlns="http://www.w3.org/2000/svg">
<path d="M0.358343 13.786L9.94359 4.2008C10.126 4.01844 10.4216 4.01844 10.604 4.2008L13.4498 7.04661C13.6307 7.22749 13.6324 7.52023 13.4536 7.70318L3.87331 17.5062C3.78545 17.5961 3.66506 17.6468 3.53935 17.6468H0.497061C0.227706 17.6468 0.0142039 17.4196 0.0310059 17.1507L0.222482 14.0871C0.229579 13.9736 0.27789 13.8665 0.358343 13.786Z" fill="#DB0000"/>
<path d="M14.5927 5.85565L11.8093 3.07232C11.6125 2.87552 11.6305 2.55135 11.8478 2.37749L13.4367 1.10643C13.6276 0.953652 13.9041 0.974105 14.0705 1.15332L16.5221 3.79349C16.6858 3.9698 16.6888 4.24164 16.529 4.42147L15.2719 5.83569C15.0934 6.0365 14.7827 6.04563 14.5927 5.85565Z" fill="#DB0000"/>
</svg>
