<svg width="109" height="38" viewBox="0 0 109 38" fill="none" xmlns="http://www.w3.org/2000/svg">
<rect x="0.596828" y="0.596828" width="106.863" height="36.1634" rx="18.0817" fill="white"/>
<rect x="0.596828" y="0.596828" width="106.863" height="36.1634" rx="18.0817" stroke="#DB0000" stroke-width="1.19366"/>
<path d="M21.7144 22.7487C22.0486 23.0831 22.5899 23.0831 22.9242 22.7487C23.2584 22.4148 23.2584 21.8721 22.9242 21.5383L20.9216 19.5345H27.8943C28.3666 19.5345 28.75 19.1514 28.75 18.6784C28.75 18.2054 28.3666 17.8223 27.8943 17.8223H20.9216L22.9242 15.8185C23.2584 15.4841 23.2584 14.9419 22.9242 14.6081C22.757 14.441 22.5379 14.3576 22.319 14.3576C22.0998 14.3576 21.8809 14.441 21.7138 14.6081L18.2509 18.0734C17.9166 18.4078 17.9166 18.95 18.2509 19.284L21.7144 22.7487Z" fill="#DB0000"/>
<path d="M37.2892 23.1787V13.7242H40.6592C41.3948 13.7242 42.0042 13.858 42.4873 14.1258C42.9705 14.3936 43.3322 14.7598 43.5722 15.2245C43.8123 15.6862 43.9323 16.2063 43.9323 16.7849C43.9323 17.3666 43.8107 17.8898 43.5676 18.3545C43.3275 18.8161 42.9644 19.1824 42.4781 19.4532C41.9949 19.721 41.3871 19.8548 40.6546 19.8548H38.3371V18.6453H40.5253C40.9901 18.6453 41.3671 18.5653 41.6564 18.4053C41.9457 18.2422 42.158 18.0206 42.2935 17.7405C42.4289 17.4604 42.4966 17.1419 42.4966 16.7849C42.4966 16.4279 42.4289 16.1109 42.2935 15.8339C42.158 15.5569 41.9441 15.3399 41.6518 15.183C41.3625 15.026 40.9808 14.9475 40.5069 14.9475H38.7157V23.1787H37.2892ZM45.4938 23.1787V16.0878H46.828V17.2142H46.9019C47.0311 16.8326 47.2589 16.5325 47.5851 16.314C47.9144 16.0924 48.2868 15.9816 48.7023 15.9816C48.7885 15.9816 48.89 15.9847 49.007 15.9909C49.127 15.997 49.2209 16.0047 49.2886 16.0139V17.3343C49.2332 17.3189 49.1347 17.3019 48.9931 17.2835C48.8515 17.2619 48.71 17.2512 48.5684 17.2512C48.2422 17.2512 47.9513 17.3204 47.6959 17.4589C47.4435 17.5943 47.2435 17.7836 47.0957 18.0267C46.948 18.2668 46.8742 18.5407 46.8742 18.8485V23.1787H45.4938ZM53.2853 23.3218C52.5867 23.3218 51.985 23.1726 51.4802 22.874C50.9786 22.5724 50.5908 22.1492 50.3169 21.6045C50.0461 21.0567 49.9106 20.415 49.9106 19.6794C49.9106 18.9531 50.0461 18.3129 50.3169 17.759C50.5908 17.205 50.9724 16.7726 51.4618 16.4617C51.9542 16.1509 52.5297 15.9955 53.1883 15.9955C53.5884 15.9955 53.9762 16.0616 54.3517 16.194C54.7272 16.3263 55.0642 16.5341 55.3627 16.8172C55.6612 17.1003 55.8967 17.4681 56.069 17.9205C56.2414 18.3699 56.3275 18.9162 56.3275 19.5594V20.0487H50.6908V19.0146H54.9749C54.9749 18.6515 54.9011 18.3299 54.7533 18.0498C54.6056 17.7667 54.3979 17.5435 54.1301 17.3804C53.8654 17.2173 53.5546 17.1357 53.1976 17.1357C52.8098 17.1357 52.4713 17.2311 52.182 17.422C51.8957 17.6097 51.6741 17.8559 51.5172 18.1606C51.3633 18.4622 51.2864 18.79 51.2864 19.1439V19.9518C51.2864 20.4258 51.3695 20.8289 51.5356 21.1613C51.7049 21.4937 51.9404 21.7476 52.242 21.923C52.5436 22.0954 52.896 22.1816 53.2991 22.1816C53.5607 22.1816 53.7993 22.1446 54.0147 22.0708C54.2301 21.9938 54.4163 21.8799 54.5733 21.7291C54.7302 21.5783 54.8503 21.3921 54.9334 21.1705L56.2398 21.406C56.1352 21.7907 55.9475 22.1277 55.6766 22.417C55.4089 22.7032 55.0719 22.9263 54.6656 23.0864C54.2624 23.2433 53.8023 23.3218 53.2853 23.3218ZM63.722 16.0878L61.1506 23.1787H59.6733L57.0973 16.0878H58.5792L60.375 21.5445H60.4489L62.2401 16.0878H63.722ZM65.0192 23.1787V16.0878H66.3995V23.1787H65.0192ZM65.7163 14.9937C65.4763 14.9937 65.27 14.9137 65.0977 14.7536C64.9284 14.5905 64.8438 14.3966 64.8438 14.172C64.8438 13.9442 64.9284 13.7503 65.0977 13.5903C65.27 13.4272 65.4763 13.3456 65.7163 13.3456C65.9564 13.3456 66.161 13.4272 66.3303 13.5903C66.5026 13.7503 66.5888 13.9442 66.5888 14.172C66.5888 14.3966 66.5026 14.5905 66.3303 14.7536C66.161 14.9137 65.9564 14.9937 65.7163 14.9937ZM71.2434 23.3218C70.5786 23.3218 69.9985 23.1695 69.503 22.8648C69.0075 22.5601 68.6228 22.1338 68.3489 21.586C68.0749 21.0382 67.938 20.3981 67.938 19.6656C67.938 18.93 68.0749 18.2868 68.3489 17.7359C68.6228 17.185 69.0075 16.7572 69.503 16.4525C69.9985 16.1478 70.5786 15.9955 71.2434 15.9955C71.9082 15.9955 72.4883 16.1478 72.9838 16.4525C73.4793 16.7572 73.864 17.185 74.1379 17.7359C74.4118 18.2868 74.5488 18.93 74.5488 19.6656C74.5488 20.3981 74.4118 21.0382 74.1379 21.586C73.864 22.1338 73.4793 22.5601 72.9838 22.8648C72.4883 23.1695 71.9082 23.3218 71.2434 23.3218ZM71.248 22.1631C71.6789 22.1631 72.0359 22.0492 72.319 21.8215C72.6022 21.5937 72.8114 21.2906 72.9469 20.912C73.0854 20.5335 73.1546 20.1164 73.1546 19.661C73.1546 19.2085 73.0854 18.7931 72.9469 18.4145C72.8114 18.0329 72.6022 17.7267 72.319 17.4958C72.0359 17.265 71.6789 17.1496 71.248 17.1496C70.8141 17.1496 70.454 17.265 70.1677 17.4958C69.8846 17.7267 69.6738 18.0329 69.5353 18.4145C69.3999 18.7931 69.3322 19.2085 69.3322 19.661C69.3322 20.1164 69.3999 20.5335 69.5353 20.912C69.6738 21.2906 69.8846 21.5937 70.1677 21.8215C70.454 22.0492 70.8141 22.1631 71.248 22.1631ZM80.5814 20.238V16.0878H81.9663V23.1787H80.6091V21.9507H80.5352C80.3721 22.3293 80.1105 22.6447 79.7504 22.8971C79.3934 23.1464 78.9487 23.271 78.4162 23.271C77.9607 23.271 77.5576 23.171 77.2067 22.971C76.8589 22.7678 76.585 22.4678 76.385 22.0708C76.188 21.6737 76.0895 21.1829 76.0895 20.5981V16.0878H77.4699V20.4319C77.4699 20.9151 77.6037 21.2998 77.8715 21.586C78.1392 21.8722 78.487 22.0154 78.9148 22.0154C79.1733 22.0154 79.4303 21.9507 79.6858 21.8215C79.9443 21.6922 80.1582 21.4968 80.3275 21.2352C80.4998 20.9736 80.5844 20.6412 80.5814 20.238ZM89.1345 17.819L87.8835 18.0406C87.8312 17.8805 87.7481 17.7282 87.6342 17.5835C87.5234 17.4389 87.3726 17.3204 87.1818 17.2281C86.991 17.1357 86.7524 17.0896 86.4662 17.0896C86.0754 17.0896 85.7491 17.1773 85.4875 17.3527C85.2259 17.5251 85.0951 17.7482 85.0951 18.0221C85.0951 18.2591 85.1828 18.4499 85.3583 18.5945C85.5337 18.7392 85.8168 18.8577 86.2077 18.95L87.3341 19.2085C87.9866 19.3593 88.4728 19.5917 88.7929 19.9056C89.113 20.2195 89.273 20.6273 89.273 21.129C89.273 21.5537 89.1499 21.9323 88.9037 22.2646C88.6606 22.594 88.3205 22.8525 87.8835 23.0402C87.4495 23.228 86.9463 23.3218 86.3739 23.3218C85.5799 23.3218 84.932 23.1526 84.4304 22.814C83.9287 22.4724 83.6209 21.9877 83.5071 21.3598L84.8412 21.1567C84.9243 21.5045 85.0951 21.7676 85.3536 21.9461C85.6122 22.1215 85.9492 22.2093 86.3647 22.2093C86.8171 22.2093 87.1787 22.1154 87.4495 21.9276C87.7204 21.7368 87.8558 21.5045 87.8558 21.2306C87.8558 21.009 87.7727 20.8228 87.6065 20.672C87.4434 20.5212 87.1925 20.4073 86.854 20.3303L85.6537 20.0672C84.992 19.9164 84.5027 19.6763 84.1857 19.347C83.8718 19.0177 83.7148 18.6007 83.7148 18.096C83.7148 17.6774 83.8318 17.3112 84.0657 16.9972C84.2996 16.6833 84.6227 16.4387 85.0351 16.2632C85.4475 16.0847 85.9199 15.9955 86.4524 15.9955C87.2187 15.9955 87.8219 16.1617 88.262 16.4941C88.7021 16.8234 88.993 17.265 89.1345 17.819Z" fill="#DB0000"/>
</svg>
