<svg width="22" height="19" viewBox="0 0 22 19" fill="none" xmlns="http://www.w3.org/2000/svg">
<mask id="mask0_1010_18916" style="mask-type:luminance" maskUnits="userSpaceOnUse" x="1" y="4" width="21" height="15">
<path d="M1.22754 4.46338V18.1245H21.2803V4.46338H1.22754Z" fill="white" stroke="white" stroke-width="0.0595935"/>
</mask>
<g mask="url(#mask0_1010_18916)">
<path d="M11.2539 4.46338C6.69545 4.46357 2.81052 7.29493 1.23047 11.2935C2.81037 15.2925 6.69986 18.1243 11.2539 18.1245C15.8083 18.1245 19.6994 15.2929 21.2793 11.2935C19.6993 7.29461 15.8081 4.46338 11.2539 4.46338ZM11.2539 6.68994C13.7934 6.68994 15.8553 8.7526 15.8555 11.2935C15.8555 13.8347 13.7936 15.897 11.2539 15.897C8.71447 15.8967 6.65332 13.8346 6.65332 11.2935C6.65351 8.75276 8.71458 6.69019 11.2539 6.68994ZM11.2539 8.57959C9.75759 8.57984 8.54121 9.7964 8.54102 11.2935C8.54102 12.7909 9.75748 14.008 11.2539 14.0083C12.7506 14.0083 13.9668 12.7911 13.9668 11.2935C13.9666 9.79625 12.7504 8.57959 11.2539 8.57959Z" fill="#9C9C9C" stroke="#9C9C9C" stroke-width="0.0595935"/>
</g>
<path d="M3.21359 3.55649C2.72918 3.01784 1.89983 2.97387 1.36118 3.45828C0.822525 3.94269 0.778556 4.77205 1.26297 5.3107L2.23828 4.43359L3.21359 3.55649ZM2.23828 4.43359L1.26297 5.3107L3.75586 8.08272L4.73118 7.20561L5.70649 6.32851L3.21359 3.55649L2.23828 4.43359Z" fill="#9C9C9C"/>
<path d="M19.4964 3.55649C19.9808 3.01784 20.8101 2.97387 21.3488 3.45828C21.8874 3.94269 21.9314 4.77205 21.447 5.3107L20.4717 4.43359L19.4964 3.55649ZM20.4717 4.43359L21.447 5.3107L18.9541 8.08272L17.9788 7.20561L17.0035 6.32851L19.4964 3.55649L20.4717 4.43359Z" fill="#9C9C9C"/>
<path d="M12.297 1.81988C12.3022 1.09547 11.7191 0.504037 10.9947 0.498883C10.2703 0.493729 9.67884 1.0768 9.67369 1.80122L10.9854 1.81055L12.297 1.81988ZM10.9854 1.81055L9.67369 1.80122L9.64716 5.52921L10.9588 5.53854L12.2705 5.54787L12.297 1.81988L10.9854 1.81055Z" fill="#9C9C9C"/>
</svg>
