<svg width="123" height="20" viewBox="0 0 123 20" fill="none" xmlns="http://www.w3.org/2000/svg">
<path d="M5.04545 15H1.27841V3.36364H5.16477C6.30492 3.36364 7.28409 3.59659 8.10227 4.0625C8.92045 4.52462 9.54735 5.18939 9.98295 6.05682C10.4223 6.92045 10.642 7.95644 10.642 9.16477C10.642 10.3769 10.4205 11.4186 9.97727 12.2898C9.53788 13.161 8.90152 13.8314 8.06818 14.3011C7.23485 14.767 6.22727 15 5.04545 15ZM3.03409 13.4659H4.94886C5.83523 13.4659 6.57197 13.2992 7.15909 12.9659C7.74621 12.6288 8.18561 12.142 8.47727 11.5057C8.76894 10.8655 8.91477 10.0852 8.91477 9.16477C8.91477 8.25189 8.76894 7.47727 8.47727 6.84091C8.18939 6.20455 7.75947 5.72159 7.1875 5.39205C6.61553 5.0625 5.9053 4.89773 5.05682 4.89773H3.03409V13.4659ZM16.4503 15.1761C15.5904 15.1761 14.8499 14.9924 14.2287 14.625C13.6113 14.2538 13.134 13.733 12.7969 13.0625C12.4635 12.3883 12.2969 11.5985 12.2969 10.6932C12.2969 9.79924 12.4635 9.01136 12.7969 8.32955C13.134 7.64773 13.6037 7.11553 14.206 6.73295C14.812 6.35038 15.5204 6.15909 16.331 6.15909C16.8234 6.15909 17.3007 6.24053 17.7628 6.40341C18.2249 6.56629 18.6397 6.82197 19.0071 7.17045C19.3745 7.51894 19.6643 7.97159 19.8764 8.52841C20.0885 9.08144 20.1946 9.75379 20.1946 10.5455V11.1477H13.2571V9.875H18.5298C18.5298 9.42803 18.4389 9.0322 18.2571 8.6875C18.0753 8.33902 17.8196 8.06439 17.4901 7.86364C17.1643 7.66288 16.7817 7.5625 16.3423 7.5625C15.8651 7.5625 15.4484 7.67992 15.0923 7.91477C14.7401 8.14583 14.4673 8.44886 14.2741 8.82386C14.0848 9.19508 13.9901 9.59848 13.9901 10.0341V11.0284C13.9901 11.6117 14.0923 12.108 14.2969 12.517C14.5052 12.9261 14.795 13.2386 15.1662 13.4545C15.5374 13.6667 15.9711 13.7727 16.4673 13.7727C16.7893 13.7727 17.0829 13.7273 17.348 13.6364C17.6132 13.5417 17.8423 13.4015 18.0355 13.2159C18.2287 13.0303 18.3764 12.8011 18.4787 12.5284L20.0866 12.8182C19.9579 13.2917 19.7268 13.7064 19.3935 14.0625C19.0639 14.4148 18.6491 14.6894 18.1491 14.8864C17.6529 15.0795 17.0866 15.1761 16.4503 15.1761ZM23.7784 3.36364V15H22.0795V3.36364H23.7784ZM29.8253 15.1761C28.9654 15.1761 28.2249 14.9924 27.6037 14.625C26.9863 14.2538 26.509 13.733 26.1719 13.0625C25.8385 12.3883 25.6719 11.5985 25.6719 10.6932C25.6719 9.79924 25.8385 9.01136 26.1719 8.32955C26.509 7.64773 26.9787 7.11553 27.581 6.73295C28.187 6.35038 28.8954 6.15909 29.706 6.15909C30.1984 6.15909 30.6757 6.24053 31.1378 6.40341C31.5999 6.56629 32.0147 6.82197 32.3821 7.17045C32.7495 7.51894 33.0393 7.97159 33.2514 8.52841C33.4635 9.08144 33.5696 9.75379 33.5696 10.5455V11.1477H26.6321V9.875H31.9048C31.9048 9.42803 31.8139 9.0322 31.6321 8.6875C31.4503 8.33902 31.1946 8.06439 30.8651 7.86364C30.5393 7.66288 30.1567 7.5625 29.7173 7.5625C29.2401 7.5625 28.8234 7.67992 28.4673 7.91477C28.1151 8.14583 27.8423 8.44886 27.6491 8.82386C27.4598 9.19508 27.3651 9.59848 27.3651 10.0341V11.0284C27.3651 11.6117 27.4673 12.108 27.6719 12.517C27.8802 12.9261 28.17 13.2386 28.5412 13.4545C28.9124 13.6667 29.3461 13.7727 29.8423 13.7727C30.1643 13.7727 30.4579 13.7273 30.723 13.6364C30.9882 13.5417 31.2173 13.4015 31.4105 13.2159C31.6037 13.0303 31.7514 12.8011 31.8537 12.5284L33.4616 12.8182C33.3329 13.2917 33.1018 13.7064 32.7685 14.0625C32.4389 14.4148 32.0241 14.6894 31.5241 14.8864C31.0279 15.0795 30.4616 15.1761 29.8253 15.1761ZM39.5284 6.27273V7.63636H34.7614V6.27273H39.5284ZM36.0398 4.18182H37.7386V12.4375C37.7386 12.767 37.7879 13.0152 37.8864 13.1818C37.9848 13.3447 38.1117 13.4564 38.267 13.517C38.4261 13.5739 38.5985 13.6023 38.7841 13.6023C38.9205 13.6023 39.0398 13.5928 39.142 13.5739C39.2443 13.5549 39.3239 13.5398 39.3807 13.5284L39.6875 14.9318C39.589 14.9697 39.4489 15.0076 39.267 15.0455C39.0852 15.0871 38.858 15.1098 38.5852 15.1136C38.1383 15.1212 37.7216 15.0417 37.3352 14.875C36.9489 14.7083 36.6364 14.4508 36.3977 14.1023C36.1591 13.7538 36.0398 13.3163 36.0398 12.7898V4.18182ZM45.0753 15.1761C44.2154 15.1761 43.4749 14.9924 42.8537 14.625C42.2363 14.2538 41.759 13.733 41.4219 13.0625C41.0885 12.3883 40.9219 11.5985 40.9219 10.6932C40.9219 9.79924 41.0885 9.01136 41.4219 8.32955C41.759 7.64773 42.2287 7.11553 42.831 6.73295C43.437 6.35038 44.1454 6.15909 44.956 6.15909C45.4484 6.15909 45.9257 6.24053 46.3878 6.40341C46.8499 6.56629 47.2647 6.82197 47.6321 7.17045C47.9995 7.51894 48.2893 7.97159 48.5014 8.52841C48.7135 9.08144 48.8196 9.75379 48.8196 10.5455V11.1477H41.8821V9.875H47.1548C47.1548 9.42803 47.0639 9.0322 46.8821 8.6875C46.7003 8.33902 46.4446 8.06439 46.1151 7.86364C45.7893 7.66288 45.4067 7.5625 44.9673 7.5625C44.4901 7.5625 44.0734 7.67992 43.7173 7.91477C43.3651 8.14583 43.0923 8.44886 42.8991 8.82386C42.7098 9.19508 42.6151 9.59848 42.6151 10.0341V11.0284C42.6151 11.6117 42.7173 12.108 42.9219 12.517C43.1302 12.9261 43.42 13.2386 43.7912 13.4545C44.1624 13.6667 44.5961 13.7727 45.0923 13.7727C45.4143 13.7727 45.7079 13.7273 45.973 13.6364C46.2382 13.5417 46.4673 13.4015 46.6605 13.2159C46.8537 13.0303 47.0014 12.8011 47.1037 12.5284L48.7116 12.8182C48.5829 13.2917 48.3518 13.7064 48.0185 14.0625C47.6889 14.4148 47.2741 14.6894 46.7741 14.8864C46.2779 15.0795 45.7116 15.1761 45.0753 15.1761ZM54.9389 18.2727V6.27273H56.598V7.6875H56.7401C56.8385 7.50568 56.9806 7.29545 57.1662 7.05682C57.3518 6.81818 57.6094 6.60985 57.9389 6.43182C58.2685 6.25 58.7041 6.15909 59.2457 6.15909C59.9503 6.15909 60.5791 6.33712 61.1321 6.69318C61.6851 7.04924 62.1188 7.5625 62.4332 8.23295C62.7514 8.90341 62.9105 9.71023 62.9105 10.6534C62.9105 11.5966 62.7533 12.4053 62.4389 13.0795C62.1245 13.75 61.6927 14.267 61.1435 14.6307C60.5942 14.9905 59.9673 15.1705 59.2628 15.1705C58.7325 15.1705 58.2988 15.0814 57.9616 14.9034C57.6283 14.7254 57.367 14.517 57.1776 14.2784C56.9882 14.0398 56.8423 13.8277 56.7401 13.642H56.6378V18.2727H54.9389ZM56.6037 10.6364C56.6037 11.25 56.6927 11.7879 56.8707 12.25C57.0488 12.7121 57.3063 13.0739 57.6435 13.3352C57.9806 13.5928 58.3935 13.7216 58.8821 13.7216C59.3897 13.7216 59.8139 13.5871 60.1548 13.3182C60.4957 13.0455 60.7533 12.6761 60.9276 12.2102C61.1056 11.7443 61.1946 11.2197 61.1946 10.6364C61.1946 10.0606 61.1075 9.54356 60.9332 9.08523C60.7628 8.62689 60.5052 8.26515 60.1605 8C59.8196 7.73485 59.3935 7.60227 58.8821 7.60227C58.3897 7.60227 57.973 7.72917 57.6321 7.98295C57.295 8.23674 57.0393 8.59091 56.8651 9.04545C56.6908 9.5 56.6037 10.0303 56.6037 10.6364ZM64.8139 15V6.27273H66.456V7.65909H66.5469C66.706 7.18939 66.9863 6.82008 67.3878 6.55114C67.7931 6.27841 68.2514 6.14205 68.7628 6.14205C68.8688 6.14205 68.9938 6.14583 69.1378 6.15341C69.2855 6.16098 69.401 6.17045 69.4844 6.18182V7.80682C69.4162 7.78788 69.295 7.76705 69.1207 7.74432C68.9465 7.7178 68.7723 7.70455 68.598 7.70455C68.1965 7.70455 67.8385 7.78977 67.5241 7.96023C67.2135 8.12689 66.9673 8.35985 66.7855 8.65909C66.6037 8.95455 66.5128 9.29167 66.5128 9.67045V15H64.8139ZM74.3182 15.1761C73.5 15.1761 72.786 14.9886 72.1761 14.6136C71.5663 14.2386 71.0928 13.714 70.7557 13.0398C70.4186 12.3655 70.25 11.5777 70.25 10.6761C70.25 9.77083 70.4186 8.97917 70.7557 8.30114C71.0928 7.62311 71.5663 7.09659 72.1761 6.72159C72.786 6.34659 73.5 6.15909 74.3182 6.15909C75.1364 6.15909 75.8504 6.34659 76.4602 6.72159C77.0701 7.09659 77.5436 7.62311 77.8807 8.30114C78.2178 8.97917 78.3864 9.77083 78.3864 10.6761C78.3864 11.5777 78.2178 12.3655 77.8807 13.0398C77.5436 13.714 77.0701 14.2386 76.4602 14.6136C75.8504 14.9886 75.1364 15.1761 74.3182 15.1761ZM74.3239 13.75C74.8542 13.75 75.2936 13.6098 75.642 13.3295C75.9905 13.0492 76.2481 12.6761 76.4148 12.2102C76.5852 11.7443 76.6705 11.2311 76.6705 10.6705C76.6705 10.1136 76.5852 9.60227 76.4148 9.13636C76.2481 8.66667 75.9905 8.28977 75.642 8.00568C75.2936 7.72159 74.8542 7.57955 74.3239 7.57955C73.7898 7.57955 73.3466 7.72159 72.9943 8.00568C72.6458 8.28977 72.3864 8.66667 72.2159 9.13636C72.0492 9.60227 71.9659 10.1136 71.9659 10.6705C71.9659 11.2311 72.0492 11.7443 72.2159 12.2102C72.3864 12.6761 72.6458 13.0492 72.9943 13.3295C73.3466 13.6098 73.7898 13.75 74.3239 13.75ZM84.4361 6.27273V7.63636H79.5043V6.27273H84.4361ZM80.8565 15V5.26136C80.8565 4.71591 80.9759 4.26326 81.2145 3.90341C81.4531 3.53977 81.7694 3.26894 82.1634 3.09091C82.5573 2.90909 82.9853 2.81818 83.4474 2.81818C83.7884 2.81818 84.08 2.84659 84.3224 2.90341C84.5649 2.95644 84.7448 3.00568 84.8622 3.05114L84.4645 4.42614C84.3849 4.40341 84.2827 4.37689 84.1577 4.34659C84.0327 4.3125 83.8812 4.29545 83.7031 4.29545C83.2902 4.29545 82.9948 4.39773 82.8168 4.60227C82.6425 4.80682 82.5554 5.10227 82.5554 5.48864V15H80.8565ZM86.1889 15V6.27273H87.8878V15H86.1889ZM87.0469 4.92614C86.7514 4.92614 86.4976 4.82765 86.2855 4.63068C86.0772 4.42992 85.973 4.19129 85.973 3.91477C85.973 3.63447 86.0772 3.39583 86.2855 3.19886C86.4976 2.99811 86.7514 2.89773 87.0469 2.89773C87.3423 2.89773 87.5942 2.99811 87.8026 3.19886C88.0147 3.39583 88.1207 3.63447 88.1207 3.91477C88.1207 4.19129 88.0147 4.42992 87.8026 4.63068C87.5942 4.82765 87.3423 4.92614 87.0469 4.92614ZM91.8722 3.36364V15H90.1733V3.36364H91.8722ZM97.919 15.1761C97.0592 15.1761 96.3187 14.9924 95.6974 14.625C95.08 14.2538 94.6027 13.733 94.2656 13.0625C93.9323 12.3883 93.7656 11.5985 93.7656 10.6932C93.7656 9.79924 93.9323 9.01136 94.2656 8.32955C94.6027 7.64773 95.0724 7.11553 95.6747 6.73295C96.2808 6.35038 96.9891 6.15909 97.7997 6.15909C98.2921 6.15909 98.7694 6.24053 99.2315 6.40341C99.6937 6.56629 100.108 6.82197 100.476 7.17045C100.843 7.51894 101.133 7.97159 101.345 8.52841C101.557 9.08144 101.663 9.75379 101.663 10.5455V11.1477H94.7259V9.875H99.9986C99.9986 9.42803 99.9077 9.0322 99.7259 8.6875C99.544 8.33902 99.2884 8.06439 98.9588 7.86364C98.633 7.66288 98.2505 7.5625 97.8111 7.5625C97.3338 7.5625 96.9171 7.67992 96.5611 7.91477C96.2088 8.14583 95.9361 8.44886 95.7429 8.82386C95.5535 9.19508 95.4588 9.59848 95.4588 10.0341V11.0284C95.4588 11.6117 95.5611 12.108 95.7656 12.517C95.974 12.9261 96.2637 13.2386 96.6349 13.4545C97.0062 13.6667 97.4399 13.7727 97.9361 13.7727C98.258 13.7727 98.5516 13.7273 98.8168 13.6364C99.0819 13.5417 99.3111 13.4015 99.5043 13.2159C99.6974 13.0303 99.8452 12.8011 99.9474 12.5284L101.555 12.8182C101.427 13.2917 101.196 13.7064 100.862 14.0625C100.533 14.4148 100.118 14.6894 99.6179 14.8864C99.1217 15.0795 98.5554 15.1761 97.919 15.1761Z" fill="#C2C2C2"/>
<path d="M0 18.1818H53.8466V19.2727H0V18.1818ZM57.7315 18.1818H102.413V19.2727H57.7315V18.1818Z" fill="#C2C2C2"/>
<mask id="mask0_698_5316" style="mask-type:luminance" maskUnits="userSpaceOnUse" x="109" y="2" width="14" height="16">
<path d="M122.396 2H109V17.4302H122.396V2Z" fill="white"/>
</mask>
<g mask="url(#mask0_698_5316)">
<path d="M122.391 5.40461C122.391 5.81777 122.057 6.15119 121.645 6.15119H121.247V14.9713C121.247 16.3301 120.147 17.4302 118.794 17.4302H112.616C111.263 17.4302 110.164 16.3301 110.164 14.9713V6.15119H109.766C109.353 6.15119 109.02 5.81777 109.02 5.40461C109.02 4.99146 109.353 4.65795 109.766 4.65795H112.377V3.88646C112.377 2.84615 113.223 2 114.263 2H117.148C118.187 2 119.033 2.84615 119.033 3.88646V4.65795H121.645C122.057 4.65795 122.391 4.99146 122.391 5.40461ZM113.104 8.27158V13.8165C113.104 14.2297 113.437 14.5631 113.85 14.5631C114.263 14.5631 114.596 14.2297 114.596 13.8165V8.27158C114.596 7.85843 114.263 7.52501 113.85 7.52501C113.437 7.52501 113.104 7.85843 113.104 8.27158ZM117.541 3.88646C117.541 3.66747 117.367 3.49324 117.148 3.49324H114.263C114.044 3.49324 113.87 3.66747 113.87 3.88646V4.65795H117.541V3.88646ZM118.307 8.27158C118.307 7.85843 117.974 7.52501 117.561 7.52501C117.148 7.52501 116.815 7.85843 116.815 8.27158V13.8165C116.815 14.2297 117.148 14.5631 117.561 14.5631C117.974 14.5631 118.307 14.2297 118.307 13.8165V8.27158Z" fill="#C2C2C2"/>
</g>
</svg>
