<svg width="115" height="28" viewBox="0 0 115 28" fill="none" xmlns="http://www.w3.org/2000/svg">
<rect x="0.5" y="0.5" width="113.321" height="27" rx="13.5" fill="white"/>
<rect x="0.5" y="0.5" width="113.321" height="27" rx="13.5" stroke="#DB0000"/>
<mask id="mask0_501_36086" style="mask-type:luminance" maskUnits="userSpaceOnUse" x="13" y="16" width="15" height="3">
<path d="M13.1299 16.7773H27.1913V18.6862H13.1299V16.7773Z" fill="white"/>
</mask>
<g mask="url(#mask0_501_36086)">
<path d="M13.1299 16.8125V17.2813C13.13 17.3273 13.1324 17.3734 13.1369 17.4191C13.1414 17.4649 13.1482 17.5103 13.1572 17.5556C13.1663 17.6007 13.1775 17.6453 13.1908 17.6893C13.2042 17.7333 13.2198 17.7767 13.2375 17.8192C13.2551 17.8618 13.2748 17.9033 13.2964 17.9439C13.3182 17.9844 13.3418 18.0239 13.3675 18.0622C13.393 18.1004 13.4205 18.1374 13.4496 18.1729C13.4788 18.2085 13.5097 18.2426 13.5422 18.2752C13.5749 18.3077 13.609 18.3387 13.6446 18.3677C13.68 18.397 13.717 18.4245 13.7553 18.45C13.7935 18.4756 13.833 18.4993 13.8736 18.521C13.9142 18.5427 13.9557 18.5624 13.9983 18.58C14.0408 18.5977 14.084 18.6132 14.1281 18.6266C14.1721 18.64 14.2168 18.6512 14.2619 18.6602C14.307 18.6692 14.3525 18.6761 14.3984 18.6806C14.4441 18.6851 14.4901 18.6874 14.5361 18.6874H25.7852C25.8312 18.6874 25.8772 18.6851 25.923 18.6806C25.9688 18.6761 26.0142 18.6692 26.0595 18.6602C26.1046 18.6512 26.1492 18.64 26.1932 18.6266C26.2372 18.6132 26.2806 18.5977 26.323 18.58C26.3656 18.5624 26.4072 18.5427 26.4477 18.521C26.4883 18.4993 26.5278 18.4756 26.5661 18.45C26.6043 18.4245 26.6413 18.397 26.6768 18.3679C26.7124 18.3387 26.7464 18.3077 26.7791 18.2752C26.8116 18.2426 26.8425 18.2085 26.8718 18.1729C26.9008 18.1374 26.9284 18.1004 26.9539 18.0622C26.9795 18.0239 27.0032 17.9844 27.0249 17.9439C27.0465 17.9033 27.0663 17.8618 27.0839 17.8192C27.1016 17.7767 27.1171 17.7333 27.1305 17.6893C27.1439 17.6453 27.1551 17.6007 27.1641 17.5556C27.1731 17.5103 27.18 17.4649 27.1845 17.4191C27.189 17.3734 27.1913 17.3273 27.1913 17.2813V16.8125H13.1299Z" fill="#DB0000"/>
</g>
<path d="M17.3474 13.9993C17.3474 13.9685 17.3459 13.9381 17.3428 13.9074C17.3398 13.8769 17.3353 13.8466 17.3292 13.8165C17.3232 13.7864 17.3157 13.7567 17.3069 13.7274C17.2978 13.698 17.2876 13.6691 17.2758 13.6408C17.2641 13.6125 17.2509 13.5848 17.2364 13.5577C17.222 13.5307 17.2062 13.5044 17.1891 13.4787C17.172 13.4532 17.1538 13.4287 17.1344 13.405C17.1148 13.3812 17.0943 13.3585 17.0725 13.3368C17.0509 13.3152 17.0282 13.2945 17.0044 13.275C16.9808 13.2556 16.9561 13.2373 16.9306 13.2203C16.9051 13.2032 16.8788 13.1875 16.8517 13.173C16.8247 13.1584 16.797 13.1454 16.7687 13.1335C16.7402 13.1219 16.7115 13.1115 16.6821 13.1026C16.6527 13.0936 16.623 13.0861 16.5928 13.0802C16.5628 13.0741 16.5325 13.0696 16.5019 13.0665C16.4714 13.0636 16.4408 13.062 16.4101 13.062H15.004C14.9732 13.062 14.9426 13.0636 14.9121 13.0665C14.8816 13.0696 14.8513 13.0741 14.8212 13.0802C14.791 13.0861 14.7613 13.0936 14.7319 13.1026C14.7025 13.1115 14.6738 13.1219 14.6455 13.1335C14.617 13.1454 14.5893 13.1584 14.5623 13.1729C14.5352 13.1875 14.5089 13.2032 14.4834 13.2203C14.4579 13.2373 14.4332 13.2556 14.4096 13.275C14.3858 13.2945 14.3631 13.3152 14.3413 13.3368C14.3197 13.3585 14.299 13.3812 14.2796 13.4049C14.2601 13.4287 14.2418 13.4532 14.2249 13.4787C14.2077 13.5042 14.1919 13.5305 14.1774 13.5576C14.163 13.5846 14.1499 13.6125 14.1381 13.6408C14.1263 13.6691 14.116 13.698 14.107 13.7274C14.0981 13.7566 14.0907 13.7864 14.0846 13.8165C14.0785 13.8466 14.074 13.8769 14.0711 13.9074C14.068 13.9381 14.0664 13.9685 14.0664 13.9993V15.8742H17.3474V13.9993Z" fill="#DB0000"/>
<path d="M19.4568 11.1875C19.426 11.1877 19.3956 11.1892 19.3649 11.1922C19.3345 11.1953 19.3041 11.1998 19.274 11.2058C19.244 11.2118 19.2141 11.2192 19.1847 11.2282C19.1555 11.2371 19.1266 11.2475 19.0983 11.2592C19.0698 11.271 19.0421 11.2841 19.0151 11.2987C18.988 11.3131 18.9617 11.3288 18.9362 11.3459C18.9107 11.3631 18.886 11.3812 18.8624 11.4007C18.8386 11.4203 18.8159 11.4408 18.7943 11.4626C18.7725 11.4842 18.752 11.5069 18.7326 11.5307C18.713 11.5545 18.6948 11.579 18.6777 11.6045C18.6606 11.63 18.6449 11.6563 18.6304 11.6834C18.6159 11.7106 18.6029 11.7383 18.5911 11.7666C18.5792 11.7949 18.569 11.8238 18.56 11.8532C18.5511 11.8825 18.5436 11.9122 18.5376 11.9424C18.5317 11.9724 18.5272 12.0027 18.524 12.0334C18.5211 12.0639 18.5195 12.0945 18.5195 12.1251V15.8748H21.8002V12.1251C21.8002 12.0945 21.7987 12.0639 21.7957 12.0334C21.7926 12.0027 21.7881 11.9724 21.7822 11.9424C21.7761 11.9122 21.7687 11.8825 21.7598 11.8532C21.7508 11.8238 21.7405 11.7949 21.7287 11.7666C21.7169 11.7383 21.7038 11.7106 21.6894 11.6834C21.6749 11.6563 21.6591 11.63 21.6421 11.6045C21.625 11.579 21.6068 11.5545 21.5872 11.5307C21.5678 11.5069 21.5473 11.4842 21.5255 11.4626C21.5039 11.4408 21.4812 11.4203 21.4574 11.4007C21.4336 11.3812 21.409 11.3631 21.3835 11.3459C21.358 11.3288 21.3318 11.3131 21.3047 11.2987C21.2776 11.2841 21.25 11.271 21.2215 11.2592C21.1932 11.2475 21.1643 11.2371 21.1349 11.2282C21.1057 11.2192 21.0758 11.2118 21.0458 11.2058C21.0156 11.1998 20.9853 11.1953 20.9548 11.1922C20.9242 11.1892 20.8936 11.1877 20.8629 11.1875H19.4568Z" fill="#DB0000"/>
<path d="M23.91 9.31299C23.8793 9.31299 23.8487 9.31454 23.8181 9.31765C23.7876 9.32061 23.7573 9.32512 23.7273 9.33118C23.6971 9.33724 23.6674 9.34471 23.638 9.35357C23.6086 9.36259 23.5799 9.37285 23.5514 9.38467C23.5231 9.39633 23.4954 9.40955 23.4684 9.42401C23.4413 9.43847 23.415 9.45417 23.3895 9.47128C23.364 9.48838 23.3393 9.50658 23.3157 9.52617C23.2919 9.5456 23.2692 9.56613 23.2476 9.5879C23.2258 9.60951 23.2053 9.63221 23.1857 9.656C23.1662 9.67964 23.1481 9.70436 23.1309 9.72986C23.1138 9.75536 23.0981 9.78164 23.0837 9.8087C23.0692 9.83575 23.056 9.86343 23.0443 9.89173C23.0325 9.92018 23.0221 9.94895 23.0132 9.97834C23.0044 10.0077 22.9969 10.0374 22.9908 10.0676C22.9848 10.0976 22.9803 10.1279 22.9773 10.1586C22.9742 10.189 22.9727 10.2197 22.9727 10.2503V15.8749H26.2537V10.2503C26.2537 10.2197 26.2521 10.189 26.2492 10.1584C26.2461 10.1279 26.2416 10.0976 26.2355 10.0674C26.2296 10.0374 26.222 10.0077 26.2131 9.97834C26.2042 9.94895 26.1938 9.92003 26.182 9.89173C26.1703 9.86343 26.1571 9.83575 26.1427 9.80854C26.1282 9.78148 26.1125 9.75521 26.0954 9.72971C26.0783 9.70421 26.0601 9.67964 26.0405 9.65585C26.0211 9.63221 26.0005 9.60951 25.9788 9.58774C25.957 9.56613 25.9343 9.54545 25.9107 9.52601C25.8869 9.50658 25.8623 9.48823 25.8368 9.47128C25.8112 9.45417 25.7849 9.43831 25.7578 9.42385C25.7308 9.40939 25.7031 9.39633 25.6748 9.38451C25.6463 9.37285 25.6176 9.36243 25.5882 9.35357C25.5588 9.34455 25.5291 9.33709 25.4989 9.33118C25.4688 9.32512 25.4384 9.32061 25.408 9.31765C25.3775 9.31454 25.3469 9.31299 25.3161 9.31299H23.91Z" fill="#DB0000"/>
<path d="M39.7756 12.0646C39.6987 11.8153 39.5925 11.5922 39.4571 11.3952C39.3247 11.1952 39.1647 11.0244 38.977 10.8828C38.7923 10.7412 38.5799 10.6351 38.3399 10.5643C38.0998 10.4904 37.8382 10.4535 37.5551 10.4535C37.0473 10.4535 36.5949 10.5812 36.1978 10.8366C35.8008 11.0921 35.4884 11.4676 35.2607 11.9631C35.036 12.4555 34.9237 13.0556 34.9237 13.7635C34.9237 14.4775 35.036 15.0823 35.2607 15.5778C35.4854 16.0733 35.7977 16.4503 36.1978 16.7088C36.5979 16.9643 37.0627 17.092 37.592 17.092C38.0721 17.092 38.4876 16.9996 38.8385 16.815C39.1924 16.6303 39.4648 16.3687 39.6556 16.0302C39.8464 15.6886 39.9418 15.2885 39.9418 14.8299L40.3296 14.8899H37.7628V13.5511H41.5991V14.6868C41.5991 15.4962 41.4268 16.1964 41.0821 16.7873C40.7374 17.3782 40.2634 17.8337 39.6602 18.1538C39.057 18.4708 38.3645 18.6293 37.5828 18.6293C36.7118 18.6293 35.947 18.4338 35.2884 18.043C34.6329 17.649 34.1204 17.0904 33.7511 16.3672C33.3849 15.6409 33.2017 14.7791 33.2017 13.782C33.2017 13.0187 33.3095 12.337 33.5249 11.7369C33.7434 11.1367 34.0481 10.6274 34.439 10.2088C34.8298 9.78717 35.2884 9.46709 35.8147 9.24858C36.341 9.02699 36.9134 8.91619 37.532 8.91619C38.0552 8.91619 38.543 8.99313 38.9954 9.14702C39.4478 9.29782 39.8495 9.51326 40.2003 9.79332C40.5543 10.0734 40.8451 10.4058 41.0728 10.7905C41.3006 11.1752 41.4499 11.5999 41.5206 12.0646H39.7756ZM46.2745 18.6385C45.582 18.6385 44.9818 18.4862 44.474 18.1815C43.9662 17.8768 43.5723 17.4505 43.2922 16.9027C43.0152 16.3549 42.8767 15.7147 42.8767 14.9822C42.8767 14.2498 43.0152 13.6081 43.2922 13.0572C43.5723 12.5063 43.9662 12.0785 44.474 11.7738C44.9818 11.4691 45.582 11.3168 46.2745 11.3168C46.9669 11.3168 47.5671 11.4691 48.0749 11.7738C48.5827 12.0785 48.9751 12.5063 49.2521 13.0572C49.5322 13.6081 49.6722 14.2498 49.6722 14.9822C49.6722 15.7147 49.5322 16.3549 49.2521 16.9027C48.9751 17.4505 48.5827 17.8768 48.0749 18.1815C47.5671 18.4862 46.9669 18.6385 46.2745 18.6385ZM46.2837 17.2997C46.6592 17.2997 46.9731 17.1966 47.2255 16.9904C47.4778 16.7811 47.6656 16.5011 47.7887 16.1502C47.9148 15.7994 47.9779 15.4085 47.9779 14.9776C47.9779 14.5437 47.9148 14.1513 47.7887 13.8004C47.6656 13.4465 47.4778 13.1649 47.2255 12.9556C46.9731 12.7463 46.6592 12.6417 46.2837 12.6417C45.899 12.6417 45.5789 12.7463 45.3235 12.9556C45.0711 13.1649 44.8818 13.4465 44.7556 13.8004C44.6325 14.1513 44.571 14.5437 44.571 14.9776C44.571 15.4085 44.6325 15.7994 44.7556 16.1502C44.8818 16.5011 45.0711 16.7811 45.3235 16.9904C45.5789 17.1966 45.899 17.2997 46.2837 17.2997ZM57.856 11.4091V12.7017H53.7797V11.4091H57.856ZM54.7861 9.71023H56.4573V16.3672C56.4573 16.5919 56.4911 16.7642 56.5588 16.8842C56.6296 17.0012 56.7219 17.0812 56.8358 17.1243C56.9497 17.1674 57.0759 17.1889 57.2144 17.1889C57.319 17.1889 57.4144 17.1812 57.5006 17.1658C57.5898 17.1504 57.6575 17.1366 57.7037 17.1243L57.9853 18.4308C57.8961 18.4615 57.7683 18.4954 57.6021 18.5323C57.439 18.5692 57.239 18.5908 57.002 18.5969C56.5834 18.6093 56.2064 18.5462 55.871 18.4077C55.5355 18.2661 55.2693 18.0476 55.0723 17.7521C54.8784 17.4567 54.783 17.0874 54.7861 16.6442V9.71023ZM62.2706 18.6385C61.5781 18.6385 60.9779 18.4862 60.4701 18.1815C59.9623 17.8768 59.5684 17.4505 59.2883 16.9027C59.0113 16.3549 58.8728 15.7147 58.8728 14.9822C58.8728 14.2498 59.0113 13.6081 59.2883 13.0572C59.5684 12.5063 59.9623 12.0785 60.4701 11.7738C60.9779 11.4691 61.5781 11.3168 62.2706 11.3168C62.963 11.3168 63.5632 11.4691 64.071 11.7738C64.5788 12.0785 64.9712 12.5063 65.2482 13.0572C65.5282 13.6081 65.6683 14.2498 65.6683 14.9822C65.6683 15.7147 65.5282 16.3549 65.2482 16.9027C64.9712 17.4505 64.5788 17.8768 64.071 18.1815C63.5632 18.4862 62.963 18.6385 62.2706 18.6385ZM62.2798 17.2997C62.6553 17.2997 62.9692 17.1966 63.2215 16.9904C63.4739 16.7811 63.6617 16.5011 63.7848 16.1502C63.9109 15.7994 63.974 15.4085 63.974 14.9776C63.974 14.5437 63.9109 14.1513 63.7848 13.8004C63.6617 13.4465 63.4739 13.1649 63.2215 12.9556C62.9692 12.7463 62.6553 12.6417 62.2798 12.6417C61.8951 12.6417 61.575 12.7463 61.3196 12.9556C61.0672 13.1649 60.8779 13.4465 60.7517 13.8004C60.6286 14.1513 60.5671 14.5437 60.5671 14.9776C60.5671 15.4085 60.6286 15.7994 60.7517 16.1502C60.8779 16.5011 61.0672 16.7811 61.3196 16.9904C61.575 17.1966 61.8951 17.2997 62.2798 17.2997ZM70.3113 21.1591V11.4091H71.9548V12.5817H72.0517C72.1379 12.4093 72.2595 12.2262 72.4164 12.0323C72.5734 11.8353 72.7857 11.6676 73.0535 11.5291C73.3212 11.3875 73.6629 11.3168 74.0783 11.3168C74.6262 11.3168 75.1201 11.4568 75.5602 11.7369C76.0034 12.0138 76.3543 12.4247 76.6128 12.9695C76.8744 13.5111 77.0052 14.1759 77.0052 14.9638C77.0052 15.7424 76.8775 16.4041 76.622 16.9489C76.3666 17.4936 76.0188 17.9091 75.5787 18.1953C75.1386 18.4815 74.64 18.6246 74.083 18.6246C73.6767 18.6246 73.3397 18.5569 73.072 18.4215C72.8042 18.2861 72.5888 18.123 72.4256 17.9322C72.2656 17.7383 72.141 17.5552 72.0517 17.3828H71.9825V21.1591H70.3113ZM71.9502 14.9545C71.9502 15.4131 72.0148 15.8147 72.144 16.1594C72.2764 16.5041 72.4657 16.7734 72.7119 16.9673C72.9612 17.1581 73.2628 17.2536 73.6167 17.2536C73.986 17.2536 74.2953 17.1551 74.5446 16.9581C74.7939 16.758 74.9816 16.4857 75.1078 16.141C75.2371 15.7932 75.3017 15.3977 75.3017 14.9545C75.3017 14.5144 75.2386 14.1236 75.1124 13.782C74.9863 13.4403 74.7985 13.1726 74.5492 12.9787C74.2999 12.7848 73.9891 12.6879 73.6167 12.6879C73.2597 12.6879 72.9565 12.7817 72.7073 12.9695C72.458 13.1572 72.2687 13.4203 72.1394 13.7589C72.0132 14.0974 71.9502 14.496 71.9502 14.9545ZM80.4768 18.6431C80.0274 18.6431 79.6227 18.5631 79.2627 18.4031C78.9056 18.2399 78.6225 17.9999 78.4132 17.6829C78.207 17.3659 78.1039 16.975 78.1039 16.5103C78.1039 16.1102 78.1778 15.7794 78.3255 15.5178C78.4732 15.2562 78.6748 15.0469 78.9303 14.8899C79.1857 14.733 79.4735 14.6145 79.7935 14.5344C80.1167 14.4513 80.4506 14.3913 80.7953 14.3544C81.2108 14.3113 81.5478 14.2728 81.8063 14.239C82.0649 14.2021 82.2526 14.1467 82.3695 14.0728C82.4896 13.9959 82.5496 13.8774 82.5496 13.7173V13.6896C82.5496 13.3419 82.4465 13.0726 82.2403 12.8817C82.0341 12.6909 81.7371 12.5955 81.3493 12.5955C80.94 12.5955 80.6153 12.6848 80.3752 12.8633C80.1382 13.0418 79.9782 13.2526 79.8951 13.4957L78.3347 13.2741C78.4578 12.8433 78.661 12.4832 78.9441 12.1939C79.2273 11.9015 79.5735 11.683 79.9828 11.5384C80.3921 11.3906 80.8446 11.3168 81.3401 11.3168C81.6817 11.3168 82.0218 11.3568 82.3603 11.4368C82.6988 11.5168 83.0082 11.6491 83.2882 11.8338C83.5683 12.0154 83.793 12.2631 83.9622 12.5771C84.1346 12.891 84.2207 13.2834 84.2207 13.7543V18.5H82.6142V17.5259H82.5588C82.4573 17.7229 82.3141 17.9076 82.1295 18.0799C81.9479 18.2492 81.7186 18.3861 81.4416 18.4908C81.1677 18.5923 80.8461 18.6431 80.4768 18.6431ZM80.9107 17.4151C81.2462 17.4151 81.537 17.349 81.7832 17.2166C82.0295 17.0812 82.2187 16.9027 82.3511 16.6811C82.4865 16.4595 82.5542 16.2179 82.5542 15.9563V15.1207C82.5019 15.1638 82.4126 15.2038 82.2864 15.2408C82.1633 15.2777 82.0248 15.31 81.871 15.3377C81.7171 15.3654 81.5647 15.39 81.4139 15.4116C81.2631 15.4331 81.1323 15.4516 81.0215 15.467C80.7722 15.5008 80.5491 15.5562 80.3521 15.6332C80.1552 15.7101 79.9997 15.8178 79.8859 15.9563C79.772 16.0917 79.7151 16.2672 79.7151 16.4826C79.7151 16.7904 79.8274 17.0227 80.0521 17.1797C80.2767 17.3366 80.563 17.4151 80.9107 17.4151ZM88.985 21.3068C88.3848 21.3068 87.8693 21.2253 87.4384 21.0621C87.0076 20.9021 86.6613 20.6867 86.3997 20.4158C86.1381 20.145 85.9565 19.8449 85.855 19.5156L87.36 19.1509C87.4277 19.2894 87.5261 19.4264 87.6554 19.5618C87.7847 19.7003 87.9586 19.8142 88.1771 19.9034C88.3987 19.9957 88.6772 20.0419 89.0127 20.0419C89.4866 20.0419 89.879 19.9265 90.1899 19.6957C90.5007 19.4679 90.6561 19.0924 90.6561 18.5692V17.2259H90.573C90.4868 17.3982 90.3607 17.5752 90.1945 17.7567C90.0314 17.9383 89.8144 18.0907 89.5435 18.2138C89.2758 18.3369 88.9388 18.3984 88.5325 18.3984C87.9878 18.3984 87.4938 18.2707 87.0506 18.0153C86.6105 17.7567 86.2597 17.372 85.9981 16.8612C85.7396 16.3472 85.6103 15.704 85.6103 14.9315C85.6103 14.1528 85.7396 13.4957 85.9981 12.9602C86.2597 12.4216 86.6121 12.0138 87.0553 11.7369C87.4984 11.4568 87.9924 11.3168 88.5372 11.3168C88.9526 11.3168 89.2943 11.3875 89.562 11.5291C89.8328 11.6676 90.0483 11.8353 90.2083 12.0323C90.3684 12.2262 90.4899 12.4093 90.573 12.5817H90.6654V11.4091H92.3134V18.6154C92.3134 19.2217 92.1688 19.7234 91.8795 20.1204C91.5902 20.5174 91.1947 20.8144 90.693 21.0114C90.1914 21.2083 89.622 21.3068 88.985 21.3068ZM88.9988 17.0874C89.3527 17.0874 89.6543 17.0012 89.9036 16.8288C90.1529 16.6565 90.3422 16.4087 90.4715 16.0856C90.6007 15.7624 90.6654 15.3746 90.6654 14.9222C90.6654 14.476 90.6007 14.0851 90.4715 13.7496C90.3453 13.4142 90.1575 13.1541 89.9082 12.9695C89.662 12.7817 89.3589 12.6879 88.9988 12.6879C88.6264 12.6879 88.3156 12.7848 88.0663 12.9787C87.817 13.1726 87.6292 13.4388 87.5031 13.7773C87.3769 14.1128 87.3138 14.4944 87.3138 14.9222C87.3138 15.3562 87.3769 15.7363 87.5031 16.0625C87.6323 16.3857 87.8216 16.638 88.0709 16.8196C88.3233 16.9981 88.6326 17.0874 88.9988 17.0874ZM97.1653 18.6385C96.4544 18.6385 95.8404 18.4908 95.3234 18.1953C94.8094 17.8968 94.4139 17.4751 94.1369 16.9304C93.86 16.3826 93.7215 15.7378 93.7215 14.9961C93.7215 14.2667 93.86 13.6265 94.1369 13.0756C94.417 12.5217 94.8079 12.0908 95.3095 11.783C95.8112 11.4722 96.4006 11.3168 97.0776 11.3168C97.5147 11.3168 97.9271 11.3875 98.3149 11.5291C98.7057 11.6676 99.0504 11.883 99.3489 12.1754C99.6506 12.4678 99.8875 12.8402 100.06 13.2926C100.232 13.742 100.318 14.2775 100.318 14.8991V15.4116H94.5063V14.2852H98.7165C98.7134 13.9651 98.6442 13.6804 98.5087 13.4311C98.3733 13.1787 98.1841 12.9802 97.9409 12.8356C97.7009 12.6909 97.4208 12.6186 97.1007 12.6186C96.7591 12.6186 96.459 12.7017 96.2005 12.8679C95.942 13.031 95.7404 13.2464 95.5957 13.5142C95.4542 13.7789 95.3819 14.0697 95.3788 14.3867V15.37C95.3788 15.7824 95.4542 16.1364 95.605 16.4318C95.7558 16.7242 95.9666 16.9489 96.2374 17.1058C96.5083 17.2597 96.8253 17.3366 97.1884 17.3366C97.4316 17.3366 97.6516 17.3028 97.8486 17.2351C98.0456 17.1643 98.2164 17.0612 98.361 16.9258C98.5057 16.7904 98.6149 16.6226 98.6888 16.4226L100.249 16.598C100.151 17.0104 99.9629 17.3705 99.6859 17.6783C99.412 17.983 99.0612 18.2199 98.6334 18.3892C98.2056 18.5554 97.7162 18.6385 97.1653 18.6385Z" fill="#DB0000"/>
</svg>
